<?xml version="1.0" encoding="UTF-8" standalone="no"?>
<!-- Created with Inkscape (http://www.inkscape.org/) -->

<svg
   version="1.1"
   id="svg176"
   width="1329.162"
   height="974.09918"
   viewBox="0 0 1329.162 974.09918"
   sodipodi:docname="comic.svg"
   xml:space="preserve"
   inkscape:version="1.2.2 (b0a8486541, 2022-12-01)"
   xmlns:inkscape="http://www.inkscape.org/namespaces/inkscape"
   xmlns:sodipodi="http://sodipodi.sourceforge.net/DTD/sodipodi-0.dtd"
   xmlns="http://www.w3.org/2000/svg"
   xmlns:svg="http://www.w3.org/2000/svg"><defs
     id="defs180"><rect
       x="-1965.0031"
       y="5014.856"
       width="780.47626"
       height="122.30103"
       id="rect3299" /><inkscape:path-effect
       effect="roughen"
       id="path-effect2210-3-3-4"
       is_visible="true"
       lpeversion="1.2"
       method="size"
       max_segment_size="40"
       segments="114"
       displace_x="1;589550557"
       displace_y="7;1910419474"
       global_randomize="1;1292492417"
       handles="along"
       shift_nodes="true"
       fixed_displacement="false"
       spray_tool_friendly="false" /><rect
       x="-1889.6726"
       y="613.1416"
       width="1090.248"
       height="295.04428"
       id="rect8937-1" /></defs><sodipodi:namedview
     id="namedview178"
     pagecolor="#ffffff"
     bordercolor="#000000"
     borderopacity="0.25"
     inkscape:showpageshadow="2"
     inkscape:pageopacity="0.0"
     inkscape:pagecheckerboard="0"
     inkscape:deskcolor="#d1d1d1"
     showgrid="false"
     showguides="false"
     inkscape:zoom="0.13137786"
     inkscape:cx="9853.2583"
     inkscape:cy="2641.2365"
     inkscape:window-width="1920"
     inkscape:window-height="1011"
     inkscape:window-x="0"
     inkscape:window-y="0"
     inkscape:window-maximized="1"
     inkscape:current-layer="g182"><inkscape:grid
       type="xygrid"
       id="grid2722" /></sodipodi:namedview><g
     inkscape:groupmode="layer"
     inkscape:label="Image"
     id="g182"
     transform="translate(-9993.383,-3719.9667)"><g
       id="vgn11"><text
         xml:space="preserve"
         id="text8935-1"
         style="font-style:normal;font-variant:normal;font-weight:normal;font-stretch:normal;font-size:96px;font-family:'Canted Comic';-inkscape-font-specification:'Canted Comic, Normal';font-variant-ligatures:normal;font-variant-caps:normal;font-variant-numeric:normal;font-variant-east-asian:normal;white-space:pre;shape-inside:url(#rect8937-1);display:inline;fill:#000000;fill-opacity:1;stroke:none;stroke-width:10;stroke-linejoin:round;stroke-dasharray:none;stroke-opacity:1"
         transform="translate(12466.948,3158.7732)"><tspan
           x="-1889.6719"
           y="707.42634"
           id="tspan30982">so,</tspan></text><path
         style="fill:none;fill-opacity:1;stroke:#000000;stroke-width:8;stroke-linejoin:round;stroke-dasharray:none;stroke-opacity:1"
         d="m 9997.854,3727.2133 38.559,1.1978 39.359,0.034 38.725,-1.9093 38.446,-0.1722 38.97,3.6202 38.826,-0.1783 39.017,0.1728 38.668,-1.9876 39.051,0.5498 38.505,-0.065 39.097,-2.7474 38.933,-1.7614 38.849,3.3825 38.737,3.1163 39.048,-0.9627 39.067,0.5243 38.412,1.1413 38.804,0.6624 38.943,-1.0144 38.83,-2.0688 38.788,-1.9519 38.832,2.7568 38.925,-0.3139 38.373,2.5938 39.081,-0.4405 39.192,-0.5696 38.467,-0.6381 38.734,3.8023 38.727,-0.8818 38.954,4.822 39.667,-2.5281 38.844,-3.1385 38.375,-1.5062 38.836,-1.0803 0.05,38.5665 -0.525,40.0805 -0.302,38.6454 -0.22,35.3979 0.251,39.2885 -0.284,38.4038 -0.133,38.0075 -0,38.6306 -0.131,37.4349 -0.218,42.2972 0.07,35.6992 -0.412,36.4199 -0.248,39.5441 0.198,38.5441 -0.752,38.9036 -0.334,37.2238 -0.191,38.6877 0,35.6301 -0.335,41.8927 -0.468,37.8612 -0.608,38.7884 -0.04,38.6682 0,38.3491 -0.1,35.8464 0.167,40.961 -39.871,-0.607 -39.878,-0.5068 -40.419,1.7338 -39.265,-0.061 -40.594,-0.2288 -39.248,-2.407 -39.935,0.1313 -39.838,-0.043 -40.202,-0.9106 -39.6,-1.2564 -39.488,-2.3111 -40.081,1.2698 -40.112,1.3496 -39.733,-0.7957 -39.633,-3.6287 -40.476,-3.3826 -39.371,0.51 -40.457,1.0565 -39.505,-2.0658 -40.144,-0.1589 -40.209,0.035 -39.983,-2.8053 -39.366,0.4555 -39.743,1.7454 -40.103,0.339 -39.796,0.9478 -39.896,0.6347 -39.817,3.9593 -39.783,0.1505 -39.995,0.206 -39.371,3.4199 -40.743,-1.2194 -39.4477,-2.3891 0.1641,-37.1905 -0.3204,-43.7935 -0.2144,-39.5016 -0.071,-34.9659 0.074,-40.523 0.1908,-39.6694 -0.087,-39.8449 -0.1058,-42.3891 -0.01,-36.1248 0.079,-43.1909 -0.021,-36.7614 -0.1126,-43.0932 -0.01,-39.0929 0.2131,-41.1938 0.2091,-38.4768 0.017,-41.1648 0,-37.2016 0.011,-42.498 0.1522,-37.8161 0.1486,-39.9476 -0.035,-39.0733 -0.081,-36.0143 0,-46.8419 z"
         id="path2208-7-4-6"
         inkscape:path-effect="#path-effect2210-3-3-4"
         inkscape:original-d="M 9997.8524,3729.2846 H 11318.45 l -4.592,960.1724 -1316.0056,-6.018 z"
         sodipodi:nodetypes="ccccc" /><text
         xml:space="preserve"
         style="font-style:normal;font-variant:normal;font-weight:normal;font-stretch:normal;font-size:64px;font-family:'Canted Comic';-inkscape-font-specification:'Canted Comic, Normal';font-variant-ligatures:normal;font-variant-caps:normal;font-variant-numeric:normal;font-variant-east-asian:normal;white-space:pre;inline-size:1285.61;display:inline;fill:#000000;fill-opacity:1;stroke:none;stroke-width:5;stroke-linejoin:round;stroke-dasharray:none;stroke-opacity:1"
         x="-1633.1392"
         y="359.38992"
         id="text7473-1"
         transform="translate(11639.384,3685.4178)"><tspan
           x="-1633.1392"
           y="359.38992"
           id="tspan30984">we want them to pay for each ton of  </tspan><tspan
           x="-1633.1392"
           y="439.38992"
           id="tspan30986">greenhouse gas that they emit.
</tspan><tspan
           x="-1633.1392"
           y="519.38992"
           id="tspan30988">
</tspan><tspan
           x="-1633.1392"
           y="599.38992"
           id="tspan30990"> i.e., we want a price on emissions.
</tspan><tspan
           x="-1633.1392"
           y="679.38992"
           id="tspan30992">
</tspan><tspan
           x="-1633.1392"
           y="759.38992"
           id="tspan30994"> This is known in the business as a</tspan></text><text
         xml:space="preserve"
         id="text3297"
         style="font-style:normal;font-variant:normal;font-weight:bold;font-stretch:normal;font-size:64px;font-family:'Canted Comic';-inkscape-font-specification:'Canted Comic, Bold';font-variant-ligatures:normal;font-variant-caps:normal;font-variant-numeric:normal;font-variant-east-asian:normal;white-space:pre;shape-inside:url(#rect3299);display:inline;fill:#000000;fill-opacity:1;stroke-width:10;stroke-linejoin:round"
         transform="translate(12247.41,-484.32832)"><tspan
           x="-1965.0039"
           y="5077.7126"
           id="tspan30996">PRICE ON CARBON.</tspan></text></g></g></svg>
