<?xml version="1.0" encoding="UTF-8" standalone="no"?>
<!-- Created with Inkscape (http://www.inkscape.org/) -->

<svg
   version="1.1"
   id="svg176"
   width="1321.2855"
   height="967.74475"
   viewBox="0 0 1321.2856 967.74475"
   sodipodi:docname="comic.svg"
   xml:space="preserve"
   inkscape:version="1.2.2 (b0a8486541, 2022-12-01)"
   xmlns:inkscape="http://www.inkscape.org/namespaces/inkscape"
   xmlns:sodipodi="http://sodipodi.sourceforge.net/DTD/sodipodi-0.dtd"
   xmlns="http://www.w3.org/2000/svg"
   xmlns:svg="http://www.w3.org/2000/svg"><defs
     id="defs180"><inkscape:path-effect
       effect="roughen"
       id="path-effect2210-3-2-5-7-1-9"
       is_visible="true"
       lpeversion="1.2"
       method="size"
       max_segment_size="40"
       segments="114"
       displace_x="1;589550557"
       displace_y="7;1910419474"
       global_randomize="1;1292492417"
       handles="along"
       shift_nodes="true"
       fixed_displacement="false"
       spray_tool_friendly="false" /><rect
       x="2357.7812"
       y="5070.9375"
       width="1059.0156"
       height="160.01704"
       id="rect10169-1" /><rect
       x="2357.7812"
       y="5070.9375"
       width="952.01178"
       height="458.91132"
       id="rect10169-1-4" /></defs><sodipodi:namedview
     id="namedview178"
     pagecolor="#ffffff"
     bordercolor="#000000"
     borderopacity="0.25"
     inkscape:showpageshadow="2"
     inkscape:pageopacity="0.0"
     inkscape:pagecheckerboard="0"
     inkscape:deskcolor="#d1d1d1"
     showgrid="false"
     showguides="false"
     inkscape:zoom="0.13137786"
     inkscape:cx="9853.2583"
     inkscape:cy="2641.2365"
     inkscape:window-width="1920"
     inkscape:window-height="1011"
     inkscape:window-x="0"
     inkscape:window-y="0"
     inkscape:window-maximized="1"
     inkscape:current-layer="g182"><inkscape:grid
       type="xygrid"
       id="grid2722" /></sodipodi:namedview><g
     inkscape:groupmode="layer"
     inkscape:label="Image"
     id="g182"
     transform="translate(-7212.914,-8844.1266)"><g
       id="vgn24"><text
         xml:space="preserve"
         id="text10167-0"
         style="font-style:normal;font-variant:normal;font-weight:normal;font-stretch:normal;font-size:64px;font-family:'Canted Comic';-inkscape-font-specification:'Canted Comic, Normal';font-variant-ligatures:normal;font-variant-caps:normal;font-variant-numeric:normal;font-variant-east-asian:normal;white-space:pre;shape-inside:url(#rect10169-1);display:inline;fill:#000000;fill-opacity:1;stroke:none;stroke-width:4;stroke-linecap:round;stroke-linejoin:round;stroke-dasharray:none;stroke-opacity:1"
         transform="translate(5061.3648,3960.2661)"><tspan
           x="2357.7812"
           y="5154.747"
           id="tspan82677">but, there's a <tspan
   style="font-size:85.3333px"
   id="tspan82675">problem</tspan>.</tspan></text><g
         id="g18416"
         transform="translate(10425.317,-163.39915)"><text
           xml:space="preserve"
           id="text10167-0-2"
           style="font-style:normal;font-variant:normal;font-weight:normal;font-stretch:normal;font-size:64.2267px;font-family:'Canted Comic';-inkscape-font-specification:'Canted Comic, Normal';font-variant-ligatures:normal;font-variant-caps:normal;font-variant-numeric:normal;font-variant-east-asian:normal;white-space:pre;shape-inside:url(#rect10169-1-4);display:inline;fill:#000000;fill-opacity:1;stroke:none;stroke-width:3.01063;stroke-linecap:round;stroke-linejoin:round;stroke-dasharray:none;stroke-opacity:1"
           transform="matrix(1.3286265,0,0,1.3286265,-6305.939,2726.9267)"><tspan
             x="2357.7812"
             y="5134.0173"
             id="tspan82679">permit prices are too low.</tspan></text></g><path
         style="fill:none;fill-opacity:1;stroke:#000000;stroke-width:7.95291;stroke-linejoin:round;stroke-dasharray:none;stroke-opacity:1"
         d="m 7217.4009,8857.7632 39.5016,-5.2301 40.3001,0.035 39.6669,-1.9085 39.3874,-0.1693 39.9117,3.6235 39.7679,-0.1795 39.9588,0.1718 39.6098,-1.9888 39.9921,0.5517 39.4466,-0.065 40.0391,-2.7462 39.874,-1.7547 39.7914,3.3932 39.6782,3.1196 39.9893,-0.9673 40.009,0.5224 39.354,1.1375 39.7455,0.6543 39.8846,-1.0257 39.7718,-2.0761 39.7291,-1.9483 39.7742,2.7732 39.8662,-0.3171 39.3143,2.5933 40.0237,-0.4699 40.1336,-0.5963 39.4085,-0.6587 39.6747,3.7922 39.6759,-1.0238 39.8895,4.6856 40.6295,-3.1371 39.7168,-3.6747 39.3064,-1.4994 -0.1445,40.1614 0.041,39.5599 -0.5322,41.4622 -0.308,40.027 -0.2249,36.7795 0.246,40.6701 -0.2919,39.7854 -0.1404,39.389 -0.016,40.0123 -0.1398,38.8165 -0.2275,43.6788 0.056,37.0807 -0.4248,37.8016 -0.2574,40.9256 0.1882,39.9257 -0.7698,40.2853 -0.3388,38.6053 -0.1914,40.0693 0.01,37.0117 -0.3457,43.2743 -0.4679,39.2428 -0.5709,40.1704 0.1146,40.0509 0.1823,39.7293 -39.7475,-2.7615 -39.4741,-0.111 -39.6957,-0.5242 -39.6441,-0.4231 -40.1832,1.8183 -39.0217,0.018 -40.3576,-0.149 -39.0117,-2.3286 -39.7076,0.2175 -39.6002,0.042 -39.9657,-0.8257 -39.3664,-1.1694 -39.2572,-2.2188 -39.8546,1.3732 -39.8686,1.4462 -39.4902,-0.7074 -39.399,-3.5358 -40.2575,-3.264 -39.1539,0.6544 -40.2163,1.2008 -39.2603,-1.9311 -39.9201,0.01 -39.9722,0.2066 -39.7441,-2.6276 -39.1534,0.7011 -39.4977,2.0022 -39.8435,0.5677 -39.5527,1.1933 -39.6455,0.8731 -39.5698,4.2113 -39.5405,-0.015 -39.7604,0.052 -39.1365,3.2699 -0.4443,-39.4765 -0.034,-40.6628 0.1662,-36.298 -0.3187,-43.7277 -0.2115,-39.436 -0.067,-34.9003 0.079,-40.4573 0.1954,-39.6036 -0.084,-39.779 -0.1017,-42.3235 -0,-36.0591 0.085,-43.1252 -0.016,-36.6955 -0.1071,-43.0275 0,-39.0272 0.2216,-41.1281 0.2132,-38.4109 0.015,-41.0989 3e-4,-37.1359 0.01,-42.4323 0.1498,-37.7503 0.1262,-39.8819 -0.101,-39.0076 z"
         id="path2208-7-2-2-5-3-2"
         sodipodi:nodetypes="ccccc"
         inkscape:original-d="m 7217.3999,8853.4066 h 1312.8306 l -4.5644,954.5249 -1308.2662,-5.9826 z"
         inkscape:path-effect="#path-effect2210-3-2-5-7-1-9" /></g></g></svg>
