<?xml version="1.0" encoding="UTF-8" standalone="no"?>
<!-- Created with Inkscape (http://www.inkscape.org/) -->

<svg
   version="1.1"
   id="svg176"
   width="1329.0645"
   height="974.09863"
   viewBox="0 0 1329.0645 974.09863"
   sodipodi:docname="comic.svg"
   xml:space="preserve"
   inkscape:version="1.2.2 (b0a8486541, 2022-12-01)"
   xmlns:inkscape="http://www.inkscape.org/namespaces/inkscape"
   xmlns:sodipodi="http://sodipodi.sourceforge.net/DTD/sodipodi-0.dtd"
   xmlns="http://www.w3.org/2000/svg"
   xmlns:svg="http://www.w3.org/2000/svg"><defs
     id="defs180"><rect
       x="-5995.3394"
       y="2384.0144"
       width="1281.4492"
       height="186.2061"
       id="rect8929-5-9-5-4-0-1-1" /><inkscape:path-effect
       effect="roughen"
       id="path-effect2210-3-3-4-7-7-4-65-0-8-6-1"
       is_visible="true"
       lpeversion="1.2"
       method="size"
       max_segment_size="40"
       segments="114"
       displace_x="1;589550557"
       displace_y="7;1910419474"
       global_randomize="1;1292492417"
       handles="along"
       shift_nodes="true"
       fixed_displacement="false"
       spray_tool_friendly="false" /><rect
       x="-5995.3394"
       y="2384.0144"
       width="585.2345"
       height="318.0737"
       id="rect8929-5-9-5-4-0-1-1-0" /><rect
       x="-5995.3394"
       y="2384.0144"
       width="420.90955"
       height="240.65211"
       id="rect8929-5-9-5-4-0-1-1-0-9" /><rect
       x="-5995.3394"
       y="2384.0144"
       width="1314.6664"
       height="105.58679"
       id="rect8929-5-9-5-4-0-1-1-3" /><rect
       x="-5995.3394"
       y="2384.0144"
       width="1396.1274"
       height="110.0599"
       id="rect8929-5-9-5-4-0-1-1-3-0" /><rect
       x="-5995.3394"
       y="2384.0144"
       width="1255.8368"
       height="150.84676"
       id="rect8929-5-9-5-4-0-1-1-3-0-3" /></defs><sodipodi:namedview
     id="namedview178"
     pagecolor="#ffffff"
     bordercolor="#000000"
     borderopacity="0.25"
     inkscape:showpageshadow="2"
     inkscape:pageopacity="0.0"
     inkscape:pagecheckerboard="0"
     inkscape:deskcolor="#d1d1d1"
     showgrid="false"
     showguides="false"
     inkscape:zoom="0.20636167"
     inkscape:cx="9793.4855"
     inkscape:cy="11518.612"
     inkscape:window-width="1920"
     inkscape:window-height="1011"
     inkscape:window-x="0"
     inkscape:window-y="0"
     inkscape:window-maximized="1"
     inkscape:current-layer="g182"><inkscape:grid
       type="xygrid"
       id="grid2722" /></sodipodi:namedview><g
     inkscape:groupmode="layer"
     inkscape:label="Image"
     id="g182"
     transform="translate(-9998.5945,-11928.069)"><g
       id="vgn35"><text
         xml:space="preserve"
         transform="translate(16033.223,9614.9415)"
         id="text8927-5-7-2-0-1-3-3"
         style="font-style:normal;font-variant:normal;font-weight:normal;font-stretch:normal;font-size:74.6667px;font-family:'Canted Comic';-inkscape-font-specification:'Canted Comic, Normal';font-variant-ligatures:normal;font-variant-caps:normal;font-variant-numeric:normal;font-variant-east-asian:normal;white-space:pre;shape-inside:url(#rect8929-5-9-5-4-0-1-1);display:inline;fill:#000000;fill-opacity:1;stroke:none;stroke-width:10;stroke-linejoin:round;stroke-dasharray:none;stroke-opacity:1"><tspan
           x="-5995.3398"
           y="2457.347"
           id="tspan5993">okay, we've made great claims.</tspan></text><text
         xml:space="preserve"
         transform="translate(16022.888,9775.1143)"
         id="text8927-5-7-2-0-1-3-3-8"
         style="font-style:normal;font-variant:normal;font-weight:normal;font-stretch:normal;font-size:64px;font-family:'Canted Comic';-inkscape-font-specification:'Canted Comic, Normal';font-variant-ligatures:normal;font-variant-caps:normal;font-variant-numeric:normal;font-variant-east-asian:normal;white-space:pre;shape-inside:url(#rect8929-5-9-5-4-0-1-1-3);display:inline;fill:#000000;fill-opacity:1;stroke:none;stroke-width:10;stroke-linejoin:round;stroke-dasharray:none;stroke-opacity:1"><tspan
           x="-5995.3398"
           y="2446.8708"
           id="tspan5997">could things go wrong? <tspan
   style="font-weight:bold;-inkscape-font-specification:'Canted Comic, Bold'"
   id="tspan5995">of course!</tspan></tspan></text><text
         xml:space="preserve"
         transform="translate(16239.349,10390.762)"
         id="text8927-5-7-2-0-1-3-3-8-5"
         style="font-style:normal;font-variant:normal;font-weight:normal;font-stretch:normal;font-size:85.3333px;font-family:'Canted Comic';-inkscape-font-specification:'Canted Comic, Normal';font-variant-ligatures:normal;font-variant-caps:normal;font-variant-numeric:normal;font-variant-east-asian:normal;white-space:pre;shape-inside:url(#rect8929-5-9-5-4-0-1-1-3-0);display:inline;fill:#000000;fill-opacity:1;stroke:none;stroke-width:10;stroke-linejoin:round;stroke-dasharray:none;stroke-opacity:1"><tspan
           x="-5995.3398"
           y="2467.8232"
           id="tspan5999">head to the FAQs!</tspan></text><text
         xml:space="preserve"
         transform="translate(16194.168,10289.254)"
         id="text8927-5-7-2-0-1-3-3-8-5-6"
         style="font-style:normal;font-variant:normal;font-weight:normal;font-stretch:normal;font-size:85.3333px;font-family:'Canted Comic';-inkscape-font-specification:'Canted Comic, Normal';font-variant-ligatures:normal;font-variant-caps:normal;font-variant-numeric:normal;font-variant-east-asian:normal;white-space:pre;shape-inside:url(#rect8929-5-9-5-4-0-1-1-3-0-3);display:inline;fill:#000000;fill-opacity:1;stroke:none;stroke-width:10;stroke-linejoin:round;stroke-dasharray:none;stroke-opacity:1"><tspan
           x="-5995.3398"
           y="2467.8232"
           id="tspan6001">want to know more?</tspan></text><g
         id="g12434"
         transform="translate(1414.2816)"><text
           xml:space="preserve"
           transform="translate(14678.848,9918.2188)"
           id="text8927-5-7-2-0-1-3-3-3"
           style="font-style:normal;font-variant:normal;font-weight:normal;font-stretch:normal;font-size:64px;font-family:'Canted Comic';-inkscape-font-specification:'Canted Comic, Normal';font-variant-ligatures:normal;font-variant-caps:normal;font-variant-numeric:normal;font-variant-east-asian:normal;white-space:pre;shape-inside:url(#rect8929-5-9-5-4-0-1-1-0);display:inline;fill:#000000;fill-opacity:1;stroke:none;stroke-width:10;stroke-linejoin:round;stroke-dasharray:none;stroke-opacity:1"><tspan
             x="-5995.3398"
             y="2446.8708"
             id="tspan6003">carbon market </tspan><tspan
             x="-5995.3398"
             y="2526.8708"
             id="tspan6005">administrators
</tspan><tspan
             x="-5995.3398"
             y="2606.8708"
             id="tspan6007">and/or we
</tspan><tspan
             x="-5995.3398"
             y="2686.8708"
             id="tspan6009">could go rogue.</tspan></text><text
           xml:space="preserve"
           transform="translate(15387.068,9958.3468)"
           id="text8927-5-7-2-0-1-3-3-3-1"
           style="font-style:normal;font-variant:normal;font-weight:normal;font-stretch:normal;font-size:64px;font-family:'Canted Comic';-inkscape-font-specification:'Canted Comic, Normal';font-variant-ligatures:normal;font-variant-caps:normal;font-variant-numeric:normal;font-variant-east-asian:normal;white-space:pre;shape-inside:url(#rect8929-5-9-5-4-0-1-1-0-9);display:inline;fill:#000000;fill-opacity:1;stroke:none;stroke-width:10;stroke-linejoin:round;stroke-dasharray:none;stroke-opacity:1"><tspan
             x="-5995.3398"
             y="2446.8708"
             id="tspan6011">polluters </tspan><tspan
             x="-5995.3398"
             y="2526.8708"
             id="tspan6013">could avoid </tspan><tspan
             x="-5995.3398"
             y="2606.8708"
             id="tspan6015">detection.</tspan></text></g><path
         style="fill:none;fill-opacity:1;stroke:#000000;stroke-width:8;stroke-linejoin:round;stroke-dasharray:none;stroke-opacity:1"
         d="m 10003.073,11935.324 38.556,1.197 39.355,0.03 38.722,-1.909 38.443,-0.172 38.967,3.62 38.823,-0.178 39.014,0.172 38.665,-1.987 39.048,0.55 38.502,-0.07 39.094,-2.747 38.929,-1.761 38.847,3.382 38.734,3.116 39.044,-0.962 39.064,0.524 38.41,1.141 38.8,0.663 38.94,-1.015 38.827,-2.069 38.785,-1.952 38.829,2.757 38.922,-0.314 38.369,2.594 39.078,-0.44 39.19,-0.57 38.464,-0.638 38.73,3.802 38.724,-0.882 38.951,4.823 39.664,-2.529 38.841,-3.138 38.372,-1.506 38.833,-1.081 0.05,38.567 -0.525,40.08 -0.302,38.646 -0.22,35.398 0.251,39.288 -0.284,38.404 -0.133,38.008 -0,38.63 -0.131,37.435 -0.218,42.297 0.06,35.7 -0.412,36.42 -0.248,39.544 0.198,38.544 -0.752,38.903 -0.334,37.224 -0.191,38.688 0,35.63 -0.335,41.893 -0.468,37.861 -0.608,38.788 -0.04,38.669 0,38.349 -0.1,35.846 0.167,40.961 -39.868,-0.607 -39.875,-0.506 -40.415,1.733 -39.262,-0.06 -40.591,-0.229 -39.245,-2.407 -39.932,0.132 -39.834,-0.04 -40.199,-0.911 -39.597,-1.256 -39.485,-2.311 -40.078,1.27 -40.109,1.349 -39.73,-0.796 -39.629,-3.628 -40.474,-3.383 -39.367,0.51 -40.454,1.057 -39.502,-2.066 -40.14,-0.159 -40.206,0.03 -39.98,-2.805 -39.363,0.455 -39.74,1.746 -40.099,0.339 -39.794,0.947 -39.892,0.635 -39.815,3.959 -39.779,0.151 -39.992,0.206 -39.368,3.42 -40.74,-1.22 -39.444,-2.389 0.164,-37.19 -0.32,-43.794 -0.215,-39.501 -0.07,-34.966 0.07,-40.523 0.191,-39.67 -0.09,-39.845 -0.106,-42.389 -0,-36.125 0.08,-43.191 -0.02,-36.761 -0.113,-43.093 -0,-39.093 0.213,-41.194 0.209,-38.477 0.02,-41.165 0,-37.201 0.01,-42.498 0.152,-37.816 0.149,-39.948 -0.03,-39.073 -0.08,-36.015 0,-46.842 z"
         id="path2208-7-4-6-5-2-4-4-0-8-8-4"
         inkscape:path-effect="#path-effect2210-3-3-4-7-7-4-65-0-8-6-1"
         inkscape:original-d="m 10003.071,11937.395 h 1320.493 l -4.592,960.173 -1315.901,-6.018 z"
         sodipodi:nodetypes="ccccc" /></g></g></svg>
