<?xml version="1.0" encoding="UTF-8" standalone="no"?>
<!-- Created with Inkscape (http://www.inkscape.org/) -->

<svg
   version="1.1"
   id="svg176"
   width="1329.1632"
   height="974.09918"
   viewBox="0 0 1329.1632 974.09918"
   sodipodi:docname="comic.svg"
   xml:space="preserve"
   inkscape:version="1.2.2 (b0a8486541, 2022-12-01)"
   xmlns:inkscape="http://www.inkscape.org/namespaces/inkscape"
   xmlns:sodipodi="http://sodipodi.sourceforge.net/DTD/sodipodi-0.dtd"
   xmlns="http://www.w3.org/2000/svg"
   xmlns:svg="http://www.w3.org/2000/svg"><defs
     id="defs180"><rect
       x="-1889.6726"
       y="613.1416"
       width="1090.248"
       height="295.04428"
       id="rect8937" /><inkscape:path-effect
       effect="roughen"
       id="path-effect2210-3-3"
       is_visible="true"
       lpeversion="1.2"
       method="size"
       max_segment_size="40"
       segments="114"
       displace_x="1;589550557"
       displace_y="7;1910419474"
       global_randomize="1;1292492417"
       handles="along"
       shift_nodes="true"
       fixed_displacement="false"
       spray_tool_friendly="false" /></defs><sodipodi:namedview
     id="namedview178"
     pagecolor="#ffffff"
     bordercolor="#000000"
     borderopacity="0.25"
     inkscape:showpageshadow="2"
     inkscape:pageopacity="0.0"
     inkscape:pagecheckerboard="0"
     inkscape:deskcolor="#d1d1d1"
     showgrid="false"
     showguides="false"
     inkscape:zoom="0.13137786"
     inkscape:cx="9853.2583"
     inkscape:cy="2641.2365"
     inkscape:window-width="1920"
     inkscape:window-height="1011"
     inkscape:window-x="0"
     inkscape:window-y="0"
     inkscape:window-maximized="1"
     inkscape:current-layer="g182"><inkscape:grid
       type="xygrid"
       id="grid2722" /></sodipodi:namedview><g
     inkscape:groupmode="layer"
     inkscape:label="Image"
     id="g182"
     transform="translate(-9993.3818,-625.90085)"><g
       id="vgn3"><path
         style="fill:none;fill-opacity:1;stroke:#000000;stroke-width:8;stroke-linejoin:round;stroke-dasharray:none;stroke-opacity:1"
         d="m 9997.8538,633.14803 38.5592,1.19779 39.359,0.0338 38.725,-1.90934 38.446,-0.1722 38.97,3.62027 38.826,-0.17832 39.017,0.17274 38.668,-1.98759 39.051,0.54985 38.505,-0.0654 39.097,-2.7474 38.932,-1.76138 38.85,3.38247 38.737,3.1163 39.047,-0.96269 39.068,0.52436 38.412,1.14127 38.804,0.66234 38.943,-1.0143 38.83,-2.06884 38.788,-1.95195 38.832,2.75687 38.925,-0.31389 38.373,2.59377 39.081,-0.44049 39.192,-0.56965 38.467,-0.63812 38.734,3.8023 38.727,-0.88179 38.954,4.82208 39.667,-2.52813 38.844,-3.13853 38.375,-1.50621 38.836,-1.0803 0.05,38.56653 -0.525,40.08054 -0.302,38.64538 -0.22,35.3979 0.251,39.2885 -0.284,38.40381 -0.133,38.00742 -0,38.63065 -0.131,37.43493 -0.218,42.29715 0.07,35.6992 -0.412,36.42 -0.248,39.544 0.198,38.5441 -0.752,38.9036 -0.334,37.2238 -0.191,38.6878 0,35.63 -0.335,41.8927 -0.468,37.8612 -0.608,38.7884 -0.04,38.6682 0,38.3491 -0.1,35.8464 0.167,40.961 -39.871,-0.607 -39.878,-0.5068 -40.419,1.7338 -39.265,-0.061 -40.594,-0.2288 -39.248,-2.407 -39.935,0.1313 -39.838,-0.043 -40.202,-0.9106 -39.6,-1.2564 -39.488,-2.3111 -40.081,1.2698 -40.112,1.3496 -39.733,-0.7957 -39.633,-3.6287 -40.476,-3.3826 -39.371,0.51 -40.457,1.0565 -39.505,-2.0658 -40.144,-0.1589 -40.209,0.035 -39.983,-2.8053 -39.366,0.4555 -39.744,1.7454 -40.102,0.339 -39.796,0.9478 -39.896,0.6347 -39.818,3.9593 -39.782,0.1505 -39.995,0.206 -39.372,3.4199 -40.742,-1.2194 -39.4479,-2.3891 0.1641,-37.1905 -0.3204,-43.7935 -0.2144,-39.5016 -0.071,-34.9659 0.074,-40.523 0.1908,-39.6694 -0.088,-39.8449 -0.1058,-42.3891 -0.01,-36.1248 0.079,-43.1909 -0.021,-36.7613 -0.1126,-43.0933 -0.01,-39.0929 0.2131,-41.1938 0.2091,-38.47679 0.017,-41.16476 0,-37.20166 0.011,-42.49802 0.1522,-37.81604 0.1486,-39.94764 -0.035,-39.0733 -0.081,-36.0143 0,-46.84186 z"
         id="path2208-7-4"
         inkscape:path-effect="#path-effect2210-3-3"
         inkscape:original-d="M 9997.8522,635.21932 H 11318.45 l -4.592,960.17238 -1316.0058,-6.018 z"
         sodipodi:nodetypes="ccccc" /><text
         xml:space="preserve"
         style="font-style:normal;font-variant:normal;font-weight:normal;font-stretch:normal;font-size:64px;font-family:'Canted Comic';-inkscape-font-specification:'Canted Comic, Normal';font-variant-ligatures:normal;font-variant-caps:normal;font-variant-numeric:normal;font-variant-east-asian:normal;white-space:pre;inline-size:1285.61;display:inline;fill:#000000;fill-opacity:1;stroke:none;stroke-width:5;stroke-linejoin:round;stroke-dasharray:none;stroke-opacity:1"
         x="-1633.1392"
         y="359.38992"
         id="text7473"
         transform="translate(11654.326,696.92052)"><tspan
           x="-1633.1392"
           y="359.38992"
           id="tspan105024"><tspan
             style="font-weight:bold;-inkscape-font-specification:'Canted Comic, Bold'"
             id="tspan105022">climate change happens because </tspan></tspan><tspan
           x="-1633.1392"
           y="439.38992"
           id="tspan105026">polluters don´t care about the </tspan><tspan
           x="-1633.1392"
           y="519.38992"
           id="tspan105028">damages of their emissions.</tspan></text><text
         xml:space="preserve"
         id="text8935"
         style="font-style:normal;font-variant:normal;font-weight:normal;font-stretch:normal;font-size:96px;font-family:'Canted Comic';-inkscape-font-specification:'Canted Comic, Normal';font-variant-ligatures:normal;font-variant-caps:normal;font-variant-numeric:normal;font-variant-east-asian:normal;white-space:pre;shape-inside:url(#rect8937);display:inline;fill:#000000;fill-opacity:1;stroke:none;stroke-width:10;stroke-linejoin:round;stroke-dasharray:none;stroke-opacity:1"
         transform="translate(12139.203,70.695017)"><tspan
           x="-1889.6719"
           y="707.42634"
           id="tspan105030">in other words,</tspan></text></g></g></svg>
