<?xml version="1.0" encoding="UTF-8" standalone="no"?>
<!-- Created with Inkscape (http://www.inkscape.org/) -->

<svg
   version="1.1"
   id="svg176"
   width="1329.1707"
   height="974.09943"
   viewBox="0 0 1329.1707 974.09943"
   sodipodi:docname="comic.svg"
   xml:space="preserve"
   inkscape:version="1.2.2 (b0a8486541, 2022-12-01)"
   xmlns:inkscape="http://www.inkscape.org/namespaces/inkscape"
   xmlns:sodipodi="http://sodipodi.sourceforge.net/DTD/sodipodi-0.dtd"
   xmlns="http://www.w3.org/2000/svg"
   xmlns:svg="http://www.w3.org/2000/svg"><defs
     id="defs180"><inkscape:path-effect
       effect="roughen"
       id="path-effect2210-3-3-4-7-7-4"
       is_visible="true"
       lpeversion="1.2"
       method="size"
       max_segment_size="40"
       segments="114"
       displace_x="1;589550557"
       displace_y="7;1910419474"
       global_randomize="1;1292492417"
       handles="along"
       shift_nodes="true"
       fixed_displacement="false"
       spray_tool_friendly="false" /><inkscape:path-effect
       effect="roughen"
       id="path-effect2613-6"
       is_visible="true"
       lpeversion="1.2"
       method="size"
       max_segment_size="20"
       segments="2"
       displace_x="4;1"
       displace_y="4;1"
       global_randomize="1;1"
       handles="along"
       shift_nodes="true"
       fixed_displacement="false"
       spray_tool_friendly="false" /><inkscape:path-effect
       effect="roughen"
       id="path-effect2725-2"
       is_visible="true"
       lpeversion="1.2"
       method="size"
       max_segment_size="10.745"
       segments="2"
       displace_x="3.58;1"
       displace_y="3.58;1"
       global_randomize="1;1"
       handles="along"
       shift_nodes="true"
       fixed_displacement="false"
       spray_tool_friendly="false" /><inkscape:path-effect
       effect="roughen"
       id="path-effect2729-9"
       is_visible="true"
       lpeversion="1.2"
       method="size"
       max_segment_size="10"
       segments="2"
       displace_x="2;75497471"
       displace_y="10;1"
       global_randomize="1;1"
       handles="along"
       shift_nodes="true"
       fixed_displacement="false"
       spray_tool_friendly="false" /><rect
       x="-5995.3394"
       y="2384.0144"
       width="591.08368"
       height="194.43922"
       id="rect8929-5-9-5-9-9-3-2" /><rect
       x="-5995.3394"
       y="2384.0144"
       width="520.45282"
       height="101.55817"
       id="rect8929-5-9-5-9-9-3-2-3" /><rect
       x="-5995.3394"
       y="2384.0144"
       width="443.35449"
       height="163.92561"
       id="rect8929-5-9-5-9-9-3-2-3-9" /><rect
       x="-5995.3394"
       y="2384.0144"
       width="471.05231"
       height="212.01398"
       id="rect8929-5-9-5-9-9-3-2-3-9-7" /><rect
       x="-5995.3394"
       y="2384.0144"
       width="1232.6997"
       height="234.356"
       id="rect8929-5-9-5-4" /><inkscape:path-effect
       effect="roughen"
       id="path-effect2210-8-7-1-3-7-7-2-5"
       is_visible="true"
       lpeversion="1.2"
       method="size"
       max_segment_size="5"
       segments="114"
       displace_x="3;143452960"
       displace_y="3;2018388453"
       global_randomize="1;1"
       handles="along"
       shift_nodes="true"
       fixed_displacement="false"
       spray_tool_friendly="false" /><rect
       x="-5995.3394"
       y="2384.0144"
       width="747.7135"
       height="253.79623"
       id="rect8929-5-9-5-9-9-3-2-3-6" /><rect
       x="-5995.3394"
       y="2384.0144"
       width="591.08368"
       height="194.43922"
       id="rect8929-5-9-5-9-9-3-2-0" /></defs><sodipodi:namedview
     id="namedview178"
     pagecolor="#ffffff"
     bordercolor="#000000"
     borderopacity="0.25"
     inkscape:showpageshadow="2"
     inkscape:pageopacity="0.0"
     inkscape:pagecheckerboard="0"
     inkscape:deskcolor="#d1d1d1"
     showgrid="false"
     showguides="false"
     inkscape:zoom="0.13137786"
     inkscape:cx="9853.2583"
     inkscape:cy="2641.2365"
     inkscape:window-width="1920"
     inkscape:window-height="1011"
     inkscape:window-x="0"
     inkscape:window-y="0"
     inkscape:window-maximized="1"
     inkscape:current-layer="g182"><inkscape:grid
       type="xygrid"
       id="grid2722" /></sodipodi:namedview><g
     inkscape:groupmode="layer"
     inkscape:label="Image"
     id="g182"
     transform="translate(-8581.9894,-9869.5912)"><g
       id="vgn28"><text
         xml:space="preserve"
         transform="translate(14627.832,7520.866)"
         id="text8927-5-7-2-0"
         style="font-style:normal;font-variant:normal;font-weight:normal;font-stretch:normal;font-size:64px;font-family:'Canted Comic';-inkscape-font-specification:'Canted Comic, Normal';font-variant-ligatures:normal;font-variant-caps:normal;font-variant-numeric:normal;font-variant-east-asian:normal;white-space:pre;shape-inside:url(#rect8929-5-9-5-4);display:inline;fill:#000000;fill-opacity:1;stroke:none;stroke-width:10;stroke-linejoin:round;stroke-dasharray:none;stroke-opacity:1"><tspan
           x="-5995.3398"
           y="2446.8708"
           id="tspan97626">carbon markets look like this.</tspan></text><path
         style="fill:none;fill-opacity:1;stroke:#000000;stroke-width:5.059;stroke-linejoin:round;stroke-dasharray:none;stroke-opacity:1"
         d="m 8614.8808,9901.7547 6.9421,-3.0142 3.5992,0.1197 5.5263,1.3743 4.3135,-0.2874 6.0732,0.7912 5.0291,0.7949 6.0263,0.1738 3.8563,-0.246 4.8618,0.094 6.1787,0.052 4.183,-0.1295 4.4986,-0.022 5.9183,0.4467 3.4231,-0 6.6334,0.044 3.2009,0.3509 6.2183,-0.076 4.6805,0 6.5953,0.011 3.1585,1.4536 4.6442,-0.2823 4.5007,0.2723 6.1126,0.137 4.9496,-0.6506 5.0354,-0.4873 5.0699,0.666 4.6901,-1.4334 5.0857,-0.2042 4.9269,-0.4563 5.1868,-0.1849 5.032,0.832 5.7107,-0.3005 4.2618,-0.1013 5.7927,0.3362 3.4942,-0.1222 4.4586,0.2481 7.1333,0.8232 3.9122,0.1175 5.3694,0.3949 4.2107,0.018 4.8557,0.721 4.7253,-0.2346 5.8146,-0.037 3.8318,-1.0774 6.4892,-0.1927 3.9333,0.3506 4.9094,0.2902 5.5865,-0.4975 5.0775,-0.7701 4.9797,0.7682 5.2779,-0.4208 2.7253,-0.4745 7.1896,-0.329 4.7775,2.3839 4.9066,-0.109 3.9334,0 6.3494,0.5466 6.3158,-0.4164 3.288,0.016 5.0887,-0.017 4.5675,0.067 4.648,0.7073 6.042,0.085 4.1663,0.7317 4.109,-0.1884 7.3947,-1.412 3.1455,0.044 5.4635,-0.2502 5.8461,-0.2264 5.1666,-0.7554 4.5467,0.038 2.5785,-0.5279 7.1424,0.4659 5.419,-0.7551 4.4165,0.069 4.8533,-0.6151 5.2817,-0.6807 5.3729,0.584 5.2504,0.4342 4.6122,-0.075 5.4,0.316 6.2208,0.1708 2.866,1.1251 5.2678,-0.3538 5.0401,-0.1016 4.557,-0.021 4.8688,-0.1826 6.0675,-0.3463 4.2866,-0.7783 2.8299,0.6361 7.1074,0.02 5.0067,-0.4204 4.8693,-0.5598 3.814,-0.088 5.2703,-0.7165 5.9906,-0.2639 4.3037,2.3109 5.6726,-1.9266 4.3456,-0.749 6.5254,-0.053 5.0098,-0.2203 3.5666,-0.2525 6.4478,-0.281 4.2253,0.1439 3.2287,0.4358 7.4081,-0.418 3.1297,0.4039 3.9955,-0.019 5.7459,0.2556 4.9307,0.2385 6.0854,0.3302 5.3259,1.6571 4.6467,0.2968 6.2781,0.2132 4.0462,0.2024 4.7714,-2.267 4.7767,0.035 4.9998,0.174 4.2766,1.1013 6.6453,0.7244 3.4719,0.4312 6.4939,-1.1779 4.9356,-0.4086 3.7638,-0.3419 5.7394,-0.3036 5.7659,0.6971 5.5706,0 4.5739,-0.9222 5.0218,-0.2908 3.6211,-1.067 5.0765,-0.2797 6.3368,-1.2194 3.3173,-0.5685 5.384,-0.051 5.1002,0.1353 4.6811,-0.041 6.593,0.8368 3.5155,0.074 6.9594,0.7382 3.3077,-0.015 4.4821,-0.3374 3.7934,-0.1729 5.218,-1.0293 8.0064,-0.6331 2.809,0.1396 5.2481,0.048 5.2451,0.022 4.6437,0.101 4.4246,0.9376 5.9515,-0.1405 4.6668,0.1445 4.9052,0.2574 5.4317,1.7424 2.2327,-0.5182 6.9419,0.2068 5.8281,-1.2079 4.4524,1.2452 4.9157,1.145 5.4977,0.1475 3.7666,0.059 5.9177,-0.073 3.1659,0.2122 6.6289,-0.287 4.7951,-0.2656 5.2832,-0.1016 5.3079,-0.069 4.6247,0.1938 5.3184,-0.025 3.1955,-0.6164 6.6806,0.504 3.6039,-0.7265 5.7938,0.4767 4.6638,-0.042 5.9741,-0.2692 5.1898,-1.2723 4.2497,0.034 5.852,0.061 4.6255,-0.5146 2.8876,-0.6487 7.1624,1.1964 4.1478,-0.4823 7.194,-0.555 1.4189,-1.8534 7.2756,-1.6826 4.5813,-0.9714 5.2446,0.4469 6.9317,0.4295 2.7316,0.056 5.2555,-0.189 5.0715,0.1649 4.311,1.1026 4.4321,0.095 4.4865,-1.2269 6.1229,-0.1075 5.2312,0.7544 5.0182,0.062 5.223,0.042 4.7448,0.1017 5.7218,0.5129 4.1905,-1.4497 4.8419,0.1225 5.265,0.1145 5.2213,-1.0226 4.6304,1.3092 3.9706,1.7887 5.3943,-0.1911 5.5026,0.2684 4.774,0.058 5.7922,0.068 4.3186,0.1018 4.794,0.1018 5.1001,1.1917 5.1873,-0.082 4.4693,0.2185 5.2174,0.216 5.1613,0.1701 4.7599,0.4895 5.8175,0.5299 4.8333,-0.9129 4.0167,0.2234 5.713,0.021 3.9976,0.5168 5.7495,0.1177 4.8045,-0.7147 5.2461,0.3154 4.9016,-0.015 5.7369,8e-4 3.953,0.071 3.4423,0.5565 6.8331,-0.2098 4.985,0.7046 4.8903,0.1637 5.1333,1.2824 3.4595,-0.4237 8.2568,0.055 4.3522,-0.5467 3.0172,0.092 5.7773,0.5293 4.971,-0.2134 5.6482,0.023 5.2086,-0.5109 5.6866,-0.061 2.2935,-0.078 7.1247,-0.9729 4.5227,0.6431 4.2623,0.2589 5.3029,0.1128 4.9876,-0.7487 5.0559,0.5713 4.736,0.023 4.7145,0.7213 5.1579,0.1545 5.1432,-0.053 3.3979,1.4378 6.8432,-0.7938 4.5913,-0.4912 -0.4383,4.6593 -0.308,4.2193 -1.6177,6.2696 -1.5189,4.2916 -2.0025,5.5897 -1.0854,4.9965 0.2339,4.7993 1.5652,5.7465 -0.3302,3.5803 1.0765,5.8219 0.3433,4.8694 -1.2976,5.2192 -0.2221,4.8858 0.5894,4.4047 0.096,4.8364 -0.8247,5.5038 1.367,5.5581 -5.5514,0.8446 -4.4552,0.1514 -5.2063,0.2403 -5.0687,-0.07 -4.9214,-0.3397 -4.6354,0.5874 -5.3094,0.1801 -4.6871,0.013 -4.9018,0.1174 -5.0683,-0.7259 -5.0603,-1.1127 -6.1721,-0.9489 -1.9631,0.4844 -8.7657,-1.2665 -4.2091,-0.9196 -3.3896,0.061 -5.3928,0.671 -4.7675,-0.072 -4.9091,0.1635 -6.7792,0.5491 -3.6783,0.108 -4.8917,-0.1799 -5.0155,-0.4743 -4.2953,0.068 -6.2841,-0.134 -3.496,-0.2253 -5.8169,-0.9471 -5.9951,1.5448 -3.433,-1.7787 -6.2548,-0.231 -3.9218,0.5161 -5.3396,0.7264 -5.1486,1.8936 -2.7884,-0.5131 -7.674,-0.065 -4.1852,-0.036 -5.9708,-0.2594 -3.4907,0.3924 -6.0905,0.8015 -5.5894,0.09 -3.6944,-0.7291 -5.1882,-1.3028 -5.0113,0.028 -4.9529,-0.033 -5.4295,-0.027 -4.5193,-0.624 -4.585,-1.3315 -5.8679,-0.3146 -4.8863,-0.6111 -4.0862,1.2693 -4.7949,-0.1813 -5.5663,2.047 -4.9102,0.2431 -5.1668,0.8635 -4.4382,-0.884 -5.8651,0.068 -4.6807,-0.6861 -5.9054,0.2631 -3.6636,-1.4498 -5.3334,0.2956 -4.2624,-0.5874 -5.4373,-0.026 -5.6405,-0.048 -4.8402,0.03 -5.3906,0.2481 -4.3883,0.019 -4.7833,-0.962 -5.7739,-0.3113 -4.2149,0.9881 -4.8669,0.3768 -4.2896,-0.7247 -5.7406,0.2602 -5.7317,0.1376 -3.264,0.5085 -6.4317,0.4199 -4.9189,0.044 -4.6465,0.6616 -3.409,-0.2245 -7.265,0.071 -6.9443,-0.3279 -2.9821,-2.1268 -4.093,-0.4826 -5.0366,0.5974 -5.4615,0.4798 -4.2845,0.9116 -5.9723,1.4678 -4.3732,0.7274 -5.0882,0.9183 -4.5853,-0.1867 -3.3588,-0.1212 -6.8622,0.931 -5.4921,-0.092 -4.7981,-0.3176 -5.6719,-0.42 -3.4721,0.024 -5.2104,0.049 -7.3129,-1.185 -3.1671,-0.8646 -5.3438,0.804 -5.6981,0.1504 -3.9498,0.076 -5.2744,0.022 -4.8918,1.2409 -6.4957,-0.8827 -3.9246,1.8287 -3.7851,-0.01 -5.6031,0.03 -5.4747,0.6846 -4.4531,-0.3874 -3.3855,0.1134 -5.5785,0.7149 -5.873,-0.2664 -4.2184,0.7676 -5.3685,1.3027 -5.3879,-0.4856 -5.4507,0.091 -4.607,-0.063 -5.2782,0.7142 -4.7548,-0.3303 -4.9183,0.052 -5.1396,0.3646 -3.7765,0.07 -5.7659,-0.7794 -6.0922,0.3255 -5.0721,0 -3.538,1.239 -4.3668,0.6391 -6.0078,-0.3557 -5.1179,-0 -5.1088,-0.076 -5.7154,-0.031 -5.3711,-0.9433 -3.461,-0.1302 -5.5625,-0.051 -4.7501,-0.022 -4.7496,-0.1691 -5.9525,-1.1504 -4.2632,0.8406 -5.0217,0.6322 -5.2224,-0.065 -4.9385,-0.9816 -4.918,0.172 -3.5693,0.2396 -5.496,0.1031 -6.793,-0.055 -4.1122,-0.214 -6.9553,-0.7951 -3.8055,-0.027 -4.1987,-0.2675 -3.8375,-1.8736 -6.0865,1.3006 -4.8054,1.2698 -3.5182,1.3077 -5.8946,-0.1058 -5.0056,-0.7643 -5.3688,0.3972 -5.5585,0.6178 -4.7128,-0.032 -5.3726,0.2067 -2.9944,-0.062 -5.8198,-0.9351 -5.5595,0.087 -6.0035,1.2487 -2.0855,-0.088 -6.2739,-0.26 -5.7701,-0.581 -4.6212,-0.067 -4.4356,-0.7356 -5.3554,-0.063 -5.3972,-0.8643 -6.4552,5e-4 -3.5098,-0.3071 -5.1023,0.075 -4.1774,0.039 -6.6776,0.043 -3.7299,-0.6439 -5.5138,0.042 -5.2185,0.1932 -4.9634,0.2664 -4.5247,-0.446 -4.8998,0.6636 -4.224,0.041 -5.6164,1.6458 -5.1624,-0.069 -5.5203,-0.095 -4.6275,0.2079 -5.187,-0.6921 -3.4579,-0.068 -6.7213,0.6552 -4.6358,-0.2653 -5.1903,-0.1318 -4.5906,-0.089 -5.3582,1.1407 -4.3713,0.1752 -5.134,0.1084 -5.4526,0.534 -4.8981,0.2768 -4.9652,0.1451 -5.0927,-0.4373 -4.5051,-0.3253 -5.3745,0.7351 -2.8479,-1.2046 -6.6127,-0.1154 -5.7545,-0.01 -5.0335,1.0475 -4.747,-0.1204 -4.728,-0.3571 -5.0698,0.092 -4.8153,1.0591 -5.038,0.1515 -5.096,-0.077 -4.0223,0.1941 -5.6489,-0.1354 -5.4976,-0.1319 -4.1527,-0.075 -5.8321,-0.099 -3.7111,-0.9248 -5.9981,-0.033 -5.3559,-0.298 -4.7312,0.087 -2.8052,-0.4105 -7.0862,-0.249 -4.9644,0.6857 -5.0503,-0.1453 -4.8974,-1.189 -6.1485,0.2114 -2.2554,-0.5193 -6.6622,-0.5446 -5.0242,0.071 -6.1795,-1.0764 -3.553,1.1155 -4.2522,-0.1533 -5.9091,-0.4146 -5.5284,0.3455 -5.3881,-0.8138 -3.5556,-0.097 -5.328,-0.1038 -3.9609,-0.1344 -5.73,-0.4219 -5.7606,-0.2417 -4.7151,0.055 -4.8399,0.053 -3.2305,0.3044 -7.1093,-0.9356 -6.5904,0.1223 -3.9129,-0.2334 -3.9584,-0.076 -4.7308,1.1496 -5.2513,-0.9141 -5.5276,0.1268 -3.9804,-0.034 -4.446,0.7288 -6.0332,-1.1357 -4.1103,0.6792 -4.5556,-1.3268 -0.118,-3.693 0.3488,-5.9371 1.124,-5.3221 -0.2456,-4.7565 -0.188,-4.6602 -0.6338,-5.7372 0.06,-3.4172 -0.243,-6.7919 -0.8714,-4.1271 -1.8863,-5.9099 0.086,-4.6118 0.7344,-4.9791 -0.2576,-4.0007 0.3117,-5.2707 -0.7754,-6.0365 1.9746,-4.1981 z"
         id="path2208-9-6-1-5-8-1-05-3"
         sodipodi:nodetypes="ccccc"
         inkscape:original-d="m 8616.434,9901.0131 h 1275.8316 l -4.4357,84.7 -1271.3959,-0.531 z"
         inkscape:path-effect="#path-effect2210-8-7-1-3-7-7-2-5" /><g
         id="g4380"
         transform="rotate(-3.9610704,2213.7792,-143284.04)"><g
           id="g4451"
           transform="rotate(-1.0593019,-1211.8916,10476.638)"><text
             xml:space="preserve"
             transform="matrix(0.72004129,0.49343925,-0.49343925,0.72004129,4195.0848,11556.933)"
             id="text8927-5-7-2-9-0-8-9"
             style="font-style:normal;font-variant:normal;font-weight:normal;font-stretch:normal;font-size:64px;font-family:'Canted Comic';-inkscape-font-specification:'Canted Comic, Normal';font-variant-ligatures:normal;font-variant-caps:normal;font-variant-numeric:normal;font-variant-east-asian:normal;white-space:pre;shape-inside:url(#rect8929-5-9-5-9-9-3-2);display:inline;fill:#000000;fill-opacity:1;stroke:none;stroke-width:11.4562;stroke-linejoin:round;stroke-dasharray:none;stroke-opacity:1"><tspan
               x="-5995.3398"
               y="2446.8708"
               id="tspan97628">polluters'</tspan></text><text
             xml:space="preserve"
             transform="matrix(0.72004129,0.49343925,-0.49343925,0.72004129,4111.2234,11572.029)"
             id="text8927-5-7-2-9-0-8-9-6"
             style="font-style:normal;font-variant:normal;font-weight:normal;font-stretch:normal;font-size:64px;font-family:'Canted Comic';-inkscape-font-specification:'Canted Comic, Normal';font-variant-ligatures:normal;font-variant-caps:normal;font-variant-numeric:normal;font-variant-east-asian:normal;white-space:pre;shape-inside:url(#rect8929-5-9-5-9-9-3-2-0);display:inline;fill:#000000;fill-opacity:1;stroke:none;stroke-width:11.4562;stroke-linejoin:round;stroke-dasharray:none;stroke-opacity:1"><tspan
               x="-5995.3398"
               y="2446.8708"
               id="tspan97630">permit demand</tspan></text></g></g><path
         style="fill:none;fill-opacity:1;stroke:#000000;stroke-width:8;stroke-linejoin:round;stroke-dasharray:none;stroke-opacity:1"
         d="m 8586.4739,9876.8378 38.5593,1.1978 39.3585,0.034 38.7253,-1.9093 38.4457,-0.1722 38.9701,3.6202 38.8262,-0.1783 39.0172,0.1728 38.6681,-1.9876 39.0505,0.5498 38.5049,-0.065 39.0975,-2.7474 38.9322,-1.7614 38.8494,3.3825 38.7371,3.1163 39.0475,-0.9627 39.0674,0.5243 38.4124,1.1413 38.8036,0.6624 38.9428,-1.0144 38.8304,-2.0688 38.7876,-1.9519 38.832,2.7568 38.9251,-0.3139 38.3727,2.5938 39.0809,-0.4405 39.1925,-0.5696 38.4673,-0.6381 38.7334,3.8023 38.7272,-0.8818 38.9539,4.822 39.6671,-2.5281 38.8438,-3.1385 38.3754,-1.5062 38.8361,-1.0803 0.045,38.5665 -0.5249,40.0806 -0.302,38.6454 -0.2195,35.398 0.2512,39.288 -0.2843,38.404 -0.1334,38.008 -0.01,38.63 -0.131,37.435 -0.218,42.298 0.066,35.699 -0.4122,36.42 -0.2475,39.544 0.1977,38.544 -0.7521,38.904 -0.3338,37.223 -0.191,38.688 0.01,35.63 -0.3355,41.893 -0.4675,37.861 -0.6087,38.788 -0.043,38.669 0,38.349 -0.1,35.846 0.1672,40.961 -39.8709,-0.607 -39.8786,-0.506 -40.4181,1.733 -39.2654,-0.06 -40.5942,-0.229 -39.2477,-2.407 -39.935,0.132 -39.8377,-0.04 -40.2025,-0.911 -39.5996,-1.256 -39.4887,-2.311 -40.081,1.27 -40.1116,1.349 -39.7332,-0.796 -39.6325,-3.628 -40.4767,-3.383 -39.3705,0.51 -40.4576,1.057 -39.5048,-2.066 -40.1437,-0.159 -40.2091,0.03 -39.9828,-2.805 -39.3662,0.455 -39.7435,1.746 -40.1021,0.339 -39.7968,0.947 -39.8957,0.635 -39.8175,3.959 -39.7825,0.151 -39.9954,0.206 -39.3712,3.42 -40.7427,-1.22 -39.4475,-2.389 0.1641,-37.19 -0.3204,-43.794 -0.2144,-39.501 -0.071,-34.966 0.074,-40.523 0.1908,-39.67 -0.088,-39.845 -0.1058,-42.389 -0.01,-36.125 0.079,-43.191 -0.021,-36.761 -0.1126,-43.093 -0.01,-39.093 0.2131,-41.194 0.2091,-38.477 0.017,-41.164 0,-37.202 0.011,-42.498 0.1522,-37.816 0.1486,-39.948 -0.035,-39.0733 -0.081,-36.0143 0,-46.8419 z"
         id="path2208-7-4-6-5-2-4"
         inkscape:path-effect="#path-effect2210-3-3-4-7-7-4"
         inkscape:original-d="m 8586.4723,9878.9091 h 1320.5974 l -4.5915,960.1729 -1316.0059,-6.018 z"
         sodipodi:nodetypes="ccccc" /><g
         id="g4457"
         transform="translate(10438.98,-195.22707)"><text
           xml:space="preserve"
           transform="matrix(0.87289276,0,0,0.87289276,4380.5276,8217.9202)"
           id="text8927-5-7-2-9-0-8-9-1"
           style="font-style:normal;font-variant:normal;font-weight:normal;font-stretch:normal;font-size:64px;font-family:'Canted Comic';-inkscape-font-specification:'Canted Comic, Normal';font-variant-ligatures:normal;font-variant-caps:normal;font-variant-numeric:normal;font-variant-east-asian:normal;white-space:pre;shape-inside:url(#rect8929-5-9-5-9-9-3-2-3);display:inline;fill:#000000;fill-opacity:1;stroke:none;stroke-width:11.4562;stroke-linejoin:round;stroke-dasharray:none;stroke-opacity:1"><tspan
             x="-5995.3398"
             y="2446.8708"
             id="tspan97632">available</tspan></text><text
           xml:space="preserve"
           transform="matrix(0.87289276,0,0,0.87289276,4402.4267,8158.0124)"
           id="text8927-5-7-2-9-0-8-9-1-1"
           style="font-style:normal;font-variant:normal;font-weight:normal;font-stretch:normal;font-size:64px;font-family:'Canted Comic';-inkscape-font-specification:'Canted Comic, Normal';font-variant-ligatures:normal;font-variant-caps:normal;font-variant-numeric:normal;font-variant-east-asian:normal;white-space:pre;shape-inside:url(#rect8929-5-9-5-9-9-3-2-3-6);display:inline;fill:#000000;fill-opacity:1;stroke:none;stroke-width:11.4562;stroke-linejoin:round;stroke-dasharray:none;stroke-opacity:1"><tspan
             x="-5995.3398"
             y="2446.8708"
             id="tspan97634">permits</tspan></text></g><text
         xml:space="preserve"
         transform="matrix(0.87289276,0,0,0.87289276,13893.944,8430.7461)"
         id="text8927-5-7-2-9-0-8-9-1-4"
         style="font-style:normal;font-variant:normal;font-weight:normal;font-stretch:normal;font-size:64px;font-family:'Canted Comic';-inkscape-font-specification:'Canted Comic, Normal';font-variant-ligatures:normal;font-variant-caps:normal;font-variant-numeric:normal;font-variant-east-asian:normal;white-space:pre;shape-inside:url(#rect8929-5-9-5-9-9-3-2-3-9);display:inline;fill:#000000;fill-opacity:1;stroke:none;stroke-width:11.4562;stroke-linejoin:round;stroke-dasharray:none;stroke-opacity:1"><tspan
           x="-5995.3398"
           y="2446.8708"
           id="tspan97636">current 
</tspan><tspan
           x="-5995.3398"
           y="2526.8708"
           id="tspan97638">     price</tspan></text><text
         xml:space="preserve"
         transform="matrix(0.87289276,0,0,0.87289276,13843.442,8099.7862)"
         id="text8927-5-7-2-9-0-8-9-1-4-8"
         style="font-style:normal;font-variant:normal;font-weight:normal;font-stretch:normal;font-size:64px;font-family:'Canted Comic';-inkscape-font-specification:'Canted Comic, Normal';font-variant-ligatures:normal;font-variant-caps:normal;font-variant-numeric:normal;font-variant-east-asian:normal;white-space:pre;shape-inside:url(#rect8929-5-9-5-9-9-3-2-3-9-7);display:inline;fill:#000000;fill-opacity:1;stroke:none;stroke-width:11.4562;stroke-linejoin:round;stroke-dasharray:none;stroke-opacity:1"><tspan
           x="-5995.3398"
           y="2446.8708"
           id="tspan97640">damage of 
</tspan><tspan
           x="-5995.3398"
           y="2526.8708"
           id="tspan97642"> emissions</tspan></text><path
         d="m 9845.6887,10791.794 c -0.985,-0.137 -2.2904,-0.445 -2.9012,-0.686 -0.6108,-0.241 -1.3708,-0.407 -1.6891,-0.368 -1.1154,0.129 -1.7657,-0.235 -2.6021,-1.47 -1.0452,-1.545 -1.2619,-3.061 -0.5484,-3.838 0.6744,-0.734 4.8612,-2.3 6.7857,-2.538 1.2417,-0.153 1.4662,-0.311 1.6853,-1.177 0.1391,-0.549 0.044,-2.119 -0.2111,-3.487 -0.3944,-2.114 -0.3774,-2.59 0.1112,-3.155 0.4887,-0.567 0.5117,-1.22 0.1531,-4.339 -0.2316,-2.019 -0.4898,-4.771 -0.5725,-6.116 -0.083,-1.345 -0.2647,-3.704 -0.4043,-5.243 -0.14,-1.538 -0.1807,-2.959 -0.091,-3.157 0.09,-0.198 0.082,-1.459 -0.016,-2.803 l -0.1781,-2.442 -2.6258,0.117 c -3.7975,0.168 -6.0494,0.03 -6.9737,-0.412 -1.0275,-0.499 -2.1586,-2.262 -2.3279,-3.629 -0.1313,-1.061 0.7456,-2.26 1.743,-2.384 0.2564,-0.03 0.9292,-0.511 1.4951,-1.065 1.1216,-1.098 2.814,-1.493 4.5419,-1.059 0.5625,0.14 1.4481,0.26 1.9682,0.264 1.0469,0 1.0889,-0.143 1.0373,-3.856 -0.029,-2.12 -0.5287,-3.375 -1.7072,-4.294 -0.7119,-0.555 -0.7391,-0.703 -0.4944,-2.681 0.1422,-1.151 0.2996,-2.461 0.3496,-2.909 0.112,-1.004 2.4746,-3.537 4.0936,-4.389 0.6594,-0.347 2.4879,-1.095 4.0633,-1.662 5.0386,-1.815 11.5045,-1.663 15.7121,0.372 1.0298,0.498 2.3087,1.072 2.8421,1.276 2.6611,1.019 3.461,1.451 4.6109,2.487 0.6871,0.619 2.3497,2.015 3.6946,3.104 1.3448,1.087 2.4615,2.11 2.4816,2.272 0.02,0.162 0.3863,0.68 0.8138,1.152 0.4275,0.471 0.9611,1.468 1.1859,2.215 0.2247,0.747 0.5503,1.499 0.7236,1.671 0.9957,0.989 1.571,8.704 0.7296,9.783 -0.2665,0.342 -0.4378,1 -0.3806,1.463 0.059,0.474 -0.3525,1.492 -0.943,2.334 -0.5759,0.822 -1.029,1.641 -1.0067,1.821 0.055,0.44 -1.5796,2.418 -2.0459,2.476 -0.2045,0.03 -0.5364,0.303 -0.7374,0.617 -0.2011,0.314 -0.9732,0.818 -1.7159,1.12 -1.2451,0.507 -2.6956,1.604 -3.7114,2.811 -0.4518,0.536 -0.8136,0.679 -4.0975,1.614 -4.4888,1.28 -4.93,1.421 -5.2188,1.652 -0.3077,0.247 -7.2132,1.463 -9.7538,1.717 l -1.4657,0.146 0.3848,1.08 c 0.4624,1.298 0.5825,2.707 0.5105,5.992 -0.029,1.359 0.087,3.671 0.258,5.138 0.172,1.466 0.2041,3.108 0.072,3.646 -0.3993,1.632 0.5591,2.402 2.9297,2.354 1.0844,-0.02 2.5084,0.189 3.1644,0.469 1.3653,0.583 2.6395,2.315 2.7292,3.708 0.055,0.856 -0.1114,1.005 -1.6467,1.487 -7.1075,2.227 -12.1021,3.172 -14.805,2.8 z m 19.2875,-36.587 c 1.4376,0 2.0182,-0.241 4.7327,-1.976 1.7017,-1.087 3.3297,-2.005 3.6176,-2.04 0.7464,-0.09 3.6474,-3.844 3.5542,-4.596 -0.043,-0.346 0.1137,-0.961 0.348,-1.364 0.6371,-1.103 0.1295,-4.367 -1.0289,-6.616 -1.0965,-2.13 -3.185,-4.51 -4.128,-4.705 -0.3376,-0.07 -0.748,-0.419 -0.912,-0.776 -0.1639,-0.357 -0.4325,-0.632 -0.5967,-0.613 -0.1643,0.02 -0.533,-0.13 -0.8198,-0.337 -2.249,-1.621 -4.6956,-2.288 -6.6574,-1.818 -1.1648,0.278 -1.6643,0.24 -2.1423,-0.174 -0.9341,-0.806 -7.4114,-0.438 -8.1911,0.465 -0.3012,0.349 -0.7748,0.585 -1.0524,0.523 -0.2776,-0.06 -0.772,0.148 -1.0986,0.466 -0.5222,0.508 -0.5295,0.857 -0.06,2.902 0.2938,1.277 0.5528,2.638 0.5757,3.022 0.2803,4.714 0.282,4.717 3.6061,4.313 4.3028,-0.523 7.006,-0.355 7.9035,0.486 0.9041,0.847 1.3607,3.355 0.7322,4.023 -0.9412,1 -3.5575,1.954 -7.114,2.593 -3.3225,0.595 -3.8565,0.783 -4.4701,1.57 -0.52,0.667 -0.6478,1.29 -0.5037,2.454 0.4682,3.781 2.0582,4.302 8.8064,2.886 1.7927,-0.378 3.9969,-0.686 4.8984,-0.685 z"
         style="fill:#000000;stroke-width:0.999995"
         id="path7968-3-7" /><path
         d="m 8923.4928,10103.301 c -0.8237,-0.187 -1.4714,-0.818 -2.4239,-2.365 -1.6449,-2.67 -1.7856,-3.562 -0.7988,-5.062 0.4361,-0.663 0.8253,-1.669 0.8652,-2.233 0.04,-0.566 0.2907,-1.825 0.5579,-2.799 0.2671,-0.974 0.3923,-1.838 0.2779,-1.919 -0.1152,-0.09 -1.1945,-0.06 -2.4005,0.05 -1.2065,0.106 -2.3735,0.123 -2.5939,0.03 -0.2207,-0.09 -2.0232,0.02 -4.0056,0.227 -4.9218,0.535 -6.8706,0.332 -7.7231,-0.806 -0.3763,-0.502 -1.1017,-1.181 -1.6119,-1.508 -0.5101,-0.326 -0.9576,-0.773 -0.9943,-0.993 -0.1123,-0.672 1.436,-3.647 1.9422,-3.732 0.2616,-0.04 0.6382,-0.359 0.8368,-0.701 0.435,-0.746 3.933,-1.258 4.7273,-0.694 0.288,0.205 1.2442,0.252 2.1249,0.105 0.8806,-0.147 2.2226,-0.126 2.9819,0.04 0.7595,0.171 2.3856,0.225 3.6134,0.116 1.8427,-0.16 2.2195,-0.307 2.1627,-0.807 -0.3939,-3.443 -0.4237,-5.324 -0.1001,-6.329 0.212,-0.658 0.3415,-1.458 0.2881,-1.778 -0.054,-0.321 0.1552,-1.358 0.4638,-2.306 0.4353,-1.337 0.443,-1.936 0.034,-2.677 -0.4991,-0.902 -0.6734,-0.932 -3.2064,-0.549 -3.9317,0.594 -5.5393,0.288 -8.3964,-1.6 -3.3467,-2.21 -3.8026,-3.506 -3.1846,-9.057 0.3594,-3.23 0.6347,-4.184 1.5201,-5.269 0.5948,-0.728 1.0231,-1.695 0.952,-2.149 -0.1205,-0.783 2.7133,-5.435 3.3825,-5.548 0.1728,-0.03 1.0252,-0.871 1.8939,-1.873 0.8687,-1.001 1.6996,-1.771 1.8461,-1.712 0.1467,0.06 1.0032,-0.2 1.9036,-0.578 0.9001,-0.378 2.5668,-0.956 3.7037,-1.284 2.0355,-0.589 2.0761,-0.629 2.6771,-2.669 1.0371,-3.521 1.1316,-4.028 0.8847,-4.741 -0.1315,-0.38 -0.015,-1.006 0.26,-1.391 0.2744,-0.385 0.4415,-1.044 0.3712,-1.464 -0.07,-0.421 0.01,-1.167 0.1748,-1.66 0.1665,-0.493 0.1127,-2.249 -0.1194,-3.902 -0.2318,-1.652 -0.3531,-3.102 -0.269,-3.22 0.084,-0.12 0.9732,-0.524 1.9755,-0.903 l 1.8223,-0.688 1.7467,1.368 c 1.5874,1.246 1.7551,1.524 1.837,3.057 0.055,1.017 -0.1962,2.114 -0.6309,2.766 -0.5922,0.887 -0.658,1.597 -0.3685,3.963 0.2062,1.69 0.1699,3.741 -0.088,4.956 -0.2427,1.139 -0.3873,2.392 -0.3216,2.785 0.1751,1.047 1.9325,1.198 5.201,0.445 2.6696,-0.614 2.9559,-0.602 4.7601,0.215 1.0556,0.479 2.6759,1.331 3.6006,1.895 1.8458,1.128 2.0624,2.057 0.9362,4.017 -0.6281,1.092 -4.2786,2.654 -5.4633,2.337 -0.3745,-0.1 -1.7206,-0.03 -2.9913,0.138 -1.2699,0.181 -3.2427,0.425 -4.3823,0.554 -2.3035,0.263 -2.4802,0.457 -2.7479,3.015 -0.092,0.882 -0.2478,1.972 -0.3458,2.421 -0.1557,0.718 -0.5421,3.173 -0.8916,5.665 -0.062,0.444 -0.014,1.5 0.1079,2.346 0.1215,0.846 0.049,1.794 -0.1599,2.107 -0.2095,0.311 -0.2606,0.771 -0.1135,1.021 0.3791,0.644 3.6756,2.016 4.5092,1.876 0.3835,-0.06 1.4912,0.238 2.4617,0.672 0.9703,0.433 2.3929,1.038 3.1608,1.342 2.3358,0.928 4.52,2.603 5.8621,4.495 1.5307,2.158 2.5321,4.46 2.1032,4.837 -0.1691,0.148 -0.1703,1.09 0,2.094 0.5864,3.507 -0.2812,5.924 -3.3233,9.258 -0.3414,0.375 -1.1567,0.801 -1.8116,0.946 -0.6557,0.142 -1.9497,0.713 -2.8769,1.262 -1.5369,0.908 -2.0082,1.005 -5.3323,1.095 -2.0054,0.05 -4.1358,0.09 -4.7341,0.08 -0.9091,-0.02 -1.0661,0.104 -0.9525,0.783 0.1613,0.965 -0.033,4.348 -0.2999,5.226 -0.1041,0.343 0.045,0.971 0.3323,1.397 0.3988,0.593 0.3963,0.952 -0.01,1.521 -0.2926,0.411 -0.3997,1.015 -0.2381,1.345 0.6557,1.336 -2.8958,3.554 -4.9477,3.091 z m 14.8527,-21.672 c 3.5655,-1.955 4.1203,-2.847 3.3877,-5.442 -0.5347,-1.894 -1.7264,-3.855 -2.2859,-3.762 -0.1674,0.03 -1.1378,-0.452 -2.1567,-1.065 -1.021,-0.615 -3.2595,-1.389 -4.9883,-1.725 -1.7251,-0.335 -3.1795,-0.602 -3.2324,-0.595 -0.053,0 -0.037,0.365 0.034,0.794 0.072,0.428 -0.041,1.466 -0.2488,2.306 -0.8218,3.314 -1.0905,8.306 -0.4896,9.091 0.9756,1.277 2.8196,2.425 3.6672,2.283 0.475,-0.08 0.9997,0 1.1658,0.201 0.357,0.407 1.2874,0.03 5.1467,-2.086 z m -16.1769,-22.644 c -0.1398,-0.836 0.098,-2.021 0.6437,-3.219 0.4757,-1.042 0.8039,-2.261 0.7291,-2.708 -0.074,-0.445 0.01,-1.159 0.1844,-1.584 0.2283,-0.552 0.1692,-0.96 -0.2076,-1.431 -0.5417,-0.675 -0.1942,-2.327 0.8039,-3.823 0.555,-0.832 -0.1665,-0.997 -1.131,-0.255 -0.382,0.294 -1.3148,0.638 -2.073,0.766 -0.8719,0.145 -1.4244,0.454 -1.5032,0.841 -0.068,0.337 -0.3834,0.656 -0.7001,0.708 -0.3166,0.05 -0.8901,0.486 -1.2742,0.963 -0.3843,0.476 -1.362,1.689 -2.173,2.693 -1.1201,1.388 -1.5471,2.371 -1.7776,4.094 -0.4838,3.614 -0.5399,3.558 3.326,3.341 0.9149,-0.04 2.3655,0.148 3.2259,0.443 2.1059,0.724 2.1809,0.691 1.9268,-0.829 z"
         style="fill:#000000;stroke-width:1.20832"
         id="path1725-0" /><path
         style="fill:none;stroke:#000000;stroke-width:10;stroke-linecap:round;stroke-linejoin:round;stroke-dasharray:none"
         d="m 8974.5139,10065.69 -0.7543,18.677 2.3435,21.304 -0.6073,18.465 -0.5362,20.029 -0.057,20.306 0.6072,20.16 -0.7725,18.233 1.1705,21.418 -0.048,19.308 0.5724,20.108 4e-4,19.452 0.019,19.747 -0.94,17.406 -0.7571,20.709 1.0566,21.216 -0.011,19.778 0.012,19.768 0.1111,19.832 3.3113,19.818 -0.7758,16.945 -0.097,22.594 -0.2329,19.741 1.6655,20.482 -0.6135,18.729 -0.5969,19.868 -0.836,19.346 -0.9704,19.719 -0.6362,18.914 -0.6564,20.889 -0.3977,19.934 -0.6972,17.868 2.3187,22.424 20.2899,0.417 20.2226,0.674 20.9171,0.185 16.9187,-1.314 21.2793,0.35 18.3829,-2.862 20.6669,0.262 21.0835,0.09 17.6909,-0.629 21.3769,0.786 18.3421,-0.408 20.0245,-0.1 19.0413,-2.37 20.1115,-0.897 19.6493,-1.83 20.2561,-1.268 19.9353,-2.637 19.974,-0.961 19.9587,0.511 22.8446,1.077 17.8716,0.586 18.1252,-3.144 20.197,0.443 20.5654,1.123 18.9114,0.393 21.5101,1.03 18.1368,0.488 21.4702,0.915 17.9417,0.364 19.2589,-0.448 21.3432,1.027 19.0718,0.758 20.065,0.986 20.1222,1.181 20.8301,1.089 16.9918,-1.605 20.758,0.772 18.9888,-0.463 22.5556,1.026 19.6813,1.418 17.5791,-0.813 19.5983,0.494 21.2519,0.996 18.3277,0.507 19.7989,-1.617"
         id="path1799-9"
         inkscape:path-effect="#path-effect2613-6"
         inkscape:original-d="m 8974.5139,10065.69 v 632.497 h 892.2014" /><path
         style="fill:none;stroke:#000000;stroke-width:10;stroke-linecap:round;stroke-linejoin:round;stroke-dasharray:none"
         d="m 9030.5213,10066.674 c 1.2739,3.365 1.9265,5.744 3.307,9.084 0.8529,2.723 5.1951,7.781 6.8509,11.448 3.3977,3.332 2.1896,5.086 3.5923,7.997 1.2126,2.784 3.0295,6.555 4.8546,10.074 1.3407,2.922 3.5963,6.843 5.4937,10.264 1.7599,3.198 4.1974,6.778 6.0886,9.992 2.345,3.351 2.9613,5.007 4.8325,8.024 1.5275,2.462 5.4821,7.45 7.7771,10.942 2.9505,3.302 3.8333,5.761 5.8005,8.622 2.1494,3.121 4.8909,6.53 7.1167,9.62 2.6791,3.247 4.3434,5.887 6.5316,8.799 2.3691,3.078 4.7223,6.098 7.0929,9.123 2.4694,3.036 4.0262,3.936 6.4736,6.935 2.1425,1.449 5.222,5.831 8.2231,9.346 2.2079,2.067 6.6706,6.669 9.5935,9.955 3.4306,2.829 5.0343,5.603 7.5682,8.36 2.7271,2.959 5.4534,5.851 8.1882,8.729 2.814,2.932 5.6719,5.851 8.4672,8.699 2.9479,2.94 8.6263,5.797 11.458,8.595 5.3932,2.475 4.3293,2.188 6.7087,4.482 3.0131,0.836 7.0511,6.632 10.5118,9.86 3.1689,2.851 5.9794,5.542 8.9567,8.245 3.1116,2.829 7.8564,6.192 10.9166,8.897 4.4523,3.076 5.2568,4.4 7.9328,6.714 3.1501,2.502 6.4025,5.358 9.6433,8.089 3.2112,2.564 6.2332,4.902 9.4964,7.585 3.1408,2.26 6.3791,4.997 9.791,7.735 3.0693,2.241 6.7567,4.255 10.2465,6.988 3.4046,1.532 6.938,5.325 10.5425,8.082 3.2451,2.402 6.8552,5.189 10.3434,7.799 3.3695,2.495 6.5179,3.358 9.9864,5.898 3.4308,1.017 9.5803,6.165 13.4176,8.914 4.9156,2.732 6.3723,4.607 9.345,6.701 3.8009,2.743 7.5539,5.323 10.9212,7.653 4.0999,2.87 8.3729,4.678 11.6379,6.899 4.9748,2.309 5.5249,3.068 8.6426,5.155 3.2208,1.477 8.4867,5.542 12.4173,8.123 4.0579,2.559 6.2147,1.91 9.6276,4.115 3.5474,0.132 8.4852,5.516 12.6413,8.152 3.7613,2.447 8.4967,4.543 12.0681,6.772 4.6876,2.113 6.14,3.532 9.4639,5.578 3.3712,1.784 8.671,5.394 12.5471,7.743 4.2812,2.678 6.3518,3.648 9.7055,5.653 3.4716,1.885 7.5135,4.414 11.3381,6.666 3.6049,2.063 6.6815,2.212 10.4184,4.381 3.4043,0.263 7.8768,3.924 12.0713,6.321 3.4348,1.33 7.254,2.707 11.1995,4.931 3.4596,0.522 7.9524,3.258 12.0485,5.536 3.6861,0.839 7.7262,1.744 11.6534,3.902 3.937,-0.378 8.1009,3.253 12.167,5.462 3.7973,0.878 7.7565,4.23 11.5897,6.293 3.695,2.014 10.0689,4.465 13.6793,6.39 5.6506,2.082 6.7927,3.218 9.6045,4.708 4.4401,1.956 6.2562,0.322 9.5266,2.041 3.8031,-0.987 8.1379,4.198 12.2223,6.33 3.5346,1.772 7.8468,4.258 11.4325,6.118 3.9502,2.219 6.5172,3.317 9.8066,5.013 3.4644,1.728 8.5707,4.094 12.1033,5.904 4.5062,1.995 6.1058,3.123 9.127,4.662 3.4773,1.771 8.4405,3.859 11.8579,5.589 4.5175,1.857 5.8528,2.913 8.7883,4.391 3.3561,1.643 6.2981,2.577 9.6754,4.267 3.0888,0.955 8.0434,3.994 11.6031,5.765 3.8811,1.906 6.2958,3.228 9.2885,4.709 3.4252,1.795 6.8567,3.554 9.9842,5.094 3.558,1.916 6.9003,3.605 9.8801,5.063 3.7302,2.041 7.5437,3.404 10.3567,4.772 4.3968,1.86 4.4575,0.748 6.9629,1.96 2.869,-0.03 7.1259,3.518 10.5317,5.157 3.1531,1.593 5.3937,1.938 8.2881,3.325 2.7435,0.658 8.3879,3.368 11.5421,4.873 4.3063,1.411 6.5685,2.986 8.8604,4.077 4.1454,1.829 4.4336,1.007 6.615,2.043 2.9487,0.299 5.6511,2.524 8.5133,3.883 2.6221,1.085 6.7389,2.767 9.4805,4.068 3.4682,1.214 4.513,1.956 6.786,3.035 2.5355,1.018 5.2084,0.07 7.7858,1.288 2.8068,-1.073 5.8355,2.81 8.6114,4.142 2.5233,1.244 5.4106,2.645 7.7322,3.767 2.782,1.386 4.0161,1.272 6.0812,2.275 2.2317,0.412 4.5113,1.743 6.8663,2.898 2.0321,0.541 6.687,3.108 8.9711,4.239 3.4274,1.51 2.6489,0.968 4.0569,1.669 1.9198,0.609 3.9293,1.705 5.978,2.734 1.748,0.622 4.1016,2.055 6.08,3.057 1.8239,0.91 3.7327,1.85 5.4835,2.737 1.8073,0.873 3.9951,1.81 5.6212,2.628 2.084,0.838 2.1951,-0.172 3.5845,0.523 1.2884,-0.635 3.893,1.049 5.7675,2.029 1.5647,-0.111 5.2063,2.407 6.7237,3.256 2.7393,1.1 1.2727,-1.508 1.9122,-1.138 1.6536,-1.268 3.2656,1.861 4.707,3.023 0.964,0.464 1.9387,1.629 2.8733,2.399 0.8209,0.675 3.6399,2.131 4.4676,2.651 0.8976,0.563 -0.475,-0.183 0.4678,0.02"
         id="path2723-3"
         inkscape:path-effect="#path-effect2725-2"
         inkscape:original-d="m 9030.5213,10066.674 c 121.0181,319.681 728.2271,527.737 819.8838,547.732"
         sodipodi:nodetypes="cc" /><path
         style="fill:none;stroke:#000000;stroke-width:9.99997;stroke-linecap:round;stroke-linejoin:round;stroke-dasharray:none"
         d="m 9792.4175,10182.261 0.6829,7.184 -0.083,13.749 0.025,6.648 -0.3187,10.568 -0.2424,11.261 -0.025,10.891 -0.8125,6.071 0.186,14.042 0.1368,8.751 0.048,10.761 0.01,9.111 -0.2582,9.858 -0.1476,4.007 -0.451,12.281 0.2351,13.539 0.2186,9.923 -0.2023,9.911 0.058,10.071 0.5533,10.034 -0.039,2.668 -0.2128,17.028 -0.7772,9.837 0.3353,11.708 0.044,7.11 0.035,10.213 0.02,8.901 -0.5653,9.862 0.092,7.861 -0.7711,12.756 -0.4021,10.372 0.3912,5.188 0.9387,16.553 -0.3014,9.249 -0.4245,10.574 -0.098,8.73 0.9353,6.168 -0.2444,13.984 0.067,1.9 -0.1346,17.529 -0.4945,9.498 -0.3825,8.134 1.298,13.4 -0.398,6.945 -0.1901,10.646 0.3131,4.232 0.5606,13.37 -0.092,7.483 0.225,11.138 0.1911,6.359 0.2476,13.828 0.8931,13.467 -1.4634,11.338"
         id="path2727-6"
         inkscape:path-effect="#path-effect2729-9"
         inkscape:original-d="m 9792.4175,10182.261 v 515.079" /><path
         style="fill:none;stroke:#000000;stroke-width:4.99999;stroke-linecap:round;stroke-linejoin:round;stroke-dasharray:10, 20;stroke-dashoffset:0"
         d="m 8977.5208,10584.356 h 800.8323"
         id="path3654-6" /><path
         style="fill:none;stroke:#000000;stroke-width:15;stroke-linecap:round;stroke-linejoin:round;stroke-dasharray:none;stroke-dashoffset:0"
         d="m 8955.6849,10249.766 h 37.672"
         id="path3654-5-1" /></g></g></svg>
