<?xml version="1.0" encoding="UTF-8" standalone="no"?>
<!-- Created with Inkscape (http://www.inkscape.org/) -->

<svg
   version="1.1"
   id="svg176"
   width="1329.1697"
   height="974.09802"
   viewBox="0 0 1329.1697 974.09802"
   sodipodi:docname="comic.svg"
   xml:space="preserve"
   inkscape:version="1.2.2 (b0a8486541, 2022-12-01)"
   xmlns:inkscape="http://www.inkscape.org/namespaces/inkscape"
   xmlns:sodipodi="http://sodipodi.sourceforge.net/DTD/sodipodi-0.dtd"
   xmlns="http://www.w3.org/2000/svg"
   xmlns:svg="http://www.w3.org/2000/svg"><defs
     id="defs180"><inkscape:path-effect
       effect="roughen"
       id="path-effect2210-3-0-4-26-3"
       is_visible="true"
       lpeversion="1.2"
       method="size"
       max_segment_size="40"
       segments="114"
       displace_x="1;589550557"
       displace_y="7;1910419474"
       global_randomize="1;1292492417"
       handles="along"
       shift_nodes="true"
       fixed_displacement="false"
       spray_tool_friendly="false" /><rect
       x="-1955.4146"
       y="630.24219"
       width="1335.7551"
       height="443.47772"
       id="rect3105-9-4-0-9-8" /><rect
       x="-1955.4146"
       y="630.24219"
       width="1360.2417"
       height="159.30681"
       id="rect3105-9-4-0-9-8-0" /><rect
       x="-1955.4146"
       y="630.24219"
       width="1240.7339"
       height="235.90471"
       id="rect3105-9-4-0-9-8-0-6" /><rect
       x="-1889.6726"
       y="613.1416"
       width="1149.0996"
       height="164.1844"
       id="rect8937-1-4-9-22" /><rect
       x="-1955.4146"
       y="630.24219"
       width="1240.8248"
       height="187.84032"
       id="rect3105-9-4-0-9-8-8" /></defs><sodipodi:namedview
     id="namedview178"
     pagecolor="#ffffff"
     bordercolor="#000000"
     borderopacity="0.25"
     inkscape:showpageshadow="2"
     inkscape:pageopacity="0.0"
     inkscape:pagecheckerboard="0"
     inkscape:deskcolor="#d1d1d1"
     showgrid="false"
     showguides="false"
     inkscape:zoom="0.13137786"
     inkscape:cx="9853.2583"
     inkscape:cy="2641.2365"
     inkscape:window-width="1920"
     inkscape:window-height="1011"
     inkscape:window-x="0"
     inkscape:window-y="0"
     inkscape:window-maximized="1"
     inkscape:current-layer="g182"><inkscape:grid
       type="xygrid"
       id="grid2722" /></sodipodi:namedview><g
     inkscape:groupmode="layer"
     inkscape:label="Image"
     id="g182"
     transform="translate(-7212.914,-10893.971)"><g
       id="vgn30"><text
         xml:space="preserve"
         id="text8935-1-3-6-8"
         style="font-style:normal;font-variant:normal;font-weight:normal;font-stretch:normal;font-size:96px;font-family:'Canted Comic';-inkscape-font-specification:'Canted Comic, Normal';font-variant-ligatures:normal;font-variant-caps:normal;font-variant-numeric:normal;font-variant-east-asian:normal;white-space:pre;shape-inside:url(#rect8937-1-4-9-22);display:inline;fill:#000000;fill-opacity:1;stroke:none;stroke-width:10;stroke-linejoin:round;stroke-dasharray:none;stroke-opacity:1"
         transform="translate(9277.7194,10337.532)"><tspan
           x="-1889.6719"
           y="707.42634"
           id="tspan108696">that's what we do.</tspan></text><text
         xml:space="preserve"
         id="text3103-7-4-9-0-5-9-3"
         style="font-style:normal;font-variant:normal;font-weight:normal;font-stretch:normal;font-size:64px;font-family:'Canted Comic';-inkscape-font-specification:'Canted Comic, Normal';font-variant-ligatures:normal;font-variant-caps:normal;font-variant-numeric:normal;font-variant-east-asian:normal;white-space:pre;shape-inside:url(#rect3105-9-4-0-9-8-0-6);display:inline;fill:#000000;fill-opacity:1;stroke:#000000;stroke-width:0;stroke-linejoin:round;stroke-dasharray:none"
         transform="translate(9312.2934,10784.352)"><tspan
           x="-1955.4141"
           y="693.09933"
           id="tspan108698">1. increase the price that   
</tspan><tspan
           x="-1955.4141"
           y="773.09933"
           id="tspan108700">    polluters pay to pollute.</tspan></text><text
         xml:space="preserve"
         id="text3103-7-4-9-0-5"
         style="font-style:normal;font-variant:normal;font-weight:normal;font-stretch:normal;font-size:64px;font-family:'Canted Comic';-inkscape-font-specification:'Canted Comic, Normal';font-variant-ligatures:normal;font-variant-caps:normal;font-variant-numeric:normal;font-variant-east-asian:normal;white-space:pre;shape-inside:url(#rect3105-9-4-0-9-8);display:inline;fill:#000000;fill-opacity:1;stroke:#000000;stroke-width:0;stroke-linejoin:round;stroke-dasharray:none"
         transform="translate(9199.4614,10665.049)"><tspan
           x="-1955.4141"
           y="693.09933"
           id="tspan108702">by removing one permit, you</tspan></text><text
         xml:space="preserve"
         id="text3103-7-4-9-0-5-5"
         style="font-style:normal;font-variant:normal;font-weight:normal;font-stretch:normal;font-size:64px;font-family:'Canted Comic';-inkscape-font-specification:'Canted Comic, Normal';font-variant-ligatures:normal;font-variant-caps:normal;font-variant-numeric:normal;font-variant-east-asian:normal;white-space:pre;shape-inside:url(#rect3105-9-4-0-9-8-8);display:inline;fill:#000000;fill-opacity:1;stroke:#000000;stroke-width:0;stroke-linejoin:round;stroke-dasharray:none"
         transform="translate(9199.4614,10508.653)"><tspan
           x="-1955.4141"
           y="693.09933"
           id="tspan108704">we offer you permit removals.</tspan></text><text
         xml:space="preserve"
         id="text3103-7-4-9-0-5-9"
         style="font-style:normal;font-variant:normal;font-weight:normal;font-stretch:normal;font-size:64px;font-family:'Canted Comic';-inkscape-font-specification:'Canted Comic, Normal';font-variant-ligatures:normal;font-variant-caps:normal;font-variant-numeric:normal;font-variant-east-asian:normal;white-space:pre;shape-inside:url(#rect3105-9-4-0-9-8-0);display:inline;fill:#000000;fill-opacity:1;stroke:#000000;stroke-width:0;stroke-linejoin:round;stroke-dasharray:none"
         transform="translate(9302.2934,10984.352)"><tspan
           x="-1955.4141"
           y="693.09933"
           id="tspan108706">2. decrease total emissions by
</tspan><tspan
           x="-1955.4141"
           y="773.09933"
           id="tspan108710">   <tspan
   style="font-weight:bold;-inkscape-font-specification:'Canted Comic, Bold'"
   id="tspan108708">exactly</tspan> one ton.</tspan></text><path
         style="fill:none;fill-opacity:1;stroke:#000000;stroke-width:8;stroke-linejoin:round;stroke-dasharray:none;stroke-opacity:1"
         d="m 7217.3975,10901.226 38.5594,1.197 39.3584,0.03 38.7253,-1.909 38.4457,-0.172 38.9701,3.62 38.8262,-0.178 39.0172,0.172 38.6681,-1.987 39.0505,0.55 38.505,-0.07 39.0974,-2.747 38.9322,-1.761 38.8495,3.382 38.7371,3.116 39.0474,-0.962 39.0675,0.524 38.4123,1.141 38.8037,0.663 38.9427,-1.015 38.8305,-2.069 38.7876,-1.952 38.8319,2.757 38.9252,-0.314 38.3727,2.594 39.0809,-0.44 39.1925,-0.57 38.4673,-0.638 38.7333,3.802 38.7273,-0.882 38.9538,4.823 39.6671,-2.529 38.8439,-3.138 38.3754,-1.506 38.8361,-1.081 0.045,38.567 -0.5249,40.08 -0.302,38.646 -0.2195,35.398 0.2512,39.288 -0.2843,38.404 -0.1334,38.007 -0.01,38.631 -0.131,37.435 -0.218,42.297 0.066,35.699 -0.4122,36.42 -0.2475,39.544 0.1977,38.544 -0.7521,38.904 -0.3338,37.224 -0.191,38.687 0.01,35.63 -0.3355,41.893 -0.4675,37.861 -0.6087,38.789 -0.043,38.668 0,38.349 -0.1,35.846 0.1672,40.961 -39.8709,-0.607 -39.8786,-0.506 -40.4181,1.733 -39.2654,-0.06 -40.5943,-0.229 -39.2477,-2.407 -39.935,0.132 -39.8376,-0.04 -40.2025,-0.911 -39.5996,-1.256 -39.4887,-2.311 -40.081,1.27 -40.1117,1.349 -39.7331,-0.796 -39.6326,-3.628 -40.4767,-3.383 -39.3705,0.51 -40.4575,1.057 -39.5049,-2.066 -40.1437,-0.159 -40.2091,0.03 -39.9828,-2.805 -39.3662,0.455 -39.7434,1.746 -40.1022,0.339 -39.7967,0.947 -39.8958,0.635 -39.8175,3.959 -39.7825,0.151 -39.9954,0.206 -39.3712,3.42 -40.7427,-1.22 -39.4475,-2.389 0.1641,-37.19 -0.3204,-43.794 -0.2144,-39.501 -0.071,-34.966 0.074,-40.523 0.1908,-39.669 -0.087,-39.845 -0.1058,-42.389 -0.01,-36.125 0.079,-43.191 -0.021,-36.761 -0.1126,-43.094 -0.01,-39.093 0.2131,-41.193 0.2091,-38.477 0.017,-41.165 0,-37.202 0.011,-42.498 0.1522,-37.816 0.1486,-39.947 -0.035,-39.073 -0.081,-36.015 0,-46.842 z"
         id="path2208-7-2-8-0-8"
         inkscape:path-effect="#path-effect2210-3-0-4-26-3"
         inkscape:original-d="m 7217.3959,10903.297 h 1320.5975 l -4.5915,960.172 -1316.006,-6.018 z"
         sodipodi:nodetypes="ccccc" /></g></g></svg>
