<?xml version="1.0" encoding="UTF-8" standalone="no"?>
<!-- Created with Inkscape (http://www.inkscape.org/) -->

<svg
   version="1.1"
   id="svg176"
   width="1321.2855"
   height="967.74475"
   viewBox="0 0 1321.2856 967.74475"
   sodipodi:docname="comic.svg"
   xml:space="preserve"
   inkscape:version="1.2.2 (b0a8486541, 2022-12-01)"
   xmlns:inkscape="http://www.inkscape.org/namespaces/inkscape"
   xmlns:sodipodi="http://sodipodi.sourceforge.net/DTD/sodipodi-0.dtd"
   xmlns="http://www.w3.org/2000/svg"
   xmlns:svg="http://www.w3.org/2000/svg"><defs
     id="defs180"><inkscape:path-effect
       effect="roughen"
       id="path-effect8798"
       is_visible="true"
       lpeversion="1.2"
       method="size"
       max_segment_size="8"
       segments="2"
       displace_x="0;2139095038"
       displace_y="1;1"
       global_randomize="1;1"
       handles="along"
       shift_nodes="true"
       fixed_displacement="false"
       spray_tool_friendly="false" /><rect
       x="-3290.614"
       y="8023.6855"
       width="255.23521"
       height="87.785622"
       id="rect8290" /><rect
       x="-1955.4146"
       y="630.24219"
       width="1243.5935"
       height="157.17981"
       id="rect3105-7-6-7-6-4-1" /><inkscape:path-effect
       effect="roughen"
       id="path-effect2210-8-7-1-3-7-7"
       is_visible="true"
       lpeversion="1.2"
       method="size"
       max_segment_size="5"
       segments="114"
       displace_x="5;143452960"
       displace_y="3;2018388453"
       global_randomize="1;1"
       handles="along"
       shift_nodes="true"
       fixed_displacement="false"
       spray_tool_friendly="false" /><inkscape:path-effect
       effect="roughen"
       id="path-effect2210-3-2-5-7-1-7-71"
       is_visible="true"
       lpeversion="1.2"
       method="size"
       max_segment_size="40"
       segments="114"
       displace_x="1;589550557"
       displace_y="7;1910419474"
       global_randomize="1;1292492417"
       handles="along"
       shift_nodes="true"
       fixed_displacement="false"
       spray_tool_friendly="false" /><rect
       x="-3290.614"
       y="8023.6855"
       width="54.303673"
       height="87.785622"
       id="rect8290-2" /><rect
       x="-3290.614"
       y="8023.6855"
       width="255.23521"
       height="87.785622"
       id="rect8290-20" /><rect
       x="-3290.614"
       y="8023.6855"
       width="255.23521"
       height="87.785622"
       id="rect8290-5" /><rect
       x="-3290.614"
       y="8023.6855"
       width="236.43063"
       height="74.913048"
       id="rect8290-0" /><rect
       x="-3290.614"
       y="8023.6855"
       width="296.74591"
       height="78.124557"
       id="rect8290-0-3" /><rect
       x="-3290.614"
       y="8023.6855"
       width="401.45499"
       height="62.624386"
       id="rect8290-0-0" /><rect
       x="-3290.614"
       y="8023.6855"
       width="399.73312"
       height="86.239586"
       id="rect8290-0-09" /><rect
       x="-3290.614"
       y="8023.6855"
       width="39.78941"
       height="69.851158"
       id="rect8290-2-9" /><rect
       x="-3290.614"
       y="8023.6855"
       width="39.78941"
       height="69.851158"
       id="rect8290-2-9-2" /><rect
       x="-3290.614"
       y="8023.6855"
       width="39.78941"
       height="69.851158"
       id="rect8290-2-9-9" /><rect
       x="-3290.614"
       y="8023.6855"
       width="39.78941"
       height="69.851158"
       id="rect8290-2-9-3" /><rect
       x="-3290.614"
       y="8023.6855"
       width="39.78941"
       height="69.851158"
       id="rect8290-2-9-0" /><rect
       x="-3290.614"
       y="8023.6855"
       width="39.78941"
       height="69.851158"
       id="rect8290-2-9-3-2" /><inkscape:path-effect
       effect="roughen"
       id="path-effect2210-3-2-5-7-1-7-71-4"
       is_visible="true"
       lpeversion="1.2"
       method="size"
       max_segment_size="40"
       segments="114"
       displace_x="1;589550557"
       displace_y="7;1910419474"
       global_randomize="1;1292492417"
       handles="along"
       shift_nodes="true"
       fixed_displacement="false"
       spray_tool_friendly="false" /><rect
       x="-3290.614"
       y="8023.6855"
       width="236.43063"
       height="74.913048"
       id="rect8290-0-5" /><rect
       x="-1955.4146"
       y="630.24219"
       width="1207.0829"
       height="85.039421"
       id="rect3105-7-6-7-6-4-1-3" /></defs><sodipodi:namedview
     id="namedview178"
     pagecolor="#ffffff"
     bordercolor="#000000"
     borderopacity="0.25"
     inkscape:showpageshadow="2"
     inkscape:pageopacity="0.0"
     inkscape:pagecheckerboard="0"
     inkscape:deskcolor="#d1d1d1"
     showgrid="false"
     showguides="false"
     inkscape:zoom="0.13137786"
     inkscape:cx="9853.2583"
     inkscape:cy="2641.2365"
     inkscape:window-width="1920"
     inkscape:window-height="1011"
     inkscape:window-x="0"
     inkscape:window-y="0"
     inkscape:window-maximized="1"
     inkscape:current-layer="g182"><inkscape:grid
       type="xygrid"
       id="grid2722" /></sodipodi:namedview><g
     inkscape:groupmode="layer"
     inkscape:label="Image"
     id="g182"
     transform="translate(-8607.0833,-6792.2643)"><g
       id="vgn19"
       transform="translate(11803.245,-196.30525)"><text
         xml:space="preserve"
         id="text3103-3-5-6-7-6-62"
         style="font-style:normal;font-variant:normal;font-weight:normal;font-stretch:normal;font-size:64px;font-family:'Canted Comic';-inkscape-font-specification:'Canted Comic, Normal';font-variant-ligatures:normal;font-variant-caps:normal;font-variant-numeric:normal;font-variant-east-asian:normal;white-space:pre;shape-inside:url(#rect3105-7-6-7-6-4-1);display:inline;fill:#000000;fill-opacity:1;stroke:#000000;stroke-width:0;stroke-linejoin:round;stroke-dasharray:none"
         transform="translate(-1199.4454,6394.6751)"><tspan
           x="-1955.4141"
           y="693.09933"
           id="tspan60598">at year end, if a station emitted X </tspan><tspan
           x="-1955.4141"
           y="773.09933"
           id="tspan60600">tons, it must return X permits.</tspan></text><text
         xml:space="preserve"
         id="text3103-3-5-6-7-6-62-56"
         style="font-style:normal;font-variant:normal;font-weight:normal;font-stretch:normal;font-size:64px;font-family:'Canted Comic';-inkscape-font-specification:'Canted Comic, Normal';font-variant-ligatures:normal;font-variant-caps:normal;font-variant-numeric:normal;font-variant-east-asian:normal;white-space:pre;shape-inside:url(#rect3105-7-6-7-6-4-1-3);display:inline;fill:#000000;fill-opacity:1;stroke:#000000;stroke-width:0;stroke-linejoin:round;stroke-dasharray:none"
         transform="translate(-1199.4454,6578.2271)"><tspan
           x="-1955.4141"
           y="693.09933"
           id="tspan60602">if it doesn't, big fine!</tspan></text><path
         style="fill:none;fill-opacity:1;stroke:#000000;stroke-width:5.05901;stroke-linejoin:round;stroke-dasharray:none;stroke-opacity:1"
         d="m -3174.0793,7024.4728 6.2356,-2.3666 2.6735,0.1192 5.8883,1.3754 3.8688,-0.2872 6.7992,0.7919 5.0599,0.7948 6.7213,0.1738 3.1045,-0.2455 4.7808,0.094 6.9752,0.051 3.6493,-0.1292 4.1752,-0.021 6.5413,0.4466 2.3825,-0 7.7331,0.044 2.0124,0.3513 7.0408,-0.077 4.4785,0 7.6696,0.011 1.9417,1.4546 4.4148,-0.2828 4.1794,0.2714 6.8643,0.1353 4.9265,-0.6506 5.0716,-0.4873 5.1284,0.666 4.4928,-1.4333 5.1564,-0.2043 4.8892,-0.4563 5.3225,-0.185 5.0643,0.832 6.1948,-0.3004 3.7808,-0.1011 6.332,0.3364 2.501,-0.1218 4.1086,0.2479 8.5662,0.8225 3.1965,0.1186 5.6262,0.3949 3.6944,0.019 4.7702,0.7204 4.5507,-0.2356 6.3693,-0.039 3.064,-1.0773 7.4957,-0.1939 3.2334,0.351 4.8592,0.2895 5.9875,-0.4985 5.1413,-0.7703 4.9782,0.7683 5.4728,-0.4209 1.2205,-0.4743 8.6608,-0.3299 4.6402,2.384 4.8502,-0.1089 3.2335,0 7.2598,0.5446 7.2017,-0.4159 2.1592,0.019 5.1586,-0.017 4.29,0.067 4.424,0.7064 6.7444,0.083 3.6208,0.7324 3.5218,-0.19 9.003,-1.4161 1.9269,0.046 5.7831,-0.2518 6.422,-0.227 5.2893,-0.7545 4.2576,0.039 0.9749,-0.5276 8.5825,0.4642 5.7083,-0.755 4.0396,0.07 4.7664,-0.6152 5.4807,-0.6807 5.6324,0.5841 5.4282,0.4342 4.3644,-0.074 5.6776,0.3162 7.0451,0.1714 1.454,1.1266 5.4543,-0.3539 5.0788,-0.1014 4.2728,-0.02 4.7923,-0.1828 6.7904,-0.3467 3.8226,-0.7776 1.3949,0.6362 8.5225,0.019 5.022,-0.4202 4.7935,-0.5598 3.0346,-0.088 5.4613,-0.7164 6.6614,-0.2632 3.85,2.3109 6.1314,-1.9272 3.9211,-0.749 7.552,-0.052 5.0271,-0.2215 2.6212,-0.2538 7.4231,-0.2803 3.7186,0.1421 2.0592,0.4353 9.0257,-0.4158 1.8924,0.4024 3.3379,-0.017 6.2541,0.2584 4.896,0.2401 6.8203,0.3315 5.5545,1.6571 4.4222,0.2971 7.1404,0.2131 3.4206,0.204 4.6293,-2.2666 4.6406,0.035 5.0104,0.1741 3.8055,1.1014 7.7529,0.7239 2.4627,0.4323 7.4994,-1.1791 4.9061,-0.4081 2.9508,-0.3417 6.2432,-0.3035 6.2872,0.6969 5.9621,3e-4 4.3006,-0.9219 5.0467,-0.2918 2.7122,-1.0683 5.1349,-0.2795 7.2376,-1.2195 2.1985,-0.5738 5.6461,-0.05 5.1773,0.1349 4.4804,-0.042 7.6652,0.8372 2.5434,0.068 8.277,0.7381 2.1951,-0.021 4.1475,-0.3383 2.9978,-0.1723 5.373,-1.0245 10.0129,-0.6277 1.3526,0.129 5.4258,0.05 5.4196,0.022 4.4171,0.1 4.0528,0.9383 6.6052,-0.1376 4.4542,0.1432 4.854,0.2574 5.7323,1.7428 0.4086,-0.5188 8.2452,0.2129 6.3918,-1.2069 4.0908,1.2435 4.8778,1.1452 5.8436,0.1477 2.9555,0.059 6.5404,-0.072 1.9538,0.2122 7.726,-0.2864 4.669,-0.2654 5.4825,-0.1012 5.5237,-0.069 4.3853,0.1934 5.5419,-0.025 2.0033,-0.6166 7.8099,0.5071 2.6857,-0.7268 6.3312,0.4796 4.4524,-0.041 6.6341,-0.268 5.3262,-1.2731 3.7517,0.032 6.4312,0.062 4.387,-0.5174 1.4853,-0.6503 8.607,1.2079 3.6031,-0.484 8.6626,-0.5526 -0.9645,-1.8648 8.7734,-1.6649 4.2731,-0.9771 5.39,0.4473 8.2418,0.4267 1.2409,0.025 5.4381,-0.1874 5.1231,0.1625 3.8658,1.0992 4.0924,0.1005 4.1561,-1.2153 6.847,-0.086 5.3902,0.7592 5.0618,0.063 5.3828,0.042 4.5852,0.098 6.2152,0.5129 3.6746,-1.4596 4.7017,0.1234 5.4546,0.119 5.3811,-1.0232 4.3543,1.3039 3.3414,1.7913 5.7198,-0.1773 5.8417,0.2762 4.6397,0.059 6.3313,0.072 3.8757,0.094 4.6691,0.1035 5.1791,1.1956 5.3498,-0.081 4.1238,0.2176 5.377,0.2203 5.2832,0.1718 4.6131,0.4894 6.3814,0.5313 4.7403,-0.917 3.3568,0.2187 6.2029,0.026 3.3398,0.5146 6.2685,0.123 4.6862,-0.7153 5.4074,0.3167 4.8526,-0.016 6.238,4e-4 3.2649,0.063 2.4157,0.559 8.0756,-0.1969 4.9812,0.7033 4.8388,0.1624 5.2347,1.2815 2.4489,-0.4251 10.4389,0.054 3.9314,-0.5483 1.7033,0.086 6.3071,0.5305 4.9647,-0.2147 6.0908,0.022 5.3585,-0.5131 6.1511,-0.067 0.4989,-0.09 8.5508,-0.9645 4.1878,0.6225 3.8008,0.2527 5.5211,0.1164 4.9916,-0.749 5.0777,0.5691 4.5902,0.022 4.5338,0.7245 5.2893,0.1588 5.2505,-0.051 2.3403,1.4397 8.0313,-0.835 4.3817,-0.4453 -0.3844,4.6452 -0.1609,4.2095 -2.3042,6.2578 -2.3316,4.2977 -3.2489,5.5853 -1.9309,4.9767 0.1223,4.7748 2.3347,5.7511 -0.6082,3.5926 1.6415,5.8125 0.6206,4.854 -2.034,5.1946 -0.5976,4.8793 0.5929,4.3975 -0.097,4.855 -1.7221,5.5092 0.1803,5.6926 -0.8007,5.2433 0.1038,4.3512 -0.238,5.0529 -0.3641,4.6876 -0.2253,4.7406 0.3848,5.9257 -0.2017,4.5368 0.3333,4.831 0.4758,5.0458 0.3249,4.0837 0.2317,4.5484 -1.7306,5.11 3.416,6.6176 -3.1254,2.861 -1.5392,5.6599 1.2164,6.219 0.3823,5.4161 0.7075,4.1974 0.8666,5.1057 -2.1703,5.2477 0.1827,4.9413 0.3658,4.6868 0.3539,4.636 1.5526,5.4727 -0.778,4.5052 1.897,5.0698 0.3186,3.9083 -1.262,7.4143 1.3563,2.0377 -0.5825,6.1564 1.3655,5.9392 0.4852,4.9358 0.2778,6.0752 4.0501,2.6095 -3.2852,5.084 -4.8798,-0.042 -6.6224,-0.2656 -2.4884,0.388 -6.823,0.7942 -5.9884,0.086 -2.8287,-0.7318 -5.317,-1.309 -5.0191,0.021 -4.9261,-0.039 -5.7204,-0.034 -4.2031,-0.63 -4.3099,-1.3388 -6.4427,-0.323 -4.8126,-0.6192 -3.4764,1.2606 -4.6725,-0.1897 -5.9471,2.0384 -4.8661,0.2363 -5.2836,0.8567 -4.0705,-0.8897 -6.4438,0.06 -4.4727,-0.692 -6.5107,0.2563 -2.7784,-1.4551 -5.5524,0.2874 -3.7771,-0.595 -5.7293,-0.035 -6.0719,-0.056 -4.7378,0.022 -5.6557,0.2401 -3.9868,0.012 -4.6435,-0.97 -6.2869,-0.3202 -3.6931,0.9793 -4.7909,0.3684 -3.8232,-0.7329 -6.2335,0.251 -6.2259,0.1291 -2.1122,0.5006 -7.3944,0.4109 -4.8718,0.037 -4.4156,0.6544 -2.3563,-0.2316 -8.7784,0.061 -8.2454,-0.3342 -1.6396,-2.1309 -3.4769,-0.4918 -5.0606,0.5875 -5.7797,0.4704 -3.8162,0.9029 -6.6319,1.4593 -3.9676,0.7216 -5.1538,0.9123 -4.3147,-0.1917 -2.2692,-0.1273 -8.108,0.9213 -5.8249,-0.096 -4.6682,-0.321 -6.1242,-0.4244 -2.458,0.021 -5.3551,0.042 -8.8594,-1.1911 -1.9473,-0.8677 -5.574,0.7968 -6.1714,0.1448 -3.2547,0.072 -5.462,0.016 -4.8242,1.2355 -7.4994,-0.8867 -3.2111,1.8265 -2.9798,-0.01 -6.0097,0.025 -5.7956,0.6816 -4.0909,-0.3879 -2.315,0.1106 -5.9683,0.7074 -6.4566,-0.2713 -3.703,0.7653 -5.6146,1.2986 -5.6405,-0.4867 -5.7599,0.091 -4.3485,-0.061 -5.4686,0.7147 -4.5889,-0.3275 -4.8716,0.053 -5.2364,0.3657 -2.9614,0.072 -6.2801,-0.7823 -6.8326,0.3251 -5.1212,0.01 -2.5677,1.2446 -3.9339,0.6399 -6.6744,-0.3572 -5.206,6e-4 -5.1855,-0.072 -6.1976,-0.026 -5.6232,-0.9346 -2.4523,-0.1215 -5.9435,-0.05 -4.5884,-0.018 -4.5873,-0.1663 -6.5939,-1.149 -3.788,0.8441 -5.0323,0.6345 -5.3671,-0.062 -4.9027,-0.9769 -4.8792,0.1745 -2.618,0.2423 -5.8283,0.1 -7.9913,-0.056 -3.5251,-0.206 -8.2658,-0.7918 -3.0219,-0.017 -3.6692,-0.2624 -3.0694,-1.8727 -6.825,1.2931 -4.6745,1.2694 -2.5233,1.3098 -6.4775,-0.1082 -5.0149,-0.7621 -5.63,0.3978 -5.9295,0.6216 -4.5153,-0.023 -5.6257,0.2138 -1.6576,-0.052 -6.3718,-0.9362 -5.9521,0.088 -6.6753,1.2535 -0.1236,-0.073 -7.1295,-0.2625 -6.2922,-0.5765 -4.3835,-0.06 -4.0647,-0.7301 -5.6085,-0.062 -5.667,-0.8619 -7.4409,0 -2.5205,-0.2979 -5.1783,0.075 -3.6326,0.041 -7.7998,0.041 -2.8869,-0.6371 -5.8674,0.041 -5.368,0.1945 -4.9416,0.2696 -4.2093,-0.4416 -4.8421,0.6641 -3.7034,0.044 -6.0311,1.6453 -5.2447,-0.058 -5.8725,-0.083 -4.3851,0.2219 -5.3107,-0.6787 -2.4493,-0.056 -7.8745,0.6583 -4.3813,-0.2487 -5.3277,-0.1185 -4.3245,-0.075 -5.603,1.1525 -3.9245,0.1965 -5.2214,0.1273 -5.7537,0.555 -4.8134,0.3048 -4.9337,0.1747 -5.151,-0.4061 -4.196,-0.296 -5.6405,0.7601 -1.3839,-1.1704 -7.742,-0.1036 -6.2634,0.014 -5.0586,1.0758 -4.5356,-0.082 -4.5549,-0.3209 -5.1355,0.1248 -4.69,1.0946 -5.0086,0.1979 -5.1515,-0.029 -3.3756,0.244 -6.0713,-0.087 -5.8368,-0.079 -3.5956,-0.019 -6.3936,-0.046 -2.8564,-0.8666 -6.726,0.01 -5.5938,-0.2485 -4.5705,0.136 -1.3378,-0.3585 -8.5066,-0.2147 -4.9523,0.7322 -5.0397,-0.084 -4.8389,-1.1279 -6.9904,0.253 -0.4124,-0.4619 -7.8063,-0.5131 -5.0676,0.1064 -6.964,-1.0354 -2.6373,1.1455 -3.7051,-0.1047 -6.5264,-0.3718 -5.9037,0.3872 -5.6263,-0.7536 -2.6405,-0.054 -5.5553,-0.07 -3.2749,-0.096 -6.2265,-0.3912 -6.2881,-0.2171 -4.5368,0.082 -4.734,0.087 -2.0506,0.3469 -8.5026,-0.8733 -7.6971,0.1452 -3.1841,-0.1785 -3.2791,-0.037 -4.5584,1.1837 -5.3201,-0.7191 -5.973,0.2286 -3.2832,0.1305 -4.0861,0.959 -6.6046,-0.5206 -3.7114,1.0424 -4.4282,0.1558 -7.0926,1.0003 -4.2811,0.08 -3.6751,-0.304 -7.1034,-0.097 -4.8935,0.3047 -5.7514,-0.4877 -3.9016,1.0957 -5.5106,-0.8318 -6.0521,0.067 -6.8285,-0.8391 -2.0359,-0.2792 -3.9213,-0.4492 -6.4284,0.4296 -4.3126,0.1937 -6.7564,-0.9519 -1.0511,0.058 -9.7849,0.2902 -3.3562,0.1748 -3.3644,0.5595 -5.9578,-1.2095 -4.7583,0.8354 -5.7719,-0.2998 -3.4282,-0.1183 -7.5633,-0.9902 -4.5284,0.2811 -4.7894,-0.6966 -0.8872,-0.106 -8.1356,-0.3229 -4.155,-0.7325 -4.9374,-0.5804 -5.4127,-0.6253 -8.0887,-1.7896 -2.0738,-0.1279 -7.0048,0.01 -1.9467,-0.6669 -0.6545,-4.6672 -1.2341,-5.0994 1.7528,-4.9013 -0.3232,-5.6434 0.513,-3.7878 -0.013,-5.3835 0.8196,-5.7796 -1.4564,-4.5107 0.5561,-3.6355 0.5041,-5.2527 -0.5598,-3.7722 0.2895,-6.8244 -0.9756,-4.4619 0.8851,-4.8076 0.9326,-4.342 -0.5285,-5.3975 0.1763,-4.9397 -0.064,-6.6161 0.4211,-1.8853 -0.2411,-6.4015 -2.5187,-5.4121 2.5751,-4.3401 0.4342,-4.6589 -0.2587,-6.131 -0.766,-4.671 1.3458,-5.0114 -0.07,-4.9299 0.037,-5.997 -0.6127,-5.1776 -0.5098,-4.792 -0.036,-3.208 1.1699,-2.9775 -0.1699,-7.6219 -0.097,-4.2665 0.1383,-4.4743 -1.9249,-6.1211 -0.03,-4.6261 0.2789,-4.9656 2.2599,-5.941 1.61,-4.1187 0.2459,-5.203 -0.3983,-5.4948 -1.2639,-3.7751 -0.9765,-3.0595 0.1014,-6.6884 0.7059,-7.1198 -0.2692,-3.4103 -3.4141,-4.7077 1.0906,-4.8784 -0.9932,-4.953 0.11,-5.1635 z"
         id="path2208-9-6-1-5-8-1"
         sodipodi:nodetypes="ccccc"
         inkscape:original-d="m -3173.5027,7024.3788 h 1275.8316 l -4.4357,258.3178 -1271.3959,-1.619 z"
         inkscape:path-effect="#path-effect2210-8-7-1-3-7-7" /><path
         style="fill:none;fill-opacity:1;stroke:#000000;stroke-width:7.95291;stroke-linejoin:round;stroke-dasharray:none;stroke-opacity:1"
         d="m -3191.6748,7002.2061 39.5016,-5.2301 40.3001,0.035 39.6669,-1.9085 39.3874,-0.1693 39.9117,3.6235 39.7679,-0.1795 39.9588,0.1718 39.6098,-1.9888 39.9921,0.5517 39.4466,-0.065 40.0391,-2.7462 39.874,-1.7547 39.7914,3.3932 39.6782,3.1196 39.9893,-0.9673 40.009,0.5224 39.354,1.1375 39.7455,0.6543 39.8846,-1.0257 39.7718,-2.0761 39.7291,-1.9483 39.7742,2.7732 39.8662,-0.3171 39.3143,2.5933 40.0237,-0.4699 40.1336,-0.5963 39.4085,-0.6587 39.6747,3.7922 39.6759,-1.0238 39.8895,4.6856 40.6295,-3.1371 39.7168,-3.6747 39.3064,-1.4994 -0.1445,40.1614 0.041,39.5599 -0.5322,41.4622 -0.308,40.027 -0.2249,36.7795 0.246,40.6701 -0.2919,39.7854 -0.1404,39.389 -0.016,40.0123 -0.1398,38.8165 -0.2275,43.6788 0.056,37.0807 -0.4248,37.8016 -0.2574,40.9256 0.1882,39.9257 -0.7698,40.2853 -0.3388,38.6053 -0.1914,40.0693 0.01,37.0117 -0.3457,43.2743 -0.4679,39.2428 -0.5709,40.1704 0.1146,40.0509 0.1823,39.7293 -39.7475,-2.7615 -39.4741,-0.111 -39.6957,-0.5242 -39.6441,-0.4231 -40.1832,1.8183 -39.0217,0.018 -40.3576,-0.149 -39.0117,-2.3286 -39.7076,0.2175 -39.6002,0.042 -39.9657,-0.8257 -39.3664,-1.1694 -39.2572,-2.2188 -39.8546,1.3732 -39.8686,1.4462 -39.4902,-0.7074 -39.399,-3.5358 -40.2575,-3.264 -39.1539,0.6544 -40.2163,1.2008 -39.2603,-1.9311 -39.9201,0.01 -39.9722,0.2066 -39.7441,-2.6276 -39.1534,0.7011 -39.4977,2.0022 -39.8435,0.5677 -39.5527,1.1933 -39.6455,0.8731 -39.5698,4.2113 -39.5405,-0.015 -39.7604,0.052 -39.1365,3.2699 -0.4443,-39.4765 -0.034,-40.6628 0.1662,-36.298 -0.3187,-43.7277 -0.2115,-39.436 -0.067,-34.9003 0.079,-40.4573 0.1954,-39.6036 -0.084,-39.779 -0.1017,-42.3235 -0,-36.0591 0.085,-43.1252 -0.016,-36.6955 -0.1071,-43.0275 0,-39.0272 0.2216,-41.1281 0.2132,-38.4109 0.015,-41.0989 3e-4,-37.1359 0.01,-42.4323 0.1498,-37.7503 0.1262,-39.8819 -0.101,-39.0076 z"
         id="path2208-7-2-2-5-3-0-7"
         sodipodi:nodetypes="ccccc"
         inkscape:original-d="m -3191.6758,6997.8495 h 1312.8306 l -4.5644,954.5249 -1308.2662,-5.9826 z"
         inkscape:path-effect="#path-effect2210-3-2-5-7-1-7-71" /><g
         id="g9598"
         transform="translate(141.76251,-942.44541)"><g
           id="g8834"
           transform="translate(220.20111,191.62338)"><g
             id="g8518"
             transform="translate(-140)" /><g
             id="g9685"
             transform="translate(0,100)"><path
               style="fill:none;fill-opacity:1;stroke:#000000;stroke-width:12;stroke-linejoin:round;stroke-dasharray:none;stroke-opacity:1"
               d="m -3227.7895,8233.2951 38.7891,-1.0528 39.8852,0.04 39.2518,-1.9035 38.9735,-0.1514 39.4968,3.6434 39.3517,-0.1871 39.5437,0.1655 39.1948,-1.9968 39.5773,0.5633 39.0312,-0.058 39.6241,-2.739 39.4624,-1.7102 39.3812,3.4662 39.2553,3.1402 39.5753,-1.0036 39.5927,0.5055 38.9396,1.1077 39.3328,0.5905 39.4716,-1.1152 39.3532,-2.1315 39.3131,-1.9094 39.3669,2.931 39.4431,-0.3539 38.899,2.5856 39.6246,-0.8402 39.7082,-0.9248 38.9855,-0.8659 39.2596,3.957 -0.8561,36.3605 -0.669,42.1335 -0.06,30.522 0.022,35.6807 -0.3416,37.535 -0.2777,36.867 -0.1008,36.2392 -0.7413,38.1418 -0.3704,36.7054 -0.1776,33.4597 -38.8009,-0.028 -39.747,-0.019 -39.0829,-0.4031 -39.0991,-0.1502 -39.3413,-1.1031 -39.3072,2.8491 -38.9696,0.028 -39.6741,-1.9526 -39.0635,-0.7061 -38.7929,-0.5178 -40.1431,0.021 -38.8641,-1.143 -39.1018,-0.7724 -39.0396,-3.4748 -39.5861,0.2881 -39.3963,-0.2346 -39.4354,0.2169 -38.7848,0.5155 -39.1869,0.4782 -39.3256,-2.0621 -39.1386,0.8299 -39.2612,0.4197 -39.2255,0.5767 -39.7583,2.8738 -38.5229,0.6597 -39.9315,0.457 -38.5902,-1.7288 -39.2874,2.9234 0,-36.5286 -0.3196,-37.5049 -5e-4,-37.0201 0.3971,-37.7446 0.1478,-33.1621 -0.1198,-36.5022 0.048,-38.7179 0.2768,-39.5107 -0.4459,-36.5954 z"
               id="path2208-7-2-2-5-3-0-7-3"
               sodipodi:nodetypes="ccccc"
               inkscape:original-d="m -3228.088,8233.1158 h 1102.296 l -3.8324,368.4502 -1098.4636,-2.3094 z"
               inkscape:path-effect="#path-effect2210-3-2-5-7-1-7-71-4"
               transform="translate(-220.20111,-191.62338)" /><text
               xml:space="preserve"
               id="text8288"
               style="font-style:normal;font-variant:normal;font-weight:normal;font-stretch:normal;font-size:53.3333px;font-family:'Canted Comic';-inkscape-font-specification:'Canted Comic, Normal';font-variant-ligatures:normal;font-variant-caps:normal;font-variant-numeric:normal;font-variant-east-asian:normal;white-space:pre;shape-inside:url(#rect8290);display:inline;fill:#000000;fill-opacity:1;stroke:none;stroke-width:10;stroke-linecap:round;stroke-linejoin:round;stroke-dasharray:none;stroke-dashoffset:0;stroke-opacity:1"
               transform="translate(-126.21754,88.110944)"><tspan
                 x="-3290.6133"
                 y="8076.0665"
                 id="tspan60604">Station</tspan></text><g
               id="g8756"
               transform="translate(6.9376415,-4.4389264)"><text
                 xml:space="preserve"
                 id="text8288-2-6"
                 style="font-style:normal;font-variant:normal;font-weight:normal;font-stretch:normal;font-size:53.3333px;font-family:'Canted Comic';-inkscape-font-specification:'Canted Comic, Normal';font-variant-ligatures:normal;font-variant-caps:normal;font-variant-numeric:normal;font-variant-east-asian:normal;white-space:pre;shape-inside:url(#rect8290-2-9);display:inline;fill:#000000;fill-opacity:1;stroke:none;stroke-width:10;stroke-linecap:round;stroke-linejoin:round;stroke-dasharray:none;stroke-dashoffset:0;stroke-opacity:1"
                 transform="translate(301.89277,243.28802)"><tspan
                   x="-3290.6133"
                   y="8076.0665"
                   id="tspan60606">2</tspan></text><text
                 xml:space="preserve"
                 id="text8288-2-6-6"
                 style="font-style:normal;font-variant:normal;font-weight:normal;font-stretch:normal;font-size:53.3333px;font-family:'Canted Comic';-inkscape-font-specification:'Canted Comic, Normal';font-variant-ligatures:normal;font-variant-caps:normal;font-variant-numeric:normal;font-variant-east-asian:normal;white-space:pre;shape-inside:url(#rect8290-2-9-3);display:inline;fill:#000000;fill-opacity:1;stroke:none;stroke-width:10;stroke-linecap:round;stroke-linejoin:round;stroke-dasharray:none;stroke-dashoffset:0;stroke-opacity:1"
                 transform="translate(301.1461,306.66133)"><tspan
                   x="-3290.6133"
                   y="8076.0665"
                   id="tspan60608">3</tspan></text><text
                 xml:space="preserve"
                 id="text8288-2-6-6-9"
                 style="font-style:normal;font-variant:normal;font-weight:normal;font-stretch:normal;font-size:53.3333px;font-family:'Canted Comic';-inkscape-font-specification:'Canted Comic, Normal';font-variant-ligatures:normal;font-variant-caps:normal;font-variant-numeric:normal;font-variant-east-asian:normal;white-space:pre;shape-inside:url(#rect8290-2-9-3-2);display:inline;fill:#000000;fill-opacity:1;stroke:none;stroke-width:10;stroke-linecap:round;stroke-linejoin:round;stroke-dasharray:none;stroke-dashoffset:0;stroke-opacity:1"
                 transform="translate(301.33277,180.12804)"
                 inkscape:transform-center-x="-11.307474"
                 inkscape:transform-center-y="-6.1088512"><tspan
                   x="-3290.6133"
                   y="8076.0665"
                   id="tspan60610">5</tspan></text></g><g
               id="g8748"
               transform="translate(15.223964,2.2800011)"><text
                 xml:space="preserve"
                 id="text8288-2-6-5"
                 style="font-style:normal;font-variant:normal;font-weight:normal;font-stretch:normal;font-size:53.3333px;font-family:'Canted Comic';-inkscape-font-specification:'Canted Comic, Normal';font-variant-ligatures:normal;font-variant-caps:normal;font-variant-numeric:normal;font-variant-east-asian:normal;white-space:pre;shape-inside:url(#rect8290-2-9-2);display:inline;fill:#000000;fill-opacity:1;stroke:none;stroke-width:10;stroke-linecap:round;stroke-linejoin:round;stroke-dasharray:none;stroke-dashoffset:0;stroke-opacity:1"
                 transform="translate(682.55476,236.2091)"><tspan
                   x="-3290.6133"
                   y="8076.0665"
                   id="tspan60612">2</tspan></text><text
                 xml:space="preserve"
                 id="text8288-2-6-9"
                 style="font-style:normal;font-variant:normal;font-weight:normal;font-stretch:normal;font-size:53.3333px;font-family:'Canted Comic';-inkscape-font-specification:'Canted Comic, Normal';font-variant-ligatures:normal;font-variant-caps:normal;font-variant-numeric:normal;font-variant-east-asian:normal;white-space:pre;shape-inside:url(#rect8290-2-9-9);display:inline;fill:#000000;fill-opacity:1;stroke:none;stroke-width:10;stroke-linecap:round;stroke-linejoin:round;stroke-dasharray:none;stroke-dashoffset:0;stroke-opacity:1"
                 transform="translate(681.99476,173.04912)"><tspan
                   x="-3290.6133"
                   y="8076.0665"
                   id="tspan60614">5</tspan></text><text
                 xml:space="preserve"
                 id="text8288-2-6-50"
                 style="font-style:normal;font-variant:normal;font-weight:normal;font-stretch:normal;font-size:53.3333px;font-family:'Canted Comic';-inkscape-font-specification:'Canted Comic, Normal';font-variant-ligatures:normal;font-variant-caps:normal;font-variant-numeric:normal;font-variant-east-asian:normal;white-space:pre;shape-inside:url(#rect8290-2-9-0);display:inline;fill:#000000;fill-opacity:1;stroke:none;stroke-width:10;stroke-linecap:round;stroke-linejoin:round;stroke-dasharray:none;stroke-dashoffset:0;stroke-opacity:1"
                 transform="translate(681.80809,299.58241)"><tspan
                   x="-3290.6133"
                   y="8076.0665"
                   id="tspan60616">3</tspan></text></g><g
               id="g8764"
               transform="translate(0,-6.1189243)"><text
                 xml:space="preserve"
                 id="text8288-2"
                 style="font-style:normal;font-variant:normal;font-weight:normal;font-stretch:normal;font-size:53.3333px;font-family:'Canted Comic';-inkscape-font-specification:'Canted Comic, Normal';font-variant-ligatures:normal;font-variant-caps:normal;font-variant-numeric:normal;font-variant-east-asian:normal;white-space:pre;shape-inside:url(#rect8290-2);display:inline;fill:#000000;fill-opacity:1;stroke:none;stroke-width:10;stroke-linecap:round;stroke-linejoin:round;stroke-dasharray:none;stroke-dashoffset:0;stroke-opacity:1"
                 transform="translate(66.003742,180.71471)"><tspan
                   x="-3290.6133"
                   y="8076.0665"
                   id="tspan60618">a</tspan></text><text
                 xml:space="preserve"
                 id="text8288-5"
                 style="font-style:normal;font-variant:normal;font-weight:normal;font-stretch:normal;font-size:53.3333px;font-family:'Canted Comic';-inkscape-font-specification:'Canted Comic, Normal';font-variant-ligatures:normal;font-variant-caps:normal;font-variant-numeric:normal;font-variant-east-asian:normal;white-space:pre;shape-inside:url(#rect8290-20);display:inline;fill:#000000;fill-opacity:1;stroke:none;stroke-width:10;stroke-linecap:round;stroke-linejoin:round;stroke-dasharray:none;stroke-dashoffset:0;stroke-opacity:1"
                 transform="translate(64.11041,244.38135)"><tspan
                   x="-3290.6133"
                   y="8076.0665"
                   id="tspan60620">b</tspan></text><text
                 xml:space="preserve"
                 id="text8288-29"
                 style="font-style:normal;font-variant:normal;font-weight:normal;font-stretch:normal;font-size:53.3333px;font-family:'Canted Comic';-inkscape-font-specification:'Canted Comic, Normal';font-variant-ligatures:normal;font-variant-caps:normal;font-variant-numeric:normal;font-variant-east-asian:normal;white-space:pre;shape-inside:url(#rect8290-5);display:inline;fill:#000000;fill-opacity:1;stroke:none;stroke-width:10;stroke-linecap:round;stroke-linejoin:round;stroke-dasharray:none;stroke-dashoffset:0;stroke-opacity:1"
                 transform="translate(62.883744,309.888)"><tspan
                   x="-3290.6133"
                   y="8076.0665"
                   id="tspan60622">c</tspan></text></g><g
               id="g8512"
               transform="translate(-400)"><text
                 xml:space="preserve"
                 id="text8288-28-4"
                 style="font-style:normal;font-variant:normal;font-weight:normal;font-stretch:normal;font-size:53.3333px;font-family:'Canted Comic';-inkscape-font-specification:'Canted Comic, Normal';font-variant-ligatures:normal;font-variant-caps:normal;font-variant-numeric:normal;font-variant-east-asian:normal;white-space:pre;shape-inside:url(#rect8290-0-0);display:inline;fill:#000000;fill-opacity:1;stroke:none;stroke-width:10;stroke-linecap:round;stroke-linejoin:round;stroke-dasharray:none;stroke-dashoffset:0;stroke-opacity:1"
                 transform="translate(912.81872,28.919235)"><tspan
                   x="-3290.6133"
                   y="8076.0665"
                   id="tspan60624">permits owed</tspan></text><text
                 xml:space="preserve"
                 id="text8288-28-1"
                 style="font-style:normal;font-variant:normal;font-weight:normal;font-stretch:normal;font-size:53.3333px;font-family:'Canted Comic';-inkscape-font-specification:'Canted Comic, Normal';font-variant-ligatures:normal;font-variant-caps:normal;font-variant-numeric:normal;font-variant-east-asian:normal;white-space:pre;shape-inside:url(#rect8290-0-09);display:inline;fill:#000000;fill-opacity:1;stroke:none;stroke-width:10;stroke-linecap:round;stroke-linejoin:round;stroke-dasharray:none;stroke-dashoffset:0;stroke-opacity:1"
                 transform="translate(918.2588,88.590944)"><tspan
                   x="-3290.6133"
                   y="8076.0665"
                   id="tspan60626">back to gov't</tspan></text></g><text
               xml:space="preserve"
               id="text8288-28"
               style="font-style:normal;font-variant:normal;font-weight:normal;font-stretch:normal;font-size:53.3333px;font-family:'Canted Comic';-inkscape-font-specification:'Canted Comic, Normal';font-variant-ligatures:normal;font-variant-caps:normal;font-variant-numeric:normal;font-variant-east-asian:normal;white-space:pre;shape-inside:url(#rect8290-0);display:inline;fill:#000000;fill-opacity:1;stroke:none;stroke-width:10;stroke-linecap:round;stroke-linejoin:round;stroke-dasharray:none;stroke-dashoffset:0;stroke-opacity:1"
               transform="translate(214.67044,32.07629)"><tspan
                 x="-3290.6133"
                 y="8076.0665"
                 id="tspan60628">tons of</tspan></text><text
               xml:space="preserve"
               id="text8288-28-17"
               style="font-style:normal;font-variant:normal;font-weight:normal;font-stretch:normal;font-size:53.3333px;font-family:'Canted Comic';-inkscape-font-specification:'Canted Comic, Normal';font-variant-ligatures:normal;font-variant-caps:normal;font-variant-numeric:normal;font-variant-east-asian:normal;white-space:pre;shape-inside:url(#rect8290-0-5);display:inline;fill:#000000;fill-opacity:1;stroke:none;stroke-width:10;stroke-linecap:round;stroke-linejoin:round;stroke-dasharray:none;stroke-dashoffset:0;stroke-opacity:1"
               transform="translate(-105.28429,31.19629)"><tspan
                 x="-3290.6133"
                 y="8076.0665"
                 id="tspan60630">power</tspan></text><text
               xml:space="preserve"
               id="text8288-28-8"
               style="font-style:normal;font-variant:normal;font-weight:normal;font-stretch:normal;font-size:53.3333px;font-family:'Canted Comic';-inkscape-font-specification:'Canted Comic, Normal';font-variant-ligatures:normal;font-variant-caps:normal;font-variant-numeric:normal;font-variant-east-asian:normal;white-space:pre;shape-inside:url(#rect8290-0-3);display:inline;fill:#000000;fill-opacity:1;stroke:none;stroke-width:10;stroke-linecap:round;stroke-linejoin:round;stroke-dasharray:none;stroke-dashoffset:0;stroke-opacity:1"
               transform="translate(182.72377,88.59094)"><tspan
                 x="-3290.6133"
                 y="8076.0665"
                 id="tspan60632">emissions</tspan></text><path
               style="fill:none;fill-opacity:1;stroke:#000000;stroke-width:5;stroke-linecap:round;stroke-linejoin:round;stroke-dasharray:none;stroke-dashoffset:0;stroke-opacity:1"
               d="m -3102.6162,8186.3104 7.9882,-0.2721 7.9884,0.1152 7.9882,-0.2119 7.9884,-0.143 7.9884,-0.01 7.9883,0.093 7.9881,-0.2915 7.9887,0.1256 7.988,0.01 7.9883,0.094 7.9881,0.014 7.9882,0.01 7.9882,-0.5809 7.9897,-0.3359 7.9896,0.032 7.9881,0.034 7.9881,0.034 7.9882,0.05 7.988,0.063 7.9881,-0.6614 7.9917,0.061 7.988,0.053 7.988,0.2324 7.9869,-0.05 7.9886,-0.018 7.9884,-0.1179 7.9891,-0.1199 7.9891,-0.3226 7.9909,-0.032 7.9886,0.015 7.9883,-0.4577 7.9929,0.2164 7.9862,0.1491 7.987,0.2135 7.9864,0.092 7.9876,-0.2831 7.991,0.1324 7.9872,-0.6705 7.996,0.1058 7.9872,0.064 7.9878,-0.1153 7.9901,0.236 7.9855,-0.06 7.9893,0.015 7.9884,-0.5524 7.997,-0.1911 7.9921,-0.4264 7.9973,-0.2918 7.9956,-0.637 8.0055,-0.2264 7.9963,0.1383 7.9859,0.2811 7.9818,0.1756 7.9849,-0.7661 8.0137,0.1073 7.9869,0.2791 7.9811,0.1048 7.987,0.2575 7.982,0.1359 7.9859,0.2317 7.9829,0.107 7.9869,-0.1082 7.9938,0.2496 7.9822,0.1966 7.984,0.2513 7.9823,0.3065 7.9809,0.2934 7.9817,-0.3669 8.0007,0.1817 7.9845,-0.1165 7.9942,0.2268 7.9829,0.3541 7.979,-0.1802 7.9961,0.074 7.9881,0.1795 7.9844,0.079 7.9879,-0.5292 8.0136,0.2312 7.9818,0.3015 7.9786,-0.024 7.9936,0.041 7.9912,0.456 7.9706,0.077 7.9889,0.1077 7.9877,0.2407 7.9809,0.2495 7.9805,0.2747 7.9794,-0.2171 8.0012,0.2028 7.961,0.9294"
               id="path8526"
               inkscape:path-effect="#path-effect8798"
               inkscape:original-d="m -3102.6162,8186.3104 h 718.942" /></g></g></g></g></g></svg>
