<?xml version="1.0" encoding="UTF-8" standalone="no"?>
<!-- Created with Inkscape (http://www.inkscape.org/) -->

<svg
   version="1.1"
   id="svg176"
   width="1017.5316"
   height="972.44482"
   viewBox="0 0 1017.5316 972.44482"
   sodipodi:docname="comic.svg"
   xml:space="preserve"
   inkscape:version="1.2.2 (b0a8486541, 2022-12-01)"
   xmlns:inkscape="http://www.inkscape.org/namespaces/inkscape"
   xmlns:sodipodi="http://sodipodi.sourceforge.net/DTD/sodipodi-0.dtd"
   xmlns="http://www.w3.org/2000/svg"
   xmlns:svg="http://www.w3.org/2000/svg"><defs
     id="defs180"><rect
       x="-1889.6726"
       y="613.1416"
       width="835.55267"
       height="222.97176"
       id="rect8937-1-4-9-36" /><rect
       x="-1955.4146"
       y="630.24219"
       width="973.41119"
       height="260.24789"
       id="rect3105-9-4-0-7" /><inkscape:path-effect
       effect="roughen"
       id="path-effect2210-3-0-4-26-5"
       is_visible="true"
       lpeversion="1.2"
       method="size"
       max_segment_size="40"
       segments="114"
       displace_x="1;589550557"
       displace_y="7;1910419474"
       global_randomize="1;1292492417"
       handles="along"
       shift_nodes="true"
       fixed_displacement="false"
       spray_tool_friendly="false" /><rect
       x="-1955.4146"
       y="630.24219"
       width="1012.9137"
       height="264.47324"
       id="rect3105-9-4-0-7-2" /></defs><sodipodi:namedview
     id="namedview178"
     pagecolor="#ffffff"
     bordercolor="#000000"
     borderopacity="0.25"
     inkscape:showpageshadow="2"
     inkscape:pageopacity="0.0"
     inkscape:pagecheckerboard="0"
     inkscape:deskcolor="#d1d1d1"
     showgrid="false"
     showguides="false"
     inkscape:zoom="0.13137786"
     inkscape:cx="9853.2583"
     inkscape:cy="2641.2365"
     inkscape:window-width="1920"
     inkscape:window-height="1011"
     inkscape:window-x="0"
     inkscape:window-y="0"
     inkscape:window-maximized="1"
     inkscape:current-layer="g182"><inkscape:grid
       type="xygrid"
       id="grid2722" /></sodipodi:namedview><g
     inkscape:groupmode="layer"
     inkscape:label="Image"
     id="g182"
     transform="translate(-10305.01,-7822.0091)"><g
       id="vgn23"><text
         xml:space="preserve"
         id="text8935-1-3-6-3"
         style="font-style:normal;font-variant:normal;font-weight:normal;font-stretch:normal;font-size:96px;font-family:'Canted Comic';-inkscape-font-specification:'Canted Comic, Normal';font-variant-ligatures:normal;font-variant-caps:normal;font-variant-numeric:normal;font-variant-east-asian:normal;white-space:pre;shape-inside:url(#rect8937-1-4-9-36);display:inline;fill:#000000;fill-opacity:1;stroke:none;stroke-width:10;stroke-linejoin:round;stroke-dasharray:none;stroke-opacity:1"
         transform="translate(12407.719,7281.0577)"><tspan
           x="-1889.6719"
           y="707.42634"
           id="tspan79007">in summary</tspan></text><text
         xml:space="preserve"
         id="text3103-7-4-9-5"
         style="font-style:normal;font-variant:normal;font-weight:normal;font-stretch:normal;font-size:64px;font-family:'Canted Comic';-inkscape-font-specification:'Canted Comic, Normal';font-variant-ligatures:normal;font-variant-caps:normal;font-variant-numeric:normal;font-variant-east-asian:normal;white-space:pre;shape-inside:url(#rect3105-9-4-0-7);display:inline;fill:#000000;fill-opacity:1;stroke:#000000;stroke-width:0;stroke-linejoin:round;stroke-dasharray:none"
         transform="translate(12286.744,7847.4768)"><tspan
           x="-1955.4141"
           y="693.09933"
           id="tspan79009">permits cost money, so the </tspan><tspan
           x="-1955.4141"
           y="773.09933"
           id="tspan79011">price of a permit is how </tspan><tspan
           x="-1955.4141"
           y="853.09933"
           id="tspan79013">much they pay to pollute.</tspan></text><text
         xml:space="preserve"
         id="text3103-7-4-9-5-9"
         style="font-style:normal;font-variant:normal;font-weight:normal;font-stretch:normal;font-size:64px;font-family:'Canted Comic';-inkscape-font-specification:'Canted Comic, Normal';font-variant-ligatures:normal;font-variant-caps:normal;font-variant-numeric:normal;font-variant-east-asian:normal;white-space:pre;shape-inside:url(#rect3105-9-4-0-7-2);display:inline;fill:#000000;fill-opacity:1;stroke:#000000;stroke-width:0;stroke-linejoin:round;stroke-dasharray:none"
         transform="translate(12284.687,7437.7233)"><tspan
           x="-1955.4141"
           y="693.09933"
           id="tspan79015">in carbon markets, </tspan><tspan
           x="-1955.4141"
           y="773.09933"
           id="tspan79017">polluters need a permit to </tspan><tspan
           x="-1955.4141"
           y="853.09933"
           id="tspan79019">emit one ton of emissions.</tspan></text><path
         style="fill:none;fill-opacity:1;stroke:#000000;stroke-width:6.99664;stroke-linejoin:round;stroke-dasharray:none;stroke-opacity:1"
         d="m 10309.789,7834.1592 38.563,-4.3689 39.328,0.042 38.694,-1.901 38.416,-0.1421 38.94,3.6538 38.793,-0.1914 38.986,0.1619 38.637,-2.0014 39.02,0.5697 38.473,-0.055 39.067,-2.735 38.907,-1.6844 38.826,3.509 38.693,3.1507 39.018,-1.029 39.035,0.4928 38.382,1.0863 38.777,0.5448 38.915,-1.1803 38.793,-2.1692 38.755,-1.8652 38.817,3.0891 38.878,-0.4098 38.341,2.5686 39.079,-1.5075 39.121,-1.4585 -0.358,38.0134 -0.453,42.8375 -0.616,34.4366 -0.475,44.1445 0.08,32.5312 0.208,37.6879 -0.119,39.5416 -0.06,38.8751 0.121,38.2472 -0.455,40.1488 -0.227,38.7152 -0.143,35.4671 0.336,39.3576 -0.215,38.4715 -0.06,38.0765 0.06,38.6995 -0.07,37.5034 -0.161,42.3659 0.117,35.768 -0.382,36.4885 -0.19,39.6132 0.257,38.6131 -0.792,38.972 -0.172,37.2938 0.1,38.7573 -38.485,-3.8369 -38.973,-0.191 -38.845,-0.7145 -38.874,-0.2877 -38.232,8e-4 -38.641,-0.042 -38.778,-2.5851 -38.531,0.1201 -38.725,-0.2919 -38.679,-0.1803 -39.216,2.0706 -38.029,0.209 -39.386,0.04 -38.042,-2.1429 -38.764,0.5008 -38.624,0.3116 -38.993,-0.5626 -38.405,-0.8593 -38.302,-1.8189 -38.928,1.986 -38.855,1.9108 -38.491,-0.4451 -38.435,-3.1406 -39.379,-1.8943 -38.272,3.5367 -38.952,3.8936 0.08,-42.1643 -0.136,-38.0915 -0.449,-39.6777 -0.525,-42.7026 0.119,-36.8685 0.254,-38.5847 -0.03,-41.137 0.05,-39.2691 0.01,-40.1235 0.06,-36.5306 0.07,-43.0106 -0.05,-39.7851 0.466,-36.6159 -0.392,-42.8552 0.04,-40.8356 0.24,-36.4701 -0.251,-43.8992 -0.123,-39.6088 0.05,-35.0729 0.219,-40.6292 0.321,-39.7749 -0.01,-39.9502 0.02,-42.4954 z"
         id="path2208-7-2-8-0-6"
         inkscape:path-effect="#path-effect2210-3-0-4-26-5"
         inkscape:original-d="m 10309.822,7830.6638 h 1009.062 l -3.508,961.1696 -1005.555,-6.0242 z"
         sodipodi:nodetypes="ccccc" /></g></g></svg>
