<?xml version="1.0" encoding="UTF-8" standalone="no"?>
<!-- Created with Inkscape (http://www.inkscape.org/) -->

<svg
   version="1.1"
   id="svg176"
   width="1329.1696"
   height="974.09912"
   viewBox="0 0 1329.1696 974.09912"
   sodipodi:docname="comic.svg"
   xml:space="preserve"
   inkscape:version="1.2.2 (b0a8486541, 2022-12-01)"
   xmlns:inkscape="http://www.inkscape.org/namespaces/inkscape"
   xmlns:sodipodi="http://sodipodi.sourceforge.net/DTD/sodipodi-0.dtd"
   xmlns="http://www.w3.org/2000/svg"
   xmlns:svg="http://www.w3.org/2000/svg"><defs
     id="defs180"><rect
       x="-5995.3394"
       y="2384.0144"
       width="1232.6997"
       height="234.356"
       id="rect8929-5-9-5-9-9" /><inkscape:path-effect
       effect="roughen"
       id="path-effect2210-3-3-4-7-7-4-6"
       is_visible="true"
       lpeversion="1.2"
       method="size"
       max_segment_size="40"
       segments="114"
       displace_x="1;589550557"
       displace_y="7;1910419474"
       global_randomize="1;1292492417"
       handles="along"
       shift_nodes="true"
       fixed_displacement="false"
       spray_tool_friendly="false" /><rect
       x="-5995.3394"
       y="2384.0144"
       width="1356.6051"
       height="207.43884"
       id="rect8929-5-9-5-9-9-3" /><rect
       x="-5995.3394"
       y="2384.0144"
       width="1641.6191"
       height="242.46358"
       id="rect8929-5-9-5-9-9-37-7-7" /><rect
       x="-5995.3394"
       y="2384.0144"
       width="1511.8701"
       height="132.39517"
       id="rect8929-5-9-5-9-9-37-7-7-1" /></defs><sodipodi:namedview
     id="namedview178"
     pagecolor="#ffffff"
     bordercolor="#000000"
     borderopacity="0.25"
     inkscape:showpageshadow="2"
     inkscape:pageopacity="0.0"
     inkscape:pagecheckerboard="0"
     inkscape:deskcolor="#d1d1d1"
     showgrid="false"
     showguides="false"
     inkscape:zoom="0.13137786"
     inkscape:cx="9853.2583"
     inkscape:cy="2641.2365"
     inkscape:window-width="1920"
     inkscape:window-height="1011"
     inkscape:window-x="0"
     inkscape:window-y="0"
     inkscape:window-maximized="1"
     inkscape:current-layer="g182"><inkscape:grid
       type="xygrid"
       id="grid2722" /></sodipodi:namedview><g
     inkscape:groupmode="layer"
     inkscape:label="Image"
     id="g182"
     transform="translate(-7212.914,-9865.8714)"><g
       id="vgn27"
       transform="translate(-1390.229,-2.363075)"><text
         xml:space="preserve"
         transform="translate(14724.06,7838.2615)"
         id="text8927-5-7-2-9-0"
         style="font-style:normal;font-variant:normal;font-weight:normal;font-stretch:normal;font-size:64px;font-family:'Canted Comic';-inkscape-font-specification:'Canted Comic, Normal';font-variant-ligatures:normal;font-variant-caps:normal;font-variant-numeric:normal;font-variant-east-asian:normal;white-space:pre;shape-inside:url(#rect8929-5-9-5-9-9);display:inline;fill:#000000;fill-opacity:1;stroke:none;stroke-width:10;stroke-linejoin:round;stroke-dasharray:none;stroke-opacity:1"><tspan
           x="-5995.3398"
           y="2446.8708"
           id="tspan93926">and why are prices low? <tspan
   style="font-weight:bold;-inkscape-font-specification:'Canted Comic, Bold'"
   id="tspan93924">easy!</tspan></tspan></text><text
         xml:space="preserve"
         transform="translate(14823.004,8071.0424)"
         id="text8927-5-7-2-9-0-93-8-4"
         style="font-style:normal;font-variant:normal;font-weight:normal;font-stretch:normal;font-size:96px;font-family:'Canted Comic';-inkscape-font-specification:'Canted Comic, Normal';font-variant-ligatures:normal;font-variant-caps:normal;font-variant-numeric:normal;font-variant-east-asian:normal;white-space:pre;shape-inside:url(#rect8929-5-9-5-9-9-37-7-7);display:inline;fill:#000000;fill-opacity:1;stroke:none;stroke-width:10;stroke-linejoin:round;stroke-dasharray:none;stroke-opacity:1"><tspan
           x="-5995.3398"
           y="2478.2994"
           id="tspan93930"><tspan
             style="font-size:85.3333px"
             id="tspan93928">because there are</tspan></tspan></text><text
         xml:space="preserve"
         transform="translate(14883.676,8181.1108)"
         id="text8927-5-7-2-9-0-93-8-4-9"
         style="font-style:normal;font-variant:normal;font-weight:normal;font-stretch:normal;font-size:96px;font-family:'Canted Comic';-inkscape-font-specification:'Canted Comic, Normal';font-variant-ligatures:normal;font-variant-caps:normal;font-variant-numeric:normal;font-variant-east-asian:normal;white-space:pre;shape-inside:url(#rect8929-5-9-5-9-9-37-7-7-1);display:inline;fill:#000000;fill-opacity:1;stroke:none;stroke-width:10;stroke-linejoin:round;stroke-dasharray:none;stroke-opacity:1"><tspan
           x="-5995.3398"
           y="2478.2994"
           id="tspan93934"><tspan
             style="font-size:85.3333px"
             id="tspan93932">excess permits.</tspan></tspan></text><text
         xml:space="preserve"
         transform="translate(14641.374,7526.1078)"
         id="text8927-5-7-2-9-0-8"
         style="font-style:normal;font-variant:normal;font-weight:normal;font-stretch:normal;font-size:64px;font-family:'Canted Comic';-inkscape-font-specification:'Canted Comic, Normal';font-variant-ligatures:normal;font-variant-caps:normal;font-variant-numeric:normal;font-variant-east-asian:normal;white-space:pre;shape-inside:url(#rect8929-5-9-5-9-9-3);display:inline;fill:#000000;fill-opacity:1;stroke:none;stroke-width:10;stroke-linejoin:round;stroke-dasharray:none;stroke-opacity:1"><tspan
           x="-5995.3398"
           y="2446.8708"
           id="tspan93938">so, polluters pay <tspan
   style="font-weight:bold;-inkscape-font-specification:'Canted Comic, Bold'"
   id="tspan93936">less than half
</tspan></tspan><tspan
           x="-5995.3398"
           y="2526.8708"
           id="tspan93940">of the damage they cause.</tspan></text><path
         style="fill:none;fill-opacity:1;stroke:#000000;stroke-width:8;stroke-linejoin:round;stroke-dasharray:none;stroke-opacity:1"
         d="m 8607.6265,9875.4811 38.5593,1.1978 39.3585,0.034 38.7253,-1.9093 38.4457,-0.1722 38.9701,3.6202 38.8262,-0.1783 39.0172,0.1728 38.6681,-1.9876 39.0505,0.5498 38.5049,-0.065 39.0975,-2.7474 38.9322,-1.7614 38.8494,3.3825 38.7371,3.1163 39.0475,-0.9627 39.0674,0.5243 38.4124,1.1413 38.8036,0.6624 38.9428,-1.0144 38.8304,-2.0688 38.7876,-1.9519 38.832,2.7568 38.9251,-0.3139 38.3727,2.5938 39.0809,-0.4405 39.1925,-0.5696 38.4673,-0.6381 38.7334,3.8023 38.7272,-0.8818 38.9539,4.822 39.6671,-2.5281 38.8438,-3.1385 38.3754,-1.5062 38.8361,-1.0803 0.045,38.5665 -0.5249,40.0806 -0.302,38.6453 -0.2195,35.3978 0.2512,39.289 -0.2843,38.403 -0.1334,38.008 -0.01,38.631 -0.131,37.435 -0.218,42.297 0.066,35.699 -0.4122,36.42 -0.2475,39.544 0.1977,38.544 -0.7521,38.904 -0.3338,37.223 -0.191,38.688 0.01,35.63 -0.3355,41.893 -0.4675,37.861 -0.6087,38.789 -0.043,38.668 0,38.349 -0.1,35.846 0.1672,40.961 -39.8709,-0.607 -39.8786,-0.506 -40.4181,1.733 -39.2654,-0.06 -40.5942,-0.229 -39.2477,-2.407 -39.935,0.132 -39.8377,-0.04 -40.2025,-0.911 -39.5996,-1.256 -39.4887,-2.311 -40.081,1.27 -40.1116,1.349 -39.7332,-0.796 -39.6325,-3.628 -40.4767,-3.383 -39.3705,0.51 -40.4576,1.057 -39.5048,-2.066 -40.1437,-0.159 -40.2091,0.03 -39.9828,-2.805 -39.3662,0.455 -39.7435,1.746 -40.1021,0.339 -39.7968,0.947 -39.8957,0.635 -39.8175,3.959 -39.7825,0.151 -39.9954,0.206 -39.3712,3.42 -40.7427,-1.22 -39.4475,-2.389 0.1641,-37.19 -0.3204,-43.794 -0.2144,-39.501 -0.071,-34.966 0.074,-40.523 0.1908,-39.67 -0.087,-39.845 -0.1058,-42.389 -0.01,-36.124 0.079,-43.191 -0.021,-36.762 -0.1126,-43.093 -0.01,-39.093 0.2131,-41.194 0.2091,-38.477 0.017,-41.164 0,-37.202 0.011,-42.498 0.1522,-37.816 0.1486,-39.948 -0.035,-39.073 -0.081,-36.0143 0,-46.8419 z"
         id="path2208-7-4-6-5-2-4-0"
         inkscape:path-effect="#path-effect2210-3-3-4-7-7-4-6"
         inkscape:original-d="m 8607.6249,9877.5524 h 1320.5974 l -4.5915,960.1726 -1316.0059,-6.018 z"
         sodipodi:nodetypes="ccccc" /></g></g></svg>
