<?xml version="1.0" encoding="UTF-8" standalone="no"?>
<!-- Created with Inkscape (http://www.inkscape.org/) -->

<svg
   version="1.1"
   id="svg176"
   width="1329.1697"
   height="974.09918"
   viewBox="0 0 1329.1697 974.09918"
   sodipodi:docname="comic.svg"
   xml:space="preserve"
   inkscape:version="1.2.2 (b0a8486541, 2022-12-01)"
   xmlns:inkscape="http://www.inkscape.org/namespaces/inkscape"
   xmlns:sodipodi="http://sodipodi.sourceforge.net/DTD/sodipodi-0.dtd"
   xmlns="http://www.w3.org/2000/svg"
   xmlns:svg="http://www.w3.org/2000/svg"><defs
     id="defs180"><inkscape:path-effect
       effect="roughen"
       id="path-effect3892"
       is_visible="true"
       lpeversion="1.2"
       method="size"
       max_segment_size="14.489"
       segments="2"
       displace_x="10;1"
       displace_y="10;1"
       global_randomize="1;1"
       handles="along"
       shift_nodes="true"
       fixed_displacement="false"
       spray_tool_friendly="false" /><rect
       x="-1955.4146"
       y="630.24219"
       width="1235.955"
       height="154.27823"
       id="rect3105-9-4" /><inkscape:path-effect
       effect="roughen"
       id="path-effect2210-5-4"
       is_visible="true"
       lpeversion="1.2"
       method="size"
       max_segment_size="5"
       segments="114"
       displace_x="3;143452960"
       displace_y="3;2018388453"
       global_randomize="1;1"
       handles="along"
       shift_nodes="true"
       fixed_displacement="false"
       spray_tool_friendly="false" /><inkscape:path-effect
       effect="roughen"
       id="path-effect2210-3-0-4"
       is_visible="true"
       lpeversion="1.2"
       method="size"
       max_segment_size="40"
       segments="114"
       displace_x="1;589550557"
       displace_y="7;1910419474"
       global_randomize="1;1292492417"
       handles="along"
       shift_nodes="true"
       fixed_displacement="false"
       spray_tool_friendly="false" /><inkscape:path-effect
       effect="roughen"
       id="path-effect2210-5-4-1"
       is_visible="true"
       lpeversion="1.2"
       method="size"
       max_segment_size="27"
       segments="38"
       displace_x="13.8;143452960"
       displace_y="13.9;2018388453"
       global_randomize="1;1"
       handles="along"
       shift_nodes="true"
       fixed_displacement="false"
       spray_tool_friendly="false" /><rect
       x="-1955.4146"
       y="630.24219"
       width="396.35049"
       height="326.39035"
       id="rect3105-9-4-6" /></defs><sodipodi:namedview
     id="namedview178"
     pagecolor="#ffffff"
     bordercolor="#000000"
     borderopacity="0.25"
     inkscape:showpageshadow="2"
     inkscape:pageopacity="0.0"
     inkscape:pagecheckerboard="0"
     inkscape:deskcolor="#d1d1d1"
     showgrid="false"
     showguides="false"
     inkscape:zoom="0.13137786"
     inkscape:cx="9853.2583"
     inkscape:cy="2641.2365"
     inkscape:window-width="1920"
     inkscape:window-height="1011"
     inkscape:window-x="0"
     inkscape:window-y="0"
     inkscape:window-maximized="1"
     inkscape:current-layer="g182"><inkscape:grid
       type="xygrid"
       id="grid2722" /></sodipodi:namedview><g
     inkscape:groupmode="layer"
     inkscape:label="Image"
     id="g182"
     transform="translate(-7212.9156,-4744.0659)"><g
       id="vgn12"
       transform="translate(11802.821,-228.84521)"><text
         xml:space="preserve"
         id="text3103-7-4"
         style="font-style:normal;font-variant:normal;font-weight:normal;font-stretch:normal;font-size:64px;font-family:'Canted Comic';-inkscape-font-specification:'Canted Comic, Normal';font-variant-ligatures:normal;font-variant-caps:normal;font-variant-numeric:normal;font-variant-east-asian:normal;white-space:pre;shape-inside:url(#rect3105-9-4);display:inline;fill:#000000;fill-opacity:1;stroke:#000000;stroke-width:0;stroke-linejoin:round;stroke-dasharray:none"
         transform="translate(-2579.8222,4381.1651)"><tspan
           x="-1955.4141"
           y="693.09933"
           id="tspan34667">and how does one price carbon?
</tspan><tspan
           x="-1955.4141"
           y="773.09933"
           id="tspan34671">With either carbon taxes, <tspan
   style="font-weight:bold;-inkscape-font-specification:'Canted Comic, Bold'"
   id="tspan34669">or</tspan></tspan></text><text
         xml:space="preserve"
         id="text3103-7-4-4"
         style="font-style:normal;font-variant:normal;font-weight:normal;font-stretch:normal;font-size:42.6667px;font-family:'Canted Comic';-inkscape-font-specification:'Canted Comic, Normal';font-variant-ligatures:normal;font-variant-caps:normal;font-variant-numeric:normal;font-variant-east-asian:normal;white-space:pre;shape-inside:url(#rect3105-9-4-6);display:inline;fill:#000000;fill-opacity:1;stroke:#000000;stroke-width:0;stroke-linejoin:round;stroke-dasharray:none"
         transform="translate(-1670.8376,5021.7974)"><tspan
           x="-1955.4141"
           y="672.14698"
           id="tspan34673">         a.k.a.
</tspan><tspan
           x="-1955.4141"
           y="725.48035"
           id="tspan34675">cap-and-trade,
</tspan><tspan
           x="-1955.4141"
           y="778.81373"
           id="tspan34677">or emissions
</tspan><tspan
           x="-1955.4141"
           y="832.1471"
           id="tspan34679">     trading
</tspan><tspan
           x="-1955.4141"
           y="885.48048"
           id="tspan34681">     systems</tspan></text><path
         style="fill:none;fill-opacity:1;stroke:#000000;stroke-width:5.05901;stroke-linejoin:round;stroke-dasharray:none;stroke-opacity:1"
         d="m -4560.2544,5007.8654 4.8614,-2.8407 3.5992,0.1197 5.5263,1.3743 4.3135,-0.2874 6.0732,0.7912 5.0291,0.7949 6.0263,0.1738 3.8563,-0.246 4.8618,0.094 6.1787,0.052 4.183,-0.1295 4.4986,-0.021 5.9183,0.4467 3.4231,-0 6.6334,0.044 3.2009,0.3509 6.2183,-0.076 4.6805,0 6.5953,0.011 3.1585,1.4536 4.6442,-0.2823 4.5007,0.2723 6.1126,0.137 4.9496,-0.6506 5.0354,-0.4873 5.0699,0.666 4.6901,-1.4334 5.0857,-0.2042 4.9269,-0.4563 5.1868,-0.1849 5.032,0.832 5.7107,-0.3005 4.2618,-0.1013 5.7927,0.3362 3.4942,-0.1222 4.4586,0.2481 7.1333,0.8232 3.9122,0.1175 5.3694,0.3949 4.2107,0.018 4.8557,0.721 4.7253,-0.2346 5.8146,-0.037 3.8318,-1.0774 6.4892,-0.1927 3.9333,0.3506 4.9094,0.2902 5.5865,-0.4975 5.0775,-0.7701 4.9797,0.7682 5.2779,-0.4208 2.7253,-0.4745 7.1896,-0.329 4.7775,2.3839 4.9066,-0.109 3.9334,0 6.3494,0.5466 6.3158,-0.4164 3.288,0.016 5.0887,-0.017 4.5675,0.067 4.648,0.7073 6.042,0.085 4.1663,0.7317 4.109,-0.1884 7.3947,-1.412 3.1455,0.044 5.4635,-0.2502 5.8461,-0.2264 5.1666,-0.7554 4.5467,0.038 2.5785,-0.5279 7.1424,0.4659 5.419,-0.7551 4.4165,0.07 4.8533,-0.6151 5.2817,-0.6807 5.3729,0.584 5.2504,0.4342 4.6122,-0.074 5.4,0.316 6.2208,0.1708 2.866,1.1251 5.2678,-0.3538 5.0401,-0.1016 4.557,-0.021 4.8688,-0.1826 6.0675,-0.3463 4.2866,-0.7783 2.8299,0.6361 7.1074,0.02 5.0067,-0.4204 4.8693,-0.5598 3.814,-0.088 5.2703,-0.7165 5.9906,-0.2639 4.3037,2.3109 5.6726,-1.9266 4.3456,-0.749 6.5254,-0.053 5.0098,-0.2203 3.5666,-0.2525 6.4478,-0.281 4.2253,0.1439 3.2287,0.4358 7.4081,-0.418 3.1297,0.4039 3.9955,-0.019 5.7459,0.2556 4.9307,0.2385 6.0854,0.3302 5.3259,1.6571 4.6467,0.2968 6.2781,0.2132 4.0462,0.2024 4.7714,-2.267 4.7767,0.035 4.9998,0.174 4.2766,1.1013 6.6453,0.7244 3.4719,0.4312 6.4939,-1.1779 4.9356,-0.4086 3.7638,-0.3419 5.7394,-0.3036 5.7659,0.6971 5.5706,0 4.5739,-0.9222 5.0218,-0.2908 3.6211,-1.067 5.0765,-0.2797 6.3368,-1.2194 3.3173,-0.5685 5.384,-0.051 5.1002,0.1353 4.6811,-0.041 6.593,0.8368 3.5155,0.074 6.9594,0.7382 3.3077,-0.015 4.4821,-0.3374 3.7934,-0.1729 5.218,-1.0293 8.0064,-0.6331 2.809,0.1396 5.2481,0.048 5.2451,0.022 4.6437,0.101 4.4246,0.9376 5.9515,-0.1405 4.6668,0.1445 4.9052,0.2574 5.4317,1.7424 2.2327,-0.5182 6.9419,0.2068 5.8281,-1.2079 4.4524,1.2452 4.9157,1.145 5.4977,0.1475 3.7666,0.059 5.9177,-0.073 3.1659,0.2122 6.6289,-0.287 4.7951,-0.2656 5.2832,-0.1016 5.3079,-0.069 4.6247,0.1938 5.3184,-0.025 3.1955,-0.6164 6.6806,0.504 3.6039,-0.7265 5.7938,0.4767 4.6638,-0.042 5.9741,-0.2692 5.1898,-1.2723 4.2497,0.034 5.852,0.061 4.6255,-0.5146 2.8876,-0.6487 7.1624,1.1964 4.1478,-0.4823 7.194,-0.555 1.4189,-1.8534 7.2756,-1.6826 4.5813,-0.9714 5.2446,0.4469 6.9317,0.4295 2.7316,0.056 5.2555,-0.189 5.0715,0.1649 4.311,1.1026 4.4321,0.095 4.4865,-1.2269 6.1229,-0.1075 5.2312,0.7544 5.0182,0.062 5.223,0.042 4.7448,0.1017 5.7218,0.5129 4.1905,-1.4497 4.8419,0.1225 5.265,0.1145 5.2213,-1.0226 4.6304,1.3092 3.9706,1.7887 5.3943,-0.1911 5.5026,0.2684 4.774,0.058 5.7922,0.068 4.3186,0.1018 4.794,0.1018 5.1001,1.1917 5.1873,-0.082 4.4693,0.2185 5.2174,0.216 5.1613,0.1701 4.7599,0.4895 5.8175,0.5299 4.8333,-0.9129 4.0167,0.2234 5.713,0.021 3.9976,0.5168 5.7495,0.1177 4.8045,-0.7147 5.2461,0.3154 4.9016,-0.015 5.7369,8e-4 3.953,0.071 3.4423,0.5565 6.8331,-0.2098 4.985,0.7046 4.8903,0.1637 5.1333,1.2824 3.4595,-0.4237 8.2568,0.055 4.3522,-0.5467 3.0172,0.092 5.7773,0.5293 4.971,-0.2134 5.6482,0.023 5.2086,-0.5109 5.6866,-0.061 2.2935,-0.078 7.1247,-0.9729 4.5227,0.6431 4.2623,0.2589 5.3029,0.1128 4.9876,-0.7487 5.0559,0.5713 4.736,0.023 4.7145,0.7213 5.1579,0.1545 5.1432,-0.053 3.3979,1.4378 6.8432,-0.7938 4.5913,-0.4912 -0.3133,4.5932 -0.1821,4.1575 -1.479,6.2055 -1.458,4.237 -1.9964,5.5072 -1.1737,4.8577 0.076,4.6647 1.4049,5.7011 -0.3811,3.607 0.9715,5.7444 0.3437,4.8429 -1.2567,5.1567 -0.3672,4.7775 0.3571,4.3271 -0.064,4.8191 -1.0362,5.4532 0.1395,5.5838 -0.4523,5.1925 0.1068,4.2663 -0.089,4.999 -0.1539,4.6197 -0.049,4.6662 0.3372,5.8538 -0.036,4.4871 0.3114,4.7597 0.3958,4.9928 0.2893,4.0376 0.2367,4.4982 -0.9405,5.0556 2.4211,6.4715 -2.0679,2.9779 -0.2053,5.3939 2.341,5.7564 -4.9813,0.6595 -4.772,-0.083 -4.9104,0.1523 -6.7815,0.5378 -3.6821,0.1005 -4.8938,-0.1901 -5.0163,-0.4847 -4.2949,0.057 -6.2859,-0.1459 -3.497,-0.2345 -5.8175,-0.9596 -5.9925,1.5338 -3.4413,-1.787 -6.2486,-0.2433 -3.9223,0.5067 -5.3435,0.7147 -5.1534,1.8829 -2.7981,-0.523 -7.6733,-0.08 -4.1865,-0.045 -5.9722,-0.2701 -3.4913,0.3838 -6.0937,0.7898 -5.5942,0.081 -3.6964,-0.7371 -5.1868,-1.3135 -5.0073,0.017 -4.9546,-0.043 -5.431,-0.038 -4.5207,-0.6338 -4.5838,-1.3426 -5.8634,-0.3271 -4.8864,-0.6216 -4.0849,1.2583 -4.8024,-0.1939 -5.5671,2.034 -4.9208,0.232 -5.1695,0.8524 -4.4434,-0.8944 -5.8629,0.056 -4.6826,-0.6961 -5.904,0.2523 -3.6663,-1.4587 -5.3285,0.2833 -4.2654,-0.5987 -5.4361,-0.04 -5.642,-0.06 -4.8415,0.019 -5.3923,0.237 -4.3911,0.01 -4.7849,-0.9735 -5.771,-0.3237 -4.2149,0.9776 -4.8732,0.3647 -4.2929,-0.7368 -5.7389,0.2461 -5.7344,0.1254 -3.2661,0.4981 -6.4358,0.4057 -4.9223,0.033 -4.6482,0.6508 -3.4136,-0.2357 -7.2655,0.056 -6.9462,-0.3378 -2.9822,-2.1323 -4.0847,-0.4936 -5.0358,0.5839 -5.466,0.4668 -4.2884,0.9 -5.9781,1.455 -4.3812,0.7176 -5.0928,0.9076 -4.5906,-0.1967 -3.3597,-0.1321 -6.8632,0.9168 -5.4973,-0.1018 -4.7994,-0.3265 -5.6722,-0.4296 -3.4721,0.015 -5.212,0.038 -7.3146,-1.196 -3.1639,-0.8713 -5.3417,0.7929 -5.7031,0.1405 -3.9521,0.068 -5.2762,0.012 -4.8934,1.2311 -6.5024,-0.892 -3.9226,1.8219 -3.7938,-0.013 -5.6046,0.02 -5.4764,0.6757 -4.4571,-0.3951 -3.3857,0.1046 -5.5805,0.7034 -5.877,-0.2762 -4.2191,0.759 -5.3725,1.2935 -5.3933,-0.4932 -5.4509,0.084 -4.6089,-0.069 -5.2796,0.7071 -4.7583,-0.3366 -4.919,0.045 -5.1413,0.3578 -3.7791,0.064 -5.7676,-0.7871 -6.0917,0.3182 -5.0746,-0 -3.5396,1.2336 -4.3713,0.6329 -6.0107,-0.3617 -5.1188,-0.01 -5.1104,-0.081 -5.7168,-0.036 -5.3727,-0.9476 -3.4605,-0.1346 -5.5637,-0.057 -4.7516,-0.028 -4.7512,-0.1751 -5.9537,-1.1568 -4.2616,0.8345 -5.0256,0.6259 -5.2255,-0.071 -4.94,-0.987 -4.9171,0.1657 -3.5713,0.2334 -5.4982,0.095 -6.7948,-0.062 -4.1137,-0.2187 -6.9564,-0.8011 -3.805,-0.031 -4.2002,-0.2732 -3.8384,-1.8807 -6.0816,1.2892 -4.8116,1.262 -3.5234,1.3013 -5.8989,-0.1117 -5.007,-0.7695 -5.3689,0.391 -5.5609,0.6127 -4.7155,-0.035 -5.3741,0.2028 -2.9964,-0.065 -5.8212,-0.9397 -5.5595,0.081 -6.0053,1.2439 -2.0889,-0.09 -6.2754,-0.2636 -5.7713,-0.5844 -4.622,-0.071 -4.4371,-0.7396 -5.3556,-0.068 -5.3987,-0.8698 -6.4548,-0.01 -3.5114,-0.3116 -5.103,0.067 -4.1792,0.033 -6.6792,0.035 -3.7317,-0.6492 -5.5136,0.034 -5.2201,0.1861 -4.9656,0.26 -4.527,-0.4519 -4.9002,0.6563 -4.2273,0.036 -5.6181,1.6393 -5.1662,-0.07 -5.5218,-0.096 -4.6291,0.2068 -5.1886,-0.6925 -3.4592,-0.07 -6.7228,0.6524 -4.6376,-0.2653 -5.1919,-0.1325 -4.5922,-0.09 -5.3597,1.1398 -4.3724,0.1781 -5.1354,0.1126 -5.454,0.539 -4.8985,0.2835 -4.9659,0.1533 -5.0938,-0.428 -4.5081,-0.3175 -5.3772,0.7427 -2.8467,-1.1938 -6.6186,-0.1071 -5.7562,-0 -5.0351,1.0536 -4.7447,-0.109 -4.7302,-0.3453 -5.073,0.1035 -4.8165,1.0713 -5.0332,0.1714 -5.0964,-0.056 -4.0245,0.2156 -5.6493,-0.1071 -5.5002,-0.1065 -4.1553,-0.051 -5.8348,-0.071 -3.7132,-0.9001 -6.0081,-0.01 -5.3574,-0.2772 -4.735,0.1047 -2.8061,-0.3891 -7.0918,-0.2226 -4.9672,0.704 -5.046,-0.1176 -4.9005,-1.1614 -6.1598,0.2273 -2.2551,-0.503 -6.6681,-0.5246 -5.0281,0.081 -6.1808,-1.063 -3.557,1.1152 -4.2503,-0.1334 -5.9122,-0.3923 -5.5323,0.3599 -5.3869,-0.7914 -3.5625,-0.088 -5.3302,-0.091 -3.963,-0.1214 -5.7325,-0.4069 -5.7633,-0.237 -4.7168,0.056 -4.8415,0.061 -3.2321,0.3199 -7.1099,-0.8901 -6.5962,0.1198 -3.9142,-0.2243 -3.9608,-0.07 -4.7328,1.1597 -5.2299,-0.7674 -5.5577,0.1928 -3.9783,0.08 -4.4549,0.9119 -6.007,-0.5954 -4.2016,0.9732 -4.7157,0.049 -6.264,0.8853 -4.6591,-0.094 -4.2055,-0.4833 -6.2204,-0.268 -4.9324,0.12 -5.4781,-0.7078 -4.2829,0.8982 -5.43,-1.1565 -5.5028,-0.1779 -6.1037,-1.133 -3.109,-0.4998 -4.2866,-0.6721 -5.7951,0.2514 -4.6261,-0.2157 -6.0014,-1.5778 -2.5017,-0.057 -1.5936,-4.1513 -0.5097,-5.2799 0.4977,-4.3733 -0.047,-6.4605 -7e-4,-2.9914 -0.372,-5.9076 0.573,-4.7759 -1.003,-5.5787 -0.7491,-3.9313 -0.5309,-5.7817 1.881,-4.3287 -0.1244,-4.5937 0.4165,-5.5706 0.3471,-4.6774 0.029,-4.9309 -1.877,-6.1064 -0.1644,-3.8117 -1.3516,-4.5842 0.5724,-5.349 -0.1985,-4.523 -0.508,-5.0795 1.327,-4.9121 -4e-4,-5.494 0.4933,-3.7537 0.1916,-5.305 0.675,-5.7293 -0.7716,-4.4286 0.5686,-3.6535 0.5183,-5.1681 -0.2149,-3.7044 0.4259,-6.7928 -0.4904,-4.4049 z"
         id="path2208-2-1"
         inkscape:path-effect="#path-effect2210-5-4"
         inkscape:original-d="m -4560.7819,5007.2973 h 1275.8316 l -4.4357,162.2225 -1271.3959,-1.0167 z"
         sodipodi:nodetypes="ccccc" /><path
         style="fill:none;fill-opacity:1;stroke:#000000;stroke-width:8;stroke-linejoin:round;stroke-dasharray:none;stroke-opacity:1"
         d="m -4585.4219,4980.1577 38.5594,1.1978 39.3584,0.034 38.7253,-1.9093 38.4457,-0.1722 38.9701,3.6202 38.8262,-0.1783 39.0172,0.1728 38.6681,-1.9876 39.0505,0.5498 38.505,-0.065 39.0974,-2.7474 38.9322,-1.7614 38.8495,3.3825 38.7371,3.1163 39.0474,-0.9627 39.0675,0.5243 38.4123,1.1413 38.8037,0.6624 38.9427,-1.0144 38.8305,-2.0688 38.7876,-1.9519 38.8319,2.7568 38.9252,-0.3139 38.3727,2.5938 39.0809,-0.4405 39.1925,-0.5696 38.4673,-0.6381 38.7333,3.8023 38.7273,-0.8818 38.9538,4.822 39.6671,-2.5281 38.8439,-3.1385 38.3754,-1.5062 38.8361,-1.0803 0.045,38.5665 -0.5249,40.0805 -0.302,38.6454 -0.2195,35.3979 0.2512,39.2885 -0.2843,38.4038 -0.1334,38.0075 -0.01,38.6306 -0.131,37.4349 -0.218,42.2972 0.066,35.6992 -0.4122,36.4199 -0.2475,39.5441 0.1977,38.5441 -0.7521,38.9036 -0.3338,37.2238 -0.191,38.6877 0.01,35.6301 -0.3355,41.8927 -0.4675,37.8612 -0.6087,38.7884 -0.043,38.6682 0,38.3491 -0.1,35.8464 0.1672,40.961 -39.8709,-0.607 -39.8786,-0.5068 -40.4181,1.7338 -39.2654,-0.061 -40.5943,-0.2288 -39.2477,-2.407 -39.935,0.1313 -39.8376,-0.043 -40.2025,-0.9106 -39.5996,-1.2564 -39.4887,-2.3111 -40.081,1.2698 -40.1117,1.3496 -39.7331,-0.7957 -39.6326,-3.6287 -40.4767,-3.3826 -39.3705,0.51 -40.4575,1.0565 -39.5049,-2.0658 -40.1437,-0.1589 -40.2091,0.035 -39.9828,-2.8053 -39.3662,0.4555 -39.7434,1.7454 -40.1022,0.339 -39.7967,0.9478 -39.8958,0.6347 -39.8175,3.9593 -39.7825,0.1505 -39.9954,0.206 -39.3712,3.4199 -40.7427,-1.2194 -39.4475,-2.3891 0.1641,-37.1905 -0.3204,-43.7935 -0.2144,-39.5016 -0.071,-34.9659 0.074,-40.523 0.1908,-39.6694 -0.087,-39.8449 -0.1058,-42.3891 -0.01,-36.1248 0.079,-43.1909 -0.021,-36.7614 -0.1126,-43.0932 -0.01,-39.0929 0.2131,-41.1938 0.2091,-38.4768 0.017,-41.1648 0,-37.2016 0.011,-42.498 0.1522,-37.8161 0.1486,-39.9476 -0.035,-39.0733 -0.081,-36.0143 0,-46.8419 z"
         id="path2208-7-2-8"
         inkscape:path-effect="#path-effect2210-3-0-4"
         inkscape:original-d="m -4585.4235,4982.229 h 1320.5975 l -4.5915,960.1724 -1316.006,-6.018 z"
         sodipodi:nodetypes="ccccc" /><path
         style="opacity:1;fill:none;fill-opacity:1;stroke:#000000;stroke-width:7;stroke-linejoin:round;stroke-dasharray:none;stroke-opacity:1"
         d="m -3267.9755,5652.2082 c -8.8748,-1.1516 -19.463,-4.9463 -27.9953,-5.9419 -9.6759,-3.6303 -9.6432,-0.6305 -17.1495,-1.4078 -4.453,0.06 -21.6253,-4.137 -31.3599,-4.9558 -8.7306,-2.7537 -15.791,-2.638 -22.8436,-3.1163 -8.3466,-1.9539 -14.1444,-1.0087 -20.9476,-1.3481 -7.3056,-0.4769 -12.6905,0.2294 -19.5713,0.028 -5.915,0.6504 -16.5874,-3.3107 -23.6836,-3.3456 -7.8103,-2.995 -8.8642,1.178 -14.5743,1.2814 -4.3892,1.303 -14.444,0.3895 -21.3601,0.7379 -5.9778,0.3176 -10.2627,1.5565 -15.9477,2.0194 -4.6255,1.3767 -12.0061,1.1826 -17.8431,1.876 -5.2199,0.7236 -10.4383,1.4033 -15.5609,2.211 -4.8758,0.8427 -12.2525,-4.1633 -17.0917,-3.1885 -6.6491,-4.9545 -10.6907,-1.5874 -14.9571,-0.5194 -6.0968,-2.405 -5.8789,2.3986 -9.9435,3.6523 -2.5594,1.753 -10.0793,3.522 -14.8595,5.4062 -3.8761,1.7482 -7.687,3.4429 -11.4062,5.2238 -3.4927,1.9463 -6.7943,3.9867 -10.2021,5.9555 -2.9208,2.2998 1.856,4.4933 -1.2476,6.6486 3.7603,3.7674 -10.2459,0.055 -14.3648,3.7864 -4.5413,-3.6038 -6.0914,6.8698 -9.1234,10.3901 -1.4242,2.7888 -3.8117,5.2449 -5.6935,7.8498 -1.4642,2.699 1.6564,6.9888 0.097,9.5479 3.4658,4.6925 -3.2204,4.585 -4.6388,7.3349 -1.4618,1.8894 -2.6275,4.8678 -3.8116,7.5959 -1.1535,2.2092 -2.8268,3.8807 -3.8138,6.6107 -1.6865,1.5153 -3.0789,4.4711 -3.9608,7.5337 -1.9273,1.5954 -2.1009,2.6689 -2.7965,5.8588 -1.2728,0.3396 -2.1139,7.1545 -2.6811,11.2263 -1.0122,2.5063 -0.9762,6.1941 -1.2492,9.4911 -0.4422,2.9794 -1.474,1.4963 -1.5806,4.7979 -1.1793,-0.1656 5.3504,11.4208 5.5378,16.4969 5.5894,4.5263 1.5198,6.7239 1.6911,9.6005 1.4703,4.2786 2.808,8.1785 3.0752,11.4523 2.6448,4.8644 5.7675,6.8238 6.0754,9.9926 5.5853,4.1777 -1.2139,4.0819 -0.851,7.7537 -1.4157,1.8854 2.9006,11.1512 3.5359,16.4093 2.3094,4.7621 -0.6933,0.6336 -0.1718,4.5487 -0.7929,-0.7074 2.4268,13.6707 3.6346,20.6625 1.304,4.8065 5.3706,8.7474 6.2435,13.1521 4.7251,4.6236 0.3509,7.393 1.203,11.9726 -0.3876,3.6905 4.704,12.6735 5.9606,18.2241 3.6133,6.2719 0.9353,7.6916 1.8686,11.9521 0.2305,4.3906 2.3533,10.7699 4.2204,16.3386 1.8055,5.3853 2.0995,5.0122 4.613,10.04"
         id="path3890"
         inkscape:path-effect="#path-effect3892"
         inkscape:original-d="m -3267.9755,5652.2082 c -399.3659,-51.8215 -449.9441,54.612 -333.3178,287.9017"
         sodipodi:nodetypes="cc" /><g
         id="g6172"
         transform="translate(-5.2738467,-5.472864)"><g
           id="g6165"><path
             style="fill:#000000;stroke-width:0.503713"
             d="m -3680.2481,5882.4809 -9.9936,0.3939 -12.04,0.3551 -4.3277,0.2146 v 0 l -13.782,0.7972 v 0 l -10.5428,0.4457 -12.6954,0.2022 c 0,0 -4.0216,-0.7021 -5.5379,-0.4503 -1.4457,0.2403 -3.6228,0.088 -4.8924,-0.343 -1.2582,-0.4272 -4.1293,-0.6558 -6.3804,-0.5093 -2.251,0.1471 -5.6039,-0.055 -7.4509,-0.4483 -1.847,-0.3939 -4.0021,-0.8235 -4.7891,-0.955 -0.7872,-0.132 -2.1472,-0.6961 -3.0223,-1.2537 -1.2074,-0.7697 -2.3952,-0.8876 -4.9244,-0.4886 -1.9694,0.3107 -4.125,0.2498 -5.2687,-0.1486 -1.57,-0.5476 -4.4906,0.7611 -4.4906,0.7611 l -3.5226,1.0648 -2.2609,-0.4318 -4.1791,-1.1117 -3.2295,-2.5355 c 0,0 -1.9317,-1.4512 -6.7873,-3.8751 -0.8283,-0.4131 -1.5083,-1.1293 -1.5112,-1.5907 0,-0.4619 -0.2655,-0.8397 -0.5836,-0.8397 -0.7669,0 -3.4513,-7.0742 -3.4513,-9.0951 0,-1.902 0.9082,-4.0589 3.8696,-9.1892 1.9558,-3.3885 2.74,-4.0856 6.6094,-5.8768 2.4146,-1.1178 5.1247,-2.032 6.0225,-2.032 1.5484,0 1.635,-0.2156 1.688,-4.1974 0.2535,-19.049 -0.1692,-40.1268 -0.9165,-45.7029 -0.9165,-6.8394 -0.6568,-10.9936 1.0583,-16.9258 0.7724,-2.6712 0.845,-4.8689 0.355,-10.7457 -0.429,-5.1459 -0.3811,-8.8225 0.158,-12.1153 0.5467,-3.3386 0.5701,-5.4658 0.08,-7.2414 -0.3818,-1.3827 -0.608,-3.94 -0.5028,-5.6824 0.1054,-1.7428 0.4251,-6.8102 0.7107,-11.26 0.4148,-6.4661 0.3111,-8.827 -0.5168,-11.7536 -2.5251,-8.9248 -2.7125,-18.3614 -0.4209,-21.1817 0.3261,-0.4014 0.6725,-3.1215 0.7698,-6.0445 0.2452,-7.3688 -0.7992,-33.3322 -1.5377,-38.2248 -0.4518,-2.993 -0.3094,-6.104 0.5531,-12.0891 0.9284,-6.4415 1.063,-10.1488 0.6707,-18.4691 -0.5534,-11.7345 -0.1669,-18.4646 1.1814,-20.5732 0.5036,-0.7873 1.2492,-4.7162 1.657,-8.7308 0.4077,-4.0146 1.0511,-9.2638 1.4299,-11.6645 0.432,-2.7397 0.4769,-6.8923 0.1207,-11.1487 -0.3123,-3.731 -0.3485,-7.8111 -0.08,-9.0668 0.2682,-1.2563 0.4592,-8.4967 0.4245,-16.0901 -0.048,-10.4994 0.1561,-14.1992 0.8521,-15.4469 0.698,-1.2517 0.9454,-5.8359 1.0417,-19.3048 0.079,-11.0559 0.4301,-18.9299 0.9384,-21.0487 0.7419,-3.0924 0.6919,-3.5476 -0.5781,-5.2654 -0.8256,-1.1166 -1.3129,-2.6604 -1.1999,-3.8012 0.1047,-1.0565 -0.1536,-2.8275 -0.5738,-3.9357 -0.4202,-1.1082 -0.7009,-4.5281 -0.6236,-7.5997 l 0.1405,-5.5849 -1.784,0.1778 c -2.9418,0.2931 -7.1988,-2.0098 -8.4099,-4.5495 -0.5918,-1.241 -1.5139,-2.2564 -2.049,-2.2564 -0.5352,0 -1.1815,-0.6801 -1.4363,-1.5112 -0.2548,-0.8311 -0.8005,-1.9311 -1.2127,-2.4443 -1.169,-1.4557 -2.2466,-6.473 -1.9935,-9.2819 0.1838,-2.0415 0.8935,-3.1689 3.5832,-5.6927 1.8446,-1.7309 3.3538,-3.5015 3.3538,-3.9346 0,-0.4966 0.5974,-0.6376 1.6172,-0.3816 0.8894,0.2232 3.5339,-0.1658 5.8766,-0.8645 4.7137,-1.4057 9.5829,-2.2438 10.09,-1.7367 0.41,0.4101 14.8236,1.1459 20.7131,1.0575 2.4092,-0.036 5.4294,-0.3667 6.7118,-0.7344 1.2823,-0.3678 4.172,-0.6687 6.4216,-0.6687 2.2495,0 4.2839,-0.1938 4.5207,-0.4307 0.2369,-0.2368 3.234,-0.5662 6.6603,-0.7319 7.1239,-0.3446 7.1875,-0.3454 13.9531,-0.1867 7.9376,0.1862 12.2289,-0.022 13.4006,-0.6485 1.4476,-0.7749 9.0535,-0.9892 16.4864,-0.4647 3.3245,0.2346 10.5476,0.5829 16.0515,0.7741 5.5038,0.1912 10.3689,0.6481 10.8114,1.0153 0.4425,0.3672 2.6023,1.6511 4.7997,2.8532 2.1974,1.202 4.5028,2.4955 5.1232,2.8746 0.8746,0.5344 1.1574,1.8306 1.2591,5.7708 0.1201,4.6507 -0.033,5.3043 -1.8052,7.7061 -1.8284,2.4779 -6.2097,6.9899 -6.7874,6.9899 -0.1462,0 -1.3926,0.7371 -2.7699,1.6381 -1.3773,0.901 -3.4109,1.8474 -4.519,2.103 -5.3598,1.2365 -6.7215,5.7398 -6.1767,20.4258 0.2492,6.717 0.7132,10.6996 1.4885,12.7766 0.6197,1.6597 1.1106,3.6221 1.0909,4.3609 -0.02,0.7388 -0.068,4.6678 -0.1086,8.731 -0.05,5.0483 -0.4972,8.9829 -1.4128,12.425 -1.1326,4.2581 -1.3818,7.7697 -1.6105,22.7067 -0.1489,9.7181 -0.5918,19.3894 -0.9842,21.4914 -0.6085,3.2606 -0.51,4.5632 0.6703,8.8598 0.7611,2.7704 1.3745,5.4905 1.3631,6.0446 -0.012,0.5541 -0.049,2.3639 -0.083,4.0226 -0.034,1.6583 -0.5167,4.0761 -1.0722,5.3731 -1.3203,3.0823 -1.2302,6.4899 0.3849,14.5503 1.1266,5.6229 1.3034,8.9741 1.1817,22.3956 -0.099,10.8973 -0.3959,16.2346 -0.9597,17.2431 -0.972,1.7383 -1.0374,3.6554 -0.4427,12.9797 0.3926,6.1568 0.2612,7.6841 -1.036,12.0367 -1.2007,4.0287 -1.3824,5.7035 -0.9469,8.7313 0.6404,4.4519 0.5041,6.1257 -0.8198,10.0688 -0.5475,1.6305 -0.8026,3.4438 -0.567,4.0297 1.1441,2.8434 2.3078,17.2662 1.671,20.7106 -0.3647,1.9731 -0.4785,4.9334 -0.2529,6.5795 0.2257,1.6462 0.071,4.7299 -0.3427,6.853 -1.0713,5.493 -1.4801,19.0323 -1.7896,59.2689 -0.177,23.0227 -0.537,36.4255 -1.0371,38.6182 -0.469,2.0567 -0.6206,6.2214 -0.391,10.7457 0.2061,4.0635 0.4038,7.9924 0.4395,8.7314 0.036,0.7384 -0.364,4.8689 -0.364,4.8689 l 0.4663,3.5577 4.1987,0.3244 4.2703,-0.5103 1.7337,0.2151 4.6798,2.236 4.2681,2.1433 0.8824,0.5989 c 0,0 5.3644,10.1211 5.4482,13.6395 0.084,3.5411 -3.0758,7.7461 -3.0758,7.7461 l -2.4062,2.7186 -8.5548,2.4566 z m -14.5633,-11.9118 6.2393,-0.5183 -8.6157,-6.4843 -3.2058,0.066 -3.8831,-0.1769 -5.0148,-0.5283 -12.5331,-2.0497 -2.0148,-0.069 -2.7473,0.5179 -5.6805,0.4629 -3.7496,-0.1738 -2.2998,0.035 c 0,0 -2.419,0.5435 -3.0779,0.3345 -0.6589,-0.209 -1.4015,-0.051 -1.6501,0.3511 -0.2793,0.4523 -0.7501,0.4982 -1.2319,0.1209 -1.0781,-0.8442 -12.3601,-0.949 -12.8728,-0.1194 -0.2278,0.3682 -1.0756,0.5289 -1.8841,0.3566 -0.8085,-0.1722 -3.2833,-0.4745 -5.4997,-0.6719 -5.3147,-0.4735 -7.8522,-0.9767 -8.7719,-1.7403 -0.4149,-0.3441 -0.9265,-0.4539 -1.1369,-0.2433 -0.5101,0.5102 -3.1487,0.8799 -9.2323,1.295 -3.3029,0.2252 -5.2893,0.6805 -5.7694,1.3233 -0.8964,1.2003 -4.4042,0.8749 -6.6855,-0.6196 -0.881,-0.5773 -2.271,-1.0497 -3.0889,-1.0497 -1.8998,0 -6.1335,1.4663 -6.7772,2.3473 -0.7357,1.0064 -0.6157,2.4964 0.1624,2.0153 0.3719,-0.2297 0.8577,0.054 1.0793,0.6322 0.2216,0.5772 0.8389,1.0497 1.3718,1.0497 0.5329,0 1.9362,0.5017 3.1183,1.1147 2.9922,1.552 10.5191,2.8898 14.2194,2.5277 1.7018,-0.1668 3.6405,-0.01 4.3082,0.3465 0.6743,0.3607 1.4835,0.3944 1.8205,0.076 1.1775,-1.1152 11.912,-1.2568 18.0687,-0.2388 3.3245,0.5496 6.174,1.1263 6.3323,1.2815 0.1583,0.1546 1.2161,0.1168 2.3507,-0.085 1.1345,-0.2015 3.2717,-0.3828 4.7493,-0.4024 1.4776,-0.02 13.9361,0.205 13.9361,0.205 l 11.2503,-0.1093 13.3912,-0.4015 m 12.6489,-7.7803 8.6157,6.4843 6.0254,0.6749 5.8024,-0.6895 -0.7536,-3.9879 -7.4485,-2.2703 -0.7846,0.4005 -5.6119,-0.7984 m -3.8308,-12.7893 c 0,0 0.3211,-2.3891 0.4901,-5.1207 0.1689,-2.7312 0.5121,-8.1395 0.7624,-12.0181 0.2503,-3.8786 0.5432,-18.5367 0.6509,-32.5736 0.1076,-14.0365 0.3208,-26.5789 0.4738,-27.872 0.1529,-1.293 -0.1079,-4.4392 -0.5798,-6.9915 -0.4948,-2.6778 -0.6256,-5.2517 -0.309,-6.0844 1.2598,-3.3139 2.124,-12.4986 2.044,-21.7291 -0.047,-5.4215 -0.1153,-13.6355 -0.1522,-18.2526 -0.037,-4.6175 0.2914,-11.2696 0.7294,-14.7819 0.7262,-5.825 0.6719,-6.9105 -0.6177,-12.3405 -1.0085,-4.2463 -1.2678,-6.7482 -0.9043,-8.7248 0.2802,-1.5238 0.4328,-5.0377 0.3391,-7.8081 -0.1114,-3.2867 0.3429,-7.3708 1.3072,-11.7531 0.9738,-4.4256 1.4538,-8.7777 1.4073,-12.7611 -0.039,-3.3245 0.2645,-9.2179 0.6739,-13.0965 0.544,-5.1535 0.5444,-7.9798 0,-10.4984 -0.514,-2.3851 -0.5328,-4.143 -0.061,-5.7086 1.127,-3.7416 0.9152,-18.4046 -0.3513,-24.3137 -0.6202,-2.8938 -1.068,-6.9739 -0.9952,-9.0668 0.073,-2.0935 0.1062,-7.1306 0.074,-11.1935 -0.065,-8.2584 -0.061,-19.7607 0.01,-26.8651 0.026,-2.5855 -0.01,-8.0151 -0.079,-12.0659 -0.1679,-9.9132 0.5296,-18.8078 1.7836,-22.744 1.0705,-3.3606 1.0462,-4.4282 -0.4918,-21.6058 -0.3639,-4.0633 -0.8244,-9.9567 -1.0234,-13.0965 -0.199,-3.1398 -0.5252,-6.8027 -0.7249,-8.1397 -0.1995,-1.337 0.1007,-4.0571 0.6673,-6.0446 1.3504,-4.7366 1.2598,-8.1276 -0.2048,-7.6673 -0.59,0.1854 -2.735,0.6668 -4.7667,1.0696 -2.0316,0.4029 -4.1472,0.8382 -4.7013,0.9674 -0.554,0.1292 -1.5822,0.258 -2.2846,0.2863 -1.2281,0.049 -1.2609,0.6139 -0.8534,14.659 0.2331,8.0343 0.8781,18.6878 1.4333,23.6746 1.9966,17.9312 2.445,23.9016 2.0681,27.5363 -0.5823,5.6157 -1.196,24.3231 -1.0531,32.103 0.077,4.1949 -0.1611,7.265 -0.6052,7.8 -0.4027,0.485 -0.8844,4.4744 -1.0705,8.8653 -0.1861,4.3909 -0.6802,8.8311 -1.098,9.8672 -0.5096,1.2634 -0.5893,3.6958 -0.2422,7.3875 0.669,7.116 0.5693,13.8244 -0.22,14.8046 -0.3827,0.476 -0.3783,2.4561 0.012,5.1394 0.6786,4.6709 0.3663,11.7894 -0.665,15.1593 -0.3764,1.23 -0.3969,3.5345 -0.051,5.7085 0.5528,3.4731 0.273,33.096 -0.3219,34.0742 -0.5,0.8221 -2.3653,15.8272 -2.2705,18.2641 0.204,5.2402 -1.0168,22.8515 -1.9437,28.0402 -1.2887,7.2152 -1.2812,9.6738 0.1334,43.4871 0.5903,14.1125 0.6218,15.8685 0.3672,20.4845 -0.1121,2.0315 -0.1543,6.7905 -0.094,10.5759 0.06,3.7849 -0.052,7.1442 -0.2505,7.4651 -0.7778,1.2582 -1.0273,30.9894 -0.3235,38.5441 0.5555,5.9629 -0.062,11.2177 -0.062,11.2177 l -0.3326,4.077 7.2792,0.2836 6.9971,-0.6236 z m -57.1628,-0.6321 2.7939,-0.4856 0.8157,-4.4846 c 0.4511,-2.4798 0.956,-13.0406 1.1297,-23.6256 0.1727,-10.5276 0.4523,-23.5234 0.6215,-28.8794 0.1691,-5.3565 0.368,-14.2722 0.4419,-19.8131 0.074,-5.5408 0.377,-10.4485 0.6735,-10.9069 0.2964,-0.4578 0.5793,-12.0876 0.6285,-25.8445 0.049,-13.7564 0.2993,-26.3774 0.5558,-28.0467 0.2564,-1.6693 0.6723,-5.2809 0.924,-8.0257 0.2518,-2.7452 0.7029,-5.4652 1.0025,-6.0445 0.6845,-1.3248 1.4507,-15.2937 1.4207,-25.904 -0.037,-13.0013 1.2615,-31.6231 2.8029,-40.2038 1.091,-6.0738 1.2637,-8.41 0.7269,-9.8325 -0.4579,-1.2134 -0.5841,-7.7229 -0.3605,-18.6092 0.2961,-14.4172 0.1893,-17.2083 -0.7687,-20.0926 -0.612,-1.842 -1.129,-5.1459 -1.1492,-7.3411 -0.02,-2.1952 -0.071,-6.2581 -0.1141,-9.0285 -0.1101,-7.1502 0.6787,-26.2243 1.3458,-32.5439 0.4181,-3.9603 0.3201,-6.301 -0.3788,-9.045 -0.7403,-2.9067 -0.7827,-4.4283 -0.1976,-7.0819 0.7178,-3.2553 1.7368,-17.0005 1.6199,-21.8493 -0.3079,-12.7559 -0.6783,-16.6102 -1.799,-18.7142 -0.9523,-1.7881 -1.1093,-3.0713 -0.7521,-6.1486 0.5713,-4.9227 0.6974,-4.876 -12.38,-4.5786 l -9.9459,0.2261 -0.4478,6.0445 c -0.2463,3.3246 -0.8503,7.9224 -1.3422,10.2175 -0.9568,4.4633 -0.8912,5.511 0.7683,12.2817 0.6963,2.8408 1.0154,6.7114 0.9138,11.0817 -0.086,3.6939 0.1569,8.1049 0.5395,9.8023 0.3827,1.6973 0.752,4.8064 0.8207,6.909 0.069,2.1026 0.3852,3.9837 0.7031,4.1802 0.318,0.1965 0.4171,0.6177 0.2204,0.9361 -0.1967,0.3183 -0.05,0.7686 0.3249,1.0007 0.9937,0.6141 0.8355,3.1875 -0.3409,5.5457 -0.5629,1.1283 -1.1814,4.2725 -1.3745,6.9875 -0.1931,2.7145 -0.6239,5.9932 -0.9574,7.2862 -0.7742,3.0017 -0.7813,15.7003 -0.012,20.4306 0.4342,2.6677 0.3186,4.7491 -0.4376,7.8837 -0.6861,2.8434 -0.9809,6.9381 -0.8869,12.3188 0.077,4.4326 0.096,9.1172 0.042,10.4097 -0.054,1.293 -0.2579,18.9734 -0.4524,39.2896 -0.3796,39.6372 -0.3771,39.277 -0.3358,48.3565 0.015,3.3245 -0.018,9.2179 -0.073,13.0965 -0.055,3.8786 0.082,8.0352 0.3057,9.2366 0.2234,1.2013 -0.016,5.4008 -0.532,9.3318 -0.516,3.9314 -0.8214,7.3371 -0.6786,7.5678 0.5387,0.8719 0.6533,17.8933 0.1261,18.7315 -0.7815,1.2417 -1.1366,28.1505 -0.3972,30.0954 0.3999,1.0517 0.2856,3.4141 -0.3292,6.8112 -0.594,3.2807 -1.0555,12.142 -1.2503,24.0054 -0.2092,12.7354 -0.5979,19.8433 -1.2045,22.0208 -0.6088,2.1857 -0.6843,3.5835 -0.2356,4.3652 0.7317,1.2754 0.7078,5.9942 -0.058,11.4076 -0.3914,2.7664 -0.2367,4.1264 0.707,6.2194 0.6643,1.4728 1.3368,2.5492 1.4945,2.3916 0.1577,-0.1577 1.1821,0.09 2.2763,0.55 2.0919,0.8795 7.7337,0.9299 12.4457,0.1109 z m -29.5266,-0.6609 c 1.337,-0.057 1.4395,-0.3239 1.0936,-2.8475 -0.3014,-2.1992 0.017,-3.6116 1.5133,-6.716 1.6772,-3.4797 1.9087,-4.7535 2.0141,-11.0822 0.066,-3.933 0.3295,-7.4912 0.5866,-7.9068 0.257,-0.416 0.555,-10.0803 0.6622,-21.4768 0.1072,-11.396 0.3658,-20.9968 0.5748,-21.3348 0.3716,-0.6014 0.5112,-6.5034 0.5373,-22.725 0.01,-4.4326 0.1908,-12.1395 0.4081,-17.1262 0.2173,-4.9868 0.3154,-10.2758 0.2179,-11.7537 -0.2064,-3.127 -0.2031,-3.3829 0.3293,-25.8571 0.2231,-9.4194 0.3556,-18.184 0.2944,-19.477 -0.1064,-2.2461 -0.1249,-5.7494 -0.069,-13.0966 0.053,-6.9472 0.04,-13.5111 -0.031,-15.7828 -0.1676,-5.3827 -0.083,-9.3474 0.3016,-14.104 0.2972,-3.6766 0.128,-5.8461 -0.6264,-8.0332 -0.8583,-2.4883 -0.8982,-3.5703 -0.2351,-6.3805 0.5932,-2.5135 0.6097,-4.2116 0.064,-6.6017 -0.5512,-2.4153 -0.5348,-3.5874 0.066,-4.7011 0.4758,-0.883 0.7268,-3.5925 0.6194,-6.6888 -0.2879,-8.2987 -0.2057,-12.7198 0.2939,-15.8096 0.2646,-1.636 0.1309,-4.211 -0.3094,-5.9594 -0.5922,-2.3523 -0.5842,-3.9698 0.034,-6.8575 0.4452,-2.0784 0.745,-4.6861 0.6663,-5.7943 -1.0217,-14.3789 -1.0615,-18.4197 -0.2184,-22.1633 2.6142,-11.6061 3.0208,-29.8662 0.8084,-36.2967 -1.038,-3.0169 -1.1675,-4.9295 -0.8489,-12.5301 0.3185,-7.5954 0.2029,-9.3047 -0.7541,-11.1553 -1.0166,-1.966 -1.0515,-3.1107 -0.3469,-11.3986 0.8104,-9.5319 0.8723,-13.2935 0.236,-14.3231 -0.6864,-1.1107 -4.9064,-0.6728 -5.556,0.5764 -1.2269,2.3599 -1.5194,8.5378 -0.5966,12.6041 0.5752,2.5352 0.7242,5.0632 0.4036,6.8487 -0.2795,1.5567 -0.6572,8.7317 -0.8395,15.9446 -0.1822,7.2129 -0.5375,13.4478 -0.7895,13.8554 -0.2519,0.4076 -0.5651,4.5661 -0.6961,9.2411 -0.131,4.675 -0.4231,9.4065 -0.6492,10.5147 -0.6313,3.0948 -0.903,21.8923 -0.3384,23.4186 0.2749,0.743 0.1206,3.3336 -0.3428,5.7569 -0.5006,2.6163 -0.6909,6.6395 -0.4689,9.9065 0.2418,3.5588 -0.024,8.1839 -0.7517,13.0966 -0.6192,4.1778 -1.4419,9.7111 -1.8284,12.2966 -0.3864,2.5861 -1.3126,7.8751 -2.0581,11.7537 -1.0146,5.2779 -1.3334,9.5015 -1.2672,16.7902 0.048,5.356 -0.2889,13.5162 -0.7499,18.1337 -0.461,4.6175 -0.7346,12.0221 -0.608,16.4548 0.1265,4.4327 0.2945,10.6283 0.3734,13.768 0.079,3.1396 0.504,9.3957 0.9447,13.9025 0.698,7.1345 0.663,8.6532 -0.2707,11.7531 -2.8421,9.4355 -2.7727,7.5245 -0.7108,19.5677 1.2142,7.0923 1.3364,24.0765 0.3511,48.8033 -0.8689,21.8062 -0.8766,24.7781 -0.1004,38.6176 0.3522,6.2798 0.6089,13.3822 0.5704,15.7834 -0.038,2.4007 0,9.6038 0.086,16.006 l 0.1555,11.6408 3.1901,-0.4967 c 1.7547,-0.273 3.8541,-0.5244 4.6655,-0.5586 z m 57.7949,0.093 2.1828,-0.948 0.6544,-0.8871 c 0,0 1.1246,-0.9097 1.6995,-2.0214 1.0036,-1.9403 1.1529,-5.099 0.9525,-20.1419 -0.027,-2.0315 0.1466,-10.0405 0.3859,-17.7977 0.2393,-7.7572 0.4676,-15.1618 0.5074,-16.4548 0.04,-1.293 -0.104,-3.4318 -0.3196,-4.753 -0.2156,-1.3218 -0.086,-3.8907 0.2876,-5.7091 0.7005,-3.4076 0.7905,-24.8462 0.109,-25.9488 -0.4529,-0.7329 -1.7119,-20.5691 -1.8237,-28.7358 -0.081,-5.9091 0.324,-11.0409 1.5128,-19.1729 0.3806,-2.6031 0.6641,-6.1221 0.63,-7.8201 -0.034,-1.698 0.1197,-3.3809 0.3417,-3.7401 0.2219,-0.3596 0.577,-3.6403 0.789,-7.2912 0.212,-3.6514 0.7137,-11.1719 1.1149,-16.7127 1.4017,-19.3572 1.6576,-30.6645 0.8763,-38.7234 -0.3881,-4.0031 -0.2566,-5.8532 0.5931,-8.3471 1.3433,-3.9425 1.372,-7.1421 0.097,-10.8016 -0.8667,-2.4878 -0.8552,-3.1527 0.1032,-5.966 0.8265,-2.4253 0.9797,-4.5193 0.655,-8.9535 -0.4624,-6.3165 0.4839,-22.9768 1.7593,-30.9733 0.4418,-2.7704 0.8497,-8.815 0.9063,-13.4325 0.3999,-32.6256 0.3142,-38.2357 -0.691,-45.2147 -0.5758,-3.9977 -1.2073,-7.528 -1.4032,-7.845 -0.196,-0.3171 -0.3813,-7.322 -0.4117,-15.5665 -0.04,-10.918 -0.3085,-15.7198 -0.9868,-17.6765 -0.5122,-1.4775 -0.9357,-3.3629 -0.9411,-4.1896 -0.01,-1.4724 -0.1436,-1.4974 -6.5353,-1.2189 -5.2026,0.2267 -6.6985,0.5211 -7.3792,1.452 -1.352,1.849 -1.8043,5.6579 -0.9517,8.0157 0.4298,1.1885 0.7225,4.4451 0.6503,7.2369 -0.082,3.1751 0.1741,5.4435 0.6838,6.0577 0.8817,1.0623 0.6226,8.8513 -0.7298,21.9359 -0.6654,6.4382 -0.7578,10.1085 -0.5238,20.8201 0.044,2.0318 -0.2067,7.3208 -0.558,11.7535 -0.3513,4.4326 -0.4893,10.3261 -0.3067,13.0965 0.1826,2.7704 0.064,6.5483 -0.2632,8.3949 -0.3273,1.8471 -0.3655,5.0205 -0.085,7.052 1.3947,10.0949 2.0159,23.6528 1.8928,41.3004 -0.075,10.7099 -0.3789,19.9279 -0.6756,20.4845 -0.2969,0.5561 -0.7433,2.6737 -0.9921,4.7052 -0.2488,2.032 -0.5991,4.6009 -0.7785,5.7091 -0.1794,1.1081 -0.4427,7.4549 -0.5852,14.1039 -0.6536,30.5054 -1.4814,42.0193 -3.9859,55.4367 -1.1078,5.9342 -1.3695,11.2297 -1.1941,24.15 0.058,4.2478 -0.1974,13.0124 -0.5668,19.4766 -0.8933,15.6312 -1.1402,24.5288 -1.6313,58.7666 -0.2278,15.8836 -0.4778,30.5417 -0.5556,32.5736 -0.078,2.0315 0.3778,4.4428 0.3778,4.4428 l 6.7246,0.4443 z m -24.3461,-394.0928 c 4.8021,-0.012 11.6022,-0.3275 15.1114,-0.7021 7.5139,-0.8023 12.5022,-0.7936 14.0305,0.025 1.6704,0.8939 6.4844,-0.2416 8.9543,-2.1121 2.1439,-1.6235 2.2503,-1.6365 4.1105,-0.5012 1.5265,0.9315 3.0016,1.107 7.3517,0.8744 2.9931,-0.16 5.7605,-0.5371 6.1497,-0.838 1.9123,-1.4781 4.8677,-1.9159 6.9688,-1.0325 2.8333,1.1913 8.2916,0.5461 12.2925,-1.453 3.2164,-1.6071 3.9456,-2.5985 3.9456,-5.3633 0,-1.2653 -0.355,-1.6242 -1.6071,-1.6242 -0.884,0 -1.764,-0.4086 -1.9556,-0.9079 -0.1917,-0.4995 -1.7374,-1.0984 -3.4351,-1.3312 -1.6977,-0.2326 -3.7643,-0.8473 -4.5927,-1.3658 -2.3128,-1.4478 -24.6065,-2.5284 -32.0646,-1.5542 -7.7423,1.0114 -12.0922,1.2705 -13.245,0.789 -1.2211,-0.5102 -5.6533,-0.486 -9.2572,0.05 -1.1065,0.1646 -5.4874,0.4315 -9.7354,0.5929 -9.9454,0.3781 -18.0224,1.0414 -19.5284,1.6038 -0.6539,0.2442 -4.8684,0.2929 -9.3657,0.1082 -4.4973,-0.1847 -8.3191,-0.1042 -8.4931,0.1789 -0.1739,0.283 -0.5506,0.3697 -0.8371,0.1927 -0.2864,-0.177 -2.098,0.2774 -4.0257,1.0099 -1.9277,0.7325 -3.7532,1.1783 -4.0568,0.9906 -0.3036,-0.1876 -1.8408,0.8027 -3.4161,2.2006 -2.6156,2.3212 -2.8261,2.7436 -2.4273,4.8697 0.4121,2.1969 0.6835,2.3987 4.821,3.5836 3.9148,1.1211 4.7959,1.1601 8.2268,0.3641 5.8336,-1.3535 16.8254,-0.6581 21.8354,1.3813 0.8162,0.3323 2.3907,0.4663 3.4988,0.2979 1.1082,-0.1684 5.9438,-0.3155 10.7459,-0.327 z m -324.3911,411.0931 c -1.1082,-0.2388 -3.1496,-0.3738 -4.5364,-0.3007 -1.3868,0.073 -2.6694,-0.1063 -2.8503,-0.399 -0.2997,-0.485 -12.6388,-0.9253 -17.4632,-0.6236 -7.7607,0.4861 -20.9352,0.01 -22.6088,-0.824 -1.5742,-0.7808 -23.4913,-2.0874 -24.1363,-1.4392 -0.2922,0.2937 -3.969,0.3829 -8.1708,0.1985 -5.3922,-0.2372 -8.1194,-0.089 -9.271,0.5052 -1.7606,0.9082 -10.9505,0.5652 -15.5063,-0.5787 -4.1266,-1.0362 -8.2769,-6.8057 -9.009,-12.5244 -0.4838,-3.7783 4.4908,-12.9237 7.0301,-12.9237 0.322,0 0.7436,-0.6045 0.9368,-1.3434 0.2241,-0.8563 0.9214,-1.3469 1.9253,-1.3535 3.3726,-0.02 3.4363,-0.2796 3.6764,-14.8661 0.1236,-7.5169 0.7209,-21.6763 1.3273,-31.4649 0.7509,-12.1219 0.9533,-21.1182 0.6349,-28.2079 -0.2572,-5.7257 -0.4036,-11.317 -0.3253,-12.4251 0.2091,-2.9593 0.3112,-21.8335 0.158,-29.2154 -0.207,-9.9811 0.3902,-61.1885 0.8224,-70.5198 0.7532,-16.2563 0.8463,-20.7263 0.9868,-47.349 0.1463,-27.735 -0.2197,-39.5717 -1.4743,-47.685 -0.3998,-2.5856 -0.7763,-14.3725 -0.8366,-26.1929 -0.082,-16.1363 -0.3304,-21.9939 -0.9961,-23.5067 -0.616,-1.3998 -0.8329,-4.5771 -0.7106,-10.41 0.5104,-24.3421 0.1787,-26.9214 -3.7037,-28.7964 -1.1082,-0.5352 -2.7705,-1.3938 -3.6939,-1.908 -0.9235,-0.5142 -2.6304,-1.3629 -3.7931,-1.886 -3.3449,-1.5049 -6.7307,-5.1174 -7.5449,-8.0503 -0.409,-1.4732 -0.7453,-4.9682 -0.7474,-7.7666 -0.01,-4.4296 0.1943,-5.274 1.5265,-6.5256 1.4223,-1.3361 5.7593,-3.2311 8.8736,-3.8772 1.2184,-0.2528 29.5507,-1.8332 31.9081,-1.7798 17.9269,0.4055 57.2564,-0.2807 60.7876,-1.0605 1.8435,-0.4071 5.4674,-1.2293 8.0532,-1.8269 5.8739,-1.3577 16.6939,-1.2416 17.7664,0.1907 0.202,0.2697 0.8206,0.5745 1.3746,0.6773 3.9516,0.7335 6.0513,4.1379 6.216,10.0785 0.091,3.2971 -0.2742,4.6213 -2.4198,8.7676 -2.3708,4.5812 -9.5733,12.8688 -11.184,12.8688 -0.3693,0 -0.6716,0.2532 -0.6716,0.5628 0,0.3095 -1.1006,0.6042 -2.4457,0.6547 -2.9998,0.1128 -3.0015,0.1144 -3.3218,3.2712 -0.1431,1.4098 -0.7641,7.0967 -1.3799,12.6375 -0.6159,5.5408 -1.0819,12.7943 -1.0355,16.1188 0.2334,16.7158 0.7641,37.4931 1.0722,41.9761 0.1903,2.7705 0.5103,13.9529 0.7111,24.8497 0.2986,16.213 1.2688,51.6593 1.6912,61.789 0.3489,8.3677 0.2487,27.945 -0.1823,35.5959 -0.2808,4.9867 -0.2111,17.6803 0.155,28.2079 1.4779,42.4972 1.8692,63.2628 2.22,117.8169 l 0.1897,29.5 4.3532,1.4295 c 5.1144,1.6794 6.6635,2.5609 10.0619,5.7252 3.2684,3.0435 4.7239,5.9947 5.1917,10.5276 0.4419,4.2811 -1.2436,8.4403 -4.5468,11.2197 -2.0118,1.693 -2.8606,1.6971 -6.9675,0.035 -0.7828,-0.3168 -1.1284,-0.266 -0.8839,0.13 1.2277,1.9861 -2.7707,3.255 -7.2332,2.2949 z m 7.7294,-9.1031 c 1.0706,-1.1394 2.0019,-1.5525 2.876,-1.2749 1.2035,0.3818 1.2597,0.1622 0.8143,-3.184 -0.5794,-4.3536 -2.1084,-6.1856 -6.0944,-7.3013 -1.6361,-0.4584 -2.9747,-1.0961 -2.9747,-1.4175 0,-0.3213 -0.4856,-0.5843 -1.0793,-0.5843 -0.6745,0 -0.9369,0.3708 -0.6997,0.9893 0.5303,1.3817 -2.0852,3.0404 -4.7949,3.0404 -1.235,0 -2.8493,0.3234 -3.5874,0.7183 -0.9976,0.534 -1.6162,0.4907 -2.4102,-0.1677 -0.8006,-0.6644 -4.617,-0.9122 -15.2364,-0.9898 -7.7925,-0.057 -15.5282,-0.3153 -17.1905,-0.5737 -3.7634,-0.5853 -6.9108,-0.5209 -13.7681,0.2831 -2.9551,0.346 -6.1285,0.6639 -7.052,0.7057 -9.1122,0.4135 -13.2245,0.3697 -13.9066,-0.1481 -0.4456,-0.3385 -1.074,-0.4519 -1.3965,-0.2524 -0.3225,0.199 -1.9704,-0.054 -3.662,-0.5636 -1.6915,-0.5088 -3.247,-0.7541 -3.4565,-0.5446 -0.2095,0.2096 -0.8273,0.01 -1.3729,-0.4422 -0.8573,-0.7118 -2.5576,-0.8286 -8.2752,-0.5702 -0.6464,0.03 -1.6287,-0.133 -2.1828,-0.3602 -1.3503,-0.5536 -3.4355,1.3394 -4.8527,4.4045 -1.9475,4.2131 -0.7263,5.2557 5.6326,4.8074 1.9721,-0.1385 4.5679,0.071 5.7684,0.4665 1.5889,0.5233 2.8293,0.5057 4.5591,-0.065 2.2355,-0.7379 7.0204,-1.2054 14.7499,-1.4406 1.847,-0.056 5.0203,0.2549 7.052,0.6916 2.0316,0.4367 5.213,0.7727 7.0698,0.747 1.8567,-0.025 4.5123,0.4281 5.9014,1.0084 1.3891,0.5808 3.4967,1.0361 4.6835,1.0125 2.6312,-0.052 24.9631,-0.1451 32.3808,-0.1345 2.9551,0.01 6.4307,0.1864 7.7236,0.405 1.2929,0.2181 4.3801,0.6402 6.8605,0.9374 2.4804,0.2972 4.722,0.752 4.9812,1.0114 0.7688,0.7687 1.2722,0.5612 2.9397,-1.2139 z m -35.8863,-19.9743 c -0.4951,-1.6954 -1.4013,-23.1466 -1.2838,-30.391 0.042,-2.5855 0.04,-6.3634 -0.01,-8.3949 -0.1056,-4.8411 0.026,-13.8249 0.2452,-16.7907 0.5368,-7.249 -0.2562,-27.4463 -1.1946,-30.4293 -0.7383,-2.3468 -0.8289,-3.6399 -0.3315,-4.7314 0.3764,-0.8266 0.5913,-2.3508 0.4774,-3.388 -0.4189,-3.8156 -0.5451,-14.9295 -0.1766,-15.5491 1.1164,-1.8768 1.2063,-5.0553 0.2105,-7.4388 -1.0263,-2.4561 -1.2722,-9.9786 -0.9853,-30.1392 0.032,-2.2163 0,-5.5408 -0.068,-7.3874 -0.069,-1.8472 0.029,-4.5672 0.2171,-6.0446 0.1884,-1.4779 -0.035,-4.5002 -0.4956,-6.7165 -0.6837,-3.2867 -0.6747,-4.3546 0.049,-5.7932 0.6674,-1.3268 0.7825,-3.8237 0.4646,-10.0743 -0.5517,-10.8494 -0.3522,-20.7882 0.5143,-25.6173 0.3824,-2.1307 0.4681,-4.2418 0.1906,-4.6906 -0.2775,-0.4493 -0.5374,-5.6572 -0.5775,-11.5728 -0.054,-7.9687 -0.3893,-12.0145 -1.2935,-15.6111 -1.3005,-5.1721 -1.2911,-5.2985 1.6307,-21.6742 0.3625,-2.032 0.4902,-4.2302 0.284,-4.8855 -0.2063,-0.6554 -0.3693,-3.2243 -0.3622,-5.7086 0.012,-4.3445 -1.1191,-12.7011 -2.7285,-20.1521 -0.9074,-4.2019 -1.0314,-18.4178 -0.2917,-33.4511 0.4268,-8.6738 0.3458,-11.2557 -0.4108,-13.0966 -0.7702,-1.8737 -0.7987,-3.0743 -0.1559,-6.5663 0.5062,-2.7507 0.5796,-5.3807 0.2059,-7.3813 -0.3194,-1.7095 -0.4224,-3.5206 -0.2289,-4.0249 0.1935,-0.5042 -0.1038,-3.2271 -0.6607,-6.0509 -0.5571,-2.8239 -0.9376,-6.7965 -0.8459,-8.8281 l 0.1669,-3.694 -5.0372,0.1084 c -2.7704,0.06 -6.5482,0.1465 -8.3951,0.1933 l -3.3581,0.085 -0.01,7.5304 c -0.011,8.4941 -1.3602,22.8243 -2.3173,24.6126 -0.3618,0.6759 -0.3809,1.441 -0.044,1.7881 0.3233,0.3336 0.7216,4.0822 0.8854,8.3302 0.1637,4.2479 0.8079,11.65 1.4316,16.4489 0.6237,4.7989 0.9906,9.2735 0.8154,9.9435 -0.1753,0.6704 0.2965,3.393 1.0484,6.0506 1.1801,4.1707 1.358,6.6525 1.3006,18.1432 -0.036,7.3215 -0.2516,13.6113 -0.4778,13.9775 -0.5277,0.8538 -1.2014,4.5526 -1.146,6.2919 0.1918,6.0219 1.1364,16.2236 1.8345,19.8125 0.5205,2.6753 0.663,5.7958 0.3681,8.0595 -0.2646,2.0319 -0.3873,3.9964 -0.2726,4.3656 0.7234,2.3312 1.6276,19.7884 1.7045,32.9091 0.055,9.3847 0.3604,15.7864 0.7781,16.3118 1.0556,1.3267 0.9443,18.463 -0.1666,25.6646 -0.9788,6.3443 -1.2633,19.0726 -0.7131,31.9017 0.1584,3.6937 0.044,11.8539 -0.2545,18.1337 -0.6346,13.3564 -0.6436,13.7397 -0.423,18.1336 0.093,1.8471 0.1634,8.9495 0.1572,15.7829 -0.013,14.7512 0.2821,21.9498 1.1991,29.2153 0.8602,6.8173 2.1573,30.042 2.0326,36.3978 l -0.095,4.8311 2.8029,0.7551 c 1.5416,0.4151 4.8616,0.8105 7.3778,0.879 2.5162,0.069 4.8007,0.3506 5.0767,0.6266 1.0194,1.019 1.7646,0.4564 1.3364,-1.0095 z m 16.7325,-0.1339 c 2.4698,0.3702 2.9246,0.2256 3.8826,-1.2367 1.1232,-1.7141 1.1448,-2.0345 1.2759,-18.9461 0.04,-5.1711 0.1525,-10.6112 0.2499,-12.0891 0.4164,-6.3211 0.3002,-11.9557 -0.4154,-20.1485 -0.8311,-9.5137 -0.8507,-10.4581 -0.6285,-30.2228 0.1186,-10.5528 -0.313,-32.895 -0.7137,-36.9388 -0.037,-0.3692 -0.028,-3.996 0.019,-8.0594 0.1178,-10.1408 -0.6101,-30.7139 -1.2572,-35.5294 -0.3187,-2.3725 -0.2574,-5.0472 0.1527,-6.6631 0.4885,-1.9242 0.4532,-3.8212 -0.1229,-6.6108 -0.6276,-3.0384 -0.6285,-4.2468 -0.01,-5.4139 1.0079,-1.8833 1.2493,-24.697 0.471,-44.5106 -0.3047,-7.7571 -0.6855,-18.0329 -0.8463,-22.8348 -0.1608,-4.8024 -0.4936,-10.174 -0.7397,-11.9375 -0.2535,-1.8174 -0.1625,-3.5627 0.2102,-4.0297 0.4193,-0.5249 0.4558,-4.3526 0.1007,-10.5618 -0.3063,-5.356 -0.5587,-14.5075 -0.561,-20.3359 0,-5.8285 -0.2024,-10.918 -0.4446,-11.3099 -0.2423,-0.3919 -0.5264,-8.3168 -0.6315,-17.6107 -0.1424,-12.5984 -0.4381,-17.6051 -1.1619,-19.6775 -0.8054,-2.3058 -0.8221,-3.0501 -0.098,-4.3655 0.6,-1.0899 0.7494,-2.9807 0.4777,-6.0458 -0.2993,-3.3757 -0.1509,-4.8089 0.6106,-5.896 1.1643,-1.6623 0.9206,-9.8545 -0.3868,-13.005 -0.7666,-1.8472 -0.8384,-1.867 -6.0865,-1.6791 -4.7012,0.1683 -5.3391,0.3443 -5.5584,1.5334 -0.7981,4.3255 -0.9705,24.513 -0.2567,30.04 1.0326,7.9956 1.3548,23.3098 0.5253,24.9687 -0.3518,0.7037 -0.6958,6.8993 -0.7643,13.768 -0.1028,10.3004 0.092,13.299 1.1139,17.1101 0.9492,3.5421 1.2353,6.9925 1.225,14.7759 -0.022,16.6825 -0.4224,27.533 -1.0685,28.9595 -0.7866,1.7368 -0.7022,5.4743 0.2653,11.7531 0.8221,5.3353 1.1519,28.3797 0.462,32.2799 -0.2246,1.2699 -0.1514,4.3516 0.1626,6.849 0.314,2.4974 0.4251,4.6866 0.2468,4.8649 -0.7598,0.7601 -1.1128,63.3374 -0.3845,68.1665 0.195,1.293 0.4479,10.0576 0.562,19.477 0.1141,9.4195 0.5299,19.3854 0.924,22.1468 0.3941,2.7613 0.5588,6.6903 0.3661,8.7313 -0.7497,7.9381 -0.1353,52.7917 0.8794,64.1937 0.551,6.1917 1.0754,7.1699 3.3738,6.2964 0.9767,-0.3717 3.0347,-0.4865 4.5733,-0.2558 z m -46.7545,-0.3113 3.61,-0.059 -0.419,-2.0949 c -0.256,-1.2799 0.025,-3.3462 0.7232,-5.3107 1.01,-2.8439 1.0405,-3.7279 0.2633,-7.6383 -0.5908,-2.9719 -0.7251,-6.3659 -0.4097,-10.3508 0.3538,-4.4709 0.2054,-6.9915 -0.6034,-10.248 -1.6026,-6.4521 -1.6692,-7.5446 -1.6357,-26.8177 0.017,-9.7891 -0.069,-20.0649 -0.192,-22.8353 -0.2105,-4.7556 -0.2142,-7.3643 -0.027,-19.4766 0.1291,-8.3626 -0.442,-30.1704 -0.8054,-30.7582 -0.1869,-0.3022 -0.026,-3.4036 0.3572,-6.8913 0.6517,-5.9297 1.3792,-18.3336 1.2976,-22.1246 -0.02,-0.9233 0.297,-2.9527 0.7042,-4.5097 0.7692,-2.9412 -0.035,-11.4444 -1.5301,-16.1687 -0.4424,-1.3983 -0.4655,-2.507 -0.063,-3.0223 0.3498,-0.4473 0.5177,-3.0802 0.3733,-5.8506 -0.2391,-4.5848 -0.3025,-8.1864 -0.2512,-14.2717 0.021,-2.4974 -0.4261,-14.6026 -0.9699,-26.2581 -0.2347,-5.029 -0.7359,-8.6618 -1.3623,-9.8732 -1.1739,-2.2698 -1.3014,-5.7414 -0.2351,-6.4007 0.8169,-0.5047 0.3594,-8.3491 -0.7875,-13.5015 -0.4937,-2.2184 -0.3429,-3.7215 0.7182,-7.1568 0.8937,-2.8933 1.1594,-4.8754 0.794,-5.9232 -0.5782,-1.6577 -0.5338,-3.1482 0.2301,-7.7335 0.3177,-1.9065 0.1192,-3.8211 -0.622,-5.9962 -0.5988,-1.7574 -1.0887,-4.5213 -1.0887,-6.1417 0,-1.621 -0.369,-3.6071 -0.82,-4.4141 -0.451,-0.8069 -1.0436,-4.7913 -1.3168,-8.8547 -1.0168,-15.1249 -2.4669,-32.3172 -2.9309,-34.7506 -0.3098,-1.625 -0.1956,-2.8545 0.3233,-3.4798 0.4414,-0.5318 0.9038,-2.479 1.0276,-4.3272 0.1238,-1.8482 0.4239,-3.682 0.6669,-4.0751 0.2429,-0.3932 0.434,-3.5473 0.4246,-7.0091 -0.01,-3.4618 0.254,-7.24 0.5855,-8.396 0.3672,-1.2802 0.3586,-2.1017 -0.022,-2.1017 -0.3437,0 -0.6248,0.3128 -0.6248,0.6952 0,0.4679 -0.4056,0.4782 -1.2403,0.031 -0.6822,-0.3651 -1.5133,-0.4124 -1.8469,-0.1052 -1.0171,0.9368 -5.5019,1.4947 -5.9669,0.7423 -0.2353,-0.3807 -0.6476,-0.6922 -0.9164,-0.6922 -0.6197,0 -0.4856,22.4997 0.1663,27.8721 1.3663,11.2618 1.4865,13.8658 0.9131,19.7813 -0.8171,8.4296 -0.3133,25.1807 0.7977,26.5191 0.5948,0.7167 0.7875,3.664 0.6708,10.2621 -0.09,5.0905 0.183,12.3742 0.6067,16.1853 0.4567,4.1088 0.5288,7.3895 0.1771,8.0594 -0.3454,0.6579 -0.3254,4.2156 0.048,8.5178 0.3526,4.0635 0.4147,8.4458 0.1381,9.7388 -0.2767,1.2925 -0.5469,9.4527 -0.6005,18.1337 -0.054,8.6804 -0.4372,18.5028 -0.8526,21.8274 -1.9555,15.6533 -2.3119,21.9477 -1.9016,33.581 0.4903,13.8979 0.4674,11.7345 0.3272,30.8942 -0.1808,24.7177 0.6921,75.4366 1.4333,83.2804 1.1558,12.2322 1.5735,22.5945 1.6651,41.3045 0.048,9.7891 0.1434,18.0208 0.2123,18.2933 0.069,0.2725 1.7118,0.3743 3.6511,0.2262 1.9393,-0.1476 5.1505,-0.2952 7.136,-0.3274 z m -21.0753,-1.4124 c -0.2363,-0.7445 -0.1257,-2.3312 0.2459,-3.526 0.3715,-1.1948 0.8784,-7.6121 1.1265,-14.2612 0.2481,-6.649 0.5651,-12.2785 0.7047,-12.5102 0.1395,-0.2312 -0.1997,-1.9473 -0.7539,-3.8136 -0.5542,-1.8662 -0.9493,-5.4547 -0.878,-7.9743 0.071,-2.52 -0.087,-7.4529 -0.3526,-10.9618 -0.2652,-3.5093 -0.5893,-8.8522 -0.7202,-11.8735 -0.131,-3.0213 -0.4372,-5.8149 -0.6805,-6.2088 -0.2433,-0.3939 -0.412,-4.1173 -0.3747,-8.275 0.225,-25.1514 0.192,-26.7305 -1.0503,-50.207 -0.2835,-5.3565 -0.4743,-13.5167 -0.4241,-18.1337 0.3268,-30.0581 0.6687,-43.5551 1.1218,-44.2885 0.2855,-0.4619 0.6502,-5.4194 0.8104,-11.0172 0.1603,-5.5972 0.5682,-11.6881 0.9066,-13.5353 0.5697,-3.1104 -0.01,-18.4278 -1.0817,-28.7917 -0.2925,-2.8173 -0.08,-4.9872 0.7438,-7.6071 0.9353,-2.9739 1.0233,-4.3213 0.4663,-7.1386 -0.4764,-2.4092 -0.4593,-5.9947 0.056,-11.7027 0.5621,-6.2305 0.5503,-8.7611 -0.048,-10.4168 -0.4349,-1.2024 -0.7998,-4.2997 -0.8108,-6.8828 -0.011,-2.583 -0.3576,-6.8117 -0.7701,-9.3977 -0.4126,-2.5856 -0.8207,-7.8746 -0.9069,-11.7532 -0.086,-3.8786 -0.3516,-8.312 -0.5896,-9.852 -0.2487,-1.6089 -0.026,-4.7427 0.5245,-7.3668 0.5265,-2.5118 0.8029,-4.8168 0.6141,-5.1223 -0.1888,-0.3054 -0.446,-1.6749 -0.5716,-3.0432 -0.9496,-10.3462 -1.2399,-12.6429 -1.6732,-13.2337 -1.0802,-1.4729 -1.3195,-5.5628 -0.4692,-8.0187 0.7569,-2.1866 0.7242,-3.2021 -0.2269,-7.0292 -1.4934,-6.0098 -2.3412,-7.4513 -4.3823,-7.4513 -0.9223,0 -2.7715,-0.4573 -4.1092,-1.0162 -1.3377,-0.5589 -2.5621,-0.8864 -2.7209,-0.7276 -0.5258,0.5259 -0.2909,6.0805 0.3294,7.7884 0.3399,0.9359 0.4372,7.6242 0.2198,15.1114 -0.2903,9.9973 -0.1248,15.6651 0.6472,22.1633 1.0648,8.9632 1.2068,16.3391 0.3944,20.4844 -0.8225,4.1968 1.1685,34.3148 3.0067,45.4821 0.047,0.2881 0.05,0.675 0.01,0.8593 -0.3697,1.5343 -0.5063,30.0641 -0.1705,35.5959 0.2355,3.8786 0.226,9.4698 -0.021,12.4251 -1.0205,12.2029 -1.3422,32.9877 -1.5175,98.0558 -0.1318,48.906 -0.4187,70.3304 -1.0026,74.8855 -0.5092,3.9723 -0.7369,12.4639 -0.6033,22.4993 l 0.2146,16.1189 4.0297,0.7142 c 2.2164,0.3929 4.4831,0.9042 5.0372,1.1359 1.2756,0.5339 3.3408,0.9938 4.9144,1.0941 0.9298,0.059 1.1182,-0.2448 0.791,-1.2759 z m 8.1243,-380.1929 c 0.4033,-0.3254 1.7117,-0.6987 2.9075,-0.8297 1.1959,-0.1309 2.811,-0.7831 3.5891,-1.4494 1.1783,-1.0088 1.7452,-1.0866 3.3915,-0.4652 1.4197,0.5359 2.9103,0.546 5.2894,0.036 2.358,-0.5057 3.8329,-0.5 5.1184,0.02 0.9933,0.4015 3.3171,0.7421 5.164,0.7566 1.8469,0.015 3.9208,0.033 4.6085,0.042 0.6878,0.01 1.7701,-0.4547 2.4052,-1.0295 0.6351,-0.5747 1.3337,-0.8659 1.5525,-0.6471 0.2188,0.2188 6.6922,0.5066 14.3853,0.6395 9.9006,0.1711 14.7538,0.5213 16.6104,1.1985 2.4065,0.8777 2.8099,0.8464 4.8866,-0.3789 1.245,-0.7345 2.6071,-1.9811 3.0269,-2.7701 0.4198,-0.789 1.5865,-2.4924 2.5926,-3.7852 2.1905,-2.8145 2.8434,-5.7229 1.5296,-6.8132 -1.3938,-1.1568 -19.6666,0.037 -21.3325,1.394 -1.1135,0.9067 -10.7391,1.6168 -18.5118,1.3655 -8.7201,-0.282 -14.0141,-0.2092 -18.8053,0.2585 -5.133,0.5012 -11.7606,0.5164 -20.8201,0.048 -4.248,-0.2196 -8.177,-0.3706 -8.731,-0.3354 -14.0974,0.8943 -21.1509,1.5313 -24.0104,2.1683 -3.3316,0.7422 -3.5248,0.8999 -3.5037,2.861 0.042,3.9065 3.9468,6.6921 9.1847,6.5524 1.7699,-0.047 6.8447,-0.2255 11.2774,-0.3962 7.5656,-0.2914 13.7681,0.4435 13.7681,1.6313 0,0.7023 3.5391,0.6452 4.4271,-0.071 z"
             id="path3717"
             sodipodi:nodetypes="cccccccccsssssssscccccscsssssssssssssssssssssssssssssssscssssssssssssssssssssssssssssssssssssssssssssssssssssssccccccccscccccccccccccccccssssssssssssssssssssssssccccccccccccssssssssssssssscsssssssssssssssssssssssssssssssssssccccsccssssssssssssssssssssssscsssssssssssssssssssssssssssssssssssssssssssssssssssssssssssssssssssssssssssssssssssssssscssccccssssssssssssssssssssssssssssssssssssssssssssssccssssssssssssssssssssssssssssssssccssssssssssscssssssssssssssscssssssssssssssssssssscsssssscsssssssssssssssssssssssssssssssssssssscssssssssssssssssssssssssssscsscsssssssssssssssssssssscsssssssssssssssscssssscsssssssssssssssssssssssssssccssssssssssssssssssssssssssssssssssssssssssssssssssssssssssssssssssssssssssssssssssssssssssssssssssssscssssssssssssssssssssssssssssssss" /><path
             style="fill:#000000;stroke-width:0.503712"
             d="m -4164.127,5385.4949 c -0.6481,-0.4911 -1.0939,-1.668 -1.2099,-3.1943 -0.101,-1.3292 -0.2047,-2.578 -0.2307,-2.7751 -0.026,-0.1971 -0.6755,-0.5161 -1.4436,-0.7089 -1.293,-0.3245 -1.3965,-0.5958 -1.3965,-3.6587 0,-1.8194 -0.2378,-3.455 -0.5283,-3.6346 -0.3088,-0.1908 -0.5032,-5.3689 -0.4678,-12.4623 0.033,-6.7591 -0.2176,-13.7446 -0.5672,-15.7669 -0.3451,-1.9971 -0.7755,-7.7788 -0.9564,-12.8484 -0.1809,-5.0695 -0.423,-10.39 -0.538,-11.8233 -0.1149,-1.4333 -0.3646,-4.7012 -0.5547,-7.2621 -0.19,-2.5608 -0.6912,-5.913 -1.1136,-7.4491 -2.9084,-10.5774 -2.8837,-10.9424 0.9285,-13.7039 1.7094,-1.2383 2.9094,-1.6583 4.738,-1.6583 2.1942,0 2.5657,0.1981 3.5726,1.9047 0.6845,1.1599 1.952,2.236 3.2419,2.7521 1.1649,0.4661 2.5419,1.4944 3.0599,2.285 0.518,0.7907 1.2679,1.4375 1.6664,1.4375 0.3984,0 1.5691,0.7542 2.6015,1.6759 1.0324,0.9217 2.2915,1.6759 2.7979,1.6759 1.2682,0 6.0348,3.2285 6.7559,4.5758 0.3241,0.6058 1.3085,1.4037 2.1874,1.7733 1.6224,0.6821 5.2901,3.7407 5.6554,4.716 0.11,0.2937 1.5642,1.2549 3.2315,2.1362 3.5806,1.8923 4.9645,4.0031 4.7131,7.1884 -0.1902,2.4087 -2.6695,5.3064 -4.5413,5.3076 -0.5328,3e-4 -2.2565,1.1943 -3.8304,2.6534 -3.7149,3.444 -5.6762,5.0627 -6.9779,5.7594 -1.6514,0.8838 -1.2448,2.5137 1.0881,4.3614 1.9542,1.5478 3.7042,3.1728 12.1032,11.2384 1.5361,1.4752 3.9242,3.3481 5.3068,4.1619 4.3569,2.5646 4.7388,2.8154 5.1588,3.3871 1.1264,1.5332 0.3978,3.4244 -1.84,4.7757 -1.2471,0.753 -4.4977,3.0684 -7.2235,5.1453 -2.7258,2.0769 -6.4806,4.4972 -8.3439,5.3784 -1.8633,0.8812 -4.2059,2.2157 -5.2058,2.9656 -2.1458,1.6094 -7.5905,4.3592 -8.6312,4.3592 -0.4006,0 -0.7283,0.2091 -0.7283,0.4646 0,0.2555 -1.194,1.2297 -2.6534,2.1649 -5.6879,3.6448 -7.8103,4.2286 -9.8245,2.7022 z m 7.4452,-12.3083 c 0.3797,-0.4575 0.9291,-0.6842 1.2209,-0.5039 0.2917,0.1803 0.9546,-0.054 1.4729,-0.5213 0.5183,-0.467 1.6965,-1.0297 2.6182,-1.2503 1.7726,-0.4244 4.5119,-1.6906 5.5339,-2.5578 1.1463,-0.9729 9.2671,-6.066 9.688,-6.0761 0.2308,-0.01 1.2361,-0.9935 2.2341,-2.1957 1.6486,-1.9857 1.7343,-2.2657 0.9377,-3.0623 -0.4823,-0.4822 -1.2136,-0.8768 -1.6252,-0.8768 -0.4116,0 -1.34,-0.6913 -2.063,-1.5362 -0.723,-0.8449 -2.396,-2.2732 -3.7176,-3.174 -1.3217,-0.9008 -3.8838,-3.1004 -5.6938,-4.8879 -1.8099,-1.7876 -3.5465,-3.2502 -3.8591,-3.2502 -0.3126,0 -0.97,-0.7767 -1.4608,-1.726 -0.8552,-1.6538 -0.9372,-1.6856 -1.958,-0.7618 -1.0153,0.9188 -1.1178,0.9014 -2.1759,-0.3689 -0.9103,-1.0927 -1.0496,-1.8364 -0.7725,-4.1261 0.2705,-2.2355 0.7966,-3.2983 2.6351,-5.3235 1.2634,-1.3917 3.177,-2.9782 4.2524,-3.5255 3.2489,-1.6535 9.4965,-6.4791 9.4965,-7.335 0,-0.4409 -1.1352,-1.3039 -2.5228,-1.9177 -1.3875,-0.6138 -3.9075,-2.5006 -5.5999,-4.1931 -2.0533,-2.0532 -3.7007,-3.1941 -4.9515,-3.4287 -1.2257,-0.2299 -2.0844,-0.8125 -2.4812,-1.6832 -0.3344,-0.734 -1.3046,-1.5004 -2.1619,-1.7078 -0.8553,-0.2069 -2.2224,-0.8423 -3.0379,-1.4119 -0.8156,-0.5697 -1.7177,-1.0358 -2.0047,-1.0358 -0.7757,0 -0.4992,8.3109 1.3474,40.5002 0.1586,2.7651 0.4777,5.2789 0.7091,5.5862 0.2315,0.3073 0.3319,1.9412 0.2233,3.6311 -0.2586,4.0219 -0.3667,10.1443 -0.2452,13.8767 0.1453,4.4602 2.1974,6.969 3.9615,4.8433 z m 65.3406,8.3999 c -1.5169,-0.8317 -5.6191,-5.8463 -7.7903,-9.5233 -0.7257,-1.229 -2.5342,-3.3657 -4.019,-4.7483 -1.5914,-1.482 -2.6979,-2.9988 -2.6955,-3.6954 0.01,-0.6499 -0.4559,-1.7811 -1.0181,-2.5138 -0.5622,-0.7328 -1.1828,-1.7722 -1.379,-2.3098 -0.1963,-0.5377 -0.5868,-0.9776 -0.8679,-0.9776 -0.281,0 -0.6473,-0.5214 -0.814,-1.1587 -0.1667,-0.6373 -0.8031,-1.2895 -1.4144,-1.4494 -0.6113,-0.1598 -1.259,-0.8785 -1.4393,-1.5971 -0.1804,-0.7186 -0.7877,-1.4525 -1.3497,-1.6309 -0.9932,-0.3152 -4.0033,-4.3653 -4.0033,-5.3865 0,-0.2797 -0.7541,-0.5085 -1.6759,-0.5085 -0.9216,0 -1.6758,-0.2168 -1.6758,-0.4818 0,-0.265 -0.7574,-1.4349 -1.683,-2.5997 -1.1857,-1.4919 -1.6766,-2.7115 -1.6612,-4.1268 0.012,-1.1049 -0.1165,-3.0145 -0.2858,-4.2435 -0.2918,-2.1187 -0.1407,-2.4093 2.918,-5.6105 3.9619,-4.1463 7.008,-7.883 7.5251,-9.2312 0.2139,-0.5577 1.0093,-1.4204 1.7674,-1.9171 0.7582,-0.4968 1.805,-1.8312 2.3263,-2.9654 0.5213,-1.1341 1.2342,-2.3163 1.5843,-2.6271 0.9783,-0.8683 3.1504,-4.075 3.1504,-4.6509 0,-0.2821 0.3917,-0.8379 0.8705,-1.2353 0.4788,-0.3973 1.7198,-2.5364 2.7578,-4.7535 2.004,-4.2803 4.1886,-6.3919 6.6129,-6.3919 0.7755,0 1.7643,0.3542 2.1972,0.7872 0.433,0.4329 1.3936,0.8729 2.1348,0.9776 1.0342,0.1461 1.3867,0.58 1.5161,1.8662 0.093,0.9218 0.5458,2.4957 1.0067,3.4976 0.461,1.002 0.7158,2.0197 0.5663,2.2617 -0.474,0.7668 2.1535,4.8363 3.2602,5.0494 1.1148,0.2147 3.0479,2.1996 3.0797,3.1622 0.01,0.3102 0.5213,0.8779 1.1358,1.2616 0.6145,0.3838 1.1172,0.9879 1.1172,1.3424 0,0.6251 3.0255,5.6731 4.178,6.9709 0.3137,0.3533 1.8273,2.1616 3.3635,4.0187 1.5362,1.857 3.233,3.3905 3.7707,3.4077 0.5377,0.017 0.9776,0.2286 0.9776,0.4696 0,0.241 0.7541,0.8837 1.6759,1.4281 1.3156,0.7773 1.6715,1.3734 1.656,2.774 -0.011,0.9811 -0.379,2.4124 -0.8181,3.1804 -0.4391,0.7682 -0.8073,2.0563 -0.8182,2.8626 -0.011,0.8063 -0.4071,2.5659 -0.8806,3.9103 -0.7724,2.1934 -1.5621,3.5853 -4.7148,8.31 -0.5126,0.7681 -1.4028,2.7791 -1.9783,4.4689 -0.5755,1.6899 -1.5893,3.8266 -2.2531,4.7483 -1.6755,2.3268 -3.9216,7.4087 -4.3826,9.9156 -0.2262,1.2302 -0.7054,2.0949 -1.161,2.0949 -0.4267,0 -2.1121,1.8225 -3.7454,4.05 -3.1304,4.2693 -4.2089,4.8421 -6.6241,3.5181 z m 3.6534,-14.3334 c 0.3078,-1.4167 0.8328,-2.925 1.1667,-3.3518 0.3338,-0.4268 1.1956,-2.2844 1.9152,-4.1278 0.7195,-1.8435 1.7662,-3.9512 2.3258,-4.684 0.5597,-0.7328 1.0176,-2.0163 1.0176,-2.8525 0,-0.8531 0.8105,-2.5973 1.847,-3.9746 2.5023,-3.3253 4.2979,-6.3437 4.2979,-7.2248 0,-0.4004 0.3955,-1.1651 0.879,-1.6994 0.806,-0.8905 0.7533,-1.1614 -0.6328,-3.256 -0.8316,-1.2566 -1.6728,-2.2847 -1.8693,-2.2847 -0.1966,0 -0.8284,-0.8745 -1.404,-1.9435 -0.5756,-1.0689 -1.5169,-2.0927 -2.0916,-2.275 -0.5747,-0.1825 -1.5176,-1.2561 -2.0952,-2.3859 -0.5777,-1.1299 -2.3328,-3.3112 -3.9002,-4.8474 -1.5674,-1.5362 -2.8503,-2.9521 -2.8507,-3.1464 0,-0.1942 -0.9435,-1.3751 -2.0957,-2.624 -1.1521,-1.249 -2.861,-3.1918 -3.7973,-4.3174 l -1.7025,-2.0466 -3.1855,3.9426 c -1.752,2.1684 -3.1854,4.0984 -3.1854,4.2889 0,0.4224 -2.7113,4.0565 -4.0269,5.3975 -0.5249,0.535 -1.4963,2.0516 -2.1586,3.3702 -0.6623,1.3185 -1.7677,3.1515 -2.4564,4.0732 -0.6886,0.9217 -1.7687,2.69 -2.3999,3.9296 -1.4794,2.9048 -1.435,2.9965 4.4578,9.2122 1.7556,1.8518 4.1437,4.7437 5.307,6.4264 1.1632,1.6828 2.8691,4.1533 3.7908,5.49 0.9217,1.3367 2.5941,3.4463 3.7164,4.688 1.1223,1.2416 2.8819,3.7978 3.9103,5.6803 1.5938,2.9173 2.0759,3.4002 3.2653,3.2706 1.1671,-0.1272 1.4871,-0.5736 1.9552,-2.7277 z m 159.2781,12.4912 c -1.2628,-1.9697 -1.3116,-2.3453 -0.8173,-6.2845 0.2891,-2.3044 0.7562,-6.8292 1.0379,-10.0553 0.2817,-3.226 0.6697,-6.9061 0.8622,-8.1778 0.1999,-1.3208 0.087,-2.8033 -0.263,-3.4575 -0.3371,-0.6299 -0.3988,-1.2775 -0.137,-1.4393 0.4326,-0.2674 1.0626,-5.6836 1.5006,-12.9013 0.5182,-8.5389 0.8033,-10.9341 1.4414,-12.1082 0.6467,-1.19 1.857,-6.1147 2.5158,-10.2368 0.4835,-3.0254 1.4948,-6.6905 2.0409,-7.3966 0.5624,-0.7272 1.2665,-5.7264 1.8738,-13.3046 0.4301,-5.3679 1.3673,-6.7731 5.7752,-8.6592 1.9902,-0.8515 5.5323,0.8131 5.9075,2.7764 0.152,0.7953 0.4769,2.3439 0.7218,3.4414 0.2716,1.2165 0.2183,2.3554 -0.1364,2.9177 -0.4336,0.6875 -0.3593,1.104 0.2919,1.6356 0.4805,0.3924 1.1609,1.7302 1.512,2.9731 0.3511,1.2429 1.5087,3.2764 2.5723,4.5191 1.0636,1.2426 2.0958,2.9043 2.2936,3.6925 0.1979,0.7882 0.9669,2.0035 1.709,2.7007 0.7421,0.6972 1.3493,1.557 1.3493,1.9108 0,0.3537 0.65,1.2526 1.4445,1.9975 0.7945,0.7448 2.5326,2.9882 3.8624,4.9853 3.68,5.5263 6.533,7.648 7.5117,5.5862 0.2188,-0.4608 0.9434,-1.8932 1.6103,-3.1831 0.6669,-1.2898 1.2125,-2.8461 1.2125,-3.4584 0,-0.6123 0.2255,-1.2526 0.501,-1.4229 0.2756,-0.1703 1.2004,-2.259 2.0552,-4.6416 0.8548,-2.3826 1.8863,-4.8278 2.2921,-5.4339 0.4059,-0.606 0.738,-1.5487 0.738,-2.0948 0,-0.5462 0.2514,-0.993 0.5586,-0.993 0.3073,0 0.5587,-0.4879 0.5587,-1.0843 0,-0.5963 0.2668,-1.2492 0.593,-1.4507 0.3262,-0.2017 0.8539,-1.0335 1.1727,-1.8486 0.6484,-1.6576 0.6734,-1.7496 1.2871,-4.7366 1.6628,-8.0925 5.5066,-12.3661 10.0882,-11.2163 1.753,0.44 4.3835,4.2794 3.9239,5.7274 -0.1934,0.6094 -0.09,1.2698 0.2296,1.4674 0.8028,0.4962 0.7301,2.7137 -0.1169,3.5644 -0.899,0.9031 -0.8793,19.4681 0.024,22.705 0.343,1.229 0.7677,4.5951 0.9437,7.4802 0.176,2.8852 0.5016,5.5247 0.7234,5.8656 0.4024,0.6181 0.7341,9.9088 0.6649,18.6206 -0.021,2.5898 0.3111,5.6361 0.7602,6.9828 0.4433,1.3293 0.801,4.5622 0.8063,7.2884 0.01,2.6948 0.2581,5.2086 0.5618,5.5863 0.7766,0.9657 1.8837,6.5233 1.442,7.238 -0.2014,0.3259 -0.3457,1.3104 -0.3208,2.1878 0.041,1.4604 -0.1205,1.5954 -1.9154,1.5954 -1.4285,0 -2.4102,-0.4495 -3.6163,-1.6555 -1.4932,-1.4932 -1.644,-1.9725 -1.5375,-4.888 0.198,-5.4183 -0.8864,-12.6941 -2.9377,-19.7118 -0.3211,-1.0987 -0.3924,-3.0564 -0.1626,-4.469 0.5189,-3.1904 0.5467,-7.5167 0.082,-12.8483 -0.6563,-7.5395 -1.0796,-9.7361 -2.0092,-10.4271 -0.728,-0.5411 -0.7823,-0.889 -0.2699,-1.7298 0.4103,-0.6734 0.4896,-1.882 0.2203,-3.3548 -0.2431,-1.3296 -0.1956,-2.5276 0.1124,-2.8356 0.3034,-0.3034 0.3397,-1.0998 0.084,-1.8466 -0.2472,-0.7222 -0.4696,-2.1929 -0.4941,-3.2683 -0.078,-3.4065 -0.9499,-7.3196 -1.5844,-7.1081 -0.5735,0.1911 -2.1483,2.4755 -2.9746,4.315 -0.2071,0.4609 -1.2104,2.1133 -2.2296,3.6721 -1.0191,1.5588 -2.2531,4.1983 -2.742,5.8655 -0.4889,1.6673 -1.3745,4.0369 -1.9679,5.2659 -0.5934,1.229 -1.0782,2.5918 -1.0773,3.0284 0,0.4367 -0.4384,1.2801 -0.976,1.8743 -0.7111,0.7858 -0.9747,2.0163 -0.9667,4.513 0.01,2.9896 -0.1898,3.6489 -1.5448,5.1085 -1.3024,1.4031 -1.6425,1.5395 -2.0887,0.8379 -0.443,-0.6964 -0.7267,-0.7179 -1.6802,-0.1268 -0.9147,0.5669 -1.3992,0.5712 -2.3912,0.021 -0.6842,-0.3795 -1.4325,-0.6367 -1.663,-0.5714 -0.3955,0.112 -0.6669,-2.0909 -0.4537,-3.6821 0.054,-0.4007 -0.6902,-1.6257 -1.653,-2.7223 -0.9628,-1.0965 -2.0228,-2.5913 -2.3556,-3.3216 -0.3327,-0.7303 -0.7955,-1.3278 -1.0283,-1.3278 -0.2329,0 -0.9336,-0.8255 -1.5571,-1.8344 -0.6235,-1.0088 -2.6705,-3.4598 -4.5488,-5.4465 -3.1931,-3.3774 -5.5811,-7.1031 -5.5811,-8.7074 0,-0.9892 -4.8618,-4.8492 -5.5624,-4.4162 -0.3204,0.198 -0.5852,1.0365 -0.5885,1.8633 -0.01,0.8267 -0.3804,2.7372 -0.8379,4.2454 -0.4992,1.6452 -0.8334,4.9975 -0.8356,8.3794 -0.01,5.5589 -1.6416,17.1786 -2.7005,19.1571 -0.349,0.6521 -0.3536,2.0617 -0.013,3.9359 0.3974,2.187 0.3143,3.9675 -0.3313,7.093 -0.4741,2.2952 -0.862,4.9187 -0.862,5.8299 0,2.4164 -1.1984,7.4739 -2.0011,8.4455 -0.3809,0.4609 -0.846,2.2206 -1.0338,3.9104 -0.5975,5.3778 -1.5109,8.0052 -3.3419,9.6135 -2.4405,2.1436 -3.9388,1.9993 -5.5642,-0.5359 z m 381.625,0.9896 c -1.5531,-0.8321 -1.8502,-1.3212 -1.9606,-3.2271 -0.1162,-2.0052 0.1251,-2.4782 2.2463,-4.4037 1.307,-1.1865 3.114,-2.6599 4.0154,-3.2744 0.9014,-0.6145 2.3167,-1.8086 3.1451,-2.6535 0.8283,-0.8449 1.7823,-1.5362 2.1199,-1.5362 0.3376,0 0.6151,-0.1885 0.6167,-0.419 0,-0.2304 1.447,-1.9656 3.212,-3.8561 1.7651,-1.8904 3.7468,-4.0271 4.4037,-4.7483 1.9151,-2.1021 5.7689,-5.5008 6.2375,-5.5008 1.077,0 0.4565,-2.159 -0.8163,-2.8401 -0.7722,-0.4133 -1.797,-1.5145 -2.2775,-2.4471 -0.4804,-0.9325 -1.3388,-2.0241 -1.9075,-2.4256 -0.5687,-0.4014 -1.0341,-0.985 -1.0341,-1.2967 0,-0.8489 -1.3679,-2.0512 -2.5699,-2.2589 -0.5836,-0.1009 -2.8213,-1.943 -4.9725,-4.0937 -2.1513,-2.1507 -5.1679,-4.905 -6.7035,-6.1208 -3.3606,-2.6603 -5.5826,-4.908 -6.0461,-6.1155 -0.188,-0.4903 -0.5948,-0.8914 -0.9038,-0.8914 -0.309,0 -0.9518,-0.7541 -1.4284,-1.6759 -0.4766,-0.9217 -1.2354,-1.6758 -1.6862,-1.6758 -0.6019,0 -0.8025,-0.6307 -0.7553,-2.3742 0.072,-2.6506 1.0705,-4.6429 2.5663,-5.1192 0.5458,-0.1738 1.8722,-1.4256 2.9476,-2.7817 1.0754,-1.356 3.0819,-3.0176 4.459,-3.6924 3.8597,-1.8912 5.5481,-3.3561 19.4615,-16.8866 l 3.5308,-3.4336 1.7762,0.9118 c 0.9769,0.5016 2.2789,0.9924 2.8934,1.091 1.5518,0.2486 1.5486,2.4113 -0.01,4.2593 -1.3595,1.6158 -1.3903,1.6961 -1.3903,3.6367 0,0.9839 -0.6571,1.6674 -2.6534,2.7601 -1.4594,0.7988 -3.0808,1.9071 -3.603,2.4629 -4.3035,4.5802 -11.6589,11.3452 -12.3356,11.3452 -0.7471,0 -5.4289,4.5838 -5.4289,5.3152 0,1.0257 5.1672,7.5331 5.9817,7.5331 0.397,0 0.7218,0.335 0.7218,0.7444 0,0.8383 4.0562,4.2832 5.0432,4.2832 0.3519,0 2.2105,1.5083 4.1302,3.3517 1.9198,1.8435 3.6476,3.3518 3.8397,3.3518 0.192,0 1.4638,1.194 2.8263,2.6534 5.4654,5.8541 6.2814,6.6549 7.6568,7.5135 1.2247,0.7644 1.3946,1.2015 1.1803,3.0368 -0.2915,2.4973 -2.0231,5.4281 -4.4957,7.6093 -0.9604,0.8473 -1.7462,1.7731 -1.7462,2.0572 0,0.2841 -0.44,0.6674 -0.9776,0.8515 -0.5377,0.1842 -1.671,1.3387 -2.5186,2.5656 -0.8475,1.2269 -2.1128,2.4914 -2.8118,2.8098 -0.6989,0.3185 -1.7651,1.3251 -2.3693,2.237 -0.6042,0.9119 -1.6643,1.8034 -2.3556,1.9812 -0.6913,0.1778 -1.2568,0.5296 -1.2568,0.7817 0,0.2521 -1.1108,1.2081 -2.4684,2.1243 -2.2381,1.5105 -4.624,3.5303 -8.6173,7.295 -2.0598,1.9419 -4.6686,2.3892 -6.915,1.1856 z m -749.2685,-0.4938 c -1.9588,-1.2112 -8.1,-7.5577 -8.1,-8.371 0,-0.306 -1.1121,-1.2673 -2.4712,-2.1363 -1.3591,-0.869 -2.7264,-2.1238 -3.0383,-2.7885 -0.312,-0.6646 -1.0725,-1.3687 -1.69,-1.5647 -0.6175,-0.196 -1.2609,-0.7834 -1.4298,-1.3054 -0.1688,-0.5219 -1.1733,-1.5375 -2.232,-2.2567 -1.0588,-0.7192 -2.3198,-1.91 -2.8022,-2.6463 -0.4824,-0.7361 -1.8161,-1.8298 -2.9637,-2.4302 -1.1477,-0.6004 -2.8616,-1.8339 -3.8088,-2.7412 -0.9471,-0.9073 -2.7464,-2.1723 -3.9985,-2.811 -1.252,-0.6388 -2.3624,-1.3567 -2.4676,-1.5953 -0.1051,-0.2386 -1.1338,-0.9133 -2.286,-1.4994 -1.6795,-0.8543 -2.0948,-1.3804 -2.0948,-2.6535 0,-1.1331 -0.28,-1.593 -0.9776,-1.6057 -1.896,-0.034 -4.05,-2.6276 -4.05,-4.8757 0,-0.5811 0.6284,-1.647 1.3965,-2.3686 0.7681,-0.7216 1.3966,-1.6474 1.3966,-2.0574 0,-0.4099 0.677,-1.5052 1.5045,-2.434 0.8275,-0.9287 1.5802,-2.1839 1.6725,-2.7894 0.092,-0.6054 0.8378,-1.8524 1.6563,-2.7711 0.8185,-0.9186 2.0141,-2.5407 2.6568,-3.6047 1.5689,-2.5972 6.6534,-8.189 17.229,-18.948 4.8391,-4.923 8.7983,-9.2401 8.7983,-9.5936 0,-2.0842 4.2617,-3.18 7.5321,-1.9366 1.4728,0.56 3.0817,3.4365 3.0817,5.5099 0,1.9253 -4.1222,8.1842 -7.2493,11.0068 -5.9302,5.3529 -10.5091,10.168 -10.9203,11.4837 -0.2288,0.732 -1.095,1.985 -1.9249,2.7846 -0.8299,0.7995 -1.6778,1.8937 -1.8842,2.4316 -0.6651,1.7333 -4.4681,6.499 -7.7679,9.7344 -4.2617,4.1784 -4.2908,5.3794 -0.2034,8.3989 1.6548,1.2224 3.5135,2.8643 4.1304,3.6486 0.6169,0.7843 1.4106,1.426 1.7637,1.426 0.3531,0 1.7998,1.2569 3.2148,2.7932 1.4152,1.5361 2.9754,2.7962 3.4674,2.8 0.4919,0.01 1.4574,0.8761 2.1455,1.9384 0.688,1.0624 1.945,2.379 2.7931,2.9257 0.8481,0.5467 1.9735,1.4969 2.5009,2.1115 0.5562,0.6481 0.9669,0.8242 0.9777,0.4192 0.031,-1.1796 1.1358,-0.7722 1.1358,0.419 0,0.6145 0.2051,1.1172 0.4557,1.1172 0.2507,0 1.0181,1.0005 1.7053,2.2232 0.6872,1.2227 1.5767,2.4168 1.9765,2.6534 0.3999,0.2367 1.0355,1.0175 1.4124,1.7351 0.377,0.7176 0.8173,1.1729 0.9785,1.0117 0.1611,-0.1612 1.3075,0.8857 2.5476,2.3263 1.24,1.4407 2.4972,2.7764 2.7939,2.9685 0.9834,0.6369 -0.1264,3.6556 -1.5891,4.322 -1.9406,0.8842 -3.0331,0.7954 -4.9739,-0.4046 z m 243.0785,0.5605 c -0.5719,-0.229 -1.6777,-1.9115 -2.4574,-3.7389 -1.3636,-3.1959 -2.0116,-7.2922 -3.4544,-21.8384 -0.2483,-2.5025 -0.6475,-4.8672 -0.8871,-5.255 -0.2396,-0.3877 -0.3967,-1.6081 -0.349,-2.712 0.1581,-3.6568 -1.0099,-15.0062 -1.8842,-18.3086 -0.4732,-1.7877 -0.7989,-4.1822 -0.7239,-5.3213 0.075,-1.1391 -0.042,-2.2494 -0.2596,-2.4673 -0.218,-0.2179 -0.3966,-1.4226 -0.397,-2.6772 0,-4.0959 -1.5308,-11.5073 -3.1797,-15.4087 -0.1948,-0.4608 -0.3758,-1.0055 -0.4024,-1.2103 -0.026,-0.2049 -0.1992,-0.5235 -0.3838,-0.7081 -0.5723,-0.5722 1.961,-5.2028 3.515,-6.4252 l 1.4747,-1.1601 1.664,1.4001 c 0.9151,0.7701 1.8789,1.4093 2.1419,1.4205 1.0467,0.045 3.4837,4.9596 4.4217,8.9176 0.9521,4.0178 4.5781,11.9605 5.9929,13.1276 0.3725,0.3073 1.4314,1.6899 2.353,3.0724 0.9218,1.3826 2.5279,3.3936 3.5693,4.469 1.0413,1.0754 2.7278,3.2121 3.7476,4.7484 1.0199,1.5362 2.6408,3.5472 3.6021,4.4689 0.9614,0.9217 2.5171,2.8619 3.4573,4.3114 0.9401,1.4495 1.9134,2.5094 2.1628,2.3552 0.4839,-0.299 0.2593,-4.551 -0.6875,-13.0096 -0.3217,-2.8741 -0.6945,-7.1476 -0.8285,-9.4966 -0.1339,-2.3489 -0.3645,-5.2763 -0.5123,-6.5053 -0.5517,-4.5872 -0.9564,-11.2752 -0.8706,-14.3845 0.053,-1.9047 -0.1473,-3.2121 -0.4912,-3.2121 -0.3189,0 -0.5799,-0.4885 -0.5799,-1.0856 0,-0.597 -0.5082,-1.4416 -1.1295,-1.8767 -0.9975,-0.6987 -1.0301,-0.8734 -0.2793,-1.4966 0.4676,-0.3881 0.8502,-1.1595 0.8502,-1.7145 0,-0.5549 0.3309,-1.3411 0.7355,-1.7471 0.4044,-0.406 1.1875,-1.4295 1.7401,-2.2744 1.5847,-2.4232 4.1834,-2.1394 6.8556,0.7487 1.5034,1.625 2.0614,2.6867 1.9319,3.6756 -0.1123,0.8562 0.203,1.6725 0.82,2.1236 0.7801,0.5704 0.8592,0.9055 0.3566,1.511 -0.6425,0.7742 -0.6622,9.7752 -0.024,10.843 0.1678,0.2806 0.2271,3.024 0.1319,6.0965 -0.095,3.0724 0.048,6.5918 0.3174,7.8207 0.5083,2.3147 1.0204,6.6998 1.403,12.0104 0.5038,6.9954 1.4769,15.0613 2.2915,18.9932 0.492,2.3748 0.7836,5.942 0.6731,8.235 -0.1275,2.6455 0.022,4.1281 0.4327,4.2847 0.9795,0.3736 1.4346,3.9513 0.7061,5.5502 -0.4077,0.8948 -1.2873,1.567 -2.3583,1.8023 -1.4448,0.3173 -1.9432,0.1121 -3.2324,-1.3306 -0.9931,-1.1115 -2.165,-1.7679 -3.3641,-1.884 -1.3943,-0.1351 -2.1411,-0.6517 -3.0835,-2.1334 -1.3769,-2.1649 -4.6431,-5.5862 -5.3328,-5.5862 -0.2432,0 -0.4421,-0.4802 -0.4421,-1.0671 0,-0.5869 -0.9758,-2.3016 -2.1684,-3.8103 -1.1927,-1.5089 -2.602,-3.5816 -3.1319,-4.6063 -0.5298,-1.0246 -1.4393,-2.3739 -2.0212,-2.9984 -0.5818,-0.6245 -1.0578,-1.4782 -1.0578,-1.897 0,-1.5316 -4.0738,-8.5793 -5.8189,-10.0666 -1.0594,-0.9031 -2.0729,-2.4938 -2.4726,-3.881 -0.6338,-2.1997 -1.5151,-3.391 -2.0862,-2.82 -0.1364,0.1365 0.097,1.23 0.5191,2.4301 0.422,1.2001 0.8126,4.4444 0.8681,7.2096 0.055,2.7652 0.3663,6.0268 0.6907,7.2481 0.3243,1.2212 0.5228,5.7461 0.4409,10.0552 -0.1441,7.5779 0.6058,15.5338 1.7471,18.5356 0.5951,1.5651 0.8403,7.6104 0.3415,8.4175 -0.3847,0.6224 -4.232,0.7823 -5.6041,0.2329 z m 467.761,-1.6963 c -1.2692,-0.6904 -1.9048,-1.4193 -1.8265,-2.0948 0.066,-0.5698 0.281,-2.1856 0.4778,-3.5906 0.2519,-1.7983 0.1337,-2.7908 -0.3993,-3.3518 -0.8671,-0.9128 -0.8401,-0.7279 -1.4626,-10.0143 -0.2575,-3.8406 -0.3094,-9.6223 -0.1154,-12.8484 0.194,-3.226 0.1644,-6.3931 -0.066,-7.0381 -0.5669,-1.5889 -0.7401,-6.3274 -0.294,-8.0447 0.1995,-0.7681 0.4371,-2.1507 0.5281,-3.0724 0.091,-0.9217 0.6162,-3.1527 1.1671,-4.9576 0.6284,-2.0589 0.7968,-3.4119 0.4519,-3.6311 -0.3023,-0.1921 -0.543,-1.1034 -0.5348,-2.0252 0.01,-0.9217 -0.033,-3.3098 -0.092,-5.3069 -0.059,-1.9971 0.029,-4.5109 0.1959,-5.5862 0.1667,-1.0754 0.2874,-2.9607 0.2683,-4.1897 -0.019,-1.229 -0.039,-3.03 -0.044,-4.0024 -0.01,-0.9918 -0.4555,-2.1723 -1.0267,-2.6892 -1.1261,-1.0191 -1.2222,-1.025 -13.1924,-0.8101 l -8.4309,0.1514 -2.0213,-1.5417 c -2.5427,-1.9393 -2.9278,-3.1469 -1.7769,-5.5721 1.4569,-3.0705 4.0874,-3.4553 19.1151,-2.7962 4.3733,0.1917 8.3954,0.1669 8.9379,-0.055 0.5426,-0.222 4.7572,-0.5196 9.3658,-0.6612 4.6086,-0.1417 10.139,-0.646 12.2897,-1.1207 7.2285,-1.5957 10.3345,-1.6164 10.3345,-0.069 0,0.354 0.3998,1.0853 0.8883,1.6251 1.2049,1.3314 0.6455,2.7479 -1.9427,4.9193 -2.0447,1.7155 -2.4235,1.8173 -7.3935,1.9875 -2.8811,0.099 -7.0828,0.3669 -9.3371,0.5959 -6.4914,0.6594 -7.5627,2.5701 -7.0383,12.5522 0.1372,2.6115 0.3215,8.0162 0.4097,12.0103 0.088,3.9942 0.433,10.5301 0.7663,14.5243 0.3333,3.9941 0.44,9.2326 0.2369,11.641 -0.2167,2.5713 -0.093,6.2608 0.2997,8.9379 0.454,3.0944 0.5173,6.3504 0.1973,10.1347 -0.296,3.5017 -0.27,5.8182 0.07,6.2278 1.03,1.2411 0.3548,4.8729 -1.2825,6.8981 -0.8638,1.0685 -1.5706,2.2333 -1.5706,2.5883 0,0.6366 -1.7104,1.312 -3.3605,1.3268 -0.4657,0.01 -1.7226,-0.4688 -2.7931,-1.0513 z m -691.7029,-0.2746 c -1.5351,-1.1655 -2.5176,-4.752 -2.0067,-7.3252 0.244,-1.2289 0.4203,-4.3712 0.3918,-6.9827 -0.066,-6.0212 0.4761,-12.9821 1.2284,-15.7759 0.3206,-1.1906 0.5356,-3.5957 0.4778,-5.3445 -0.058,-1.7488 -0.097,-5.1908 -0.086,-7.6487 0.01,-2.458 0.036,-8.7425 0.058,-13.9656 0.021,-5.2231 0.2711,-9.9993 0.5549,-10.6139 0.759,-1.6434 1.7621,-9.5675 1.6786,-13.2612 -0.04,-1.7818 0.2256,-3.5651 0.5984,-4.0144 0.4891,-0.5894 0.509,-1.1104 0.073,-1.9244 -1.047,-1.9564 -0.7439,-4.3728 0.5924,-4.7223 0.7948,-0.2078 1.0788,-0.6004 0.8555,-1.1824 -0.2708,-0.7056 0.12,-0.8712 2.0552,-0.8712 2.8083,0 4.1613,0.8593 4.4034,2.7967 0.096,0.7701 0.6969,2.2784 1.3351,3.3518 0.6381,1.0733 1.4912,2.8313 1.8958,3.9067 0.4047,1.0754 1.1978,2.4741 1.7626,3.1084 0.5648,0.6343 1.0268,1.5563 1.0268,2.0489 0,0.4927 0.6285,2.147 1.3966,3.6762 0.7681,1.5293 1.3965,3.1691 1.3965,3.644 0,0.475 0.2514,1.0189 0.5587,1.2088 0.3072,0.1899 0.5586,0.798 0.5586,1.3515 0,0.5535 0.5779,1.8584 1.2842,2.8998 1.3341,1.967 2.7491,6.386 3.7367,11.6694 0.3159,1.6899 1.7985,5.5862 3.2947,8.6586 4.8371,9.933 6.2086,12.9249 6.2086,13.5443 0,0.3341 0.1886,0.6914 0.419,0.7938 0.5194,0.2308 4.0689,7.2383 4.0579,8.0114 -0.011,0.8011 2.7095,5.8207 4.2653,7.869 0.7221,0.9507 1.313,1.9801 1.313,2.2876 0,0.3074 0.4964,1.0081 1.103,1.5571 0.6066,0.549 1.2648,1.5306 1.4626,2.1814 0.1979,0.6508 0.6877,1.5603 1.0886,2.0212 0.6047,0.6953 0.5462,1.2356 -0.3443,3.1741 -1.2343,2.6872 -2.6297,2.9089 -5.2643,0.8367 -0.8514,-0.6698 -1.8573,-1.2177 -2.2352,-1.2177 -1.6865,0 -3.4784,-2.2286 -3.825,-4.7568 -0.3615,-2.638 -3.6457,-10.1138 -5.4987,-12.5166 -0.5736,-0.744 -1.317,-2.4409 -1.6519,-3.7707 -0.3349,-1.33 -0.8304,-2.4181 -1.1012,-2.4181 -0.2708,0 -0.4923,0.2361 -0.4923,0.5247 0,0.2885 -0.9892,1.6676 -2.1982,3.0645 -1.209,1.3969 -2.6458,3.2975 -3.1929,4.2236 -0.547,0.9261 -1.2097,1.6838 -1.4727,1.6838 -0.5354,0 -2.0742,1.4209 -2.0742,1.9153 0,0.1756 -0.4399,0.8039 -0.9775,1.3964 -1.5408,1.6978 -2.1795,2.5429 -2.8046,3.7108 -1.1818,2.2083 -6.0387,7.0636 -7.8035,7.801 -1.0017,0.4185 -1.8213,1.0003 -1.8213,1.2929 0,0.6243 -3.6693,2.8849 -4.6406,2.859 -0.3665,-0.01 -1.1045,-0.3505 -1.6402,-0.7571 z m 10.6003,-23.0166 c 1.4648,-1.4101 3.3134,-2.9035 4.1081,-3.3188 0.7946,-0.4152 2.0842,-1.5868 2.8658,-2.6035 0.7816,-1.0166 2.0168,-2.4995 2.7449,-3.2953 0.7281,-0.7957 1.9219,-2.2749 2.6528,-3.287 1.2508,-1.7318 1.2896,-2.0168 0.6583,-4.8377 -0.369,-1.6486 -0.8596,-2.9974 -1.0903,-2.9974 -0.6852,0 -4.4024,-7.874 -5.1426,-10.8932 -0.3765,-1.5362 -1.5235,-4.3851 -2.5488,-6.3309 -1.0254,-1.9458 -1.8642,-4.0322 -1.8642,-4.6364 0,-0.6042 -0.3699,-1.8139 -0.822,-2.6881 -0.4521,-0.8742 -0.9879,-2.6269 -1.1906,-3.895 -0.5728,-3.5822 -1.1678,-3.1777 -1.2792,0.8697 -0.056,2.0216 -0.505,5.4704 -0.9987,7.6642 -1.2126,5.3888 -1.504,20.9508 -0.44,23.4973 0.6417,1.5358 0.6417,2.2925 0,4.8422 -0.8474,3.3654 -1.5902,13.5526 -1.029,14.1138 0.5372,0.5372 0.5103,0.5548 3.3759,-2.2039 z m 426.4277,21.2242 c -1.0486,-0.745 -2.2845,-1.8939 -2.7463,-2.5533 -0.7719,-1.102 -0.7359,-1.2829 0.4459,-2.2399 1.1525,-0.9332 1.2489,-1.3543 0.9303,-4.0648 -0.2117,-1.8014 -0.1013,-3.66 0.273,-4.5976 0.3456,-0.8655 0.5998,-3.2077 0.5652,-5.2048 -0.035,-1.9971 0.281,-6.3962 0.7016,-9.7759 0.4207,-3.3796 0.6604,-6.3238 0.5327,-6.5426 -0.2998,-0.5137 -0.271,-6.6848 0.059,-12.7299 0.1428,-2.6115 0.4064,-7.7622 0.5857,-11.4457 0.2111,-4.3352 0.6046,-7.1225 1.1158,-7.9025 0.8228,-1.2558 1.0542,-5.3626 0.6254,-11.0968 -0.1378,-1.8434 -0.2955,-3.3517 -0.3503,-3.3517 -0.4229,0 -0.2889,-8.0543 0.1479,-8.894 0.5325,-1.0234 3.1421,-3.4847 4.6338,-4.3703 0.8608,-0.5111 4.1622,0.092 4.1622,0.7609 0,0.2664 0.5556,1.1234 1.2345,1.9043 0.9151,1.0524 1.1931,1.9932 1.0745,3.6353 -0.091,1.2593 0.09,2.2155 0.419,2.2155 0.3184,0 0.8742,0.9854 1.235,2.1898 0.4126,1.377 1.6843,3.1603 3.426,4.8041 1.5235,1.4379 3.1091,3.4262 3.5238,4.4185 0.4146,0.9923 1.1453,2.1292 1.624,2.5264 0.4786,0.3972 0.8702,1.0618 0.8702,1.4768 0,0.415 0.5395,1.9554 1.199,3.423 2.6073,5.8028 3.8286,9.3073 3.8286,10.9866 0,0.6572 0.4642,2.071 1.0315,3.1418 1.0669,2.0137 1.7189,4.172 2.068,6.846 0.1111,0.851 1.0932,3.7331 2.1823,6.4047 1.0892,2.6715 1.9803,5.2777 1.9803,5.7917 0,0.9107 1.9738,5.5377 4.9505,11.6048 0.8105,1.652 1.9136,3.1267 2.4512,3.2773 0.5377,0.1504 0.9776,0.5897 0.9776,0.976 0,0.6011 1.4797,3.4286 3.3645,6.4294 0.2895,0.4609 0.8644,1.7178 1.2774,2.7931 0.6988,1.8192 0.793,1.8771 1.3539,0.833 0.7853,-1.4618 0.9872,-4.8773 0.4951,-8.3744 -0.2161,-1.5362 -0.6278,-6.6895 -0.9148,-11.4518 -0.2869,-4.7623 -0.7947,-11.1725 -1.1285,-14.2449 -0.3336,-3.0724 -0.5906,-6.6118 -0.571,-7.8651 0.02,-1.2535 -0.2388,-3.5159 -0.5743,-5.0277 -0.3354,-1.5118 -0.6752,-5.3881 -0.7551,-8.6142 -0.1336,-5.3906 -1.0044,-10.6373 -1.9935,-12.0104 -0.2214,-0.3072 -0.4248,-3.2605 -0.4521,-6.5629 -0.046,-5.5508 0.05,-6.1203 1.2753,-7.5414 1.2426,-1.4417 1.5966,-1.5347 5.6999,-1.4972 4.7,0.043 8.8115,1.4761 12.2218,4.2604 2.4142,1.9709 9.7854,5.3788 12.6113,5.8303 1.345,0.215 3.5767,0.9505 4.9593,1.6345 1.3826,0.684 3.3936,1.4136 4.469,1.6212 1.0753,0.2077 4.2176,1.0936 6.9828,1.9686 2.7652,0.8752 5.9988,1.7542 7.1857,1.9536 2.9415,0.494 4.2227,1.8438 4.5019,4.7429 0.2948,3.0601 -0.3784,4.8393 -2.0193,5.3376 -0.7089,0.2151 -1.7917,0.8374 -2.4062,1.3826 -0.6145,0.5453 -2.3742,1.6242 -3.9104,2.3975 -1.8599,0.9363 -3.036,1.9697 -3.5201,3.0931 -0.9317,2.1623 -6.233,7.3512 -7.5127,7.3535 -0.6212,0 -0.9776,0.4308 -0.9776,1.1787 0,0.8358 0.2521,1.0803 0.8696,0.8433 0.8115,-0.3114 3.5994,2.0286 3.5994,3.0211 0,0.2251 0.6913,0.6999 1.5362,1.0549 1.0717,0.4504 1.9402,1.5757 2.8722,3.7215 0.7347,1.6917 1.8035,3.3261 2.3751,3.6319 0.5715,0.3059 1.4211,1.4704 1.888,2.5878 1.095,2.6207 4.4367,6.6959 5.8616,7.1481 0.6096,0.1936 1.1083,0.5984 1.1083,0.8996 0,0.3013 0.6417,1.1014 1.4259,1.7779 1.4533,1.2539 2.4472,4.2684 2.4712,7.495 0.017,2.3585 -1.2697,3.0125 -5.0483,2.5649 -2.9613,-0.3507 -5.4899,-2.1567 -5.5346,-3.9529 -0.062,-2.4934 -12.3002,-15.77 -14.5365,-15.77 -0.8091,0 -1.3642,-0.5264 -1.7637,-1.6724 -0.5734,-1.6448 -4.8057,-5.0311 -6.2881,-5.0311 -0.4006,0 -1.4042,0.6263 -2.2302,1.3918 -1.4769,1.3689 -2.0198,1.5723 -5.9234,2.22 -1.4328,0.2377 -2.3943,0.918 -3.5986,2.5459 -0.9038,1.2219 -1.8683,2.2217 -2.1434,2.2217 -0.2749,0 -0.7846,-0.7542 -1.1325,-1.6759 -0.3479,-0.9217 -0.8288,-1.6759 -1.0687,-1.6759 -0.6226,0 -0.5392,2.1155 0.1329,3.3713 0.3573,0.6676 0.3961,2.1664 0.1042,4.0277 -0.3264,2.0811 -0.2537,3.4594 0.2437,4.6258 0.4248,0.9962 0.7186,4.167 0.7337,7.9185 0.014,3.4414 0.2932,7.5066 0.6207,9.0339 0.6712,3.1297 -0.1097,5.4212 -2.3925,7.0201 -1.7245,1.2079 -2.8513,1.0956 -5.2342,-0.5216 -1.6728,-1.1351 -2.6351,-1.3696 -5.1922,-1.2653 -3.0348,0.1239 -3.224,0.045 -5.7139,-2.391 -2.1701,-2.1229 -2.5364,-2.784 -2.3281,-4.2023 0.1821,-1.2411 -0.242,-2.4292 -1.6146,-4.5229 -1.0237,-1.5618 -2.7413,-4.5014 -3.8167,-6.5326 -1.0753,-2.0311 -2.2262,-3.7987 -2.5576,-3.9281 -0.7617,-0.2973 -4.9357,2.4733 -7.4976,4.9768 -2.4813,2.4247 -6.6917,5.8519 -7.1893,5.8519 -0.3733,0 -6.212,5.6336 -9.0674,8.749 -2.031,2.2159 -5.5388,4.6671 -6.5972,4.6101 -0.4881,-0.026 -1.7455,-0.6573 -2.7941,-1.4022 z m 13.3583,-28.7292 c 1.9971,-1.4993 4.9111,-3.4879 6.4757,-4.4192 1.5645,-0.9312 3.7522,-2.5491 4.8614,-3.5953 1.9842,-1.8713 1.9991,-1.918 0.9261,-2.8891 -0.5999,-0.5429 -1.0907,-1.4158 -1.0907,-1.9398 0,-0.524 -0.6285,-1.8788 -1.3966,-3.0107 -0.7681,-1.1318 -1.3966,-2.7449 -1.3966,-3.5846 0,-0.8398 -0.4385,-2.1484 -0.9745,-2.908 -1.0489,-1.4866 -3.4876,-7.1506 -3.4918,-8.1101 0,-0.3213 -1.1297,-2.4581 -2.5071,-4.7483 -1.3775,-2.2904 -2.5087,-4.6041 -2.5138,-5.1418 -0.01,-0.5377 -0.1979,-0.9765 -0.4283,-0.9752 -0.2305,0 -0.4878,2.6541 -0.572,5.8949 -0.084,3.2407 -0.4798,7.3246 -0.8793,9.0751 -0.3994,1.7506 -0.6558,5.4242 -0.5698,8.1637 0.086,2.7395 -0.015,5.2533 -0.2245,5.5862 -0.2096,0.333 -0.4301,2.3651 -0.49,4.5158 -0.06,2.1507 -0.2614,5.4815 -0.4479,7.4017 -0.4178,4.3028 -0.1513,4.3414 4.7197,0.6847 z m 49.7778,-11.7403 c 0.256,-0.1662 0.8509,-1.3947 1.322,-2.7301 0.8512,-2.4125 2.5346,-4.2814 5.4449,-6.0447 0.8361,-0.5065 1.7528,-1.5881 2.037,-2.4033 0.3986,-1.1435 1.3886,-1.8314 4.331,-3.0093 2.0979,-0.8398 4.9902,-2.3224 6.4276,-3.2946 3.706,-2.5068 11.1015,-8.6716 11.1015,-9.2541 0,-0.2691 -0.9315,-0.6641 -2.0699,-0.8776 -1.1384,-0.2136 -2.7624,-0.9711 -3.6089,-1.6834 -1.0388,-0.8741 -2.8628,-1.5061 -5.6112,-1.9445 -6.8563,-1.0937 -11.2501,-2.3419 -13.1126,-3.7253 -0.978,-0.7264 -1.9584,-1.3208 -2.1788,-1.3208 -0.2203,0 -1.6825,-0.6062 -3.2493,-1.3471 -1.5668,-0.741 -3.8255,-1.5129 -5.0191,-1.7154 -2.0182,-0.3424 -2.1484,-0.2844 -1.8579,0.8266 0.1719,0.6572 0.054,1.9361 -0.2618,2.8422 -0.4385,1.2578 -0.3838,1.9422 0.2311,2.8946 0.552,0.855 0.6662,1.7572 0.363,2.8683 -0.248,0.9084 -0.2082,2.0586 0.091,2.6167 0.2932,0.5477 0.5342,2.7092 0.5357,4.8033 0,2.0941 0.4746,7.8295 1.0515,12.7454 0.5768,4.9159 0.9246,9.7519 0.7728,10.7466 -0.1518,0.9948 -0.1017,2.2517 0.1112,2.7931 0.315,0.8009 0.6015,0.5678 1.5358,-1.25 0.6317,-1.229 1.358,-2.3705 1.6139,-2.5366 z m 103.6808,38.9068 c -2.5165,-1.5471 -5.9475,-6.6706 -5.9677,-8.9114 -0.01,-0.8743 -0.5004,-2.2723 -1.0945,-3.1065 -0.594,-0.8343 -1.2638,-2.2557 -1.4884,-3.1587 -0.4932,-1.9828 -1.872,-4.0213 -5.3918,-7.9713 -1.4594,-1.6378 -2.6535,-3.3038 -2.6535,-3.7024 0,-0.3984 -0.4114,-1.0659 -0.9142,-1.4832 -0.5029,-0.4173 -1.3891,-1.7678 -1.9693,-3.0012 -0.5803,-1.2333 -1.4665,-2.9966 -1.9695,-3.9182 -1.5197,-2.7851 -1.7577,-3.4049 -2.1725,-5.6571 -0.2192,-1.1901 -0.8648,-2.7632 -1.4347,-3.4959 -0.57,-0.7327 -1.0364,-1.615 -1.0364,-1.9605 0,-0.3455 -0.5027,-0.9422 -1.1172,-1.3259 -0.6316,-0.3945 -1.1173,-1.3027 -1.1173,-2.0896 0,-1.8938 -0.8722,-1.7486 -3.1439,0.5232 -1.0532,1.0531 -3.0653,2.3542 -4.4713,2.8912 -3.6671,1.4004 -4.1397,2.0402 -3.7936,5.135 0.1617,1.4453 0.5613,3.5364 0.8882,4.647 0.4614,1.5678 0.3252,4.0373 -0.6095,11.0478 -0.9236,6.9265 -1.0694,9.5128 -0.6262,11.1085 0.3177,1.1439 0.5781,4.0909 0.5787,6.5488 0,3.4732 -0.2457,4.8735 -1.106,6.2845 -1.2745,2.0905 -1.4441,2.1252 -4.4688,0.9149 -2.669,-1.0679 -3.2614,-2.6164 -2.2687,-5.9298 0.5253,-1.7535 0.5312,-3.5896 0.026,-8.1891 -0.8656,-7.8791 -0.8069,-7.5067 -1.3106,-8.3139 -0.2434,-0.39 -0.1451,-1.6105 0.2185,-2.7121 0.746,-2.2605 1.1401,-24.1363 0.4425,-24.5674 -0.2373,-0.1467 -0.4117,-1.5763 -0.3875,-3.177 0.096,-6.3275 0.096,-11.3564 0,-12.6862 -0.055,-0.7681 -0.2062,-5.6116 -0.3361,-10.7634 -0.2755,-10.9239 0.2442,-13.2574 2.9524,-13.2574 0.8597,0 2.1027,0.5027 2.7622,1.1172 0.6596,0.6145 1.4611,1.1172 1.7813,1.1172 0.32,0 0.5819,0.4721 0.5819,1.0489 0,0.5769 0.3753,1.3603 0.834,1.741 0.7004,0.5813 0.7926,2.2592 0.5754,10.471 -0.1638,6.1935 -0.046,10.176 0.3212,10.8622 0.3855,0.7204 0.402,1.9169 0.049,3.5709 -0.2918,1.368 -0.344,2.6028 -0.1159,2.7437 0.2281,0.1409 1.2667,-0.5724 2.3081,-1.5853 1.0413,-1.0129 2.7733,-2.4389 3.8486,-3.1689 1.0754,-0.73 2.1424,-1.6293 2.3711,-1.9986 0.2288,-0.3692 1.8628,-1.4842 3.631,-2.4778 1.7684,-0.9935 3.8404,-2.4261 4.6045,-3.1836 0.764,-0.7574 2.3284,-1.8563 3.4765,-2.4419 1.148,-0.5857 2.9274,-1.8802 3.9541,-2.8767 1.0268,-0.9964 2.4169,-2.1821 3.0893,-2.6347 0.6722,-0.4526 1.3487,-1.2068 1.5031,-1.6758 0.1544,-0.4692 1.853,-2.5291 3.7747,-4.5777 l 3.494,-3.7247 3.3458,0.1134 c 2.3422,0.079 3.9322,0.484 5.3009,1.3485 1.2758,0.8059 1.6155,1.2358 0.9776,1.2371 -1.1062,0.01 -1.2369,0.7083 -0.4154,2.2433 0.4324,0.8081 0.2596,1.4964 -0.7494,2.9832 -3.1879,4.6977 -4.7611,6.2382 -7.1029,6.955 -1.3072,0.4002 -3.3891,1.5942 -4.6266,2.6535 -1.2374,1.0592 -2.5432,1.9258 -2.9017,1.9258 -0.6991,0 -4.7291,3.7038 -4.7399,4.3563 -0.01,0.2156 -1.7632,1.6393 -3.9103,3.1636 -2.1472,1.5244 -3.9039,2.9294 -3.9039,3.1224 0,0.193 0.614,0.6306 1.3644,0.9726 1.0364,0.4722 1.305,0.9493 1.1172,1.985 -0.1582,0.8723 0.055,1.4792 0.5907,1.685 0.4609,0.1768 0.838,0.7983 0.838,1.381 0,0.5827 0.4946,1.6881 1.099,2.4565 0.6044,0.7684 0.9447,1.5514 0.7562,1.7399 -0.1885,0.1885 0.3037,1.3196 1.0938,2.5136 0.7901,1.1939 1.7086,3.1808 2.041,4.4152 0.3324,1.2345 0.9796,2.5559 1.4383,2.9366 0.4586,0.3806 0.8339,1.0295 0.8339,1.4419 0,0.4125 0.4942,1.0145 1.0982,1.3377 0.6041,0.3233 1.3605,1.5616 1.681,2.7519 0.3443,1.2786 1.1748,2.5521 2.0299,3.1123 1.0378,0.68 1.3784,1.3076 1.2042,2.2186 -0.1566,0.8194 0.1206,1.4973 0.781,1.9097 0.5631,0.3516 0.9946,0.8261 0.9589,1.0544 -0.036,0.2283 -0.01,0.6036 0.071,0.834 0.075,0.2304 0.1839,0.6075 0.2425,0.8379 0.2746,1.0803 2.4687,4.4359 4.3624,6.672 1.1522,1.3605 2.1077,2.5212 2.1233,2.5793 0.016,0.058 0.1704,1.2237 0.3441,2.5901 0.2213,1.7417 0.7323,2.812 1.7091,3.5804 1.199,0.9431 1.3506,1.4146 1.0869,3.3803 -0.3248,2.4222 -2.4148,4.8148 -4.1773,4.7824 -0.5205,-0.01 -1.8995,-0.6034 -3.0644,-1.3195 z m -548.8057,0.3567 c -1.4596,-0.2474 -1.9201,-2.0663 -1.8023,-7.1199 0.043,-1.8434 -0.083,-5.237 -0.2805,-7.5414 -0.1972,-2.3043 -0.3648,-6.7034 -0.3724,-9.7759 -0.01,-3.0724 -0.2407,-6.8431 -0.5179,-8.3793 -0.4395,-2.4368 -1.1007,-21.3177 -1.379,-39.383 -0.1422,-9.2317 -0.1431,-9.2371 -1.9329,-11.1531 l -1.6578,-1.7747 1.3416,-2.1251 c 2.0184,-3.1974 4.1365,-4.6568 6.2589,-4.3124 2.2231,0.3609 9.8765,4.0101 10.8369,5.1674 0.3947,0.4755 1.4716,1.2545 2.3931,1.731 1.3546,0.7006 5.6962,3.6563 9.0502,6.1614 0.324,0.242 0.9804,0.6914 1.4588,0.9986 0.4783,0.3072 2.3499,1.759 4.1592,3.2262 3.5453,2.8749 10.803,7.1084 12.1865,7.1084 0.4672,0 1.9355,1.086 3.2629,2.4133 1.9648,1.9648 2.4385,2.8391 2.5486,4.7043 0.1093,1.8532 -0.074,2.3573 -0.9598,2.6385 -0.6023,0.1911 -2.3964,1.5887 -3.9872,3.1059 -3.1609,3.0147 -6.8931,5.5638 -10.9982,7.5118 -1.7035,0.8084 -2.953,2.3277 -2.953,3.591 0,0.3168 0.7821,1.3761 1.738,2.354 0.956,0.9778 2.1226,2.9065 2.5926,4.286 0.47,1.3794 1.7744,3.416 2.8985,4.5258 1.1243,1.1098 2.6393,2.8976 3.3668,3.9729 3.3061,4.8867 7.4103,9.9362 8.5885,10.5667 1.1902,0.637 2.6019,3.3578 2.6019,5.0147 0,0.8301 -0.9979,1.8967 -2.5253,2.699 -1.1623,0.6105 -3.2311,0.1173 -3.8746,-0.9239 -0.2032,-0.3287 -0.8574,-0.5977 -1.4537,-0.5977 -0.7535,0 -1.0843,-0.3853 -1.0843,-1.2623 0,-0.7254 -1.1718,-2.5668 -2.7549,-4.3293 -1.5153,-1.6869 -3.1359,-3.4936 -3.6013,-4.015 -0.4656,-0.5213 -1.244,-1.7164 -1.7297,-2.6558 -0.4858,-0.9394 -1.8818,-2.3687 -3.1022,-3.1764 -1.2204,-0.8076 -2.2189,-1.678 -2.2189,-1.9341 0,-0.2562 -1.1312,-1.7395 -2.5138,-3.2962 -1.3826,-1.5567 -2.5218,-3.1362 -2.5315,-3.51 -0.01,-0.3738 -0.8607,-1.518 -1.8909,-2.5428 -1.8497,-1.8398 -1.895,-1.8518 -3.6133,-0.9632 -0.9571,0.4949 -1.7402,1.1052 -1.7402,1.3563 0,0.2511 -1.1576,1.0518 -2.5725,1.7795 -1.4149,0.7277 -2.7912,1.8985 -3.0586,2.6016 -0.2674,0.7033 -0.8527,1.2786 -1.3008,1.2786 -0.6493,0 -0.8505,1.1621 -0.9914,5.7259 -0.097,3.1492 -0.01,6.48 0.1948,7.4017 0.2044,0.9218 0.5217,4.6925 0.705,8.3794 0.3036,6.1042 0.2366,6.8169 -0.7497,7.9718 -1.3091,1.533 -4.3372,2.7874 -6.0342,2.4998 z m 6.885,-43.9544 c 1.5307,-1.0722 6.4287,-3.6656 6.9228,-3.6656 0.4772,0 7.8959,-4.839 8.3413,-5.4409 0.552,-0.7458 6.2264,-4.0557 6.953,-4.0557 0.383,0 1.3784,-0.712 2.212,-1.582 1.5152,-1.5815 1.5153,-1.5825 0.4373,-2.953 -1.0361,-1.3171 -11.5401,-7.1962 -12.8574,-7.1962 -0.3519,0 -1.6353,-0.6284 -2.8521,-1.3965 -1.2168,-0.7681 -2.5315,-1.3967 -2.9217,-1.397 -0.3902,-2e-4 -1.7149,-0.9065 -2.9439,-2.0139 -2.6978,-2.4312 -4.6952,-3.8111 -5.0307,-3.4757 -0.1362,0.1362 -0.2126,5.3864 -0.1699,11.6671 0.043,6.2808 0.043,13.8705 0,16.8662 -0.042,2.9955 0.1121,5.4465 0.3424,5.4465 0.2302,0 0.9347,-0.3615 1.5656,-0.8033 z m 585.0975,42.1415 c -0.6145,-0.6146 -1.1172,-1.3102 -1.1172,-1.546 0,-0.3813 -0.9351,-1.4856 -6.4069,-7.5668 -0.7777,-0.8642 -1.4139,-1.6481 -1.4139,-1.742 0,-0.094 -1.0683,-1.3039 -2.3741,-2.6891 -1.3058,-1.3851 -3.1539,-3.3664 -4.1067,-4.4029 -0.953,-1.0364 -4.1662,-3.8954 -7.1406,-6.3533 -2.9743,-2.458 -6.5248,-5.5561 -7.8898,-6.8847 -1.365,-1.3287 -2.7148,-2.2717 -2.9996,-2.0957 -0.2848,0.176 -1.0164,-0.525 -1.6257,-1.5577 -0.6094,-1.0328 -2.0735,-2.3522 -3.2536,-2.932 -2.2982,-1.1291 -2.8603,-2.2917 -2.9543,-6.1096 -0.039,-1.5839 0.4005,-2.9659 1.4657,-4.6086 1.2857,-1.983 1.8099,-2.3463 3.3847,-2.3463 1.0248,0 1.7334,-0.2102 1.5747,-0.467 -0.386,-0.6245 3.2134,-5.9638 6.5196,-9.6713 1.4663,-1.6441 4.0645,-4.8748 5.7738,-7.1791 1.7094,-2.3043 4.0919,-5.2047 5.2945,-6.4453 1.2026,-1.2406 2.2025,-2.4975 2.2217,-2.7931 0.02,-0.2956 1.6512,-1.9201 3.6261,-3.6099 1.975,-1.6899 3.5931,-3.3294 3.5959,-3.6434 0.01,-0.3141 0.7775,-1.5081 1.7215,-2.6535 2.5394,-3.0808 4.7051,-2.9284 8.1144,0.571 3.1464,3.2294 4.02,5.1369 2.7711,6.0502 -0.4791,0.3502 -0.8709,1.2939 -0.8709,2.0971 0,1.0388 -0.4573,1.6968 -1.5845,2.2796 -0.8714,0.4507 -2.227,1.6512 -3.0122,2.6678 -2.4863,3.2187 -7.3317,7.9238 -10.2453,9.9485 -2.7595,1.9177 -14.2064,13.5464 -14.2064,14.432 0,0.2478 2.1662,0.3369 4.8139,0.1979 3.035,-0.1593 5.9765,0.031 7.9603,0.5151 3.1778,0.7754 5.8684,0.892 12.2069,0.5291 3.1067,-0.1778 3.5951,-0.057 4.6164,1.1412 0.7358,0.8633 1.0473,1.8368 0.8756,2.7365 -1.125,5.8955 -0.8527,5.6203 -6.9254,7.0014 -2.1978,0.4999 -3.9959,1.1108 -3.9959,1.3576 0,0.8532 -2.7749,0.9947 -3.4543,0.1762 -0.4721,-0.5689 -1.3708,-0.7191 -3.0624,-0.5119 -1.3169,0.1612 -2.5173,0.094 -2.6676,-0.1491 -0.3644,-0.5897 -4.1632,-0.3364 -4.821,0.3214 -0.3199,0.3198 1.2719,2.3761 4.1454,5.3549 2.5655,2.6596 5.5192,6.0104 6.5639,7.4463 2.3897,3.2847 8.4743,9.3456 12.1898,12.1425 1.5606,1.1746 2.8373,2.541 2.8373,3.0364 0,0.4954 0.4782,1.4197 1.0629,2.054 1.5311,1.6612 0.474,4.5735 -2.1715,5.9823 -2.4903,1.3261 -3.648,1.3076 -5.0363,-0.081 z"
             id="path3719"
             sodipodi:nodetypes="ssssssssssssssssssssssssssssssssssssssssssssssssssssssssssssssssssssssssssscsssssssssssssssssssssssssssssssssssssssssssssssssssssssssssssssscsssssssssssssssssssssssssssssssssssssssssssssssssssssssssssssssssssssssssssssssssssssssssssssssssssssssssssssssscssssssssssssssssssscsssssssssssssssssssssssssssssssssssssssssssssssssssssssssssssssssssssssssssssssssssssscsssscsssssssssssssssssssssssssssssssssssssssssssssssssssssssssssssssssssssssscssssssssssssssssssssssssssssssssssssssssssssssssssssssssssssssssssssssssssssssssssssssssssssssssssssssssssssssssssssssssssssssssssssssssssssssssssssssscsssssssssssssssssssssssssssssssssssssssssssssssscsscsssssssssssssssssssssssssscssssscssssssssssssssssssssssssssssssssssssssssssssssssscsscssssscsssssssssssssssssscsssssssccssssssscsssssssssssssssssssssssssssssssssssssssssssssssssssssscssssssssssssssssssssssscssssssssssssssssssssssssss" /><path
             style="fill:none;fill-opacity:1;stroke:#000000;stroke-width:12.5928;stroke-linejoin:round;stroke-dasharray:none;stroke-opacity:1"
             d="m -4355.5173,5242.4724 26.7518,-10.1985 20.1047,0.8248 28.8448,6.6851 23.1966,-1.2391 31.3853,3.8161 26.5547,3.6936 31.1735,0.695 21.1851,-1.2538 25.7932,0.3348 31.864,0.1196 22.683,-0.7048 24.1273,-0.1982 30.6619,1.967 19.2073,-0.1874 33.9505,-0.017 18.1655,1.4465 32.069,-0.6993 24.9596,-0.2594 33.7744,-0.2272 17.9682,6.5226 25.0439,-2.1321 24.0505,0.5204 31.5931,-0.2847 26.2197,-3.8509 26.4396,-2.7756 26.6941,2.8369 25.1031,-7.3167 26.7561,-0.5491 26.1245,-1.5395 27.3844,0.2485 26.5963,5.2015 29.5783,-1.9418 23.0327,0.3346 3.7099,27.4006 -3.792,23.8805 -5.7516,27.4023 5.3916,28.5598 -1.0255,22.5429 0.6521,27.102 -4.5984,24.071 -28.7032,3.3558 -27.4383,-1.146 -22.3789,-0.1996 -31.5121,-5.0421 -19.2676,-0.799 -31.0503,1.7522 -26.5517,1.417 -23.4452,-2.2714 -25.7823,-3.466 -26.2662,3.7915 -24.8277,-1.8553 -36.615,-2.021 -16.099,-1.3374 -27.1926,11.3934 -26.5553,-0.6948 -31.035,-0.1487 -19.9334,2.4185 -20.1563,-2.2736 -33.9552,-0.2263 -25.7324,-0.2821 -28.1269,0.1013 -27.7664,3.0632 -21.4725,-0.049 -29.9848,2.7705 -30.4568,-1.7282 -15.0411,-7.1613 -34.3654,0.157 -24.0111,-1.1913 -22.2408,-0.9026 -25.3803,-3.0975 -28.3536,1.8016 -37.1878,-1.0746 -16.2139,5.8843 1.9962,-29.3786 -0.8993,-22.1416 -1.426,-29.0731 0.2448,-26.2327 1.9853,-20.077 2.1882,-26.6308 z"
             id="path2208-2-1-8"
             inkscape:path-effect="#path-effect2210-5-4-1"
             inkscape:original-d="m -4356.9936,5242.8037 h 870.0224 l -3.0248,180.3701 -866.9976,-1.1309 z"
             sodipodi:nodetypes="ccccc" /></g><path
           style="opacity:1;fill:none;fill-opacity:1;stroke:#000000;stroke-width:1;stroke-linejoin:round;stroke-dasharray:none;stroke-opacity:1"
           d="m -3972.0484,5427.662 -18.6913,-40.9673 19.0482,-12.2481 -6.9401,-19.8631 13.4917,-5.28 -17.5331,-25.6583 7.3458,-11.3858 4.2471,-23.1638 14.1519,-2.0926 2.4445,-11.5928 -5.1046,-13.169 0.069,-9.1118 0.296,-6.9048"
           id="path3961" /></g></g></g></svg>
