<?xml version="1.0" encoding="UTF-8" standalone="no"?>
<!-- Created with Inkscape (http://www.inkscape.org/) -->

<svg
   version="1.1"
   id="svg176"
   width="1017.2371"
   height="966.46948"
   viewBox="0 0 1017.2371 966.46948"
   sodipodi:docname="comic.svg"
   xml:space="preserve"
   inkscape:version="1.2.2 (b0a8486541, 2022-12-01)"
   xmlns:inkscape="http://www.inkscape.org/namespaces/inkscape"
   xmlns:sodipodi="http://sodipodi.sourceforge.net/DTD/sodipodi-0.dtd"
   xmlns="http://www.w3.org/2000/svg"
   xmlns:svg="http://www.w3.org/2000/svg"><defs
     id="defs180"><rect
       x="-1955.4146"
       y="630.24219"
       width="887.09399"
       height="162.14821"
       id="rect3105-7-6-7-6-4-1-1-28" /><inkscape:path-effect
       effect="roughen"
       id="path-effect2210-8-7-1-3-7-7-1-9"
       is_visible="true"
       lpeversion="1.2"
       method="size"
       max_segment_size="5"
       segments="114"
       displace_x="3;143452960"
       displace_y="3;2018388453"
       global_randomize="1;1"
       handles="along"
       shift_nodes="true"
       fixed_displacement="false"
       spray_tool_friendly="false" /><inkscape:path-effect
       effect="roughen"
       id="path-effect2210-3-2-5-7-1-7-71-0-7"
       is_visible="true"
       lpeversion="1.2"
       method="size"
       max_segment_size="40"
       segments="114"
       displace_x="1;589550557"
       displace_y="7;1910419474"
       global_randomize="1;1292492417"
       handles="along"
       shift_nodes="true"
       fixed_displacement="false"
       spray_tool_friendly="false" /><inkscape:path-effect
       effect="roughen"
       id="path-effect3126-8"
       is_visible="true"
       lpeversion="1.2"
       method="size"
       max_segment_size="8"
       segments="2"
       displace_x="2;1996488702"
       displace_y="2;1"
       global_randomize="1;1"
       handles="along"
       shift_nodes="true"
       fixed_displacement="false"
       spray_tool_friendly="false" /><inkscape:path-effect
       effect="roughen"
       id="path-effect3126-0-8"
       is_visible="true"
       lpeversion="1.2"
       method="size"
       max_segment_size="8"
       segments="2"
       displace_x="2;1996488702"
       displace_y="2;1"
       global_randomize="1;1"
       handles="along"
       shift_nodes="true"
       fixed_displacement="false"
       spray_tool_friendly="false" /><inkscape:path-effect
       effect="roughen"
       id="path-effect3126-1-5"
       is_visible="true"
       lpeversion="1.2"
       method="size"
       max_segment_size="8"
       segments="2"
       displace_x="2;1996488702"
       displace_y="2;1"
       global_randomize="1;1"
       handles="along"
       shift_nodes="true"
       fixed_displacement="false"
       spray_tool_friendly="false" /><inkscape:path-effect
       effect="roughen"
       id="path-effect3126-0-5-8"
       is_visible="true"
       lpeversion="1.2"
       method="size"
       max_segment_size="8"
       segments="2"
       displace_x="2;1996488702"
       displace_y="2;1"
       global_randomize="1;1"
       handles="along"
       shift_nodes="true"
       fixed_displacement="false"
       spray_tool_friendly="false" /></defs><sodipodi:namedview
     id="namedview178"
     pagecolor="#ffffff"
     bordercolor="#000000"
     borderopacity="0.25"
     inkscape:showpageshadow="2"
     inkscape:pageopacity="0.0"
     inkscape:pagecheckerboard="0"
     inkscape:deskcolor="#d1d1d1"
     showgrid="false"
     showguides="false"
     inkscape:zoom="0.13137786"
     inkscape:cx="9853.2583"
     inkscape:cy="2641.2365"
     inkscape:window-width="1920"
     inkscape:window-height="1011"
     inkscape:window-x="0"
     inkscape:window-y="0"
     inkscape:window-maximized="1"
     inkscape:current-layer="g182"><inkscape:grid
       type="xygrid"
       id="grid2722" /></sodipodi:namedview><g
     inkscape:groupmode="layer"
     inkscape:label="Image"
     id="g182"
     transform="translate(-7212.9154,-7820.0091)"><g
       id="vgn21"
       transform="translate(1247.8084,-10.393769)"><text
         xml:space="preserve"
         id="text3103-3-5-6-7-6-62-9-7"
         style="font-style:normal;font-variant:normal;font-weight:normal;font-stretch:normal;font-size:64px;font-family:'Canted Comic';-inkscape-font-specification:'Canted Comic, Normal';font-variant-ligatures:normal;font-variant-caps:normal;font-variant-numeric:normal;font-variant-east-asian:normal;white-space:pre;shape-inside:url(#rect3105-7-6-7-6-4-1-1-28);display:inline;fill:#000000;fill-opacity:1;stroke:#000000;stroke-width:0;stroke-linejoin:round;stroke-dasharray:none"
         transform="translate(7987.7857,7235.4396)"><tspan
           x="-1955.4141"
           y="693.09933"
           id="tspan71645">. . . a market for permits
</tspan><tspan
           x="-1955.4141"
           y="773.09933"
           id="tspan71647">     is born!</tspan></text><path
         style="fill:none;fill-opacity:1;stroke:#000000;stroke-width:6.25426;stroke-linejoin:round;stroke-dasharray:none;stroke-opacity:1"
         d="m 6006.2419,7862.7329 4.9528,-2.2684 3.6051,0.1227 5.5307,1.3779 4.3168,-0.2861 6.0778,0.793 5.0333,0.7953 6.0309,0.1729 3.8608,-0.2468 4.8662,0.093 6.1832,0.051 4.1875,-0.1303 4.5031,-0.022 5.9227,0.4459 3.4278,-0 6.6379,0.043 3.2054,0.3496 6.223,-0.079 4.685,-8e-4 6.5997,0.01 3.163,1.4521 4.6506,-0.2872 4.5047,0.2678 6.1175,0.1314 4.9544,-0.6554 5.0387,-0.491 5.0738,0.6632 4.6954,-1.4374 5.0887,-0.2057 4.9312,-0.4573 5.1913,-0.1851 5.0365,0.8321 5.7153,-0.3018 4.2662,-0.1021 5.7971,0.3356 3.4988,-0.1233 4.463,0.2469 7.138,0.8212 3.9175,0.1149 5.374,0.3913 4.2158,0.014 4.8602,0.7161 4.7313,-0.2413 5.8185,-0.044 3.8362,-1.0829 6.4918,-0.1965 3.9376,0.3481 4.9143,0.2861 5.5914,-0.5023 5.0813,-0.7733 4.9835,0.767 5.283,-0.4241 2.7294,-0.4764 7.1938,-0.3304 4.7819,2.3837 4.914,-0.1151 3.9376,-0 6.3539,0.5393 6.3217,-0.4235 3.2914,0.011 5.0932,-0.023 4.5719,0.061 4.6527,0.7 6.0486,0.075 4.171,0.7232 4.1164,-0.2007 7.3983,-1.4256 3.1452,0.039 5.468,-0.258 5.85,-0.2328 5.1706,-0.7602 4.55,0.035 2.583,-0.531 7.1463,0.4638 5.424,-0.7582 4.4204,0.069 4.8578,-0.616 5.2862,-0.6794 5.3781,0.5875 5.2542,0.4356 4.6166,-0.074 5.4045,0.3162 6.2253,0.17 2.8706,1.1242 5.2738,-0.3598 5.044,-0.106 4.5612,-0.025 4.8733,-0.1868 6.0717,-0.35 4.2907,-0.7801 2.8342,0.6372 7.1119,0.018 5.0112,-0.422 4.8737,-0.5597 3.8188,-0.086 5.2748,-0.7128 5.9964,-0.2565 4.3089,2.3183 5.6753,-1.9304 4.3509,-0.7433 6.5322,-0.042 5.0144,-0.2125 3.572,-0.2436 6.4534,-0.2677 4.2312,0.155 3.2324,0.4482 7.4104,-0.4039 3.1362,0.4147 3.998,-0.01 5.7504,0.2709 4.9341,0.2504 6.089,0.3405 5.3294,1.6635 4.6504,0.2931 6.2832,0.2072 4.0512,0.1969 4.7765,-2.2753 4.7802,0.041 5.0041,0.1805 4.2808,1.1066 6.6492,0.7211 3.4779,0.4243 6.5001,-1.1909 4.9368,-0.4106 3.7681,-0.3414 5.7442,-0.2998 5.7709,0.7026 5.5743,1e-4 4.5783,-0.9222 5.0278,-0.2846 3.6267,-1.0588 5.0876,-0.2584 6.3437,-1.1958 3.3363,-0.542 5.3967,-0.01 5.1053,0.1775 4.683,-8e-4 6.5976,0.8803 3.5075,0.097 6.9626,0.7712 3.3038,-2e-4 4.4866,-0.3136 3.8013,-0.1419 5.2242,-0.9882 8.0261,-0.5762 2.827,0.1747 5.2484,0.1056 5.2479,0.076 4.6473,0.153 4.4262,0.9924 5.9382,-0.097 4.6734,0.1839 4.9069,0.2974 5.4321,1.7789 2.2234,-0.5148 6.9481,0.2272 5.8315,-1.1969 4.4678,1.2785 4.9089,1.1543 5.5038,0.1304 3.7722,0.041 5.9225,-0.098 3.1697,0.1931 6.6351,-0.3206 4.7971,-0.2823 5.2864,-0.1102 5.3121,-0.073 4.6291,0.192 5.3233,-0.034 3.1999,-0.6232 6.6861,0.5271 3.607,-0.7297 5.8018,0.5144 4.6648,-0.034 5.9786,-0.2575 5.1962,-1.2466 4.2866,0.1349 5.8521,0.1767 4.6259,-0.4189 2.9146,-0.4983 7.1963,1.4925 4.0807,-0.4007 7.2152,-0.3858 1.4653,-1.6788 7.4653,-0.8754 4.9196,0.051 5.3039,1.8616 6.4692,1.4835 2.4149,0.9205 0.096,4.5645 0.1616,5.2191 -0.5076,5.8068 -0.9857,3.8471 -1.47,3.5164 -0.3384,5.9468 -0.084,5.7487 -0.015,4.1864 0.2247,4.8404 -0.024,4.921 0.7169,5.2666 -0.086,2.9145 -0.3092,6.3874 -1e-4,4.8505 0.2383,3.7305 -0.1994,7.175 -1.1175,5.355 -0.5821,2.9157 -0.02,5.3427 -0.2223,4.6667 0.6112,4.8776 -0.094,4.8814 -0.2691,4.8518 -0.1192,5.9609 0.1211,3.6258 -0.3687,5.1532 -0.075,4.8841 0.1442,4.8341 -0.063,5.1777 0.8272,4.926 0.5587,3.3688 -0.548,5.9463 0.4671,4.6743 -0.6719,5.3381 -5.0425,0.042 -5.1705,-0.7801 -4.7498,0.2269 -5.067,-0.093 -4.2412,-0.081 -6.0253,-0 -6.5329,0.4682 -3.1294,-0.2973 -4.9982,0.6271 -5.0717,0.1083 -4.8413,1.2306 -6.5145,-0.4283 -1.7175,0.037 -5.6245,-0.5692 -6.9614,0.053 -4.1986,0.4868 -5.0047,-0.2286 -4.3282,-0 -4.7681,-0.5371 -4.2944,-0.1126 -7.6848,-0.129 -2.8534,-1.0585 -5.496,0.5159 -5.6854,0.1561 -4.6656,0.011 -4.987,-0.8429 -4.9612,0.379 -5.2112,-0.1168 -5.2639,0.5569 -4.7951,0.098 -4.8321,-0.082 -6.5793,1.3847 -3.2,-0.062 -5.3222,-0 -5.1209,-0.3379 -4.8581,-1.0887 -6.2705,0.2097 -5.0476,-0.4496 -5.5718,0.1383 -4.2428,0.027 -3.7891,-0.2834 -3.6684,0.5061 -6.7187,-0.7414 -3.6673,0.08 -5.5735,0.041 -6.5784,0.2907 -4.1605,0.1098 -4.2908,-0.4988 -5.4057,-0.5747 -5.974,-0.036 -3.8779,0.5664 -5.5668,0.8459 -4.4617,0.15 -5.2134,0.2382 -5.0759,-0.073 -4.9285,-0.3423 -4.6425,0.586 -5.3166,0.1762 -4.6945,0.01 -4.9088,0.1128 -5.0756,-0.7311 -5.0669,-1.1151 -6.1799,-0.9468 -1.9724,0.4887 -8.7715,-1.2613 -4.2203,-0.9142 -3.4013,0.07 -5.3995,0.6845 -4.7711,-0.063 -4.9166,0.174 -6.7856,0.559 -3.6831,0.1129 -4.8984,-0.1737 -5.0233,-0.4671 -4.3043,0.077 -6.2908,-0.1237 -3.5037,-0.2169 -5.8251,-0.9345 -6.0078,1.56 -3.4317,-1.7724 -6.2719,-0.2125 -3.9307,0.5313 -5.3427,0.7427 -5.1512,1.9051 -2.789,-0.5113 -7.6821,-0.059 -4.1925,-0.032 -5.978,-0.2542 -3.4986,0.3978 -6.0964,0.8064 -5.5953,0.09 -3.7014,-0.7297 -5.1963,-1.2991 -5.0232,0.039 -4.9598,-0.022 -5.4368,-0.016 -4.5264,-0.6135 -4.5959,-1.316 -5.8863,-0.2884 -4.8967,-0.5873 -4.1005,1.2976 -4.7875,-0.1571 -5.575,2.0738 -4.9026,0.2523 -5.1729,0.8713 -4.4431,-0.8827 -5.8744,0.076 -4.6876,-0.6793 -5.9156,0.2756 -3.6694,-1.4413 -5.3507,0.3194 -4.2668,-0.5675 -5.4497,0 -5.6477,-0.021 -4.8477,0.054 -5.3972,0.2724 -4.3928,0.04 -4.7901,-0.9388 -5.792,-0.2778 -4.2261,1.0195 -4.8611,0.4036 -4.2926,-0.7009 -5.7554,0.296 -5.7355,0.1662 -3.2694,0.5318 -6.4336,0.4456 -4.9225,0.059 -4.6532,0.677 -3.4125,-0.2157 -7.273,0.086 -6.951,-0.3187 -2.9911,-2.1193 -4.1249,-0.4449 -5.0517,0.6491 -5.4574,0.5227 -4.2841,0.9447 -5.9684,1.4918 -4.3727,0.7284 -5.096,0.9085 -4.5976,-0.2102 -3.3644,-0.1435 -6.8684,0.9051 -5.5078,-0.1269 -4.804,-0.3479 -5.6754,-0.4464 -3.4757,0.01 -5.2175,0.026 -7.3203,-1.2081 -3.1706,-0.8634 -5.3551,0.8235 -5.7011,0.1531 -3.9568,0.076 -5.2814,0.02 -4.8989,1.2386 -6.5103,-0.9134 -3.9249,1.8218 -3.815,-0.056 -5.6093,-0.034 -5.4819,0.6265 -4.4776,-0.4585 -3.3807,0.046 -5.5869,0.6211 -5.9007,-0.3806 -4.2149,0.6797 -5.4019,1.1677 -5.4593,-0.6695 -5.4243,-0.057 -4.6159,-0.2041 -5.2771,0.5634 -4.8031,-0.5098 -4.8965,-0.1178 -5.1441,0.1865 -3.8032,-0.1276 -5.7654,-1.0281 -6.0404,0.1659 -5.0968,-0.1517 -3.5413,1.0832 -4.4693,0.2938 -6.0577,-0.8116 -5.0557,-0.3377 -5.0934,-0.412 -5.6921,-0.3551 -5.3599,-1.2335 -3.3805,-0.2318 -5.5607,-0.1601 -4.7537,-0.121 -4.7527,-0.2916 -0.7442,-6.0787 -0.018,-2.9999 -0.034,-5.1687 -0.2589,-5.6649 -0.2051,-5.8937 -0.1507,-3.8295 1.2841,-4.9051 0.7282,-5.0831 -1.107,-5.1375 -0.1877,-5.1439 -2.1524,-5.5489 -0.8994,-4.2861 -0.046,-5.2582 1.1002,-6.5844 -0.1052,-1.7516 0.1817,-4.9985 1.6617,-4.9144 0.6583,-6.2992 0.5855,-5.6344 0.1522,-3.822 -0.4365,-4.7531 -0.1161,-5.6161 -0.4918,-4.7303 1.555,-5.2459 0.549,-5.8452 -0.097,-4.0117 -1.1667,-3.8114 1.9089,-6.2489 0.2226,-5.2802 -0.7269,-5.3915 -0.3046,-4.3875 0.034,-5.5908 z"
         id="path2208-9-6-1-5-8-1-0-6"
         sodipodi:nodetypes="ccccc"
         inkscape:original-d="m 6005.8013,7862.7371 h 937.7814 l -3.2604,165.2507 -934.521,-1.0357 z"
         inkscape:path-effect="#path-effect2210-8-7-1-3-7-7-1-9" /><path
         style="fill:none;fill-opacity:1;stroke:#000000;stroke-width:9.62631;stroke-linejoin:round;stroke-dasharray:none;stroke-opacity:1"
         d="m 5970.8715,7840.2705 38.5511,-0.7716 39.2244,0.042 38.5909,-1.901 38.3132,-0.1421 38.836,3.6538 38.69,-0.1914 38.8827,0.1619 38.534,-2.0014 38.9164,0.5697 38.3702,-0.055 38.9632,-2.735 38.8035,-1.6844 38.7233,3.509 38.5894,3.1507 38.9153,-1.029 38.9308,0.4928 38.2791,1.0863 38.6736,0.5448 38.812,-1.1803 38.6894,-2.1692 38.6522,-1.8652 38.7131,3.0891 38.7748,-0.4098 38.2375,2.5686 38.9757,-1.5076 39.0177,-1.4584 -0.3629,39.2698 -0.459,44.0938 -0.6209,35.6929 -0.4783,45.4008 0.08,33.7876 0.2045,38.9442 -0.1226,40.798 -0.066,40.1314 0.1172,39.5036 -0.46,41.4051 -0.2314,39.9716 -0.1454,36.7235 0.3334,40.6139 -0.2214,39.7278 -0.066,39.3329 0.056,39.9558 -0.079,38.7597 -0.1703,43.6223 0.1075,37.0243 -0.3998,37.7449 -0.1993,40.8694 0.2514,39.8694 -0.8668,40.2282 0,38.5505 -38.572,-1.0622 -38.3681,-3.7883 -38.8734,-0.1363 -38.7371,-0.6597 -38.7672,-0.232 -38.1244,0.057 -38.5322,0.015 -38.67,-2.5282 -38.43,0.1845 -38.6162,-0.2274 -38.5707,-0.1142 -39.1083,2.1381 -37.915,0.2667 -39.2772,0.097 -37.9334,-2.0862 -38.6606,0.5753 -38.5142,0.3832 -38.8831,-0.4922 -38.2982,-0.7788 -38.1969,-1.7178 -38.8269,2.1418 -38.7342,2.023 -38.3771,-0.4026 -38.3266,-3.0406 -39.2698,-1.1984 -37.8588,5.965 -0.2985,-38.728 0.073,-42.5303 -0.1479,-37.7245 -0.4611,-39.3106 -0.5356,-42.3355 0.1114,-36.5015 0.244,-38.2176 -0.045,-40.7699 0.041,-38.902 0,-39.7565 0.055,-36.1635 0.06,-42.6435 -0.061,-39.418 0.4572,-36.2489 -0.4055,-42.488 0.032,-40.4687 0.2339,-36.1029 -0.2622,-43.5321 -0.1246,-39.2417 0.053,-34.7059 0.2288,-40.2621 0.3253,-39.4076 -0.035,-39.5831 z"
         id="path2208-7-2-2-5-3-0-7-8-5"
         sodipodi:nodetypes="ccccc"
         inkscape:original-d="m 5970.996,7840.3724 h 1006.3764 l -3.4988,952.8616 -1002.8776,-5.9722 z"
         inkscape:path-effect="#path-effect2210-3-2-5-7-1-7-71-0-7" /><g
         id="g7084"
         transform="translate(54.660837)"><path
           style="fill:#000000;stroke-width:1.00043"
           d="m 6399.1072,8711.7306 c -1.9124,-0.1966 -5.5233,-0.5224 -8.0243,-0.7242 -2.5008,-0.2018 -6.3171,-0.8209 -8.4806,-1.3758 -2.1635,-0.5549 -6.8577,-1.1531 -10.4316,-1.3292 -3.5739,-0.1762 -8.3034,-0.644 -10.5101,-1.0396 -2.2067,-0.3956 -4.8547,-0.8558 -5.8845,-1.0223 -1.0297,-0.1665 -3.1963,-0.6704 -4.8145,-1.1193 -2.8652,-0.7949 -6.3003,-1.4637 -12.3039,-2.3945 -2.629,-0.4076 -6.3173,-1.4624 -9.3617,-2.6769 -0.5884,-0.2347 -2.6346,-0.8626 -4.5471,-1.395 -1.9124,-0.5324 -4.1993,-1.3581 -5.082,-1.8344 -2.9009,-1.5651 -8.1594,-2.7507 -10.5868,-2.3868 -2.4069,0.3611 -4.1656,-0.4931 -12.8552,-6.2425 -1.7126,-1.133 -3.4214,-2.0602 -3.7975,-2.0602 -0.698,0 -1.9438,-1.0155 -8.237,-6.7147 -1.9662,-1.7806 -4.8386,-3.9472 -6.3829,-4.8146 -1.5444,-0.8674 -2.8082,-1.9447 -2.8085,-2.394 0,-1.4203 -1.4127,-2.9092 -3.9683,-4.1855 -1.7082,-0.8534 -2.797,-1.8688 -3.5178,-3.2819 -0.5741,-1.1254 -1.6524,-2.5249 -2.3962,-3.1098 -0.7437,-0.585 -1.3523,-1.2354 -1.3523,-1.4452 0,-0.6676 -4.2951,-5.836 -5.9224,-7.1264 -0.9033,-0.7161 -1.5669,-1.7541 -1.5669,-2.4506 0,-0.7414 -0.5168,-1.4849 -1.3374,-1.9239 -0.8624,-0.4618 -1.3373,-1.1767 -1.3373,-2.0141 0,-0.7141 -0.3384,-1.937 -0.7519,-2.7182 -0.4136,-0.7807 -1.4158,-2.8041 -2.2273,-4.4956 -0.8115,-1.6919 -1.7807,-3.0761 -2.1539,-3.0761 -0.3732,0 -1.2287,-0.7824 -1.901,-1.7384 -0.6724,-0.9565 -1.5313,-2.0571 -1.9088,-2.4458 -0.3774,-0.3888 -0.6863,-1.0601 -0.6863,-1.4922 0,-0.4321 -0.8425,-2.0365 -1.8723,-3.5656 -1.3515,-2.0068 -1.8723,-3.3657 -1.8723,-4.8851 0,-1.2233 -0.3777,-2.5221 -0.9021,-3.1014 -0.4961,-0.5485 -0.947,-1.923 -1.0019,-3.0549 -0.1419,-2.9276 -2.8704,-9.4273 -4.9058,-11.6861 -0.9502,-1.0548 -2.0046,-2.7788 -2.3432,-3.8312 -0.3386,-1.0524 -0.7989,-2.1541 -1.0229,-2.4482 -0.2239,-0.2945 -0.6874,-1.9014 -1.0298,-3.5712 -0.3424,-1.6699 -1.3148,-4.3897 -2.1609,-6.0443 -0.8462,-1.6542 -1.7032,-3.7786 -1.9045,-4.7207 -0.2014,-0.942 -0.5519,-1.9531 -0.7791,-2.2476 -0.2271,-0.2941 -0.5449,-1.4977 -0.7061,-2.6745 -0.7981,-5.8276 -2.5106,-12.1106 -3.5138,-12.891 -0.4685,-0.3643 -0.8807,-2.1324 -1.088,-4.6669 -0.1836,-2.2444 -0.6288,-4.3756 -0.9893,-4.7363 -0.3606,-0.3603 -0.6556,-1.4408 -0.6556,-2.4005 0,-0.9601 -0.4683,-3.0183 -1.0406,-4.5738 -0.5723,-1.5559 -1.1253,-3.5508 -1.2287,-4.4334 -0.1035,-0.8827 -0.566,-2.3271 -1.0277,-3.2097 -1.0153,-1.9411 -1.6039,-4.8708 -1.7812,-8.8661 -0.073,-1.6397 -0.4487,-3.5655 -0.8355,-4.2793 -0.4061,-0.7499 -0.744,-3.3333 -0.7996,-6.1129 -0.053,-2.648 -0.3992,-6.7406 -0.7694,-9.0944 -0.3703,-2.3538 -0.7413,-5.6036 -0.8245,-7.2218 -0.083,-1.6182 -0.4342,-4.3866 -0.78,-6.1519 -1.1432,-5.837 -1.624,-12.7016 -1.686,-24.0729 -0.034,-6.1787 -0.037,-11.8358 -0.01,-12.5714 0.086,-2.1673 0.08,-5.3954 -0.017,-8.8267 -0.1771,-6.2813 -0.055,-8.2327 0.6181,-9.857 0.5167,-1.2474 0.5324,-1.8251 0.065,-2.3884 -0.4628,-0.5577 -0.4663,-1.5255 -0.014,-3.878 0.3315,-1.7241 0.6732,-4.3384 0.7593,-5.8096 0.086,-1.4711 0.4352,-3.6376 0.7757,-4.8145 0.3404,-1.1769 0.7039,-4.2522 0.8078,-6.8341 0.1038,-2.5818 0.4701,-5.0333 0.8141,-5.4477 0.3439,-0.4144 0.7088,-2.6351 0.8108,-4.9349 0.1021,-2.2998 0.4376,-5.385 0.7457,-6.8562 0.3081,-1.4711 1.0224,-4.9616 1.5873,-7.7567 0.5649,-2.7952 1.4253,-5.9975 1.912,-7.1164 0.5538,-1.2729 0.7644,-2.6766 0.5629,-3.7509 -0.2199,-1.1718 0.049,-2.5636 0.8481,-4.3852 0.6436,-1.4676 1.2219,-3.8721 1.2853,-5.3432 0.1474,-3.4256 1.3023,-9.2405 2.1785,-10.9698 0.3736,-0.7373 0.8193,-2.1817 0.9904,-3.2097 0.1712,-1.028 1.1841,-4.156 2.251,-6.9511 1.0668,-2.7951 2.0116,-5.5635 2.0994,-6.1519 0.088,-0.5885 0.4154,-1.7274 0.7279,-2.5308 0.3126,-0.8035 1.0771,-3.5719 1.6991,-6.152 0.6219,-2.58 1.4407,-5.0521 1.8196,-5.4935 0.3789,-0.4413 0.5812,-1.0994 0.4496,-1.4624 -0.1317,-0.363 0.2474,-1.9612 0.8424,-3.5515 0.5951,-1.5903 0.9167,-3.0567 0.7149,-3.2585 -0.2019,-0.2019 0.052,-0.6017 0.5647,-0.8884 0.5124,-0.2868 0.9317,-0.9113 0.9317,-1.3878 0,-1.1261 2.9394,-6.325 4.5708,-8.0844 0.9888,-1.0664 1.1346,-1.5338 0.6577,-2.1083 -0.3904,-0.4705 -0.4224,-0.869 -0.088,-1.0987 0.2885,-0.1983 1.3194,-2.4066 2.2908,-4.9076 0.9714,-2.5008 2.2038,-5.0285 2.7386,-5.6169 0.5348,-0.5885 1.2686,-2.5922 1.6305,-4.4527 0.362,-1.8605 1.2252,-4.2183 1.9182,-5.2396 0.693,-1.0212 1.26,-2.4019 1.26,-3.0681 0,-0.6663 0.3535,-1.6787 0.7854,-2.2498 0.432,-0.5711 0.7931,-1.5265 0.8025,-2.123 0.01,-0.5965 0.392,-1.6201 0.8504,-2.2745 0.4584,-0.6544 0.7039,-1.3995 0.5456,-1.6556 -0.3416,-0.5526 2.6489,-3.812 3.4975,-3.812 0.329,0 0.4366,-0.393 0.2447,-0.8932 -0.191,-0.4978 0.2396,-2.0963 0.9727,-3.611 0.7234,-1.4947 1.7317,-3.8009 2.2406,-5.1249 0.5088,-1.324 1.4998,-2.946 2.2021,-3.6045 1.0378,-0.9729 1.1707,-1.3956 0.7097,-2.2569 -0.4389,-0.8202 -0.3231,-1.5152 0.5127,-3.0745 0.5939,-1.1082 1.0798,-2.6509 1.0798,-3.4283 0,-0.7775 0.3375,-1.6936 0.75,-2.036 0.4124,-0.3423 0.9035,-1.2343 1.0912,-1.9822 0.1877,-0.748 0.9892,-2.363 1.7809,-3.589 0.7918,-1.226 2.0534,-3.5531 2.8035,-5.1713 1.863,-4.019 4.697,-8.8708 5.6374,-9.6512 0.4267,-0.3541 0.7759,-0.9339 0.7759,-1.2883 0,-0.3544 1.324,-2.3701 2.9422,-4.4794 1.6182,-2.1091 2.9423,-4.1092 2.9423,-4.4445 0,-0.3353 0.6331,-1.1964 1.407,-1.9136 2.4153,-2.2385 5.5511,-6.757 6.1007,-8.7907 0.2895,-1.0713 1.1221,-2.3381 1.8503,-2.8153 0.7282,-0.4771 1.4834,-1.5264 1.6782,-2.3318 0.1949,-0.8054 1.2218,-2.4402 2.282,-3.633 1.0604,-1.1927 3.5327,-3.9906 3.5327,-3.9906 l 3.2097,-4.6067 23.8053,-15.1792 0.535,-0.4196 1.4711,-1.3107 2.9105,-2.1565 c 0,0 3.6915,-2.9451 6.8524,-4.5846 6.449,-3.3449 15.2745,-8.2079 15.7543,-8.681 0.2795,-0.2756 1.0477,-0.501 1.7071,-0.501 0.6593,0 1.3476,-0.2408 1.5294,-0.535 0.1818,-0.2942 1.0482,-0.5349 1.9252,-0.5349 0.877,0 2.5383,-0.4815 3.6918,-1.0699 1.1534,-0.5885 2.6995,-1.07 3.4358,-1.07 1.2759,0 6.9365,-1.8651 8.0657,-2.6575 0.2942,-0.2065 2.22,-0.8105 4.2795,-1.3424 2.0596,-0.5318 4.0444,-1.2018 4.4107,-1.489 0.4504,-0.353 1.0871,-0.2462 1.9668,0.3302 0.9591,0.6284 3.0525,0.9084 7.9687,1.0656 3.6674,0.1174 6.9951,0.4232 7.3949,0.6796 0.3998,0.2564 2.5324,0.4161 4.739,0.3549 4.5324,-0.1257 11.5839,1.1665 17.7985,3.2619 2.2864,0.7708 4.6193,1.4016 5.1842,1.4016 0.5649,0 1.1758,0.2407 1.3577,0.535 0.1818,0.2942 0.7684,0.5349 1.3034,0.5349 0.5351,0 1.2725,0.3611 1.6388,0.8024 0.3663,0.4414 1.0577,0.8104 1.5366,0.8202 0.4789,0.01 1.8336,0.7168 3.0105,1.5712 3.7824,2.7458 10.0297,6.4488 11.4549,6.7897 0.7612,0.1821 2.5553,1.5009 3.987,2.9306 1.4317,1.4297 2.9146,2.5995 3.2954,2.5995 0.7146,0 6.2668,4.1459 6.5837,4.9162 0.098,0.2383 0.528,0.4333 0.9552,0.4333 0.4273,0 3.5875,2.8888 7.0227,6.4195 3.4352,3.5306 6.6312,6.4194 7.1023,6.4194 0.471,0 1.432,0.7823 2.1355,1.7386 0.7036,0.9562 2.108,2.4608 3.1209,3.3434 1.013,0.8827 2.5856,2.4474 3.4948,3.4772 0.9092,1.0298 3.5535,3.7825 5.8763,6.1171 2.3228,2.3347 5.0038,5.4641 5.9577,6.9544 0.9539,1.4903 2.7431,3.6725 3.976,4.8494 1.2329,1.1769 2.5722,2.7416 2.9764,3.4772 0.4042,0.7355 1.8296,2.541 3.1676,4.0121 1.338,1.4711 2.4394,3.0359 2.4477,3.4772 0.01,0.4413 0.7944,1.307 1.747,1.9237 0.9526,0.6168 2.093,1.7988 2.5344,2.6269 0.4413,0.828 1.9417,2.7307 3.3341,4.2281 1.3923,1.4975 2.5358,2.9803 2.541,3.2952 0.01,0.3148 0.8519,1.5567 1.8817,2.7598 1.0298,1.203 1.8723,2.325 1.8723,2.4931 0,0.1682 0.7935,1.5743 1.7633,3.1247 0.9699,1.5504 2.3541,3.981 3.076,5.4014 0.7219,1.4204 1.7339,2.8131 2.2488,3.0948 0.5149,0.2818 0.9362,0.782 0.9362,1.1117 0,0.3296 0.6018,1.3883 1.3374,2.3527 0.7355,0.9644 1.3373,1.9565 1.3373,2.2047 0,0.2482 0.9629,1.7328 2.1399,3.2991 1.1768,1.5663 2.1398,3.1475 2.1398,3.5137 0,0.3662 0.4729,1.0938 1.0511,1.617 0.5781,0.5232 1.415,2.2032 1.8599,3.7334 0.4448,1.5302 1.2958,3.2229 1.8911,3.7617 0.5953,0.5387 1.0823,1.2738 1.0823,1.6335 0,0.3597 0.3561,0.9495 0.7913,1.3108 1.0144,0.8418 2.4184,3.6482 2.4184,4.8338 0,0.5036 0.4815,1.5276 1.0699,2.2757 0.5885,0.7481 1.0699,1.8496 1.0699,2.4479 0,0.5982 0.2408,1.2365 0.535,1.4183 0.2942,0.1818 0.535,0.841 0.535,1.4649 0,1.776 2.1984,7.9011 3.8508,10.7288 0.8243,1.4105 1.4987,2.9008 1.4987,3.3118 0,0.4111 0.2407,0.8961 0.5349,1.078 0.2942,0.1818 0.535,1.5332 0.535,3.0031 0,1.7583 0.5342,3.9278 1.5615,6.342 0.8588,2.0183 1.4504,3.7806 1.3147,3.9164 -0.1357,0.1357 0.3497,1.5955 1.0787,3.2441 0.7291,1.6485 1.4943,4.1459 1.7005,5.5497 0.2061,1.4039 0.6194,3.1543 0.9181,3.8899 0.2989,0.7355 0.7362,2.7817 0.9719,4.547 0.9088,6.808 1.1796,8.0532 1.9414,8.9295 0.4329,0.4979 0.675,1.2201 0.5381,1.6049 -0.137,0.3848 0.083,1.358 0.4896,2.1627 0.6024,1.1933 0.6135,1.6747 0.06,2.6109 -0.4376,0.7407 -0.4836,1.2195 -0.1296,1.3499 0.3018,0.1113 0.4623,1.1077 0.3568,2.2143 -0.1451,1.5212 0.08,2.2582 0.9224,3.0206 1.1798,1.0676 1.4716,2.6985 0.5814,3.2487 -0.3362,0.2078 -0.2374,0.901 0.2675,1.8773 0.4402,0.8514 0.8005,2.2173 0.8005,3.0353 0,1.6216 1.5381,5.9334 3.5422,9.9296 0.7502,1.496 1.2723,3.4827 1.2723,4.8413 0,1.2674 0.2393,2.5435 0.5316,2.8359 0.4363,0.4362 0.8636,3.6743 1.1581,8.7765 0.068,1.1753 2.0727,7.1253 2.6277,7.7984 0.2786,0.3381 0.2585,1.3326 -0.049,2.4036 -0.3408,1.1883 -0.342,2.8571 0,4.773 0.4964,2.8107 0.5766,4.59 0.6749,14.9823 0.063,6.6232 -0.6021,16.2008 -1.4749,21.2482 -0.8578,4.9615 -0.5874,19.3517 0.4021,21.396 0.422,0.872 0.4018,1.3926 -0.077,1.9691 -0.3577,0.4311 -0.7251,2.0642 -0.8163,3.6292 -0.643,11.0266 -1.0388,14.7929 -1.6865,16.0466 -0.4069,0.7877 -0.8722,2.5348 -1.034,3.8824 -0.1618,1.3476 -0.8736,3.5918 -1.5818,4.9872 -0.8096,1.5949 -1.1,2.7257 -0.7822,3.0452 0.7236,0.7273 0.6237,1.3641 -0.2139,1.3641 -0.3957,0 -1.0871,0.4213 -1.5364,0.9362 -0.9652,1.1062 -2.3039,7.8068 -1.7415,8.7168 0.2144,0.347 0.084,0.8193 -0.2886,1.05 -0.4051,0.2503 -0.7515,1.8632 -0.8597,4.0021 -0.1934,3.8259 -1.0738,8.5579 -3.1758,17.0704 -0.7191,2.9124 -1.3075,6.2397 -1.3075,7.394 0,1.1539 -0.3611,2.4594 -0.8025,2.9007 -0.4413,0.4414 -0.8024,1.3353 -0.8024,1.9865 0,0.6511 -0.4815,2.5537 -1.0699,4.2279 -0.5884,1.6743 -1.0699,3.7241 -1.0699,4.5554 0,0.8309 -0.2583,1.7694 -0.574,2.0851 -0.3156,0.3158 -0.6571,1.387 -0.7588,2.3804 -0.3088,3.0172 -2.9815,11.835 -4.2768,14.1107 -0.67,1.1768 -1.3858,2.8619 -1.5907,3.7446 -0.2048,0.8826 -0.6782,1.9659 -1.0519,2.4072 -0.3738,0.4414 -1.0499,1.8857 -1.5025,3.2098 -0.4526,1.324 -1.3503,3.7312 -1.9948,5.3493 -0.6445,1.6185 -1.7632,4.6276 -2.486,6.6871 -0.7228,2.0594 -1.5281,4.226 -1.7895,4.8145 -0.2614,0.5886 -0.6281,1.7682 -0.8148,2.6216 -0.1867,0.8537 -0.9001,1.9928 -1.5852,2.5316 -0.6851,0.5389 -1.4031,1.8195 -1.5957,2.8458 -0.1925,1.0263 -0.885,2.5353 -1.5389,3.353 -0.6538,0.8176 -2.1456,2.9312 -3.3149,4.6966 -1.1694,1.7653 -2.2763,3.3301 -2.4599,3.4773 -0.1836,0.1468 -0.7285,1.0375 -1.2109,1.9792 -0.4824,0.9416 -1.1905,1.9046 -1.5736,2.1401 -0.7276,0.4465 -3.6509,5.0569 -4.2893,6.764 -0.203,0.5429 -0.8493,1.1126 -1.4363,1.2663 -0.587,0.1532 -1.0672,0.4794 -1.0672,0.7246 0,0.6299 -3.1432,5.2129 -3.9136,5.7064 -0.3519,0.2255 -1.3507,1.373 -2.2196,2.5497 -1.5288,2.0707 -8.765,9.3071 -12.5901,12.5906 -2.6469,2.2721 -9.0375,6.3657 -10.5166,6.7372 -0.9587,0.2403 -1.3465,0.036 -1.6882,-0.8871 -0.4172,-1.1278 -0.6168,-1.0022 -3.3474,2.1044 -2.4677,2.8073 -8.5919,7.54 -9.7569,7.54 -0.3554,0 -4.5556,3.0949 -5.9775,4.4045 -0.8287,0.7631 -3.6753,2.7335 -10.7071,7.4104 -2.648,1.7614 -5.8979,4.0202 -7.2219,5.02 -1.324,0.9994 -2.649,1.8336 -2.9445,1.8528 -1.0443,0.069 -9.1491,4.22 -9.8213,5.0296 -0.375,0.4522 -1.4476,0.9866 -2.3835,1.188 -0.9359,0.2014 -3.656,1.649 -6.0446,3.2162 -2.3887,1.5675 -4.9803,3.0099 -5.7592,3.2057 -0.7789,0.1953 -1.8927,0.9609 -2.475,1.7015 -0.8423,1.0704 -1.7432,1.4279 -4.4049,1.7473 -1.8404,0.2207 -5.633,0.928 -8.4281,1.5723 -7.1835,1.6559 -9.9385,1.964 -13.9088,1.5564 z m -16.9805,-20.8154 c 1.1056,-0.3069 5.7998,-0.6616 10.4315,-0.7876 4.6318,-0.126 9.3843,-0.3406 10.5612,-0.4766 1.1769,-0.1365 4.7878,-0.4831 8.0242,-0.7712 3.2365,-0.2876 6.2456,-0.6122 6.6869,-0.721 0.4414,-0.1083 3.2098,-0.7587 6.152,-1.4447 2.9422,-0.6861 6.7036,-1.8203 8.3586,-2.5209 1.6551,-0.7001 3.2911,-1.273 3.6357,-1.273 0.3446,0 2.4111,-0.8357 4.5923,-1.8568 2.1812,-1.0211 4.6375,-2.0157 5.4585,-2.2099 0.821,-0.1942 2.7186,-1.2847 4.2169,-2.4229 1.4983,-1.1383 3.0908,-2.0695 3.5388,-2.0695 0.4481,0 1.3887,-0.4409 2.0904,-0.9802 0.7017,-0.5388 2.3591,-1.5619 3.6831,-2.2732 1.324,-0.7118 2.5276,-1.4336 2.6748,-1.6049 0.147,-0.1709 3.1062,-1.856 6.5757,-3.7445 4.8505,-2.6404 6.3851,-3.7393 6.641,-4.7568 0.3237,-1.2863 2.0995,-3.1704 3.0223,-3.2061 0.2518,-0.01 0.9313,-0.6199 1.5099,-1.3553 0.5786,-0.7354 1.4558,-1.3389 1.9493,-1.3409 0.4936,0 1.6196,-0.4959 2.5022,-1.0973 0.8827,-0.6014 2.6882,-1.6682 4.0122,-2.3704 3.1434,-1.6678 14.9786,-13.6361 14.9786,-15.1475 0,-0.3121 0.4592,-0.7133 1.0205,-0.8915 0.5613,-0.1781 1.1383,-0.6154 1.2823,-0.9721 0.144,-0.3567 1.848,-2.6946 3.7867,-5.1953 1.9386,-2.5012 4.3083,-5.5689 5.2659,-6.8179 2.0384,-2.658 8.4363,-13.2906 9.9948,-16.6098 0.5931,-1.2634 1.5688,-2.9858 2.168,-3.8276 0.5993,-0.8413 1.0896,-1.85 1.0896,-2.2412 0,-0.3916 0.5838,-1.919 1.2973,-3.3946 0.7136,-1.4761 1.7191,-3.7666 2.2345,-5.0906 1.0084,-2.5907 2.649,-6.5603 3.4266,-8.2919 0.2643,-0.5882 0.7139,-1.9122 0.9992,-2.9421 0.7495,-2.7054 3.1976,-9.1513 3.7378,-9.8422 0.2536,-0.3242 0.6304,-1.2967 0.8376,-2.1609 0.2071,-0.8643 1.2032,-3.3369 2.2135,-5.4951 1.0104,-2.1577 1.837,-4.2255 1.837,-4.5951 0,-0.3695 0.3322,-1.1466 0.7382,-1.7268 0.8144,-1.1639 4.2771,-11.2023 4.8851,-14.1616 0.2116,-1.0295 0.5864,-2.1241 0.8329,-2.4318 0.2465,-0.3077 0.4347,-1.0299 0.4183,-1.6048 -0.034,-1.188 2.0858,-9.2448 4.0047,-15.2217 0.7085,-2.2067 1.4546,-5.936 1.6579,-8.2871 0.242,-2.7973 0.6752,-4.6126 1.2534,-5.2515 0.5749,-0.6353 0.9131,-2.0384 0.968,-4.0166 0.1149,-4.1421 1.0206,-10.3456 1.6968,-11.6218 1.089,-2.0553 2.463,-9.6898 2.6436,-14.6889 0.101,-2.7952 0.2933,-6.1654 0.4274,-7.4894 0.1341,-1.324 0.3821,-8.4255 0.5512,-15.781 0.169,-7.3556 0.4236,-13.717 0.5657,-14.1364 0.2727,-0.8047 -0.3877,-7.6202 -1.6884,-17.4258 -0.8808,-6.6403 -1.4739,-13.6558 -1.3569,-16.0485 0.095,-1.9435 -1.9743,-12.9092 -2.7436,-14.5389 -0.3025,-0.6408 -0.4115,-1.8444 -0.2421,-2.6747 0.3582,-1.7565 -1.0134,-11.7578 -1.8058,-13.1667 -0.2963,-0.5269 -0.3889,-1.2003 -0.2059,-1.4965 0.3731,-0.6036 -0.728,-5.7949 -1.4142,-6.6676 -0.2433,-0.3095 -0.305,-1.0883 -0.1371,-1.7306 0.168,-0.6423 0.1245,-1.5927 -0.097,-2.112 -0.2211,-0.5193 -0.4589,-1.3052 -0.5285,-1.7465 -0.07,-0.4414 -0.4155,-1.8857 -0.7689,-3.2098 -0.3534,-1.324 -0.6192,-3.0091 -0.5906,-3.7446 0.028,-0.7356 -0.1861,-1.8189 -0.4771,-2.4073 -0.805,-1.6282 -4.3032,-21.0496 -4.3062,-23.9076 0,-0.7917 -0.2197,-1.5743 -0.4863,-1.7391 -0.2666,-0.1647 -0.366,-0.7536 -0.2209,-1.3086 0.1451,-0.5549 0,-1.1707 -0.3177,-1.3684 -0.3198,-0.1977 -0.5815,-1.1953 -0.5815,-2.2169 0,-1.1275 -0.3043,-1.9743 -0.7742,-2.1546 -0.4308,-0.1654 -1.0453,-1.6405 -1.3858,-3.3267 -0.3364,-1.6663 -1.089,-3.8558 -1.6725,-4.8655 -0.5835,-1.0098 -1.4342,-2.9356 -1.8904,-4.2797 -0.4563,-1.344 -1.2811,-3.0177 -1.833,-3.7194 -0.5518,-0.7017 -1.0209,-1.6646 -1.0424,-2.1398 -0.022,-0.4752 -0.4994,-1.5862 -1.062,-2.4689 -0.5626,-0.8827 -1.2463,-2.1072 -1.5193,-2.7211 -0.2731,-0.614 -1.3599,-2.0319 -2.4153,-3.1509 -1.0553,-1.1189 -1.9187,-2.4448 -1.9187,-2.9463 0,-0.5016 -0.5715,-1.5769 -1.2699,-2.3897 -0.6984,-0.8128 -1.5506,-2.415 -1.8938,-3.5604 -0.3431,-1.1454 -0.8457,-2.0826 -1.1168,-2.0826 -0.2711,0 -0.7657,-1.0132 -1.0992,-2.2517 -0.3335,-1.2384 -0.9305,-2.5022 -1.3267,-2.8085 -0.8829,-0.6823 -4.5276,-7.6513 -4.5276,-8.6571 0,-0.3995 -0.4213,-1.1906 -0.9362,-1.7579 -1.7213,-1.8967 -2.2735,-2.6643 -2.2735,-3.16 0,-0.2706 -0.3656,-0.7954 -0.8123,-1.1662 -0.4468,-0.3708 -1.1932,-1.4767 -1.6586,-2.4575 -0.4655,-0.9809 -1.9079,-2.8122 -3.2055,-4.0697 -1.2975,-1.2575 -2.5022,-2.7373 -2.6772,-3.2884 -0.1749,-0.5512 -1.0287,-1.9967 -1.8972,-3.2122 -0.8685,-1.2156 -2.0417,-2.9434 -2.607,-3.8395 -0.5653,-0.8962 -1.7762,-2.1828 -2.6908,-2.859 -0.9147,-0.6762 -2.344,-2.6694 -3.1762,-4.4292 -1.3479,-2.8501 -5.5773,-8.4231 -8.0506,-10.6081 -0.4995,-0.4414 -1.0758,-1.5247 -1.2805,-2.4073 -0.4867,-2.098 -2.92,-5.8682 -5.5546,-8.6061 -1.1572,-1.2027 -2.2619,-2.684 -2.4548,-3.2918 -0.1929,-0.6079 -1.1513,-1.4851 -2.1298,-1.9494 -0.9784,-0.4643 -2.0969,-1.2273 -2.4855,-1.6955 -0.8264,-0.9957 -3.9249,-2.6179 -5.9087,-3.0934 -1.0724,-0.2571 -7.447,-5.6955 -10.2497,-8.7444 -0.2209,-0.2403 -2.4692,-2.5828 -4.9963,-5.2055 -2.527,-2.6227 -5.5322,-6.0377 -6.6782,-7.5889 -1.1459,-1.5512 -3.4117,-3.702 -5.035,-4.7795 -1.6234,-1.0776 -3.0857,-2.1762 -3.2497,-2.4414 -0.1639,-0.2653 -0.7617,-0.4823 -1.3283,-0.4823 -1.0369,0 -5.2255,-2.344 -8.343,-4.6689 -1.3559,-1.0112 -2.9619,-1.4027 -8.3328,-2.0312 -7.6665,-0.8971 -6.7247,-0.8577 -24.2245,-1.0137 -14.3552,-0.128 -18.9188,0.4187 -22.8472,2.7365 -1.009,0.5953 -3.139,1.5156 -4.7333,2.0452 -1.5944,0.5296 -3.6239,1.405 -4.5101,1.9454 -0.8863,0.5405 -1.917,0.9836 -2.2907,0.9847 -0.3736,0 -1.5836,0.5729 -2.6889,1.2706 -1.1053,0.6978 -2.7655,1.4346 -3.6894,1.6376 -0.9238,0.2029 -1.8126,0.7153 -1.9751,1.1386 -0.1624,0.4234 -0.7241,0.7713 -1.2483,0.7733 -0.5241,0 -1.6751,0.4818 -2.5578,1.0663 -0.8827,0.5846 -2.0178,1.0645 -2.5224,1.0664 -0.5046,0 -1.7083,0.6745 -2.6748,1.4944 -3.1897,2.7063 -19.5844,11.8899 -19.5844,11.8899 0,0 -1.9258,1.7109 -3.8383,3.7934 -6.0446,6.5822 -8.3925,8.8979 -9.7818,9.6474 -4.7029,2.5373 -6.688,4.0039 -7.3043,5.3961 -0.3799,0.8582 -1.5031,1.9478 -2.4959,2.4213 -0.9929,0.4735 -1.9443,1.2991 -2.1144,1.8348 -0.17,0.5358 -0.7562,1.2133 -1.3027,1.5058 -0.5464,0.2924 -1.5923,1.7975 -2.3242,3.3445 -0.7319,1.5471 -2.8062,4.6176 -4.6095,6.8233 l -3.2788,4.0105 0.3261,3.4391 c 0.2869,3.0254 0.2292,3.3586 -0.4803,2.7698 -0.4435,-0.3681 -1.4809,-0.5917 -2.3053,-0.4969 -1.1588,0.1333 -1.7825,0.7186 -2.7493,2.5797 -0.6878,1.324 -1.713,2.9043 -2.2782,3.5117 -0.5652,0.6074 -1.0276,1.3751 -1.0276,1.7061 0,0.3309 -1.3241,2.4471 -2.9423,4.7025 -1.6182,2.2555 -2.9422,4.3835 -2.9422,4.729 0,0.3454 -0.9028,1.5517 -2.0061,2.6807 -2.0716,2.1198 -2.7128,3.1152 -4.8895,7.591 -0.7033,1.446 -1.7414,3.4716 -2.307,4.5014 -0.5655,1.0298 -1.5212,2.9556 -2.1235,4.2796 -0.6024,1.324 -1.7578,3.8516 -2.5674,5.617 -0.8097,1.7653 -1.9682,4.4133 -2.5744,5.8844 -5.5546,13.4788 -6.8507,17.0453 -9.526,26.2127 -1.0303,3.5307 -2.2053,7.1416 -2.6109,8.0243 -0.4057,0.8826 -1.0123,2.8085 -1.348,4.2795 -0.3357,1.4712 -0.8172,3.064 -1.07,3.5398 -0.6884,1.2958 -5.411,19.0871 -6.2668,23.6091 -0.1868,0.9865 -0.6109,1.4711 -1.2877,1.4711 -0.555,0 -1.0091,0.2407 -1.0091,0.5349 0,0.2942 0.3469,0.535 0.7708,0.535 0.424,0 0.9136,0.2309 1.088,0.5132 0.3139,0.5079 0.2206,0.7712 -1.4821,4.1782 -0.4808,0.9621 -1.1426,3.249 -1.4708,5.0821 -0.3282,1.833 -1.1666,5.8604 -1.863,8.9498 -0.6965,3.0893 -1.4144,6.8206 -1.5954,8.2918 -0.181,1.471 -1.0262,5.4431 -1.8783,8.8267 -0.852,3.3835 -1.7925,7.4759 -2.0899,9.0941 -0.2974,1.6183 -1.0296,5.3126 -1.627,8.2098 -0.5975,2.8971 -1.0863,6.2689 -1.0863,7.4928 0,1.2239 -0.2587,3.0663 -0.5749,4.0942 -0.3161,1.0278 -0.6762,3.0724 -0.8001,4.5435 -0.1736,2.0608 -0.2306,20.4408 -0.102,32.8996 0.01,0.7355 0,7.1148 -0.019,14.1762 -0.036,14.2008 0.014,15.2082 1.1516,23.2704 1.1129,7.8839 1.8792,12.0499 2.5323,13.7679 0.3091,0.813 0.5281,1.5405 0.4866,1.6167 -0.073,0.1336 0.4344,4.8723 0.8156,7.6182 0.1021,0.7358 0.3435,2.5413 0.5364,4.0121 0.3561,2.7151 0.9276,5.4421 1.85,8.8267 2.3725,8.7068 5.6482,22.8508 6.6904,28.8874 0.4317,2.5012 1.1732,5.8714 1.6477,7.4895 0.4746,1.6181 1.2059,4.5068 1.6251,6.4194 0.4193,1.9126 1.4887,5.4991 2.3766,7.9701 1.7817,4.959 3.7167,11.8447 3.7167,13.2256 0,0.9156 0.9296,3.1018 4.0671,9.5642 1,2.0594 1.8179,4.0514 1.8177,4.427 0,0.9713 4.6407,10.6486 5.3037,11.0582 0.3035,0.1878 0.9624,1.2338 1.4643,2.3247 0.5019,1.0905 1.8925,3.0877 3.0903,4.4382 1.1978,1.3501 3.9833,4.5542 6.1899,7.1203 3.5189,4.092 7.2521,7.9276 17.9209,18.413 2.4004,2.3592 8.1462,6.5161 9.0065,6.5161 0.185,0 2.2406,1.2891 4.5678,2.8647 4.8623,3.2924 10.1639,5.9167 14.7781,7.3157 1.7654,0.5352 4.5338,1.4893 6.152,2.12 1.6182,0.6312 3.8132,1.4697 4.8777,1.8641 1.0644,0.3944 2.3884,0.9472 2.9422,1.2289 2.4527,1.247 5.3417,2.061 12.7757,3.6001 2.3538,0.4875 4.7611,1.0764 5.3495,1.3092 2.324,0.9195 11.053,3.2987 17.6535,4.8121 3.8249,0.8771 7.9173,1.8191 9.0941,2.0935 2.9583,0.6893 6.0497,0.7058 8.4297,0.045 z"
           id="path2451-4"
           sodipodi:nodetypes="sssssssssssssssscsssssssssssssssssssssssssssssssssssssssssssssssssssssssssssssssssssssssssssssssssssssssssssssssssssssccccccsssssssssssssssssssssssssssssssssssssssssssssssssssssssssssssssssssssssssssssssssssssssssssssssssssssssssssssssssssssssssssssssssssssssssscsssssssssssssssssssssssssscscsssssssssssssssssssssssssssssssssssssssssssscsscsssssssssssssssssssssssssssssssssssssssssssssscssscscscsssssssscsssssssssssssssssssssssssssssssssscssssssssssssssssssssssssssssss" /><path
           style="fill:#000000;stroke-width:1.00043"
           d="m 6390.8136,8450.7151 c -0.2259,-0.3968 -0.5917,-0.7222 -0.8129,-0.7234 -0.7124,0 -1.1649,-0.2833 -1.1649,-0.7226 0,-0.4305 0.6319,-0.7158 1.5996,-0.7222 0.7254,0 1.2498,-1.7485 1.4115,-4.6942 0.071,-1.2887 0.2397,-2.5501 0.3754,-2.8037 0.2563,-0.479 -0.045,-1.3601 -0.5898,-1.7228 -0.1668,-0.1111 0.1374,-0.5324 0.8196,-1.135 1.1066,-0.9774 1.2626,-1.0207 3.8575,-1.0761 0.717,-0.016 1.0849,-0.1292 1.0849,-0.3362 0,-0.4642 -1.6536,-2.4711 -4.0383,-4.9016 -1.1602,-1.1824 -2.1095,-2.291 -2.1095,-2.4631 0,-0.6383 0.8031,-2.7054 1.238,-3.1868 0.2473,-0.2741 0.4496,-0.6135 0.4496,-0.7543 0,-0.3719 1.1904,-0.7988 2.1698,-0.778 1.0159,0.02 3.5588,-1.0058 4.0836,-1.6502 0.2071,-0.2539 0.7806,-0.7037 1.2744,-0.9986 0.8217,-0.4907 0.8904,-0.6138 0.8096,-1.452 -0.1168,-1.2132 -0.3816,-1.6622 -1.6917,-2.8699 -0.6053,-0.558 -1.1006,-1.2204 -1.1006,-1.4724 0,-0.3126 -0.2289,-0.5083 -0.7203,-0.6167 -1.3311,-0.2921 -2.404,-2.5316 -1.213,-2.5316 0.308,0 0.5311,-0.2139 0.6284,-0.6011 0.083,-0.331 0.2396,-0.5464 0.3479,-0.4794 0.4582,0.2833 4.0912,-3.9243 4.0912,-4.7383 0,-0.1204 -0.2984,-0.3403 -0.663,-0.4887 -0.3647,-0.1485 -1.0049,-0.4173 -1.4227,-0.5978 -0.4179,-0.1802 -0.8519,-0.3282 -0.9644,-0.329 -0.1126,0 -0.5301,-0.1754 -0.9279,-0.3876 -1.0536,-0.5621 -3.2456,-1.2987 -3.866,-1.2987 -0.4776,0 -2.8995,1.2718 -3.6579,1.9206 -0.1602,0.1372 -0.6525,0.2491 -1.0942,0.2491 -0.6555,0 -0.968,-0.1974 -1.7019,-1.0756 -0.4945,-0.5914 -0.9667,-1.4319 -1.0494,-1.8681 -0.2577,-1.3597 -0.5074,-1.6594 -1.2372,-1.4861 -1.0252,0.2436 -1.5097,0.7985 -2.3936,2.7423 -1.6876,3.7113 -1.6559,3.6752 -3.4432,3.9624 -0.97,0.1561 -1.7715,1.0432 -2.6281,2.9088 -0.8705,1.8958 -2.2026,3.1235 -3.8395,3.5379 -1.5645,0.3964 -4.6193,0.6564 -5.294,0.4506 -0.36,-0.1099 -1.3055,-0.3294 -2.1011,-0.4883 -0.7956,-0.1585 -1.63,-0.3839 -1.8542,-0.5011 -0.2649,-0.1384 -0.6446,-0.09 -1.0849,0.1404 -1.3818,0.7206 -3.4944,0.3005 -4.6177,-0.9184 -0.4013,-0.4353 -0.5173,-0.7639 -0.4001,-1.1334 0.1152,-0.3631 0.032,-0.6183 -0.276,-0.843 -0.524,-0.3831 -0.808,-0.2612 -0.808,0.3471 0,0.2796 -0.3727,0.6271 -1.0127,0.9437 -0.9076,0.4489 -1.0544,0.463 -1.4152,0.1364 -0.6327,-0.5722 -1.5989,0.012 -2.2954,1.3853 -0.3214,0.6339 -0.8673,1.3385 -1.2131,1.5648 -0.587,0.3848 -0.6706,0.3855 -1.2638,0.012 -1.4503,-0.9136 -4.0083,-1.8937 -4.4752,-1.7144 -0.43,0.1649 -0.5199,1.6213 -0.1586,2.5714 0.1724,0.4533 0.1067,0.7206 -0.3014,1.2257 -0.5646,0.6985 -1.6435,0.8767 -3.316,0.5481 -1.6875,-0.3318 -2.607,0.4485 -2.7474,2.331 -0.085,1.1443 -0.6542,1.5206 -1.4967,0.9902 -0.8292,-0.522 -1.8997,0.2022 -2.2285,1.5078 -0.3134,1.2445 -1.3663,2.1035 -2.2933,1.8708 -0.7277,-0.1825 -0.7112,-0.058 -0.2286,-1.7188 0.359,-1.2345 0.3571,-1.3938 -0.027,-2.246 -0.2274,-0.5043 -0.3365,-1.0415 -0.2424,-1.194 0.2617,-0.4237 1.2903,-0.7575 3.014,-0.9785 1.1257,-0.1441 1.6768,-0.3403 1.9673,-0.699 0.2221,-0.274 0.5142,-0.4983 0.6492,-0.4983 0.135,0 0.3889,-0.1372 0.5641,-0.3045 0.6565,-0.6275 1.6464,-1.1422 2.1968,-1.1422 0.8926,0 1.5848,-0.9204 1.6322,-2.171 0.055,-1.4516 0.197,-1.9274 0.5748,-1.9274 0.1737,0 0.4355,-0.1441 0.5818,-0.3206 0.2935,-0.3535 5.3645,-0.3908 6.6113,-0.049 l 0.6703,0.1838 -0.1587,-1.0524 c -0.087,-0.5789 -0.2533,-1.1559 -0.369,-1.2815 -0.4148,-0.4521 -0.2334,-0.8959 0.2973,-0.7274 0.2895,0.092 0.8333,0 1.2657,-0.2114 0.417,-0.2046 1.1108,-0.5131 1.5417,-0.6857 0.9483,-0.3795 0.9919,-0.8542 0.1899,-2.069 -0.8645,-1.31 -1.0877,-1.5355 -2.4199,-2.4502 -0.663,-0.4546 -1.6126,-1.1872 -2.1103,-1.6274 -0.4976,-0.4401 -1.0647,-0.8 -1.2601,-0.8 -1.026,0 -1.5876,-3.1824 -0.7793,-4.4157 0.3255,-0.4967 0.8256,-3.1688 1.0687,-5.7101 0.064,-0.666 -0.03,-1.3421 -0.2432,-1.7513 -0.522,-1.0027 -3.5048,-4.0595 -4.8729,-4.9939 -1.5464,-1.056 -1.819,-1.4127 -1.7467,-2.2853 0.045,-0.5465 0.2636,-0.8209 0.934,-1.1724 0.5158,-0.2708 1.0991,-0.8686 1.4213,-1.4568 0.7564,-1.381 1.4188,-2.0646 2.3968,-2.4743 0.7915,-0.3318 0.8575,-0.3214 1.2482,0.1966 0.6883,0.9124 0.7064,1.6703 0.07,2.906 -0.5012,0.9729 -0.5565,1.2907 -0.3691,2.124 0.1211,0.5393 0.4475,1.2181 0.7254,1.5086 0.2778,0.2901 0.9417,1.0315 1.4753,1.6466 0.8168,0.942 1.15,1.1454 2.1089,1.2871 1.4938,0.2206 2.6398,1.0953 2.841,2.1677 0.1808,0.9637 -0.6257,3.7337 -1.3581,4.6649 -0.2556,0.325 -0.4646,0.7118 -0.4647,0.8594 0,0.1481 -0.3212,0.8659 -0.7137,1.5949 -0.3925,0.7294 -0.7179,1.5314 -0.7232,1.7822 -0.01,0.4658 1.991,2.9898 2.5357,3.1988 0.1654,0.063 0.7935,-0.1091 1.396,-0.3835 0.6023,-0.2745 1.2058,-0.4987 1.341,-0.4987 0.4414,0 0.6903,0.8 1.1249,3.6161 0.4171,2.7034 0.7908,3.6165 1.4798,3.6165 0.1861,0 0.7388,0.3182 1.2283,0.707 0.4895,0.3888 1.3782,0.8851 1.9749,1.1029 0.5967,0.2179 1.2792,0.5003 1.5166,0.6275 0.5335,0.2853 0.9193,0.078 0.7372,-0.3964 -0.2485,-0.6475 0.1421,-1.5459 0.7371,-1.6951 0.3149,-0.079 0.8769,-0.4614 1.2489,-0.8498 0.5806,-0.6058 0.7973,-0.6844 1.5332,-0.5549 0.4713,0.083 1.2367,0.4935 1.7008,0.912 1.2121,1.0929 2.1614,1.7132 3.1948,2.0867 0.8973,0.3246 0.9122,0.3194 1.8832,-0.6255 1.351,-1.3152 2.706,-3.115 3.5305,-4.6898 1.143,-2.1826 1.3362,-2.4562 2.8433,-4.0245 0.7956,-0.8281 1.6146,-1.7409 1.82,-2.029 0.5204,-0.7294 2.935,-1.0721 3.7573,-0.5332 0.3828,0.2508 0.8345,0.3226 1.3835,0.2199 0.8939,-0.1681 2.0143,0.1605 2.4221,0.7097 0.4694,0.6327 3.0262,1.3734 4.1556,1.2041 0.8475,-0.1272 1.1097,-0.065 1.5377,0.3627 0.3753,0.3755 0.6829,0.4738 1.1287,0.3623 0.8659,-0.2175 1.929,0.066 2.0557,0.5476 0.1936,0.7362 2.2297,1.5463 3.831,1.5238 0.7939,-0.012 1.5332,-0.076 1.643,-0.1436 0.2384,-0.1473 0.3326,-4.4318 0.1163,-5.2936 -0.083,-0.3322 -0.3577,-0.6693 -0.6097,-0.7491 -0.5645,-0.1793 -0.5975,-1.0644 -0.1109,-2.971 0.1911,-0.7486 0.3584,-1.9575 0.3719,-2.6869 0.014,-0.7294 0.028,-1.5431 0.033,-1.8083 0,-0.2652 -0.1156,-0.9894 -0.267,-1.6092 -0.1513,-0.6199 -0.2409,-1.5419 -0.1992,-2.049 0.064,-0.7756 0.1719,-0.9357 0.6787,-1.0059 0.3314,-0.046 0.7383,-0.1946 0.904,-0.331 0.2088,-0.1713 0.409,-0.1581 0.6515,0.043 0.4983,0.4133 1.2363,0.104 1.5779,-0.6616 0.1608,-0.3603 0.959,-1.2044 1.7738,-1.876 0.8149,-0.6717 1.5944,-1.4468 1.7322,-1.7224 0.4453,-0.8907 0.8815,-1.2755 1.4452,-1.2755 0.3071,0 0.8018,-0.2969 1.1156,-0.6696 0.789,-0.9365 1.8678,-1.3409 2.8813,-1.0801 0.6416,0.1653 0.8331,0.3495 0.8931,0.8594 0.042,0.3571 0.1698,0.6492 0.2841,0.6492 0.1143,0 0.3532,0.1356 0.5308,0.3013 0.9933,0.9268 5.2797,2.4602 7.5792,2.7118 1.3645,0.1492 1.509,0.1187 1.8685,-0.3944 0.2143,-0.3061 0.3896,-0.707 0.3896,-0.8915 0,-0.1842 0.2787,-0.6757 0.6194,-1.0917 1.4224,-1.7369 2.0512,-2.6797 2.1787,-3.2675 0.2418,-1.1138 0.3156,-1.2297 0.9326,-1.4644 0.3349,-0.1272 0.6089,-0.3904 0.6089,-0.5846 0,-0.5761 0.3941,-0.654 1.3704,-0.2708 1.3626,0.5348 3.9159,1.0869 5.0473,1.0905 h 0.9931 l 0.06,-1.5066 c 0.033,-0.8289 0.099,-1.941 0.1456,-2.4711 0.3285,-3.702 0.4503,-5.9901 0.3883,-7.2912 -0.065,-1.3665 -0.1258,-1.519 -0.6588,-1.6526 -0.323,-0.081 -0.8016,-0.4943 -1.0637,-0.9184 -0.5007,-0.8104 -2.2368,-1.8307 -3.1142,-1.8307 -0.2839,0 -0.5161,-0.1184 -0.5161,-0.2632 0,-0.1449 -0.1998,-0.5176 -0.4441,-0.8281 -0.2443,-0.3106 -0.7054,-1.3922 -1.0246,-2.4037 -0.5092,-1.6133 -0.6614,-1.856 -1.2381,-1.974 -0.3617,-0.074 -0.7819,-0.284 -0.9336,-0.467 -0.1519,-0.1829 -0.3984,-0.333 -0.5479,-0.3338 -0.1495,0 -0.6766,-0.1139 -1.1714,-0.2512 -0.7426,-0.2062 -0.9969,-0.4529 -1.4577,-1.4158 l -0.5581,-1.1664 0.564,-0.5023 c 0.3102,-0.2764 0.9207,-0.5693 1.3566,-0.6512 0.666,-0.1247 0.8954,-0.3582 1.4361,-1.4608 0.354,-0.7218 0.6436,-1.5266 0.6436,-1.789 0,-0.2624 0.1085,-0.4766 0.2411,-0.4766 0.2947,0 0.3242,-1.8492 0.033,-2.0294 -0.2857,-0.1765 -0.046,-1.3785 0.3706,-1.8584 0.3213,-0.3695 0.3432,-1.7409 0.037,-2.2693 -0.074,-0.1275 -0.2661,-0.6387 -0.4264,-1.1362 -0.2174,-0.6744 -0.4244,-0.9055 -0.8152,-0.9095 -0.2881,0 -0.9613,-0.2039 -1.4961,-0.4466 -0.5347,-0.2431 -1.4814,-0.518 -2.1039,-0.6114 -0.6223,-0.094 -1.1948,-0.2721 -1.272,-0.3968 -0.077,-0.1252 -0.6173,-0.2275 -1.2001,-0.2275 -0.8325,0 -1.2037,-0.1421 -1.7314,-0.6628 -0.7357,-0.7262 -0.8553,-1.4352 -1.11,-6.5787 -0.1276,-2.5782 -0.7134,-5.0004 -1.2601,-5.2102 -0.1643,-0.063 -0.9252,0.049 -1.6909,0.2491 -1.0018,0.2612 -1.6691,0.6308 -2.379,1.316 -0.8275,0.7988 -1.1086,0.9333 -1.7417,0.8337 -0.4173,-0.066 -0.8281,0 -0.9184,0.1453 -0.185,0.2993 -1.554,0.3511 -1.9882,0.075 -0.1575,-0.1 -0.3971,-0.4735 -0.5326,-0.8297 -0.2336,-0.6147 -0.3087,-0.6407 -1.4546,-0.5047 -1.2756,0.1508 -3.8491,-0.2287 -4.8027,-0.709 -0.4766,-0.2399 -0.6175,-0.2158 -0.8866,0.1525 -0.176,0.2403 -0.3916,0.8614 -0.4791,1.3794 -0.1334,0.7892 -0.253,0.942 -0.7375,0.942 -0.389,0 -1.0995,0.5164 -2.1715,1.5776 -1.2827,1.2702 -1.6592,1.523 -1.932,1.2967 -0.1863,-0.1549 -0.3387,-0.4233 -0.3387,-0.597 0,-0.463 -1.1503,-1.2044 -2.73,-1.7597 -0.7624,-0.268 -2.0271,-0.9244 -2.8103,-1.4592 -1.5213,-1.0384 -3.1822,-1.4604 -5.7909,-1.4709 -1.6837,-0.01 -2.4702,-0.3988 -2.6611,-1.3268 -0.3093,-1.5029 -1.395,-2.9104 -2.4184,-3.1355 -0.3704,-0.081 -0.8062,-0.3077 -0.9684,-0.5031 -0.1623,-0.1954 -0.8074,-0.5757 -1.4336,-0.8454 -0.8455,-0.3635 -1.3368,-0.7956 -1.9087,-1.6783 -0.4235,-0.6536 -0.864,-1.1884 -0.9788,-1.1884 -0.4007,0 -1.9282,-1.8171 -2.4321,-2.8931 -0.7848,-1.6759 -1.0364,-1.8576 -2.8228,-2.0406 -1.7905,-0.1833 -3.4223,-0.7803 -3.4223,-1.2521 0,-0.1686 -0.2072,-0.4173 -0.4604,-0.5529 -0.6743,-0.3611 -0.3552,-1.2033 0.6084,-1.6057 0.4405,-0.1842 1.5367,-0.3366 2.436,-0.339 1.6785,0 5.372,0.6897 5.372,1.0094 0,0.098 0.3099,0.7045 0.6888,1.3473 0.3788,0.6424 0.8251,1.5816 0.9919,2.0867 0.1997,0.605 0.5566,1.0536 1.0448,1.3136 0.4079,0.217 1.2402,0.9031 1.8496,1.5242 1.0411,1.0608 1.1679,1.121 2.096,0.9966 1.2556,-0.1685 2.0081,0.475 2.0081,1.7176 0,0.727 0.1713,0.9597 1.3863,1.8833 2.5424,1.9319 3.3718,2.2484 6.3732,2.431 0.356,0.02 0.9528,0.3277 1.326,0.68 0.9766,0.9224 2.4257,1.7493 4.8163,2.7495 0.6923,0.2893 0.8192,0.2696 1.3809,-0.2126 0.3401,-0.2925 0.6921,-0.8999 0.7821,-1.3497 0.093,-0.4678 0.5451,-1.1996 1.0537,-1.7084 1.1162,-1.1161 2.4058,-1.3858 3.9087,-0.8164 1.6214,0.6138 2.7239,0.6896 3.1117,0.2142 0.9461,-1.1603 1.4442,-1.5667 1.9216,-1.5667 0.2898,0 0.671,-0.1898 0.8471,-0.4217 0.1877,-0.2472 0.3235,-0.2997 0.328,-0.1268 0,0.1625 0.3456,0.4698 0.7586,0.6837 0.5523,0.2852 0.6799,0.4594 0.4822,0.6568 -0.3952,0.3956 -0.3358,0.5468 0.3339,0.8517 0.3315,0.1513 0.6027,0.4398 0.6027,0.6416 0,0.4987 0.4795,0.4525 1.2055,-0.1152 0.3315,-0.2596 0.7361,-0.4742 0.8991,-0.477 0.163,0 0.9767,-0.3763 1.8082,-0.8297 1.1424,-0.6227 1.4884,-0.932 1.4161,-1.2654 -0.1615,-0.7455 0.02,-5.4293 0.2176,-5.6251 0.067,-0.066 0.4226,-0.524 0.7901,-1.017 0.7973,-1.0701 1.9413,-1.4416 3.6107,-1.1724 1.3701,0.2207 1.3685,0.2195 1.5397,1.2747 0.098,0.6058 -0.028,1.1559 -0.4633,2.0189 -0.6918,1.3713 -1.0507,3.1126 -0.6877,3.3369 0.1426,0.088 0.1974,0.7663 0.1318,1.6313 -0.145,1.9134 0.4816,3.9804 1.7037,5.6202 0.2964,0.398 0.5504,0.7776 0.5644,0.8442 0.014,0.066 0.1738,0.5488 0.3552,1.0728 0.3078,0.8891 0.2922,1.0079 -0.2328,1.7818 -0.6481,0.9549 -0.7257,2.1092 -0.1929,2.8699 0.4058,0.5793 3.7228,1.7493 4.9596,1.7493 0.9683,0 2.3799,1.1326 2.4032,1.9286 0.01,0.3314 0.2199,0.928 0.4671,1.326 0.7123,1.1459 1.9261,3.627 1.9261,3.9367 0,0.1553 0.1141,0.2825 0.2534,0.2825 0.4127,0 1.0304,1.7055 0.7275,2.0085 -0.1417,0.1416 -0.2576,0.3996 -0.2576,0.5733 0,0.1741 -0.3787,0.855 -0.8415,1.5134 -1.0287,1.4636 -1.3338,2.7708 -1.1255,4.8226 0.1418,1.397 0.2298,1.5984 0.8218,1.8813 0.5488,0.2627 0.663,0.473 0.663,1.22 0,0.4967 0.1256,1.0288 0.2791,1.1824 0.2114,0.2115 0.2071,0.3655 -0.018,0.6367 -0.6461,0.7784 1.525,2.7752 4.8764,4.4844 1.2842,0.6552 2.279,1.3361 2.5107,1.7188 0.3528,0.5826 0.3503,0.729 -0.031,1.8083 -0.228,0.6459 -0.3952,1.3368 -0.3715,1.5358 0.024,0.199 0.03,1.8264 0.014,3.6166 -0.024,2.6897 0.023,3.1732 0.2731,2.7856 0.1662,-0.258 0.7417,-0.9633 1.2788,-1.5671 1.1743,-1.3204 1.7676,-2.6127 2.1304,-4.6405 0.2372,-1.326 0.3613,-1.5583 0.993,-1.8596 0.397,-0.1894 0.8303,-0.4895 0.9629,-0.6672 0.1867,-0.25 0.4316,-0.266 1.0849,-0.073 0.4641,0.1376 1.5593,0.2299 2.4338,0.2054 0.8744,-0.024 1.7179,0.036 1.8743,0.1308 0.1564,0.097 0.5908,0.1083 0.9653,0.024 0.3745,-0.082 1.3211,-0.036 2.1036,0.104 0.7826,0.1396 2.1822,0.3923 3.1104,0.5617 0.9282,0.1697 2.0131,0.2363 2.4109,0.148 0.3978,-0.088 1.2712,-0.1733 1.9408,-0.189 0.6697,-0.016 1.3477,-0.1588 1.5068,-0.3177 0.1591,-0.1593 0.2893,-0.1838 0.2893,-0.055 0,0.1288 0.4043,0.449 0.8983,0.7114 0.494,0.262 1.0962,0.672 1.3381,0.9107 0.4244,0.4185 0.4982,0.3768 2.0978,-1.186 0.9119,-0.8911 1.8252,-1.7136 2.0295,-1.8283 0.2043,-0.1139 0.556,-0.5966 0.7815,-1.0716 0.3246,-0.6841 0.3512,-0.9577 0.1282,-1.3152 -0.155,-0.248 -0.2818,-0.6432 -0.2818,-0.8779 0,-0.4967 -1.1525,-2.7563 -1.5297,-2.9995 -0.1763,-0.1135 -0.1569,-0.3506 0.062,-0.7607 0.1753,-0.3273 0.2447,-0.7149 0.1544,-0.861 -0.09,-0.1464 0.033,-0.3294 0.2729,-0.4068 0.2405,-0.077 0.6764,-0.2548 0.9687,-0.3944 0.409,-0.1958 0.6711,-0.1629 1.1367,0.142 0.4275,0.2805 1.1432,0.3968 2.4374,0.3968 1.7318,0 1.865,0.04 2.4291,0.7094 0.3282,0.39 1.2374,1.0291 2.0204,1.4207 0.7829,0.3912 1.7408,0.9368 2.1287,1.2133 0.7889,0.5617 1.7177,0.9629 2.8636,1.2373 0.5967,0.1428 0.9487,0.067 1.567,-0.3386 1.1427,-0.7483 2.9796,-1.2257 4.6798,-1.2165 1.5714,0.01 1.5863,0 2.275,-1.6394 0.1533,-0.3647 0.3861,-0.6632 0.5172,-0.6632 0.3689,0 3.3308,-2.928 3.3308,-3.2927 0,-0.1778 0.081,-0.3238 0.1808,-0.3238 0.3026,0 1.4852,-2.0326 1.4779,-2.5389 -0.019,-1.3336 0.6047,-5.6254 0.9862,-6.7817 0.2395,-0.7262 0.3999,-1.5026 0.3563,-1.7252 -0.3184,-1.6318 -0.3574,-1.7004 -1.0064,-1.7758 -0.5245,-0.061 -0.7056,-0.2536 -0.9035,-0.9609 -0.1361,-0.4863 -0.3162,-0.9529 -0.4002,-1.0363 -0.084,-0.084 -0.041,-0.5541 0.096,-1.0444 0.1366,-0.4907 0.295,-1.7336 0.352,-2.7628 0.089,-1.6036 0.03,-1.9896 -0.4133,-2.7065 l -0.517,-0.8366 0.6191,-0.8116 c 0.3405,-0.4466 0.619,-0.9333 0.619,-1.0821 0,-0.4594 0.8312,-0.7451 2.0859,-0.7162 1.6418,0.036 5.8701,-1.4082 5.8701,-2.0068 0,-0.11 0.4721,-0.7315 1.0489,-1.3806 0.7373,-0.8301 1.0968,-1.4805 1.21,-2.1886 0.089,-0.5541 0.2609,-1.1925 0.3828,-1.4187 0.4381,-0.8133 0.9747,-2.8041 0.9747,-3.6162 0,-0.4558 0.2628,-1.3316 0.584,-1.9463 0.3212,-0.6142 0.7155,-1.7139 0.8761,-2.4434 0.1608,-0.7294 0.4404,-1.6189 0.6215,-1.9767 0.1811,-0.3583 0.3293,-0.9064 0.3293,-1.2181 0,-0.3114 0.1356,-0.8582 0.3013,-1.2153 0.4835,-1.0411 1.5509,-0.8967 2.7509,0.3719 0.533,0.5637 1.2042,1.1876 1.4916,1.3862 0.3678,0.2544 0.5223,0.6119 0.5219,1.2057 0,1.6586 -0.174,2.4731 -0.5726,2.6961 -0.2226,0.1248 -0.3446,0.3238 -0.271,0.443 0.074,0.1187 -0.045,0.7627 -0.2633,1.4303 -0.3494,1.068 -0.3612,1.5057 -0.099,3.6478 l 0.2981,2.4342 -0.7049,0.6415 c -0.3876,0.3523 -1.4412,1.2374 -2.3412,1.966 -0.9,0.7286 -2.102,1.9764 -2.6711,2.7724 -1.548,2.1657 -3.5728,4.1726 -4.3747,4.3363 -0.3829,0.078 -1.2526,0.416 -1.9327,0.7507 -1.082,0.5324 -1.2549,0.7193 -1.3836,1.4981 -0.3097,1.8729 -0.07,2.8498 1.0326,4.2103 0.2591,0.3198 0.2773,0.4971 0.072,0.7022 -0.2051,0.205 -0.094,0.4794 0.4396,1.0876 0.8942,1.0183 0.8926,1.385 -0.013,2.8122 -0.5786,0.9123 -0.774,1.5727 -0.9587,3.2418 -0.2987,2.6981 -0.6609,4.979 -0.9837,6.1939 -0.1408,0.5308 -0.3467,1.3445 -0.4575,1.8083 -0.1108,0.4642 -0.316,1.1695 -0.456,1.5671 -0.14,0.398 -0.3405,1.2073 -0.4456,1.7991 -0.1524,0.8581 -0.3615,1.1879 -1.0348,1.6333 -0.4641,0.3069 -1.2627,0.9348 -1.7747,1.3958 -0.5121,0.4606 -1.0715,0.8373 -1.2433,0.8373 -0.1718,0 -1.0246,0.3198 -1.8951,0.7106 l -1.5829,0.7101 0.4151,1.1202 c 0.2812,0.7583 0.8042,1.452 1.6207,2.1485 1.4293,1.2193 1.9679,1.4264 3.7641,1.4484 1.448,0.02 2.1427,0.384 2.1427,1.1294 0,0.461 1.022,2.2882 1.5329,2.7411 0.3281,0.2905 1.3602,1.7353 1.3602,1.9042 0,0.065 0.3273,0.603 0.7275,1.196 0.7433,1.1013 1.0761,2.4101 1.3282,5.2222 0.078,0.8662 0.2244,1.7096 0.3261,1.8741 0.1017,0.1645 1.2076,0.4517 2.4576,0.6379 2.6372,0.3928 6.9846,0.9144 7.3356,0.8803 0.1326,-0.012 1.109,-0.086 2.1698,-0.1613 1.0608,-0.076 2.3627,-0.333 2.8931,-0.5717 1.7285,-0.778 2.0015,-0.8053 2.7497,-0.2725 0.385,0.2745 0.8102,0.4987 0.945,0.4987 0.1347,0 0.3162,0.3242 0.4032,0.7202 0.087,0.3964 0.2584,0.7828 0.3809,0.8582 0.1223,0.076 0.2225,0.4586 0.2225,0.851 0,0.3924 0.2712,1.2321 0.6026,1.866 1.0134,1.9383 2.7771,2.1891 5.3041,0.7543 0.663,-0.3763 1.561,-0.8554 1.9955,-1.0648 0.4346,-0.209 1.0855,-0.8097 1.4466,-1.3336 0.561,-0.8149 0.7524,-0.9341 1.3165,-0.8197 0.4479,0.091 0.886,-0.028 1.3632,-0.3667 0.8772,-0.6243 1.2179,-0.6255 2.404,-0.01 0.6615,0.3451 0.914,0.6171 0.839,0.9044 -0.064,0.2427 0.2514,0.802 0.7705,1.3689 0.4828,0.5272 1.0269,1.2462 1.209,1.5985 0.1822,0.3526 0.6365,0.8975 1.0096,1.2116 0.3731,0.3142 1.1093,1.2494 1.636,2.0779 1.4944,2.3511 2.1552,2.5918 7.1055,2.5918 2.1879,0 4.1151,0.089 4.2828,0.1974 0.3901,0.2524 1.2623,1.9536 1.2623,2.4623 0,0.2138 -0.1628,0.5513 -0.3617,0.7503 -0.1989,0.199 -0.3616,0.7799 -0.3616,1.2911 0,1.194 -0.8451,1.929 -2.2182,1.929 -0.5212,0 -1.1328,0.099 -1.3592,0.2203 -0.2467,0.132 -0.8772,0.1332 -1.5748,0 -0.9085,-0.1697 -1.2756,-0.1388 -1.6756,0.1412 -0.2817,0.1974 -0.7322,0.3575 -1.001,0.3555 -0.7811,0 -2.3568,-0.6279 -2.6676,-1.0528 -0.1569,-0.2147 -0.4903,-0.3908 -0.7409,-0.3912 -0.2506,0 -0.8974,-0.2989 -1.4374,-0.6632 -0.9774,-0.6588 -3.4783,-3.1495 -3.4783,-3.4637 0,-0.3318 -2.5471,-2.6343 -3.0653,-2.7708 -0.4826,-0.1275 -0.9609,-0.9011 -0.84,-1.3589 0.083,-0.3129 -0.4191,-0.1982 -1.4645,0.335 -0.7783,0.3972 -1.4913,0.524 -3.0977,0.5509 -1.1478,0.02 -2.2345,0.1573 -2.415,0.3065 -0.1806,0.1493 -0.7622,0.3487 -1.2926,0.443 -0.5304,0.094 -1.3027,0.3751 -1.7161,0.6243 -1.3625,0.8208 -2.0196,0.6222 -3.1018,-0.9361 -0.5283,-0.7607 -0.9296,-1.5655 -0.8918,-1.7882 0.077,-0.4533 -0.3946,-1.1162 -1.6436,-2.311 -0.6763,-0.6467 -1.0126,-0.7952 -1.6943,-0.7462 -0.4678,0.032 -0.9672,-0.012 -1.1098,-0.1 -0.1425,-0.088 -1.3329,-0.2191 -2.6452,-0.2913 -1.3124,-0.072 -2.8743,-0.2496 -3.471,-0.3944 -0.5967,-0.1444 -2.4953,-0.3462 -4.2191,-0.4482 -1.7238,-0.1019 -3.3511,-0.2652 -3.6163,-0.3627 -2.3541,-0.8658 -3.1826,-1.5362 -3.4058,-2.7559 -0.087,-0.4758 -0.3058,-1.0797 -0.4859,-1.3408 -0.1801,-0.262 -0.3274,-0.7756 -0.3274,-1.1419 0,-1.0079 -0.4697,-2.8213 -1.0812,-4.1742 -0.301,-0.666 -0.6879,-1.8392 -0.8598,-2.6075 -0.2846,-1.2719 -0.3613,-1.3842 -0.8586,-1.2594 -0.3004,0.075 -0.6128,0.028 -0.6943,-0.1027 -0.082,-0.132 -0.8925,-0.2175 -1.8024,-0.1898 -1.4961,0.045 -1.7011,-0.01 -2.1451,-0.5449 -0.2699,-0.327 -0.5635,-0.9199 -0.6523,-1.318 -0.2486,-1.1133 -0.6823,-1.8251 -1.8883,-3.0989 -0.6095,-0.644 -1.1082,-1.2578 -1.1082,-1.365 0,-0.1067 -0.3451,-0.4846 -0.767,-0.8397 -0.8447,-0.7109 -1.0806,-0.7097 -3.7471,0.016 l -1.5005,0.4084 -1.7542,-0.8526 c -0.9648,-0.469 -2.0251,-0.9332 -2.3562,-1.0315 -0.7642,-0.2267 -3.0758,-1.4733 -3.8253,-2.0627 -0.7893,-0.621 -1.0013,-0.3859 -0.6187,0.6861 0.4703,1.318 0.4234,2.9522 -0.1077,3.7578 -0.4423,0.6708 -1.4938,1.3681 -2.0635,1.3681 -0.16,0 -0.8004,0.4883 -1.4232,1.0849 -0.6227,0.5966 -1.2531,1.0849 -1.4009,1.0849 -0.1478,0 -0.6572,0.2403 -1.1322,0.5336 -0.7965,0.4923 -1.1436,0.7687 -2.2474,1.789 -0.3643,0.337 -0.4266,0.3262 -0.6628,-0.1155 -0.1434,-0.2676 -0.5049,-0.5633 -0.8034,-0.6568 -0.2985,-0.093 -0.7919,-0.3647 -1.0965,-0.6026 -0.3046,-0.2376 -0.9013,-0.5064 -1.326,-0.5974 -0.4247,-0.091 -0.8807,-0.2484 -1.0133,-0.3503 -0.1326,-0.1019 -1.309,-0.068 -2.6143,0.077 -2.2728,0.2504 -2.3901,0.2404 -2.7725,-0.2371 -1.1927,-1.4889 -6.822,-0.9136 -9.0528,0.9252 -0.6376,0.5256 -0.9495,1.1106 -1.4796,2.7756 -0.6961,2.1858 -1.1344,2.7668 -2.4211,3.2069 -0.4074,0.1392 -1.0583,0.6905 -1.4466,1.2249 -0.3881,0.5344 -1.0041,1.3609 -1.3687,1.8368 -0.3647,0.4762 -0.663,1.0078 -0.663,1.1823 0,0.5694 -2.5453,1.5247 -5.4246,2.0362 -2.1331,0.3788 -4.3398,1.1379 -5.4121,1.8608 -0.8913,0.6011 -0.8582,0.4245 -0.6409,3.4252 0.048,0.6688 -0.099,0.9942 -0.7429,1.6378 -0.7105,0.7105 -0.9074,0.7859 -1.7049,0.6535 -0.496,-0.082 -1.0644,-0.2162 -1.2634,-0.2977 -0.1988,-0.081 -0.6871,-0.1729 -1.0848,-0.2038 -1.2677,-0.098 -3.2894,-0.5448 -3.5889,-0.7932 -0.1592,-0.132 -1.0442,-0.3085 -1.9667,-0.392 -1.6573,-0.1496 -2.4362,-0.345 -3.847,-0.9645 -3.9092,-1.7164 -4.3059,-1.72 -5.9924,-0.052 -0.7042,0.6961 -1.8409,1.8042 -2.5261,2.4626 -1.3061,1.255 -1.4693,1.7272 -0.9017,2.6087 0.2861,0.4441 0.4927,1.9595 0.4017,2.9461 -0.012,0.1336 -0.346,0.386 -0.7415,0.5609 -0.7178,0.3178 -0.7192,0.3226 -0.6886,2.2889 0.019,1.2406 0.1884,2.378 0.4563,3.0697 0.6937,1.7906 0.6693,2.89 -0.086,3.8802 -0.7581,0.9942 -1.3671,2.8285 -1.3709,4.1296 0,1.227 -0.4815,2.2926 -1.5425,3.4389 -1.2321,1.3308 -2.1224,2.9144 -2.1427,3.8107 -0.028,1.2213 1.3914,3.8641 2.4798,4.6184 1.3043,0.9039 1.7262,1.6317 1.638,2.8265 -0.07,0.9449 -0.1456,1.0343 -1.4598,1.7244 -1.3166,0.6909 -1.3863,0.7736 -1.3863,1.6434 0,0.5035 -0.1648,1.1057 -0.3663,1.3376 -0.733,0.8446 -2.4229,3.0994 -3.0815,4.1117 -0.7431,1.1426 -0.7304,1.3741 0.1806,3.302 0.3133,0.6632 0.8737,1.8889 1.2452,2.7246 0.3716,0.8353 0.8124,1.6321 0.9796,1.7706 0.2399,0.1994 0.1838,0.489 -0.2659,1.3765 -1.1195,2.2095 -1.2893,2.3219 -3.5526,2.3532 -3.6286,0.05 -3.4372,0 -4.0063,1.0142 -0.2862,0.5092 -0.5624,1.507 -0.6173,2.2304 -0.055,0.7193 -0.3298,2.0674 -0.6114,2.995 -0.2817,0.928 -0.512,1.9696 -0.512,2.315 0,0.3451 -0.1191,0.9694 -0.2647,1.387 -0.2279,0.6536 -0.3803,0.7591 -1.0961,0.7591 -0.6713,0 -0.9106,-0.1388 -1.2421,-0.7218 z"
           id="path2453-7"
           sodipodi:nodetypes="ccscsssscssssssssssssssssssccsssssssssssssssssssssscsssssssssssssssssssscssscssssssssssssssssssssssssssssssssssssssssssssssssssssssssssssssssssssssssssssssscssssssssssscsscssssssssscsssssssssscsssssssssssssssssssssssscsssssssssssssssssssssssscsssssssssssssssssssssssssssssssssssssssssssscssssssssssssssssssssscssscssssssssscssssssssssssssscsssscssssssssssssssssssscssssssssssssssssssssssssssssssssssssscssscssssssssssssscssscsssssssssssssscssssssssssssssssssssssssssssssssssssssssssssssssssssssssssssscc" /><path
           style="fill:none;stroke:#000000;stroke-width:6.00256;stroke-linecap:round;stroke-linejoin:round;stroke-dasharray:none"
           d="m 6486.5416,8134.6399 c 2.3886,0.6443 4.5049,0.8054 6.8182,1.5705 2.2127,0.265 4.8792,1.9102 7.2437,2.8525 2.2317,1.1031 4.1248,1.3871 6.2591,2.378 2.0436,0.6376 4.2239,1.8996 6.4374,3.0917 1.8948,0.8998 4.4063,2.4286 6.5459,3.7478 2.0261,1.2194 4.2941,2.7143 6.2415,4.065 2.1461,1.4564 3.1076,2.0196 4.895,3.3961 1.5287,1.0151 3.4533,3.5149 5.4609,5.2498 1.1973,1.8587 3.8227,3.3066 5.6356,5.0377 1.7999,1.6299 3.5355,3.4741 5.18,5.1917 1.7626,1.8505 3.0579,3.41 4.6063,5.169 1.4898,1.8483 3.2181,3.7157 4.7712,5.6353 1.5557,1.9018 2.5629,2.6591 4.0386,4.6365 1.2437,1.1297 3.7503,3.9677 5.3952,6.387 1.8314,1.4811 2.0114,4.4358 3.4311,6.7101 0.5001,2.3047 2.335,4.6315 3.7021,6.9983 0.8359,2.3108 2.9204,4.6322 4.1906,6.9902 1.5168,2.2732 2.7979,4.5808 3.9591,6.8879 1.5596,2.356 1.8063,4.7038 2.9096,7.0557 0.6787,2.5496 2.1836,3.5928 3.289,6.1131 1.1562,1.5064 2.5534,5.8464 3.748,8.8092 1.0891,2.5902 1.7934,5.1312 2.7636,7.7164 0.7645,2.67 2.0066,5.6748 2.9444,8.347 0.9565,2.9543 1.8021,4.9541 2.6509,7.5294 0.9488,2.6124 1.7795,5.4531 2.6364,8.2516 0.8434,2.7111 1.6519,5.3256 2.4553,8.1592 0.7887,2.6147 1.3997,5.535 2.1679,8.4862 0.5509,2.6598 1.5846,5.2428 2.3181,8.259 0.8047,2.3557 2.2956,6.0917 2.9765,9.2882 1.4689,2.831 1.44,5.9429 1.805,8.9291 0.3772,3.0854 0.3835,5.1882 0.903,8.0967"
           id="path2516-1"
           inkscape:path-effect="#path-effect3126-8"
           inkscape:original-d="m 6486.5416,8134.6399 c 74.0479,19.9733 111.627,98.6577 128.3036,192.0222"
           sodipodi:nodetypes="cc" /><path
           style="fill:none;stroke:#000000;stroke-width:6.00256;stroke-linecap:round;stroke-linejoin:round;stroke-dasharray:none"
           d="m 6572.5209,8152.2942 c 1.9071,0.8026 3.5569,1.1705 5.4158,2.1861 1.7648,0.5479 3.997,2.5311 5.937,3.86 1.7848,1.4288 3.241,2.0746 4.9454,3.4587 1.609,1.0824 3.363,2.8309 5.1551,4.5449 1.447,1.3984 3.5185,3.4604 5.2215,5.3412 1.6077,1.7408 3.4606,3.7817 4.9927,5.6976 1.7606,2.0043 2.3339,3.1324 3.7277,5.0862 1.0435,1.6544 2.4842,4.8156 4.0034,7.2257 0.7053,2.4361 2.8462,4.467 4.1749,6.7812 1.3863,2.2501 2.705,4.7176 3.9234,7.0566 1.3532,2.4694 2.2264,4.6425 3.3353,7.0061 1.029,2.4718 2.2826,4.9523 3.3404,7.4709 1.0791,2.5232 1.5871,3.8885 2.5349,6.4571 0.5815,1.69 2.4553,5.2157 3.442,8.3304 1.2153,2.0347 0.6722,5.7242 1.3162,8.6511 0.6241,2.8364 1.61,5.6424 2.1264,8.1688"
           id="path2516-6-3"
           inkscape:path-effect="#path-effect3126-0-8"
           inkscape:original-d="m 6572.5209,8152.2942 c 30.5136,12.8412 55.1706,53.7389 64.073,97.2914"
           sodipodi:nodetypes="cc" /><path
           style="fill:none;stroke:#000000;stroke-width:6.00256;stroke-linecap:round;stroke-linejoin:round;stroke-dasharray:none"
           d="m 6371.3792,8116.6873 c -2.3453,0.242 -4.9305,0.031 -7.2844,0.4503 -2.5575,-0.1302 -4.6223,1.1377 -6.9482,1.7182 -2.3293,0.8122 -4.9617,0.8315 -7.3154,1.581 -2.5874,0.3171 -4.9953,1.2724 -7.3249,2.1693 -2.6326,0.5945 -4.6033,1.828 -6.8992,2.8599 -2.3506,1.0374 -4.4164,2.369 -6.7579,3.5721 -2.0858,1.3981 -5.3145,1.9264 -7.6733,3.2878 -2.8184,0.7104 -5.1867,2.9033 -7.416,4.327 -2.7705,1.5672 -4.0637,2.7198 -6.1186,4.15 -2.1744,1.5833 -4.3627,3.3919 -6.5895,5.0817 -2.0496,1.8494 -4.5159,3.4166 -6.6767,5.1891 -2.2515,1.7612 -4.2101,3.5425 -6.2876,5.374 -2.0842,1.8628 -4.6608,2.5814 -6.7107,4.5175 -2.6431,0.8736 -3.9507,3.4448 -6.0453,5.5834 -1.8042,1.5 -5.1912,4.475 -7.2671,6.766 -2.6826,1.9713 -3.9688,3.949 -5.6599,5.9486 -2.2379,2.1088 -3.1621,4.2152 -4.8345,6.3425 -1.4597,2.2834 -3.0881,4.5915 -4.768,6.8854 -1.2688,2.3532 -3.7858,4.6844 -5.3795,7.0016 -1.9671,2.2613 -3.0406,2.9934 -4.4454,5.1771 -1.7608,1.2268 -3.1864,5.2761 -4.7202,7.9238 -1.2541,2.3588 -2.8246,4.6503 -4.0598,6.9595 -1.4241,2.3117 -2.2973,4.9296 -3.4033,7.1795 -1.0138,2.6093 -2.0744,4.2141 -3.0682,6.3479 -1.0289,2.1517 -2.1061,4.4913 -3.0851,6.7427 -0.9798,2.1434 -1.9209,4.163 -2.7941,6.3495 -0.8708,2.1804 -1.8796,4.3183 -2.6587,6.4021"
           id="path2516-9-8"
           inkscape:path-effect="#path-effect3126-1-5"
           inkscape:original-d="m 6371.3792,8116.6873 c -63.322,6.5351 -130.7095,79.3069 -151.974,136.1795"
           sodipodi:nodetypes="cc" /><path
           style="fill:none;stroke:#000000;stroke-width:6.00256;stroke-linecap:round;stroke-linejoin:round;stroke-dasharray:none"
           d="m 6285.9935,8116.4325 c -2.0777,0.1964 -4.4214,-0.016 -6.5525,0.4433 -2.3493,-0.088 -4.2237,1.2649 -6.3698,1.9708 -2.1337,0.9348 -4.5815,1.1156 -6.7543,2.0625 -2.4303,0.5231 -4.6837,1.724 -6.8543,2.9026 -2.4764,0.8747 -4.2848,2.4256 -6.4056,3.8083 -2.1525,1.3866 -4.0071,3.1011 -6.1172,4.7172 -1.8276,1.8009 -4.7802,2.7594 -6.8373,4.5753 -2.5861,1.1955 -4.6908,3.9064 -6.6192,5.8758 -2.472,2.0611 -3.427,3.7279 -5.1014,5.6894 -1.7328,2.1456 -3.4311,4.5354 -5.1155,6.8212 -1.499,2.4228 -3.3682,4.5728 -4.8799,6.935 -1.6301,2.3699 -2.9108,4.7673 -4.2505,7.2203 -1.3297,2.481 -3.0923,3.8224 -4.2647,6.3839 -1.7411,1.5917 -2.0117,5.0327 -2.9735,8.0798 -0.5266,2.0764 -2.6556,5.8313 -3.4281,8.8312 -0.7241,2.8125 -0.9324,5.6034 -1.4494,8.1329"
           id="path2516-6-4-0"
           inkscape:path-effect="#path-effect3126-0-5-8"
           inkscape:original-d="m 6285.9935,8116.4325 c -33.2427,3.1429 -74.5899,40.8659 -83.4923,84.4183"
           sodipodi:nodetypes="cc" /><path
           style="fill:#000000;stroke-width:0.401214"
           d="m 6433.568,8642.2824 c -0.6176,-0.2772 -2.1217,-0.6291 -3.3424,-0.7816 -1.2207,-0.1524 -2.6776,-0.5143 -3.2375,-0.804 -0.7047,-0.3643 -2.1847,-0.5119 -4.807,-0.4802 l -3.789,0.047 -1.0333,-1.2458 c -0.7019,-0.8461 -1.0551,-1.7224 -1.1011,-2.7314 -0.102,-2.2372 0.048,-3.2952 0.5355,-3.7895 0.617,-0.6247 4.4203,-0.7134 7.4241,-0.1733 2.4231,0.4361 3.4476,0.3426 3.0632,-0.2797 -0.099,-0.1601 -0.03,-1.277 0.1534,-2.4815 0.1833,-1.2048 0.4024,-2.8626 0.4867,-3.6839 0.084,-0.8217 0.3354,-1.8336 0.5579,-2.2496 0.5904,-1.103 1.5106,-6.596 1.6419,-9.8013 0.1277,-3.1194 0.4465,-2.7868 -3.5489,-3.7032 -2.4669,-0.5661 -3.18,-1.5178 -3.0552,-4.0779 0.084,-1.7152 0.2572,-2.1389 1.1793,-2.8767 1.242,-0.9938 1.9778,-1.0484 4.0527,-0.3013 2.3335,0.8409 2.543,0.7583 2.2781,-0.8984 -0.3633,-2.272 1.2723,-5.6117 2.7482,-5.6117 0.3519,0 0.8478,-0.2508 1.1022,-0.5573 0.2543,-0.3065 1.017,-0.5573 1.6949,-0.5573 0.678,0 1.3207,-0.1424 1.4283,-0.3166 0.1076,-0.1741 1.3105,-0.4208 2.6731,-0.548 1.3625,-0.1272 2.8814,-0.4959 3.3753,-0.8197 0.7051,-0.4618 1.1528,-0.5075 2.0845,-0.211 0.6526,0.2078 2.2491,0.4919 3.5477,0.6319 5.2041,0.5601 9.675,2.7555 10.8148,5.3104 0.2373,0.5321 0.8295,1.5523 1.316,2.2673 1.0268,1.509 1.6913,4.1008 1.8463,7.2002 0.082,1.6409 -0.095,2.6263 -0.7077,3.9495 -0.8785,1.8966 -4.4809,5.936 -5.2934,5.936 -0.2718,0 -0.4956,0.2925 -0.4972,0.65 0,0.7169 -1.3404,1.4997 -3.3399,1.9547 -0.715,0.1629 -2.47,0.7398 -3.9,1.2823 -2.5863,0.9813 -2.6234,0.9841 -7.0571,0.54 -2.4514,-0.2456 -4.6587,-0.6042 -4.9051,-0.7972 -0.6504,-0.5096 -1.2234,-0.012 -1.2234,1.0592 0,0.5119 -0.1757,1.2594 -0.3905,1.6606 -0.4758,0.8891 -0.6695,2.1557 -0.9701,6.3408 l -0.2311,3.2193 1.6315,0.1998 c 0.8974,0.11 2.7577,0.2953 4.1341,0.4121 3.2203,0.2728 3.386,0.349 4.1222,1.8925 0.8058,1.6903 0.7815,2.8442 -0.083,3.9114 -0.6152,0.7599 -1.1475,0.8971 -4.3642,1.1274 -2.0149,0.1445 -4.1649,0.3587 -4.7778,0.4763 -0.6168,0.1187 -1.6156,-0.012 -2.2373,-0.2901 z m 18.2501,-27.6039 c 1.0284,-0.2463 4.1776,-3.2779 4.6235,-4.4507 1.0109,-2.6592 -0.581,-6.742 -3.1896,-8.1811 -1.4142,-0.78 -4.335,-1.2911 -10.0596,-1.7605 -2.0023,-0.1641 -2.3578,-0.089 -3.0155,0.6355 -0.41,0.4517 -0.859,1.3228 -0.9976,1.9358 -0.1387,0.6127 -0.3263,1.3666 -0.4169,1.6751 -0.1035,0.3523 0.214,0.7097 0.8533,0.9609 2.4866,0.9774 4.0303,1.3537 5.4428,1.3268 1.4007,-0.024 1.5708,0.08 2.1986,1.3798 0.3743,0.7747 0.625,1.8849 0.5572,2.4671 -0.1168,1.003 -0.2705,1.0868 -2.909,1.5892 -1.5322,0.2913 -3.6736,0.5195 -4.7589,0.5075 -1.8092,-0.02 -1.9635,0.043 -1.8571,0.7707 0.094,0.6452 0.6006,0.916 2.716,1.452 1.43,0.3627 3.3998,0.6432 4.3773,0.6231 0.9776,-0.02 1.8703,0.057 1.9839,0.1709 0.1136,0.1136 0.9852,-0.046 1.9369,-0.3538 0.9517,-0.3086 2.0833,-0.6456 2.5147,-0.7483 z m -13.455,-42.5756 c -0.9934,-0.4961 -1.6292,-2.2338 -1.6292,-4.4526 0,-1.6589 0.081,-1.7881 2.0783,-3.3164 1.143,-0.8747 3.0234,-2.211 4.1785,-2.9693 1.1551,-0.7585 2.5024,-1.6778 2.9939,-2.043 1.0186,-0.7563 3.7391,-3.537 3.7452,-3.8278 0,-0.1061 -1.9599,-0.195 -4.3603,-0.1978 -2.4003,0 -4.9492,-0.041 -5.6642,-0.085 -0.715,-0.044 -2.7207,0.089 -4.4571,0.295 -3.2817,0.3897 -8.0883,0.234 -13.1856,-0.4273 -3.1925,-0.4143 -6.7662,-0.5538 -20.9856,-0.8199 -5.0049,-0.094 -10.3535,-0.3668 -11.8856,-0.607 -2.7391,-0.4295 -7.8661,-1.034 -11.1325,-1.3129 -0.9136,-0.078 -2.0497,-0.2392 -2.5246,-0.3582 -0.4749,-0.1192 -5.4102,-0.263 -10.9673,-0.3193 -6.9485,-0.07 -10.3572,-0.2409 -10.9151,-0.5457 -0.4463,-0.2437 -1.9505,-0.4532 -3.3429,-0.4655 -1.3923,-0.011 -3.3672,-0.1936 -4.3887,-0.403 -1.0214,-0.2095 -3.0271,-0.4338 -4.4571,-0.4979 -1.4299,-0.064 -4.522,-0.3078 -6.8713,-0.5415 -2.3493,-0.234 -5.6827,-0.5145 -7.4076,-0.6237 -1.725,-0.1095 -3.4491,-0.4179 -3.8314,-0.6858 -0.5828,-0.4082 -0.9861,-0.3805 -2.4953,0.1713 -0.9901,0.3618 -2.1864,0.9285 -2.6584,1.2588 -0.472,0.3307 -1.2852,0.6012 -1.8072,0.6012 -1.0292,0 -2.6,-0.926 -2.6,-1.5327 0,-0.207 -0.534,-1.1525 -1.1868,-2.1012 -1.0156,-1.4762 -1.178,-2.0214 -1.1263,-3.7811 0.1856,-6.3065 -0.1514,-16.325 -0.6457,-19.1984 -0.2384,-1.3856 -0.2632,-2.6286 -0.063,-3.1573 0.1815,-0.4794 0.2637,-1.7076 0.1828,-2.7289 -0.081,-1.0215 -0.1926,-2.8614 -0.2481,-4.0891 -0.055,-1.2273 -0.2551,-2.4809 -0.4434,-2.7857 -0.4379,-0.7081 -0.2658,-5.7365 0.2526,-7.3798 0.2882,-0.914 0.2765,-1.653 -0.043,-2.72 -0.343,-1.1449 -0.3388,-1.5859 0.019,-2.0173 0.252,-0.3036 0.4449,-1.4196 0.4287,-2.48 -0.1302,-8.508 -0.3447,-13.88 -0.5685,-14.2367 -0.1459,-0.2327 -0.1294,-1.152 0.037,-2.0428 0.1786,-0.9573 0.118,-3.4427 -0.1483,-6.0769 -0.2477,-2.4514 -0.4078,-6.7135 -0.3558,-9.4713 0.062,-3.2665 -0.05,-5.196 -0.3195,-5.5355 -0.4727,-0.5948 -0.499,-12.5111 -0.042,-19.1643 0.1542,-2.2472 0.2571,-4.5036 0.2287,-5.0143 -0.1656,-2.9758 0,-7.1154 0.3124,-7.9446 0.2011,-0.529 0.4766,-3.0111 0.6121,-5.5157 0.1355,-2.5046 0.38,-4.7248 0.5432,-4.9337 0.1633,-0.209 0.403,-1.6297 0.5327,-3.1572 0.1297,-1.5274 0.4611,-3.8636 0.7364,-5.1914 0.4661,-2.2484 1.2541,-7.1532 1.4915,-9.2846 0.1067,-0.9572 -0.4228,-5.3683 -0.7518,-6.2643 -0.3542,-0.9644 -1.2755,0.3361 -3.4438,4.8617 -1.7891,3.7342 -2.2714,4.4536 -3.0981,4.6215 -0.5474,0.1111 -1.158,0.5915 -1.3849,1.0894 -0.2231,0.4898 -0.5765,0.8906 -0.7852,0.8906 -0.2086,0 -0.3793,0.2205 -0.3793,0.4902 0,0.7776 -1.689,2.0387 -3.0092,2.2467 -2.5208,0.3973 -3.865,-1.5424 -3.1151,-4.4956 0.2401,-0.9456 0.6782,-1.8143 0.9735,-1.9303 2.0091,-0.7894 5.1036,-4.4135 7.714,-9.0341 0.6641,-1.1755 1.404,-2.3455 1.6442,-2.5999 1.3864,-1.4686 2.6089,-3.8997 2.5333,-5.0382 -0.066,-0.9874 0.05,-1.2191 0.5816,-1.1643 1.3256,0.1366 1.5003,-0.048 1.7377,-1.8376 0.1441,-1.0868 0.4628,-1.9054 0.7906,-2.0312 0.3022,-0.1159 0.5493,-0.6448 0.5493,-1.1754 0,-0.5305 0.1935,-1.3263 0.4301,-1.7683 0.8458,-1.5804 1.4911,-1.9362 3.3633,-1.8543 2.1107,0.092 2.5208,0.2855 2.5208,1.1873 0,0.3659 0.4597,1.3259 1.0214,2.1333 0.5618,0.8075 1.1886,1.7372 1.3929,2.0659 0.2042,0.3288 1.1954,1.7292 2.2025,3.112 1.3918,1.9111 1.9064,2.9948 2.1451,4.5173 0.3093,1.9722 1.0568,3.5833 2.0479,4.4138 0.2775,0.2325 0.7686,1.4632 1.0913,2.7347 0.3831,1.5094 1.2805,3.3484 2.5856,5.2982 1.0994,1.6425 1.9989,3.1761 1.9989,3.4078 0,0.2319 0.4946,1.0002 1.0992,1.7074 0.8627,1.0094 1.0999,1.6455 1.1024,2.9574 0.01,2.6396 -1.1146,3.5134 -3.3845,2.6409 -1.233,-0.4739 -3.6456,-2.9292 -3.6456,-3.7101 0,-0.5956 -0.6211,-1.9372 -2.2997,-4.968 -0.3116,-0.5627 -1.0113,-1.4351 -1.5548,-1.9388 -0.5435,-0.5037 -1.0894,-1.4222 -1.2132,-2.0413 -0.1239,-0.619 -0.4549,-1.1255 -0.7358,-1.1255 -0.281,0 -0.6361,3e-4 -0.7893,0 -0.1533,0 -0.2842,1.045 -0.2911,2.3215 -0.01,1.6303 -0.2617,2.8341 -0.85,4.046 -0.6419,1.3225 -0.8184,2.2759 -0.7566,4.0856 0.077,2.234 -0.4937,4.9093 -1.2114,5.6848 -0.1797,0.1941 -0.3291,1.0298 -0.3321,1.8572 0,0.8273 -0.2381,2.5071 -0.5224,3.7328 -0.3196,1.3785 -0.4134,2.7952 -0.2458,3.7142 0.1959,1.0737 0.083,1.9789 -0.4062,3.2637 -0.7738,2.0315 -0.8774,4.0018 -0.2439,4.6354 0.3303,0.3302 0.2811,0.7711 -0.2065,1.8524 -0.4877,1.0816 -0.5513,1.6523 -0.2673,2.3992 0.205,0.539 0.3069,1.3685 0.2266,1.8432 -0.754,4.457 -0.9079,7.9575 -0.7404,16.8345 0.235,12.4573 0.387,15.1503 0.9099,16.1275 0.275,0.5137 0.293,0.9971 0.054,1.4438 -0.5019,0.938 -0.297,5.069 0.2863,5.7719 0.2653,0.3196 0.3561,0.7855 0.2017,1.0352 -0.5075,0.8212 -0.5684,5.6857 -0.4416,35.2354 0.013,2.962 -0.042,6.7402 -0.1207,8.396 -0.097,2.0194 0.01,3.1908 0.3099,3.5577 0.3023,0.3641 0.3516,0.9095 0.1475,1.6321 -0.1686,0.597 -0.2562,2.9242 -0.1948,5.1711 0.2254,8.244 0.4703,14.0062 0.6007,14.1365 0.3101,0.3101 1.7729,-0.3351 1.7729,-0.7819 0,-0.268 0.2693,-0.7566 0.5985,-1.0859 0.5205,-0.5203 1.5014,-0.5763 7.5214,-0.4289 6.3552,0.1557 8.5501,0.4142 11.817,1.3925 0.649,0.1942 2.8099,0.4315 4.8022,0.5273 2.6214,0.1259 3.805,0.3396 4.284,0.7731 0.4918,0.4451 1.0709,0.541 2.2549,0.3738 4.9982,-0.7056 7.7863,-0.6326 14.1371,0.3696 0.7706,0.1218 1.857,0.034 2.4143,-0.1952 0.7428,-0.3056 1.3599,-0.3073 2.313,-0.01 0.715,0.2256 3.6225,0.4677 6.4611,0.5379 2.8387,0.07 5.5965,0.3081 6.1286,0.5284 2.1052,0.872 17.1542,1.8977 20.8371,1.4205 1.8123,-0.2349 3.1143,-0.161 5.2325,0.2964 2.5695,0.5551 2.9199,0.5577 3.9473,0.025 0.6201,-0.3207 1.1904,-0.5235 1.2674,-0.4505 0.7391,0.6992 19.9799,0.8274 26.8826,0.1792 2.2471,-0.2112 4.4738,-0.3753 4.9482,-0.3644 0.6219,0.014 0.8282,-0.1593 0.7393,-0.6209 -0.078,-0.4065 -1.4118,-1.2051 -3.6483,-2.1849 -1.9387,-0.8496 -4.1254,-1.8154 -4.8594,-2.146 -0.7339,-0.331 -1.5279,-1.0263 -1.7643,-1.5453 -0.5746,-1.2608 -0.5646,-4.251 0.014,-4.251 0.2442,0 0.9033,-0.4401 1.4647,-0.9777 0.975,-0.9344 1.1006,-0.9586 2.806,-0.541 2.0215,0.4947 4.065,1.3722 4.3789,1.88 0.2076,0.3357 4.8219,2.6242 7.8881,3.912 0.8622,0.3618 1.8492,0.9694 2.1933,1.3497 0.3441,0.3802 0.7851,0.6914 0.9799,0.6914 0.1949,0 1.2736,0.9192 2.3971,2.0427 1.1236,1.1238 2.2549,2.043 2.5142,2.043 0.2591,0 0.6793,0.2508 0.9336,0.5572 0.2544,0.3064 0.77,0.5571 1.1458,0.5571 0.3759,0 1.5747,0.3335 2.664,0.741 1.8705,0.6998 2.0125,0.8455 2.558,2.623 0.7379,2.4046 0.5134,3.503 -0.9248,4.5273 -0.9175,0.6533 -1.6116,0.8087 -3.3912,0.7589 -1.2306,-0.034 -2.8225,0.097 -3.5375,0.2922 -1.3602,0.3707 -3.3428,1.8856 -3.3428,2.5539 0,0.2139 -0.3786,0.3892 -0.8412,0.3892 -1.1352,0 -3.3533,1.2293 -5.9552,3.3002 -1.1845,0.9426 -2.6888,2.099 -3.3429,2.5695 -0.654,0.4702 -2.1177,1.7419 -3.2526,2.8258 -1.1626,1.1104 -2.7031,2.1753 -3.5286,2.4394 -0.8058,0.258 -1.6238,0.6159 -1.818,0.7956 -0.4082,0.3775 -0.4934,0.3691 -1.5464,-0.1568 z m -181.1937,-160.8637 c -0.7473,-0.3055 -1.2582,-1.0031 -1.9125,-2.6115 -1.1298,-2.7769 -1.1219,-3.6403 0.045,-4.899 0.5156,-0.5563 1.0411,-1.4424 1.1677,-1.9691 0.1266,-0.5266 0.5618,-1.6743 0.9672,-2.5503 0.4054,-0.8761 0.6594,-1.6705 0.5645,-1.7654 -0.095,-0.095 -1.1169,-0.2444 -2.271,-0.3321 -1.1542,-0.088 -2.2571,-0.2575 -2.4509,-0.3772 -0.1937,-0.1198 -1.9093,-0.3071 -3.8122,-0.4163 -4.7246,-0.271 -6.5298,-0.77 -7.1542,-1.9775 -0.2756,-0.5329 -0.8525,-1.287 -1.2819,-1.6756 -0.4295,-0.3887 -0.7809,-0.8808 -0.7809,-1.0935 0,-0.6513 1.9288,-3.2123 2.4193,-3.2123 0.2536,0 0.6584,-0.2377 0.8994,-0.5282 0.5278,-0.6358 3.9063,-0.5667 4.5665,0.093 0.2391,0.2391 1.133,0.4348 1.9865,0.4348 0.8535,0 2.1154,0.2306 2.8042,0.5126 0.6889,0.2819 2.2136,0.5882 3.3882,0.6805 1.7625,0.1386 2.141,0.065 2.1662,-0.4198 0.1713,-3.3082 0.4399,-5.0873 0.9033,-5.9835 0.3035,-0.5869 0.5519,-1.3211 0.5519,-1.6313 0,-0.3103 0.3604,-1.2556 0.8008,-2.1005 0.6212,-1.1918 0.7229,-1.7566 0.4536,-2.5185 -0.3283,-0.9289 -0.4878,-0.9845 -2.9364,-1.023 -3.8002,-0.06 -5.2676,-0.6018 -7.6638,-2.8312 -2.8068,-2.6114 -3.0322,-3.9056 -1.5746,-9.0418 0.848,-2.9883 1.258,-3.8446 2.2637,-4.7276 0.6756,-0.5931 1.2318,-1.4371 1.2363,-1.8756 0.01,-0.7584 3.415,-4.6972 4.0635,-4.6972 0.1675,0 1.104,-0.6605 2.0809,-1.4678 0.9769,-0.8073 1.8816,-1.4027 2.0104,-1.3231 0.1288,0.08 0.9773,-0.03 1.8856,-0.2447 0.9083,-0.2142 2.5707,-0.4963 3.6943,-0.6269 2.0116,-0.2338 2.0565,-0.2658 2.9447,-2.0946 1.5329,-3.1566 1.7018,-3.6191 1.5814,-4.3304 -0.064,-0.3791 0.1448,-0.9507 0.4643,-1.2702 0.3195,-0.3196 0.5809,-0.9143 0.5809,-1.3217 0,-0.4074 0.192,-1.0993 0.4265,-1.5377 0.2346,-0.4382 0.4607,-2.1019 0.5024,-3.6969 0.042,-1.5951 0.1561,-2.9803 0.254,-3.0783 0.098,-0.098 1.0002,-0.3411 2.0048,-0.5402 l 1.8266,-0.3621 1.4309,1.5666 c 1.3004,1.4237 1.4145,1.713 1.2502,3.1705 -0.109,0.9669 -0.5184,1.9633 -1.0309,2.5088 -0.698,0.7429 -0.872,1.4015 -0.9722,3.6789 -0.072,1.6252 -0.4295,3.5538 -0.8643,4.6571 -0.4083,1.0357 -0.7423,2.1948 -0.7423,2.5759 0,1.0147 1.6331,1.4334 4.8331,1.2392 2.6138,-0.1586 2.8818,-0.1013 4.4539,0.9531 0.92,0.617 2.3132,1.6766 3.096,2.3546 1.5624,1.3534 1.6202,2.264 0.2495,3.9332 -0.7642,0.9306 -4.4522,1.8284 -5.5193,1.3436 -0.3373,-0.1532 -1.6161,-0.3072 -2.8418,-0.3421 -1.2257,-0.035 -3.1242,-0.1105 -4.2189,-0.1679 -2.2131,-0.1161 -2.4103,0.039 -3.066,2.4087 -0.2261,0.8172 -0.5445,1.8201 -0.7076,2.2286 -0.2599,0.6511 -1.0113,2.9052 -1.7335,5.1999 -0.1285,0.4086 -0.2492,1.4115 -0.2681,2.2286 -0.019,0.8171 -0.2362,1.6995 -0.4829,1.9608 -0.2467,0.2612 -0.3673,0.6866 -0.268,0.9452 0.2559,0.6669 3.1475,2.4797 3.9554,2.4797 0.3717,0 1.3685,0.4596 2.215,1.0214 0.8465,0.5618 2.0923,1.3557 2.7684,1.7643 2.0558,1.2424 3.8511,3.1654 4.8182,5.1609 1.1029,2.2759 1.684,4.6052 1.2204,4.8917 -0.1828,0.113 -0.3324,1.0015 -0.3324,1.9745 0,3.3984 -1.199,5.5404 -4.5926,8.2049 -0.3809,0.2991 -1.2167,0.5716 -1.8571,0.6057 -0.6405,0.034 -1.9505,0.365 -2.9111,0.7355 -1.5922,0.6142 -2.0518,0.6312 -5.2,0.1928 -1.8993,-0.2645 -3.913,-0.5692 -4.4748,-0.6771 -0.8536,-0.164 -1.0214,-0.067 -1.0214,0.5877 0,0.9354 -0.7162,4.0937 -1.1066,4.8803 -0.1521,0.3064 -0.1103,0.923 0.093,1.3701 0.2825,0.6215 0.2237,0.9588 -0.2495,1.432 -0.3405,0.3404 -0.5368,0.8939 -0.4364,1.2298 0.4075,1.3632 -3.2904,2.8946 -5.1519,2.1338 z m 17.4191,-18.0907 c 3.6699,-1.2813 4.3335,-2.0342 4.0518,-4.5964 -0.2056,-1.8704 -1.0199,-3.907 -1.5621,-3.907 -0.1622,0 -1.0016,-0.6049 -1.8654,-1.3441 -0.8656,-0.741 -2.854,-1.8238 -4.431,-2.413 -1.5735,-0.5878 -2.9026,-1.0694 -2.9537,-1.0701 -0.051,0 -0.093,0.3383 -0.093,0.7535 0,0.4151 -0.2692,1.3761 -0.5983,2.1356 -1.2968,2.9938 -2.3372,7.658 -1.8946,8.4939 0.7186,1.3571 2.2762,2.7298 3.0976,2.7298 0.4604,0 0.9408,0.1678 1.0675,0.3728 0.2724,0.4407 1.2089,0.2319 5.181,-1.155 z m -11.6818,-23.8989 c 0,-0.8093 0.4106,-1.8898 1.1143,-2.9325 0.6128,-0.908 1.1143,-2.0051 1.1143,-2.4379 0,-0.4328 0.1905,-1.0919 0.4234,-1.4648 0.3024,-0.4843 0.311,-0.8788 0.03,-1.3811 -0.4042,-0.7223 0.1838,-2.2257 1.3607,-3.4789 0.6544,-0.6967 0,-0.9657 -1.0261,-0.4189 -0.4065,0.2175 -1.3403,0.3955 -2.0751,0.3955 -0.845,0 -1.4147,0.2048 -1.5499,0.5572 -0.1175,0.3064 -0.4648,0.5571 -0.7717,0.5571 -0.3068,0 -0.9158,0.3179 -1.3531,0.7063 -0.4373,0.3885 -1.5502,1.3768 -2.4731,2.1962 -1.2748,1.1321 -1.8324,1.992 -2.3214,3.5798 -1.0258,3.3315 -1.0698,3.2696 2.6092,3.6739 0.8698,0.096 2.2069,0.5126 2.9715,0.9267 1.8714,1.0137 1.9472,0.9951 1.9472,-0.4786 z"
           id="path18573"
           sodipodi:nodetypes="sssscssssssssssssssssssssssssssssssssssscssssssssssssssscssssssssssssssssssssssssssssssssssssssssssssssssssssssssssssssssssssssssssssssssssssssssssssssssssssssssssssssssssssssssssssssssssssssssssssssssssssssssssssssssssssssssssssssssssssssssssssssssssssssssssssssscsssssssssssssssssssssssssssssssssssssssssssssssssssssssssssssssss" /></g></g></g></svg>
