<?xml version="1.0" encoding="UTF-8" standalone="no"?>
<!-- Created with Inkscape (http://www.inkscape.org/) -->

<svg
   version="1.1"
   id="svg176"
   width="1016.4984"
   height="972.45093"
   viewBox="0 0 1016.4984 972.45093"
   sodipodi:docname="comic.svg"
   xml:space="preserve"
   inkscape:version="1.2.2 (b0a8486541, 2022-12-01)"
   xmlns:inkscape="http://www.inkscape.org/namespaces/inkscape"
   xmlns:sodipodi="http://sodipodi.sourceforge.net/DTD/sodipodi-0.dtd"
   xmlns="http://www.w3.org/2000/svg"
   xmlns:svg="http://www.w3.org/2000/svg"><defs
     id="defs180"><rect
       x="-4578.7661"
       y="2913"
       width="1005.4591"
       height="284.5011"
       id="rect545" /><rect
       x="-5995.3394"
       y="2384.0144"
       width="985.15796"
       height="766.34729"
       id="rect8929" /><inkscape:path-effect
       effect="roughen"
       id="path-effect2210-3-3-2"
       is_visible="true"
       lpeversion="1.2"
       method="size"
       max_segment_size="40"
       segments="114"
       displace_x="1;589550557"
       displace_y="7;1910419474"
       global_randomize="1;1292492417"
       handles="along"
       shift_nodes="true"
       fixed_displacement="false"
       spray_tool_friendly="false" /></defs><sodipodi:namedview
     id="namedview178"
     pagecolor="#ffffff"
     bordercolor="#000000"
     borderopacity="0.25"
     inkscape:showpageshadow="2"
     inkscape:pageopacity="0.0"
     inkscape:pagecheckerboard="0"
     inkscape:deskcolor="#d1d1d1"
     showgrid="false"
     showguides="false"
     inkscape:zoom="0.13137786"
     inkscape:cx="9853.2583"
     inkscape:cy="2641.2365"
     inkscape:window-width="1920"
     inkscape:window-height="1011"
     inkscape:window-x="0"
     inkscape:window-y="0"
     inkscape:window-maximized="1"
     inkscape:current-layer="g182"><inkscape:grid
       type="xygrid"
       id="grid2722" /></sodipodi:namedview><g
     inkscape:groupmode="layer"
     inkscape:label="Image"
     id="g182"
     transform="translate(-7212.9153,-2692.5627)"><g
       id="vgn6"><path
         style="fill:none;fill-opacity:1;stroke:#000000;stroke-width:8;stroke-linejoin:round;stroke-dasharray:none;stroke-opacity:1"
         d="m 7218.1957,2705.2145 38.4843,-4.3689 39.2494,0.042 38.616,-1.901 38.3381,-0.1421 38.861,3.6538 38.7151,-0.1914 38.9077,0.1619 38.559,-2.0014 38.9414,0.5697 38.3952,-0.055 38.9882,-2.735 38.8285,-1.6844 38.7483,3.509 38.6145,3.1507 38.9403,-1.029 38.9558,0.4928 38.304,1.0863 38.6987,0.5448 38.837,-1.1803 38.7145,-2.1692 38.6772,-1.8652 38.738,3.0891 38.7999,-0.4098 38.2625,2.5686 39.0007,-1.5075 39.0427,-1.4585 -0.3569,37.9736 -0.4534,42.7975 -0.616,34.3967 -0.4743,44.1046 0.083,32.4914 0.2079,37.6479 -0.1182,39.5018 -0.062,38.8352 0.1218,38.2073 -0.4547,40.1089 -0.2274,38.6753 -0.1422,35.4273 0.3363,39.3177 -0.2153,38.4315 -0.061,38.0367 0.062,38.6596 -0.071,37.4635 -0.1605,42.3261 0.1171,35.7281 -0.3813,36.4485 -0.1903,39.5733 0.2579,38.5732 -0.7921,38.9321 -0.1723,37.254 0.098,38.7174 -38.4064,-3.8366 -38.8952,-0.1909 -38.767,-0.7142 -38.7959,-0.2874 -38.154,0 -38.5626,-0.042 -38.7002,-2.5848 -38.4536,0.1203 -38.647,-0.2917 -38.6003,-0.18 -39.1383,2.0708 -37.951,0.2093 -39.3082,0.04 -37.9638,-2.1427 -38.6852,0.5011 -38.5463,0.3118 -38.9146,-0.5624 -38.3271,-0.859 -38.2246,-1.8187 -38.85,1.9863 -38.7762,1.9111 -38.4129,-0.445 -38.357,-3.1404 -39.3013,-1.894 -38.1948,3.5371 -38.873,3.8937 0.084,-42.123 -0.1365,-38.0502 -0.4495,-39.6364 -0.525,-42.6613 0.1199,-36.8272 0.2534,-38.5434 -0.035,-41.0958 0.051,-39.2277 0.012,-40.0823 0.064,-36.4893 0.07,-42.9693 -0.051,-39.7438 0.4658,-36.5746 -0.3924,-42.8139 0.04,-40.7944 0.2406,-36.4287 -0.2518,-43.8579 -0.1224,-39.5675 0.048,-35.0317 0.2189,-40.5879 0.3209,-39.7335 -0.01,-39.909 0.015,-42.4541 z"
         id="path2208-7-4-2"
         inkscape:path-effect="#path-effect2210-3-3-2"
         inkscape:original-d="m 7218.2284,2701.7191 h 1007.0267 l -3.5012,960.1724 -1003.5255,-6.018 z"
         sodipodi:nodetypes="ccccc" /><text
         xml:space="preserve"
         transform="translate(13227.624,660.01341)"
         id="text8927"
         style="font-style:normal;font-variant:normal;font-weight:normal;font-stretch:normal;font-size:64px;font-family:'Canted Comic';-inkscape-font-specification:'Canted Comic, Normal';font-variant-ligatures:normal;font-variant-caps:normal;font-variant-numeric:normal;font-variant-east-asian:normal;white-space:pre;shape-inside:url(#rect8929);display:inline;fill:#000000;fill-opacity:1;stroke:none;stroke-width:10;stroke-linejoin:round;stroke-dasharray:none;stroke-opacity:1"><tspan
           x="-5995.3398"
           y="2446.8708"
           id="tspan138230"><tspan
   style="font-weight:bold;-inkscape-font-specification:'Canted Comic, Bold'"
   id="tspan138228">to solve climate change</tspan>,  </tspan><tspan
           x="-5995.3398"
           y="2526.8708"
           id="tspan138232">we could make polluters </tspan><tspan
           x="-5995.3398"
           y="2606.8708"
           id="tspan138234">care about the damages of </tspan><tspan
           x="-5995.3398"
           y="2686.8708"
           id="tspan138236">their emissions.</tspan></text><text
         xml:space="preserve"
         id="text543"
         style="font-style:normal;font-variant:normal;font-weight:normal;font-stretch:normal;font-size:96px;font-family:'Canted Comic';-inkscape-font-specification:'Canted Comic, Normal';font-variant-ligatures:normal;font-variant-caps:normal;font-variant-numeric:normal;font-variant-east-asian:normal;white-space:pre;shape-inside:url(#rect545);display:inline;fill:#000000;stroke-width:10;stroke-linejoin:round"
         transform="translate(12130.73,-163.68479)"><tspan
           x="-4578.7656"
           y="3007.2857"
           id="tspan138238">hence,</tspan></text></g></g></svg>
