<?xml version="1.0" encoding="UTF-8" standalone="no"?>
<!-- Created with Inkscape (http://www.inkscape.org/) -->

<svg
   version="1.1"
   id="svg176"
   width="1321.2969"
   height="967.74475"
   viewBox="0 0 1321.2969 967.74475"
   sodipodi:docname="comic.svg"
   xml:space="preserve"
   inkscape:version="1.2.2 (b0a8486541, 2022-12-01)"
   xmlns:inkscape="http://www.inkscape.org/namespaces/inkscape"
   xmlns:sodipodi="http://sodipodi.sourceforge.net/DTD/sodipodi-0.dtd"
   xmlns="http://www.w3.org/2000/svg"
   xmlns:svg="http://www.w3.org/2000/svg"><defs
     id="defs180"><inkscape:path-effect
       effect="roughen"
       id="path-effect2210-3-2-5-7-1-7-7-4"
       is_visible="true"
       lpeversion="1.2"
       method="size"
       max_segment_size="40"
       segments="114"
       displace_x="1;589550557"
       displace_y="7;1910419474"
       global_randomize="1;1292492417"
       handles="along"
       shift_nodes="true"
       fixed_displacement="false"
       spray_tool_friendly="false" /><rect
       x="-1889.6726"
       y="613.1416"
       width="1090.248"
       height="295.04428"
       id="rect8937-1-4" /></defs><sodipodi:namedview
     id="namedview178"
     pagecolor="#ffffff"
     bordercolor="#000000"
     borderopacity="0.25"
     inkscape:showpageshadow="2"
     inkscape:pageopacity="0.0"
     inkscape:pagecheckerboard="0"
     inkscape:deskcolor="#d1d1d1"
     showgrid="false"
     showguides="false"
     inkscape:zoom="0.13137786"
     inkscape:cx="9853.2583"
     inkscape:cy="2641.2365"
     inkscape:window-width="1920"
     inkscape:window-height="1011"
     inkscape:window-x="0"
     inkscape:window-y="0"
     inkscape:window-maximized="1"
     inkscape:current-layer="g182"><inkscape:grid
       type="xygrid"
       id="grid2722" /></sodipodi:namedview><g
     inkscape:groupmode="layer"
     inkscape:label="Image"
     id="g182"
     transform="translate(-10001.245,-6792.2642)"><g
       id="vgn20"><path
         style="fill:none;fill-opacity:1;stroke:#000000;stroke-width:7.95291;stroke-linejoin:round;stroke-dasharray:none;stroke-opacity:1"
         d="m 10005.742,6805.9008 39.502,-5.2301 40.3,0.035 39.667,-1.9085 39.387,-0.1693 39.912,3.6235 39.768,-0.1795 39.958,0.1718 39.61,-1.9888 39.992,0.5517 39.447,-0.065 40.039,-2.7462 39.874,-1.7547 39.792,3.3932 39.678,3.1196 39.989,-0.9673 40.009,0.5224 39.354,1.1375 39.746,0.6543 39.884,-1.0257 39.772,-2.0761 39.729,-1.9483 39.774,2.7732 39.867,-0.3171 39.314,2.5933 40.024,-0.4699 40.133,-0.5963 39.409,-0.6587 39.674,3.7922 39.676,-1.0238 39.89,4.6856 40.629,-3.1371 39.717,-3.6747 39.307,-1.4994 -0.145,40.1614 0.04,39.5599 -0.533,41.4622 -0.308,40.027 -0.225,36.7795 0.246,40.6701 -0.291,39.7854 -0.141,39.389 -0.02,40.0123 -0.14,38.8165 -0.227,43.6788 0.06,37.0807 -0.425,37.8016 -0.258,40.9256 0.189,39.9257 -0.77,40.2853 -0.339,38.6053 -0.191,40.0693 0,37.0117 -0.346,43.2743 -0.468,39.2428 -0.571,40.1704 0.115,40.0509 0.182,39.7293 -39.748,-2.7615 -39.474,-0.111 -39.695,-0.5242 -39.644,-0.4231 -40.184,1.8183 -39.021,0.018 -40.358,-0.149 -39.012,-2.3286 -39.707,0.2175 -39.6,0.042 -39.966,-0.8257 -39.366,-1.1694 -39.258,-2.2188 -39.854,1.3732 -39.869,1.4462 -39.49,-0.7074 -39.399,-3.5358 -40.257,-3.264 -39.154,0.6544 -40.217,1.2008 -39.26,-1.9311 -39.92,0.01 -39.972,0.2066 -39.744,-2.6276 -39.154,0.7011 -39.497,2.0022 -39.844,0.5677 -39.553,1.1933 -39.645,0.8731 -39.57,4.2113 -39.54,-0.015 -39.761,0.052 -39.136,3.2699 -0.445,-39.4765 -0.03,-40.6628 0.167,-36.298 -0.319,-43.7277 -0.212,-39.436 -0.07,-34.9003 0.08,-40.4573 0.196,-39.6036 -0.09,-39.779 -0.101,-42.3235 -0,-36.0591 0.08,-43.1252 -0.02,-36.6955 -0.107,-43.0275 0,-39.0272 0.222,-41.1281 0.213,-38.4109 0.02,-41.0989 0,-37.1359 0,-42.4323 0.15,-37.7503 0.126,-39.8819 -0.101,-39.0076 z"
         id="path2208-7-2-2-5-3-0-3-1"
         sodipodi:nodetypes="ccccc"
         inkscape:original-d="m 10005.741,6801.5442 h 1312.831 l -4.565,954.5249 -1308.266,-5.9826 z"
         inkscape:path-effect="#path-effect2210-3-2-5-7-1-7-7-4" /><text
         xml:space="preserve"
         id="text8935-1-3"
         style="font-style:normal;font-variant:normal;font-weight:normal;font-stretch:normal;font-size:96px;font-family:'Canted Comic';-inkscape-font-specification:'Canted Comic, Normal';font-variant-ligatures:normal;font-variant-caps:normal;font-variant-numeric:normal;font-variant-east-asian:normal;white-space:pre;shape-inside:url(#rect8937-1-4);display:inline;fill:#000000;fill-opacity:1;stroke:none;stroke-width:10;stroke-linejoin:round;stroke-dasharray:none;stroke-opacity:1"
         transform="translate(12408.573,6227.2239)"><tspan
           x="-1889.6719"
           y="707.42634"
           id="tspan67965">thus,</tspan></text><g
         id="g6482"
         transform="translate(11852.581,-196.07746)"><text
           xml:space="preserve"
           style="font-style:normal;font-variant:normal;font-weight:normal;font-stretch:normal;font-size:64px;font-family:'Canted Comic';-inkscape-font-specification:'Canted Comic, Normal';font-variant-ligatures:normal;font-variant-caps:normal;font-variant-numeric:normal;font-variant-east-asian:normal;white-space:pre;inline-size:1285.61;display:inline;fill:#000000;fill-opacity:1;stroke:none;stroke-width:5;stroke-linejoin:round;stroke-dasharray:none;stroke-opacity:1"
           x="-1633.1392"
           y="359.38992"
           id="text7473-1-1"
           transform="translate(-169.45019,6923.946)"><tspan
             x="-1633.1392"
             y="359.38992"
             id="tspan67967">each permit allows a polluter 
</tspan><tspan
             x="-1633.1392"
             y="439.38992"
             id="tspan67969">to emit 1 ton of emissions.</tspan></text><text
           xml:space="preserve"
           style="font-style:normal;font-variant:normal;font-weight:normal;font-stretch:normal;font-size:64px;font-family:'Canted Comic';-inkscape-font-specification:'Canted Comic, Normal';font-variant-ligatures:normal;font-variant-caps:normal;font-variant-numeric:normal;font-variant-east-asian:normal;white-space:pre;inline-size:1245.74;display:inline;fill:#000000;fill-opacity:1;stroke:none;stroke-width:5;stroke-linejoin:round;stroke-dasharray:none;stroke-opacity:1"
           x="-1633.1392"
           y="359.38992"
           id="text7473-1-1-2"
           transform="translate(-169.64219,7162.8829)"><tspan
             x="-1633.1392"
             y="359.38992"
             id="tspan67971">in total, 10 permits allow
</tspan><tspan
             x="-1633.1392"
             y="439.38992"
             id="tspan67973">10 tons of emissions.</tspan></text><text
           xml:space="preserve"
           style="font-style:normal;font-variant:normal;font-weight:normal;font-stretch:normal;font-size:64px;font-family:'Canted Comic';-inkscape-font-specification:'Canted Comic, Normal';font-variant-ligatures:normal;font-variant-caps:normal;font-variant-numeric:normal;font-variant-east-asian:normal;white-space:pre;inline-size:1285.61;display:inline;fill:#000000;fill-opacity:1;stroke:none;stroke-width:5;stroke-linejoin:round;stroke-dasharray:none;stroke-opacity:1"
           x="-1633.1392"
           y="359.38992"
           id="text7473-1-1-4"
           transform="translate(-168.55419,7444.1064)"><tspan
             x="-1633.1392"
             y="359.38992"
             id="tspan67977">what's <tspan
   style="font-weight:bold;-inkscape-font-specification:'Canted Comic, Bold'"
   id="tspan67975">special</tspan> is that businesses </tspan><tspan
             x="-1633.1392"
             y="439.38992"
             id="tspan67979">can freely trade permits, so . . .</tspan></text></g></g></g></svg>
