<?xml version="1.0" encoding="UTF-8" standalone="no"?>
<!-- Created with Inkscape (http://www.inkscape.org/) -->

<svg
   version="1.1"
   id="svg176"
   width="1329.0635"
   height="974.09863"
   viewBox="0 0 1329.0635 974.09863"
   sodipodi:docname="comic.svg"
   xml:space="preserve"
   inkscape:version="1.2.2 (b0a8486541, 2022-12-01)"
   xmlns:inkscape="http://www.inkscape.org/namespaces/inkscape"
   xmlns:sodipodi="http://sodipodi.sourceforge.net/DTD/sodipodi-0.dtd"
   xmlns="http://www.w3.org/2000/svg"
   xmlns:svg="http://www.w3.org/2000/svg"><defs
     id="defs180"><rect
       x="-5995.3394"
       y="2384.0144"
       width="1263.057"
       height="341.4216"
       id="rect8929-5-9-5-4-0-1-6" /><inkscape:path-effect
       effect="roughen"
       id="path-effect2210-3-3-4-7-7-4-65-0-8-6-6"
       is_visible="true"
       lpeversion="1.2"
       method="size"
       max_segment_size="40"
       segments="114"
       displace_x="1;589550557"
       displace_y="7;1910419474"
       global_randomize="1;1292492417"
       handles="along"
       shift_nodes="true"
       fixed_displacement="false"
       spray_tool_friendly="false" /><rect
       x="-5995.3394"
       y="2384.0144"
       width="1253.902"
       height="120.85435"
       id="rect8929-5-9-5-4-0-1-6-4" /><rect
       x="-5995.3394"
       y="2384.0144"
       width="1279.7429"
       height="350.55087"
       id="rect8929-5-9-5-4-0-1-6-2" /></defs><sodipodi:namedview
     id="namedview178"
     pagecolor="#ffffff"
     bordercolor="#000000"
     borderopacity="0.25"
     inkscape:showpageshadow="2"
     inkscape:pageopacity="0.0"
     inkscape:pagecheckerboard="0"
     inkscape:deskcolor="#d1d1d1"
     showgrid="false"
     showguides="false"
     inkscape:zoom="0.26966119"
     inkscape:cx="9261.622"
     inkscape:cy="2080.3884"
     inkscape:window-width="1920"
     inkscape:window-height="1011"
     inkscape:window-x="0"
     inkscape:window-y="0"
     inkscape:window-maximized="1"
     inkscape:current-layer="g182"><inkscape:grid
       type="xygrid"
       id="grid2722" /></sodipodi:namedview><g
     inkscape:groupmode="layer"
     inkscape:label="Image"
     id="g182"
     transform="translate(-8581.9891,-11928.069)"><g
       id="vgn34"
       transform="translate(151.3337,-1130.748)"><g
         id="g2237"><text
           xml:space="preserve"
           transform="translate(14531.375,11309.002)"
           id="text8927-5-7-2-0-1-3-0"
           style="font-style:normal;font-variant:normal;font-weight:normal;font-stretch:normal;font-size:64px;font-family:'Canted Comic';-inkscape-font-specification:'Canted Comic, Normal';font-variant-ligatures:normal;font-variant-caps:normal;font-variant-numeric:normal;font-variant-east-asian:normal;white-space:pre;shape-inside:url(#rect8929-5-9-5-4-0-1-6);display:inline;fill:#000000;fill-opacity:1;stroke:none;stroke-width:10;stroke-linejoin:round;stroke-dasharray:none;stroke-opacity:1"><tspan
             x="-5995.3398"
             y="2446.8708"
             id="tspan5950">and since one less permit is one </tspan><tspan
             x="-5995.3398"
             y="2526.8708"
             id="tspan5952">less ton of total emissions, your </tspan><tspan
             x="-5995.3398"
             y="2606.8708"
             id="tspan5954">climate impact is big and precise.</tspan></text><text
           xml:space="preserve"
           transform="translate(14718.858,10735.308)"
           id="text8927-5-7-2-0-1-3-0-6"
           style="font-style:normal;font-variant:normal;font-weight:normal;font-stretch:normal;font-size:85.3333px;font-family:'Canted Comic';-inkscape-font-specification:'Canted Comic, Normal';font-variant-ligatures:normal;font-variant-caps:normal;font-variant-numeric:normal;font-variant-east-asian:normal;white-space:pre;shape-inside:url(#rect8929-5-9-5-4-0-1-6-4);display:inline;fill:#000000;fill-opacity:1;stroke:none;stroke-width:10;stroke-linejoin:round;stroke-dasharray:none;stroke-opacity:1"><tspan
             x="-5995.3398"
             y="2467.8232"
             id="tspan5956">this is awesome!</tspan></text><text
           xml:space="preserve"
           transform="translate(14464.197,10952.066)"
           id="text8927-5-7-2-0-1-3-0-67"
           style="font-style:normal;font-variant:normal;font-weight:normal;font-stretch:normal;font-size:64px;font-family:'Canted Comic';-inkscape-font-specification:'Canted Comic, Normal';font-variant-ligatures:normal;font-variant-caps:normal;font-variant-numeric:normal;font-variant-east-asian:normal;white-space:pre;shape-inside:url(#rect8929-5-9-5-4-0-1-6-2);display:inline;fill:#000000;fill-opacity:1;stroke:none;stroke-width:10;stroke-linejoin:round;stroke-dasharray:none;stroke-opacity:1"><tspan
             x="-5995.3398"
             y="2446.8708"
             id="tspan5958">by removing permits and raising </tspan><tspan
             x="-5995.3398"
             y="2526.8708"
             id="tspan5960">peoples' cost of polluting,
</tspan><tspan
             x="-5995.3398"
             y="2606.8708"
             id="tspan5964">you actually <tspan
   style="font-weight:bold;-inkscape-font-specification:'Canted Comic, Bold'"
   id="tspan5962">change the system</tspan>.</tspan></text><path
           style="fill:none;fill-opacity:1;stroke:#000000;stroke-width:8;stroke-linejoin:round;stroke-dasharray:none;stroke-opacity:1"
           d="m 8435.1391,13066.072 38.5562,1.197 39.3554,0.03 38.7222,-1.909 38.4426,-0.172 38.9669,3.62 38.8231,-0.178 39.0141,0.172 38.665,-1.987 39.0474,0.55 38.5018,-0.07 39.0944,-2.747 38.9291,-1.761 38.8463,3.382 38.734,3.116 39.0443,-0.962 39.0644,0.524 38.4092,1.141 38.8006,0.663 38.9396,-1.015 38.8274,-2.069 38.7844,-1.952 38.8289,2.757 38.922,-0.314 38.3696,2.594 39.0778,-0.44 39.1894,-0.57 38.4642,-0.638 38.7302,3.802 38.7242,-0.882 38.9507,4.823 39.664,-2.529 38.8407,-3.138 38.3723,-1.506 38.833,-1.081 0.045,38.567 -0.5249,40.08 -0.3019,38.646 -0.2195,35.398 0.2511,39.288 -0.2843,38.404 -0.1334,38.008 -0.01,38.63 -0.131,37.435 -0.218,42.297 0.066,35.7 -0.4122,36.42 -0.2475,39.544 0.1977,38.544 -0.7522,38.903 -0.3338,37.224 -0.191,38.688 0.01,35.63 -0.3355,41.893 -0.4675,37.861 -0.6088,38.788 -0.043,38.669 0,38.349 -0.1,35.846 0.1672,40.961 -39.8677,-0.607 -39.8754,-0.506 -40.4148,1.733 -39.2623,-0.06 -40.591,-0.229 -39.2445,-2.407 -39.9317,0.132 -39.8345,-0.04 -40.1993,-0.911 -39.5964,-1.256 -39.4855,-2.311 -40.0777,1.27 -40.1085,1.349 -39.7299,-0.796 -39.6293,-3.628 -40.4735,-3.383 -39.3673,0.51 -40.4544,1.057 -39.5016,-2.066 -40.1405,-0.159 -40.2059,0.03 -39.9795,-2.805 -39.363,0.455 -39.7403,1.746 -40.0989,0.339 -39.7936,0.947 -39.8925,0.635 -39.8142,3.959 -39.7793,0.151 -39.9922,0.206 -39.368,3.42 -40.7395,-1.22 -39.4443,-2.389 0.1641,-37.19 -0.3204,-43.794 -0.2144,-39.501 -0.071,-34.966 0.074,-40.523 0.1908,-39.67 -0.087,-39.845 -0.1058,-42.389 -0.01,-36.125 0.079,-43.191 -0.021,-36.761 -0.1126,-43.093 -0.01,-39.093 0.2131,-41.194 0.2091,-38.477 0.017,-41.165 0,-37.201 0.011,-42.498 0.1522,-37.816 0.1486,-39.948 -0.035,-39.073 -0.081,-36.015 0,-46.842 z"
           id="path2208-7-4-6-5-2-4-4-0-8-8-0"
           inkscape:path-effect="#path-effect2210-3-3-4-7-7-4-65-0-8-6-6"
           inkscape:original-d="m 8435.1375,13068.143 h 1320.4917 l -4.5918,960.173 -1315.8999,-6.018 z"
           sodipodi:nodetypes="ccccc" /></g></g></g></svg>
