<?xml version="1.0" encoding="UTF-8" standalone="no"?>
<!-- Created with Inkscape (http://www.inkscape.org/) -->

<svg
   version="1.1"
   id="svg176"
   width="1321.2855"
   height="967.74475"
   viewBox="0 0 1321.2856 967.74475"
   sodipodi:docname="comic.svg"
   xml:space="preserve"
   inkscape:version="1.2.2 (b0a8486541, 2022-12-01)"
   xmlns:inkscape="http://www.inkscape.org/namespaces/inkscape"
   xmlns:sodipodi="http://sodipodi.sourceforge.net/DTD/sodipodi-0.dtd"
   xmlns="http://www.w3.org/2000/svg"
   xmlns:svg="http://www.w3.org/2000/svg"><defs
     id="defs180"><rect
       x="2357.7812"
       y="5070.9375"
       width="1372.076"
       height="276.52802"
       id="rect10169-1-5-6" /><rect
       x="2357.7812"
       y="5070.9375"
       width="952.01178"
       height="458.91132"
       id="rect10169-1-4-9-0" /><rect
       x="2357.7812"
       y="5070.9375"
       width="952.01178"
       height="458.91132"
       id="rect10169-1-4-9-4-2" /><inkscape:path-effect
       effect="roughen"
       id="path-effect2210-3-2-5-7-1-9-6-7"
       is_visible="true"
       lpeversion="1.2"
       method="size"
       max_segment_size="40"
       segments="114"
       displace_x="1;589550557"
       displace_y="7;1910419474"
       global_randomize="1;1292492417"
       handles="along"
       shift_nodes="true"
       fixed_displacement="false"
       spray_tool_friendly="false" /></defs><sodipodi:namedview
     id="namedview178"
     pagecolor="#ffffff"
     bordercolor="#000000"
     borderopacity="0.25"
     inkscape:showpageshadow="2"
     inkscape:pageopacity="0.0"
     inkscape:pagecheckerboard="0"
     inkscape:deskcolor="#d1d1d1"
     showgrid="false"
     showguides="false"
     inkscape:zoom="0.061863481"
     inkscape:cx="-3297.5836"
     inkscape:cy="6142.5577"
     inkscape:window-width="1920"
     inkscape:window-height="1011"
     inkscape:window-x="0"
     inkscape:window-y="0"
     inkscape:window-maximized="1"
     inkscape:current-layer="g182"><inkscape:grid
       type="xygrid"
       id="grid2722" /></sodipodi:namedview><g
     inkscape:groupmode="layer"
     inkscape:label="Image"
     id="g182"
     transform="translate(2901.25,-7233.6707)"><g
       id="vgn19"><g
         aria-label="finally, we get to the problem:"
         transform="translate(-5220.0367,2369.1185)"
         id="text10167-0-6-7"
         style="font-size:64px;font-family:'Canted Comic';-inkscape-font-specification:'Canted Comic, Normal';white-space:pre;shape-inside:url(#rect10169-1-5-6);display:inline;stroke-width:4;stroke-linecap:round;stroke-linejoin:round"
         inkscape:transform-center-x="48.35915"
         inkscape:transform-center-y="1.0330209"><path
           d="m 2363.1573,5122.1512 c 3.008,-0.32 8.064,-0.704 15.04,-1.152 6.9759,-0.448 11.8399,-0.832 14.5919,-1.28 h 0.384 c 1.92,0 3.0081,0.896 3.2641,2.752 v 0.448 c 0,1.856 -0.896,2.944 -2.752,3.2 -2.944,0.448 -8,0.832 -15.104,1.28 -6.912,0.448 -11.072,0.768 -12.48,0.896 0,3.392 0.192,6.976 0.576,10.816 3.392,-0.192 8.512,-0.64 15.3599,-1.408 l 7.3601,-0.832 c 1.984,0 3.0079,0.96 3.1999,2.88 v 0.32 c 0,1.92 -0.9599,3.008 -2.8799,3.2 l -6.9121,0.704 c -6.0799,0.768 -11.1999,1.28 -15.3599,1.472 0.512,3.648 1.408,9.024 2.624,16.192 0.064,0.064 0.064,0.32 0.064,0.64 0,1.792 -0.8959,2.816 -2.6239,3.072 -0.064,0.064 -0.32,0.064 -0.64,0.064 -1.7921,0 -2.816,-0.896 -3.072,-2.624 -0.064,-0.576 -0.192,-1.216 -0.384,-1.984 -1.6,-9.408 -2.688,-17.088 -3.2001,-23.04 -0.3199,-3.904 -0.5119,-7.104 -0.5119,-9.6 0,-2.496 0.3199,-4.16 0.8959,-4.864 0.4481,-0.576 1.0881,-0.896 1.8561,-0.96 z"
           id="path21664" /><path
           d="m 2406.4852,5123.7512 c -0.32,4.992 -0.512,10.176 -0.512,15.616 0,6.336 0.192,13.76 0.576,22.144 v 0.192 c 0,1.6 -1.28,3.136 -3.008,3.2 h -0.192 c -1.6,0 -3.136,-1.28 -3.2,-3.008 -0.448,-7.36 -0.64,-14.72 -0.64,-22.08 0,-6.272 0.192,-11.776 0.576,-16.576 0.192,-1.984 1.216,-2.944 3.136,-2.944 h 0.32 c 1.984,0.192 2.944,1.216 2.944,3.136 z"
           id="path21666" /><path
           d="m 2420.3732,5162.0232 c 0,1.984 -0.896,3.008 -2.752,3.2 -0.064,0.064 -0.256,0.064 -0.448,0.064 -1.856,0 -2.944,-0.896 -3.2,-2.752 -0.32,-2.816 -0.448,-5.44 -0.448,-7.872 -0.064,-0.192 -0.064,-0.384 -0.064,-0.704 0,-0.32 0,-0.64 0.064,-1.024 v -6.08 c 0,-7.04 0,-10.816 -0.064,-11.264 0,-0.512 -0.064,-1.664 -0.256,-3.52 l -0.064,-2.496 -0.128,-3.584 v -1.408 l 0.128,-1.088 c 0.256,-1.344 1.92,-2.752 3.712,-2.752 1.6,0 3.264,0.896 4.864,2.624 0.448,0.448 0.96,1.088 1.664,1.92 l 0.64,0.896 c 5.184,6.592 10.752,14.4 16.832,23.296 l 2.24,3.52 v -2.56 c 0.384,-9.28 0.576,-16.768 0.576,-22.4 0,-3.136 0,-5.056 -0.064,-5.76 v -0.192 c 0,-1.6 1.28,-3.072 3.072,-3.136 h 0.192 c 1.6,0 3.072,1.28 3.136,3.072 l 0.128,6.4 c 0,6.592 -0.192,14.016 -0.64,22.272 v 3.264 c 0,1.216 0,1.984 -0.064,2.304 -0.32,5.056 -1.984,7.552 -4.992,7.552 h -0.128 c -0.64,0 -1.216,-0.192 -1.728,-0.576 l -0.64,-0.512 -6.464,-9.664 c -5.056,-7.616 -10.304,-14.976 -15.872,-22.144 l 0.256,4.416 c 0.064,0.384 0.064,1.536 0.064,3.456 0,1.92 0,4.608 -0.064,8.064 v 6.144 c 0,0.896 0,1.408 0.064,1.6 0,2.752 0.128,5.056 0.448,7.04 z"
           id="path21668" /><path
           d="m 2452.2452,5162.7272 c 0.704,-8.832 4.544,-20.16 11.52,-34.048 1.728,-3.392 3.264,-6.016 4.48,-7.744 1.216,-1.664 2.432,-2.496 3.712,-2.496 0.32,0 0.576,0 0.64,0.064 0.96,0.192 1.6,0.512 1.92,1.088 l 0.256,0.256 c 0.128,0.192 0.256,0.448 0.384,0.768 0.192,0.32 0.448,0.832 0.704,1.408 0.256,0.448 0.704,1.664 1.408,3.648 l 2.112,5.76 c 0.576,1.472 1.536,4.416 3.008,8.768 l 3.584,11.264 2.688,8.832 0.128,0.96 c 0,1.6 -0.768,2.624 -2.24,3.072 l -0.96,0.128 c -1.6,0 -2.624,-0.768 -3.072,-2.24 l -3.584,-11.712 c -2.24,0.512 -4.928,1.216 -8.064,2.048 -6.464,1.856 -10.112,2.816 -10.944,3.008 -0.704,2.624 -1.088,5.184 -1.28,7.68 -0.192,1.984 -1.216,2.944 -3.2,2.944 -0.128,0 -0.192,0 -0.256,-0.064 -1.984,-0.064 -2.944,-1.152 -2.944,-3.2 z m 19.136,-34.624 c -0.832,1.408 -1.408,2.56 -1.856,3.52 -3.392,6.848 -5.888,12.416 -7.36,16.768 0.704,-0.192 3.072,-0.832 6.976,-1.984 3.904,-1.088 6.528,-1.728 7.872,-2.048 -1.216,-3.776 -2.432,-7.36 -3.648,-10.624 z"
           id="path21670" /><path
           d="m 2492.5652,5146.8552 c 0,-8.768 0.768,-17.024 2.24,-24.768 0.32,-1.728 1.344,-2.56 3.072,-2.56 0.32,0 0.576,0 0.704,0.064 1.728,0.32 2.56,1.344 2.56,3.072 0,0.384 0,0.64 -0.064,0.704 -1.344,7.488 -2.048,16.256 -2.048,26.432 l 0.128,8.704 c 5.44,0 11.456,-0.448 18.048,-1.408 l 9.792,-1.344 c 0.064,-0.064 0.256,-0.064 0.512,-0.064 1.856,0 2.88,0.896 3.136,2.688 v 0.448 c 0,1.984 -0.896,3.008 -2.752,3.2 -8.704,1.344 -15.552,2.176 -20.48,2.496 -3.904,0.192 -6.912,0.32 -8.896,0.32 h -2.304 c -1.472,-0.064 -2.432,-0.768 -2.944,-2.24 -0.256,-0.512 -0.384,-1.024 -0.448,-1.536 -0.192,-6.72 -0.256,-11.072 -0.256,-12.928 z"
           id="path21672" /><path
           d="m 2536.7253,5146.8552 c 0,-8.768 0.768,-17.024 2.24,-24.768 0.32,-1.728 1.344,-2.56 3.072,-2.56 0.32,0 0.576,0 0.704,0.064 1.728,0.32 2.56,1.344 2.56,3.072 0,0.384 0,0.64 -0.064,0.704 -1.344,7.488 -2.048,16.256 -2.048,26.432 l 0.128,8.704 c 5.44,0 11.456,-0.448 18.048,-1.408 l 9.792,-1.344 c 0.064,-0.064 0.256,-0.064 0.512,-0.064 1.856,0 2.88,0.896 3.136,2.688 v 0.448 c 0,1.984 -0.896,3.008 -2.752,3.2 -8.704,1.344 -15.552,2.176 -20.48,2.496 -3.904,0.192 -6.912,0.32 -8.896,0.32 h -2.304 c -1.472,-0.064 -2.432,-0.768 -2.944,-2.24 -0.256,-0.512 -0.384,-1.024 -0.448,-1.536 -0.192,-6.72 -0.256,-11.072 -0.256,-12.928 z"
           id="path21674" /><path
           d="m 2606.8053,5128.7432 c 2.24,-3.456 4.416,-6.464 6.528,-9.024 0.576,-0.704 1.28,-1.088 2.176,-1.152 h 0.32 c 1.92,0 2.944,0.96 3.136,2.88 v 0.384 c 0,0.704 -0.256,1.408 -0.768,1.984 -2.304,2.752 -5.184,7.04 -8.704,12.736 l -3.776,6.208 -10.048,15.616 -4.416,7.232 c -0.448,0.768 -1.088,1.28 -1.92,1.472 l -0.896,0.128 c -1.6,0 -2.56,-0.768 -3.008,-2.368 l -0.128,-0.832 c 0,-0.64 0.128,-1.152 0.448,-1.6 2.56,-4.288 6.464,-10.496 11.648,-18.56 -2.304,-2.752 -4.864,-5.888 -7.68,-9.472 -3.776,-4.8 -6.592,-8.256 -8.384,-10.368 -0.512,-0.64 -0.768,-1.344 -0.768,-2.176 v -0.192 c 0.064,-1.728 1.664,-2.944 3.264,-2.944 h 0.192 c 0.832,0.064 1.6,0.384 2.176,1.088 1.92,2.112 4.8,5.696 8.576,10.624 2.624,3.392 4.672,5.952 6.272,7.808 z"
           id="path21676" /><path
           d="m 2618.8373,5155.7512 c 1.792,0.32 2.688,1.344 2.688,3.072 0,0.32 0,0.512 -0.064,0.576 -0.128,1.28 -0.832,4.672 -2.176,10.24 -0.448,1.664 -1.472,2.496 -3.072,2.496 l -0.768,-0.128 c -1.664,-0.32 -2.496,-1.344 -2.496,-3.072 0,-0.32 0,-0.576 0.064,-0.704 1.28,-5.312 1.984,-8.576 2.176,-9.728 0.256,-1.856 1.28,-2.752 3.072,-2.752 z"
           id="path21678" /><path
           d="m 2648.8533,5130.2792 4.16,22.656 1.408,-4.352 2.624,-8.896 3.776,-13.76 0.768,-2.24 c 0,-0.192 0.064,-0.32 0.128,-0.384 l 0.128,-0.32 c 0.704,-1.088 1.664,-1.664 2.816,-1.664 0.832,0 1.536,0.256 2.112,0.704 0.256,0.256 0.448,0.448 0.512,0.64 l 0.512,0.832 0.384,1.024 1.856,6.208 3.264,10.176 c 1.856,5.888 3.072,9.856 3.584,11.968 l 4.928,-15.936 c 1.536,-4.928 2.752,-9.536 3.584,-13.824 0.32,-1.728 1.344,-2.56 3.072,-2.56 0.32,0 0.576,0 0.704,0.064 1.728,0.32 2.56,1.344 2.56,3.072 0,0.384 0,0.64 -0.064,0.704 -0.832,4.352 -2.112,9.152 -3.712,14.4 l -4.736,15.04 -0.64,2.304 c -0.576,2.24 -1.28,4.288 -2.112,6.144 -1.088,2.048 -2.432,3.136 -3.968,3.264 h -0.128 c -1.856,0 -2.816,-0.704 -4.096,-4.8 -0.832,-3.392 -1.792,-7.04 -2.88,-11.008 l -2.496,-7.872 -2.112,-6.336 c -2.624,9.536 -4.736,16.576 -6.336,21.184 -0.768,2.176 -1.28,3.392 -1.472,3.712 -1.344,2.752 -3.072,4.16 -5.184,4.16 -1.28,0 -2.24,-0.448 -2.88,-1.28 -0.256,-0.256 -0.448,-0.576 -0.512,-0.896 l -0.128,-0.448 c -0.064,-0.064 -0.064,-0.192 -0.064,-0.384 l -0.96,-4.608 -3.456,-19.008 c -0.576,-3.776 -1.472,-8.128 -2.624,-13.12 -0.064,-0.064 -0.064,-0.32 -0.064,-0.64 0,-1.728 0.832,-2.752 2.496,-3.2 0.128,-0.064 0.384,-0.064 0.704,-0.064 1.664,0 2.688,0.832 3.136,2.496 z"
           id="path21680" /><path
           d="m 2727.5093,5156.7112 h 0.384 c 1.984,0 3.072,0.896 3.264,2.752 v 0.448 c 0,1.856 -0.896,2.944 -2.752,3.2 l -2.88,0.384 -10.816,1.728 -8.192,1.152 c -1.216,0.192 -2.24,0.32 -3.008,0.384 -0.192,0.064 -0.64,0.064 -1.216,0.064 -0.256,0 -0.704,-0.064 -1.28,-0.128 -2.368,-0.576 -4.032,-1.664 -5.12,-3.328 -0.32,-0.448 -0.448,-0.832 -0.448,-1.088 v -33.024 c 0,-0.832 0,-1.28 0.064,-1.472 0.576,-4.544 3.2,-5.952 9.024,-6.528 8.256,-1.088 15.424,-1.6 21.568,-1.6 1.792,0 3.2,1.408 3.2,3.2 0,1.792 -1.408,3.2 -3.2,3.2 -5.184,0 -12.16,0.512 -20.8,1.536 -1.216,0.128 -2.048,0.256 -2.624,0.384 -0.512,0.064 -0.768,0.256 -0.768,0.64 v 3.328 c 0,4.416 0,7.68 -0.064,9.728 l 23.04,-3.776 c 0.064,-0.064 0.32,-0.064 0.64,-0.064 1.728,0 2.752,0.896 3.072,2.624 v 0.64 c 0,1.792 -0.896,2.816 -2.688,3.072 -7.36,1.216 -15.424,2.56 -24.128,3.968 v 12.096 l 0.448,0.128 h 0.768 l 2.688,-0.32 c 1.984,-0.256 4.672,-0.64 8.064,-1.152 z"
           id="path21682" /><path
           d="m 2785.5573,5147.7512 -0.448,-0.128 c -0.448,-0.128 -1.024,-0.192 -1.792,-0.192 -1.088,0 -2.048,0.064 -2.88,0.256 -1.088,0.192 -3.264,0.96 -6.656,2.304 -0.384,0.128 -0.768,0.192 -1.152,0.192 -0.512,0 -0.96,-0.064 -1.28,-0.256 -0.832,-0.32 -1.344,-0.96 -1.664,-1.792 -0.192,-0.32 -0.256,-0.704 -0.256,-1.152 0,-0.512 0.064,-0.96 0.256,-1.28 0.32,-0.832 0.96,-1.408 1.792,-1.728 3.584,-1.472 6.208,-2.304 7.936,-2.56 1.472,-0.256 2.88,-0.384 4.096,-0.384 1.216,0 2.304,0.128 3.264,0.384 2.496,0.704 4.096,2.048 4.8,4.16 0.256,0.704 0.384,1.472 0.384,2.304 0,2.752 -1.216,5.568 -3.712,8.576 -4.8,5.888 -11.008,8.896 -18.496,8.96 h -0.448 c -9.984,0 -16.96,-6.144 -17.472,-15.616 v -0.832 c 0,-3.008 0.832,-6.144 2.496,-9.344 0.704,-1.408 1.6,-2.88 2.816,-4.416 4.16,-5.44 9.408,-9.472 15.744,-12.032 2.752,-1.024 5.376,-1.792 7.872,-2.24 1.6,-0.192 2.816,-0.32 3.584,-0.32 0.768,0 1.28,0 1.472,0.064 2.368,0.192 4.096,1.152 5.056,2.752 0.448,0.704 0.64,1.472 0.64,2.368 0,0.448 -0.128,1.088 -0.32,1.92 l -0.128,0.704 -0.192,0.32 c -0.064,0.064 -0.064,0.128 -0.064,0.192 l -0.512,4.096 c -0.256,1.856 -1.344,2.816 -3.2,2.816 -0.192,0 -0.32,0 -0.384,-0.064 -1.856,-0.192 -2.816,-1.28 -2.816,-3.2 l 0.512,-4.352 c 0.064,-0.384 0.128,-0.768 0.32,-1.216 h -0.384 c -0.96,0 -1.792,0.064 -2.496,0.256 -4.8,0.832 -9.28,2.752 -13.568,5.824 -6.72,5.12 -10.048,10.432 -10.048,15.872 0,7.232 5.12,10.048 11.008,10.048 h 0.32 c 5.824,-0.192 10.112,-2.112 12.992,-5.76 1.984,-2.368 3.008,-4.16 3.008,-5.376 z"
           id="path21684" /><path
           d="m 2827.7973,5156.7112 h 0.384 c 1.984,0 3.072,0.896 3.264,2.752 v 0.448 c 0,1.856 -0.896,2.944 -2.752,3.2 l -2.88,0.384 -10.816,1.728 -8.192,1.152 c -1.216,0.192 -2.24,0.32 -3.008,0.384 -0.192,0.064 -0.64,0.064 -1.216,0.064 -0.256,0 -0.704,-0.064 -1.28,-0.128 -2.368,-0.576 -4.032,-1.664 -5.12,-3.328 -0.32,-0.448 -0.448,-0.832 -0.448,-1.088 v -33.024 c 0,-0.832 0,-1.28 0.064,-1.472 0.576,-4.544 3.2,-5.952 9.024,-6.528 8.256,-1.088 15.424,-1.6 21.568,-1.6 1.792,0 3.2,1.408 3.2,3.2 0,1.792 -1.408,3.2 -3.2,3.2 -5.184,0 -12.16,0.512 -20.8,1.536 -1.216,0.128 -2.048,0.256 -2.624,0.384 -0.512,0.064 -0.768,0.256 -0.768,0.64 v 3.328 c 0,4.416 0,7.68 -0.064,9.728 l 23.04,-3.776 c 0.064,-0.064 0.32,-0.064 0.64,-0.064 1.728,0 2.752,0.896 3.072,2.624 v 0.64 c 0,1.792 -0.896,2.816 -2.688,3.072 -7.36,1.216 -15.424,2.56 -24.128,3.968 v 12.096 l 0.448,0.128 h 0.768 l 2.688,-0.32 c 1.984,-0.256 4.672,-0.64 8.064,-1.152 z"
           id="path21686" /><path
           d="m 2858.5813,5162.1512 c 0,1.984 -0.896,3.008 -2.752,3.2 -0.064,0.064 -0.256,0.064 -0.448,0.064 -1.856,0 -2.944,-0.896 -3.2,-2.752 -0.704,-5.184 -1.152,-10.752 -1.344,-16.704 -0.128,-2.368 -0.192,-4.736 -0.192,-7.104 0,-2.624 0.128,-5.952 0.32,-9.984 -6.016,0.576 -10.944,1.152 -14.72,1.792 -0.064,0.064 -0.32,0.064 -0.64,0.064 -1.728,0 -2.752,-0.896 -3.072,-2.624 -0.064,-0.064 -0.064,-0.32 -0.064,-0.64 0,-1.728 0.896,-2.752 2.624,-3.072 3.968,-0.704 10.304,-1.472 18.944,-2.176 7.872,-0.704 13.952,-1.472 18.176,-2.368 0.128,-0.064 0.384,-0.064 0.704,-0.064 1.664,0 2.688,0.832 3.136,2.496 0.064,0.128 0.064,0.384 0.064,0.768 0,1.6 -0.832,2.624 -2.496,3.072 -3.904,0.896 -9.344,1.664 -16.192,2.24 -0.256,3.392 -0.384,6.912 -0.384,10.56 l 0.128,6.208 c 0.192,5.76 0.704,11.328 1.408,16.64 z"
           id="path21688" /><path
           d="m 2922.1973,5162.1512 c 0,1.984 -0.896,3.008 -2.752,3.2 -0.064,0.064 -0.256,0.064 -0.448,0.064 -1.856,0 -2.944,-0.896 -3.2,-2.752 -0.704,-5.184 -1.152,-10.752 -1.344,-16.704 -0.128,-2.368 -0.192,-4.736 -0.192,-7.104 0,-2.624 0.128,-5.952 0.32,-9.984 -6.016,0.576 -10.944,1.152 -14.72,1.792 -0.064,0.064 -0.32,0.064 -0.64,0.064 -1.728,0 -2.752,-0.896 -3.072,-2.624 -0.064,-0.064 -0.064,-0.32 -0.064,-0.64 0,-1.728 0.896,-2.752 2.624,-3.072 3.968,-0.704 10.304,-1.472 18.944,-2.176 7.872,-0.704 13.952,-1.472 18.176,-2.368 0.128,-0.064 0.384,-0.064 0.704,-0.064 1.664,0 2.688,0.832 3.136,2.496 0.064,0.128 0.064,0.384 0.064,0.768 0,1.6 -0.832,2.624 -2.496,3.072 -3.904,0.896 -9.344,1.664 -16.192,2.24 -0.256,3.392 -0.384,6.912 -0.384,10.56 l 0.128,6.208 c 0.192,5.76 0.704,11.328 1.408,16.64 z"
           id="path21690" /><path
           d="m 2964.0533,5121.3192 c 0.32,0.128 0.512,0.192 0.576,0.256 0.704,0.256 1.216,0.704 1.536,1.344 0.32,0.32 0.64,0.64 0.896,1.088 1.6,3.072 2.56,6.592 2.944,10.624 l 0.128,3.328 c 0,7.296 -1.856,13.504 -5.568,18.56 -2.624,3.776 -6.336,6.4 -11.264,7.872 -1.792,0.512 -3.392,0.768 -4.8,0.832 h -0.32 c -7.168,0 -12.096,-5.056 -13.184,-11.456 -0.32,-1.216 -0.448,-2.752 -0.448,-4.544 0,-1.408 0.192,-3.072 0.512,-4.992 2.368,-11.328 10.112,-21.376 18.368,-24 1.344,-0.384 2.752,-0.576 4.16,-0.576 1.856,0 3.648,0.384 5.376,1.152 z m -2.56,5.824 c -0.576,-0.192 -0.896,-0.384 -0.96,-0.448 -0.896,-0.448 -1.856,-0.64 -2.816,-0.64 -4.672,0 -9.984,4.288 -13.76,11.968 -1.856,3.904 -2.88,7.616 -2.944,11.2 -0.064,0.064 -0.064,0.256 -0.064,0.448 0,6.08 2.432,9.152 7.232,9.152 2.56,0 5.184,-0.96 7.808,-2.816 1.536,-0.96 2.688,-2.048 3.456,-3.2 2.432,-3.392 3.84,-7.552 4.224,-12.48 0.064,-0.384 0.064,-1.216 0.064,-2.432 0,-3.84 -0.768,-7.424 -2.24,-10.752 z"
           id="path21692" /><path
           d="m 3018.1333,5162.1512 c 0,1.984 -0.896,3.008 -2.752,3.2 -0.064,0.064 -0.256,0.064 -0.448,0.064 -1.856,0 -2.944,-0.896 -3.2,-2.752 -0.704,-5.184 -1.152,-10.752 -1.344,-16.704 -0.128,-2.368 -0.192,-4.736 -0.192,-7.104 0,-2.624 0.128,-5.952 0.32,-9.984 -6.016,0.576 -10.944,1.152 -14.72,1.792 -0.064,0.064 -0.32,0.064 -0.64,0.064 -1.728,0 -2.752,-0.896 -3.072,-2.624 -0.064,-0.064 -0.064,-0.32 -0.064,-0.64 0,-1.728 0.896,-2.752 2.624,-3.072 3.968,-0.704 10.304,-1.472 18.944,-2.176 7.872,-0.704 13.952,-1.472 18.176,-2.368 0.128,-0.064 0.384,-0.064 0.704,-0.064 1.664,0 2.688,0.832 3.136,2.496 0.064,0.128 0.064,0.384 0.064,0.768 0,1.6 -0.832,2.624 -2.496,3.072 -3.904,0.896 -9.344,1.664 -16.192,2.24 -0.256,3.392 -0.384,6.912 -0.384,10.56 l 0.128,6.208 c 0.192,5.76 0.704,11.328 1.408,16.64 z"
           id="path21694" /><path
           d="m 3067.7333,5134.3752 c 0.192,11.328 0.704,20.288 1.536,26.816 v 0.32 c 0,1.984 -0.896,3.008 -2.752,3.2 -0.064,0.064 -0.256,0.064 -0.448,0.064 -1.856,0 -2.944,-0.96 -3.2,-2.816 -0.576,-5.312 -1.024,-10.88 -1.28,-16.64 -1.856,0.192 -4.544,0.64 -7.936,1.344 -3.264,0.64 -5.888,1.152 -7.936,1.472 l 1.152,14.208 c 0,1.6 -1.216,3.136 -2.944,3.2 -0.064,0.064 -0.128,0.064 -0.32,0.064 -1.536,0 -2.944,-1.344 -3.136,-2.944 l -0.704,-8.96 c -0.704,-7.936 -1.024,-14.656 -1.024,-20.16 0,-3.392 0.192,-6.656 0.512,-9.856 0.256,-1.856 1.344,-2.816 3.2,-2.816 h 0.448 c 1.856,0.256 2.752,1.344 2.752,3.264 v 0.32 c -0.384,2.752 -0.576,5.952 -0.576,9.664 0,2.88 0.064,5.44 0.256,7.616 1.408,-0.192 3.776,-0.64 7.04,-1.344 3.648,-0.768 6.656,-1.28 9.024,-1.472 l -0.32,-16.256 c 0,-1.6 1.344,-3.072 3.136,-3.136 h 0.128 c 1.6,0 3.072,1.344 3.136,3.072 z"
           id="path21696" /><path
           d="m 3107.2213,5156.7112 h 0.384 c 1.984,0 3.072,0.896 3.264,2.752 v 0.448 c 0,1.856 -0.896,2.944 -2.752,3.2 l -2.88,0.384 -10.816,1.728 -8.192,1.152 c -1.216,0.192 -2.24,0.32 -3.008,0.384 -0.192,0.064 -0.64,0.064 -1.216,0.064 -0.256,0 -0.704,-0.064 -1.28,-0.128 -2.368,-0.576 -4.032,-1.664 -5.12,-3.328 -0.32,-0.448 -0.448,-0.832 -0.448,-1.088 v -33.024 c 0,-0.832 0,-1.28 0.064,-1.472 0.576,-4.544 3.2,-5.952 9.024,-6.528 8.256,-1.088 15.424,-1.6 21.568,-1.6 1.792,0 3.2,1.408 3.2,3.2 0,1.792 -1.408,3.2 -3.2,3.2 -5.184,0 -12.16,0.512 -20.8,1.536 -1.216,0.128 -2.048,0.256 -2.624,0.384 -0.512,0.064 -0.768,0.256 -0.768,0.64 v 3.328 c 0,4.416 0,7.68 -0.064,9.728 l 23.04,-3.776 c 0.064,-0.064 0.32,-0.064 0.64,-0.064 1.728,0 2.752,0.896 3.072,2.624 v 0.64 c 0,1.792 -0.896,2.816 -2.688,3.072 -7.36,1.216 -15.424,2.56 -24.128,3.968 v 12.096 l 0.448,0.128 h 0.768 l 2.688,-0.32 c 1.984,-0.256 4.672,-0.64 8.064,-1.152 z"
           id="path21698" /><path
           d="m 3145.2054,5144.0072 c 0.288,5.952 0.96,11.232 1.92,15.84 0.096,0.096 0.096,0.48 0.096,0.96 0,2.688 -1.248,4.224 -3.84,4.704 -0.096,0.096 -0.48,0.096 -0.96,0.096 -2.688,0 -4.224,-1.248 -4.704,-3.84 -1.632,-8.16 -2.4,-18.336 -2.4,-30.528 v -13.44 l -0.192,-11.616 c 0,-2.88 1.44,-4.416 4.32,-4.704 7.008,-2.4 14.304,-3.552 21.888,-3.552 h 2.784 c 10.56,0.48 17.76,3.552 21.504,9.216 2.112,3.264 3.168,6.816 3.168,10.752 0,14.688 -12,23.712 -26.592,25.344 -3.936,0.384 -6.72,0.576 -8.448,0.672 -0.576,0.096 -2.112,0.096 -4.704,0.096 z m -0.384,-16.416 c 0,3.936 0,6.144 0.096,6.816 12.384,0 22.272,-0.192 28.896,-5.568 3.552,-2.784 5.376,-6.432 5.376,-10.944 0,-4.416 -2.016,-7.296 -6.144,-8.736 -3.744,-1.056 -7.68,-1.632 -11.712,-1.632 h -1.92 c -4.992,0.192 -9.888,0.96 -14.592,2.304 0.096,0.48 0.096,1.344 0.096,2.592 0,1.152 0,2.688 -0.096,4.512 z"
           style="font-size:96px"
           id="path21700" /><path
           d="m 3231.0294,5142.9512 c 10.752,5.568 18.432,9.312 22.944,11.328 1.248,0.48 2.112,1.44 2.592,2.688 0.192,0.576 0.288,1.152 0.288,1.728 0,0.768 -0.096,1.44 -0.384,1.92 -0.48,1.248 -1.344,2.016 -2.592,2.496 -0.48,0.288 -1.152,0.384 -1.824,0.384 -0.768,0 -1.44,-0.096 -1.92,-0.384 -4.32,-2.016 -12.096,-5.856 -23.52,-11.616 -8.16,-4.128 -14.88,-7.104 -19.968,-9.12 0.096,7.2 0.672,13.152 1.632,18.048 0.096,0.096 0.096,0.48 0.096,0.96 0,2.592 -1.248,4.128 -3.84,4.608 -0.192,0.096 -0.576,0.096 -1.056,0.096 -2.592,0 -4.128,-1.344 -4.608,-3.936 -1.344,-6.72 -2.016,-16.512 -2.016,-29.376 0,-7.392 0,-11.52 -0.096,-12.48 l -0.192,-3.168 c -0.288,-2.88 -0.384,-6.144 -0.384,-9.792 0.096,-2.592 0.576,-4.416 1.44,-5.472 1.824,-2.4 6.24,-3.936 13.344,-4.416 l 5.184,-0.192 c 13.92,0 23.808,2.88 29.664,8.736 2.4,2.4 3.84,5.088 4.32,8.16 0.096,0.288 0.096,0.96 0.096,1.92 0,2.784 -0.672,5.568 -2.112,8.352 -2.592,5.28 -7.488,9.312 -14.688,12.288 -3.264,1.248 -6.432,2.208 -9.408,2.784 z m -25.248,-35.136 c 0,2.976 0.096,5.952 0.384,8.928 l 0.384,7.968 v 6.144 c 0.672,0.096 2.208,0.096 4.608,0.096 14.496,0 25.248,-4.416 28.32,-10.944 0.672,-1.632 1.056,-2.88 1.056,-3.744 0,-1.344 -0.48,-2.496 -1.44,-3.456 -4.128,-3.936 -12,-5.952 -23.52,-5.952 -3.936,0 -7.104,0.288 -9.504,0.864 z"
           style="font-size:96px"
           id="path21702" /><path
           d="m 3304.0855,5099.3672 c 0.48,0.192 0.768,0.288 0.864,0.384 1.056,0.384 1.824,1.056 2.304,2.016 0.48,0.48 0.96,0.96 1.344,1.632 2.4,4.608 3.84,9.888 4.416,15.936 l 0.192,4.992 c 0,10.944 -2.784,20.256 -8.352,27.84 -3.936,5.664 -9.504,9.6 -16.896,11.808 -2.688,0.768 -5.088,1.152 -7.2,1.248 h -0.48 c -10.752,0 -18.144,-7.584 -19.776,-17.184 -0.48,-1.824 -0.672,-4.128 -0.672,-6.816 0,-2.112 0.288,-4.608 0.768,-7.488 3.552,-16.992 15.168,-32.064 27.552,-36 2.016,-0.576 4.128,-0.864 6.24,-0.864 2.784,0 5.472,0.576 8.064,1.728 z m -3.84,8.736 c -0.864,-0.288 -1.344,-0.576 -1.44,-0.672 -1.344,-0.672 -2.784,-0.96 -4.224,-0.96 -7.008,0 -14.976,6.432 -20.64,17.952 -2.784,5.856 -4.32,11.424 -4.416,16.8 -0.096,0.096 -0.096,0.384 -0.096,0.672 0,9.12 3.648,13.728 10.848,13.728 3.84,0 7.776,-1.44 11.712,-4.224 2.304,-1.44 4.032,-3.072 5.184,-4.8 3.648,-5.088 5.76,-11.328 6.336,-18.72 0.096,-0.576 0.096,-1.824 0.096,-3.648 0,-5.76 -1.152,-11.136 -3.36,-16.128 z"
           style="font-size:96px"
           id="path21704" /><path
           d="m 3368.3096,5110.1192 c 0,2.4 -0.864,4.896 -2.592,7.488 -0.864,1.152 -1.632,2.112 -2.4,2.88 8.352,0.672 13.248,4.512 14.496,11.616 0.192,1.056 0.288,2.016 0.288,3.072 0,16.992 -27.264,28.704 -46.08,31.104 -0.672,0.672 -1.536,1.152 -2.592,1.248 -0.096,0.096 -0.384,0.096 -0.864,0.096 -2.592,0 -4.128,-1.344 -4.512,-4.128 -1.536,-9.408 -2.4,-24.48 -2.592,-45.12 v -6.048 c 0.096,-2.208 0.384,-3.936 0.96,-4.992 3.072,-5.76 14.496,-9.216 26.4,-9.216 h 1.344 c 6.432,0.192 11.136,1.536 14.304,4.032 2.4,2.016 3.744,4.416 3.84,7.2 z m -19.776,-2.4 c -4.32,0 -8.16,0.48 -11.712,1.536 -2.4,0.672 -4.224,1.536 -5.664,2.496 0,0.48 0,0.768 -0.096,0.96 v 5.568 l 0.192,8.16 2.976,-1.344 c 8.448,-3.456 14.496,-6.336 18.24,-8.544 2.688,-1.632 4.416,-2.976 5.184,-4.128 0.672,-1.056 1.056,-1.92 1.056,-2.496 l -0.192,-0.288 c -1.344,-1.152 -4.224,-1.824 -8.64,-1.92 z m -10.272,26.88 -2.88,1.344 c -1.056,0.48 -2.016,0.768 -2.688,0.864 -0.096,0.096 -0.48,0.096 -0.96,0.096 0.576,9.696 0.96,16.224 1.248,19.584 7.776,-1.44 15.264,-4.032 22.272,-7.584 4.896,-2.592 8.352,-5.184 10.464,-7.68 1.824,-2.208 2.784,-4.32 2.784,-6.336 0,-0.576 0,-0.96 -0.096,-1.152 -0.48,-2.4 -2.88,-3.648 -7.392,-3.84 h -1.44 c -4.128,0 -8.448,0.672 -12.96,2.112 z"
           style="font-size:96px"
           id="path21706" /><path
           d="m 3383.7656,5137.6712 c 0,-13.152 1.152,-25.536 3.36,-37.152 0.48,-2.592 2.016,-3.84 4.608,-3.84 0.48,0 0.864,0 1.056,0.096 2.592,0.48 3.84,2.016 3.84,4.608 0,0.576 0,0.96 -0.096,1.056 -2.016,11.232 -3.072,24.384 -3.072,39.648 l 0.192,13.056 c 8.16,0 17.184,-0.672 27.072,-2.112 l 14.688,-2.016 c 0.096,-0.096 0.384,-0.096 0.768,-0.096 2.784,0 4.32,1.344 4.704,4.032 v 0.672 c 0,2.976 -1.344,4.512 -4.128,4.8 -13.056,2.016 -23.328,3.264 -30.72,3.744 -5.856,0.288 -10.368,0.48 -13.344,0.48 h -3.456 c -2.208,-0.096 -3.648,-1.152 -4.416,-3.36 -0.384,-0.768 -0.576,-1.536 -0.672,-2.304 -0.288,-10.08 -0.384,-16.608 -0.384,-19.392 z"
           style="font-size:96px"
           id="path21708" /><path
           d="m 3498.2936,5152.4552 h 0.576 c 2.976,0 4.608,1.344 4.896,4.128 v 0.672 c 0,2.784 -1.344,4.416 -4.128,4.8 l -4.32,0.576 -16.224,2.592 -12.288,1.728 c -1.824,0.288 -3.36,0.48 -4.512,0.576 -0.288,0.096 -0.96,0.096 -1.824,0.096 -0.384,0 -1.056,-0.096 -1.92,-0.192 -3.552,-0.864 -6.048,-2.496 -7.68,-4.992 -0.48,-0.672 -0.672,-1.248 -0.672,-1.632 v -49.536 c 0,-1.248 0,-1.92 0.096,-2.208 0.864,-6.816 4.8,-8.928 13.536,-9.792 12.384,-1.632 23.136,-2.4 32.352,-2.4 2.688,0 4.8,2.112 4.8,4.8 0,2.688 -2.112,4.8 -4.8,4.8 -7.776,0 -18.24,0.768 -31.2,2.304 -1.824,0.192 -3.072,0.384 -3.936,0.576 -0.768,0.096 -1.152,0.384 -1.152,0.96 v 4.992 c 0,6.624 0,11.52 -0.096,14.592 l 34.56,-5.664 c 0.096,-0.096 0.48,-0.096 0.96,-0.096 2.592,0 4.128,1.344 4.608,3.936 v 0.96 c 0,2.688 -1.344,4.224 -4.032,4.608 -11.04,1.824 -23.136,3.84 -36.192,5.952 v 18.144 l 0.672,0.192 h 1.152 l 4.032,-0.48 c 2.976,-0.384 7.008,-0.96 12.096,-1.728 z"
           style="font-size:96px"
           id="path21710" /><path
           d="m 3524.3097,5124.2312 c -1.824,8.736 -4.224,20.736 -7.2,35.808 -0.48,2.592 -2.016,3.936 -4.608,3.936 -0.48,0 -0.864,0 -0.96,-0.096 -2.592,-0.48 -3.936,-2.016 -3.936,-4.608 0,-0.48 0,-0.864 0.096,-0.96 3.552,-18.144 5.952,-30.144 7.2,-36 l 3.072,-11.904 c 0.576,-2.016 1.152,-4.416 1.728,-7.008 l 0.48,-2.208 c 0,-0.288 0.096,-0.672 0.384,-1.248 l 0.384,-0.768 c 0.192,-0.288 0.48,-0.672 0.96,-1.152 0.864,-0.864 1.824,-1.248 3.072,-1.248 0.768,0 1.44,0.096 1.92,0.384 1.248,0.48 2.208,1.44 2.88,2.784 l 0.768,1.824 4.896,18.72 2.304,7.68 3.072,9.024 2.592,7.968 0.768,1.92 11.52,-36.48 3.84,-11.52 c 0,-0.288 0.096,-0.384 0.192,-0.384 0.096,-0.384 0.384,-0.768 0.672,-1.056 0.672,-0.864 1.632,-1.44 2.688,-1.632 0.192,-0.096 0.576,-0.096 1.152,-0.096 2.592,0 4.608,1.536 6.144,4.704 1.248,2.4 2.784,7.488 4.608,15.072 l 5.376,22.656 c 1.824,7.968 3.84,15.264 5.856,22.08 l 0.192,1.344 c 0,2.4 -1.152,3.936 -3.36,4.608 l -1.44,0.192 c -2.4,0 -3.936,-1.152 -4.608,-3.456 -1.056,-3.168 -2.112,-6.912 -3.168,-11.424 l -2.688,-10.752 -6.432,-26.88 -12.096,38.112 c -0.096,0.096 -0.192,0.384 -0.288,0.864 l -0.576,2.112 c -1.536,5.088 -2.688,9.888 -6.528,10.56 -0.096,0.096 -0.48,0.096 -0.96,0.096 -0.96,0 -1.824,-0.288 -2.688,-0.96 l -0.864,-0.864 -0.672,-1.056 -2.784,-6.816 -2.88,-7.872 c -4.32,-12.672 -7.296,-22.08 -9.12,-28.32 z"
           style="font-size:96px"
           id="path21712" /><path
           d="m 3600.2458,5110.4072 c 1.248,1.44 1.824,2.976 1.824,4.608 0,3.744 -2.88,6.528 -6.432,6.528 -3.552,0 -6.432,-2.784 -6.432,-6.528 0,-3.552 2.88,-6.432 6.432,-6.432 1.632,0 3.168,0.576 4.608,1.824 z m -1.632,29.472 c 1.248,1.44 1.824,3.072 1.824,4.704 0,3.552 -2.784,6.432 -6.528,6.432 -3.552,0 -6.432,-2.88 -6.432,-6.432 0,-3.744 2.88,-6.528 6.432,-6.528 1.632,0 3.264,0.576 4.704,1.824 z"
           style="font-size:96px"
           id="path21714" /></g><g
         aria-label="permit prices"
         transform="matrix(1.3286265,0,0,1.3286265,-5737.4902,953.0717)"
         id="text10167-0-2-6-6"
         style="font-size:64.2267px;font-family:'Canted Comic';-inkscape-font-specification:'Canted Comic, Normal';white-space:pre;shape-inside:url(#rect10169-1-4-9-0);display:inline;stroke-width:3.01063;stroke-linecap:round;stroke-linejoin:round"><path
           d="m 2368.6918,5125.934 c 0.2167,4.4798 0.7225,8.4538 1.4451,11.922 0.072,0.072 0.072,0.3613 0.072,0.7226 0,2.0231 -0.9393,3.1792 -2.8902,3.5405 -0.072,0.072 -0.3613,0.072 -0.7225,0.072 -2.0232,0 -3.1793,-0.9393 -3.5405,-2.8902 -1.2284,-6.1416 -1.8064,-13.8007 -1.8064,-22.9771 v -10.1157 l -0.1445,-8.7429 c 0,-2.1676 1.0838,-3.3237 3.2515,-3.5405 5.2746,-1.8063 10.766,-2.6734 16.4741,-2.6734 h 2.0954 c 7.9481,0.3613 13.3672,2.6734 16.1852,6.9365 1.5896,2.4567 2.3844,5.1301 2.3844,8.0926 0,11.055 -9.0319,17.847 -20.0147,19.0753 -2.9624,0.289 -5.0578,0.4335 -6.3584,0.5058 -0.4336,0.072 -1.5896,0.072 -3.5405,0.072 z m -0.2891,-12.3557 c 0,2.9625 0,4.6244 0.072,5.1301 9.3209,0 16.7632,-0.1445 21.7488,-4.1908 2.6734,-2.0954 4.0463,-4.841 4.0463,-8.237 0,-3.3238 -1.5174,-5.4914 -4.6244,-6.5752 -2.8179,-0.7949 -5.7804,-1.2284 -8.8151,-1.2284 h -1.4451 c -3.7572,0.1445 -7.4423,0.7226 -10.9828,1.7341 0.072,0.3613 0.072,1.0116 0.072,1.9509 0,0.8671 0,2.0232 -0.072,3.396 z"
           style="font-size:72.2551px"
           id="path21717" /><path
           d="m 2442.0308,5132.2924 h 0.4335 c 2.2399,0 3.4682,1.0116 3.685,3.107 v 0.5058 c 0,2.0954 -1.0116,3.3237 -3.107,3.6127 l -3.2515,0.4335 -12.2111,1.9509 -9.2486,1.3006 c -1.3729,0.2168 -2.5289,0.3613 -3.396,0.4335 -0.2168,0.072 -0.7226,0.072 -1.3729,0.072 -0.289,0 -0.7948,-0.072 -1.4451,-0.1445 -2.6734,-0.6503 -4.552,-1.8786 -5.7804,-3.7573 -0.3612,-0.5058 -0.5057,-0.9393 -0.5057,-1.2283 v -37.2836 c 0,-0.9394 0,-1.4451 0.072,-1.6619 0.6503,-5.1301 3.6128,-6.7197 10.188,-7.37 9.3209,-1.2284 17.4135,-1.8064 24.3499,-1.8064 2.0232,0 3.6128,1.5896 3.6128,3.6128 0,2.0231 -1.5896,3.6127 -3.6128,3.6127 -5.8526,0 -13.7284,0.578 -23.4829,1.7341 -1.3728,0.1445 -2.3121,0.2891 -2.9624,0.4336 -0.5781,0.072 -0.8671,0.289 -0.8671,0.7225 v 3.7573 c 0,4.9856 0,8.6706 -0.072,10.9828 l 26.0118,-4.2631 c 0.072,-0.072 0.3613,-0.072 0.7225,-0.072 1.9509,0 3.107,1.0116 3.4683,2.9625 v 0.7226 c 0,2.0231 -1.0116,3.1792 -3.0347,3.4682 -8.3094,1.3728 -17.4135,2.8902 -27.2402,4.4798 v 13.6562 l 0.5058,0.1445 h 0.8671 l 3.0347,-0.3612 c 2.2399,-0.2891 5.2746,-0.7226 9.1041,-1.3006 z"
           style="font-size:72.2551px"
           id="path21719" /><path
           d="m 2478.0861,5125.1391 c 8.0926,4.1908 13.873,7.0088 17.269,8.5261 0.9393,0.3613 1.5896,1.0839 1.9509,2.0232 0.1445,0.4335 0.2167,0.867 0.2167,1.3006 0,0.578 -0.072,1.0838 -0.289,1.4451 -0.3613,0.9393 -1.0116,1.5173 -1.9509,1.8786 -0.3613,0.2168 -0.867,0.289 -1.3728,0.289 -0.5781,0 -1.0838,-0.072 -1.4451,-0.289 -3.2515,-1.5173 -9.1042,-4.4075 -17.7025,-8.7429 -6.1417,-3.1069 -11.1996,-5.3468 -15.0291,-6.8642 0.072,5.4191 0.5058,9.899 1.2284,13.584 0.072,0.072 0.072,0.3612 0.072,0.7225 0,1.9509 -0.9393,3.107 -2.8902,3.4683 -0.1445,0.072 -0.4335,0.072 -0.7948,0.072 -1.9509,0 -3.107,-1.0115 -3.4682,-2.9624 -1.0116,-5.0579 -1.5174,-12.4279 -1.5174,-22.1101 0,-5.5636 0,-8.6706 -0.072,-9.3932 l -0.1445,-2.3844 c -0.2167,-2.1676 -0.289,-4.6243 -0.289,-7.37 0.072,-1.9509 0.4335,-3.3237 1.0838,-4.1185 1.3729,-1.8064 4.6966,-2.9625 10.0435,-3.3238 l 3.9018,-0.1445 c 10.477,0 17.9192,2.1677 22.3268,6.5752 1.8064,1.8064 2.8902,3.8296 3.2515,6.1417 0.072,0.2168 0.072,0.7226 0.072,1.4451 0,2.0954 -0.5058,4.1908 -1.5896,6.2862 -1.9509,3.974 -5.6359,7.0088 -11.055,9.2487 -2.4567,0.9393 -4.8411,1.6618 -7.081,2.0954 z m -19.0031,-26.4453 c 0,2.2399 0.072,4.4798 0.289,6.7197 l 0.2891,5.9972 v 4.6243 c 0.5057,0.072 1.6618,0.072 3.4682,0.072 10.9105,0 19.0031,-3.3238 21.3153,-8.2371 0.5057,-1.2284 0.7948,-2.1677 0.7948,-2.818 0,-1.0115 -0.3613,-1.8786 -1.0839,-2.6012 -3.1069,-2.9624 -9.0318,-4.4798 -17.7025,-4.4798 -2.9624,0 -5.3468,0.2168 -7.1532,0.6503 z"
           style="font-size:72.2551px"
           id="path21721" /><path
           d="m 2512.9854,5111.0494 c -1.3729,6.5752 -3.1793,15.6071 -5.4192,26.9512 -0.3613,1.9508 -1.5173,2.9624 -3.4682,2.9624 -0.3613,0 -0.6503,0 -0.7226,-0.072 -1.9509,-0.3613 -2.9624,-1.5174 -2.9624,-3.4683 0,-0.3613 0,-0.6503 0.072,-0.7225 2.6735,-13.6563 4.4798,-22.6881 5.4192,-27.0957 l 2.3121,-8.9596 c 0.4335,-1.5174 0.8671,-3.3238 1.3006,-5.2747 l 0.3613,-1.6618 c 0,-0.2168 0.072,-0.5058 0.289,-0.9393 l 0.289,-0.5781 c 0.1445,-0.2167 0.3613,-0.5058 0.7226,-0.867 0.6503,-0.6503 1.3728,-0.9394 2.3121,-0.9394 0.5781,0 1.0839,0.072 1.4451,0.2891 0.9394,0.3612 1.6619,1.0838 2.1677,2.0954 l 0.578,1.3728 3.685,14.0898 1.7342,5.7804 2.3121,6.7919 1.9509,5.9972 0.5781,1.4451 8.6706,-27.4569 2.8902,-8.6706 c 0,-0.2168 0.072,-0.2891 0.1445,-0.2891 0.072,-0.289 0.289,-0.578 0.5058,-0.7948 0.5058,-0.6503 1.2283,-1.0838 2.0231,-1.2283 0.1445,-0.072 0.4335,-0.072 0.8671,-0.072 1.9509,0 3.4682,1.1561 4.6243,3.5405 0.9393,1.8064 2.0954,5.6359 3.4682,11.3441 l 4.0463,17.0522 c 1.3729,5.9972 2.8902,11.4886 4.4076,16.6187 l 0.1445,1.0115 c 0,1.8064 -0.8671,2.9625 -2.5289,3.4683 l -1.0839,0.1445 c -1.8063,0 -2.9624,-0.8671 -3.4682,-2.6012 -0.7948,-2.3844 -1.5896,-5.2024 -2.3844,-8.5983 l -2.0232,-8.0926 -4.841,-20.2314 -9.1042,28.6852 c -0.072,0.072 -0.1445,0.2891 -0.2168,0.6503 l -0.4335,1.5896 c -1.1561,3.8296 -2.0231,7.4423 -4.9133,7.9481 -0.072,0.072 -0.3613,0.072 -0.7226,0.072 -0.7225,0 -1.3728,-0.2168 -2.0231,-0.7226 l -0.6503,-0.6503 -0.5058,-0.7948 -2.0954,-5.1301 -2.1677,-5.9249 c -3.2514,-9.5377 -5.4913,-16.6187 -6.8642,-21.3153 z"
           style="font-size:72.2551px"
           id="path21723" /><path
           d="m 2570.934,5095.081 c -0.3613,5.6359 -0.5781,11.4886 -0.5781,17.6303 0,7.1532 0.2168,15.5348 0.6503,25.0002 v 0.2168 c 0,1.8064 -1.4451,3.5405 -3.396,3.6128 h -0.2167 c -1.8064,0 -3.5405,-1.4452 -3.6128,-3.396 -0.5058,-8.3094 -0.7225,-16.6187 -0.7225,-24.928 0,-7.081 0.2167,-13.295 0.6503,-18.7141 0.2167,-2.2399 1.3728,-3.3238 3.5405,-3.3238 h 0.3612 c 2.2399,0.2168 3.3238,1.3729 3.3238,3.5405 z"
           style="font-size:72.2551px"
           id="path21725" /><path
           d="m 2604.6049,5138.4341 c 0,2.2399 -1.0116,3.396 -3.107,3.6127 -0.072,0.072 -0.289,0.072 -0.5058,0.072 -2.0954,0 -3.3237,-1.0116 -3.6127,-3.107 -0.7949,-5.8526 -1.3006,-12.1388 -1.5174,-18.8586 -0.1445,-2.6734 -0.2168,-5.3468 -0.2168,-8.0203 0,-2.9624 0.1445,-6.7197 0.3613,-11.2718 -6.792,0.6503 -12.3556,1.3006 -16.6187,2.0232 -0.072,0.072 -0.3612,0.072 -0.7225,0.072 -1.9509,0 -3.107,-1.0115 -3.4683,-2.9624 -0.072,-0.072 -0.072,-0.3613 -0.072,-0.7226 0,-1.9509 1.0116,-3.1069 2.9624,-3.4682 4.4799,-0.7948 11.6331,-1.6619 21.3876,-2.4567 8.8873,-0.7948 15.7516,-1.6619 20.5204,-2.6734 0.1445,-0.072 0.4335,-0.072 0.7948,-0.072 1.8786,0 3.0347,0.9393 3.5405,2.818 0.072,0.1445 0.072,0.4335 0.072,0.867 0,1.8064 -0.9394,2.9625 -2.818,3.4683 -4.4075,1.0115 -10.5492,1.8786 -18.2805,2.5289 -0.289,3.8295 -0.4336,7.8035 -0.4336,11.9221 l 0.1446,7.0087 c 0.2167,6.503 0.7948,12.7892 1.5896,18.7864 z"
           style="font-size:72.2551px"
           id="path21727" /><path
           d="m 2657.4233,5125.934 c 0.2168,4.4798 0.7226,8.4538 1.4451,11.922 0.072,0.072 0.072,0.3613 0.072,0.7226 0,2.0231 -0.9394,3.1792 -2.8902,3.5405 -0.072,0.072 -0.3613,0.072 -0.7226,0.072 -2.0231,0 -3.1792,-0.9393 -3.5405,-2.8902 -1.2283,-6.1416 -1.8064,-13.8007 -1.8064,-22.9771 v -10.1157 l -0.1445,-8.7429 c 0,-2.1676 1.0838,-3.3237 3.2515,-3.5405 5.2746,-1.8063 10.766,-2.6734 16.4742,-2.6734 h 2.0954 c 7.948,0.3613 13.3672,2.6734 16.1851,6.9365 1.5896,2.4567 2.3844,5.1301 2.3844,8.0926 0,11.055 -9.0319,17.847 -20.0146,19.0753 -2.9625,0.289 -5.0579,0.4335 -6.3585,0.5058 -0.4335,0.072 -1.5896,0.072 -3.5405,0.072 z m -0.289,-12.3557 c 0,2.9625 0,4.6244 0.072,5.1301 9.3209,0 16.7632,-0.1445 21.7488,-4.1908 2.6735,-2.0954 4.0463,-4.841 4.0463,-8.237 0,-3.3238 -1.5173,-5.4914 -4.6243,-6.5752 -2.818,-0.7949 -5.7804,-1.2284 -8.8151,-1.2284 h -1.4451 c -3.7573,0.1445 -7.4423,0.7226 -10.9828,1.7341 0.072,0.3613 0.072,1.0116 0.072,1.9509 0,0.8671 0,2.0232 -0.072,3.396 z"
           style="font-size:72.2551px"
           id="path21729" /><path
           d="m 2722.0194,5125.1391 c 8.0926,4.1908 13.873,7.0088 17.269,8.5261 0.9393,0.3613 1.5896,1.0839 1.9509,2.0232 0.1445,0.4335 0.2167,0.867 0.2167,1.3006 0,0.578 -0.072,1.0838 -0.289,1.4451 -0.3613,0.9393 -1.0116,1.5173 -1.9509,1.8786 -0.3613,0.2168 -0.867,0.289 -1.3728,0.289 -0.5781,0 -1.0839,-0.072 -1.4451,-0.289 -3.2515,-1.5173 -9.1042,-4.4075 -17.7025,-8.7429 -6.1417,-3.1069 -11.1996,-5.3468 -15.0291,-6.8642 0.072,5.4191 0.5058,9.899 1.2284,13.584 0.072,0.072 0.072,0.3612 0.072,0.7225 0,1.9509 -0.9393,3.107 -2.8902,3.4683 -0.1445,0.072 -0.4335,0.072 -0.7948,0.072 -1.9509,0 -3.107,-1.0115 -3.4682,-2.9624 -1.0116,-5.0579 -1.5174,-12.4279 -1.5174,-22.1101 0,-5.5636 0,-8.6706 -0.072,-9.3932 l -0.1445,-2.3844 c -0.2167,-2.1676 -0.289,-4.6243 -0.289,-7.37 0.072,-1.9509 0.4335,-3.3237 1.0838,-4.1185 1.3729,-1.8064 4.6966,-2.9625 10.0435,-3.3238 l 3.9018,-0.1445 c 10.477,0 17.9192,2.1677 22.3268,6.5752 1.8064,1.8064 2.8902,3.8296 3.2515,6.1417 0.072,0.2168 0.072,0.7226 0.072,1.4451 0,2.0954 -0.5058,4.1908 -1.5896,6.2862 -1.9509,3.974 -5.6359,7.0088 -11.055,9.2487 -2.4567,0.9393 -4.8411,1.6618 -7.081,2.0954 z m -19.0031,-26.4453 c 0,2.2399 0.072,4.4798 0.289,6.7197 l 0.2891,5.9972 v 4.6243 c 0.5057,0.072 1.6618,0.072 3.4682,0.072 10.9105,0 19.0031,-3.3238 21.3153,-8.2371 0.5057,-1.2284 0.7948,-2.1677 0.7948,-2.818 0,-1.0115 -0.3613,-1.8786 -1.0839,-2.6012 -3.1069,-2.9624 -9.0319,-4.4798 -17.7025,-4.4798 -2.9624,0 -5.3468,0.2168 -7.1532,0.6503 z"
           style="font-size:72.2551px"
           id="path21731" /><path
           d="m 2752.9446,5095.081 c -0.3612,5.6359 -0.578,11.4886 -0.578,17.6303 0,7.1532 0.2168,15.5348 0.6503,25.0002 v 0.2168 c 0,1.8064 -1.4451,3.5405 -3.396,3.6128 h -0.2168 c -1.8063,0 -3.5405,-1.4452 -3.6127,-3.396 -0.5058,-8.3094 -0.7226,-16.6187 -0.7226,-24.928 0,-7.081 0.2168,-13.295 0.6503,-18.7141 0.2168,-2.2399 1.3729,-3.3238 3.5405,-3.3238 h 0.3613 c 2.2399,0.2168 3.3237,1.3729 3.3237,3.5405 z"
           style="font-size:72.2551px"
           id="path21733" /><path
           d="m 2799.8382,5098.2602 c -1.3728,0.072 -2.818,0.2168 -4.4076,0.5781 -16.2574,3.396 -28.3962,14.3065 -28.902,25.3615 v 0.4336 c 0,4.9856 3.3237,8.237 9.8989,9.7544 1.6619,0.3613 3.9018,0.578 6.792,0.578 0.9393,0 1.5896,0 1.8064,-0.072 5.8527,-0.5781 10.9105,-2.3122 15.2458,-5.2024 0.6503,-0.3613 1.3729,-0.578 2.0232,-0.578 0.3612,0 0.6503,0 0.7225,0.072 1.9509,0.3613 2.8902,1.5174 2.8902,3.5405 0,0.3613 0,0.6503 -0.072,0.7226 -0.2168,0.9393 -0.7226,1.7341 -1.5174,2.3121 -5.4191,3.5405 -11.5608,5.6359 -18.5695,6.3585 -0.2891,0.072 -1.0839,0.072 -2.3845,0.072 -1.5173,0 -2.5289,0 -3.0347,-0.072 -2.3121,-0.1445 -4.1185,-0.3613 -5.4914,-0.6503 -10.3324,-2.4567 -15.5348,-8.0926 -15.5348,-16.9077 v -0.6503 c 0.578,-14.74 15.1013,-28.1795 34.7547,-32.1535 2.2399,-0.5058 4.1908,-0.7226 5.9249,-0.7948 h 0.289 c 2.4567,0 4.3353,0.578 5.5637,1.6619 0.7948,0.6502 1.2283,1.5173 1.3728,2.6011 0.072,0.2168 0.072,0.6503 0.072,1.4451 l -0.289,2.7457 c -0.072,0.1445 -0.3613,1.7342 -0.8671,4.8411 -0.289,2.0232 -1.4451,3.0347 -3.4683,3.0347 -0.3612,0 -0.578,0 -0.6503,-0.072 -2.0231,-0.289 -3.0347,-1.4451 -3.0347,-3.396 0,-0.3613 0,-0.6503 0.072,-0.7226 z"
           style="font-size:72.2551px"
           id="path21735" /><path
           d="m 2849.7665,5132.2924 h 0.4335 c 2.24,0 3.4683,1.0116 3.6851,3.107 v 0.5058 c 0,2.0954 -1.0116,3.3237 -3.107,3.6127 l -3.2515,0.4335 -12.2111,1.9509 -9.2487,1.3006 c -1.3728,0.2168 -2.5289,0.3613 -3.3959,0.4335 -0.2168,0.072 -0.7226,0.072 -1.3729,0.072 -0.289,0 -0.7948,-0.072 -1.4451,-0.1445 -2.6734,-0.6503 -4.5521,-1.8786 -5.7804,-3.7573 -0.3613,-0.5058 -0.5058,-0.9393 -0.5058,-1.2283 v -37.2836 c 0,-0.9394 0,-1.4451 0.072,-1.6619 0.6503,-5.1301 3.6127,-6.7197 10.1879,-7.37 9.3209,-1.2284 17.4135,-1.8064 24.35,-1.8064 2.0231,0 3.6128,1.5896 3.6128,3.6128 0,2.0231 -1.5897,3.6127 -3.6128,3.6127 -5.8527,0 -13.7285,0.578 -23.4829,1.7341 -1.3728,0.1445 -2.3122,0.2891 -2.9625,0.4336 -0.578,0.072 -0.867,0.289 -0.867,0.7225 v 3.7573 c 0,4.9856 0,8.6706 -0.072,10.9828 l 26.0119,-4.2631 c 0.072,-0.072 0.3612,-0.072 0.7225,-0.072 1.9509,0 3.107,1.0116 3.4683,2.9625 v 0.7226 c 0,2.0231 -1.0116,3.1792 -3.0348,3.4682 -8.3093,1.3728 -17.4134,2.8902 -27.2401,4.4798 v 13.6562 l 0.5058,0.1445 h 0.867 l 3.0347,-0.3612 c 2.2399,-0.2891 5.2747,-0.7226 9.1042,-1.3006 z"
           style="font-size:72.2551px"
           id="path21737" /><path
           d="m 2899.4058,5106.4251 c -0.5058,1.7341 -1.6618,2.6012 -3.4682,2.6012 -0.1445,0 -0.4335,-0.072 -0.9393,-0.1446 -1.8064,-0.5057 -2.6735,-1.6618 -2.6735,-3.4682 l 0.1445,-1.0116 c 0.072,-0.072 0.5781,-1.3728 1.5174,-3.8295 l 0.1445,-0.3613 -1.3006,-0.4335 c -2.5289,-0.6503 -4.9856,-1.0116 -7.37,-1.0116 h -0.7226 c -6.2862,0.2168 -10.8382,2.3845 -13.5117,6.4307 -0.072,0.3613 -0.1445,0.7948 -0.1445,1.3006 v 0.7948 c 0.072,1.5896 0.8671,2.8902 2.4567,3.8296 1.5174,0.9393 4.2631,1.8063 8.1648,2.6011 13.0059,2.818 16.0407,3.8296 19.1476,8.6707 1.3006,1.9508 1.9509,3.9017 1.9509,5.8526 0,0.6503 -0.1445,1.3729 -0.3613,2.1677 -1.9508,6.1416 -6.5752,9.8267 -13.9452,11.055 -2.6734,0.4335 -5.4914,0.6503 -8.4538,0.6503 -1.3006,0 -2.0954,0 -2.4567,-0.072 -10.477,-0.4335 -16.5464,-3.0347 -18.3528,-7.8035 -0.5058,-1.2284 -0.7226,-2.7457 -0.7948,-4.6966 l -0.1445,-3.8295 c 0,-2.2399 1.0838,-3.396 3.2515,-3.6128 h 0.3612 c 2.2399,0 3.396,1.0839 3.6128,3.2515 0,6.6475 0,6.9365 3.685,8.0926 2.1676,0.7948 5.0579,1.2283 8.7429,1.3728 0.3612,0.072 1.0838,0.072 2.3121,0.072 6.2862,0 10.2602,-0.7226 11.7776,-2.0954 1.9509,-1.7341 3.107,-3.2515 3.5405,-4.6243 l -0.1445,-0.6503 -0.578,-1.0839 c -0.7949,-1.3006 -2.0232,-2.2399 -3.7573,-2.8902 -1.8064,-0.6503 -5.4191,-1.5173 -10.9105,-2.7457 -11.1996,-2.3844 -16.0407,-5.7081 -16.3297,-13.2226 v -0.7226 c 0,-8.8874 10.188,-15.2458 22.3268,-15.2458 h 1.2284 c 2.6734,0.072 5.2746,0.578 7.7313,1.3728 0.6503,0 1.4451,0.2168 2.4566,0.7226 2.0954,0.7948 3.396,2.1676 3.8296,3.974 l 0.1445,1.5174 c 0,1.3006 -0.289,2.6734 -0.8671,4.1185 z"
           style="font-size:72.2551px"
           id="path21739" /></g><g
         aria-label="are too low!"
         transform="matrix(1.3286265,0,0,1.3286265,-5692.9462,1075.2387)"
         id="text10167-0-2-6-2-9"
         style="font-size:64.2267px;font-family:'Canted Comic';-inkscape-font-specification:'Canted Comic, Normal';white-space:pre;shape-inside:url(#rect10169-1-4-9-4-2);display:inline;stroke-width:3.01063;stroke-linecap:round;stroke-linejoin:round"><path
           d="m 2359.5154,5139.0844 c 0.7948,-9.9712 5.1301,-22.7604 13.0059,-38.4397 1.9509,-3.8296 3.685,-6.792 5.0578,-8.7429 1.3729,-1.8786 2.7457,-2.8179 4.1908,-2.8179 0.3613,0 0.6503,0 0.7226,0.072 1.0838,0.2168 1.8064,0.578 2.1676,1.2283 l 0.2891,0.2891 c 0.1445,0.2167 0.289,0.5057 0.4335,0.867 0.2168,0.3613 0.5058,0.9393 0.7948,1.5896 0.289,0.5058 0.7948,1.8787 1.5896,4.1186 l 2.3844,6.5029 c 0.6503,1.6619 1.7342,4.9856 3.396,9.899 l 4.0463,12.7169 3.0347,9.9712 0.1445,1.0838 c 0,1.8064 -0.867,2.9625 -2.5289,3.4683 l -1.0838,0.1445 c -1.8064,0 -2.9625,-0.8671 -3.4683,-2.529 l -4.0463,-13.2226 c -2.5289,0.578 -5.5636,1.3728 -9.1041,2.3121 -7.2978,2.0954 -11.4163,3.1792 -12.3556,3.396 -0.7948,2.9625 -1.2284,5.8527 -1.4451,8.6706 -0.2168,2.2399 -1.3729,3.3238 -3.6128,3.3238 -0.1445,0 -0.2167,0 -0.289,-0.072 -2.2399,-0.072 -3.3237,-1.3006 -3.3237,-3.6128 z m 21.6042,-39.09 c -0.9393,1.5896 -1.5896,2.8902 -2.0954,3.974 -3.8295,7.7313 -6.6474,14.0175 -8.3093,18.9308 0.7948,-0.2167 3.4683,-0.9393 7.8758,-2.2399 4.4076,-1.2283 7.37,-1.9509 8.8874,-2.3121 -1.3729,-4.2631 -2.7457,-8.3094 -4.1185,-11.9944 z"
           style="font-size:72.2551px"
           id="path21742" /><path
           d="m 2432.6375,5125.1391 c 8.0926,4.1908 13.873,7.0088 17.269,8.5261 0.9393,0.3613 1.5896,1.0839 1.9509,2.0232 0.1445,0.4335 0.2168,0.867 0.2168,1.3006 0,0.578 -0.072,1.0838 -0.2891,1.4451 -0.3612,0.9393 -1.0115,1.5173 -1.9508,1.8786 -0.3613,0.2168 -0.8671,0.289 -1.3729,0.289 -0.578,0 -1.0838,-0.072 -1.4451,-0.289 -3.2515,-1.5173 -9.1041,-4.4075 -17.7025,-8.7429 -6.1417,-3.1069 -11.1995,-5.3468 -15.0291,-6.8642 0.072,5.4191 0.5058,9.899 1.2284,13.584 0.072,0.072 0.072,0.3612 0.072,0.7225 0,1.9509 -0.9393,3.107 -2.8902,3.4683 -0.1445,0.072 -0.4335,0.072 -0.7948,0.072 -1.9509,0 -3.1069,-1.0115 -3.4682,-2.9624 -1.0116,-5.0579 -1.5174,-12.4279 -1.5174,-22.1101 0,-5.5636 0,-8.6706 -0.072,-9.3932 l -0.1445,-2.3844 c -0.2168,-2.1676 -0.2891,-4.6243 -0.2891,-7.37 0.072,-1.9509 0.4336,-3.3237 1.0839,-4.1185 1.3728,-1.8064 4.6965,-2.9625 10.0434,-3.3238 l 3.9018,-0.1445 c 10.477,0 17.9193,2.1677 22.3268,6.5752 1.8064,1.8064 2.8902,3.8296 3.2515,6.1417 0.072,0.2168 0.072,0.7226 0.072,1.4451 0,2.0954 -0.5058,4.1908 -1.5897,6.2862 -1.9508,3.974 -5.6359,7.0088 -11.055,9.2487 -2.4567,0.9393 -4.8411,1.6618 -7.081,2.0954 z m -19.0031,-26.4453 c 0,2.2399 0.072,4.4798 0.2891,6.7197 l 0.289,5.9972 v 4.6243 c 0.5058,0.072 1.6619,0.072 3.4682,0.072 10.9106,0 19.0031,-3.3238 21.3153,-8.2371 0.5058,-1.2284 0.7948,-2.1677 0.7948,-2.818 0,-1.0115 -0.3613,-1.8786 -1.0838,-2.6012 -3.107,-2.9624 -9.0319,-4.4798 -17.7025,-4.4798 -2.9625,0 -5.3469,0.2168 -7.1533,0.6503 z"
           style="font-size:72.2551px"
           id="path21744" /><path
           d="m 2492.7538,5132.2924 h 0.4335 c 2.2399,0 3.4683,1.0116 3.685,3.107 v 0.5058 c 0,2.0954 -1.0115,3.3237 -3.1069,3.6127 l -3.2515,0.4335 -12.2111,1.9509 -9.2487,1.3006 c -1.3728,0.2168 -2.5289,0.3613 -3.396,0.4335 -0.2167,0.072 -0.7225,0.072 -1.3728,0.072 -0.289,0 -0.7948,-0.072 -1.4451,-0.1445 -2.6734,-0.6503 -4.5521,-1.8786 -5.7804,-3.7573 -0.3613,-0.5058 -0.5058,-0.9393 -0.5058,-1.2283 v -37.2836 c 0,-0.9394 0,-1.4451 0.072,-1.6619 0.6503,-5.1301 3.6127,-6.7197 10.1879,-7.37 9.3209,-1.2284 17.4135,-1.8064 24.35,-1.8064 2.0231,0 3.6127,1.5896 3.6127,3.6128 0,2.0231 -1.5896,3.6127 -3.6127,3.6127 -5.8527,0 -13.7285,0.578 -23.4829,1.7341 -1.3729,0.1445 -2.3122,0.2891 -2.9625,0.4336 -0.578,0.072 -0.867,0.289 -0.867,0.7225 v 3.7573 c 0,4.9856 0,8.6706 -0.072,10.9828 l 26.0118,-4.2631 c 0.072,-0.072 0.3613,-0.072 0.7226,-0.072 1.9509,0 3.107,1.0116 3.4682,2.9625 v 0.7226 c 0,2.0231 -1.0115,3.1792 -3.0347,3.4682 -8.3093,1.3728 -17.4134,2.8902 -27.2401,4.4798 v 13.6562 l 0.5057,0.1445 h 0.8671 l 3.0347,-0.3612 c 2.2399,-0.2891 5.2746,-0.7226 9.1042,-1.3006 z"
           style="font-size:72.2551px"
           id="path21746" /><path
           d="m 2549.185,5138.4341 c 0,2.2399 -1.0115,3.396 -3.1069,3.6127 -0.072,0.072 -0.289,0.072 -0.5058,0.072 -2.0954,0 -3.3237,-1.0116 -3.6128,-3.107 -0.7948,-5.8526 -1.3006,-12.1388 -1.5173,-18.8586 -0.1445,-2.6734 -0.2168,-5.3468 -0.2168,-8.0203 0,-2.9624 0.1445,-6.7197 0.3613,-11.2718 -6.792,0.6503 -12.3556,1.3006 -16.6187,2.0232 -0.072,0.072 -0.3613,0.072 -0.7225,0.072 -1.9509,0 -3.107,-1.0115 -3.4683,-2.9624 -0.072,-0.072 -0.072,-0.3613 -0.072,-0.7226 0,-1.9509 1.0115,-3.1069 2.9624,-3.4682 4.4798,-0.7948 11.6331,-1.6619 21.3875,-2.4567 8.8874,-0.7948 15.7516,-1.6619 20.5205,-2.6734 0.1445,-0.072 0.4335,-0.072 0.7948,-0.072 1.8786,0 3.0347,0.9393 3.5405,2.818 0.072,0.1445 0.072,0.4335 0.072,0.867 0,1.8064 -0.9393,2.9625 -2.8179,3.4683 -4.4076,1.0115 -10.5492,1.8786 -18.2805,2.5289 -0.2891,3.8295 -0.4336,7.8035 -0.4336,11.9221 l 0.1445,7.0087 c 0.2168,6.503 0.7948,12.7892 1.5896,18.7864 z"
           style="font-size:72.2551px"
           id="path21748" /><path
           d="m 2596.4399,5092.3353 c 0.3613,0.1445 0.5781,0.2168 0.6503,0.2891 0.7948,0.289 1.3729,0.7948 1.7341,1.5173 0.3613,0.3613 0.7226,0.7226 1.0116,1.2283 1.8064,3.4683 2.8902,7.4423 3.3237,11.9944 l 0.1446,3.7573 c 0,8.237 -2.0954,15.2458 -6.2862,20.9539 -2.9625,4.2631 -7.1533,7.2255 -12.7169,8.8874 -2.0232,0.5781 -3.8296,0.8671 -5.4192,0.9393 h -0.3612 c -8.0926,0 -13.6563,-5.7081 -14.8846,-12.9336 -0.3613,-1.3729 -0.5058,-3.107 -0.5058,-5.1301 0,-1.5897 0.2168,-3.4683 0.5781,-5.6359 2.6734,-12.7892 11.4163,-24.1332 20.7372,-27.0957 1.5173,-0.4335 3.1069,-0.6503 4.6966,-0.6503 2.0954,0 4.1185,0.4335 6.0694,1.3006 z m -2.8902,6.5752 c -0.6503,-0.2167 -1.0116,-0.4335 -1.0838,-0.5057 -1.0116,-0.5058 -2.0954,-0.7226 -3.1792,-0.7226 -5.2747,0 -11.2718,4.8411 -15.5349,13.5117 -2.0954,4.4076 -3.2515,8.5984 -3.3237,12.6447 -0.072,0.072 -0.072,0.289 -0.072,0.5057 0,6.8643 2.7457,10.3325 8.1649,10.3325 2.8902,0 5.8526,-1.0838 8.8151,-3.1792 1.7341,-1.0838 3.0347,-2.3122 3.9018,-3.6128 2.7456,-3.8295 4.3353,-8.5261 4.7688,-14.0897 0.072,-0.4335 0.072,-1.3729 0.072,-2.7457 0,-4.3353 -0.867,-8.3816 -2.5289,-12.1389 z"
           style="font-size:72.2551px"
           id="path21750" /><path
           d="m 2640.7324,5092.3353 c 0.3612,0.1445 0.578,0.2168 0.6502,0.2891 0.7949,0.289 1.3729,0.7948 1.7342,1.5173 0.3612,0.3613 0.7225,0.7226 1.0115,1.2283 1.8064,3.4683 2.8902,7.4423 3.3238,11.9944 l 0.1445,3.7573 c 0,8.237 -2.0954,15.2458 -6.2862,20.9539 -2.9625,4.2631 -7.1533,7.2255 -12.7169,8.8874 -2.0231,0.5781 -3.8295,0.8671 -5.4191,0.9393 h -0.3613 c -8.0926,0 -13.6562,-5.7081 -14.8846,-12.9336 -0.3612,-1.3729 -0.5057,-3.107 -0.5057,-5.1301 0,-1.5897 0.2167,-3.4683 0.578,-5.6359 2.6734,-12.7892 11.4163,-24.1332 20.7372,-27.0957 1.5174,-0.4335 3.107,-0.6503 4.6966,-0.6503 2.0954,0 4.1185,0.4335 6.0694,1.3006 z m -2.8903,6.5752 c -0.6502,-0.2167 -1.0115,-0.4335 -1.0838,-0.5057 -1.0115,-0.5058 -2.0954,-0.7226 -3.1792,-0.7226 -5.2746,0 -11.2718,4.8411 -15.5348,13.5117 -2.0954,4.4076 -3.2515,8.5984 -3.3238,12.6447 -0.072,0.072 -0.072,0.289 -0.072,0.5057 0,6.8643 2.7457,10.3325 8.1648,10.3325 2.8902,0 5.8527,-1.0838 8.8151,-3.1792 1.7341,-1.0838 3.0347,-2.3122 3.9018,-3.6128 2.7457,-3.8295 4.3353,-8.5261 4.7688,-14.0897 0.072,-0.4335 0.072,-1.3729 0.072,-2.7457 0,-4.3353 -0.8671,-8.3816 -2.529,-12.1389 z"
           style="font-size:72.2551px"
           id="path21752" /><path
           d="m 2675.4871,5121.1651 c 0,-9.8989 0.867,-19.2198 2.5289,-27.9627 0.3613,-1.9509 1.5173,-2.8902 3.4682,-2.8902 0.3613,0 0.6503,0 0.7948,0.072 1.9509,0.3613 2.8902,1.5174 2.8902,3.4683 0,0.4335 0,0.7225 -0.072,0.7948 -1.5174,8.4538 -2.3122,18.3528 -2.3122,29.8413 l 0.1445,9.8267 c 6.1417,0 12.9337,-0.5057 20.376,-1.5896 l 11.055,-1.5173 c 0.072,-0.072 0.289,-0.072 0.578,-0.072 2.0954,0 3.2515,1.0116 3.5405,3.0347 v 0.5058 c 0,2.2399 -1.0115,3.396 -3.1069,3.6128 -9.8267,1.5173 -17.558,2.4566 -23.1217,2.8179 -4.4075,0.2168 -7.8035,0.3613 -10.0434,0.3613 h -2.6012 c -1.6619,-0.072 -2.7457,-0.8671 -3.3237,-2.5289 -0.2891,-0.5781 -0.4336,-1.1561 -0.5058,-1.7342 -0.2168,-7.5867 -0.289,-12.5001 -0.289,-14.5955 z"
           style="font-size:72.2551px"
           id="path21754" /><path
           d="m 2756.5573,5092.3353 c 0.3613,0.1445 0.578,0.2168 0.6503,0.2891 0.7948,0.289 1.3728,0.7948 1.7341,1.5173 0.3613,0.3613 0.7226,0.7226 1.0116,1.2283 1.8064,3.4683 2.8902,7.4423 3.3237,11.9944 l 0.1445,3.7573 c 0,8.237 -2.0954,15.2458 -6.2862,20.9539 -2.9624,4.2631 -7.1532,7.2255 -12.7169,8.8874 -2.0231,0.5781 -3.8295,0.8671 -5.4191,0.9393 h -0.3613 c -8.0925,0 -13.6562,-5.7081 -14.8845,-12.9336 -0.3613,-1.3729 -0.5058,-3.107 -0.5058,-5.1301 0,-1.5897 0.2168,-3.4683 0.578,-5.6359 2.6735,-12.7892 11.4163,-24.1332 20.7373,-27.0957 1.5173,-0.4335 3.1069,-0.6503 4.6965,-0.6503 2.0954,0 4.1186,0.4335 6.0695,1.3006 z m -2.8902,6.5752 c -0.6503,-0.2167 -1.0116,-0.4335 -1.0838,-0.5057 -1.0116,-0.5058 -2.0954,-0.7226 -3.1793,-0.7226 -5.2746,0 -11.2717,4.8411 -15.5348,13.5117 -2.0954,4.4076 -3.2515,8.5984 -3.3237,12.6447 -0.072,0.072 -0.072,0.289 -0.072,0.5057 0,6.8643 2.7457,10.3325 8.1648,10.3325 2.8902,0 5.8527,-1.0838 8.8152,-3.1792 1.7341,-1.0838 3.0347,-2.3122 3.9017,-3.6128 2.7457,-3.8295 4.3353,-8.5261 4.7689,-14.0897 0.072,-0.4335 0.072,-1.3729 0.072,-2.7457 0,-4.3353 -0.867,-8.3816 -2.5289,-12.1389 z"
           style="font-size:72.2551px"
           id="path21756" /><path
           d="m 2774.7657,5102.451 4.6965,25.5783 1.5897,-4.9133 2.9624,-10.0435 4.2631,-15.5348 0.867,-2.5289 c 0,-0.2168 0.072,-0.3613 0.1445,-0.4336 l 0.1445,-0.3612 c 0.7949,-1.2284 1.8787,-1.8787 3.1793,-1.8787 0.9393,0 1.7341,0.2891 2.3844,0.7948 0.289,0.2891 0.5058,0.5058 0.578,0.7226 l 0.5781,0.9393 0.4335,1.1561 2.0954,7.0087 3.685,11.4886 c 2.0954,6.6475 3.4683,11.1273 4.0463,13.5117 l 5.5636,-17.9915 c 1.7342,-5.5637 3.107,-10.766 4.0463,-15.6071 0.3613,-1.9509 1.5174,-2.8902 3.4683,-2.8902 0.3612,0 0.6503,0 0.7948,0.072 1.9509,0.3613 2.8902,1.5174 2.8902,3.4683 0,0.4335 0,0.7225 -0.072,0.7948 -0.9393,4.9133 -2.3844,10.3325 -4.1908,16.2574 l -5.3468,16.9799 -0.7226,2.6012 c -0.6503,2.5289 -1.4451,4.8411 -2.3844,6.9365 -1.2284,2.3122 -2.7457,3.5405 -4.4798,3.685 h -0.1445 c -2.0954,0 -3.1793,-0.7948 -4.6244,-5.4191 -0.9393,-3.8296 -2.0231,-7.9481 -3.2515,-12.4279 l -2.8179,-8.8874 -2.3844,-7.1532 c -2.9625,10.766 -5.3469,18.714 -7.1533,23.9164 -0.867,2.4567 -1.4451,3.8295 -1.6618,4.1908 -1.5174,3.107 -3.4683,4.6966 -5.8527,4.6966 -1.4451,0 -2.5289,-0.5058 -3.2515,-1.4451 -0.289,-0.289 -0.5058,-0.6503 -0.578,-1.0116 l -0.1445,-0.5058 c -0.072,-0.072 -0.072,-0.2167 -0.072,-0.4335 l -1.0838,-5.2024 -3.9018,-21.4597 c -0.6503,-4.2631 -1.6619,-9.1764 -2.9624,-14.8123 -0.072,-0.072 -0.072,-0.3613 -0.072,-0.7226 0,-1.9509 0.9393,-3.107 2.8179,-3.6127 0.1446,-0.072 0.4336,-0.072 0.7949,-0.072 1.8786,0 3.0347,0.9393 3.5405,2.8179 z"
           style="font-size:72.2551px"
           id="path21758" /><path
           d="m 2829.4628,5125.934 c 0.3613,-3.2515 0.5781,-8.3094 0.6503,-15.1736 0.072,-7.37 0.2168,-12.5724 0.4336,-15.6794 0.2167,-2.2399 1.4451,-3.396 3.5405,-3.396 h 0.3612 c 2.2399,0.2168 3.3238,1.3729 3.3238,3.6128 v 0.2168 c -0.2168,2.9624 -0.3613,8.0925 -0.4336,15.318 -0.072,7.081 -0.289,12.3557 -0.6503,15.8239 -0.2167,2.1677 -1.3728,3.2515 -3.6127,3.2515 h -0.3613 c -2.1676,-0.2168 -3.2515,-1.4451 -3.2515,-3.6128 z m 5.4914,9.8989 c 0.6503,0.7948 1.0116,1.6619 1.0116,2.6012 0,2.0231 -1.5896,3.6127 -3.6128,3.6127 -2.0231,0 -3.6127,-1.5896 -3.6127,-3.6127 0,-2.0232 1.5896,-3.6128 3.6127,-3.6128 0.9394,0 1.8064,0.3613 2.6012,1.0116 z"
           style="font-size:72.2551px"
           id="path21760" /></g><path
         style="fill:none;fill-opacity:1;stroke:#000000;stroke-width:7.95291;stroke-linejoin:round;stroke-dasharray:none;stroke-opacity:1"
         d="m -2896.7631,7247.3073 39.5016,-5.2301 40.3001,0.035 39.6669,-1.9085 39.3874,-0.1693 39.9117,3.6235 39.7679,-0.1795 39.9588,0.1718 39.6098,-1.9888 39.9921,0.5517 39.4466,-0.065 40.0391,-2.7462 39.874,-1.7547 39.7914,3.3932 39.6782,3.1196 39.9893,-0.9673 40.009,0.5224 39.354,1.1375 39.7455,0.6543 39.8846,-1.0257 39.7718,-2.0761 39.7291,-1.9483 39.7742,2.7732 39.8662,-0.3171 39.3143,2.5933 40.0237,-0.4699 40.1336,-0.5963 39.4085,-0.6587 39.6747,3.7922 39.6759,-1.0238 39.8895,4.6856 40.6295,-3.1371 39.7168,-3.6747 39.3064,-1.4994 -0.1445,40.1614 0.041,39.5599 -0.5322,41.4622 -0.308,40.027 -0.2249,36.7795 0.246,40.6701 -0.2919,39.7854 -0.1404,39.389 -0.016,40.0123 -0.1398,38.8165 -0.2275,43.6788 0.056,37.0807 -0.4248,37.8016 -0.2574,40.9256 0.1882,39.9257 -0.7698,40.2853 -0.3388,38.6053 -0.1914,40.0693 0.01,37.0117 -0.3457,43.2743 -0.4679,39.2428 -0.5709,40.1704 0.1146,40.0509 0.1823,39.7293 -39.7475,-2.7615 -39.4741,-0.111 -39.6957,-0.5242 -39.6441,-0.4231 -40.1832,1.8183 -39.0217,0.018 -40.3576,-0.149 -39.0117,-2.3286 -39.7076,0.2175 -39.6002,0.042 -39.9657,-0.8257 -39.3664,-1.1694 -39.2572,-2.2188 -39.8546,1.3732 -39.8686,1.4462 -39.4902,-0.7074 -39.399,-3.5358 -40.2575,-3.264 -39.1539,0.6544 -40.2163,1.2008 -39.2603,-1.9311 -39.9201,0.01 -39.9722,0.2066 -39.7441,-2.6276 -39.1534,0.7011 -39.4977,2.0022 -39.8435,0.5677 -39.5527,1.1933 -39.6455,0.8731 -39.5698,4.2113 -39.5405,-0.015 -39.7604,0.052 -39.1365,3.2699 -0.4443,-39.4765 -0.034,-40.6628 0.1662,-36.298 -0.3187,-43.7277 -0.2115,-39.436 -0.067,-34.9003 0.079,-40.4573 0.1954,-39.6036 -0.084,-39.779 -0.1017,-42.3235 -0,-36.0591 0.085,-43.1252 -0.016,-36.6955 -0.1071,-43.0275 0,-39.0272 0.2216,-41.1281 0.2132,-38.4109 0.015,-41.0989 3e-4,-37.1359 0.01,-42.4323 0.1498,-37.7503 0.1262,-39.8819 -0.101,-39.0076 z"
         id="path2208-7-2-2-5-3-2-3-1"
         sodipodi:nodetypes="ccccc"
         inkscape:original-d="m -2896.7641,7242.9507 h 1312.8306 l -4.5644,954.5249 -1308.2662,-5.9826 z"
         inkscape:path-effect="#path-effect2210-3-2-5-7-1-9-6-7" /></g></g></svg>
