<?xml version="1.0" encoding="UTF-8" standalone="no"?>
<!-- Created with Inkscape (http://www.inkscape.org/) -->

<svg
   version="1.1"
   id="svg176"
   width="1016.501"
   height="972.45093"
   viewBox="0 0 1016.501 972.45093"
   sodipodi:docname="comic.svg"
   xml:space="preserve"
   inkscape:version="1.2.2 (b0a8486541, 2022-12-01)"
   xmlns:inkscape="http://www.inkscape.org/namespaces/inkscape"
   xmlns:sodipodi="http://sodipodi.sourceforge.net/DTD/sodipodi-0.dtd"
   xmlns="http://www.w3.org/2000/svg"
   xmlns:svg="http://www.w3.org/2000/svg"><defs
     id="defs180"><inkscape:path-effect
       effect="roughen"
       id="path-effect2210-3-3-2-9"
       is_visible="true"
       lpeversion="1.2"
       method="size"
       max_segment_size="40"
       segments="114"
       displace_x="1;589550557"
       displace_y="7;1910419474"
       global_randomize="1;1292492417"
       handles="along"
       shift_nodes="true"
       fixed_displacement="false"
       spray_tool_friendly="false" /><rect
       x="-5995.3394"
       y="2384.0144"
       width="920.25854"
       height="780.37744"
       id="rect8929-5-4" /></defs><sodipodi:namedview
     id="namedview178"
     pagecolor="#ffffff"
     bordercolor="#000000"
     borderopacity="0.25"
     inkscape:showpageshadow="2"
     inkscape:pageopacity="0.0"
     inkscape:pagecheckerboard="0"
     inkscape:deskcolor="#d1d1d1"
     showgrid="false"
     showguides="false"
     inkscape:zoom="0.13137786"
     inkscape:cx="9853.2583"
     inkscape:cy="2641.2365"
     inkscape:window-width="1920"
     inkscape:window-height="1011"
     inkscape:window-x="0"
     inkscape:window-y="0"
     inkscape:window-maximized="1"
     inkscape:current-layer="g182"><inkscape:grid
       type="xygrid"
       id="grid2722" /></sodipodi:namedview><g
     inkscape:groupmode="layer"
     inkscape:label="Image"
     id="g182"
     transform="translate(-10306.039,-2692.5627)"><g
       id="vgn8"><path
         style="fill:none;fill-opacity:1;stroke:#000000;stroke-width:8;stroke-linejoin:round;stroke-dasharray:none;stroke-opacity:1"
         d="m 10311.322,2705.2145 38.485,-4.3689 39.249,0.042 38.616,-1.901 38.338,-0.1421 38.861,3.6538 38.715,-0.1914 38.908,0.1619 38.559,-2.0014 38.941,0.5697 38.395,-0.055 38.988,-2.735 38.829,-1.6844 38.748,3.509 38.615,3.1507 38.94,-1.029 38.956,0.4928 38.304,1.0863 38.698,0.5448 38.837,-1.1803 38.715,-2.1692 38.677,-1.8652 38.738,3.0891 38.8,-0.4098 38.262,2.5686 39.001,-1.5075 39.043,-1.4585 -0.357,37.9736 -0.454,42.7975 -0.616,34.3967 -0.474,44.1046 0.08,32.4914 0.208,37.6479 -0.118,39.5018 -0.06,38.8352 0.122,38.2073 -0.455,40.1089 -0.227,38.6753 -0.143,35.4273 0.337,39.3177 -0.215,38.4315 -0.06,38.0367 0.06,38.6596 -0.07,37.4635 -0.161,42.3261 0.117,35.7281 -0.381,36.4485 -0.19,39.5733 0.258,38.5732 -0.792,38.9321 -0.173,37.254 0.1,38.7174 -38.406,-3.8366 -38.896,-0.1909 -38.767,-0.7142 -38.795,-0.2874 -38.155,0 -38.562,-0.042 -38.7,-2.5848 -38.454,0.1203 -38.647,-0.2917 -38.6,-0.18 -39.138,2.0708 -37.951,0.2093 -39.309,0.04 -37.963,-2.1427 -38.685,0.5011 -38.547,0.3118 -38.914,-0.5624 -38.327,-0.859 -38.225,-1.8187 -38.85,1.9863 -38.776,1.9111 -38.413,-0.445 -38.357,-3.1404 -39.301,-1.894 -38.195,3.5371 -38.873,3.8937 0.08,-42.123 -0.136,-38.0502 -0.45,-39.6364 -0.525,-42.6613 0.12,-36.8272 0.254,-38.5434 -0.03,-41.0958 0.05,-39.2277 0.01,-40.0823 0.06,-36.4893 0.07,-42.9693 -0.05,-39.7438 0.466,-36.5746 -0.393,-42.8139 0.04,-40.7944 0.241,-36.4287 -0.252,-43.8579 -0.122,-39.5675 0.05,-35.0317 0.219,-40.5879 0.321,-39.7335 -0,-39.909 0.01,-42.4541 z"
         id="path2208-7-4-2-4"
         inkscape:path-effect="#path-effect2210-3-3-2-9"
         inkscape:original-d="m 10311.355,2701.7191 h 1007.026 l -3.501,960.1724 -1003.525,-6.018 z"
         sodipodi:nodetypes="ccccc" /><text
         xml:space="preserve"
         transform="translate(16358.655,439.27737)"
         id="text8927-5-3"
         style="font-style:normal;font-variant:normal;font-weight:normal;font-stretch:normal;font-size:64px;font-family:'Canted Comic';-inkscape-font-specification:'Canted Comic, Normal';font-variant-ligatures:normal;font-variant-caps:normal;font-variant-numeric:normal;font-variant-east-asian:normal;white-space:pre;shape-inside:url(#rect8929-5-4);display:inline;fill:#000000;fill-opacity:1;stroke:none;stroke-width:10;stroke-linejoin:round;stroke-dasharray:none;stroke-opacity:1"><tspan
           x="-5995.3398"
           y="2446.8708"
           id="tspan145571">alas, we must leave that </tspan><tspan
           x="-5995.3398"
           y="2526.8708"
           id="tspan145573">job to someone else.   :(
</tspan><tspan
           x="-5995.3398"
           y="2606.8708"
           id="tspan145575">
</tspan><tspan
           x="-5995.3398"
           y="2686.8708"
           id="tspan145579">the <tspan
   style="font-weight:bold;-inkscape-font-specification:'Canted Comic, Bold'"
   id="tspan145577">good news</tspan> is that </tspan><tspan
           x="-5995.3398"
           y="2766.8708"
           id="tspan145581">there's an alternative to </tspan><tspan
           x="-5995.3398"
           y="2846.8708"
           id="tspan145583">changing peoples' minds.
</tspan><tspan
           x="-5995.3398"
           y="2926.8708"
           id="tspan145585">
</tspan><tspan
           x="-5995.3398"
           y="3006.8708"
           id="tspan145587">to make polluters care,
</tspan><tspan
           x="-5995.3398"
           y="3086.8708"
           id="tspan145591"><tspan
   style="font-weight:bold;-inkscape-font-specification:'Canted Comic, Bold'"
   id="tspan145589">make them pay!</tspan>
</tspan><tspan
           x="-5995.3398"
           y="3166.8708"
           id="tspan145593">
</tspan></text></g></g></svg>
