<?xml version="1.0" encoding="UTF-8" standalone="no"?>
<!-- Created with Inkscape (http://www.inkscape.org/) -->

<svg
   version="1.1"
   id="svg176"
   width="150"
   height="150"
   viewBox="0 0 150 150"
   sodipodi:docname="website for ai.svg"
   xml:space="preserve"
   inkscape:version="1.2.2 (b0a8486541, 2022-12-01)"
   xmlns:inkscape="http://www.inkscape.org/namespaces/inkscape"
   xmlns:sodipodi="http://sodipodi.sourceforge.net/DTD/sodipodi-0.dtd"
   xmlns="http://www.w3.org/2000/svg"
   xmlns:svg="http://www.w3.org/2000/svg"><defs
     id="defs180"><inkscape:path-effect
       effect="roughen"
       id="path-effect12029"
       is_visible="true"
       lpeversion="1.2"
       method="segments"
       max_segment_size="0.673484"
       segments="2"
       displace_x="2;1467714844"
       displace_y="2;2139095038"
       global_randomize="1;1"
       handles="along"
       shift_nodes="true"
       fixed_displacement="false"
       spray_tool_friendly="false" /><linearGradient
       id="linearGradient1486"
       inkscape:swatch="solid"><stop
         style="stop-color:#000000;stop-opacity:1;"
         offset="0"
         id="stop1484" /></linearGradient><inkscape:path-effect
       effect="roughen"
       id="path-effect12029-9"
       is_visible="true"
       lpeversion="1.2"
       method="segments"
       max_segment_size="0.673484"
       segments="2"
       displace_x="2;2139095038"
       displace_y="2;2139095038"
       global_randomize="1;1"
       handles="along"
       shift_nodes="true"
       fixed_displacement="false"
       spray_tool_friendly="false" /></defs><sodipodi:namedview
     id="namedview178"
     pagecolor="#ffffff"
     bordercolor="#000000"
     borderopacity="0.25"
     inkscape:showpageshadow="2"
     inkscape:pageopacity="0.0"
     inkscape:pagecheckerboard="0"
     inkscape:deskcolor="#d1d1d1"
     showgrid="false"
     showguides="false"
     inkscape:zoom="0.16206018"
     inkscape:cx="4485.9879"
     inkscape:cy="4893.2441"
     inkscape:window-width="1920"
     inkscape:window-height="1011"
     inkscape:window-x="0"
     inkscape:window-y="0"
     inkscape:window-maximized="1"
     inkscape:current-layer="g182"><inkscape:grid
       type="xygrid"
       id="grid2722" /></sodipodi:namedview><g
     inkscape:groupmode="layer"
     inkscape:label="Image"
     id="g182"
     transform="translate(1439.1352,5273.2534)"><path
       id="rect83864-5-9"
       style="opacity:0;stroke-width:20.0114;stroke-linecap:round;stroke-linejoin:round"
       d="m -2910.7412,-5553.9012 h 1505.813 v 995.7285 h -1505.813 z" /><g
       id="g43418"
       transform="translate(-290.72896,-126.62883)"><rect
         style="fill:#ebebeb;fill-opacity:1;stroke:none;stroke-width:2.28691;stroke-linecap:round;stroke-linejoin:bevel;stroke-opacity:1"
         id="rect11425"
         width="150"
         height="150"
         x="-1148.4061"
         y="-5146.6245" /><g
         id="g43408"
         transform="matrix(1.0406485,0,0,1.0406485,47.85308,209.36799)"><path
           style="fill:#000000;stroke:#000000;stroke-width:1.52027;stroke-dasharray:none;stroke-opacity:1"
           d="m -1066.6924,-5014.7584 c -0.2647,-0.1073 -2.8621,-0.051 -5.7716,0.1247 -4.1747,0.2524 -5.7049,0.2136 -7.2542,-0.1839 -1.0805,-0.277 -2.5257,-0.4478 -3.2134,-0.3793 -0.6879,0.068 -1.6669,-0.071 -2.1763,-0.3098 -0.51,-0.2389 -1.552,-0.4511 -2.3143,-0.4718 -2.6626,-0.072 -6.7887,-0.8636 -12.2629,-2.3518 -0.4099,-0.1116 -2.0517,-1.2199 -3.6479,-2.4631 -1.5965,-1.243 -3.3283,-2.5138 -3.8491,-2.8239 -0.5213,-0.31 -0.9576,-0.674 -0.971,-0.8085 -0.013,-0.1345 -0.6831,-1.1164 -1.4879,-2.182 -0.8044,-1.0656 -1.8433,-2.4773 -2.3075,-3.1368 -0.4648,-0.6595 -1.0578,-1.4247 -1.3189,-1.7003 -0.2596,-0.2757 -0.4888,-0.6631 -0.5086,-0.861 -0.02,-0.1978 -0.4471,-1.2461 -0.9503,-2.3296 -0.5025,-1.0836 -0.944,-2.2386 -0.9805,-2.5669 -0.039,-0.3281 -0.1522,-0.5887 -0.2551,-0.5785 -0.1026,0.01 -0.2804,-0.6944 -0.3945,-1.5662 -0.1143,-0.8728 -0.4019,-1.8344 -0.6409,-2.1398 -0.6556,-0.8361 -1.6986,-3.7957 -1.8469,-5.2381 -0.077,-0.7019 -0.3784,-2.1836 -0.6818,-3.2918 -0.3033,-1.1082 -0.5656,-2.1178 -0.5819,-2.244 -0.071,-0.538 1.0375,-2.4582 1.446,-2.4987 0.6552,-0.065 1.7388,0.5635 1.7858,1.0364 0.022,0.2252 0.4721,1.3585 0.9995,2.5185 1.9675,4.3332 2.146,4.7623 2.1932,5.2632 0.028,0.2817 0.588,1.7007 1.2477,3.1529 0.66,1.4519 1.5907,3.6612 2.0697,4.9088 0.5033,1.3162 1.6416,3.421 2.7088,5.0133 1.0116,1.5097 1.852,2.8697 1.8672,3.0225 0.015,0.1526 0.7053,0.8113 1.5328,1.4634 0.8277,0.6521 1.7421,1.4339 2.0327,1.7369 0.2904,0.3032 0.6438,0.5396 0.7856,0.5255 0.1421,-0.014 0.7206,0.2632 1.286,0.6159 0.5657,0.3528 2.0913,0.9794 3.391,1.3921 1.3496,0.4286 2.6591,1.07 3.0522,1.4959 0.4727,0.5116 1.1077,0.7717 2.0271,0.8299 1.3096,0.083 2.6052,0.2699 5.2166,0.7536 0.7116,0.1316 2.1836,0.2765 3.2723,0.3214 1.0875,0.046 2.1202,0.1838 2.2936,0.3085 0.1735,0.1247 1.1993,0.1941 2.2782,0.1543 1.0796,-0.041 2.8512,-0.037 3.936,0.01 1.908,0.075 5.0503,-0.5404 9.8184,-1.9213 1.0993,-0.3186 2.5855,-0.702 3.3022,-0.8521 1.5887,-0.3327 2.0775,-0.5555 3.8184,-1.7401 0.7473,-0.5087 1.7732,-1.1397 2.2791,-1.4022 0.5065,-0.2626 1.2018,-0.935 1.5453,-1.494 0.3429,-0.5592 1.2933,-1.9515 2.11,-3.0941 0.8185,-1.1425 1.605,-2.5376 1.7478,-3.0999 0.144,-0.5625 0.5355,-1.8255 0.8704,-2.8062 0.3342,-0.981 0.5892,-1.9839 0.5649,-2.2287 -0.024,-0.2448 0.4247,-1.302 0.9991,-2.3494 0.9578,-1.75 1.7336,-3.8705 1.4024,-3.8375 -0.079,0.01 0.079,-0.5124 0.3454,-1.1555 0.6008,-1.4559 0.9268,-3.7891 0.8399,-6.0342 -0.1114,-2.9125 0.3402,-4.3457 1.403,-4.4515 1.0122,-0.1003 1.4925,0.5541 1.9915,2.7125 0.6057,2.6177 0.5721,4.4472 -0.1181,6.3806 -0.3079,0.8653 -0.5467,1.7429 -0.5292,1.9498 0.013,0.2072 -0.1401,0.7812 -0.3516,1.2766 -0.2102,0.4953 -0.3527,1.2312 -0.3153,1.6353 0.034,0.4045 -0.2302,1.5718 -0.5934,2.5945 -0.364,1.0231 -0.6406,2.0748 -0.6145,2.3372 0.026,0.2625 -0.1788,1.4853 -0.4552,2.7174 -0.2765,1.2322 -0.4886,2.3833 -0.4712,2.558 0.017,0.1745 -0.4633,1.4491 -1.0676,2.8325 -0.6052,1.3832 -1.1773,2.8331 -1.2711,3.2219 -0.3736,1.5394 -2.4028,4.2672 -4.5529,6.122 -3.0166,2.6009 -5.7959,3.9017 -10.4022,4.8676 -1.564,0.3279 -3.0634,0.6732 -3.3319,0.7675 -0.2694,0.094 -0.7054,0.084 -0.9701,-0.024 z"
           id="path8157-4-6-6"
           sodipodi:nodetypes="ssssssssssssssssssssssssscsssssssssssssssssssssssssssssssssssssssssssss" /><path
           style="fill:none;stroke:#000000;stroke-width:7.79209;stroke-linecap:round;stroke-linejoin:bevel;stroke-dasharray:none"
           d="m -1098.4363,-5118.417 c 1.933,0.9953 1.503,-1.3986 2.4077,-1.8368 0.2372,-0.1149 0.5538,0.125 0.7847,0 1.7799,-0.9623 2.761,-3.1807 4.9073,-3.7153 0.4133,-0.1034 0.9033,0.2046 1.2797,0 0.4708,-0.255 1.1266,-1.0521 1.6204,-1.1961 1.5835,-0.4614 3.403,-0.3885 5.1676,-0.3885 2.6833,0 7.5586,0.045 9.7967,1.7569 0.4989,0.3822 1.082,1.398 1.683,1.7187 1.0029,0.5371 -0.9608,-1.7094 1.1572,0.4357 0.2157,0.2176 1.8412,2.8716 2.0479,3.2926"
           id="path52692-6-61-9-0"
           sodipodi:nodetypes="cscsssssssc" /><path
           style="fill:none;stroke:#000000;stroke-width:7.79209;stroke-linecap:round;stroke-linejoin:bevel;stroke-dasharray:none"
           d="m -1026.3469,-5112.6506 c -0.038,-1.0666 3.3136,-0.2459 4.1863,-0.4648 0.9124,-0.2291 1.3066,-1.0389 2.196,-1.3539 0.7056,-0.2503 1.4865,-0.2183 2.1958,-0.459 0.7336,-0.2495 1.609,-1.2064 2.2546,-1.3743 0.4122,-0.1071 0.8574,0.073 1.2772,0 1.0501,-0.1846 3.1797,-0.9467 4.0895,-1.3938 0.3648,-0.1799 0.504,-0.6805 0.8599,-0.8803"
           id="path52694-2-1-7-9"
           sodipodi:nodetypes="cssssssc" /><path
           style="fill:none;stroke:#000000;stroke-width:7.79209;stroke-linecap:round;stroke-linejoin:bevel;stroke-dasharray:none"
           d="m -1136.3628,-5113.5746 c -0.7861,-5.1034 0.3635,-0.998 -1.3156,-3.5611 -0.153,-0.2338 0.1276,-0.5987 0,-0.8402 -0.102,-0.1839 -0.2883,-0.2952 -0.4339,-0.4429 -0.1505,-0.6177 -0.2232,-1.2616 -0.4541,-1.8532 -1.105,-2.8265 -4.7631,-6.3262 -7.07,-8.2057"
           id="path52696-9-5-5-3"
           sodipodi:nodetypes="csscsc" /><path
           style="fill:none;stroke:#000000;stroke-width:6.41125;stroke-linecap:round;stroke-linejoin:bevel;stroke-dasharray:none;stroke-opacity:1"
           d="m -1065.1246,-5115.5766 c 0,-4.2662 1.4733,-9.8955 4.6731,-13.0952 3.1997,-3.1996 8.0293,-4.0525 12.2956,-4.0525 4.2657,0 9.4718,2.7996 12.7624,6.0248 3.2907,3.2253 5.0548,6.1476 5.0548,10.4138 0,4.2661 -2.1547,8.6392 -5.4515,12.021 -3.2968,3.3817 -8.7006,6.0238 -12.9663,6.0238 -4.2663,0 -8.3341,-1.9891 -11.2926,-5.2516 -2.9586,-3.2625 -5.0755,-7.818 -5.0755,-12.0841 z"
           id="path297192-7-2-6-8-0"
           sodipodi:nodetypes="csssc"
           inkscape:path-effect="#path-effect12029"
           inkscape:original-d="m -1064.8569,-5115.5571 c 0,-8.5323 8.5327,-17.0647 17.0652,-17.0647 8.5315,0 17.0641,8.5324 17.0641,17.0647 0,8.5322 -8.5326,17.0646 -17.0641,17.0646 -8.5325,0 -17.0652,-8.5324 -17.0652,-17.0646 z" /><path
           style="fill:none;stroke:#000000;stroke-width:6.41125;stroke-linecap:round;stroke-linejoin:bevel;stroke-dasharray:none;stroke-opacity:1"
           d="m -1133.6277,-5115.3224 c 0,-4.2661 1.2242,-9.8954 4.424,-13.0951 3.1997,-3.1996 7.8944,-4.0525 12.1606,-4.0525 4.2658,0 9.0808,2.7996 12.4128,6.0248 3.3321,3.2253 4.5615,6.1476 4.5615,10.4137 0,4.2661 -2.0437,8.6392 -5.0884,12.021 -3.0447,3.3817 -6.6404,6.0238 -10.9061,6.0238 -4.2663,0 -8.5169,-1.9891 -11.8291,-5.2516 -3.3123,-3.2625 -5.7353,-7.818 -5.7353,-12.0841 z"
           id="path297192-7-2-6-8-0-7"
           sodipodi:nodetypes="csssc"
           inkscape:path-effect="#path-effect12029-9"
           inkscape:original-d="m -1133.5785,-5115.3029 c 0,-8.5322 8.5327,-17.0646 17.0652,-17.0646 8.5315,0 17.0641,8.5324 17.0641,17.0646 0,8.5322 -8.5326,17.0646 -17.0641,17.0646 -8.5325,0 -17.0652,-8.5324 -17.0652,-17.0646 z" /></g></g></g></svg>
