<?xml version="1.0" encoding="UTF-8" standalone="no"?>
<!-- Created with Inkscape (http://www.inkscape.org/) -->

<svg
   version="1.1"
   id="svg176"
   width="1355.0576"
   height="863.51807"
   viewBox="0 0 1355.0576 863.51807"
   sodipodi:docname="website for ai.svg"
   xml:space="preserve"
   inkscape:version="1.2.2 (b0a8486541, 2022-12-01)"
   xmlns:inkscape="http://www.inkscape.org/namespaces/inkscape"
   xmlns:sodipodi="http://sodipodi.sourceforge.net/DTD/sodipodi-0.dtd"
   xmlns="http://www.w3.org/2000/svg"
   xmlns:svg="http://www.w3.org/2000/svg"><defs
     id="defs180"><linearGradient
       id="linearGradient1486"
       inkscape:swatch="solid"><stop
         style="stop-color:#000000;stop-opacity:1;"
         offset="0"
         id="stop1484" /></linearGradient><inkscape:path-effect
       effect="roughen"
       id="path-effect135136-0"
       is_visible="true"
       lpeversion="1.2"
       method="size"
       max_segment_size="20.373"
       segments="2"
       displace_x="2;1"
       displace_y="2;1"
       global_randomize="1;1"
       handles="along"
       shift_nodes="true"
       fixed_displacement="false"
       spray_tool_friendly="false" /></defs><sodipodi:namedview
     id="namedview178"
     pagecolor="#ffffff"
     bordercolor="#000000"
     borderopacity="0.25"
     inkscape:showpageshadow="2"
     inkscape:pageopacity="0.0"
     inkscape:pagecheckerboard="0"
     inkscape:deskcolor="#d1d1d1"
     showgrid="false"
     showguides="false"
     inkscape:zoom="1.4142136"
     inkscape:cx="3687.5619"
     inkscape:cy="6227.4894"
     inkscape:window-width="1920"
     inkscape:window-height="1011"
     inkscape:window-x="0"
     inkscape:window-y="0"
     inkscape:window-maximized="1"
     inkscape:current-layer="g182"><inkscape:grid
       type="xygrid"
       id="grid2722" /></sodipodi:namedview><g
     inkscape:groupmode="layer"
     inkscape:label="Image"
     id="g182"
     transform="translate(-8147.1639,-4354.1704)"><g
       id="g39383"><rect
         style="opacity:0;fill:#000000;fill-opacity:1;stroke:#000000;stroke-width:0;stroke-linecap:round;stroke-linejoin:bevel;stroke-dasharray:none;stroke-opacity:1"
         id="rect149499-7-6-7-1-3"
         width="1355.0571"
         height="863.51813"
         x="8147.1641"
         y="4354.1704" /><path
         style="fill:#000000;fill-opacity:1;stroke:#000000;stroke-width:30;stroke-linecap:round;stroke-linejoin:round;stroke-dasharray:none;stroke-opacity:1"
         id="path134988-9"
         inkscape:path-effect="#path-effect135136-0"
         sodipodi:type="arc"
         sodipodi:cx="8804.6602"
         sodipodi:cy="5168.2012"
         sodipodi:rx="185.8199"
         sodipodi:ry="34.312881"
         d="m 8991.2465,5168.225 c 0,1.895 -1.9755,3.1861 -3.5756,4.9976 -1.9682,1.257 -2.7779,3.7862 -5.8169,5.4934 -2.0914,2.0502 -7.5917,3.1594 -12.3879,4.84 -4.6744,1.1135 -9.6541,2.728 -15.2103,4.1371 -5.8359,1.122 -11.7397,2.744 -18.3623,4.0128 -6.732,1.2623 -13.6135,2.6618 -21.2659,3.7629 -7.4414,1.2892 -16.3428,1.5228 -24.9629,2.3955 -8.8121,0.2618 -16.6403,1.8857 -25.7236,2.5698 -8.7266,0.9356 -19.0925,1.228 -29.1378,1.5742 -9.8536,0.3396 -19.6511,0.6801 -29.8277,0.6801 -10.2626,0 -20.2909,-0.1398 -30.1068,-0.4384 -9.7878,-0.2835 -19.3509,-0.736 -28.6053,-1.3105 -9.2042,-0.5688 -18.6198,-2.4556 -27.1736,-3.2819 -8.7597,-1.9794 -16.6513,-2.4007 -24.1829,-3.3828 -7.8907,-1.6822 -14.1047,-2.0069 -20.7056,-3.1264 -6.3946,-1.1479 -13.3008,-2.3963 -19.1047,-3.7259 -5.6321,-1.2665 -10.7144,-2.6384 -15.1722,-4.0871 -4.4177,-1.418 -8.1944,-2.9152 -11.3167,-4.5216 -3.0426,-1.5507 -3.8862,-3.235 -5.5471,-5.0196 -1.6445,-1.7671 -4.4277,-5.0544 -4.4277,-6.9488 0,-1.8951 0.9703,-3.6718 2.5742,-5.4589 1.7272,-1.704 3.9953,-3.4339 7.0358,-5.0842 3.1191,-1.6069 7.8384,-2.8434 12.2415,-4.3641 5.2166,-1.0375 8.9487,-2.9871 14.2302,-4.3068 5.591,-1.547 11.8061,-2.8036 18.522,-4.0264 6.7086,-1.3045 13.8186,-2.6287 21.5106,-3.6436 7.5805,-1.3001 15.6716,-2.1985 24.2519,-2.9609 8.3535,-1.0529 17.4664,-2.0639 26.8034,-2.5266 9.1547,-1.1599 18.73,-0.7357 28.5951,-0.7675 9.8223,-0.032 19.983,0.141 30.2268,0.141 10.2625,0 20.126,-0.8323 29.9368,-0.5361 9.6972,-0.6873 20.6417,1.1002 29.9577,1.6987 9.9479,0.9135 17.6471,1.4771 25.8242,2.2809 8.6962,1.0461 16.9664,2.1233 24.5656,3.1711 7.9944,1.3854 15.6276,2.2766 22.1895,3.4883 7.4269,1.2903 11.8649,1.7953 17.1877,3.1174 5.5026,0.826 11.4992,3.2331 16.0448,4.9174 4.6764,1.7793 7.6194,1.8403 10.5703,3.5579 3.0132,0.5265 6.0108,4.4931 7.6385,6.9456 1.3425,2.0229 2.7069,3.9708 2.7069,5.7364 z" /></g></g></svg>
