<?xml version="1.0" encoding="UTF-8" standalone="no"?>
<!-- Created with Inkscape (http://www.inkscape.org/) -->

<svg
   version="1.1"
   id="svg176"
   width="1355.0566"
   height="863.51855"
   viewBox="0 0 1355.0567 863.51855"
   sodipodi:docname="website for ai.svg"
   xml:space="preserve"
   inkscape:version="1.2.2 (b0a8486541, 2022-12-01)"
   xmlns:inkscape="http://www.inkscape.org/namespaces/inkscape"
   xmlns:sodipodi="http://sodipodi.sourceforge.net/DTD/sodipodi-0.dtd"
   xmlns="http://www.w3.org/2000/svg"
   xmlns:svg="http://www.w3.org/2000/svg"><defs
     id="defs180"><linearGradient
       id="linearGradient1486"
       inkscape:swatch="solid"><stop
         style="stop-color:#000000;stop-opacity:1;"
         offset="0"
         id="stop1484" /></linearGradient><inkscape:path-effect
       effect="roughen"
       id="path-effect8893-6-7"
       is_visible="true"
       lpeversion="1.2"
       method="segments"
       max_segment_size="10"
       segments="2"
       displace_x="0;1"
       displace_y="3;1306304177"
       global_randomize="1;1"
       handles="along"
       shift_nodes="true"
       fixed_displacement="false"
       spray_tool_friendly="false" /><inkscape:path-effect
       effect="roughen"
       id="path-effect8891-8-7"
       is_visible="true"
       lpeversion="1.2"
       method="segments"
       max_segment_size="10"
       segments="2"
       displace_x="0;1"
       displace_y="3;910326471"
       global_randomize="1;1"
       handles="along"
       shift_nodes="true"
       fixed_displacement="false"
       spray_tool_friendly="false" /></defs><sodipodi:namedview
     id="namedview178"
     pagecolor="#ffffff"
     bordercolor="#000000"
     borderopacity="0.25"
     inkscape:showpageshadow="2"
     inkscape:pageopacity="0.0"
     inkscape:pagecheckerboard="0"
     inkscape:deskcolor="#d1d1d1"
     showgrid="false"
     showguides="false"
     inkscape:zoom="0.12767102"
     inkscape:cx="15485.111"
     inkscape:cy="-11341.649"
     inkscape:window-width="1920"
     inkscape:window-height="1011"
     inkscape:window-x="0"
     inkscape:window-y="0"
     inkscape:window-maximized="1"
     inkscape:current-layer="g182"><inkscape:grid
       type="xygrid"
       id="grid2722" /></sodipodi:namedview><g
     inkscape:groupmode="layer"
     inkscape:label="Image"
     id="g182"
     transform="translate(-18081.56,10829.113)"><g
       id="g53497"><path
         id="rect149499-7-6-7-1-2-26-3-2"
         style="opacity:0;stroke:#000000;stroke-width:0;stroke-linecap:round;stroke-linejoin:bevel"
         d="m 18081.56,-10829.113 h 1355.057 v 863.5179 H 18081.56 Z" /><path
         id="rect1489-8-6-9-0-0-1-5-3-0-52-3-9"
         d="m 18915.688,-10384.064 14.373,-0.547 16.338,0.245 13.364,-0.417 14.829,-0.265 15.032,0.02 15.133,0.216 14.122,-0.56 15.762,0.298 14.213,0.05 15.112,0.224 14.528,0.05 14.813,0.05 14.324,-1.134 14.885,-0.578 15.697,0.199 14.296,0.191 14.812,0.195 14.852,0.225 16.405,0.244 12.885,-1.228 15.18,0.389 14.713,0.356 15.748,0.709 13.749,0.06 14.821,0.17 h 14.677 l 14.718,0.131 14.912,0.01 -0.109,13.929 -0.02,14.153 -0.188,13.116 1.133,15.393 0.191,13.936 0.388,14.196 0.904,13.831 -0.658,13.34 0.139,14.863 -0.608,12.467 -0.121,15.571 0.527,13.978 -0.774,13.727 0.159,14.731 -1.07,13.467 -14.867,-0.07 -15.163,-1.202 -14.644,-0.462 -14.87,-0.923 -14.586,-0.637 -14.746,-1.311 -14.775,-0.459 -14.745,0.288 -13.249,0.572 -15.716,0.376 -15.604,-1.526 -14.721,0.262 -14.391,0.611 -15.186,0.259 -13.92,0.559 -15.579,0.32 -13.935,0.496 -15.683,0.25 -15.046,-0.195 -14.041,0.551 -15.112,0.442 -14.627,0.53 -14.591,0.611 -14.235,0.528 -16.165,-0.865 -14.361,0.495 -15.162,-0.134 -13.415,1.021 0.997,-13.597 -0.154,-15.08 -0.257,-13.553 0.492,-13.822 -0.272,-14.231 -0.233,-15.25 -0.104,-12.609 0.162,-13.879 -0.377,-14.666 -0.417,-13.933 0.915,-13.229 -0.611,-14.758 -0.599,-13.986 -0.33,-13.785 z"
         style="fill:none;fill-opacity:1;stroke:#000000;stroke-width:12.8337;stroke-linecap:round;stroke-linejoin:round;stroke-dasharray:none;stroke-dashoffset:0;stroke-opacity:1" /><path
         d="m 19060.803,-10324.058 q -4.418,-4.652 -4.418,-15.849 0,-10.094 4.181,-17.191 2.761,-4.731 6.469,-4.731 3.55,0 3.55,7.964 0,4.968 -1.735,12.696 -1.657,7.649 -5.128,15.692 2.051,2.287 4.891,2.287 -0.394,1.577 -2.367,1.577 -1.893,0 -3.787,-1.025 -3.786,7.964 -8.441,12.853 -4.654,4.889 -9.546,4.889 -10.019,0 -10.019,-10.567 0,-5.44 2.288,-13.089 2.288,-7.649 4.576,-15.377 2.288,-7.807 2.288,-13.405 0,-5.678 -2.919,-8.753 -2.919,-3.075 -8.047,-3.075 -7.889,0 -12.859,8.043 -3.866,6.387 -3.866,13.484 0,8.989 5.286,11.434 1.577,0.709 3.392,0.709 6.075,0 9.23,-6.781 0.157,-0.316 0.473,-0.316 0.395,-0.08 0.632,0.157 0.315,0.237 0.157,0.552 -1.499,3.707 -4.181,5.993 -2.683,2.208 -6.312,2.208 -7.1,0 -9.624,-7.175 -1.026,-3.076 -1.026,-6.94 0,-3.864 1.657,-8.674 3.077,-9.068 9.861,-12.774 3.392,-1.814 7.179,-1.814 7.258,0 11.124,4.968 3.866,4.889 3.866,13.011 0,5.914 -2.052,13.721 -1.972,7.806 -4.023,14.982 -2.051,7.176 -2.051,10.803 0,3.627 1.025,5.205 1.105,1.498 3.866,1.498 4.497,0 8.678,-4.731 4.26,-4.732 7.731,-12.459 z m 7.652,-30.438 q 0,-4.81 -1.814,-4.81 -1.736,0 -3.314,3.628 -2.998,6.702 -2.998,16.401 0,7.413 1.973,11.513 5.286,-13.563 6.074,-24.602 0.08,-1.104 0.08,-2.13 z"
         id="path423387"
         style="font-size:53.3333px;font-family:'Rouge Script';-inkscape-font-specification:'Rouge Script, Normal';white-space:pre;stroke-width:16.776;stroke-linecap:round;stroke-linejoin:round" /><path
         d="m 19079.579,-10306.552 q -6.233,0 -6.233,-9.384 0,-5.441 2.841,-11.907 3.944,-8.753 10.019,-11.434 2.13,-0.867 4.26,-0.867 2.209,0 3.471,1.262 1.262,1.261 1.262,2.838 0,0.71 -0.789,0.71 -0.71,-0.08 -0.71,-0.788 0,-0.71 -0.789,-1.262 -0.71,-0.631 -2.13,-0.631 -4.97,0 -8.993,8.911 -3.787,8.279 -3.787,15.692 0,4.573 1.972,4.573 2.052,0 4.892,-3.391 2.918,-3.469 5.364,-8.043 5.286,-9.62 6.232,-12.38 0.947,-2.76 2.052,-2.76 1.972,0 1.972,3.312 0,1.025 -0.237,2.366 -2.603,12.617 -2.84,14.588 -0.157,1.971 -0.157,2.839 0,3.785 1.814,3.785 2.052,0 5.759,-5.441 3.708,-5.441 6.391,-10.882 l 2.682,-5.441 h 2.13 q -0.473,0.946 -1.262,2.602 -0.71,1.577 -2.919,5.756 -2.209,4.101 -4.26,7.255 -1.973,3.154 -4.497,5.756 -2.446,2.524 -4.26,2.524 -5.838,0 -5.838,-8.517 0,-2.838 0.631,-6.623 h -0.552 q -8.047,14.982 -13.491,14.982 z"
         id="path423389"
         style="font-size:53.3333px;font-family:'Rouge Script';-inkscape-font-specification:'Rouge Script, Normal';white-space:pre;stroke-width:16.776;stroke-linecap:round;stroke-linejoin:round" /><path
         d="m 19131.095,-10356.073 q 2.84,-7.412 2.84,-10.093 0,-2.681 -1.341,-2.839 -3.708,0 -7.732,11.907 -3.944,11.828 -6.232,24.603 -2.209,12.695 -2.209,17.979 0,8.91 4.418,8.91 0,0.552 -0.71,1.104 -0.71,0.552 -1.657,0.552 -6.469,0 -6.469,-11.591 0,-4.259 1.578,-13.011 1.578,-8.832 4.102,-18.452 2.525,-9.621 6.548,-16.718 4.023,-7.175 8.205,-7.175 3.313,0 3.313,4.179 0,3.154 -1.972,8.832 -3.787,11.039 -10.887,22.079 -1.893,2.918 -3.392,4.731 -0.395,0.473 -0.395,-0.315 -0.08,-1.498 0.71,-2.602 6.469,-9.7 11.282,-22.08 z"
         id="path423391"
         style="font-size:53.3333px;font-family:'Rouge Script';-inkscape-font-specification:'Rouge Script, Normal';white-space:pre;stroke-width:16.776;stroke-linecap:round;stroke-linejoin:round" /><path
         d="m 19140.956,-10353.865 q 1.814,0 1.814,2.445 0,2.444 -2.366,3.942 -1.184,0.789 -2.052,0.789 -1.262,0 -1.498,-0.789 l -0.08,-0.236 q 0.71,0 1.026,-1.498 0.315,-1.577 0.946,-3.076 0.71,-1.577 2.209,-1.577 z m -5.049,45.342 q 2.051,0 5.759,-5.441 3.708,-5.441 6.39,-10.882 l 2.682,-5.441 h 2.13 q -0.473,0.946 -1.262,2.602 -0.71,1.577 -2.919,5.756 -2.209,4.101 -4.26,7.255 -1.972,3.154 -4.497,5.756 -2.445,2.524 -4.26,2.524 -5.838,0 -5.838,-7.57 0,-5.678 3.235,-18.452 0.315,-1.341 0.473,-2.051 0.237,-0.709 0.474,-1.813 0.236,-1.183 0.473,-2.129 0.394,-1.656 1.42,-1.656 1.42,0 2.051,2.05 0.316,0.946 0.316,2.287 0,1.34 -0.316,2.839 -0.316,1.419 -1.026,4.258 -0.71,2.838 -1.104,4.652 -0.394,1.814 -0.868,4.416 -0.868,4.337 -0.868,7.728 0,3.312 1.815,3.312 z"
         id="path423393"
         style="font-size:53.3333px;font-family:'Rouge Script';-inkscape-font-specification:'Rouge Script, Normal';white-space:pre;stroke-width:16.776;stroke-linecap:round;stroke-linejoin:round" /><path
         d="m 19178.823,-10350.868 q -2.287,8.279 -3.628,13.799 -1.263,5.441 -2.841,12.696 -1.498,7.176 -1.498,11.513 0,4.337 1.972,4.337 2.13,0 5.838,-5.441 3.786,-5.441 6.469,-10.882 l 2.603,-5.441 h 2.13 q -0.473,0.946 -1.262,2.602 -0.71,1.577 -2.919,5.756 -2.209,4.101 -4.26,7.255 -1.972,3.154 -4.497,5.756 -2.524,2.524 -4.339,2.524 -5.68,0 -5.68,-8.359 0,-3.075 0.868,-8.043 h -0.631 q -8.757,16.244 -14.201,16.244 -6.232,0 -6.232,-9.384 0,-5.441 2.84,-11.907 3.944,-8.753 10.019,-11.434 2.13,-0.867 4.26,-0.867 2.209,0 3.471,1.262 1.263,1.261 1.263,2.838 0,0.71 -0.789,0.71 -0.71,-0.08 -0.71,-0.788 0,-0.71 -0.789,-1.262 -0.71,-0.631 -2.13,-0.631 -4.97,0 -8.994,8.911 -3.787,8.279 -3.787,15.692 0,4.573 1.973,4.573 2.682,0 6.706,-5.835 4.023,-5.835 7.021,-12.538 3.076,-6.702 4.339,-12.222 1.341,-5.599 4.023,-15.219 1.736,-6.23 4.576,-6.23 0.631,0 0.946,0.473 0.316,0.395 0.237,0.868 -0.08,0.394 -2.367,8.674 z"
         id="path423395"
         style="font-size:53.3333px;font-family:'Rouge Script';-inkscape-font-specification:'Rouge Script, Normal';white-space:pre;stroke-width:16.776;stroke-linecap:round;stroke-linejoin:round" /><path
         d="m 19224.58,-10327.922 q 0,7.019 2.209,7.019 -0.08,0.946 -1.341,0.946 -1.972,0 -2.998,-2.366 -0.947,-2.444 -0.947,-6.072 -3.155,1.341 -6.547,1.577 -4.261,26.574 -7.259,36.352 -4.575,15.377 -10.965,15.377 -4.26,0 -4.26,-4.416 0,-1.971 0.867,-4.889 2.446,-8.201 9.073,-17.111 3.077,-4.101 5.364,-5.914 0.474,-2.997 1.499,-9.463 1.026,-6.545 1.578,-9.936 h -2.13 q -0.394,0 -0.394,-0.709 0,-0.789 0.394,-0.789 h 2.367 q 3.866,-24.681 8.204,-33.986 1.657,-3.706 3.945,-6.151 2.288,-2.444 4.97,-2.444 4.97,0 4.97,7.254 0,5.914 -3.629,12.775 -4.418,8.279 -10.571,10.172 l -1.815,0.394 q -0.71,3.864 -1.972,11.907 3.314,-0.236 6.39,-1.734 0.395,-4.18 1.894,-7.097 1.578,-2.997 3.944,-2.997 1.894,0 1.894,2.208 0,4.179 -4.655,7.728 -0.08,1.183 -0.08,2.365 z m 2.919,-24.05 q 3.55,-6.861 3.55,-11.986 0,-5.126 -2.524,-5.126 -3.55,0 -6.075,6.94 -2.524,6.86 -4.891,19.792 5.68,-1.262 9.94,-9.62 z m -20.117,46.839 q -4.497,4.653 -8.599,13.327 -4.103,8.674 -4.103,11.592 0,2.996 1.736,2.996 3.629,0 6.154,-7.255 2.524,-7.254 4.812,-20.66 z m 17.514,-27.283 q 1.42,-1.341 2.13,-2.839 0.789,-1.498 0.789,-2.366 0,-0.946 -0.474,-1.104 -1.735,0 -2.445,6.309 z"
         id="path423397"
         style="font-size:53.3333px;font-family:'Rouge Script';-inkscape-font-specification:'Rouge Script, Normal';white-space:pre;stroke-width:16.776;stroke-linecap:round;stroke-linejoin:round" /><path
         d="m 19235.388,-10317.04 q 0,8.28 4.418,8.28 2.998,0 5.601,-3.706 4.97,-6.939 6.075,-18.294 -2.761,-1.183 -3.866,-3.864 -0.71,-1.656 -0.71,-2.76 0,-1.183 0.316,-2.05 0.71,-2.129 2.603,-2.129 1.894,0 2.84,2.444 1.026,2.366 1.026,6.072 0,0.236 0,0.552 0.946,0.315 2.761,0.315 1.893,0 3.313,-1.498 1.42,-1.498 1.42,-2.76 0,-0.315 0.395,-0.394 0.394,-0.157 0.71,0 0.394,0.157 0.394,0.473 0,2.287 -1.972,4.337 -1.893,2.05 -5.128,2.05 -0.789,0 -2.051,-0.157 -0.473,5.362 -2.288,10.645 -1.735,5.205 -4.891,9.069 -3.156,3.785 -6.785,3.785 -6.863,0 -8.441,-7.334 -0.394,-2.129 -0.394,-4.337 0,-4.968 2.287,-10.645 2.998,-7.412 7.416,-9.226 2.288,-0.789 3.156,-0.237 0.867,0.552 1.104,1.262 -3.629,0 -6.469,6.782 -2.84,6.781 -2.84,13.326 z"
         id="path423399"
         style="font-size:53.3333px;font-family:'Rouge Script';-inkscape-font-specification:'Rouge Script, Normal';white-space:pre;stroke-width:16.776;stroke-linecap:round;stroke-linejoin:round" /><path
         d="m 19263.473,-10306.631 q -2.209,0 -2.209,-3.391 0,-1.813 4.418,-26.416 0.316,-1.656 1.42,-1.656 1.42,0 2.13,2.05 0.395,1.104 0.395,2.445 0,1.262 -0.316,2.76 l -1.262,6.466 h 0.394 q 6.785,-15.771 12.465,-15.771 3.156,0 4.181,3.075 0.395,1.183 0.395,2.76 0,1.498 -0.868,3.312 -1.499,3.075 -4.497,3.075 -0.631,0 -1.025,-0.315 -0.316,-0.315 -0.395,-0.867 0.631,0 1.657,-2.287 1.025,-2.366 1.183,-4.337 0.157,-1.972 -1.341,-2.287 -2.761,0 -6.548,7.176 -3.787,7.175 -6.074,13.721 -2.288,6.544 -2.683,8.516 -0.394,1.971 -1.42,1.971 z"
         id="path423401"
         style="font-size:53.3333px;font-family:'Rouge Script';-inkscape-font-specification:'Rouge Script, Normal';white-space:pre;stroke-width:16.776;stroke-linecap:round;stroke-linejoin:round" /><path
         d="m 19026.011,-10248.314 -4.733,5.125 c -0.888,1.085 -2.17,1.676 -3.747,1.774 -3.156,0 -4.832,-1.478 -4.931,-4.534 v -0.394 c 0,-1.281 0.394,-2.267 1.183,-3.154 3.649,-4.238 7.396,-8.28 11.242,-12.025 1.48,-1.479 2.86,-2.465 4.142,-3.056 l 1.381,-0.197 c 0.69,0 1.479,0.197 2.366,0.493 2.367,1.281 3.551,3.45 3.649,6.505 0.1,0.197 0.1,0.789 0.1,1.774 l -0.197,3.45 -0.789,6.802 c -0.493,3.844 -1.676,11.729 -3.747,23.459 l -3.649,21.291 c -0.1,2.759 -1.775,4.139 -4.832,4.139 h -0.69 c -2.86,-0.394 -4.241,-1.971 -4.241,-4.731 0,-0.394 0,-0.69 0.1,-0.789 0.691,-4.632 1.874,-11.729 3.55,-21.29 1.578,-8.871 2.762,-16.658 3.649,-23.262 z"
         style="font-size:53.3333px;font-family:'Canted Comic';-inkscape-font-specification:'Canted Comic, Normal';white-space:pre;stroke-width:16.776;stroke-linecap:round;stroke-linejoin:round"
         id="path423404" /><path
         d="m 19107.407,-10199.424 c 0,2.523 -1.104,3.863 -3.392,4.1 -0.08,0.08 -0.237,0.08 -0.474,0.08 -2.287,0 -3.628,-1.183 -3.944,-3.549 -1.026,-8.91 -1.736,-17.821 -2.051,-26.653 -0.237,-2.996 -0.316,-6.781 -0.316,-11.276 0,-6.229 0.157,-11.986 0.552,-17.111 -10.808,0.946 -18.697,1.892 -23.746,2.917 -0.08,0.08 -0.394,0.08 -0.789,0.08 -2.051,0 -3.313,-1.104 -3.707,-3.312 -0.08,-0.157 -0.08,-0.473 -0.08,-0.867 0,-2.13 1.105,-3.47 3.235,-3.864 5.601,-1.183 15.225,-2.287 28.874,-3.47 12.701,-1.104 21.931,-2.366 27.848,-3.864 0.157,-0.08 0.473,-0.08 0.868,-0.08 1.972,0 3.313,1.104 3.866,3.233 0.08,0.157 0.08,0.473 0.08,0.946 0,2.05 -1.026,3.391 -3.077,3.943 -6.469,1.419 -14.91,2.602 -25.403,3.627 -0.473,6.072 -0.71,11.986 -0.71,17.9 0,3.312 0.08,6.624 0.237,9.936 0.316,9.541 1.026,18.452 2.13,26.731 z"
         id="path423406"
         style="font-size:42.6667px;font-family:'Canted Comic';-inkscape-font-specification:'Canted Comic, Normal';white-space:pre;stroke-width:16.776;stroke-linecap:round;stroke-linejoin:round" /><path
         d="m 19182.432,-10254.386 v -1.341 c -6.863,0.395 -13.095,1.814 -18.618,4.258 -11.755,5.284 -20.038,12.538 -25.008,21.843 -2.13,4.337 -3.314,8.201 -3.472,11.75 v 0.63 c 0,7.649 4.734,12.617 14.201,14.904 2.051,0.552 5.207,0.788 9.388,0.788 1.341,0 2.209,0 2.524,-0.08 8.047,-0.867 15.068,-3.391 21.064,-7.57 0.71,-0.394 1.499,-0.631 2.209,-0.631 0.395,0 0.71,0 0.789,0.08 2.13,0.394 3.156,1.734 3.156,4.021 0,0.394 0,0.71 -0.08,0.868 -0.236,1.025 -0.789,1.892 -1.656,2.602 -7.258,4.889 -15.463,7.806 -24.693,8.832 -0.395,0.08 -1.42,0.08 -3.077,0.08 -2.051,0 -3.392,0 -4.102,-0.08 -3.077,-0.237 -5.523,-0.474 -7.258,-0.868 -13.491,-3.391 -20.275,-11.118 -20.275,-23.025 v -0.868 c 0.394,-10.014 5.207,-19.635 14.437,-28.703 8.283,-7.964 18.855,-13.248 31.793,-15.929 3.077,-0.709 5.68,-1.025 7.889,-1.104 h 0.394 c 3.077,0 5.365,0.71 6.864,2.051 0.868,0.709 1.341,1.734 1.499,3.075 0.08,0.946 0.157,1.577 0.157,1.893 l -0.394,3.706 -1.184,6.939 c -0.315,2.287 -1.578,3.391 -3.708,3.391 -0.394,0 -0.631,0 -0.71,-0.08 -2.209,-0.315 -3.313,-1.577 -3.313,-3.785 0,-0.394 0,-0.709 0.08,-0.867 z"
         id="path423408"
         style="font-size:42.6667px;font-family:'Canted Comic';-inkscape-font-specification:'Canted Comic, Normal';white-space:pre;stroke-width:16.776;stroke-linecap:round;stroke-linejoin:round" /><path
         d="m 19241.601,-10261.641 c 0.394,0.157 0.71,0.316 0.788,0.394 0.947,0.395 1.657,1.026 2.052,1.893 0.631,0.552 1.025,1.025 1.262,1.577 2.367,4.968 3.866,10.488 4.418,16.638 0.157,1.735 0.236,3.47 0.236,5.205 0,11.513 -2.761,21.212 -8.362,29.176 -1.814,2.839 -4.26,5.283 -7.258,7.334 -5.365,4.021 -10.887,6.071 -16.488,6.15 h -0.474 c -10.098,0 -17.356,-7.176 -19.249,-17.506 -0.394,-2.602 -0.631,-4.967 -0.631,-7.096 0,-2.918 0.237,-5.52 0.789,-7.807 0.947,-5.126 2.524,-9.936 4.812,-14.352 3.235,-7.175 7.653,-13.247 13.254,-18.057 2.761,-2.287 5.917,-4.022 9.309,-5.205 2.13,-0.552 4.181,-0.867 6.075,-0.867 3.076,0 5.68,0.552 7.81,1.735 z m -2.762,7.57 c -0.631,-0.236 -1.262,-0.473 -1.814,-0.788 -0.868,-0.473 -1.657,-0.789 -2.209,-0.947 l -2.525,-0.157 c -7.336,0 -16.014,6.861 -21.931,19.714 -2.998,6.545 -4.497,12.617 -4.576,18.294 -0.08,0.08 -0.08,0.395 -0.08,0.789 0,10.33 4.812,15.692 12.07,15.692 7.021,0 14.91,-5.52 17.987,-10.015 3.866,-5.598 6.075,-12.459 6.627,-20.581 0.08,-0.552 0.08,-1.892 0.08,-3.942 0,-6.703 -1.183,-12.696 -3.629,-18.058 z"
         id="path423410"
         style="font-size:42.6667px;font-family:'Canted Comic';-inkscape-font-specification:'Canted Comic, Normal';white-space:pre;stroke-width:16.776;stroke-linecap:round;stroke-linejoin:round" /><path
         d="m 19260.85,-10208.02 4.181,-6.387 c 1.026,-1.498 2.761,-3.785 5.128,-6.702 7.81,-9.857 11.676,-16.402 11.676,-19.714 0,-0.473 0,-0.789 -0.08,-0.946 -0.315,-1.656 -1.577,-2.524 -3.865,-2.524 l -1.736,0.157 c -4.181,0.631 -7.337,2.051 -9.625,4.337 -1.656,1.814 -2.84,4.101 -3.628,6.861 -0.553,1.892 -1.736,2.839 -3.708,2.839 l -1.184,-0.157 c -1.893,-0.552 -2.84,-1.814 -2.84,-3.707 l 0.157,-1.182 c 1.184,-4.18 3.077,-7.492 5.523,-10.015 3.392,-3.706 8.204,-5.993 14.279,-6.781 0.947,-0.158 1.893,-0.237 2.761,-0.237 6.39,0 10.256,2.918 11.597,8.674 0.157,0.71 0.237,1.498 0.237,2.366 0,5.441 -4.497,13.799 -13.412,24.918 l -4.812,6.229 -3.156,4.968 c 8.126,-1.341 15.305,-2.208 21.616,-2.681 h 0.237 c 2.446,0 3.787,1.183 4.024,3.627 v 0.395 c 0,2.365 -1.184,3.627 -3.629,3.864 -7.18,0.551 -15.384,1.577 -24.457,3.154 -0.08,0 -0.315,0.08 -0.631,0.236 -1.341,0.552 -2.603,0.789 -3.629,0.789 -2.919,0 -4.97,-2.129 -4.97,-4.416 v -0.631 c 0.08,-0.631 0.316,-1.183 0.631,-1.735 z"
         id="path423412"
         style="font-size:42.6667px;font-family:'Canted Comic';-inkscape-font-specification:'Canted Comic, Normal';white-space:pre;stroke-width:16.776;stroke-linecap:round;stroke-linejoin:round" /><path
         style="fill:none;stroke:#000000;stroke-width:20.4422;stroke-linecap:round;stroke-linejoin:round;stroke-dasharray:none"
         d="m 19021.849,-10172.097 c 2.247,6.478 -0.09,7.944 -0.09,14.606 0,1.418 0.934,6.66 0.297,8.096 -1.336,3.013 2.363,8.684 0.555,11.497 -1.221,1.901 -0.737,4.749 -1.424,6.733 -2.355,6.795 -0.692,21.205 -0.692,28.635 0,0.675 3.331,-0.783 6.132,-0.554 17.239,1.324 35.341,0.937 47.168,0.778"
         id="path15109-0-1-67-9-0-6-7-3-6"
         sodipodi:nodetypes="cssssscc" /><path
         style="fill:none;stroke:#000000;stroke-width:20.97;stroke-linecap:round;stroke-linejoin:round;stroke-dasharray:none"
         d="m 19180.246,-10169.62 v 37.264 c 0,4.484 0.437,9.132 -0.726,13.328 -0.47,1.695 -0.533,10.318 0.107,11.011 1.509,1.637 3.295,3.376 5.338,3.132 6.422,-0.761 13.401,-0.467 19.949,-0.259 l 16.966,0.541"
         id="path15111-35-1-3-3-8-0-2-3-4"
         sodipodi:nodetypes="csssssc" /><g
         id="g9189-9-7"
         transform="matrix(1.4739087,0,0,1.4739087,2230.8188,8376.7194)"><path
           style="fill:#000000;fill-opacity:1;stroke-width:1.14365"
           d="m 11337.261,-12629.836 c -0.968,-0.712 -0.816,-1.306 -0.324,-4.116 l 0.724,-3.453 1.49,-5.265 1.468,-6.401 1.144,-4.371 1.906,-6.909 0.968,-4.479 0.735,-2.746 0.745,-2.99 0.627,-1.807 2.062,-8.001 2.013,-0.377 1.818,0.106 3.505,-0.03 1.056,2.604 c 0,0 1.598,5.879 1.602,5.875 l 0.992,4.2 c 0,0 0.941,3.293 1.219,4.833 0.155,0.874 1.03,3.813 1.298,4.809 0.629,1.874 1.007,3.986 1.598,5.722 0.768,2.614 1.294,5.139 1.917,7.463 0.413,1.088 0.92,3.221 0.92,3.221 l 0.97,3.35 c 0,0 0.519,1.768 0.779,2.537 0.806,2.38 0.732,3.154 0.624,4.407 -0.666,1.21 -0.738,0.959 -1.466,1.46 -0.828,0.37 -2.044,-0.1 -2.706,-1.1 -0.496,-0.754 -0.984,-2.354 -0.984,-2.354 l -0.46,-1.548 -0.518,-2.197 -0.886,-3.119 c -0.205,-0.669 -0.53,-1.995 -0.672,-2.688 l -0.583,-2.321 -2.617,1.276 -2.384,1.214 -2.566,1.485 -2.429,1.05 -3.78,1.466 -3.898,2 -1.148,5.091 -0.274,0.558 c 0,0 -1.149,0.863 -1.901,1.351 -1.23,0.817 -1.817,0.694 -2.584,0.194 z m 6.82,-13.329 2.429,-1.189 c 0.722,-0.464 1.942,-0.737 2.729,-1.312 l 1.941,-0.907 2.329,-1.258 2.612,-1.218 c 0,0 2.553,-1.134 3.461,-1.8 l -0.343,-1.46 c -0.256,-0.849 -0.571,-2.173 -0.571,-2.173 l -0.912,-3.09 -0.834,-3.286 -0.524,-2.434 -0.854,-4.006 -0.79,-2.972 -1.044,-4.859 -0.984,0.07 -1.17,0.111 -0.928,4.453 c -0.254,1.166 -0.755,2.937 -0.993,3.919 -0.301,1.329 -0.623,2.361 -0.921,3.622 l -0.449,2.224 -0.248,1.029 -0.779,3.152 -0.814,3.447 -1.654,6.703 z"
           id="path57142-6-9-50-7"
           sodipodi:nodetypes="ccccccccccccccccccccccccsccscccccccccccccccccccccccccccccccccccccccccc" /><path
           style="fill:#000000;fill-opacity:1;stroke:#000000;stroke-width:5;stroke-linecap:round;stroke-linejoin:round;stroke-dasharray:none;stroke-opacity:1"
           d="m 11362.833,-12631.619 4.224,0.651 4.224,-0.505"
           id="path18659-4-6"
           inkscape:path-effect="#path-effect8893-6-7"
           inkscape:original-d="m 11362.833,-12631.619 h 8.448" /><path
           style="fill:#000000;fill-opacity:1;stroke:#000000;stroke-width:5;stroke-linecap:round;stroke-linejoin:round;stroke-dasharray:none;stroke-opacity:1"
           d="m 11335.673,-12631.607 4.224,-0.485 4.224,0.306"
           id="path18659-5-8-7"
           inkscape:path-effect="#path-effect8891-8-7"
           inkscape:original-d="m 11335.673,-12631.607 h 8.448" /></g></g></g></svg>
