<?xml version="1.0" encoding="UTF-8" standalone="no"?>
<!-- Created with Inkscape (http://www.inkscape.org/) -->

<svg
   version="1.1"
   id="svg176"
   width="1355.0566"
   height="863.51758"
   viewBox="0 0 1355.0567 863.51758"
   sodipodi:docname="website for ai.svg"
   xml:space="preserve"
   inkscape:version="1.2.2 (b0a8486541, 2022-12-01)"
   xmlns:inkscape="http://www.inkscape.org/namespaces/inkscape"
   xmlns:sodipodi="http://sodipodi.sourceforge.net/DTD/sodipodi-0.dtd"
   xmlns="http://www.w3.org/2000/svg"
   xmlns:svg="http://www.w3.org/2000/svg"><defs
     id="defs180"><linearGradient
       id="linearGradient1486"
       inkscape:swatch="solid"><stop
         style="stop-color:#000000;stop-opacity:1;"
         offset="0"
         id="stop1484" /></linearGradient></defs><sodipodi:namedview
     id="namedview178"
     pagecolor="#ffffff"
     bordercolor="#000000"
     borderopacity="0.25"
     inkscape:showpageshadow="2"
     inkscape:pageopacity="0.0"
     inkscape:pagecheckerboard="0"
     inkscape:deskcolor="#d1d1d1"
     showgrid="false"
     showguides="false"
     inkscape:zoom="0.022569262"
     inkscape:cx="19960.777"
     inkscape:cy="-3411.7199"
     inkscape:window-width="1920"
     inkscape:window-height="1011"
     inkscape:window-x="0"
     inkscape:window-y="0"
     inkscape:window-maximized="1"
     inkscape:current-layer="g182"><inkscape:grid
       type="xygrid"
       id="grid2722" /></sodipodi:namedview><g
     inkscape:groupmode="layer"
     inkscape:label="Image"
     id="g182"
     transform="translate(-10980.296,11001.631)"><g
       id="g9432"><path
         id="rect149499-7-6-7-1-2-0-1"
         style="opacity:0;stroke:#000000;stroke-width:0;stroke-linecap:round;stroke-linejoin:bevel"
         d="m 10980.296,-11001.631 h 1355.057 v 863.518 h -1355.057 z" /><path
         style="fill:#000000;stroke-width:0.394113"
         d="m 11088.183,-10884.241 c 0.208,-0.62 0.341,-2.166 0.297,-3.436 -0.05,-1.596 0.139,-2.393 0.631,-2.582 0.39,-0.149 0.855,-1.129 1.032,-2.176 0.177,-1.047 0.93,-2.824 1.672,-3.95 0.743,-1.125 1.976,-2.983 2.742,-4.13 0.764,-1.146 1.945,-2.294 2.621,-2.551 0.677,-0.257 2.298,-0.955 3.601,-1.551 4.007,-1.832 5.6,-2.015 7.902,-0.908 1.701,0.818 2.389,1.644 4.15,4.979 2.067,3.913 2.728,6.28 3.367,12.063 0.297,2.694 0.252,2.866 -0.751,2.866 -0.628,0 -1.068,0.316 -1.068,0.765 0,0.61 -0.202,0.657 -0.999,0.231 -0.549,-0.293 -0.997,-0.819 -0.997,-1.169 0,-0.35 -0.45,-1.565 -0.999,-2.699 -0.549,-1.135 -0.998,-2.539 -0.998,-3.12 0,-1.775 -2.519,-5.529 -4.072,-6.07 -0.888,-0.309 -1.419,-0.848 -1.419,-1.441 0,-1.024 -1.664,-0.595 -1.664,-0.595 l -1.15,0.06 -2.498,0.09 -1.49,0.981 c 0,0 0.156,0.344 -0.186,0.755 -0.342,0.411 -0.504,0.748 -0.36,0.748 0.144,0 -0.387,0.692 -1.18,1.539 -0.792,0.848 -1.68,2.429 -1.973,3.515 -0.293,1.085 -1.256,2.25 -1.256,2.25 l -1.362,3.598 c 0,0 -2.017,2.765 -2.937,2.905 -0.875,0.133 -0.976,-0.02 -0.656,-0.97 z"
         id="path52393-0-2-5-23-4-2-0-9-1-6-3"
         sodipodi:nodetypes="sssssssssssssssssssccccssssccsss" /><path
         style="fill:#000000;stroke-width:0.394113"
         d="m 11139.176,-10883.283 c -2.09,-0.321 -2.947,-2.594 -1.285,-6.376 1.13,-2.572 1.325,-3.877 1.325,-3.877 l 0.893,-2.256 c 0,0 0.85,-1.672 1.254,-1.908 0.403,-0.236 1.046,-1.018 1.429,-1.736 2.072,-3.895 5.074,-6.916 6.871,-6.916 3.313,0 7.629,1.541 9.474,3.383 1.772,1.769 3.566,4.586 3.566,5.6 0,0.285 0.377,1.35 0.839,2.369 1.033,2.287 1.266,7.085 0.344,7.085 -0.349,0 -0.854,0.393 -1.122,0.872 -0.483,0.861 -1.468,-0.907 -4.004,-7.189 -1.177,-2.915 -2.228,-3.398 -6.414,-2.95 -0.892,0.1 -2.408,0.201 -3.369,0.235 -1.135,0.04 -1.748,0.307 -1.748,0.76 0,0.384 -1.359,1.18 -1.821,2.517 -0.645,1.865 -0.785,2.246 -0.785,2.246 l -0.388,2.513 c 0,0 -0.499,0.572 -0.499,1.272 0,1.142 -2.376,4.818 -2.996,4.633 -0.136,-0.04 -0.84,-0.166 -1.564,-0.277 z"
         id="path52393-0-3-7-09-7-3-2-8-0-6-9-1"
         sodipodi:nodetypes="ssccsssssssssssssccsss" /><path
         style="fill:#000000;stroke-width:0.295585"
         d="m 11130.471,-10957.187 c 0.671,0.67 8.133,2.336 10.832,2.419 2.991,0.09 15.054,3.813 19.732,6.088 1.561,0.76 2.995,1.871 3.185,2.469 0.19,0.598 1.46,1.685 2.82,2.416 2.785,1.494 6.255,4.92 6.259,6.182 0,0.457 0.926,1.653 2.055,2.657 1.374,1.222 2.404,3.091 3.12,5.661 0.589,2.117 1.924,4.771 2.977,5.923 1.223,1.336 2.485,4.066 3.509,7.583 0.879,3.022 2.402,7.154 3.385,9.182 1.942,4.007 3.669,9.696 4.07,13.405 0.987,9.105 1.723,34.342 1.027,35.19 -0.303,0.369 -0.538,1.425 -0.523,2.346 0.04,2.987 -1.909,16.106 -2.849,19.104 -0.346,1.106 -1.541,4.795 -2.655,8.199 -1.115,3.404 -2.027,7.189 -2.027,8.412 0,1.223 -0.353,2.576 -0.784,3.006 -0.829,0.828 -1.97,3.685 -3.674,9.205 -0.57,1.843 -1.311,3.638 -1.646,3.988 -0.336,0.35 -0.611,1.02 -0.611,1.488 0,0.469 -0.755,2.501 -1.678,4.515 -0.923,2.015 -1.679,3.824 -1.679,4.019 0,0.196 -1.208,2.223 -2.685,4.504 -1.477,2.282 -2.686,4.532 -2.686,5.001 0,0.469 -1.026,1.704 -2.281,2.745 -1.256,1.041 -3.403,3.807 -4.771,6.147 -1.369,2.34 -3.718,5.356 -5.22,6.703 -1.502,1.346 -3.057,2.847 -3.455,3.334 -1.956,2.396 -4.773,4.811 -5.612,4.811 -0.321,0 -1.284,0.745 -2.141,1.655 -0.856,0.911 -1.815,1.496 -2.131,1.301 -1.235,-0.761 -0.493,2.179 0.836,3.314 0.776,0.663 2.46,3.52 3.743,6.349 1.284,2.829 2.812,6.2 3.396,7.49 0.582,1.29 1.809,3.535 2.723,4.988 0.915,1.453 2.076,4.408 2.582,6.568 0.504,2.16 1.334,4.742 1.843,5.737 0.508,0.996 0.782,2.749 0.608,3.896 -0.174,1.147 0.165,3.962 0.753,6.254 0.589,2.293 1.07,4.609 1.07,5.148 0,0.539 0.931,2.967 2.069,5.396 1.138,2.43 2.588,7.695 2.588,7.695 l 0.788,3.545 2.623,14.448 c 0,0 0.432,1.549 0.951,3.032 0.518,1.484 1.13,4.952 1.362,7.708 0.42,5.017 0.979,7.744 2.736,13.39 1.443,4.631 3.513,12.952 3.503,14.076 -0.03,3.83 1.021,11.201 1.9,13.271 0.748,1.756 1.107,5.149 1.233,11.614 0.156,8.087 0.347,9.409 1.669,11.543 1.268,2.048 1.471,3.247 1.355,7.96 l -0.136,5.549 -0.149,14.137 -0.03,2.316 c -0.02,1.273 0.37,5.331 0.871,9.018 1.521,11.192 2.227,15.941 0.55,22.005 -0.351,1.267 -0.445,2.612 -0.211,2.99 0.394,0.632 -0.145,12.521 -0.887,19.588 -0.174,1.659 -0.323,3.856 -0.329,4.881 0,1.025 -0.389,2.534 -0.852,3.351 -0.462,0.818 -1.205,4.654 -1.65,8.525 -0.995,8.641 -1.91,25.978 -3.359,29.039 -0.611,1.29 -1.188,2.949 -1.284,3.687 -0.289,2.243 -6.178,15.936 -7.714,20.103 -1.378,3.741 -1.769,8.765 -4.881,12.684 -0.77,0.971 -2.685,4.352 -4.254,7.515 -1.725,3.477 -4.82,5.763 -6.408,7.196 -1.445,1.303 -2.628,2.649 -2.628,2.99 0,0.341 -1.133,0.984 -2.518,1.429 -1.385,0.445 -4.53,2.133 -6.99,3.751 -2.46,1.617 -4.849,2.796 -7.453,3.944 -3.905,1.722 -4.533,5.217 -4.046,6.125 0.341,0.634 0.338,1.55 0,2.159 -0.364,0.647 -0.286,1.869 0.197,3.15 0.596,1.575 0.604,2.634 0.03,4.287 -0.418,1.207 -0.768,5.893 -0.777,10.412 0,4.52 -0.213,8.538 -0.455,8.929 -2.048,3.308 -3.346,37.661 -1.549,41.011 0.386,0.72 0.833,3.614 0.994,6.431 0.161,2.817 0.31,5.423 0.333,5.792 0.02,0.369 -0.133,2.48 -0.344,4.692 -0.212,2.212 -0.515,5.681 -0.674,7.708 -0.16,2.028 -0.618,4.536 -1.019,5.574 -0.954,2.471 -0.937,8.295 0.03,8.89 0.513,0.316 0.616,1.993 0.322,5.234 l -0.434,4.768 5.553,0.135 c 3.055,0.07 8.167,0.132 11.364,0.129 3.367,0 5.996,0.292 6.25,0.703 0.242,0.39 1.205,0.708 2.142,0.708 0.936,0 2.572,0.618 3.634,1.373 1.062,0.755 3.633,1.649 5.714,1.987 5.666,0.921 6.972,2.726 4.592,6.35 -0.584,0.891 -0.879,2.195 -0.656,2.899 0.698,2.196 -1.307,3.058 -7.573,3.255 -13.293,0.417 -22.732,0.267 -24.456,-0.387 -1.164,-0.442 -1.837,-0.457 -1.837,-0.04 0,0.754 -4.233,0.896 -4.965,0.166 -0.269,-0.269 -2.251,-0.495 -4.405,-0.503 -5.243,-0.02 -6.867,-1.361 -5.939,-4.908 1.205,-4.609 1.366,-6.176 0.719,-7.01 -1.067,-1.378 -1.599,-3.304 -0.773,-2.794 0.506,0.312 0.571,-0.05 0.21,-1.138 -0.29,-0.876 -0.438,-3.251 -0.329,-5.279 0.357,-6.662 0.249,-15.554 -0.347,-28.822 -0.651,-14.484 -0.67,-18.458 -0.1,-20.444 0.211,-0.737 0.431,-1.341 0.488,-1.341 0.05,0 0.218,-5.225 0.358,-11.611 0.139,-6.387 0.43,-12.168 0.645,-12.847 0.216,-0.679 0.09,-1.425 -0.292,-1.658 -0.422,-0.26 -0.548,-2.371 -0.328,-5.476 0.195,-2.779 0.07,-5.405 -0.274,-5.834 -0.348,-0.429 -0.85,-2.439 -1.118,-4.466 -0.266,-2.028 -0.772,-4.041 -1.121,-4.473 -0.401,-0.497 -0.359,-2.305 0.116,-4.919 0.413,-2.273 0.557,-5.014 0.319,-6.09 -0.425,-1.938 -0.467,-1.954 -4.236,-1.601 -5.678,0.532 -18.401,0.542 -25.627,0.02 -5.729,-0.413 -9.111,-1.242 -10.071,-2.468 -0.184,-0.236 -2.517,-1.076 -5.184,-1.867 -4.944,-1.467 -6.173,-2.315 -12.45,-8.599 -3.885,-3.89 -4.616,-4.249 -4.093,-2.01 0.193,0.829 0.347,5.349 0.343,10.043 0,4.809 0.276,8.711 0.644,8.938 0.403,0.248 0.477,3.133 0.194,7.551 -0.604,9.434 -0.604,9.593 0,16.198 0.789,8.488 0.922,19.753 0.306,25.806 -1.326,13.03 -1.37,14.283 -0.559,15.795 0.447,0.835 0.772,3.559 0.72,6.054 -0.05,2.494 0.214,4.725 0.589,4.956 0.376,0.232 0.682,1.399 0.682,2.594 0,1.194 0.301,2.473 0.669,2.84 0.368,0.367 1,2.463 1.405,4.658 0.404,2.195 0.973,4.292 1.265,4.661 0.564,0.716 2.159,13.136 1.869,14.565 -0.1,0.469 -0.466,1.062 -0.824,1.318 -0.359,0.257 -0.507,0.612 -0.328,0.79 0.178,0.178 5.91,0.383 12.738,0.455 17.302,0.182 23.079,1.655 22.307,5.689 -0.176,0.918 -0.605,1.845 -0.954,2.06 -0.356,0.22 -0.146,0.932 0.479,1.622 0.614,0.676 1.163,2.21 1.219,3.408 0.09,1.79 -0.254,2.365 -1.91,3.228 -1.108,0.577 -2.09,1.201 -2.183,1.385 -0.1,0.184 -4.626,0.26 -10.071,0.169 -5.446,-0.09 -12.024,-0.148 -14.615,-0.125 -2.591,0.02 -5.481,-0.251 -6.421,-0.608 -1.095,-0.415 -3.796,-0.419 -7.51,-0.01 -5.413,0.594 -5.895,0.545 -7.175,-0.734 -0.756,-0.754 -1.375,-2.241 -1.375,-3.305 0,-2.308 -1.575,-6.324 -2.225,-5.674 -0.253,0.252 -0.459,-0.726 -0.459,-2.173 0,-1.906 0.37,-2.863 1.342,-3.469 1.442,-0.899 1.881,-4.437 0.644,-5.2 -0.384,-0.237 -0.528,-0.966 -0.32,-1.621 0.893,-2.806 0.505,-26.673 -0.444,-27.258 -0.355,-0.219 -0.286,-0.779 0.164,-1.319 0.5,-0.601 0.605,-1.846 0.293,-3.46 -0.268,-1.386 -0.562,-7.732 -0.655,-14.102 -0.1,-6.37 -0.358,-11.771 -0.59,-12.003 -0.233,-0.233 -0.16,-0.752 0.161,-1.154 1.895,-2.373 3.855,-15.898 2.153,-14.847 -0.336,0.207 -0.46,-0.194 -0.277,-0.89 0.182,-0.697 0.03,-1.447 -0.32,-1.668 -0.418,-0.258 -0.413,-1.514 0.02,-3.528 0.444,-2.081 0.442,-3.933 0,-5.539 -0.369,-1.327 -0.743,-4.976 -0.828,-8.11 -0.186,-6.844 -0.468,-11.527 -0.902,-14.914 -0.178,-1.394 -0.03,-2.513 0.328,-2.513 0.357,0 0.63,-1.433 0.608,-3.184 -0.108,-7.891 -0.07,-8.839 0.37,-12.704 0.437,-3.804 -0.516,-7.751 -2.396,-9.918 -0.639,-0.738 -1.848,-2.698 -2.687,-4.357 -0.839,-1.659 -1.789,-3.54 -2.112,-4.181 -0.322,-0.64 -0.587,-1.442 -0.587,-1.783 0,-0.914 -3.508,-6.101 -4.125,-6.101 -1.066,0 -7.394,-10.292 -7.625,-12.401 -0.306,-2.796 -1.176,-5.697 -1.708,-5.697 -0.353,0 -0.642,-0.457 -0.642,-1.015 0,-0.558 -0.266,-1.538 -0.592,-2.178 -0.803,-1.579 -2.093,-7.191 -2.093,-9.105 0,-0.855 -0.204,-1.758 -0.453,-2.007 -0.249,-0.248 -0.51,-1.128 -0.582,-1.955 -0.08,-0.826 -0.302,-2.559 -0.514,-3.849 -0.342,-2.093 -1.078,-8.678 -1.506,-13.481 -0.09,-0.962 -0.518,-2.426 -0.961,-3.253 -0.515,-0.959 -0.649,-2.75 -0.373,-4.952 0.238,-1.897 0.373,-7.371 0.301,-12.163 -0.08,-4.793 -0.1,-9.619 -0.05,-10.725 0.342,-9.128 0.201,-14.213 -0.525,-19.103 -0.724,-4.865 -0.697,-6.286 0.176,-9.719 1.183,-4.648 1.599,-8.004 2.203,-17.76 0.239,-3.869 0.735,-7.79 1.102,-8.713 0.538,-1.356 0.686,-5.656 0.427,-12.404 -0.08,-2.06 0.873,-10.348 1.385,-12.065 0.331,-1.106 0.791,-4.123 1.021,-6.703 0.398,-4.437 3.961,-18.402 6.136,-24.04 0.55,-1.425 1.131,-3.687 1.294,-5.027 0.616,-5.093 1.639,-9.283 3.263,-13.351 1.888,-4.732 3.74,-10.813 4.101,-13.464 0.132,-0.969 1.13,-3.723 2.219,-6.12 1.087,-2.396 2.344,-6.016 2.792,-8.043 0.448,-2.028 1.23,-4.791 1.739,-6.14 0.766,-2.035 0.771,-2.511 0.02,-2.796 -1.388,-0.532 -0.479,-3.543 1.317,-4.36 1.063,-0.484 1.823,-1.66 2.324,-3.598 1.612,-6.224 7.646,-24.413 8.574,-25.838 0.538,-0.83 0.831,-2.29 0.649,-3.244 -0.184,-0.954 0.1,-2.589 0.616,-3.634 0.522,-1.044 1.393,-3.601 1.936,-5.682 0.543,-2.082 3.08,-8.077 5.637,-13.324 2.558,-5.247 4.844,-10.308 5.081,-11.248 0.235,-0.939 1.767,-3.163 3.403,-4.942 3.163,-3.44 3.313,-3.672 2.371,-3.672 -0.332,0 -2.848,-2.191 -5.592,-4.869 -4.121,-4.022 -5.54,-6.01 -8.167,-11.437 -1.748,-3.612 -3.445,-8.202 -3.771,-10.199 -0.326,-1.997 -1.217,-5.042 -1.981,-6.767 -0.764,-1.724 -1.549,-4.034 -1.742,-5.133 -0.194,-1.098 -0.649,-2.55 -1.011,-3.226 -0.362,-0.676 -0.797,-4.932 -0.966,-9.459 -0.168,-4.527 -0.472,-9.286 -0.675,-10.577 -0.202,-1.29 -0.515,-8.68 -0.696,-16.422 -0.179,-7.741 -0.518,-16.307 -0.752,-19.035 -0.322,-3.762 -0.23,-4.839 0.379,-4.464 0.576,0.356 0.802,-0.327 0.8,-2.414 0,-5.613 0.278,-7.736 1.165,-8.805 0.492,-0.592 0.722,-1.62 0.512,-2.283 -0.21,-0.663 0.06,-2.069 0.616,-3.125 0.549,-1.056 0.999,-2.622 0.999,-3.479 0,-0.858 0.261,-1.721 0.579,-1.918 0.731,-0.45 4.526,-10.05 5.122,-12.959 0.247,-1.198 0.726,-2.179 1.066,-2.179 0.34,0 0.618,-0.307 0.618,-0.683 0,-0.376 0.698,-1.809 1.552,-3.184 0.854,-1.375 1.958,-3.556 2.455,-4.846 0.496,-1.291 1.611,-3.037 2.477,-3.882 0.864,-0.844 1.573,-1.821 1.573,-2.17 0,-0.634 0.698,-1.581 4.196,-5.695 1.015,-1.194 1.847,-2.659 1.847,-3.256 0,-0.596 0.309,-1.084 0.686,-1.084 0.992,0 6.699,-5.387 6.699,-6.323 0,-1.377 7.352,-7.807 11.292,-9.876 2.086,-1.096 3.98,-2.293 4.206,-2.66 0.753,-1.216 8.179,-2.05 20.496,-2.305 6.687,-0.138 12.306,-0.103 12.488,0.08 z m -21.472,7.976 c -0.207,0.206 -1.366,0.375 -2.575,0.375 -1.209,0 -2.385,0.302 -2.613,0.671 -0.228,0.368 -0.849,0.67 -1.381,0.67 -1.376,0 -7.485,4.418 -11.04,7.983 -1.662,1.667 -3.271,2.958 -3.575,2.87 -0.304,-0.09 -0.383,0.114 -0.174,0.452 0.39,0.63 -3.461,4.782 -4.435,4.782 -0.301,0 -0.545,0.431 -0.545,0.958 0,0.526 -0.377,1.363 -0.839,1.859 -1.991,2.14 -5.203,6.54 -5.203,7.126 0,0.351 -0.425,0.801 -0.944,1 -0.519,0.199 -1.158,1.337 -1.421,2.529 -0.262,1.192 -1.078,2.796 -1.813,3.564 -0.734,0.768 -2.319,3.508 -3.522,6.089 -1.202,2.581 -3.032,6.502 -4.064,8.714 -1.034,2.211 -1.996,4.625 -2.14,5.362 -0.569,2.921 -0.92,5.552 -1.301,9.719 -0.218,2.396 -0.626,4.659 -0.904,5.027 -0.89,1.177 -1.561,7.145 -1.696,15.082 -0.08,4.239 -0.448,9.707 -0.836,12.15 -0.56,3.523 -0.494,5.465 0.318,9.384 0.965,4.66 1.135,6.672 0.894,10.64 -0.168,2.769 1.303,13.485 2.393,17.427 0.56,2.028 1.563,6.25 2.228,9.384 1.732,8.158 2.801,11.542 4.13,13.071 0.639,0.737 1.606,2.414 2.147,3.727 1.112,2.695 8.454,8.879 11.386,9.589 1.009,0.244 2.862,1.344 4.117,2.445 1.256,1.101 2.631,2.001 3.057,2.001 0.426,0 1.443,0.423 2.261,0.94 0.819,0.517 2.545,1.152 3.838,1.411 1.292,0.26 3.947,1.374 5.9,2.475 3.833,2.164 4.063,2.173 14.578,0.554 2.585,-0.398 5.841,-0.827 7.236,-0.953 1.394,-0.126 3.782,-0.253 3.782,-0.253 0,0 2.417,-0.745 4.734,-0.484 1.677,0.188 3.251,0.305 3.451,-0.02 0.201,-0.324 1.485,-0.628 2.586,-0.628 2.524,0 11.37,-6.27 14.499,-9.013 1.3,-1.14 2.64,-2.073 2.975,-2.073 0.337,0 1.761,-1.054 3.167,-2.343 1.405,-1.288 2.786,-2.344 3.066,-2.346 0.707,0 4.9,-6.661 5.491,-8.717 0.821,-2.846 2.523,-6.268 4.251,-8.544 0.909,-1.198 1.701,-3.007 1.759,-4.022 0.05,-1.015 1.051,-3.805 2.209,-6.202 1.158,-2.396 2.271,-5.819 2.476,-7.606 0.202,-1.787 0.654,-3.597 1.004,-4.022 0.793,-0.963 1.285,-3.638 2.235,-12.167 0.705,-6.338 0.861,-9.388 1.301,-25.471 0.1,-3.686 0.568,-7.656 1.039,-8.822 1.122,-2.779 0.65,-17.419 -0.71,-22.011 -0.546,-1.843 -1.304,-4.407 -1.684,-5.697 -0.379,-1.291 -0.873,-3.228 -1.096,-4.305 -0.269,-1.3 -2.307,-4.521 -4.185,-10.321 -1.38,-4.261 -6.656,-8.998 -7.528,-10.973 -1.509,-3.415 -11.122,-8.17 -17.163,-14.387 -3.784,-3.892 -4.363,-4.227 -10.269,-5.929 -3.442,-0.992 -6.427,-1.635 -6.634,-1.428 -0.206,0.206 -1.008,0.04 -1.782,-0.375 -0.772,-0.413 -2.469,-0.712 -3.771,-0.664 -1.303,0.05 -2.752,-0.153 -3.22,-0.446 -0.935,-0.586 -14.84,-0.413 -15.445,0.191 z m -28.582,185.371 c -0.93,1.104 -1.883,2.612 -2.119,3.352 -0.235,0.739 -0.708,1.344 -1.054,1.344 -0.344,0 -0.632,0.377 -0.64,0.838 0,0.461 -0.6,2.125 -1.315,3.698 -0.717,1.574 -1.347,3.082 -1.401,3.352 -0.06,0.27 -0.645,1.56 -1.314,2.868 -0.668,1.307 -1.425,3.569 -1.683,5.027 -0.719,4.065 -2.987,10.92 -5.112,15.45 -1.054,2.248 -1.917,4.568 -1.917,5.155 0,0.588 -0.289,1.247 -0.643,1.465 -0.352,0.218 -0.481,0.812 -0.287,1.319 0.196,0.507 -0.848,3.439 -2.318,6.514 -2.528,5.29 -4.549,11.599 -5.053,15.776 -0.285,2.359 -2.928,8.547 -4.897,11.466 -0.82,1.216 -1.828,3.931 -2.24,6.032 -0.409,2.101 -1.027,4.424 -1.368,5.161 -0.982,2.114 -2.109,5.359 -1.873,5.392 0.118,0.02 -0.292,0.801 -0.911,1.745 -0.62,0.944 -1.336,2.891 -1.591,4.327 -0.257,1.437 -1.304,5.327 -2.326,8.645 -1.023,3.318 -2.157,7.842 -2.52,10.054 -0.364,2.212 -1.364,6.133 -2.222,8.714 -1.229,3.696 -1.531,5.95 -1.426,10.623 0.09,3.601 -0.271,7.494 -0.898,9.911 -0.568,2.189 -0.844,4.286 -0.612,4.66 0.965,1.558 0.144,20.015 -1.055,23.737 -0.356,1.106 -0.614,5.63 -0.573,10.054 0.06,6.538 -0.187,8.796 -1.32,12.065 -1.992,5.75 -3.336,12.113 -2.966,14.045 0.175,0.913 -0.02,2.621 -0.427,3.796 -0.546,1.565 -0.547,4.574 0,11.251 0.409,5.013 0.829,12.583 0.933,16.823 0.108,4.239 0.518,9.97 0.917,12.735 0.398,2.765 0.733,9.587 0.745,15.16 0.02,10.061 0.525,12.837 3.343,18.363 0.285,0.557 1.04,2.819 1.679,5.027 0.639,2.207 1.559,4.466 2.044,5.019 0.485,0.553 1.806,2.922 2.936,5.264 1.13,2.342 3.124,5.56 4.429,7.151 1.307,1.591 2.374,3.096 2.374,3.345 0,0.407 1.92,2.563 7.555,8.487 1.015,1.067 1.845,2.186 1.845,2.485 0,0.891 5.545,6.48 7.722,7.784 1.108,0.664 2.468,1.613 3.021,2.11 5.409,4.851 16.165,10.821 21.583,11.979 1.239,0.264 2.627,0.782 3.086,1.151 0.815,0.655 6.229,0.876 8.23,0.336 1.503,-0.405 6.607,-1.102 10.407,-1.42 4.62,-0.386 7.168,-1.073 8.602,-2.318 0.977,-0.848 1.322,-0.884 1.757,-0.182 0.411,0.664 1.347,0.296 3.899,-1.535 1.849,-1.325 3.68,-2.409 4.07,-2.409 1.388,0 8.999,-4.944 10.031,-6.515 1.298,-1.979 3.029,-4.311 5.45,-4.303 2.573,0.01 5.214,-1.884 5.214,-3.738 0,-1.703 2.698,-4.463 5.539,-5.667 1.091,-0.462 1.846,-1.303 1.846,-2.055 0,-0.7 0.453,-1.648 1.008,-2.107 0.554,-0.459 1.006,-1.094 1.006,-1.411 0,-0.317 1.147,-2.467 2.549,-4.777 1.401,-2.311 2.441,-6.554 2.311,-7.168 -0.217,-1.026 2.033,-2.385 3.366,-2.033 0.276,0.07 0.52,-0.848 0.542,-2.046 0.09,-4.526 2.455,-10.901 3.757,-13.447 1.756,-3.436 3.383,-22.86 4.141,-29.423 0.335,-2.899 0.907,-6.344 1.269,-7.656 0.362,-1.312 0.478,-4.114 0.257,-6.226 -0.241,-2.311 -0.09,-4.735 0.396,-6.085 0.437,-1.235 0.93,-5.864 1.094,-10.288 0.163,-4.424 0.497,-10.306 0.742,-13.071 1.186,-13.383 0.09,-12.569 -1.268,-18.107 -0.406,-1.659 -0.747,-4.318 -0.755,-5.909 l -0.01,-2.894 0.09,-12.679 -0.174,-6.506 c -0.1,-3.578 -0.539,-7.266 -0.985,-8.194 -0.445,-0.929 -1.008,-4.157 -1.247,-7.174 -0.241,-3.017 -0.725,-6.483 -1.075,-7.704 -0.351,-1.22 -0.637,-3.452 -0.637,-4.96 0,-1.508 -0.208,-2.948 -0.461,-3.201 -1.01,-1.008 -2.206,-5.635 -2.215,-8.573 0,-2.141 -0.324,-3.233 -1.017,-3.498 -0.554,-0.213 -1.008,-0.932 -1.008,-1.599 0,-0.666 -0.439,-1.838 -0.975,-2.603 -0.618,-0.88 -1.024,-3.329 -1.106,-6.684 -0.08,-2.912 -0.566,-8.009 -1.098,-11.327 -0.531,-3.317 -0.925,-7.212 -0.874,-8.655 0.05,-1.442 -0.494,-4.157 -1.21,-6.032 -0.717,-1.876 -2.107,-7.03 -3.089,-11.454 -0.983,-4.424 -2.073,-8.97 -2.425,-10.102 -0.349,-1.132 -0.636,-2.593 -0.636,-3.248 0,-0.654 -0.55,-1.99 -1.222,-2.968 -0.671,-0.979 -1.605,-3.112 -2.075,-4.741 -0.47,-1.629 -1.554,-4.495 -2.41,-6.368 -3.396,-7.434 -6.286,-14.935 -6.737,-17.482 -0.261,-1.475 -1.647,-5.105 -3.08,-8.067 -1.433,-2.962 -2.614,-5.828 -2.626,-6.368 0,-0.54 -0.764,-2.49 -1.672,-4.333 -0.909,-1.843 -1.655,-3.854 -1.658,-4.469 0,-1.515 -1.346,-4.642 -2.547,-3.442 -0.795,0.793 -2.233,1.246 -6.878,0.83 -3.156,-0.282 -6.125,-0.05 -7.344,-0.142 -2.091,-0.168 -4.363,1.127 -9.086,-0.867 -1.988,-0.838 -9.181,-2.238 -13.772,-2.679 -2.737,-0.262 -7.083,-1.953 -7.736,-3.009 -0.476,-0.768 -2.801,-1.86 -4.114,-1.931 -0.429,-0.02 -1.541,0.86 -2.472,1.964 z"
         id="path53363-9-3-5-3-9-0-4-5-1-8"
         sodipodi:nodetypes="csssscsssssssssssssssssssssssssssssssssssscccssssssssccssssssssssssssssssscsssssssssssscscsssssssssssssssssssssssssssssssssscssssssssssssssssssssssssssssssssssssssssssssssssssssssssssssssssscsssssssssssssssssssssssssssssssssssscssssssssssssssssssscccsssssssssssssssssssssssssssssssssscsssssssssssssssssssssssssssscsssssssssssssssssssssssssssssscssssssssssssssssssssssssssssssssssssssssscccsssssssssssssssssssssssssssssssccs" /><path
         style="fill:#000000;stroke-width:0.625787"
         d="m 11090.006,-10831.154 c 0.697,-0.214 1.583,-0.641 1.966,-0.949 1.268,-1.014 2.737,-0.899 3.734,0.295 0.787,0.942 0.978,2.036 0.991,5.66 0.01,2.472 0.272,5.149 0.583,5.95 0.628,1.621 0.708,1.976 1.208,5.42 0.248,1.706 0.836,2.917 2.009,4.142 2.78,2.898 5.87,5.074 7.697,5.421 0.954,0.181 2.203,0.57 2.773,0.864 0.569,0.294 1.852,0.71 2.85,0.924 0.997,0.214 3.679,0.896 5.959,1.514 4.897,1.329 8.677,1.178 12.355,-0.495 1.346,-0.612 3.782,-1.355 5.412,-1.65 3.492,-0.632 4.775,-1.379 7.824,-4.557 2.377,-2.478 4.176,-5.738 4.196,-7.606 0,-0.605 0.337,-1.371 0.736,-1.702 0.399,-0.33 1.253,-1.93 1.896,-3.555 1.501,-3.783 2.368,-4.765 4.212,-4.765 0.941,0 1.619,0.334 1.84,0.905 0.811,2.099 -0.04,10.556 -1.303,12.866 -0.329,0.602 -0.454,1.237 -0.282,1.41 0.173,0.173 -0.08,0.465 -0.556,0.648 -0.479,0.184 -1.216,1.062 -1.639,1.953 -1.798,3.784 -3.283,5.612 -5.467,6.727 -1.252,0.639 -2.743,1.41 -3.312,1.714 -5.463,2.91 -13.019,4.451 -21.545,4.392 -3.581,-0.02 -7.487,-0.288 -8.679,-0.586 -1.191,-0.297 -3.157,-0.786 -4.368,-1.087 -1.211,-0.3 -2.719,-0.882 -3.35,-1.293 -0.631,-0.411 -1.41,-0.747 -1.73,-0.747 -0.849,0 -6.087,-4.771 -8.568,-7.805 -3.637,-4.444 -6.376,-12.455 -6.415,-18.756 -0.01,-2.474 -0.224,-3.188 -1.157,-3.942 l -1.14,-0.92 z"
         id="path3002-3-9-7-92-3-7-41-0-7-1-1"
         sodipodi:nodetypes="sssssssssssssssssssssssssssssscsccs" /><path
         style="fill:#000000;stroke:#000000;stroke-width:11.8;stroke-linecap:round;stroke-linejoin:round;stroke-dasharray:none;stroke-opacity:1"
         d="m 11165.41,-10683.853 6.293,8.288 6.352,11.316 5.229,8.622 6.767,10.265 7.041,10.441 4.936,10.193 7.909,8.597 8.586,10.833 5.746,8.609 8.085,10.111 5.958,8.85 7.386,9.666 4.718,6.71"
         id="path21117-5-1-1-8-9-3" /><path
         style="fill:#000000;stroke:#000000;stroke-width:11.8;stroke-linecap:round;stroke-linejoin:round;stroke-dasharray:none;stroke-opacity:1"
         d="m 11041.623,-10687.494 -7.103,11.799 -3.451,14.567 -7.381,12.647 -7.109,12.991 -6.265,13.523 -5.265,13.683 -7.188,11.552 -4.556,14.878 -7.109,12.799"
         id="path21117-4-6-3-3-5-0-8" /></g></g></svg>
