<?xml version="1.0" encoding="UTF-8" standalone="no"?>
<!-- Created with Inkscape (http://www.inkscape.org/) -->

<svg
   version="1.1"
   id="svg176"
   width="1355.0576"
   height="863.97998"
   viewBox="0 0 1355.0576 863.97998"
   sodipodi:docname="website for ai.svg"
   xml:space="preserve"
   inkscape:version="1.2.2 (b0a8486541, 2022-12-01)"
   xmlns:inkscape="http://www.inkscape.org/namespaces/inkscape"
   xmlns:sodipodi="http://sodipodi.sourceforge.net/DTD/sodipodi-0.dtd"
   xmlns="http://www.w3.org/2000/svg"
   xmlns:svg="http://www.w3.org/2000/svg"><defs
     id="defs180"><linearGradient
       id="linearGradient1486"
       inkscape:swatch="solid"><stop
         style="stop-color:#000000;stop-opacity:1;"
         offset="0"
         id="stop1484" /></linearGradient><inkscape:path-effect
       effect="roughen"
       id="path-effect32105-8-4-5-5"
       is_visible="true"
       lpeversion="1.2"
       method="size"
       max_segment_size="26.096"
       segments="2"
       displace_x="3.2;1"
       displace_y="3.05;2139095038"
       global_randomize="1;1"
       handles="along"
       shift_nodes="true"
       fixed_displacement="false"
       spray_tool_friendly="false" /></defs><sodipodi:namedview
     id="namedview178"
     pagecolor="#ffffff"
     bordercolor="#000000"
     borderopacity="0.25"
     inkscape:showpageshadow="2"
     inkscape:pageopacity="0.0"
     inkscape:pagecheckerboard="0"
     inkscape:deskcolor="#d1d1d1"
     showgrid="false"
     showguides="false"
     inkscape:zoom="1.4142136"
     inkscape:cx="3687.5619"
     inkscape:cy="6227.4894"
     inkscape:window-width="1920"
     inkscape:window-height="1011"
     inkscape:window-x="0"
     inkscape:window-y="0"
     inkscape:window-maximized="1"
     inkscape:current-layer="g182"><inkscape:grid
       type="xygrid"
       id="grid2722" /></sodipodi:namedview><g
     inkscape:groupmode="layer"
     inkscape:label="Image"
     id="g182"
     transform="translate(-9991.2986,-4308.4536)"><g
       id="g39377"><rect
         style="opacity:0;fill:#000000;fill-opacity:1;stroke:#000000;stroke-width:0;stroke-linecap:round;stroke-linejoin:bevel;stroke-dasharray:none;stroke-opacity:1"
         id="rect149499-7-6-7-1-1"
         width="1355.0571"
         height="863.51813"
         x="9991.2988"
         y="4308.9155" /><path
         style="fill:#000000;stroke-width:0.394113"
         d="m 10677.38,4558.4169 c -1.13,-0.4697 -2.7,-0.883 -3.491,-0.9184 -1.34,-0.1378 -4.13,-1.9231 -4.13,-1.9231 0,0 -0.671,-0.6127 -2.082,-1.6435 -2.978,-2.1771 -3.237,-2.3994 -4.423,-3.7967 -1.158,-1.3649 -4.614,-4.2965 -5.464,-4.6336 -0.776,-0.3084 -4.742,-9.0231 -4.742,-10.4209 0,-0.8271 -1.148,-4.2657 -1.543,-4.6215 -0.697,-0.6285 -1.632,-2.9348 -1.632,-4.0246 0,-0.7032 -0.431,-1.6974 -1.017,-2.3442 -0.961,-1.0603 -0.99,-1.2306 -0.532,-3.0504 0.266,-1.06 0.979,-1.9274 0.979,-1.9274 l 2.058,0.5596 c 0,0 1.177,0.5001 1.474,1.6979 0.21,0.8515 0.575,1.4602 0.809,1.3527 1.17,-0.5346 2.412,1.8461 2.533,4.8531 0.05,1.1446 0.299,2.4416 0.56,2.8826 1.011,1.7019 7.952,10.4016 8.298,10.4016 0.202,0 0.944,0.5255 1.65,1.1677 0.707,0.6423 2.08,1.6105 3.05,2.1516 0.969,0.5411 2.576,1.5799 3.569,2.3086 0.992,0.7286 2.778,1.7047 3.967,2.1692 1.19,0.4643 2.931,1.2686 3.869,1.787 1.449,0.8011 2.166,0.8937 4.762,0.6161 1.68,-0.1797 3.451,-0.6336 3.933,-1.0086 0.484,-0.375 1.114,-0.6818 1.401,-0.6818 1.11,0 6.06,-2.8151 6.182,-3.5156 0.07,-0.4066 0.338,-0.7464 0.596,-0.7549 0.768,-0.026 2.023,-1.5022 3.604,-4.2409 3.157,-5.4677 5.304,-13.587 5.619,-21.255 0.167,-4.0304 0.716,-5.2186 2.413,-5.2186 1.452,0 1.512,0.1455 1.879,4.5963 0.113,1.3579 0.06,2.578 -0.126,2.7115 -0.181,0.1333 -0.243,2.1803 -0.138,4.5489 0.148,3.339 0.04,4.7807 -0.486,6.4182 -0.374,1.1615 -0.574,2.235 -0.448,2.3857 0.224,0.2664 -0.118,1.2411 -1.459,4.1599 -0.357,0.78 -1.012,2.3411 -1.455,3.469 -0.547,1.3953 -1.185,2.2218 -1.995,2.5861 -0.655,0.2945 -1.286,0.8952 -1.403,1.335 -0.117,0.4396 -0.876,1.3947 -1.686,2.1223 -0.81,0.7276 -1.65,1.5657 -1.869,1.8625 -0.218,0.2968 -1.108,1.1564 -1.979,1.9103 -0.87,0.7538 -2.17,2.062 -2.889,2.9071 -0.72,0.8451 -1.605,1.3635 -1.89,1.5365 -0.282,0.1708 -0.423,0.3241 -0.583,0.4222 -0.582,0.2047 -1.325,0.7136 -1.661,0.8741 -0.726,0.3077 -2.397,1.1188 -4.903,0.8211 -1.3,-0.1544 -2.542,-0.2606 -2.761,-0.2358 -3.728,0.4223 -4.569,0.3701 -6.418,-0.3989 z"
         id="path52393-0-1-0-6-0-5-1-3-6"
         sodipodi:nodetypes="sccssssssssccssssssssssssssssssssssssssssssssccsss" /><path
         style="fill:none;stroke:#000000;stroke-width:8.86757;stroke-linecap:round;stroke-linejoin:bevel;stroke-dasharray:none"
         d="m 10668.168,4451.1036 c 1.625,0.8368 1.263,-1.1759 2.024,-1.5443 0.199,-0.097 0.466,0.1051 0.66,0 1.496,-0.809 2.321,-2.6741 4.125,-3.1236 0.348,-0.087 0.76,0.1721 1.076,0 0.396,-0.2144 0.948,-0.8846 1.363,-1.0057 1.331,-0.3878 2.861,-0.3266 4.344,-0.3266 2.256,0 6.355,0.038 8.237,1.4772 0.419,0.3213 0.909,1.1753 1.415,1.445 0.843,0.4515 -0.808,-1.4372 0.973,0.3663 0.181,0.1829 1.548,2.4143 1.721,2.7682"
         id="path52692-6-61-9-6-3-6-0-1"
         sodipodi:nodetypes="cscsssssssc" /><path
         style="fill:none;stroke:#000000;stroke-width:8.86757;stroke-linecap:round;stroke-linejoin:bevel;stroke-dasharray:none"
         d="m 10728.776,4455.9516 c -0.03,-0.8967 2.786,-0.2067 3.52,-0.3907 0.767,-0.1927 1.098,-0.8735 1.846,-1.1384 0.593,-0.2103 1.25,-0.1835 1.846,-0.3859 0.617,-0.2097 1.353,-1.0142 1.896,-1.1553 0.346,-0.09 0.721,0.061 1.074,0 0.882,-0.1553 2.673,-0.796 3.438,-1.1719 0.306,-0.1513 0.423,-0.5721 0.723,-0.7401 0.68,-0.3826 2.08,-0.036 2.799,-0.3861 0.579,-0.2806 1.407,-0.7096 2.127,-0.7096"
         id="path52694-2-1-7-2-8-8-3-7"
         sodipodi:nodetypes="cssssssssc" /><path
         style="fill:none;stroke:#000000;stroke-width:8.86757;stroke-linecap:round;stroke-linejoin:bevel;stroke-dasharray:none"
         d="m 10634.577,4455.1748 c -0.661,-4.2907 0.306,-0.8391 -1.106,-2.9939 -0.129,-0.1966 0.107,-0.5034 0,-0.7065 -0.09,-0.1547 -0.242,-0.2482 -0.365,-0.3723 -0.126,-0.5194 -0.188,-1.0607 -0.382,-1.5581 -0.929,-2.3763 -4.004,-5.3188 -5.944,-6.8989"
         id="path52696-9-5-5-6-8-5-2-2"
         sodipodi:nodetypes="csscsc" /><path
         style="fill:none;stroke:#000000;stroke-width:7.26011;stroke-linecap:round;stroke-linejoin:bevel;stroke-dasharray:none;stroke-opacity:1"
         d="m 10636.948,4455.3074 c 0,-7.2145 7.063,-14.4287 14.125,-14.4287 7.061,0 14.124,7.2142 14.124,14.4287 0,7.2141 -7.063,14.4283 -14.124,14.4283 -7.062,0 -14.125,-7.2142 -14.125,-14.4283 z"
         id="path297192-0-7-3-1-3-2-1-2"
         sodipodi:nodetypes="csssc" /><path
         style="fill:none;stroke:#000000;stroke-width:7.26011;stroke-linecap:round;stroke-linejoin:bevel;stroke-dasharray:none;stroke-opacity:1"
         d="m 10696.386,4453.5763 c 0,-7.2143 7.063,-14.4286 14.126,-14.4286 7.062,0 14.125,7.2143 14.125,14.4286 0,7.2141 -7.063,14.4284 -14.125,14.4284 -7.063,0 -14.126,-7.2143 -14.126,-14.4284 z"
         id="path297192-7-2-6-8-8-1-1-7-9"
         sodipodi:nodetypes="csssc" /><path
         style="fill:#000000;stroke-width:0.625786"
         d="m 10683.764,5043.6476 c -1.223,0.1253 -3.055,-0.1779 -4.193,-0.6938 -1.11,-0.504 -2.02,-0.7726 -2.02,-0.597 0,0.5668 -2.383,-1.6655 -3.139,-2.9407 -1.634,-2.7576 -0.01,-6.0117 4.137,-8.3105 2.453,-1.3583 3.328,-1.558 5.324,-1.2153 3.011,0.5175 8.566,0.6801 8.864,0.2595 0.123,-0.1749 2.925,-0.3826 6.228,-0.4614 3.302,-0.078 7.891,-0.1904 10.197,-0.2477 2.307,-0.057 4.34,-0.2721 4.517,-0.477 0.275,-0.3193 0.28,-14.1995 0,-33.827 -0.03,-2.9397 -0.357,-7.2679 -0.702,-9.6184 -0.348,-2.3503 -0.634,-10.0019 -0.639,-17.0034 0,-8.7628 -0.288,-13.788 -0.898,-16.1248 -0.803,-3.0655 -2.131,-14.9667 -2.651,-23.7627 -0.109,-1.8671 -0.219,-3.6192 -0.241,-3.8937 -0.08,-0.9825 -5.361,0.1376 -7.047,1.495 -0.937,0.7532 -2.574,1.6411 -3.638,1.9731 -2.714,0.8468 -8.78,2.4752 -10.322,2.7709 -2.05,0.3934 -14.356,0.3538 -15.097,-0.048 -0.37,-0.2005 -1.72,-0.4818 -2.998,-0.6253 -1.277,-0.1436 -2.772,-0.6545 -3.321,-1.1355 -0.547,-0.481 -1.826,-1.0199 -2.839,-1.1977 -2.585,-0.5052 -4.764,-2.4376 -6.714,-3.0167 -2.763,-0.7996 -9.979,-4.9588 -10.443,-6.0187 -0.587,-1.3445 -2.193,-0.906 -1.84,0.5031 1.271,5.0971 1.734,9.4236 2.014,18.8123 0.177,5.9123 0.576,12.2775 0.888,14.1444 0.311,1.8671 0.603,6.4293 0.649,10.1381 0.04,3.7088 0.254,6.9831 0.459,7.2761 0.487,0.6911 0.401,19.6346 -0.117,25.8681 -0.22,2.6451 -0.824,6.5913 -1.344,8.7696 -0.821,3.4491 -0.934,12.2246 -0.303,23.48 0.03,0.4667 -0.131,2.6962 -0.351,4.9542 -0.354,3.6457 -0.614,4.2634 -2.312,5.5163 -2.679,1.9779 -5.746,1.8982 -7.761,-0.202 -1.258,-1.3114 -1.962,-1.5746 -3.767,-1.4084 -1.22,0.1124 -2.654,0.2011 -3.186,0.1973 -5.719,-0.043 -10.055,0.1192 -13.549,0.5048 -2.306,0.2546 -6.021,0.3689 -8.256,0.2538 -2.405,-0.1238 -4.642,0.069 -5.484,0.4719 -1.638,0.7849 -3.297,0.8962 -5.688,0.3817 -0.928,-0.1998 -2.064,-0.1591 -2.525,0.09 -1.322,0.7167 -4.429,-1.6559 -4.87,-3.7207 -0.49,-2.2907 1.748,-5.5242 4.675,-6.7552 1.124,-0.4728 2.147,-1.1281 2.272,-1.4559 0.157,-0.4123 0.761,-0.4178 1.96,-0.018 0.954,0.3179 2.835,0.451 4.181,0.2957 1.345,-0.1552 6.219,-0.4078 10.832,-0.5612 4.613,-0.1535 8.822,-0.2937 9.355,-0.3115 0.532,-0.019 1.897,-0.2801 3.035,-0.5829 1.137,-0.3027 3.274,-0.6473 4.748,-0.7656 1.474,-0.1183 2.789,-0.3112 2.923,-0.4285 0.55,-0.4814 0.26,-20.9146 -0.371,-26.1837 -0.373,-3.1249 -0.636,-6.562 -0.585,-7.638 0.05,-1.076 -0.376,-3.484 -0.949,-5.3511 -0.575,-1.8671 -1.488,-7.4682 -2.029,-12.4471 -0.542,-4.9789 -1.247,-10.8348 -1.567,-13.013 -0.319,-2.1783 -0.879,-6.0357 -1.245,-8.5722 -0.365,-2.5365 -0.687,-7.374 -0.716,-10.7499 -0.09,-9.9691 0.399,-7.8261 -0.52,-11.2843 -0.194,-0.7299 -0.217,-11.7012 -0.217,-11.7012 0,0 0.455,-3.8572 0.807,-6.0784 0.511,-3.2342 0.457,-4.2831 -0.269,-5.2667 -0.499,-0.6754 -1.117,-1.9919 -1.373,-2.9253 -0.258,-0.9337 -1.158,-2.9705 -2.001,-4.5263 -0.842,-1.556 -2.096,-4.3727 -2.785,-6.2596 -0.69,-1.8869 -1.86,-4.4739 -2.602,-5.749 -0.741,-1.275 -1.622,-3.2957 -1.957,-4.4902 -0.335,-1.1946 -1.54,-4.0815 -2.681,-6.4153 -1.139,-2.3339 -2.599,-5.771 -3.244,-7.6381 -0.643,-1.8671 -1.918,-5.2379 -2.832,-7.4906 -1.77,-4.3639 -3.539,-12.0858 -3.558,-15.5316 0,-1.1485 -0.272,-2.2295 -0.591,-2.4022 -0.319,-0.1728 -0.772,-2.1611 -1.007,-4.4183 -0.235,-2.2573 -0.723,-5.5044 -1.083,-7.216 -0.732,-3.4834 -0.919,-29.1716 -0.24,-32.9371 0.241,-1.3333 0.827,-3.6175 1.305,-5.0764 1.387,-4.2453 4.198,-3.8358 -32.265,-4.7005 -14.501,-0.3439 -17.369,-0.7282 -20.483,-2.7441 -3.501,-2.2669 -1.656,-7.1832 2.77,-7.3784 4.473,-1.9283 4.649,-2.2976 8.681,-2.3747 3.548,-0.044 7.177,0.1824 8.064,0.5021 0.887,0.3198 8.144,0.6724 16.128,0.7838 7.984,0.1114 15.241,0.2603 16.128,0.3308 1.538,0.1222 1.604,0 1.423,-2.539 -0.107,-1.467 0.278,-5.4133 0.849,-8.7696 1.201,-7.031 1.703,-12.8012 1.641,-18.8324 -0.05,-4.5127 0.498,-7.8137 2.199,-13.2959 0.992,-3.1984 1.812,-6.1725 2.557,-9.2768 0.179,-0.7456 0.613,-2.1459 0.963,-3.1117 0.775,-2.1327 1.338,-5.5398 1.787,-10.8085 0.186,-2.1782 0.985,-4.6625 0.985,-4.6625 l 0.239,-3.1118 c 0,0 0,-3.8512 0.824,-6.6531 0.679,-2.3338 1.433,-5.2618 1.673,-6.5064 0.241,-1.2447 0.984,-3.0835 1.65,-4.0861 1.452,-2.1878 0.786,-2.7402 -2.247,-1.8624 -1.213,0.3511 -4.183,0.7147 -6.6,0.8078 -2.417,0.093 -5.845,0.4557 -7.62,0.8058 -4.778,0.9426 -16.904,2.988 -20.966,3.5364 -1.952,0.2635 -5.436,0.7295 -7.742,1.0355 -2.307,0.306 -5.645,0.9479 -7.418,1.4265 -5.889,1.5882 -9.124,1.1214 -12.742,-1.8385 -1.991,-1.6284 -2.034,-1.8129 -1.099,-4.7657 1.071,-3.3807 4.345,-4.6795 14.485,-5.7477 4.613,-0.4857 10.274,-1.25 12.58,-1.6982 2.307,-0.4483 9.274,-1.6274 15.483,-2.6203 6.209,-0.9929 12.597,-2.1449 14.193,-2.5601 3.784,-0.984 10.855,-2.472 12.902,-2.7155 1.239,-0.1471 1.663,-0.574 1.824,-1.8361 0.117,-0.9043 0.48,-1.8862 0.807,-2.1817 0.328,-0.2957 0.595,-1.1357 0.595,-1.8669 0,-0.7311 0.439,-2.0728 0.975,-2.9816 0.535,-0.9087 0.922,-1.8508 0.858,-2.0935 -0.06,-0.2428 0.06,-1.3326 0.277,-2.4217 0.217,-1.0892 0.744,-3.9616 1.172,-6.383 0.429,-2.4215 1.027,-4.5371 1.33,-4.7011 0.302,-0.1641 0.549,-1.4943 0.549,-2.9561 0,-1.4618 0.296,-3.5472 0.657,-4.6343 0.36,-1.0871 0.804,-2.7404 0.986,-3.6739 1.317,-6.7436 1.825,-8.7089 3.226,-12.4737 0.87,-2.3385 1.582,-4.9073 1.582,-5.7085 0,-0.8012 0.467,-3.0212 1.038,-4.933 0.569,-1.9121 1.263,-4.7494 1.541,-6.3053 0.278,-1.556 0.809,-3.5928 1.179,-4.5263 0.371,-0.9335 1.161,-3.6997 1.756,-6.147 0.597,-2.4473 1.537,-5.248 2.091,-6.2236 0.554,-0.9756 1.391,-2.4497 1.862,-3.2757 1.396,-2.4494 1.019,-3.5146 -2.208,-6.2454 -1.686,-1.426 -3.628,-3.576 -4.318,-4.7778 -0.69,-1.202 -1.924,-2.9958 -2.742,-3.9863 -0.819,-0.9905 -1.489,-1.9633 -1.489,-2.162 0,-0.1985 -0.434,-0.7429 -0.968,-1.2097 -0.532,-0.4668 -0.966,-1.3687 -0.966,-2.0042 0,-0.6356 -0.558,-2.0814 -1.24,-3.2129 -0.683,-1.1315 -2.002,-3.5849 -2.933,-5.4519 -0.931,-1.867 -2.116,-4.0706 -2.63,-4.8964 -0.518,-0.8261 -0.95,-2.2263 -0.962,-3.1118 -0.03,-2.0763 -1.524,-7.554 -2.495,-9.1444 -0.763,-1.2513 -1.047,-2.8972 -1.724,-10.0049 -0.208,-2.1782 -0.947,-8.0047 -1.644,-12.9476 -0.696,-4.943 -1.414,-12.4538 -1.595,-16.6906 -0.183,-4.2368 -0.6,-9.3582 -0.928,-11.3809 -0.329,-2.0227 -0.603,-3.9843 -0.611,-4.3592 0,-0.3748 -1.029,-0.8487 -2.271,-1.053 -1.242,-0.2043 -2.257,-0.6082 -2.257,-0.8972 0,-0.2891 -0.62,-1.2615 -1.378,-2.1605 -1.206,-1.4306 -1.412,-2.5815 -1.648,-9.2083 -0.284,-7.9874 -0.107,-7.349 -5.616,-20.0635 -0.432,-0.998 -1.277,-2.2911 -1.878,-2.8736 -0.601,-0.5822 -1.093,-1.3581 -1.093,-1.7241 0,-0.3661 -0.725,-1.985 -1.613,-3.5976 -0.886,-1.6125 -1.612,-3.3456 -1.612,-3.8513 0,-0.5057 -0.554,-1.9248 -1.23,-3.1536 -0.678,-1.2287 -2.021,-4.3954 -2.987,-7.037 -0.965,-2.6416 -1.977,-5.0576 -2.248,-5.3688 -0.272,-0.3113 -1.552,-3.3223 -2.846,-6.6915 -2.17,-5.6504 -2.838,-7.1016 -4.339,-9.4333 -1.095,-1.7008 -1.998,-3.7213 -2.528,-5.6578 -0.449,-1.6469 -0.272,-2.3373 1.054,-4.1019 0.876,-1.167 1.28,-2.363 1.808,-2.363 1.275,-1.1797 0.661,-0.8492 1.941,-1.8209 0.731,-1.0377 5.017,-0.2195 7.656,1.7622 1.031,1.326 2.96,1.309 3.998,1.9351 0.594,0.8443 2.275,0.074 2.727,-0.8129 0.282,-0.6926 0.533,-0.7623 0.865,-1.6654 0.372,-1.0429 2.236,-3.4952 2.236,-3.4952 l 7.6,-12.8251 c 0,0 1.278,-2.0588 1.742,-3.7703 0.464,-1.7115 1.242,-4.2575 1.73,-5.6578 3.08,-8.8488 3.907,-12.875 4.534,-22.0655 0.495,-7.2544 0.485,-8.3109 -0.1,-10.467 -1.057,-3.9454 -1.11,-8.1682 -0.112,-9.0431 0.538,-0.4719 1.194,-0.858 1.458,-0.858 0.264,0 1.025,-0.4339 1.694,-0.9643 0.668,-0.5303 1.978,-0.9759 2.91,-0.9901 3.02,-0.046 7.857,4.6622 8.846,8.6108 0.251,0.9996 0.723,1.9626 1.051,2.1402 0.327,0.1773 0.594,0.7195 0.594,1.2045 0,1.1157 6.761,9.0377 8.348,9.7829 0.654,0.3066 2.861,0.6785 4.906,0.8268 5.092,0.369 8.186,-1.2054 17.713,-9.0157 1.242,-1.018 3.42,-3.5599 4.838,-5.6484 1.42,-2.0886 2.939,-4.1304 3.375,-4.5372 1.422,-1.3272 3.365,-6.7109 3.63,-10.0636 0.143,-1.8035 0.367,-3.3535 0.498,-3.4442 0.132,-0.091 1.912,-1.1244 3.957,-2.2968 3.968,-2.2756 5.536,-2.3683 7.991,-0.4721 2.696,2.0835 3.227,3.2645 5.153,11.4725 0.11,0.4668 0.466,2.272 0.793,4.0119 0.326,1.7397 0.882,3.6493 1.236,4.2433 0.354,0.5941 1.183,2.0654 1.844,3.2695 0.726,1.3253 1.879,2.4016 2.922,2.7271 0.947,0.2957 1.871,0.8773 2.053,1.2926 0.709,1.6209 16.547,3.367 17.556,1.9355 0.197,-0.2786 1.611,-0.5064 3.142,-0.5064 1.568,0 4.377,-0.6181 6.432,-1.4145 2.006,-0.778 4.056,-1.4144 4.556,-1.4144 1.273,0 4.505,-2.74 5.957,-5.0496 1.507,-2.3983 3.871,-3.9898 6.723,-4.5263 3.052,-0.5741 5.142,0.2031 7.016,2.6098 1.813,2.3295 1.922,4.2494 0.67,11.7751 -0.587,3.5226 -0.573,5.8123 0.05,10.3256 0.446,3.1895 1.008,5.7992 1.249,5.7992 0.243,0 0.577,1.2417 0.744,2.7592 0.42,3.8396 3.353,7.7729 6.152,8.2501 1.152,0.1967 2.096,0.6006 2.096,0.8977 0,0.2971 0.456,0.5403 1.014,0.5403 0.558,0 1.459,0.3904 2.004,0.8678 0.568,0.4993 1.509,0.7231 2.215,0.5267 0.754,-0.2101 1.36,-0.031 1.578,0.4658 0.483,1.1045 4.936,2.3175 7.147,1.9467 3.096,-0.5189 6.457,1.0793 7.947,3.7779 2.224,4.0283 1.44,6.5974 -3.061,10.0388 -2.395,1.8308 -4.703,5.8353 -5.657,9.8166 -0.224,0.9335 -0.995,2.8431 -1.715,4.2434 -1.963,3.8196 -1.97,8.8085 -0.02,12.5459 0.866,1.6571 2.52,4.0314 3.675,5.2761 1.156,1.2448 3.035,3.918 4.174,5.9407 1.138,2.0226 3.165,4.8233 4.5,6.2236 4.139,4.3396 4.771,5.453 4.313,7.5952 -0.716,3.3433 -2.121,4.3092 -6.545,4.499 -2.83,0.1217 -4.878,0.6237 -7.405,1.8164 -3.525,1.663 -12.875,8.934 -12.875,10.0121 0,0.3202 -0.67,1.3699 -1.488,2.3326 -0.818,0.963 -2.26,2.8966 -3.205,4.2969 -0.944,1.4002 -2.742,3.5288 -3.995,4.7301 -2.443,2.3418 -2.484,2.532 -2.28,10.8195 0.115,4.6944 -1.81,22.7198 -2.598,24.338 -0.694,1.4203 -2.465,11.2729 -2.884,16.0302 -0.172,1.9707 -0.449,3.7757 -0.615,4.0111 -0.166,0.2353 -0.373,2.1067 -0.459,4.1586 -0.651,3.5101 -1.277,6.3922 -2.87,9.8125 -0.06,2.4665 -2.01,5.7732 -2.369,7.7086 -0.179,1.0142 -0.805,3.2444 -1.392,4.9559 -0.587,1.7114 -1.493,4.4796 -2.016,6.1514 -0.522,1.672 -1.552,3.7816 -2.288,4.6881 -0.801,2.0708 -3.196,3.917 -3.406,5.9129 -0.09,0.8995 -0.646,2.5969 -1.254,3.772 -1.327,2.5656 -6.896,9.462 -7.642,9.462 -0.867,0 -0.598,3.1844 0.416,4.9047 0.519,0.881 1.573,5.3617 2.339,9.9572 1.544,7.4224 2.985,11.6803 3.778,18.2362 0.379,3.1118 0.854,8.4584 1.057,11.8814 0.203,3.423 0.903,8.2604 1.554,10.7498 1.187,4.5377 2.11,10.7967 2.292,15.559 0.05,1.4003 0.355,3.8191 0.671,5.3749 0.315,1.5559 0.576,4.1416 0.581,5.7458 0.938,4.2687 0.603,8.9193 1.08,13.7736 0.297,2.9562 0.587,6.2025 0.645,7.2137 0.05,1.0114 0.294,1.8388 0.523,1.8388 0.228,0 0.471,2.4825 0.537,5.5164 0.06,3.034 0.538,7.9255 1.046,10.87 -0.367,3.7343 1.448,6.8339 1.524,9.781 0.03,1.9449 0.237,9.2647 0.44,16.2662 0.349,12.1377 0.571,17.0522 1.198,26.5917 0.154,2.3338 0.411,18.501 0.573,35.9271 0.28,30.1517 -0.03,39.7505 -1.437,43.5651 -0.342,0.9335 -0.767,4.3707 -0.942,7.6381 -0.175,3.2674 -0.485,7.7229 -0.688,9.9011 -0.376,4.0292 -0.821,12.2273 -0.899,16.5088 -0.03,1.3002 -0.405,2.7005 -0.848,3.1117 -0.444,0.4112 -0.821,1.0023 -0.838,1.3135 -0.364,6.7002 -3.28,17.0219 -5.628,19.9116 -1.059,1.3047 -1.76,2.7524 -1.556,3.2167 0.203,0.4643 0.107,0.9244 -0.21,1.0222 -0.318,0.098 -1.019,1.67 -1.56,3.4935 -0.539,1.8236 -1.528,3.7331 -2.196,4.2434 -1.087,0.8302 -1.197,1.6715 -1.047,8 0.1,3.8899 0.442,7.6977 0.778,8.4619 0.334,0.7642 0.401,2.2011 0.146,3.1931 -0.256,0.9921 -0.284,3.9313 -0.06,6.5315 0.452,5.3505 -0.204,15.4774 -1.223,18.8722 -0.916,3.0493 -1.002,7.6903 -0.227,12.2681 0.372,2.1875 0.6,16.0163 0.543,32.8152 -0.359,12.696 0.294,26.187 0.339,35.2864 0,2.2252 0.322,4.8539 0.715,5.8418 0.391,0.9877 0.524,2.6805 0.293,3.7619 -0.341,1.5896 -0.715,1.9661 -1.955,1.9661 -0.843,0 -2.439,0.6681 -3.547,1.4847 -1.105,0.8168 -2.19,1.3281 -2.409,1.1366 -0.218,-0.1917 -0.803,-0.054 -1.299,0.3078 -0.533,0.3885 -3.716,0.705 -7.801,0.776 -4.552,0.2503 -12.166,1.5069 -15.125,1.6948 -3.459,-0.6372 -6.878,-0.3621 -8.596,-0.239 -1.423,0.094 -2.459,-0.3693 -4.381,-0.1848 z m 1.7,-123.5556 c 3.938,-0.2945 5.981,-0.9506 10.677,-3.43 7.692,-4.0615 11.431,-10.9178 11.431,-10.9178 l 8.15,-6.9531 c 0,0 3.081,-3.7714 4.377,-6.5895 1.165,-2.5351 2.374,-4.7479 2.688,-4.9175 0.312,-0.1696 0.569,-0.9379 0.569,-1.7073 0,-0.7693 0.372,-1.5242 0.827,-1.6774 0.456,-0.1534 0.89,-0.9297 0.965,-1.7251 0.08,-0.7957 0.555,-2.7626 1.067,-4.3713 0.51,-1.6086 1.066,-3.9432 1.233,-5.188 0.167,-1.2446 0.64,-3.6633 1.051,-5.3749 0.41,-1.7114 0.867,-7.44 1.015,-12.73 0.148,-5.29 0.452,-10.5095 0.674,-11.5986 0.515,-2.5244 1.594,-13.2538 1.589,-15.8001 -0.42,-10.1007 1.622,-17.0717 1.421,-25.2189 -0.233,-9.0242 -0.409,-17.2988 -0.388,-18.388 0.282,-16.1122 0.155,-26.192 -0.38,-30.3146 -0.362,-2.7756 -0.821,-9.6294 -1.02,-15.2307 -0.2,-5.6012 -0.499,-13.8534 -0.664,-18.338 -0.165,-4.4848 -0.603,-9.1371 -0.971,-10.3386 -0.37,-1.2015 -0.533,-2.381 -0.364,-2.6211 0.17,-0.2401 0.03,-2.3346 -0.308,-4.6547 -0.338,-2.3199 -0.759,-5.873 -0.935,-7.8956 -0.177,-2.0227 -0.589,-4.9506 -0.918,-6.5065 -0.678,-3.2066 -1.126,-7.841 -1.665,-17.2562 -0.206,-3.5786 -0.777,-7.6522 -1.269,-9.0525 -0.493,-1.4005 -1.051,-5.3467 -1.239,-8.7697 -0.331,-5.9907 -0.67,-8.6027 -2.309,-17.8221 -0.414,-2.3337 -0.863,-5.5164 -0.995,-7.0722 -0.133,-1.556 -0.687,-5.1203 -1.233,-7.921 -0.545,-2.8006 -1.436,-8.0199 -1.98,-11.5985 -0.545,-3.5785 -1.254,-7.2702 -1.575,-8.2038 -0.322,-0.9335 -0.924,-3.225 -1.339,-5.092 -1.132,-5.0926 -1.053,-4.9766 -3.038,-4.5423 -2.036,1.1856 -4.431,1.6138 -6.454,2.4946 -3.768,1.6762 -7.781,3.1465 -9.18,3.3627 -3.7,0.572 -18.664,0.3003 -22.584,-0.4099 -4.789,-0.8675 -9.928,-2.7721 -12.195,-4.5193 -0.829,-0.5585 -3.507,-2.0702 -3.934,-2.0436 -0.939,0.9837 -0.417,2.404 -1.234,3.3642 -0.571,0.3099 -1.044,2.2354 -1.655,6.743 -0.164,1.2024 -0.493,2.73 -0.733,3.3947 -0.242,0.6646 -0.485,1.5903 -0.54,2.0571 -0.181,1.5261 -1.644,5.529 -2.617,7.1666 -0.526,0.8816 -0.956,2.0279 -0.958,2.5473 0,1.3027 -1.735,7.2596 -3.584,12.3515 -0.849,2.3338 -1.696,5.389 -1.885,6.7894 -0.755,5.6083 -2.417,12.9691 -3.168,14.0365 -0.254,0.3594 -0.585,2.122 -0.735,3.9169 -0.15,1.7948 -0.831,4.791 -1.513,6.658 -0.684,1.8671 -1.447,4.9178 -1.697,6.7793 -0.25,1.8614 -0.838,4.2801 -1.307,5.3749 -0.468,1.0947 -1.183,3.7726 -1.59,5.9507 -1.693,9.0764 -2.79,12.7302 -3.821,12.7302 -0.209,0 -0.419,0.7 -0.465,1.5559 -0.06,0.8557 -0.428,2.5743 -0.848,3.819 -0.939,2.7827 -2.001,6.8319 -2.338,8.9121 -0.139,0.8564 -0.855,2.5911 -1.59,3.8548 -1.016,1.7473 -1.412,3.7463 -1.655,8.3442 -0.173,3.3255 -0.724,7.192 -1.222,8.5924 -0.5,1.4003 -1.096,3.5645 -1.323,4.8091 -0.227,1.2447 -0.963,3.5996 -1.636,5.233 -1.49,3.6258 -3.16,14.1856 -3.512,22.2075 -0.268,6.1208 -0.369,7.1257 -1.548,15.2611 -0.382,2.6369 -0.694,5.1241 -0.694,5.527 0,0.5667 1.059,0.6483 4.676,0.36 2.573,-0.2051 13.097,-0.4397 23.387,-0.5214 10.289,-0.082 21.259,-0.2295 24.377,-0.3286 5.614,-0.1783 5.683,-0.164 7.2,1.5008 1.906,2.0923 1.896,5.9942 -0.01,7.5661 -2.222,1.8237 -9.392,3.0582 -16.623,2.8619 -9.601,-0.2608 -25.393,-0.2208 -34.613,0.088 l -8.065,0.2698 -0.504,3.3686 c -0.277,1.8528 -0.377,4.0024 -0.221,4.7772 0.155,0.7745 -0.03,1.9202 -0.411,2.5458 -0.401,0.6565 -0.776,5.5558 -0.887,11.5873 -0.108,5.7473 -0.365,11.1289 -0.572,11.9592 -0.479,1.9067 1.297,13.2345 2.579,16.4618 0.53,1.3374 0.976,3.8317 0.99,5.5432 0.01,1.7116 0.327,4.1303 0.697,5.3749 0.37,1.2447 0.896,3.1754 1.169,4.2903 0.273,1.1151 1.094,3.4064 1.825,5.0921 0.73,1.6856 1.665,4.3379 2.077,5.8937 0.411,1.5559 1.424,4.102 2.248,5.6579 0.825,1.5558 1.716,3.4654 1.979,4.2433 0.695,2.0584 3.753,7.5764 4.436,8.0044 0.322,0.2016 0.41,0.9539 0.197,1.6719 -0.256,0.856 0.258,2.4231 1.491,4.5515 2.728,4.707 3.316,5.4276 4.968,6.0879 0.817,0.3267 1.487,0.9039 1.487,1.2829 0,2.1516 7.43,9.3723 11.612,11.2825 1.597,0.7296 3.96,2.0316 5.254,2.8935 1.293,0.8618 2.648,1.5669 3.01,1.5669 0.364,0 0.757,0.191 0.876,0.4243 0.311,0.6147 4.993,3.6211 5.898,3.7873 1.005,0.1843 4.18,1.3167 6.412,2.2862 1.08,0.4686 1.775,0.5423 1.775,0.1876 0,-0.3353 0.479,-0.4074 1.128,-0.1697 1.38,0.505 8.68,1.261 9.366,0.9702 0.273,-0.1154 2.015,-0.3235 3.871,-0.4623 z m 12.277,-336.821 c 10.371,-5.1684 14.29,-10.3602 14.29,-10.3602 l 2.837,-3.395 3.863,-5.2814 c 0,0 1.826,-0.8551 4.797,-6.0481 2.004,-3.5029 4.12,-8.0238 4.7,-10.0466 0.581,-2.0227 1.676,-5.4597 2.432,-7.638 0.757,-2.1783 1.297,-4.1851 1.2,-4.4595 -0.1,-0.2745 0.389,-2.0567 1.078,-3.9605 1.298,-3.5849 1.795,-5.4576 2.345,-8.8363 0.178,-1.0891 0.631,-3.7625 1.007,-5.9408 0.376,-2.1782 1.072,-6.551 1.547,-9.7173 0.477,-3.1662 1.065,-6.04 1.309,-6.3861 0.244,-0.346 0.58,-2.5929 0.746,-4.9929 0.166,-2.4001 0.692,-6.4006 1.166,-8.89 0.474,-2.4895 0.777,-6.6904 0.67,-9.3354 -0.59,-14.7452 -1.024,-19.4886 -2.243,-24.5395 -0.74,-3.0721 0.05,-9.1826 -0.505,-13.5786 -1.42,-11.2744 -1.62,-12.4835 -2.11,-12.8022 -0.843,-0.5478 -4.475,-9.5111 -4.91,-11.4676 -0.534,-2.4037 -3.931,-8.1184 -6.021,-10.1313 -1.803,-1.737 -5.25,-6.0427 -5.25,-6.5595 0,-0.5858 -8.274,-6.4718 -10.809,-7.8433 -3.34,-1.8068 -6.315,-2.9821 -7.552,-2.9821 -0.59,0 -3.251,-0.9318 -5.915,-2.0708 -7.951,-3.3996 -13.759,-1.9041 -24.939,3.7328 -3.013,1.5182 -6.496,3.5981 -7.742,4.6219 -5.367,4.4071 -9.08,6.9354 -10.288,8.4878 -0.709,0.9123 -2.037,2.4345 -2.951,3.3826 -1.982,2.0605 -6.403,8.4279 -6.403,9.2253 0,0.3102 -0.435,0.8809 -0.968,1.2683 -0.532,0.3873 -0.967,1.0793 -0.967,1.5378 0,0.4584 -0.647,1.6307 -1.439,2.6051 -1.834,2.2593 -5.658,9.1505 -5.658,10.1972 -1.394,2.2242 -1.995,8.0617 -2.021,10.1137 0,1.6658 -0.338,2.5742 -2.744,7.3666 -1.584,3.1578 -1.19,13.501 -1.19,13.501 l -0.19,13.2323 c 0,0 0.12,16.9872 1.295,29.2943 -0.191,14.814 2.27,27.3256 4.842,40.6825 2.419,6.3166 6.367,11.5781 8.687,16.7941 0.599,1.3728 1.338,2.496 1.645,2.496 0.306,0 0.557,0.2783 0.557,0.6183 0,1.5093 5.046,6.1443 8.251,7.5804 1.878,0.8407 3.861,2.1271 4.408,2.8587 1.663,2.2259 8.112,6.7323 9.722,6.7942 0.835,0.032 2.415,0.6408 3.513,1.353 1.489,0.9652 2.594,1.2299 4.342,1.0396 1.289,-0.1405 3.649,0.06 5.246,0.4445 5.138,0.7199 9.713,-0.074 16.32,-1.965 z m -80.632,-137.9363 c 0.21,-1.7933 1.063,-3.4596 1.063,-3.4596 l 0.272,-0.7766 c 0,0 0.362,-3.3032 2.013,-7.2465 0.456,-1.0891 1.209,-3.1259 1.672,-4.5263 0.464,-1.4003 2.238,-4.6994 3.94,-7.3313 1.704,-2.632 3.097,-5.0801 3.097,-5.4402 0,-0.36 0.6,-1.3238 1.334,-2.1417 0.733,-0.8179 1.411,-2.1281 1.507,-2.9113 0.1,-0.7835 0.744,-1.9943 1.443,-2.6911 2.054,-2.049 4.748,-5.9809 4.748,-6.9303 0,-0.4833 0.436,-1.0257 0.97,-1.2053 0.535,-0.1797 1.413,-1.1429 1.953,-2.1407 1.002,-1.8525 2.629,-3.7267 6.915,-7.9624 1.331,-1.3151 2.419,-2.6865 2.419,-3.0473 0,-0.361 0.726,-0.9462 1.613,-1.3006 0.887,-0.3545 1.612,-0.8582 1.612,-1.1195 0,-0.2612 0.436,-0.4749 0.968,-0.4749 0.533,0 0.969,-0.2546 0.969,-0.5657 0,-0.3113 0.275,-0.5659 0.612,-0.5659 0.896,0 5.807,-3.0276 8.419,-5.1894 2.285,-1.8912 4.044,-2.978 5.806,-3.5876 0.533,-0.1841 2.129,-0.8315 3.548,-1.4383 1.421,-0.6069 3.452,-1.1118 4.517,-1.122 1.064,-0.01 2.66,-0.3823 3.548,-0.8269 1.806,-0.9059 4.901,-1.1087 5.432,-0.3561 0.362,0.513 4.138,1.4327 5.145,1.253 0.765,-0.1366 6.934,1.734 8.008,2.4286 0.465,0.3004 1.585,0.6153 2.489,0.7 0.904,0.085 2.144,0.55 2.756,1.0345 0.609,0.4843 1.449,0.8807 1.865,0.8807 0.415,0 0.754,0.2545 0.754,0.5658 0,0.3111 0.537,0.5657 1.192,0.5657 1.592,0 4.589,1.3482 6.546,2.945 0.877,0.7141 1.888,1.3053 2.25,1.3138 0.715,0.017 7.431,5.6545 7.431,6.2374 0,0.1961 2.457,2.5443 5.458,5.2182 5.009,4.4634 9.381,12.1308 9.381,12.1308 l 4.82,10.345 c 0,0 1.115,2.3339 1.494,3.1118 0.704,1.443 1.555,4.8132 1.86,7.3551 0.1,0.778 0.28,1.9237 0.414,2.546 0.352,1.6237 1.071,6.9264 1.343,9.9013 0.129,1.4002 0.598,3.7676 1.042,5.2605 0.962,3.2328 2.11,3.3362 4.37,0.3934 3.75,-4.8836 10.28,-9.9001 15.143,-11.6329 1.687,-0.6013 3.227,-1.5244 3.419,-2.0513 0.404,-1.105 -1.99,-5.5485 -2.99,-5.5485 -0.368,0 -0.511,-0.2257 -0.317,-0.5017 0.195,-0.276 -0.09,-0.822 -0.624,-1.2134 -1.396,-1.0152 -4.813,-5.5636 -4.813,-6.4039 0,-0.389 -0.285,-0.9561 -0.632,-1.2601 -1.499,-1.3145 -3.24,-7.3561 -3.24,-11.2416 0,-3.9926 0.324,-5.3789 3.576,-15.3065 0.917,-2.8005 1.816,-5.6077 1.997,-6.2381 0.275,-0.9613 -0.225,-1.3173 -3.107,-2.2056 -1.889,-0.5825 -3.758,-1.2797 -4.155,-1.5492 -0.398,-0.2695 -1.97,-1.0681 -3.493,-1.7746 -1.522,-0.7063 -3.084,-1.7848 -3.47,-2.3965 -0.388,-0.6115 -0.991,-1.2922 -1.342,-1.5126 -0.351,-0.2203 -0.652,-0.7296 -0.667,-1.1317 -0.01,-0.4019 -1.068,-2.5525 -2.343,-4.7789 -1.651,-2.8883 -2.442,-5.1579 -2.76,-7.921 -0.382,-3.3292 -1.847,-7.1271 -4.277,-11.0788 -0.331,-0.5403 -0.604,-1.3678 -0.604,-1.8388 0,-1.0713 -0.362,-1.0672 -4.967,0.056 -2.058,0.5019 -4.61,1.0489 -5.672,1.216 -1.061,0.167 -2.682,0.7911 -3.601,1.3869 -0.92,0.5959 -2.082,1.1553 -2.587,1.2432 -0.502,0.088 -1.785,0.4726 -2.849,0.8547 -5.094,1.8286 -20.469,0.1583 -22.386,-2.4321 -0.247,-0.3355 -1.397,-0.8895 -2.554,-1.231 -1.447,-0.4273 -2.538,-1.3434 -3.5,-2.9383 -0.768,-1.2745 -2.523,-3.3171 -3.896,-4.5391 -2.869,-2.5484 -3.641,-3.3909 -4.695,-5.1166 -0.972,-1.5935 -2.394,-1.5783 -3.363,0.035 -0.421,0.7002 -0.953,1.4004 -1.183,1.5559 -1.024,0.6925 -3.259,3.9344 -3.259,4.7269 0,0.4811 -0.365,1.0783 -0.809,1.3272 -0.444,0.2488 -1.626,1.5098 -2.625,2.8021 -3.286,4.2516 -14.34,12.3758 -17.501,12.8636 -1.883,0.2906 -6.239,0.4505 -12.72,0.4666 -2.291,0.011 -3.858,-0.4471 -6.567,-1.8956 -1.957,-1.0465 -3.703,-2.374 -3.882,-2.9499 -0.177,-0.5758 -0.613,-0.8899 -0.967,-0.698 -0.355,0.192 -0.827,0.09 -1.05,-0.2259 -0.888,-1.2615 -1.77,-0.528 -1.386,1.154 0.256,1.1263 0.03,2.2027 -0.621,3.0869 -0.557,0.7468 -0.816,1.638 -0.575,1.9805 0.241,0.3424 -0.145,2.3269 -0.859,4.4096 -0.715,2.0829 -1.638,5.442 -2.055,7.4647 -0.414,2.0227 -0.992,3.9322 -1.283,4.2433 -0.291,0.3111 -0.746,1.5842 -1.008,2.829 -0.263,1.2447 -1.015,3.3662 -1.671,4.7146 -0.656,1.3483 -1.193,2.9395 -1.193,3.5361 0,0.5966 -0.255,1.0847 -0.566,1.0847 -0.311,0 -1.19,1.273 -1.954,2.8287 -0.763,1.556 -1.623,2.8291 -1.912,2.8291 -0.288,0 -0.864,0.9948 -1.281,2.2106 -0.423,1.2411 -1.741,2.9705 -3.004,3.9432 -1.238,0.9528 -2.25,2.1411 -2.25,2.6405 0,0.4993 -1.597,2.376 -3.548,4.1704 -1.952,1.7942 -3.548,3.4738 -3.548,3.7323 0,0.2587 -0.492,0.9461 -1.092,1.5278 -0.989,0.9584 -1,1.2012 -0.113,2.5904 0.539,0.8432 1.371,2.6788 1.85,4.0792 0.478,1.4002 1.109,2.7877 1.402,3.0834 0.294,0.2957 0.533,0.9871 0.533,1.5367 0,0.5496 0.396,1.8354 0.879,2.8572 0.483,1.0218 1.387,3.2582 2.007,4.9698 0.62,1.7115 1.796,4.3847 2.615,5.9407 2.349,4.4645 3.53,7.1446 3.53,8.0098 0,1.0949 1.963,3.6402 2.56,3.3175 0.265,-0.1438 0.655,-1.7288 0.867,-3.5221 z"
         id="path15678-79-8-9-5-2"
         sodipodi:nodetypes="cssssssssscscsssssssssccsssscssscsssssssssssssssssssssssssssscsssssssssscsssssssccssssssssssccsssssssssssssssssssssssssscssssssssssssssssssssssscssssssssssssssssccccccccscssssssssssssssssssssssssssssssssssssssssssssssssssssssssssssscccssccsssccssssccsssccssssssssssssssssssssccssssssccccccccsssssssssscccssssscsssssssssssccsscccssssssssssssssssssssssssssssscsscssssssssssssssssssssssssssscccsccsssssssssssssssssssssssssssssccscccccsssssssccsccssssssssssssssssssssssssssssssssssccssssssssssssssssssssssssssssssssssssssssssssssssssssssssssssssssssssssssssssc" /><path
         style="fill:none;fill-opacity:1;stroke:#000000;stroke-width:30;stroke-linecap:round;stroke-linejoin:round;stroke-dasharray:none;stroke-opacity:1"
         d="m 10483.265,4647.3639 -22.948,3.0866 -20.468,5.8803 -24.606,7.3323 -22.356,3.8028 -5.051,21.3036 -4.53,21.9067 -5.717,21.4434 -3.902,20.9728 -5.883,21.4663 18.157,15.2486 17.273,14.64 17.665,15.0137 16.84,14.5243 22.154,-6.4007 23.952,-4.8782 22.011,-5.9268 22.808,-3.5098 5.241,-20.8181 7.834,-21.596 3.715,-21.259 4.499,-21.013 4.22,-21.8941 -16.057,-15.7207 -18.635,-14.9541 -17.986,-14.1439 z"
         id="path31949-6-5-3-9"
         sodipodi:nodetypes="ccccccc"
         inkscape:path-effect="#path-effect32105-8-4-5-5"
         inkscape:original-d="m 10483.465,4647.2198 -90.177,21.3573 -25.491,105.98 70.617,59.9641 90.176,-21.3582 25.491,-105.9801 z" /></g></g></svg>
