<?xml version="1.0" encoding="UTF-8" standalone="no"?>
<!-- Created with Inkscape (http://www.inkscape.org/) -->

<svg
   version="1.1"
   id="svg176"
   width="1349.8174"
   height="755.49316"
   viewBox="0 0 1349.8174 755.49316"
   sodipodi:docname="website for ai.svg"
   xml:space="preserve"
   inkscape:version="1.2.2 (b0a8486541, 2022-12-01)"
   xmlns:inkscape="http://www.inkscape.org/namespaces/inkscape"
   xmlns:sodipodi="http://sodipodi.sourceforge.net/DTD/sodipodi-0.dtd"
   xmlns="http://www.w3.org/2000/svg"
   xmlns:svg="http://www.w3.org/2000/svg"><defs
     id="defs180"><linearGradient
       id="linearGradient1486"
       inkscape:swatch="solid"><stop
         style="stop-color:#000000;stop-opacity:1;"
         offset="0"
         id="stop1484" /></linearGradient></defs><sodipodi:namedview
     id="namedview178"
     pagecolor="#ffffff"
     bordercolor="#000000"
     borderopacity="0.25"
     inkscape:showpageshadow="2"
     inkscape:pageopacity="0.0"
     inkscape:pagecheckerboard="0"
     inkscape:deskcolor="#d1d1d1"
     showgrid="false"
     showguides="false"
     inkscape:zoom="0.12767102"
     inkscape:cx="15485.111"
     inkscape:cy="-11341.649"
     inkscape:window-width="1920"
     inkscape:window-height="1011"
     inkscape:window-x="0"
     inkscape:window-y="0"
     inkscape:window-maximized="1"
     inkscape:current-layer="g182"><inkscape:grid
       type="xygrid"
       id="grid2722" /></sodipodi:namedview><g
     inkscape:groupmode="layer"
     inkscape:label="Image"
     id="g182"
     transform="translate(-10718.486,13339.381)"><g
       id="g9943"
       inkscape:export-filename="emissions-base.svg"
       inkscape:export-xdpi="96"
       inkscape:export-ydpi="96"><path
         style="fill:#000000;stroke-width:0.221348"
         d="m 11064.329,-12793.632 c 0.187,-0.409 0.672,-1.132 1.086,-1.605 0.417,-0.473 0.756,-1.101 0.756,-1.393 0,-0.315 0.132,-0.492 0.301,-0.433 0.396,0.133 1.15,-0.847 1.15,-1.49 0,-0.278 0.112,-0.506 0.255,-0.506 0.131,0 0.415,-0.384 0.61,-0.853 0.199,-0.469 0.784,-1.239 1.306,-1.71 0.542,-0.489 1.131,-1.344 1.373,-1.991 0.235,-0.624 0.783,-1.516 1.218,-1.982 0.436,-0.466 1.451,-1.536 2.254,-2.377 0.942,-0.989 1.458,-1.734 1.458,-2.105 0,-0.315 0.112,-0.639 0.244,-0.721 0.131,-0.08 0.242,-0.38 0.242,-0.658 0,-0.279 0.411,-0.899 0.916,-1.377 1.045,-0.992 1.889,-2.208 1.778,-2.565 -0.04,-0.134 0,-0.158 0.113,-0.06 0.287,0.287 1.55,-1.057 1.55,-1.649 0,-0.291 0.225,-0.814 0.503,-1.166 0.274,-0.351 0.42,-0.637 0.326,-0.637 -0.09,0 0,-0.19 0.188,-0.424 0.203,-0.234 0.428,-0.605 0.507,-0.827 0.09,-0.254 0.623,-0.503 1.448,-0.674 1.372,-0.287 4.793,-0.186 5.32,0.154 0.169,0.109 1.231,0.218 2.362,0.242 1.132,0.04 2.331,0.07 2.665,0.101 0.574,0.06 1.283,-0.04 3.509,-0.383 0.533,-0.08 1.492,-0.388 2.129,-0.67 1.124,-0.498 1.183,-0.501 1.89,-0.08 0.417,0.247 0.903,0.36 1.139,0.263 0.653,-0.267 3.368,-0.368 3.956,-0.154 0.347,0.129 0.784,0.07 1.238,-0.154 0.432,-0.214 1.036,-0.299 1.548,-0.214 0.464,0.08 1.734,0.04 2.824,-0.08 1.09,-0.122 2.689,-0.238 3.556,-0.263 0.865,-0.04 2.01,-0.19 2.542,-0.367 0.532,-0.182 1.423,-0.331 1.982,-0.331 0.555,0 1.265,-0.09 1.572,-0.214 0.745,-0.283 3.142,-0.531 6.206,-0.651 1.371,-0.06 2.601,-0.161 2.726,-0.242 0.132,-0.08 1.044,-0.178 2.034,-0.222 1.319,-0.06 1.987,-0.214 2.485,-0.566 0.775,-0.551 2.835,-0.944 3.056,-0.582 0.203,0.327 6.134,0.174 6.547,-0.171 0.188,-0.15 0.963,-0.242 1.747,-0.206 1.348,0.06 1.481,0.122 2.573,1.239 0.632,0.646 1.152,1.376 1.152,1.621 0,0.246 0.113,0.513 0.242,0.595 0.131,0.08 0.242,0.736 0.242,1.451 0,1.276 -0.04,1.336 -1.574,2.915 -0.865,0.887 -1.575,1.758 -1.575,1.934 0,0.178 -0.187,0.355 -0.399,0.4 -0.218,0.05 -0.756,0.732 -1.194,1.53 -0.437,0.799 -0.898,1.429 -1.026,1.401 -0.46,-0.105 -1.468,1.107 -1.728,2.072 -0.151,0.542 -0.379,1.056 -0.52,1.144 -0.368,0.226 -1.184,2.221 -1.184,2.894 0,0.315 -0.19,0.714 -0.424,0.887 -0.235,0.173 -0.593,0.797 -0.801,1.385 -0.231,0.655 -0.545,1.093 -0.807,1.131 -0.565,0.08 -1.045,0.76 -1.231,1.734 -0.08,0.433 -0.254,0.787 -0.379,0.787 -0.132,0 -0.231,0.126 -0.231,0.275 0,0.371 -0.976,2.371 -1.507,3.085 -0.238,0.319 -0.43,0.873 -0.43,1.234 0,0.363 -0.324,1.136 -0.722,1.722 -0.396,0.586 -0.724,1.148 -0.726,1.249 0,0.332 -1.274,1.619 -1.736,1.765 -0.248,0.08 -0.78,0.806 -1.182,1.617 -0.405,0.812 -0.976,1.703 -1.27,1.981 -1.535,1.442 -3.064,3.846 -3.215,5.053 -0.07,0.528 -0.508,1.214 -1.373,2.129 -0.702,0.743 -1.439,1.669 -1.638,2.057 -0.199,0.388 -0.419,0.761 -0.484,0.827 -1.074,1.069 -2.907,4.174 -2.907,4.921 0,0.206 -0.464,0.881 -1.028,1.501 -1.182,1.294 -1.614,1.988 -1.625,2.609 0,0.242 -0.113,0.376 -0.231,0.299 -0.113,-0.07 -0.19,0.137 -0.15,0.471 0.04,0.335 -0.06,0.611 -0.201,0.618 -0.15,0 -0.625,0.455 -1.058,0.995 -0.678,0.846 -0.786,1.169 -0.786,2.347 v 1.366 l 2.247,-0.05 c 3.035,-0.06 3.952,-0.174 4.374,-0.527 0.37,-0.307 1.396,-0.258 4.498,0.198 0.856,0.129 1.62,0.194 1.697,0.144 0.07,-0.05 0.566,0.122 1.09,0.376 0.521,0.255 1.317,0.462 1.767,0.462 0.451,0 0.766,0.08 0.7,0.19 -0.07,0.105 0.199,0.441 0.586,0.747 0.79,0.629 1.443,1.785 1.443,2.556 0,0.453 -0.55,1.491 -0.969,1.832 -0.08,0.06 -0.283,0.456 -0.448,0.863 -0.199,0.493 -0.578,0.842 -1.126,1.04 -0.79,0.287 -1.574,1.35 -1.574,2.136 0,0.186 -0.169,0.4 -0.389,0.482 -0.214,0.08 -0.641,0.406 -0.957,0.719 -0.313,0.311 -0.685,0.57 -0.821,0.57 -0.132,0 -0.256,0.125 -0.256,0.278 0,0.154 -0.268,0.631 -0.595,1.06 -0.326,0.428 -0.538,0.836 -0.469,0.906 0.357,0.355 -0.489,2.203 -1.37,2.999 -0.525,0.475 -0.955,0.963 -0.955,1.084 0,0.122 -0.352,0.605 -0.778,1.075 -0.428,0.471 -0.914,1.178 -1.081,1.571 -0.169,0.392 -0.467,0.78 -0.674,0.859 -0.206,0.08 -0.371,0.379 -0.371,0.674 0,0.299 -0.422,0.941 -0.97,1.475 -0.531,0.52 -0.969,1.17 -0.969,1.447 0,0.279 -0.298,0.793 -0.664,1.15 -0.82,0.798 -1.546,1.639 -1.417,1.639 0.06,0 -0.06,0.516 -0.246,1.146 -0.202,0.676 -0.727,1.545 -1.281,2.118 -0.516,0.534 -1.115,1.326 -1.332,1.759 -0.218,0.432 -0.501,0.786 -0.633,0.786 -0.131,0 -0.234,0.175 -0.234,0.388 0,0.21 -0.218,0.661 -0.484,1 -0.267,0.339 -0.484,0.737 -0.484,0.886 0,0.15 -0.368,0.684 -0.82,1.19 -0.451,0.507 -0.886,1.257 -0.971,1.668 -0.08,0.412 -0.583,1.22 -1.116,1.798 -0.531,0.577 -0.966,1.162 -0.966,1.299 0,0.137 -0.357,0.772 -0.787,1.408 -1.043,1.534 -1.392,2.162 -1.392,2.496 0,0.154 -0.388,0.705 -0.859,1.227 -0.601,0.664 -0.817,1.092 -0.713,1.417 0.09,0.307 -0.06,0.685 -0.453,1.112 -0.493,0.533 -1.79,3.336 -2.428,5.248 -0.08,0.243 -0.242,0.38 -0.362,0.303 -0.262,-0.161 -0.572,0.539 -0.375,0.853 0.07,0.122 0,0.218 -0.113,0.218 -0.15,0 -0.259,0.174 -0.259,0.388 0,0.214 -0.199,0.675 -0.439,1.029 -0.242,0.351 -0.454,0.901 -0.473,1.218 0,0.315 -0.255,0.783 -0.529,1.037 -0.277,0.263 -0.495,0.769 -0.495,1.163 0,0.383 -0.15,0.845 -0.325,1.022 -0.169,0.178 -0.322,0.648 -0.322,1.046 0,0.697 -1.303,2.92 -1.956,3.337 -0.169,0.105 -0.304,0.34 -0.304,0.515 0,0.179 -0.15,0.458 -0.362,0.623 -0.202,0.165 -0.364,0.488 -0.364,0.716 0,0.23 -0.424,1.021 -0.944,1.763 -0.52,0.742 -1.017,1.604 -1.105,1.916 -0.366,1.283 -1.437,3.511 -1.966,4.081 -0.445,0.479 -0.593,0.969 -0.687,2.285 -0.132,1.834 -0.612,2.556 -1.905,2.882 -0.613,0.153 -0.649,0.234 -0.51,1.097 0.187,1.107 -0.09,1.349 -1.034,0.952 -0.375,-0.158 -1.449,-0.311 -2.381,-0.332 -3.031,-0.08 -2.881,-0.04 -3.361,-1.016 -0.246,-0.499 -0.542,-1.096 -0.66,-1.328 -0.327,-0.635 -0.259,-1.429 0.15,-1.891 0.206,-0.226 0.429,-0.718 0.497,-1.091 0.08,-0.372 0.195,-0.795 0.283,-0.937 0.09,-0.141 0.132,-0.57 0.09,-0.948 -0.04,-0.459 0.113,-0.888 0.488,-1.285 0.48,-0.511 0.572,-0.897 0.638,-2.691 0.04,-1.151 0.193,-2.235 0.338,-2.408 0.15,-0.182 0.308,-1.87 0.369,-3.999 0.06,-2.026 0.197,-3.795 0.306,-3.931 0.385,-0.467 0.396,-4.136 0,-4.595 -0.15,-0.178 -0.33,-0.881 -0.412,-1.565 -0.132,-1.039 -0.08,-1.332 0.343,-1.781 0.379,-0.415 0.52,-1.002 0.63,-2.593 0.214,-3.107 0.316,-3.733 0.732,-4.627 0.208,-0.451 0.383,-1.038 0.383,-1.304 0,-0.267 0,-1.301 -0.04,-2.3 0,-0.999 -0.04,-2.405 -0.06,-3.126 0,-0.722 0.09,-1.348 0.219,-1.392 0.132,-0.05 0.205,-0.647 0.169,-1.36 -0.04,-0.702 0.04,-2.254 0.169,-3.448 0.15,-1.417 0.15,-2.619 0,-3.458 -0.15,-0.868 -0.15,-1.537 0,-2.059 0.225,-0.689 0.436,-2.524 0.612,-5.369 0.04,-0.532 0.131,-1.15 0.234,-1.373 0.09,-0.223 0.197,-0.574 0.229,-0.78 0.04,-0.206 0.113,-0.441 0.203,-0.523 0.15,-0.15 0.04,-1.935 -0.188,-2.954 -0.08,-0.299 0.04,-0.859 0.239,-1.24 0.197,-0.379 0.294,-0.757 0.217,-0.835 -0.08,-0.08 -0.06,-0.335 0.04,-0.575 0.169,-0.4 0.333,-2.979 0.34,-5.275 0,-0.533 0.131,-2.33 0.287,-3.994 0.188,-1.933 0.201,-3.33 0.06,-3.865 -0.169,-0.602 -0.113,-1.254 0.15,-2.301 0.206,-0.802 0.377,-1.922 0.377,-2.488 0,-0.565 0.06,-1.028 0.132,-1.028 0.08,0 0.112,-0.675 0.08,-1.5 -0.04,-0.872 0.09,-1.844 0.291,-2.324 0.238,-0.571 0.358,-1.94 0.382,-4.44 0.04,-1.988 0.242,-3.742 0.242,-3.742 l 0.207,-0.933 0.339,-3.257 0.509,-1.222 c 0,0 -0.04,-0.67 0.113,-0.859 0.15,-0.186 0.206,-0.464 0.112,-0.615 -0.09,-0.151 -0.169,-1.192 -0.15,-2.311 0,-1.119 -0.09,-2.035 -0.09,-2.035 l -4.218,0.125 c 0,0 -4.962,0.368 -9.917,0.368 -2.749,0 -4.063,0.102 -4.903,0.38 -0.665,0.218 -1.447,0.311 -1.854,0.226 -0.387,-0.08 -0.766,-0.06 -0.841,0.07 -0.3,0.483 -4.428,-0.243 -4.895,-0.858 -0.169,-0.234 -0.329,-0.753 -0.336,-1.152 0,-0.4 -0.07,-0.944 -0.132,-1.211 -0.07,-0.266 0.04,-0.819 0.218,-1.229 z"
         id="path8060-3-8-8-8-3-1-8-8-2-6-8"
         sodipodi:nodetypes="sssssssssssssssssssssssssssssssssssssssssssssssssssssssssssssssssscssssssssssssssscssssssssssssssssssssssssssssssssssssssssssssssssssssssscssssssssssssssssssssssssssssscsssssssssssssssssssssssccccsssccsssssssss" /><path
         d="m 11246.292,-12650.733 c -0.678,-0.287 -2.259,-1.524 -3.514,-2.749 -1.255,-1.224 -2.567,-2.227 -2.916,-2.227 -0.35,0 -0.782,-0.762 -0.96,-1.694 -1.208,-6.306 -2.479,-10.616 -3.682,-12.478 -3.111,-4.818 -4.031,-6.691 -4.031,-8.209 0,-1.715 -1.02,-4.472 -2.207,-5.964 -0.404,-0.509 -0.872,-1.895 -1.04,-3.081 -0.34,-2.395 -2.675,-8.871 -3.889,-10.784 -0.43,-0.678 -0.978,-2.619 -1.217,-4.314 -0.239,-1.694 -0.717,-3.623 -1.062,-4.285 -1.532,-2.944 -4.465,-17.106 -3.866,-18.667 0.179,-0.468 -0.206,-1.873 -0.856,-3.122 -0.651,-1.249 -1.507,-3.52 -1.902,-5.045 -0.395,-1.525 -1.248,-3.959 -1.895,-5.408 -0.647,-1.45 -1.177,-3.149 -1.177,-3.776 0,-0.627 -0.369,-1.447 -0.821,-1.821 -0.451,-0.375 -1.326,-2.281 -1.943,-4.235 -1.477,-4.675 -3.943,-11.713 -4.916,-14.03 -0.427,-1.017 -1.255,-3.928 -1.842,-6.47 -0.586,-2.542 -1.347,-5.454 -1.691,-6.47 -1.174,-3.471 -2.308,-8.62 -2.604,-11.825 -0.162,-1.76 -0.843,-4.534 -1.51,-6.164 -1.229,-2.997 -1.959,-5.559 -2.279,-7.996 -0.09,-0.735 -0.599,-1.982 -1.117,-2.773 -0.518,-0.79 -1.135,-2.685 -1.372,-4.21 -0.238,-1.525 -1.084,-4.211 -1.881,-5.969 -0.797,-1.757 -1.449,-3.675 -1.449,-4.26 0,-0.586 -0.932,-3.031 -2.07,-5.432 -1.139,-2.401 -2.266,-5.059 -2.505,-5.907 -0.238,-0.847 -0.676,-2.095 -0.972,-2.773 -2.48,-5.683 -3.348,-7.87 -4.371,-11.018 -0.648,-1.993 -1.178,-4.174 -1.178,-4.847 0,-1.365 -0.139,-1.347 -5.548,0.739 -3.667,1.413 -7.23,1.686 -28.049,2.149 -6.442,0.142 -13.335,0.576 -15.316,0.961 -2.04,0.396 -5.373,0.529 -7.684,0.306 -2.244,-0.217 -5.478,-0.355 -7.185,-0.307 -2.994,0.08 -33.823,0.06 -38.859,-0.03 -1.356,-0.02 -5.656,-0.02 -9.555,0.02 -16.179,0.126 -26.306,-0.538 -28.049,-1.835 -1.049,-0.78 -4.875,-1.112 -6.005,-0.521 -1.405,0.735 -3.515,5.13 -2.923,6.087 0.253,0.41 -0.103,2.307 -0.792,4.216 -0.689,1.908 -1.208,4.163 -1.152,5.01 0.123,1.891 -1.085,5 -2.302,5.921 -0.496,0.376 -0.902,1.554 -0.902,2.619 0,1.065 -0.171,1.936 -0.382,1.936 -0.21,0 -0.334,1.04 -0.276,2.311 0.13,2.839 -0.758,7.743 -1.926,10.629 -1.022,2.524 -2.208,10.821 -1.726,12.076 0.182,0.476 0.02,0.865 -0.35,0.865 -0.376,0 -0.683,0.924 -0.683,2.054 0,1.129 -0.158,2.212 -0.352,2.406 -0.195,0.195 -0.474,2.25 -0.623,4.571 -0.149,2.32 -0.545,4.31 -0.88,4.423 -0.336,0.112 -0.611,0.691 -0.611,1.284 0,0.593 -0.205,1.283 -0.455,1.533 -0.249,0.25 -0.467,2.76 -0.483,5.578 -0.02,4.544 -0.218,5.397 -1.703,7.538 -1.846,2.663 -2.179,3.842 -0.749,2.656 1.139,-0.945 1.265,0.06 0.245,1.966 -0.373,0.698 -0.759,1.858 -0.857,2.578 -0.308,2.256 -2.428,7.435 -3.395,8.293 -0.806,0.715 -0.778,0.774 0.223,0.455 0.943,-0.3 1.086,-0.119 0.805,1.028 -0.468,1.904 -1.214,7.75 -1.054,8.247 0.07,0.222 -0.162,0.584 -0.518,0.805 -0.357,0.22 -0.719,1.312 -0.804,2.426 -0.08,1.114 -0.371,2.159 -0.636,2.323 -0.265,0.164 -0.482,0.94 -0.482,1.724 0,0.785 -0.418,2.61 -0.928,4.056 -0.696,1.972 -0.754,2.839 -0.233,3.467 0.502,0.605 0.509,1.062 0.03,1.645 -0.368,0.444 -0.651,2.391 -0.628,4.327 0.02,1.936 -0.277,3.905 -0.667,4.375 -0.456,0.549 -0.565,1.939 -0.306,3.893 0.305,2.296 0.141,3.551 -0.677,5.129 -0.687,1.328 -1.178,4.001 -1.347,7.338 -0.147,2.887 -0.637,6.081 -1.091,7.098 -0.453,1.017 -0.965,3.235 -1.137,4.93 -0.669,6.591 -2.394,16.073 -3.303,18.153 -0.524,1.2 -1.179,3.153 -1.455,4.339 -3.113,13.392 -3.374,13.842 -6.867,11.857 -3.189,-1.811 -3.83,-2.26 -5.496,-3.851 -1.56,-1.49 -1.591,-1.666 -1.049,-5.849 0.308,-2.373 0.624,-6.319 0.702,-8.769 0.08,-2.497 0.474,-4.785 0.895,-5.207 0.414,-0.413 0.753,-1.162 0.753,-1.663 0,-0.502 0.262,-1.763 0.582,-2.804 0.752,-2.445 2.411,-11.488 2.834,-15.449 1.135,-10.627 1.571,-13.551 2.098,-14.078 0.368,-0.368 0.377,-0.996 0.02,-1.659 -0.37,-0.692 -0.278,-2.198 0.263,-4.282 0.459,-1.768 0.694,-3.75 0.523,-4.405 -0.171,-0.654 0.106,-1.666 0.616,-2.248 0.509,-0.582 1.064,-1.89 1.232,-2.907 0.169,-1.016 1.197,-5.037 2.287,-8.935 1.089,-3.898 2.236,-9.166 2.548,-11.708 0.311,-2.542 1.007,-5.731 1.546,-7.087 0.539,-1.355 1.095,-4.96 1.236,-8.01 0.331,-7.176 0.694,-9.265 1.765,-10.154 0.647,-0.536 0.723,-1.125 0.292,-2.258 -0.816,-2.146 -0.753,-2.479 0.722,-3.853 0.718,-0.668 1.537,-2.457 1.821,-3.975 0.283,-1.517 1.056,-3.962 1.718,-5.433 1.225,-2.723 1.952,-6.396 2.36,-11.917 0.812,-11.002 1.388,-15.745 2.092,-17.253 0.767,-1.642 1.905,-6.86 2.092,-9.585 0.136,-1.988 1.056,-5.602 2.031,-7.978 0.392,-0.955 0.664,-2.968 0.93,-6.889 0.08,-1.247 0.359,-2.472 0.609,-2.722 0.249,-0.249 0.454,-1.362 0.454,-2.471 0,-1.11 0.24,-2.166 0.533,-2.348 0.769,-0.474 1.386,-4.211 1.682,-10.173 0.171,-3.442 0.569,-5.537 1.18,-6.213 0.508,-0.56 0.747,-1.194 0.533,-1.409 -0.215,-0.214 0.06,-1.343 0.615,-2.508 0.553,-1.165 1.006,-2.353 1.008,-2.641 0,-0.288 1.238,-1.885 2.748,-3.55 1.511,-1.665 2.622,-3.228 2.47,-3.473 -0.151,-0.246 0.278,-0.591 0.955,-0.768 0.733,-0.193 1.374,-1.029 1.586,-2.073 0.249,-1.223 1.472,-2.568 4.052,-4.458 2.032,-1.489 3.944,-3.36 4.247,-4.159 0.304,-0.799 0.946,-1.453 1.427,-1.453 0.481,0 1.024,-0.391 1.208,-0.87 0.183,-0.478 1.322,-1.227 2.529,-1.663 1.207,-0.437 2.359,-1.309 2.559,-1.939 0.405,-1.275 1.905,-1.958 7.347,-3.345 2.035,-0.518 4.037,-1.217 4.45,-1.552 0.413,-0.335 2.069,-0.746 3.681,-0.914 1.611,-0.169 4.131,-0.975 5.6,-1.795 2.133,-1.19 3.499,-1.477 6.798,-1.426 2.272,0.03 5.378,-0.19 6.904,-0.501 1.583,-0.323 4.892,-0.35 7.705,-0.06 2.713,0.277 7.567,0.476 10.788,0.444 3.222,-0.03 8.354,0.269 11.405,0.671 3.052,0.402 7.074,0.684 8.939,0.628 3.915,-0.12 3.196,-0.163 9.611,0.593 2.743,0.323 6.211,0.994 7.706,1.491 1.495,0.497 4.382,1.077 6.417,1.287 4.527,0.469 8.832,1.515 10.479,2.545 0.679,0.424 2.343,0.973 3.699,1.219 1.357,0.247 3.437,1.043 4.624,1.771 1.186,0.728 3.406,1.707 4.931,2.174 6.313,1.936 13.674,7.667 15.845,12.336 0.552,1.187 1.544,2.764 2.206,3.505 0.661,0.742 1.344,2.602 1.516,4.134 0.182,1.615 0.8,3.225 1.47,3.831 0.636,0.576 1.156,1.632 1.156,2.348 0,0.716 0.685,2.309 1.522,3.541 2.606,3.833 4.541,8.932 5.516,14.535 0.516,2.963 1.507,7.467 2.203,10.009 0.695,2.542 1.398,6.286 1.561,8.319 0.308,3.83 1.245,8.336 2.179,10.476 1.201,2.751 3.047,8.985 3.051,10.302 0,0.773 0.401,2.167 0.886,3.097 1.185,2.27 4.042,10.602 4.042,11.788 0,1.853 3.233,12.481 5.278,17.35 1.143,2.722 3.193,8.406 4.555,12.633 1.363,4.226 2.731,8.239 3.041,8.916 1.198,2.62 1.881,5.048 2.254,8.011 0.387,3.068 1.515,6.871 3.132,10.569 0.467,1.068 0.85,2.979 0.85,4.247 0,2.903 2.172,10.289 3.979,13.532 0.756,1.357 1.58,3.561 1.831,4.898 0.251,1.338 0.85,2.993 1.33,3.679 0.481,0.686 0.874,1.82 0.874,2.52 0,0.7 0.542,2.336 1.205,3.635 0.662,1.3 1.517,3.923 1.899,5.831 0.382,1.907 1.208,4.577 1.835,5.933 0.627,1.355 1.616,3.989 2.197,5.853 0.582,1.864 2.106,5.65 3.388,8.413 2.456,5.295 3.794,9.35 3.331,10.098 -0.547,0.884 0.992,10.8 1.964,12.658 1.976,3.777 -1.494,6.992 -5.647,5.234 z m -161.513,-209.893 c 7.121,-0.126 15.304,-0.49 18.186,-0.814 2.882,-0.323 10.927,-0.517 17.877,-0.429 6.951,0.09 14.857,-0.08 17.569,-0.369 2.713,-0.291 8.955,-0.669 13.871,-0.842 9.055,-0.318 16.941,-1.201 19.536,-2.187 0.791,-0.301 1.423,-1.056 1.423,-1.701 0,-0.871 0.423,-1.144 1.696,-1.094 1.296,0.05 1.74,-0.248 1.886,-1.272 0.235,-1.65 -1.952,-6.08 -3.247,-6.576 -0.523,-0.201 -0.951,-0.694 -0.951,-1.097 0,-1.517 -3.118,-4.763 -4.966,-5.168 -1.044,-0.23 -2.642,-0.805 -3.552,-1.28 -0.909,-0.474 -2.261,-0.864 -3.004,-0.866 -0.743,0 -1.522,-0.281 -1.732,-0.62 -0.21,-0.339 -1.044,-0.616 -1.856,-0.616 -0.811,0 -3.072,-0.416 -5.025,-0.925 -1.952,-0.508 -4.809,-0.927 -6.348,-0.931 -2.806,-0.02 -7.468,-1.163 -9.872,-2.449 -0.706,-0.378 -2.593,-0.771 -4.195,-0.874 -1.601,-0.104 -3.742,-0.532 -4.76,-0.952 -2.056,-0.85 -9.654,-0.576 -10.933,0.394 -2.194,1.664 -10.027,2.689 -11.29,1.478 -0.322,-0.309 -2.25,-0.656 -4.285,-0.77 -2.034,-0.115 -3.976,-0.513 -4.315,-0.884 -0.656,-0.718 -10.923,-0.06 -15.103,0.971 -1.187,0.292 -4.911,1.177 -8.275,1.966 -3.364,0.79 -6.475,1.791 -6.912,2.227 -0.438,0.435 -2.539,1.049 -4.671,1.363 -2.132,0.315 -4.847,0.75 -6.034,0.967 -2.506,0.458 -9.578,3.622 -10.145,4.539 -0.212,0.344 -1.35,1.082 -2.528,1.641 -1.177,0.558 -3.52,2.31 -5.205,3.891 -2.921,2.741 -3.062,3.022 -2.995,5.972 0.126,5.571 1.054,6.04 13.784,6.969 14.185,1.035 15.622,1.094 19.727,0.815 2.034,-0.138 9.524,-0.353 16.644,-0.477 z"
         style="fill:#000000;stroke-width:2.16157"
         id="path9348-5-5-0-8-5-6-1-9-8"
         sodipodi:nodetypes="csssssssssssssssssssssssssssssssssssssscssssssssssssssssssssssssssssssssssssssssssssssssssssssssssssssssssssssssssssssssssssssssssssssssssssssssssssssssssssssssssssssssssssssssccssssssssssssssssscsssssssssssssssssss" /><path
         style="fill:none;fill-opacity:1;stroke:#000000;stroke-width:4.807;stroke-linecap:round;stroke-linejoin:round;stroke-dasharray:none;stroke-dashoffset:0;stroke-opacity:1"
         d="m 11644.388,-12602.062 4.657,-0.08 5.613,0.421 -0.159,-5.113 -0.14,-4.901 -0.02,-4.848 0.145,-4.876 -0.2,-5.242 0.287,-4.637 -0.02,-5.039 0.137,-4.886 v -5.012 -4.955 l -0.243,-5.4 -0.193,-4.769 0.259,-4.675 -0.01,-4.95 v -4.951 l 0.02,-4.938 0.82,-4.942 -0.209,-5.519 -0.02,-4.405 -0.07,-4.957 0.401,-4.814 -0.186,-5.183 -0.166,-4.923 -0.228,-5.022 -0.255,-4.946 -0.17,-5.099 -0.167,-4.73 -0.106,-4.913 -0.173,-5.31 -4.412,0.137 -5.382,0.09 -4.85,0.135 -4.677,0.04 -5.676,-0.242 -4.585,0.07 -5.31,-0.536 -4.741,0.05 -4.635,0.02 -5.482,-0.115 -4.563,0.15 -5.319,-0.07 -4.9,-0.02 -5.145,-0.448 -4.887,-0.176 -4.998,-0.355 -4.856,-0.254 -4.934,-0.517 -4.945,-0.206 -4.932,0.07 -4.19,0.179 -5.426,0.108 -5.369,-0.613 -4.91,0.04 -4.762,0.175 -5.163,0.05 -4.525,0.158 -5.359,0.07 -4.533,0.14 -5.41,0.05 -5.089,-0.118 -4.582,0.15 -5.125,0.116 -4.88,0.156 -4.864,0.198 -4.684,0.191 -5.646,-0.307 -4.742,0.1 -5.15,-0.124 -4.28,0.131 -4.973,0.238 -5.492,-0.166 -5.023,0.02 -4.589,0.09 -5.312,0.02 -4.947,-0.445 -4.922,0.121 -4.812,0.176 -5.199,-0.07 -5.001,-0.03 -4.316,0.28 -5.569,0.02 -4.99,0.02 -4.873,0.112 -4.928,0.119 -4.813,0.14 -5.326,-0.227 -4.789,-0.05 -4.388,0.34 -5.541,-0.306 -4.97,0.186 -4.947,0.274 -4.387,0.449 -5.574,0.123 -4.464,0.424 -0.469,4.45 -0.439,3.957"
         id="path6578-4-1-6-7-3-1-5-2-9"
         sodipodi:nodetypes="ccccc" /><path
         id="rect1489-8-6-9-0-0-9-9-2-6"
         d="m 11319.546,-12732.204 14.144,-0.67 16.199,0.251 13.226,-0.414 14.691,-0.256 14.894,0.03 14.994,0.228 13.983,-0.55 15.624,0.32 14.074,0.07 14.974,0.241 14.388,0.07 14.675,0.06 14.185,-1.124 14.751,-0.513 15.564,0.301 14.154,0.286 14.671,0.291 14.709,0.317 16.264,0.326 12.744,-1.166 15.053,0.97 14.531,0.87 1.007,14.758 -0.139,13.793 -0.12,14.404 -0.241,14.142 -0.305,14.333 -0.139,13.932 -0.146,14.914 -0.03,14.434 -0.179,13.399 1.328,15.675 -14.456,0.201 -14.491,0.323 -14.145,0.07 -16.142,-0.689 -13.959,0.17 -15.41,-1.444 -14.276,0.169 -14.057,0.08 -15.756,-0.275 -13.917,0.442 -15.425,-0.17 -14.592,-0.01 -15.081,-1.135 -14.58,-0.31 -14.796,-0.725 -14.53,-0.34 -14.681,-0.916 -14.753,0.168 -14.661,1.05 -13.098,1.322 -15.554,0.997 -15.487,-1.085 -0.02,-14.237 0.378,-13.831 -0.08,-14.514 0.801,-13.87 -0.139,-14.417 0.715,-13.981 -0.409,-14.438 -0.646,-14.595 0.267,-13.46 z"
         style="fill:none;fill-opacity:1;stroke:#000000;stroke-width:8;stroke-linecap:round;stroke-linejoin:round;stroke-dasharray:none;stroke-dashoffset:0;stroke-opacity:1" /><path
         d="m 11418.191,-12691.368 q -3.006,-3.176 -3.006,-10.819 0,-6.89 2.845,-11.734 1.879,-3.23 4.403,-3.23 2.415,0 2.415,5.437 0,3.391 -1.181,8.666 -1.127,5.221 -3.489,10.711 1.396,1.561 3.328,1.561 -0.268,1.077 -1.61,1.077 -1.289,0 -2.577,-0.7 -2.577,5.436 -5.745,8.773 -3.167,3.338 -6.496,3.338 -6.818,0 -6.818,-7.213 0,-3.714 1.557,-8.935 1.557,-5.221 3.114,-10.496 1.557,-5.329 1.557,-9.151 0,-3.875 -1.987,-5.974 -1.986,-2.099 -5.476,-2.099 -5.368,0 -8.751,5.49 -2.63,4.36 -2.63,9.204 0,6.136 3.597,7.805 1.074,0.484 2.308,0.484 4.134,0 6.282,-4.629 0.107,-0.215 0.322,-0.215 0.268,-0.05 0.429,0.107 0.215,0.161 0.107,0.377 -1.02,2.53 -2.845,4.09 -1.825,1.508 -4.295,1.508 -4.832,0 -6.55,-4.899 -0.698,-2.099 -0.698,-4.736 0,-2.638 1.128,-5.921 2.093,-6.19 6.711,-8.72 2.308,-1.238 4.885,-1.238 4.939,0 7.57,3.391 2.63,3.337 2.63,8.881 0,4.037 -1.395,9.366 -1.343,5.329 -2.738,10.227 -1.396,4.898 -1.396,7.374 0,2.476 0.698,3.553 0.751,1.022 2.63,1.022 3.06,0 5.906,-3.229 2.899,-3.23 5.261,-8.505 z m 5.208,-20.777 q 0,-3.283 -1.235,-3.283 -1.181,0 -2.255,2.476 -2.04,4.575 -2.04,11.195 0,5.06 1.342,7.859 3.597,-9.258 4.134,-16.794 0.05,-0.753 0.05,-1.453 z"
         id="path15161"
         style="font-size:53.3333px;font-family:'Rouge Script';-inkscape-font-specification:'Rouge Script, Normal';white-space:pre;stroke-width:8;stroke-linecap:round;stroke-linejoin:round" /><path
         d="m 11430.969,-12679.419 q -4.242,0 -4.242,-6.405 0,-3.714 1.933,-8.128 2.684,-5.974 6.818,-7.805 1.45,-0.592 2.899,-0.592 1.503,0 2.363,0.862 0.859,0.861 0.859,1.937 0,0.485 -0.537,0.485 -0.484,-0.05 -0.484,-0.538 0,-0.485 -0.536,-0.862 -0.484,-0.43 -1.45,-0.43 -3.382,0 -6.12,6.082 -2.577,5.652 -2.577,10.711 0,3.122 1.342,3.122 1.396,0 3.329,-2.314 1.986,-2.369 3.65,-5.49 3.597,-6.567 4.241,-8.451 0.645,-1.884 1.396,-1.884 1.342,0 1.342,2.261 0,0.699 -0.161,1.614 -1.771,8.613 -1.932,9.958 -0.107,1.346 -0.107,1.938 0,2.584 1.234,2.584 1.396,0 3.92,-3.714 2.523,-3.714 4.348,-7.428 l 1.826,-3.714 h 1.449 q -0.322,0.645 -0.859,1.776 -0.483,1.076 -1.986,3.929 -1.503,2.799 -2.899,4.952 -1.342,2.153 -3.061,3.929 -1.664,1.723 -2.899,1.723 -3.972,0 -3.972,-5.813 0,-1.938 0.429,-4.522 h -0.376 q -5.476,10.227 -9.18,10.227 z"
         id="path15163"
         style="font-size:53.3333px;font-family:'Rouge Script';-inkscape-font-specification:'Rouge Script, Normal';white-space:pre;stroke-width:8;stroke-linecap:round;stroke-linejoin:round" /><path
         d="m 11466.026,-12713.221 q 1.932,-5.06 1.932,-6.89 0,-1.83 -0.912,-1.938 -2.523,0 -5.261,8.128 -2.685,8.074 -4.242,16.794 -1.503,8.665 -1.503,12.272 0,6.082 3.007,6.082 0,0.377 -0.484,0.754 -0.483,0.376 -1.127,0.376 -4.402,0 -4.402,-7.912 0,-2.907 1.073,-8.881 1.074,-6.029 2.792,-12.595 1.718,-6.567 4.456,-11.411 2.738,-4.899 5.584,-4.899 2.254,0 2.254,2.853 0,2.153 -1.342,6.029 -2.577,7.535 -7.409,15.071 -1.288,1.991 -2.308,3.229 -0.269,0.323 -0.269,-0.215 -0.05,-1.023 0.484,-1.776 4.402,-6.621 7.677,-15.071 z"
         id="path15165"
         style="font-size:53.3333px;font-family:'Rouge Script';-inkscape-font-specification:'Rouge Script, Normal';white-space:pre;stroke-width:8;stroke-linecap:round;stroke-linejoin:round" /><path
         d="m 11472.736,-12711.714 q 1.235,0 1.235,1.668 0,1.669 -1.61,2.692 -0.806,0.538 -1.396,0.538 -0.859,0 -1.02,-0.538 l -0.05,-0.162 q 0.483,0 0.698,-1.023 0.214,-1.076 0.644,-2.099 0.483,-1.076 1.503,-1.076 z m -3.435,30.95 q 1.395,0 3.919,-3.714 2.523,-3.714 4.348,-7.428 l 1.826,-3.714 h 1.449 q -0.322,0.645 -0.859,1.776 -0.483,1.076 -1.986,3.929 -1.503,2.799 -2.899,4.952 -1.342,2.153 -3.06,3.929 -1.665,1.723 -2.899,1.723 -3.973,0 -3.973,-5.167 0,-3.876 2.201,-12.596 0.215,-0.915 0.322,-1.399 0.161,-0.485 0.322,-1.238 0.161,-0.807 0.322,-1.453 0.269,-1.131 0.967,-1.131 0.966,0 1.395,1.4 0.215,0.646 0.215,1.561 0,0.915 -0.215,1.937 -0.214,0.969 -0.698,2.907 -0.483,1.938 -0.751,3.176 -0.268,1.238 -0.591,3.014 -0.59,2.96 -0.59,5.275 0,2.261 1.235,2.261 z"
         id="path15167"
         style="font-size:53.3333px;font-family:'Rouge Script';-inkscape-font-specification:'Rouge Script, Normal';white-space:pre;stroke-width:8;stroke-linecap:round;stroke-linejoin:round" /><path
         d="m 11498.506,-12709.669 q -1.557,5.652 -2.47,9.42 -0.859,3.714 -1.932,8.666 -1.02,4.898 -1.02,7.858 0,2.961 1.342,2.961 1.449,0 3.973,-3.714 2.577,-3.714 4.402,-7.428 l 1.772,-3.714 h 1.449 q -0.322,0.645 -0.859,1.776 -0.483,1.076 -1.986,3.929 -1.504,2.799 -2.899,4.952 -1.343,2.153 -3.061,3.929 -1.717,1.723 -2.952,1.723 -3.866,0 -3.866,-5.706 0,-2.099 0.591,-5.49 h -0.43 q -5.959,11.088 -9.663,11.088 -4.241,0 -4.241,-6.405 0,-3.714 1.932,-8.128 2.685,-5.974 6.819,-7.805 1.449,-0.592 2.899,-0.592 1.503,0 2.362,0.862 0.859,0.861 0.859,1.937 0,0.485 -0.537,0.485 -0.483,-0.05 -0.483,-0.538 0,-0.485 -0.537,-0.862 -0.483,-0.43 -1.45,-0.43 -3.382,0 -6.12,6.082 -2.577,5.652 -2.577,10.711 0,3.122 1.342,3.122 1.826,0 4.564,-3.983 2.738,-3.983 4.778,-8.558 2.093,-4.575 2.952,-8.343 0.913,-3.822 2.738,-10.388 1.182,-4.253 3.114,-4.253 0.43,0 0.644,0.323 0.215,0.269 0.162,0.592 -0.06,0.269 -1.611,5.921 z"
         id="path15169"
         style="font-size:53.3333px;font-family:'Rouge Script';-inkscape-font-specification:'Rouge Script, Normal';white-space:pre;stroke-width:8;stroke-linecap:round;stroke-linejoin:round" /><path
         d="m 11529.644,-12694.006 q 0,4.791 1.503,4.791 -0.05,0.646 -0.912,0.646 -1.343,0 -2.041,-1.615 -0.644,-1.669 -0.644,-4.145 -2.147,0.916 -4.456,1.077 -2.899,18.139 -4.939,24.814 -3.114,10.496 -7.462,10.496 -2.899,0 -2.899,-3.014 0,-1.346 0.59,-3.338 1.665,-5.598 6.174,-11.68 2.094,-2.799 3.651,-4.037 0.322,-2.045 1.02,-6.459 0.698,-4.468 1.074,-6.782 h -1.45 q -0.268,0 -0.268,-0.484 0,-0.539 0.268,-0.539 h 1.611 q 2.63,-16.847 5.583,-23.199 1.127,-2.529 2.684,-4.198 1.557,-1.669 3.383,-1.669 3.382,0 3.382,4.952 0,4.037 -2.47,8.72 -3.006,5.652 -7.194,6.944 l -1.235,0.269 q -0.483,2.637 -1.342,8.127 2.255,-0.161 4.349,-1.184 0.268,-2.853 1.288,-4.844 1.074,-2.045 2.685,-2.045 1.288,0 1.288,1.507 0,2.852 -3.167,5.275 -0.05,0.807 -0.05,1.614 z m 1.986,-16.416 q 2.416,-4.683 2.416,-8.182 0,-3.499 -1.718,-3.499 -2.416,0 -4.134,4.737 -1.717,4.683 -3.328,13.51 3.865,-0.861 6.764,-6.566 z m -13.69,31.972 q -3.06,3.176 -5.851,9.097 -2.792,5.92 -2.792,7.912 0,2.045 1.181,2.045 2.47,0 4.188,-4.952 1.717,-4.952 3.274,-14.102 z m 11.919,-18.624 q 0.966,-0.915 1.449,-1.937 0.537,-1.023 0.537,-1.615 0,-0.646 -0.322,-0.754 -1.181,0 -1.664,4.306 z"
         id="path15171"
         style="font-size:53.3333px;font-family:'Rouge Script';-inkscape-font-specification:'Rouge Script, Normal';white-space:pre;stroke-width:8;stroke-linecap:round;stroke-linejoin:round" /><path
         d="m 11536.999,-12686.578 q 0,5.652 3.006,5.652 2.041,0 3.812,-2.53 3.382,-4.736 4.134,-12.487 -1.879,-0.808 -2.631,-2.638 -0.483,-1.13 -0.483,-1.884 0,-0.807 0.215,-1.399 0.483,-1.453 1.772,-1.453 1.288,0 1.932,1.668 0.698,1.615 0.698,4.145 0,0.161 0,0.377 0.644,0.215 1.879,0.215 1.289,0 2.255,-1.023 0.966,-1.023 0.966,-1.884 0,-0.215 0.269,-0.269 0.268,-0.107 0.483,0 0.268,0.107 0.268,0.323 0,1.561 -1.342,2.961 -1.288,1.399 -3.489,1.399 -0.537,0 -1.396,-0.107 -0.322,3.66 -1.557,7.266 -1.181,3.553 -3.329,6.19 -2.147,2.584 -4.617,2.584 -4.67,0 -5.744,-5.006 -0.268,-1.453 -0.268,-2.96 0,-3.391 1.556,-7.267 2.04,-5.06 5.047,-6.298 1.557,-0.538 2.147,-0.161 0.591,0.377 0.752,0.861 -2.47,0 -4.402,4.629 -1.933,4.629 -1.933,9.097 z"
         id="path15173"
         style="font-size:53.3333px;font-family:'Rouge Script';-inkscape-font-specification:'Rouge Script, Normal';white-space:pre;stroke-width:8;stroke-linecap:round;stroke-linejoin:round" /><path
         d="m 11556.111,-12679.473 q -1.503,0 -1.503,-2.314 0,-1.238 3.007,-18.032 0.214,-1.13 0.966,-1.13 0.966,0 1.449,1.399 0.269,0.754 0.269,1.669 0,0.861 -0.215,1.884 l -0.859,4.414 h 0.268 q 4.617,-10.766 8.483,-10.766 2.147,0 2.845,2.1 0.269,0.807 0.269,1.883 0,1.023 -0.591,2.261 -1.02,2.099 -3.06,2.099 -0.429,0 -0.698,-0.215 -0.215,-0.215 -0.268,-0.592 0.429,0 1.127,-1.561 0.698,-1.615 0.805,-2.96 0.107,-1.346 -0.912,-1.561 -1.879,0 -4.456,4.898 -2.577,4.898 -4.134,9.366 -1.557,4.467 -1.825,5.813 -0.269,1.345 -0.967,1.345 z"
         id="path15175"
         style="font-size:53.3333px;font-family:'Rouge Script';-inkscape-font-specification:'Rouge Script, Normal';white-space:pre;stroke-width:8;stroke-linecap:round;stroke-linejoin:round" /><path
         d="m 11394.515,-12639.666 -3.221,3.498 c -0.604,0.74 -1.476,1.144 -2.55,1.211 -2.148,0 -3.289,-1.009 -3.356,-3.095 v -0.269 c 0,-0.874 0.269,-1.547 0.806,-2.153 2.483,-2.893 5.033,-5.651 7.65,-8.208 1.007,-1.009 1.946,-1.682 2.819,-2.086 l 0.939,-0.135 c 0.47,0 1.007,0.135 1.611,0.337 1.61,0.875 2.416,2.355 2.483,4.441 0.07,0.134 0.07,0.538 0.07,1.211 l -0.134,2.355 -0.537,4.642 c -0.335,2.624 -1.141,8.007 -2.55,16.013 l -2.483,14.533 c -0.07,1.884 -1.208,2.826 -3.288,2.826 h -0.47 c -1.946,-0.269 -2.886,-1.346 -2.886,-3.23 0,-0.269 0,-0.471 0.07,-0.538 0.47,-3.162 1.275,-8.006 2.416,-14.533 1.074,-6.055 1.879,-11.371 2.483,-15.878 z"
         style="font-size:53.3333px;font-family:'Canted Comic';-inkscape-font-specification:'Canted Comic, Normal';white-space:pre;stroke-width:8;stroke-linecap:round;stroke-linejoin:round"
         id="path15178" /><path
         d="m 11449.906,-12606.294 c 0,1.722 -0.752,2.637 -2.309,2.799 -0.05,0.05 -0.161,0.05 -0.322,0.05 -1.557,0 -2.469,-0.808 -2.684,-2.422 -0.698,-6.083 -1.181,-12.165 -1.396,-18.193 -0.161,-2.046 -0.215,-4.629 -0.215,-7.697 0,-4.253 0.107,-8.182 0.376,-11.681 -7.355,0.646 -12.723,1.292 -16.159,1.992 -0.05,0.05 -0.269,0.05 -0.537,0.05 -1.396,0 -2.255,-0.753 -2.523,-2.261 -0.06,-0.107 -0.06,-0.323 -0.06,-0.592 0,-1.453 0.752,-2.368 2.202,-2.637 3.811,-0.808 10.361,-1.561 19.649,-2.368 8.643,-0.754 14.925,-1.615 18.951,-2.638 0.107,-0.05 0.322,-0.05 0.591,-0.05 1.342,0 2.254,0.753 2.63,2.207 0.05,0.107 0.05,0.323 0.05,0.646 0,1.399 -0.698,2.314 -2.093,2.691 -4.403,0.969 -10.147,1.776 -17.287,2.476 -0.323,4.145 -0.484,8.181 -0.484,12.218 0,2.261 0.05,4.522 0.161,6.782 0.215,6.513 0.698,12.596 1.45,18.247 z"
         id="path15180"
         style="font-size:42.6667px;font-family:'Canted Comic';-inkscape-font-specification:'Canted Comic, Normal';white-space:pre;stroke-width:8;stroke-linecap:round;stroke-linejoin:round" /><path
         d="m 11500.962,-12643.811 v -0.915 c -4.671,0.269 -8.912,1.238 -12.67,2.907 -8,3.606 -13.637,8.558 -17.019,14.909 -1.45,2.961 -2.255,5.598 -2.362,8.02 v 0.431 c 0,5.221 3.221,8.612 9.663,10.173 1.396,0.377 3.544,0.538 6.389,0.538 0.913,0 1.503,0 1.718,-0.05 5.476,-0.592 10.254,-2.314 14.334,-5.167 0.483,-0.269 1.02,-0.431 1.504,-0.431 0.268,0 0.483,0 0.536,0.05 1.45,0.27 2.148,1.185 2.148,2.746 0,0.269 0,0.484 -0.05,0.592 -0.161,0.699 -0.537,1.291 -1.128,1.776 -4.939,3.337 -10.522,5.329 -16.804,6.028 -0.268,0.06 -0.966,0.06 -2.093,0.06 -1.396,0 -2.309,0 -2.792,-0.06 -2.094,-0.161 -3.758,-0.323 -4.939,-0.592 -9.18,-2.314 -13.797,-7.589 -13.797,-15.717 v -0.592 c 0.268,-6.836 3.543,-13.403 9.824,-19.593 5.637,-5.436 12.831,-9.042 21.636,-10.872 2.094,-0.485 3.865,-0.7 5.368,-0.754 h 0.269 c 2.094,0 3.65,0.484 4.671,1.4 0.59,0.484 0.912,1.184 1.02,2.099 0.05,0.646 0.107,1.076 0.107,1.292 l -0.269,2.529 -0.805,4.737 c -0.215,1.561 -1.074,2.315 -2.523,2.315 -0.269,0 -0.43,0 -0.484,-0.06 -1.503,-0.215 -2.254,-1.076 -2.254,-2.583 0,-0.269 0,-0.485 0.05,-0.592 z"
         id="path15182"
         style="font-size:42.6667px;font-family:'Canted Comic';-inkscape-font-specification:'Canted Comic, Normal';white-space:pre;stroke-width:8;stroke-linecap:round;stroke-linejoin:round" /><path
         d="m 11541.226,-12648.763 c 0.269,0.107 0.484,0.215 0.537,0.269 0.644,0.269 1.128,0.7 1.396,1.292 0.43,0.377 0.698,0.7 0.859,1.076 1.611,3.392 2.631,7.159 3.007,11.358 0.106,1.184 0.161,2.368 0.161,3.552 0,7.859 -1.88,14.479 -5.691,19.916 -1.235,1.938 -2.899,3.606 -4.939,5.006 -3.651,2.745 -7.409,4.144 -11.221,4.198 h -0.322 c -6.872,0 -11.811,-4.898 -13.099,-11.949 -0.269,-1.777 -0.43,-3.391 -0.43,-4.845 0,-1.991 0.161,-3.767 0.537,-5.328 0.644,-3.499 1.718,-6.782 3.275,-9.797 2.201,-4.898 5.207,-9.042 9.019,-12.326 1.879,-1.561 4.027,-2.745 6.335,-3.552 1.45,-0.377 2.846,-0.592 4.134,-0.592 2.094,0 3.865,0.376 5.315,1.184 z m -1.879,5.167 c -0.429,-0.161 -0.859,-0.323 -1.234,-0.538 -0.591,-0.323 -1.128,-0.538 -1.504,-0.646 l -1.718,-0.107 c -4.992,0 -10.898,4.683 -14.924,13.456 -2.041,4.468 -3.06,8.612 -3.114,12.488 -0.05,0.05 -0.05,0.269 -0.05,0.538 0,7.051 3.275,10.712 8.214,10.712 4.778,0 10.146,-3.768 12.24,-6.836 2.631,-3.822 4.134,-8.505 4.51,-14.049 0.05,-0.377 0.05,-1.292 0.05,-2.691 0,-4.575 -0.805,-8.666 -2.47,-12.326 z"
         id="path15184"
         style="font-size:42.6667px;font-family:'Canted Comic';-inkscape-font-specification:'Canted Comic, Normal';white-space:pre;stroke-width:8;stroke-linecap:round;stroke-linejoin:round" /><path
         d="m 11554.326,-12612.161 2.845,-4.36 c 0.698,-1.023 1.879,-2.584 3.49,-4.575 5.315,-6.729 7.945,-11.196 7.945,-13.457 0,-0.323 0,-0.538 -0.05,-0.646 -0.214,-1.13 -1.073,-1.722 -2.63,-1.722 l -1.181,0.107 c -2.846,0.431 -4.993,1.399 -6.55,2.96 -1.128,1.238 -1.933,2.799 -2.47,4.683 -0.376,1.292 -1.181,1.938 -2.523,1.938 l -0.805,-0.107 c -1.289,-0.377 -1.933,-1.238 -1.933,-2.53 l 0.107,-0.807 c 0.805,-2.853 2.094,-5.114 3.758,-6.836 2.308,-2.53 5.583,-4.091 9.717,-4.629 0.644,-0.108 1.289,-0.162 1.879,-0.162 4.349,0 6.979,1.992 7.892,5.921 0.107,0.484 0.161,1.023 0.161,1.615 0,3.714 -3.06,9.419 -9.127,17.009 l -3.274,4.252 -2.148,3.391 c 5.53,-0.915 10.415,-1.507 14.71,-1.83 h 0.161 c 1.665,0 2.577,0.807 2.738,2.476 v 0.269 c 0,1.615 -0.805,2.476 -2.469,2.638 -4.886,0.376 -10.469,1.076 -16.643,2.153 -0.05,0 -0.215,0.05 -0.43,0.161 -0.912,0.377 -1.771,0.538 -2.469,0.538 -1.987,0 -3.382,-1.453 -3.382,-3.014 v -0.431 c 0.05,-0.43 0.214,-0.807 0.429,-1.184 z"
         id="path15186"
         style="font-size:42.6667px;font-family:'Canted Comic';-inkscape-font-specification:'Canted Comic, Normal';white-space:pre;stroke-width:8;stroke-linecap:round;stroke-linejoin:round" /><path
         id="rect149499-3-8"
         style="fill:none;stroke:#000000;stroke-width:0;stroke-linecap:round;stroke-linejoin:bevel"
         d="m 10718.485,-13339.381 h 1349.818 v 755.482 h -1349.818 z" /><path
         style="fill:none;fill-opacity:1;stroke:#000000;stroke-width:8.64631;stroke-linecap:round;stroke-linejoin:round;stroke-dasharray:none;stroke-opacity:1"
         d="m 11163.387,-12894.474 c 7.097,-6.311 12.768,-13.11 17.92,-19.154 4.715,-6.518 10.483,-11.495 13.995,-16.869 4.644,-5.109 5.915,-10.741 8.017,-15.223 1.837,-4.938 3.395,-8.765 4.497,-12.054 0.862,-3.612 1.828,-5.906 2.291,-7.664 0.486,-1.848 1.001,-2.606 1.001,-2.606"
         id="path7891-9-0-1-9-6-7-0-8-1-3-0-7" /><path
         style="fill:none;fill-opacity:1;stroke:#000000;stroke-width:8.64631;stroke-linecap:round;stroke-linejoin:round;stroke-dasharray:none;stroke-opacity:1"
         d="m 11199.439,-12936.419 c 3.666,-0.842 6.619,-2.412 10.031,-3.398 2.939,-1.673 8.709,-1.843 11.968,-3.003 4.43,-0.668 4.748,-2.432 7.205,-3.455 2.553,-1.754 5.449,-2.896 8.178,-4.252 2.338,-1.707 5.296,-2.789 7.775,-4.244 2.402,-1.456 5.231,-2.693 7.43,-4.208 2.612,-1.258 3.58,-3.683 5.491,-5.223 1.397,-2.296 4.734,-2.922 6.477,-4.568 2.561,-1.276 3.198,-3.137 4.643,-4.744 1.56,-1.726 3.48,-3.276 4.804,-5.053 1.807,-1.561 2.586,-3.543 3.674,-5.352 1.182,-1.835 2.196,-3.718 3.075,-5.602 0.968,-1.886 0.995,-5.207 1.645,-7.119 -0.133,-2.941 0.43,-3.898 0.813,-5.419 -0.125,-2.494 1.587,-3.263 1.851,-4.888 1.135,-1.843 0.548,-3.694 0.629,-5.529 0.135,-1.879 0.12,-3.772 -0.03,-5.644 -0.08,-1.85 -0.28,-3.677 -0.673,-5.52 -0.242,-1.773 1.729,-3.573 1.092,-5.381 1.894,-2.023 -2.248,-5.87 -3.67,-7.948 -1.15,-2.838 -1.507,-2.21 -2.433,-3.223 -1.079,-1.329 -2.619,-2.646 -4.044,-3.979 -1.35,-1.263 -1.227,-2.124 -2.489,-3.568"
         id="path7893-9-68-5-2-9-8-2-5-7-1-4-7"
         sodipodi:nodetypes="cc" /><path
         style="fill:none;fill-opacity:1;stroke:#000000;stroke-width:8.64631;stroke-linecap:round;stroke-linejoin:round;stroke-dasharray:none;stroke-opacity:1"
         d="m 11040.542,-12876.72 c -7.108,-1.63 -13.679,-4.166 -19.105,-6.464 -5.598,-2.757 -8.558,-4.465 -12.465,-7.166 -3.165,-2.765 -8.284,-6.697 -11.467,-10.207 -3.134,-3.576 -5.533,-6.732 -7.649,-10.145 -2.454,-3.848 -4.031,-7.193 -5.638,-10.925 -1.653,-3.838 -2.763,-7.6 -4.207,-11.739"
         id="path7891-1-0-9-4-5-3-5-1-0-5-8-8-4"
         sodipodi:nodetypes="cc" /><path
         style="fill:none;fill-opacity:1;stroke:#000000;stroke-width:8.64631;stroke-linecap:round;stroke-linejoin:round;stroke-dasharray:none;stroke-opacity:1"
         d="m 11006.72,-12954.938 c -3.292,3.385 -7.172,5.728 -10.843,8.143 -4.003,1.84 -6.255,4.536 -10.162,6.029 -3.101,1.852 -8.947,2.312 -13.453,2.937 -4.338,0.137 -8.446,0.443 -12.617,0.248 -4.4,-0.489 -8.352,-0.774 -12.529,-1.671 -4.294,-0.94 -8.23,-2.016 -12.448,-3.621 -4.038,-1.48 -9.017,-4.257 -13.223,-6.595 -4.302,-2.78 -7.192,-4.42 -10.915,-7.146 -3.467,-2.737 -7.974,-6.253 -11.708,-9.824 -3.586,-3.43 -6.691,-6.958 -9.889,-10.897 -2.945,-3.842 -6.263,-8.275 -9.041,-12.78 -2.677,-4.396 -5.131,-9.04 -7.29,-13.868 -2.103,-4.822 -4.436,-11.025 -5.936,-16.215 -1.864,-6.167 -2.806,-10.569 -3.436,-15.567 -0.682,-5.413 -0.03,-10.241 0.137,-16.234"
         id="path7895-3-0-33-2-0-8-3-6-4-5-6-8-6"
         sodipodi:nodetypes="cc" /><path
         id="rect149499-4-3-9-6"
         style="fill:none;stroke:#000000;stroke-width:0;stroke-linecap:round;stroke-linejoin:bevel"
         d="m 10718.485,-13339.381 h 1349.818 v 755.482 h -1349.818 z" /><g
         id="g9240"><g
           id="g9189"
           transform="translate(-2,-3.2854675)"><path
             style="fill:#000000;fill-opacity:1;stroke-width:1.14365"
             d="m 11337.261,-12629.836 c -0.968,-0.712 -0.816,-1.306 -0.324,-4.116 l 0.724,-3.453 1.49,-5.265 1.468,-6.401 1.144,-4.371 1.906,-6.909 0.968,-4.479 0.735,-2.746 0.745,-2.99 0.627,-1.807 2.062,-8.001 2.013,-0.377 1.818,0.106 3.505,-0.03 1.056,2.604 c 0,0 1.598,5.879 1.602,5.875 l 0.992,4.2 c 0,0 0.941,3.293 1.219,4.833 0.155,0.874 1.03,3.813 1.298,4.809 0.629,1.874 1.007,3.986 1.598,5.722 0.768,2.614 1.294,5.139 1.917,7.463 0.413,1.088 0.92,3.221 0.92,3.221 l 0.97,3.35 c 0,0 0.519,1.768 0.779,2.537 0.806,2.38 0.732,3.154 0.624,4.407 -0.666,1.21 -0.738,0.959 -1.466,1.46 -0.828,0.37 -2.044,-0.1 -2.706,-1.1 -0.496,-0.754 -0.984,-2.354 -0.984,-2.354 l -0.46,-1.548 -0.518,-2.197 -0.886,-3.119 c -0.205,-0.669 -0.53,-1.995 -0.672,-2.688 l -0.583,-2.321 -2.617,1.276 -2.384,1.214 -2.566,1.485 -2.429,1.05 -3.78,1.466 -3.898,2 -1.148,5.091 -0.274,0.558 c 0,0 -1.149,0.863 -1.901,1.351 -1.23,0.817 -1.817,0.694 -2.584,0.194 z m 6.82,-13.329 2.429,-1.189 c 0.722,-0.464 1.942,-0.737 2.729,-1.312 l 1.941,-0.907 2.329,-1.258 2.612,-1.218 c 0,0 2.553,-1.134 3.461,-1.8 l -0.343,-1.46 c -0.256,-0.849 -0.571,-2.173 -0.571,-2.173 l -0.912,-3.09 -0.834,-3.286 -0.524,-2.434 -0.854,-4.006 -0.79,-2.972 -1.044,-4.859 -0.984,0.07 -1.17,0.111 -0.928,4.453 c -0.254,1.166 -0.755,2.937 -0.993,3.919 -0.301,1.329 -0.623,2.361 -0.921,3.622 l -0.449,2.224 -0.248,1.029 -0.779,3.152 -0.814,3.447 -1.654,6.703 z"
             id="path57142-6-9"
             sodipodi:nodetypes="ccccccccccccccccccccccccsccscccccccccccccccccccccccccccccccccccccccccc" /><path
             style="fill:#000000;fill-opacity:1;stroke:#000000;stroke-width:5;stroke-linecap:round;stroke-linejoin:round;stroke-dasharray:none;stroke-opacity:1"
             d="m 11362.833,-12631.619 4.224,0.651 4.224,-0.505"
             id="path18659" /><path
             style="fill:#000000;fill-opacity:1;stroke:#000000;stroke-width:5;stroke-linecap:round;stroke-linejoin:round;stroke-dasharray:none;stroke-opacity:1"
             d="m 11335.673,-12631.607 4.224,-0.485 4.224,0.306"
             id="path18659-5" /></g><g
           id="g9194"
           transform="translate(-255.31128,-50.177415)"><path
             style="fill:#000000;fill-opacity:1;stroke-width:1.14365"
             d="m 11848.649,-12582.944 c -0.968,-0.712 -0.816,-1.306 -0.324,-4.116 l 0.724,-3.453 1.49,-5.265 1.468,-6.401 1.144,-4.371 1.906,-6.909 0.968,-4.479 0.735,-2.746 0.745,-2.99 0.627,-1.807 2.062,-8.001 2.013,-0.377 1.818,0.106 3.505,-0.03 1.056,2.604 c 0,0 1.598,5.879 1.602,5.875 l 0.992,4.2 c 0,0 0.941,3.293 1.219,4.833 0.155,0.874 1.03,3.813 1.298,4.809 0.629,1.874 1.007,3.986 1.598,5.722 0.768,2.614 1.294,5.139 1.917,7.463 0.413,1.088 0.92,3.221 0.92,3.221 l 0.97,3.35 c 0,0 0.519,1.768 0.779,2.537 0.806,2.38 0.732,3.154 0.624,4.407 -0.666,1.21 -0.738,0.959 -1.466,1.46 -0.828,0.37 -2.044,-0.1 -2.706,-1.1 -0.496,-0.754 -0.984,-2.354 -0.984,-2.354 l -0.46,-1.548 -0.518,-2.197 -0.886,-3.119 c -0.205,-0.669 -0.53,-1.995 -0.672,-2.688 l -0.583,-2.321 -2.617,1.276 -2.384,1.214 -2.566,1.485 -2.429,1.05 -3.78,1.466 -3.898,2 -1.148,5.091 -0.274,0.558 c 0,0 -1.149,0.863 -1.901,1.351 -1.23,0.817 -1.817,0.694 -2.584,0.194 z m 6.82,-13.329 2.429,-1.189 c 0.722,-0.464 1.942,-0.737 2.729,-1.312 l 1.941,-0.907 2.329,-1.258 2.612,-1.218 c 0,0 2.553,-1.134 3.461,-1.8 l -0.343,-1.46 c -0.256,-0.849 -0.571,-2.173 -0.571,-2.173 l -0.912,-3.09 -0.834,-3.286 -0.524,-2.434 -0.854,-4.006 -0.79,-2.972 -1.044,-4.859 -0.984,0.07 -1.17,0.111 -0.928,4.453 c -0.254,1.166 -0.755,2.937 -0.993,3.919 -0.301,1.329 -0.623,2.361 -0.921,3.622 l -0.449,2.224 -0.248,1.029 -0.779,3.152 -0.814,3.447 -1.654,6.703 z"
             id="path57142-6-9-92"
             sodipodi:nodetypes="ccccccccccccccccccccccccsccscccccccccccccccccccccccccccccccccccccccccc" /><path
             style="fill:#000000;fill-opacity:1;stroke:#000000;stroke-width:5;stroke-linecap:round;stroke-linejoin:round;stroke-dasharray:none;stroke-opacity:1"
             d="m 11874.221,-12584.727 4.224,0.651 4.224,-0.505"
             id="path18659-28" /><path
             style="fill:#000000;fill-opacity:1;stroke:#000000;stroke-width:5;stroke-linecap:round;stroke-linejoin:round;stroke-dasharray:none;stroke-opacity:1"
             d="m 11847.061,-12584.715 4.224,-0.485 4.224,0.306"
             id="path18659-5-9" /></g></g></g></g></svg>
