<?xml version="1.0" encoding="UTF-8" standalone="no"?>
<!-- Created with Inkscape (http://www.inkscape.org/) -->

<svg
   version="1.1"
   id="svg176"
   width="1349.8184"
   height="755.48242"
   viewBox="0 0 1349.8184 755.48242"
   sodipodi:docname="website for ai.svg"
   xml:space="preserve"
   inkscape:version="1.2.2 (b0a8486541, 2022-12-01)"
   xmlns:inkscape="http://www.inkscape.org/namespaces/inkscape"
   xmlns:sodipodi="http://sodipodi.sourceforge.net/DTD/sodipodi-0.dtd"
   xmlns="http://www.w3.org/2000/svg"
   xmlns:svg="http://www.w3.org/2000/svg"><defs
     id="defs180"><linearGradient
       id="linearGradient1486"
       inkscape:swatch="solid"><stop
         style="stop-color:#000000;stop-opacity:1;"
         offset="0"
         id="stop1484" /></linearGradient></defs><sodipodi:namedview
     id="namedview178"
     pagecolor="#ffffff"
     bordercolor="#000000"
     borderopacity="0.25"
     inkscape:showpageshadow="2"
     inkscape:pageopacity="0.0"
     inkscape:pagecheckerboard="0"
     inkscape:deskcolor="#d1d1d1"
     showgrid="false"
     showguides="false"
     inkscape:zoom="0.09200119"
     inkscape:cx="11804.195"
     inkscape:cy="-13195.482"
     inkscape:window-width="1920"
     inkscape:window-height="1011"
     inkscape:window-x="0"
     inkscape:window-y="0"
     inkscape:window-maximized="1"
     inkscape:current-layer="g182"><inkscape:grid
       type="xygrid"
       id="grid2722" /></sodipodi:namedview><g
     inkscape:groupmode="layer"
     inkscape:label="Image"
     id="g182"
     transform="translate(-12186.739,13300.814)"><g
       id="g198132"><path
         style="fill:none;fill-opacity:1;stroke:#000000;stroke-width:8.64631;stroke-linecap:round;stroke-linejoin:round;stroke-dasharray:none;stroke-opacity:1"
         d="m 12866.845,-13014.146 c 5.798,0.789 11.058,0.618 16.526,0.608 5.194,-0.555 12.125,-0.193 17.334,-0.964 5.887,-0.475 9.023,-2.126 13.432,-3.4 4.51,-1.811 9.132,-3.385 13.525,-5.381 4.125,-2.284 8.53,-4.29 12.494,-6.822 3.925,-2.544 7.994,-5.12 11.512,-8.115 3.817,-2.811 6.426,-6.784 9.486,-10.18 2.666,-3.96 6.435,-6.684 9.013,-10.39 3.201,-3.517 4.985,-7.659 7.103,-11.698 2.151,-4.09 4.35,-8.144 5.971,-12.468 1.95,-4.186 3.037,-8.808 4.112,-13.34 1.114,-4.503 1.914,-9.1 2.409,-13.723 0.55,-4.613 0.274,-10.448 0.173,-15.105 -0.514,-5.428 -0.782,-9.194 -1.377,-13.399 -0.969,-5.081 -0.975,-8.686 -2.148,-12.944 -0.736,-4.585 -2.855,-9.11 -4.828,-13.528 -1.922,-4.347 -4.214,-8.615 -6.879,-12.751 -2.6,-4.076 -5.552,-8.022 -8.92,-11.842 -3.241,-3.724 -5.344,-7.339 -9.42,-10.8 -2.469,-3.453 -9.406,-8.281 -14.794,-11.438 -4.933,-2.891 -9.827,-4.17 -14.997,-6.641"
         id="path7895-3-0-33-2-0-8-3-6-4-0-6-2-3-6-6"
         sodipodi:nodetypes="cc" /><path
         style="fill:none;fill-opacity:1;stroke:#000000;stroke-width:8.64631;stroke-linecap:round;stroke-linejoin:round;stroke-dasharray:none;stroke-opacity:1"
         d="m 12466.389,-12858.195 c -5.117,0.833 -10.487,0.904 -15.308,1.215 -5.058,-0.242 -8.03,0.556 -12.324,0.232 -3.625,-0.137 -9.633,-1.599 -13.91,-2.97 -4.024,-1.628 -7.502,-3.101 -10.719,-5.196 -3.541,-2.438 -6.274,-4.792 -8.877,-8.01 -2.76,-3.411 -4.764,-7.254 -6.661,-12.08 -1.88,-4.785 -4.008,-11.111 -4.994,-17.576"
         id="path7893-0-5-0-9-4-3-3-5-6-6-9-8"
         sodipodi:nodetypes="cc" /><path
         style="fill:none;fill-opacity:1;stroke:#000000;stroke-width:8.64631;stroke-linecap:round;stroke-linejoin:round;stroke-dasharray:none;stroke-opacity:1"
         d="m 12345.499,-12948.126 c -4.744,3.017 -9.843,4.995 -14.531,7.052 -4.988,1.48 -8.029,3.824 -12.558,4.98 -3.791,1.488 -10.123,1.599 -14.947,1.898 -4.638,-0.157 -8.913,-0.131 -13.142,-0.588 -4.448,-0.748 -8.345,-1.274 -12.386,-2.388 -4.15,-1.161 -7.859,-2.431 -11.798,-4.2 -3.753,-1.65 -8.386,-4.562 -12.22,-6.995 -3.93,-2.854 -6.428,-4.535 -9.765,-7.264 -3.068,-2.758 -7.172,-6.248 -10.535,-9.739 -3.225,-3.351 -6,-6.748 -8.928,-10.502 -2.68,-3.665 -5.785,-7.858 -8.439,-12.055 -2.56,-4.1 -4.98,-8.381 -7.226,-12.779 -2.191,-4.393 -4.729,-10.098 -6.59,-14.718 -2.13,-5.415 -3.595,-9.252 -4.948,-13.612 -1.76,-5.244 -2.084,-9.108 -3.079,-13.72 -0.526,-4.898 -1.856,-9.846 -2.432,-14.794 -0.541,-4.908 -0.853,-9.844 -0.913,-14.751 -0.01,-4.891 0.246,-9.752 0.735,-14.588 0.588,-4.781 2.965,-9.545 4.033,-14.25 2.74,-4.468 2.04,-10.4 3.497,-14.779 1.198,-5.581 3.195,-8.152 5.144,-11.972 2.311,-4.193 4.738,-8.27 7.678,-12.192 2.843,-3.793 7.047,-7.096 10.792,-10.682"
         id="path7895-3-0-33-2-0-8-3-6-4-0-4-4-9"
         sodipodi:nodetypes="cc" /><path
         style="fill:none;fill-opacity:1;stroke:#000000;stroke-width:8.64631;stroke-linecap:round;stroke-linejoin:round;stroke-dasharray:none;stroke-opacity:1"
         d="m 12714.828,-12912.626 c 4.426,0.819 8.525,0.82 13.028,1.101 4.24,-0.255 10.423,0.526 15.073,0.277 5.307,0 8.019,-1.082 12.15,-1.715 4.291,-1.128 8.867,-1.94 13.369,-3.116 4.232,-1.467 8.899,-2.597 13.268,-4.216 4.303,-1.626 8.89,-3.244 13.054,-5.261 4.425,-1.82 7.77,-4.778 11.679,-7.155 3.589,-3 8.387,-4.767 12.09,-7.538 4.225,-2.487 7.137,-5.61 10.475,-8.664 3.433,-3.133 7.004,-6.268 10.073,-9.733 3.383,-3.289 5.984,-7.071 8.64,-10.842 2.717,-3.783 5.183,-7.741 7.391,-11.828 2.265,-4.084 3.753,-9.492 5.447,-13.847 1.155,-5.227 2.576,-8.899 3.677,-13.134 0.787,-5.07 2.55,-8.796 3.146,-13.326 1.164,-4.753 0.96,-9.618 0.905,-14.569 -0.02,-4.961 -0.424,-10.038 -1.225,-15.198 -0.751,-5.107 -1.88,-10.298 -3.468,-15.598 -1.478,-5.197 -1.86,-10.518 -4.274,-15.937 -0.731,-5.38 -5.966,-12.396 -9.722,-18.029 -3.544,-5.314 -7.13,-9.259 -11.069,-14.656"
         id="path7895-3-0-33-2-0-8-3-6-4-0-6-2-3-7"
         sodipodi:nodetypes="cc" /><path
         id="rect149499-4-3-9"
         style="fill:none;stroke:#000000;stroke-width:0;stroke-linecap:round;stroke-linejoin:bevel"
         d="m 12186.739,-13300.814 h 1349.818 v 755.482 h -1349.818 z" /></g></g></svg>
