<?xml version="1.0" encoding="UTF-8" standalone="no"?>
<!-- Created with Inkscape (http://www.inkscape.org/) -->

<svg
   version="1.1"
   id="svg176"
   width="1403.3398"
   height="532.33398"
   viewBox="0 0 1403.3399 532.33398"
   sodipodi:docname="website for ai.svg"
   xml:space="preserve"
   inkscape:version="1.2.2 (b0a8486541, 2022-12-01)"
   xmlns:inkscape="http://www.inkscape.org/namespaces/inkscape"
   xmlns:sodipodi="http://sodipodi.sourceforge.net/DTD/sodipodi-0.dtd"
   xmlns="http://www.w3.org/2000/svg"
   xmlns:svg="http://www.w3.org/2000/svg"><defs
     id="defs180"><linearGradient
       id="linearGradient1486"
       inkscape:swatch="solid"><stop
         style="stop-color:#000000;stop-opacity:1;"
         offset="0"
         id="stop1484" /></linearGradient><inkscape:path-effect
       effect="fillet_chamfer"
       id="path-effect55627-36"
       is_visible="true"
       lpeversion="1"
       nodesatellites_param="F,0,0,1,0,19.441065,0,1 @ F,0,0,1,0,12.981003,0,1 @ F,0,0,1,0,20.00804,0,1"
       unit="px"
       method="auto"
       mode="F"
       radius="0"
       chamfer_steps="1"
       flexible="false"
       use_knot_distance="true"
       apply_no_radius="true"
       apply_with_radius="true"
       only_selected="false"
       hide_knots="false" /></defs><sodipodi:namedview
     id="namedview178"
     pagecolor="#ffffff"
     bordercolor="#000000"
     borderopacity="0.25"
     inkscape:showpageshadow="2"
     inkscape:pageopacity="0.0"
     inkscape:pagecheckerboard="0"
     inkscape:deskcolor="#d1d1d1"
     showgrid="false"
     showguides="false"
     inkscape:zoom="0.25"
     inkscape:cx="15064"
     inkscape:cy="-20556"
     inkscape:window-width="1920"
     inkscape:window-height="1011"
     inkscape:window-x="0"
     inkscape:window-y="0"
     inkscape:window-maximized="1"
     inkscape:current-layer="g182"><inkscape:grid
       type="xygrid"
       id="grid2722" /></sodipodi:namedview><g
     inkscape:groupmode="layer"
     inkscape:label="Image"
     id="g182"
     transform="translate(-14090.323,20217.592)"><path
       id="rect83864-5-8"
       style="opacity:0;stroke-width:20.0114;stroke-linecap:round;stroke-linejoin:round"
       d="m 13796.275,-20715.457 h 1505.813 v 995.729 h -1505.813 z" /><g
       id="g89133"
       inkscape:export-filename="enter.svg"
       inkscape:export-xdpi="96"
       inkscape:export-ydpi="96"><g
         id="g112313"><path
           style="fill:#96967e;fill-opacity:1;stroke:none;stroke-width:1;stroke-linecap:round;stroke-linejoin:miter;stroke-dasharray:none"
           d="m 15463.133,-19764.426 30.529,79.169 -1400.135,-0.5 -3.205,-453.95 58.111,-67.071 6.2,451.023 z"
           id="path72644"
           sodipodi:nodetypes="ccccccc" /><path
           id="rect16816-3-4-3-7-1-7-3-0"
           style="fill:#b4b49c;fill-opacity:1;stroke-width:14.9763;stroke-linecap:round;stroke-linejoin:round"
           d="m 14218.441,-20217.592 1169.662,0.04 c 79,0 78.971,0 79,79 l 0.119,314.592 c 0.03,79 0,79 -79,79 h -1169.781 c -79,0 -79,0 -79,-79 v -314.631 c 0,-79 0,-79.003 79,-79 z"
           sodipodi:nodetypes="sssssssss" /><path
           d="m 14522.956,-20036.161 h 79.902 v 13.429 h -65.429 v 33.273 h 60.505 v 12.683 h -60.505 v 37.153 h 66.548 v 13.056 h -81.021 z m 40.51,0 z"
           id="path11201-5-6-32"
           style="font-size:99.8003px;font-family:Helvetica;-inkscape-font-specification:'Helvetica, Normal';white-space:pre;stroke-width:15;stroke-linecap:round;stroke-linejoin:round" /><path
           d="m 14621.658,-20006.469 h 12.758 v 11.34 q 5.67,-7.012 12.011,-10.071 6.341,-3.059 14.1,-3.059 17.01,0 22.979,11.862 3.282,6.491 3.282,18.577 v 51.253 h -13.652 v -50.358 q 0,-7.311 -2.164,-11.788 -3.581,-7.46 -12.981,-7.46 -4.775,0 -7.834,0.97 -5.52,1.641 -9.698,6.565 -3.358,3.954 -4.402,8.207 -0.97,4.177 -0.97,12.011 v 41.853 h -13.429 z m 31.558,-1.939 z"
           id="path11203-6-2-0"
           style="font-size:99.8003px;font-family:Helvetica;-inkscape-font-specification:'Helvetica, Normal';white-space:pre;stroke-width:15;stroke-linecap:round;stroke-linejoin:round" /><path
           d="m 14709.319,-20028.775 h 13.578 v 22.306 h 12.757 v 10.967 h -12.757 v 52.149 q 0,4.178 2.835,5.595 1.567,0.821 5.222,0.821 0.97,0 2.089,0 1.119,-0.08 2.611,-0.224 v 10.594 q -2.312,0.672 -4.849,0.97 -2.462,0.298 -5.371,0.298 -9.401,0 -12.758,-4.774 -3.357,-4.85 -3.357,-12.534 v -52.895 h -10.818 v -10.967 h 10.818 z"
           id="path11205-2-6-6"
           style="font-size:99.8003px;font-family:Helvetica;-inkscape-font-specification:'Helvetica, Normal';white-space:pre;stroke-width:15;stroke-linecap:round;stroke-linejoin:round" /><path
           d="m 14782.357,-20008.259 q 8.505,0 16.488,4.029 7.982,3.954 12.16,10.295 4.029,6.043 5.372,14.1 1.194,5.521 1.194,17.607 h -58.565 q 0.373,12.161 5.744,19.547 5.372,7.311 16.637,7.311 10.52,0 16.786,-6.938 3.581,-4.029 5.073,-9.326 h 13.205 q -0.522,4.402 -3.506,9.848 -2.91,5.371 -6.565,8.803 -6.118,5.969 -15.145,8.058 -4.849,1.193 -10.967,1.193 -14.921,0 -25.291,-10.817 -10.37,-10.893 -10.37,-30.439 0,-19.248 10.445,-31.26 10.444,-12.011 27.305,-12.011 z m 21.412,35.363 q -0.821,-8.729 -3.805,-13.951 -5.521,-9.699 -18.428,-9.699 -9.251,0 -15.517,6.714 -6.267,6.64 -6.64,16.936 z m -22.68,-35.512 z"
           id="path11207-9-1-1"
           style="font-size:99.8003px;font-family:Helvetica;-inkscape-font-specification:'Helvetica, Normal';white-space:pre;stroke-width:15;stroke-linecap:round;stroke-linejoin:round" /><path
           d="m 14834.431,-20006.469 h 12.758 v 13.802 q 1.566,-4.028 7.684,-9.773 6.118,-5.819 14.1,-5.819 0.373,0 1.269,0.08 0.895,0.07 3.058,0.298 v 14.175 q -1.193,-0.223 -2.238,-0.298 -0.97,-0.08 -2.163,-0.08 -10.147,0 -15.593,6.565 -5.446,6.491 -5.446,14.996 v 45.956 h -13.429 z"
           id="path11209-1-8-5"
           style="font-size:99.8003px;font-family:Helvetica;-inkscape-font-specification:'Helvetica, Normal';white-space:pre;stroke-width:15;stroke-linecap:round;stroke-linejoin:round" /><path
           style="fill:none;stroke:#000003;stroke-width:15;stroke-linecap:round;stroke-linejoin:round;stroke-dasharray:none;stroke-opacity:1"
           d="m 14469.655,-20052.447 v 72.5 h -211.228"
           id="path45726-7-2-7-5" /><path
           style="fill:#000000;fill-opacity:1;stroke:none;stroke-width:20;stroke-linecap:round;stroke-linejoin:round;stroke-dasharray:none;stroke-opacity:1"
           d="m 14245.527,-20046.378 -57.074,57.074 a 12.981003,12.981003 90 0 0 0,18.358 l 56.673,56.673 a 8.2876015,8.2876015 157.5 0 0 14.148,-5.86 v -120.551 a 8.0527528,8.0527528 22.5 0 0 -13.747,-5.694 z"
           id="path55625-4"
           inkscape:path-effect="#path-effect55627-36"
           inkscape:original-d="m 14259.274,-20060.125 -80,80 80,80 z" /></g></g></g></svg>
