<?xml version="1.0" encoding="UTF-8" standalone="no"?>
<!-- Created with Inkscape (http://www.inkscape.org/) -->

<svg
   version="1.1"
   id="svg176"
   width="1415.6982"
   height="532.52637"
   viewBox="0 0 1415.6983 532.52637"
   sodipodi:docname="website for ai.svg"
   xml:space="preserve"
   inkscape:version="1.2.2 (b0a8486541, 2022-12-01)"
   xmlns:inkscape="http://www.inkscape.org/namespaces/inkscape"
   xmlns:sodipodi="http://sodipodi.sourceforge.net/DTD/sodipodi-0.dtd"
   xmlns="http://www.w3.org/2000/svg"
   xmlns:svg="http://www.w3.org/2000/svg"><defs
     id="defs180"><linearGradient
       id="linearGradient1486"
       inkscape:swatch="solid"><stop
         style="stop-color:#000000;stop-opacity:1;"
         offset="0"
         id="stop1484" /></linearGradient></defs><sodipodi:namedview
     id="namedview178"
     pagecolor="#ffffff"
     bordercolor="#000000"
     borderopacity="0.25"
     inkscape:showpageshadow="2"
     inkscape:pageopacity="0.0"
     inkscape:pagecheckerboard="0"
     inkscape:deskcolor="#d1d1d1"
     showgrid="false"
     showguides="false"
     inkscape:zoom="0.09200119"
     inkscape:cx="2641.2702"
     inkscape:cy="-3423.8688"
     inkscape:window-width="1920"
     inkscape:window-height="1011"
     inkscape:window-x="0"
     inkscape:window-y="0"
     inkscape:window-maximized="1"
     inkscape:current-layer="g21862"><inkscape:grid
       type="xygrid"
       id="grid2722" /></sodipodi:namedview><g
     inkscape:groupmode="layer"
     inkscape:label="Image"
     id="g182"
     transform="translate(-13169.433,15424.27)"><g
       id="g74278"><path
         id="rect26104-1-5-9-7-9-8-7"
         style="opacity:0;stroke-width:4;stroke-linecap:round;stroke-linejoin:bevel"
         d="m 13169.434,-15424.27 h 1415.698 v 532.527 h -1415.698 z" /><path
         d="m 13330.027,-14962.802 c -1.896,0.1 -3.892,0.3 -6.088,0.799 -22.455,4.69 -39.221,19.76 -39.92,35.03 v 0.599 c 0,6.886 4.591,11.377 13.673,13.473 2.295,0.499 5.389,0.798 9.381,0.798 1.297,0 2.196,0 2.495,-0.1 8.084,-0.798 15.07,-3.193 21.058,-7.185 0.898,-0.499 1.896,-0.799 2.794,-0.799 0.499,0 0.899,0 0.998,0.1 2.695,0.499 3.992,2.096 3.992,4.89 0,0.499 0,0.898 -0.1,0.998 -0.3,1.298 -0.998,2.395 -2.096,3.194 -7.485,4.89 -15.968,7.784 -25.649,8.782 -0.399,0.1 -1.497,0.1 -3.293,0.1 -2.096,0 -3.493,0 -4.192,-0.1 -3.194,-0.199 -5.689,-0.499 -7.585,-0.898 -14.271,-3.393 -21.457,-11.178 -21.457,-23.353 v -0.898 c 0.799,-20.36 20.858,-38.923 48.004,-44.412 3.094,-0.698 5.789,-0.998 8.184,-1.097 h 0.399 c 3.393,0 5.988,0.798 7.685,2.295 1.097,0.898 1.696,2.096 1.896,3.593 0.1,0.299 0.1,0.898 0.1,1.996 l -0.4,3.792 c -0.1,0.2 -0.499,2.395 -1.197,6.687 -0.399,2.794 -1.996,4.191 -4.791,4.191 -0.499,0 -0.798,0 -0.898,-0.1 -2.794,-0.4 -4.191,-1.996 -4.191,-4.691 0,-0.499 0,-0.898 0.1,-0.998 z"
         style="font-size:114.687px;font-family:'Canted Comic';-inkscape-font-specification:'Canted Comic, Normal';white-space:pre;stroke:#000000;stroke-width:0;stroke-linejoin:round"
         id="path73915" /><path
         d="m 13346.195,-14906.414 c 1.098,-13.773 7.086,-31.438 17.964,-53.094 2.695,-5.29 5.09,-9.381 6.986,-12.076 1.896,-2.595 3.792,-3.892 5.788,-3.892 0.499,0 0.899,0 0.998,0.1 1.497,0.299 2.495,0.798 2.994,1.696 l 0.4,0.399 c 0.199,0.3 0.399,0.699 0.598,1.198 0.3,0.499 0.699,1.297 1.098,2.196 0.399,0.698 1.098,2.594 2.196,5.688 l 3.293,8.982 c 0.898,2.296 2.395,6.886 4.691,13.673 l 5.589,17.565 4.191,13.772 0.2,1.497 c 0,2.495 -1.198,4.092 -3.493,4.791 l -1.497,0.199 c -2.495,0 -4.092,-1.197 -4.791,-3.493 l -5.588,-18.263 c -3.493,0.798 -7.685,1.896 -12.575,3.193 -10.08,2.895 -15.769,4.392 -17.066,4.691 -1.098,4.092 -1.697,8.084 -1.996,11.976 -0.299,3.094 -1.896,4.591 -4.99,4.591 -0.2,0 -0.3,0 -0.399,-0.1 -3.094,-0.1 -4.591,-1.796 -4.591,-4.99 z m 29.84,-53.992 c -1.297,2.195 -2.195,3.992 -2.894,5.489 -5.289,10.678 -9.182,19.361 -11.477,26.147 1.098,-0.299 4.79,-1.297 10.878,-3.093 6.088,-1.697 10.18,-2.695 12.276,-3.194 -1.897,-5.888 -3.793,-11.477 -5.689,-16.567 z"
         style="font-size:114.687px;font-family:'Canted Comic';-inkscape-font-specification:'Canted Comic, Normal';white-space:pre;stroke:#000000;stroke-width:0;stroke-linejoin:round"
         id="path73917" /><path
         d="m 13419.149,-14924.578 c 0.299,6.188 0.998,11.677 1.996,16.467 0.1,0.1 0.1,0.499 0.1,0.998 0,2.794 -1.298,4.391 -3.992,4.89 -0.1,0.1 -0.499,0.1 -0.998,0.1 -2.795,0 -4.391,-1.297 -4.89,-3.992 -1.697,-8.483 -2.495,-19.062 -2.495,-31.737 v -13.972 l -0.2,-12.075 c 0,-2.994 1.497,-4.591 4.491,-4.891 7.285,-2.495 14.87,-3.692 22.755,-3.692 h 2.894 c 10.978,0.499 18.463,3.692 22.355,9.581 2.196,3.393 3.293,7.085 3.293,11.177 0,15.27 -12.475,24.651 -27.644,26.348 -4.092,0.399 -6.986,0.598 -8.783,0.698 -0.599,0.1 -2.195,0.1 -4.89,0.1 z m -0.399,-17.066 c 0,4.092 0,6.387 0.1,7.086 12.874,0 23.153,-0.2 30.04,-5.789 3.692,-2.894 5.588,-6.686 5.588,-11.377 0,-4.591 -2.095,-7.585 -6.387,-9.082 -3.892,-1.097 -7.984,-1.696 -12.175,-1.696 h -1.997 c -5.189,0.199 -10.279,0.998 -15.169,2.395 0.1,0.499 0.1,1.397 0.1,2.695 0,1.197 0,2.794 -0.1,4.69 z"
         style="font-size:114.687px;font-family:'Canted Comic';-inkscape-font-specification:'Canted Comic, Normal';white-space:pre;stroke:#000000;stroke-width:0;stroke-linejoin:round"
         id="path73919" /><path
         d="m 13506.574,-14907.313 c 0,3.094 -1.397,4.691 -4.291,4.99 -0.1,0.1 -0.399,0.1 -0.699,0.1 -2.894,0 -4.591,-1.397 -4.99,-4.291 -1.098,-8.084 -1.796,-16.767 -2.096,-26.048 -0.199,-3.693 -0.299,-7.385 -0.299,-11.078 0,-4.092 0.2,-9.281 0.499,-15.569 -9.381,0.898 -17.066,1.797 -22.954,2.795 -0.1,0.1 -0.499,0.1 -0.998,0.1 -2.695,0 -4.291,-1.397 -4.791,-4.091 -0.1,-0.1 -0.1,-0.499 -0.1,-0.998 0,-2.695 1.397,-4.292 4.091,-4.791 6.188,-1.098 16.068,-2.295 29.541,-3.393 12.276,-1.098 21.757,-2.295 28.344,-3.693 0.199,-0.1 0.599,-0.1 1.098,-0.1 2.594,0 4.191,1.297 4.89,3.892 0.1,0.199 0.1,0.599 0.1,1.197 0,2.495 -1.298,4.092 -3.893,4.791 -6.087,1.397 -14.571,2.595 -25.249,3.493 -0.399,5.289 -0.599,10.778 -0.599,16.467 l 0.2,9.681 c 0.299,8.982 1.097,17.664 2.195,25.948 z"
         style="font-size:114.687px;font-family:'Canted Comic';-inkscape-font-specification:'Canted Comic, Normal';white-space:pre;stroke:#000000;stroke-width:0;stroke-linejoin:round"
         id="path73921" /><path
         d="m 13583.321,-14962.802 c -1.896,0.1 -3.892,0.3 -6.088,0.799 -22.455,4.69 -39.222,19.76 -39.92,35.03 v 0.599 c 0,6.886 4.591,11.377 13.672,13.473 2.296,0.499 5.39,0.798 9.382,0.798 1.297,0 2.195,0 2.495,-0.1 8.084,-0.798 15.07,-3.193 21.058,-7.185 0.898,-0.499 1.896,-0.799 2.794,-0.799 0.499,0 0.898,0 0.998,0.1 2.695,0.499 3.992,2.096 3.992,4.89 0,0.499 0,0.898 -0.1,0.998 -0.299,1.298 -0.998,2.395 -2.096,3.194 -7.485,4.89 -15.968,7.784 -25.648,8.782 -0.399,0.1 -1.497,0.1 -3.294,0.1 -2.096,0 -3.493,0 -4.191,-0.1 -3.194,-0.199 -5.689,-0.499 -7.585,-0.898 -14.272,-3.393 -21.457,-11.178 -21.457,-23.353 v -0.898 c 0.798,-20.36 20.858,-38.923 48.004,-44.412 3.094,-0.698 5.788,-0.998 8.183,-1.097 h 0.4 c 3.393,0 5.988,0.798 7.684,2.295 1.098,0.898 1.697,2.096 1.896,3.593 0.1,0.299 0.1,0.898 0.1,1.996 l -0.399,3.792 c -0.1,0.2 -0.499,2.395 -1.198,6.687 -0.399,2.794 -1.996,4.191 -4.79,4.191 -0.499,0 -0.798,0 -0.898,-0.1 -2.795,-0.4 -4.192,-1.996 -4.192,-4.691 0,-0.499 0,-0.898 0.1,-0.998 z"
         style="font-size:114.687px;font-family:'Canted Comic';-inkscape-font-specification:'Canted Comic, Normal';white-space:pre;stroke:#000000;stroke-width:0;stroke-linejoin:round"
         id="path73923" /><path
         d="m 13646.495,-14950.626 c 0.299,17.665 1.097,31.637 2.395,41.816 v 0.499 c 0,3.094 -1.397,4.691 -4.292,4.99 -0.1,0.1 -0.399,0.1 -0.698,0.1 -2.894,0 -4.591,-1.497 -4.99,-4.391 -0.898,-8.283 -1.597,-16.966 -1.996,-25.948 -2.894,0.299 -7.086,0.998 -12.376,2.096 -5.089,0.998 -9.181,1.796 -12.375,2.295 l 1.797,22.156 c 0,2.495 -1.897,4.89 -4.591,4.99 -0.1,0.1 -0.2,0.1 -0.499,0.1 -2.395,0 -4.591,-2.096 -4.89,-4.591 l -1.098,-13.972 c -1.098,-12.375 -1.597,-22.855 -1.597,-31.437 0,-5.29 0.299,-10.38 0.798,-15.37 0.4,-2.894 2.096,-4.391 4.99,-4.391 h 0.699 c 2.894,0.399 4.291,2.096 4.291,5.09 v 0.499 c -0.598,4.291 -0.898,9.281 -0.898,15.07 0,4.491 0.1,8.483 0.399,11.876 2.196,-0.299 5.889,-0.998 10.978,-2.096 5.689,-1.197 10.38,-1.996 14.072,-2.295 l -0.499,-25.349 c 0,-2.495 2.096,-4.791 4.891,-4.891 h 0.199 c 2.495,0 4.791,2.096 4.89,4.791 z"
         style="font-size:114.687px;font-family:'Canted Comic';-inkscape-font-specification:'Canted Comic, Normal';white-space:pre;stroke:#000000;stroke-width:0;stroke-linejoin:round"
         id="path73925" /><path
         d="m 13655.277,-14906.414 c 1.098,-13.773 7.086,-31.438 17.964,-53.094 2.695,-5.29 5.09,-9.381 6.986,-12.076 1.896,-2.595 3.792,-3.892 5.789,-3.892 0.498,0 0.898,0 0.998,0.1 1.497,0.299 2.494,0.798 2.994,1.696 l 0.399,0.399 c 0.199,0.3 0.399,0.699 0.598,1.198 0.3,0.499 0.699,1.297 1.098,2.196 0.399,0.698 1.098,2.594 2.196,5.688 l 3.293,8.982 c 0.899,2.296 2.396,6.886 4.691,13.673 l 5.589,17.565 4.191,13.772 0.2,1.497 c 0,2.495 -1.198,4.092 -3.493,4.791 l -1.497,0.199 c -2.495,0 -4.092,-1.197 -4.79,-3.493 l -5.589,-18.263 c -3.493,0.798 -7.685,1.896 -12.575,3.193 -10.08,2.895 -15.769,4.392 -17.066,4.691 -1.098,4.092 -1.697,8.084 -1.996,11.976 -0.299,3.094 -1.896,4.591 -4.99,4.591 -0.2,0 -0.299,0 -0.399,-0.1 -3.094,-0.1 -4.591,-1.796 -4.591,-4.99 z m 29.84,-53.992 c -1.297,2.195 -2.195,3.992 -2.894,5.489 -5.289,10.678 -9.182,19.361 -11.477,26.147 1.098,-0.299 4.79,-1.297 10.878,-3.093 6.088,-1.697 10.18,-2.695 12.276,-3.194 -1.896,-5.888 -3.793,-11.477 -5.689,-16.567 z"
         style="font-size:114.687px;font-family:'Canted Comic';-inkscape-font-specification:'Canted Comic, Normal';white-space:pre;stroke:#000000;stroke-width:0;stroke-linejoin:round"
         id="path73927" /><path
         d="m 13798.291,-14915.796 h 0.599 c 3.093,0 4.79,1.398 5.089,4.292 v 0.698 c 0,2.895 -1.397,4.591 -4.291,4.99 l -4.491,0.599 -16.866,2.695 -12.775,1.796 c -1.896,0.3 -3.493,0.499 -4.69,0.599 -0.3,0.1 -0.998,0.1 -1.896,0.1 -0.4,0 -1.098,-0.1 -1.996,-0.2 -3.693,-0.898 -6.288,-2.595 -7.985,-5.189 -0.498,-0.699 -0.698,-1.298 -0.698,-1.697 v -51.497 c 0,-1.297 0,-1.996 0.1,-2.295 0.898,-7.086 4.99,-9.282 14.072,-10.18 12.874,-1.697 24.051,-2.495 33.632,-2.495 2.795,0 4.99,2.196 4.99,4.99 0,2.794 -2.195,4.99 -4.99,4.99 -8.084,0 -18.962,0.798 -32.435,2.395 -1.896,0.2 -3.193,0.399 -4.092,0.599 -0.798,0.1 -1.197,0.399 -1.197,0.998 v 5.19 c 0,6.886 0,11.976 -0.1,15.169 l 35.928,-5.888 c 0.1,-0.1 0.499,-0.1 0.998,-0.1 2.695,0 4.291,1.397 4.791,4.092 v 0.998 c 0,2.794 -1.398,4.391 -4.192,4.791 -11.477,1.896 -24.052,3.992 -37.625,6.187 v 18.862 l 0.699,0.2 h 1.197 l 4.192,-0.499 c 3.094,-0.399 7.285,-0.998 12.575,-1.796 z"
         style="font-size:114.687px;font-family:'Canted Comic';-inkscape-font-specification:'Canted Comic, Normal';white-space:pre;stroke:#000000;stroke-width:0;stroke-linejoin:round"
         id="path73929" /><path
         d="m 13848.091,-14925.676 c 11.178,5.789 19.162,9.681 23.853,11.777 1.297,0.499 2.195,1.497 2.694,2.794 0.2,0.599 0.3,1.198 0.3,1.796 0,0.799 -0.1,1.497 -0.4,1.996 -0.499,1.298 -1.397,2.096 -2.694,2.595 -0.499,0.3 -1.198,0.399 -1.896,0.399 -0.799,0 -1.497,-0.1 -1.996,-0.399 -4.491,-2.096 -12.575,-6.088 -24.451,-12.076 -8.483,-4.291 -15.47,-7.385 -20.759,-9.481 0.1,7.485 0.699,13.673 1.697,18.763 0.1,0.1 0.1,0.499 0.1,0.998 0,2.694 -1.297,4.291 -3.992,4.79 -0.199,0.1 -0.598,0.1 -1.097,0.1 -2.695,0 -4.292,-1.397 -4.791,-4.092 -1.397,-6.986 -2.096,-17.165 -2.096,-30.539 0,-7.684 0,-11.976 -0.1,-12.974 l -0.2,-3.293 c -0.299,-2.994 -0.399,-6.387 -0.399,-10.18 0.1,-2.694 0.599,-4.591 1.497,-5.688 1.896,-2.495 6.487,-4.092 13.872,-4.591 l 5.389,-0.2 c 14.471,0 24.751,2.994 30.839,9.082 2.495,2.495 3.992,5.289 4.491,8.483 0.1,0.299 0.1,0.998 0.1,1.996 0,2.894 -0.698,5.788 -2.195,8.683 -2.695,5.489 -7.785,9.68 -15.27,12.774 -3.393,1.298 -6.686,2.296 -9.78,2.894 z m -26.247,-36.527 c 0,3.094 0.1,6.188 0.399,9.282 l 0.399,8.283 v 6.387 c 0.699,0.1 2.296,0.1 4.791,0.1 15.07,0 26.247,-4.591 29.441,-11.377 0.698,-1.697 1.098,-2.994 1.098,-3.892 0,-1.398 -0.499,-2.595 -1.497,-3.593 -4.292,-4.092 -12.475,-6.188 -24.451,-6.188 -4.092,0 -7.386,0.3 -9.881,0.898 z"
         style="font-size:114.687px;font-family:'Canted Comic';-inkscape-font-specification:'Canted Comic, Normal';white-space:pre;stroke:#000000;stroke-width:0;stroke-linejoin:round"
         id="path73931" /><path
         d="m 13919.05,-14925.676 c 11.177,5.789 19.161,9.681 23.852,11.777 1.297,0.499 2.195,1.497 2.694,2.794 0.2,0.599 0.3,1.198 0.3,1.796 0,0.799 -0.1,1.497 -0.399,1.996 -0.499,1.298 -1.398,2.096 -2.695,2.595 -0.499,0.3 -1.198,0.399 -1.896,0.399 -0.799,0 -1.497,-0.1 -1.996,-0.399 -4.491,-2.096 -12.575,-6.088 -24.451,-12.076 -8.483,-4.291 -15.469,-7.385 -20.759,-9.481 0.1,7.485 0.699,13.673 1.697,18.763 0.1,0.1 0.1,0.499 0.1,0.998 0,2.694 -1.298,4.291 -3.992,4.79 -0.2,0.1 -0.599,0.1 -1.098,0.1 -2.695,0 -4.292,-1.397 -4.791,-4.092 -1.397,-6.986 -2.095,-17.165 -2.095,-30.539 0,-7.684 0,-11.976 -0.1,-12.974 l -0.2,-3.293 c -0.299,-2.994 -0.399,-6.387 -0.399,-10.18 0.1,-2.694 0.599,-4.591 1.497,-5.688 1.896,-2.495 6.487,-4.092 13.872,-4.591 l 5.389,-0.2 c 14.471,0 24.751,2.994 30.839,9.082 2.495,2.495 3.992,5.289 4.491,8.483 0.1,0.299 0.1,0.998 0.1,1.996 0,2.894 -0.699,5.788 -2.196,8.683 -2.695,5.489 -7.784,9.68 -15.269,12.774 -3.394,1.298 -6.687,2.296 -9.781,2.894 z m -26.248,-36.527 c 0,3.094 0.1,6.188 0.399,9.282 l 0.399,8.283 v 6.387 c 0.699,0.1 2.296,0.1 4.791,0.1 15.07,0 26.247,-4.591 29.441,-11.377 0.699,-1.697 1.098,-2.994 1.098,-3.892 0,-1.398 -0.499,-2.595 -1.497,-3.593 -4.292,-4.092 -12.475,-6.188 -24.451,-6.188 -4.092,0 -7.386,0.3 -9.881,0.898 z"
         style="font-size:114.687px;font-family:'Canted Comic';-inkscape-font-specification:'Canted Comic, Normal';white-space:pre;stroke:#000000;stroke-width:0;stroke-linejoin:round"
         id="path73933" /><path
         d="m 13994.998,-14970.985 c 0.499,0.199 0.798,0.299 0.898,0.399 1.098,0.399 1.896,1.098 2.395,2.096 0.499,0.499 0.998,0.998 1.397,1.696 2.495,4.791 3.992,10.28 4.591,16.567 l 0.2,5.19 c 0,11.377 -2.894,21.058 -8.683,28.942 -4.092,5.888 -9.88,9.98 -17.565,12.275 -2.794,0.799 -5.289,1.198 -7.485,1.298 h -0.499 c -11.178,0 -18.862,-7.884 -20.559,-17.864 -0.499,-1.897 -0.698,-4.292 -0.698,-7.086 0,-2.196 0.299,-4.791 0.798,-7.785 3.693,-17.664 15.769,-33.333 28.643,-37.425 2.096,-0.599 4.291,-0.898 6.487,-0.898 2.894,0 5.688,0.599 8.383,1.796 z m -3.992,9.082 c -0.899,-0.3 -1.398,-0.599 -1.497,-0.699 -1.398,-0.699 -2.895,-0.998 -4.392,-0.998 -7.285,0 -15.568,6.687 -21.457,18.663 -2.894,6.087 -4.491,11.876 -4.591,17.465 -0.1,0.1 -0.1,0.399 -0.1,0.698 0,9.481 3.792,14.272 11.277,14.272 3.992,0 8.084,-1.497 12.176,-4.391 2.395,-1.497 4.191,-3.194 5.389,-4.99 3.792,-5.29 5.988,-11.777 6.587,-19.462 0.1,-0.598 0.1,-1.896 0.1,-3.792 0,-5.988 -1.198,-11.577 -3.493,-16.766 z"
         style="font-size:114.687px;font-family:'Canted Comic';-inkscape-font-specification:'Canted Comic, Normal';white-space:pre;stroke:#000000;stroke-width:0;stroke-linejoin:round"
         id="path73935" /><path
         d="m 14051.185,-14925.676 c 11.178,5.789 19.162,9.681 23.853,11.777 1.297,0.499 2.195,1.497 2.694,2.794 0.2,0.599 0.3,1.198 0.3,1.796 0,0.799 -0.1,1.497 -0.399,1.996 -0.5,1.298 -1.398,2.096 -2.695,2.595 -0.499,0.3 -1.198,0.399 -1.896,0.399 -0.799,0 -1.497,-0.1 -1.996,-0.399 -4.491,-2.096 -12.575,-6.088 -24.451,-12.076 -8.483,-4.291 -15.47,-7.385 -20.759,-9.481 0.1,7.485 0.699,13.673 1.697,18.763 0.1,0.1 0.1,0.499 0.1,0.998 0,2.694 -1.297,4.291 -3.992,4.79 -0.199,0.1 -0.598,0.1 -1.097,0.1 -2.695,0 -4.292,-1.397 -4.791,-4.092 -1.397,-6.986 -2.096,-17.165 -2.096,-30.539 0,-7.684 0,-11.976 -0.1,-12.974 l -0.2,-3.293 c -0.299,-2.994 -0.399,-6.387 -0.399,-10.18 0.1,-2.694 0.599,-4.591 1.497,-5.688 1.896,-2.495 6.487,-4.092 13.872,-4.591 l 5.389,-0.2 c 14.471,0 24.751,2.994 30.839,9.082 2.495,2.495 3.992,5.289 4.491,8.483 0.1,0.299 0.1,0.998 0.1,1.996 0,2.894 -0.698,5.788 -2.195,8.683 -2.695,5.489 -7.785,9.68 -15.27,12.774 -3.393,1.298 -6.686,2.296 -9.78,2.894 z m -26.247,-36.527 c 0,3.094 0.1,6.188 0.399,9.282 l 0.399,8.283 v 6.387 c 0.699,0.1 2.296,0.1 4.791,0.1 15.07,0 26.247,-4.591 29.441,-11.377 0.698,-1.697 1.098,-2.994 1.098,-3.892 0,-1.398 -0.499,-2.595 -1.497,-3.593 -4.292,-4.092 -12.475,-6.188 -24.451,-6.188 -4.092,0 -7.386,0.3 -9.881,0.898 z"
         style="font-size:114.687px;font-family:'Canted Comic';-inkscape-font-specification:'Canted Comic, Normal';white-space:pre;stroke:#000000;stroke-width:0;stroke-linejoin:round"
         id="path73937" /><path
         d="m 14152.084,-14925.676 c 11.177,5.789 19.161,9.681 23.852,11.777 1.297,0.499 2.195,1.497 2.694,2.794 0.2,0.599 0.3,1.198 0.3,1.796 0,0.799 -0.1,1.497 -0.399,1.996 -0.499,1.298 -1.398,2.096 -2.695,2.595 -0.499,0.3 -1.198,0.399 -1.896,0.399 -0.799,0 -1.497,-0.1 -1.996,-0.399 -4.491,-2.096 -12.575,-6.088 -24.451,-12.076 -8.483,-4.291 -15.469,-7.385 -20.759,-9.481 0.1,7.485 0.699,13.673 1.697,18.763 0.1,0.1 0.1,0.499 0.1,0.998 0,2.694 -1.298,4.291 -3.992,4.79 -0.2,0.1 -0.599,0.1 -1.098,0.1 -2.695,0 -4.292,-1.397 -4.791,-4.092 -1.397,-6.986 -2.095,-17.165 -2.095,-30.539 0,-7.684 0,-11.976 -0.1,-12.974 l -0.2,-3.293 c -0.299,-2.994 -0.399,-6.387 -0.399,-10.18 0.1,-2.694 0.599,-4.591 1.497,-5.688 1.896,-2.495 6.487,-4.092 13.872,-4.591 l 5.39,-0.2 c 14.471,0 24.75,2.994 30.838,9.082 2.495,2.495 3.992,5.289 4.491,8.483 0.1,0.299 0.1,0.998 0.1,1.996 0,2.894 -0.699,5.788 -2.196,8.683 -2.695,5.489 -7.784,9.68 -15.269,12.774 -3.394,1.298 -6.687,2.296 -9.781,2.894 z m -26.248,-36.527 c 0,3.094 0.1,6.188 0.399,9.282 l 0.399,8.283 v 6.387 c 0.699,0.1 2.296,0.1 4.791,0.1 15.07,0 26.247,-4.591 29.441,-11.377 0.699,-1.697 1.098,-2.994 1.098,-3.892 0,-1.398 -0.499,-2.595 -1.497,-3.593 -4.292,-4.092 -12.475,-6.188 -24.451,-6.188 -4.092,0 -7.386,0.3 -9.881,0.898 z"
         style="font-size:114.687px;font-family:'Canted Comic';-inkscape-font-specification:'Canted Comic, Normal';white-space:pre;stroke:#000000;stroke-width:0;stroke-linejoin:round"
         id="path73939" /><path
         d="m 14182.323,-14906.414 c 1.098,-13.773 7.086,-31.438 17.964,-53.094 2.695,-5.29 5.09,-9.381 6.986,-12.076 1.896,-2.595 3.793,-3.892 5.789,-3.892 0.499,0 0.898,0 0.998,0.1 1.497,0.299 2.495,0.798 2.994,1.696 l 0.399,0.399 c 0.199,0.3 0.399,0.699 0.599,1.198 0.299,0.499 0.698,1.297 1.097,2.196 0.4,0.698 1.098,2.594 2.196,5.688 l 3.293,8.982 c 0.899,2.296 2.396,6.886 4.691,13.673 l 5.589,17.565 4.192,13.772 0.199,1.497 c 0,2.495 -1.197,4.092 -3.493,4.791 l -1.497,0.199 c -2.495,0 -4.092,-1.197 -4.79,-3.493 l -5.589,-18.263 c -3.493,0.798 -7.685,1.896 -12.575,3.193 -10.08,2.895 -15.768,4.392 -17.066,4.691 -1.098,4.092 -1.696,8.084 -1.996,11.976 -0.299,3.094 -1.896,4.591 -4.99,4.591 -0.199,0 -0.299,0 -0.399,-0.1 -3.094,-0.1 -4.591,-1.796 -4.591,-4.99 z m 29.84,-53.992 c -1.297,2.195 -2.195,3.992 -2.894,5.489 -5.289,10.678 -9.181,19.361 -11.477,26.147 1.098,-0.299 4.791,-1.297 10.878,-3.093 6.088,-1.697 10.18,-2.695 12.276,-3.194 -1.896,-5.888 -3.793,-11.477 -5.689,-16.567 z"
         style="font-size:114.687px;font-family:'Canted Comic';-inkscape-font-specification:'Canted Comic, Normal';white-space:pre;stroke:#000000;stroke-width:0;stroke-linejoin:round"
         id="path73941" /><path
         d="m 14255.078,-14967.193 c -0.499,7.785 -0.799,15.868 -0.799,24.351 0,9.881 0.3,21.458 0.898,34.531 v 0.3 c 0,2.495 -1.996,4.89 -4.69,4.99 h -0.3 c -2.495,0 -4.89,-1.996 -4.99,-4.691 -0.698,-11.477 -0.998,-22.954 -0.998,-34.431 0,-9.78 0.3,-18.363 0.899,-25.848 0.299,-3.094 1.896,-4.591 4.89,-4.591 h 0.499 c 3.094,0.299 4.591,1.896 4.591,4.89 z"
         style="font-size:114.687px;font-family:'Canted Comic';-inkscape-font-specification:'Canted Comic, Normal';white-space:pre;stroke:#000000;stroke-width:0;stroke-linejoin:round"
         id="path73943" /><path
         d="m 14322.144,-14951.524 c -0.699,2.395 -2.296,3.593 -4.791,3.593 -0.199,0 -0.599,-0.1 -1.297,-0.2 -2.495,-0.699 -3.693,-2.295 -3.693,-4.79 l 0.2,-1.398 c 0.1,-0.1 0.798,-1.896 2.096,-5.289 l 0.199,-0.499 -1.796,-0.599 c -3.493,-0.898 -6.887,-1.397 -10.18,-1.397 h -0.998 c -8.683,0.299 -14.97,3.293 -18.663,8.882 -0.1,0.499 -0.199,1.098 -0.199,1.797 v 1.097 c 0.1,2.196 1.197,3.992 3.393,5.29 2.096,1.297 5.888,2.495 11.277,3.593 17.965,3.892 22.156,5.289 26.448,11.976 1.796,2.694 2.694,5.389 2.694,8.084 0,0.898 -0.199,1.896 -0.499,2.994 -2.694,8.483 -9.082,13.572 -19.261,15.269 -3.693,0.599 -7.585,0.898 -11.677,0.898 -1.796,0 -2.894,0 -3.393,-0.1 -14.471,-0.598 -22.854,-4.191 -25.349,-10.778 -0.699,-1.697 -0.998,-3.792 -1.098,-6.487 l -0.2,-5.289 c 0,-3.094 1.497,-4.691 4.491,-4.99 h 0.499 c 3.094,0 4.691,1.497 4.99,4.491 0,9.181 0,9.58 5.09,11.177 2.994,1.098 6.986,1.697 12.076,1.896 0.499,0.1 1.497,0.1 3.193,0.1 8.683,0 14.172,-0.998 16.268,-2.894 2.695,-2.395 4.291,-4.491 4.89,-6.387 l -0.199,-0.898 -0.799,-1.497 c -1.098,-1.797 -2.794,-3.094 -5.19,-3.992 -2.495,-0.899 -7.485,-2.096 -15.069,-3.793 -15.469,-3.293 -22.156,-7.884 -22.555,-18.263 v -0.998 c 0,-12.276 14.072,-21.058 30.838,-21.058 h 1.697 c 3.692,0.1 7.285,0.798 10.678,1.896 0.899,0 1.996,0.299 3.394,0.998 2.894,1.098 4.69,2.994 5.289,5.489 l 0.2,2.096 c 0,1.796 -0.4,3.692 -1.198,5.688 z"
         style="font-size:114.687px;font-family:'Canted Comic';-inkscape-font-specification:'Canted Comic, Normal';white-space:pre;stroke:#000000;stroke-width:0;stroke-linejoin:round"
         id="path73945" /><path
         d="m 14386.215,-14915.796 h 0.599 c 3.094,0 4.791,1.398 5.09,4.292 v 0.698 c 0,2.895 -1.397,4.591 -4.291,4.99 l -4.491,0.599 -16.867,2.695 -12.774,1.796 c -1.896,0.3 -3.493,0.499 -4.691,0.599 -0.299,0.1 -0.998,0.1 -1.896,0.1 -0.399,0 -1.098,-0.1 -1.996,-0.2 -3.693,-0.898 -6.287,-2.595 -7.984,-5.189 -0.499,-0.699 -0.699,-1.298 -0.699,-1.697 v -51.497 c 0,-1.297 0,-1.996 0.1,-2.295 0.898,-7.086 4.99,-9.282 14.072,-10.18 12.874,-1.697 24.052,-2.495 33.633,-2.495 2.794,0 4.99,2.196 4.99,4.99 0,2.794 -2.196,4.99 -4.99,4.99 -8.084,0 -18.962,0.798 -32.435,2.395 -1.897,0.2 -3.194,0.399 -4.092,0.599 -0.799,0.1 -1.198,0.399 -1.198,0.998 v 5.19 c 0,6.886 0,11.976 -0.1,15.169 l 35.929,-5.888 c 0.1,-0.1 0.499,-0.1 0.998,-0.1 2.694,0 4.291,1.397 4.79,4.092 v 0.998 c 0,2.794 -1.397,4.391 -4.192,4.791 -11.477,1.896 -24.051,3.992 -37.624,6.187 v 18.862 l 0.698,0.2 h 1.198 l 4.191,-0.499 c 3.094,-0.399 7.286,-0.998 12.575,-1.796 z"
         style="font-size:114.687px;font-family:'Canted Comic';-inkscape-font-specification:'Canted Comic, Normal';white-space:pre;stroke:#000000;stroke-width:0;stroke-linejoin:round"
         id="path73947" /><path
         d="m 14401.784,-14934.758 c 0.1,-8.583 0.499,-17.165 0.998,-25.748 -1.896,-0.599 -2.994,-1.896 -3.393,-3.793 -0.1,-0.1 -0.1,-0.499 -0.1,-1.097 0,-2.695 1.298,-4.292 3.992,-4.791 9.182,-1.696 16.567,-2.595 22.056,-2.595 h 2.296 c 12.075,0.499 21.257,4.092 27.545,10.779 3.592,3.792 5.788,8.084 6.686,12.974 0.2,1.397 0.3,2.894 0.3,4.391 0,3.593 -0.799,7.685 -2.296,12.276 -6.387,17.165 -19.96,24.351 -36.427,27.844 -3.393,0.698 -6.387,1.098 -8.982,1.098 -4.691,0 -7.884,-1.198 -9.78,-3.693 -1.897,-2.495 -2.895,-10.479 -2.895,-23.852 z m 11.078,-26.447 c -0.599,6.487 -0.998,15.369 -1.098,26.547 v 3.593 c 0,4.491 0.1,8.483 0.3,11.776 0.1,2.396 0.299,4.092 0.499,5.19 0.1,0.1 0.1,0.2 0.1,0.399 l 0.1,0.499 c 0.2,0.1 0.699,0.1 1.497,0.1 1.797,-0.1 4.392,-0.499 7.885,-1.297 15.968,-4.292 23.652,-8.982 28.343,-21.358 1.198,-3.094 1.796,-5.988 1.796,-8.682 0,-13.074 -12.575,-17.865 -25.05,-18.364 -0.299,-0.1 -1.197,-0.1 -2.495,-0.1 -3.193,0 -7.185,0.399 -11.876,1.097 z"
         style="font-size:114.687px;font-family:'Canted Comic';-inkscape-font-specification:'Canted Comic, Normal';white-space:pre;stroke:#000000;stroke-width:0;stroke-linejoin:round"
         id="path73949" /><path
         d="m 14478.731,-14915.596 c 1.197,1.297 1.796,2.794 1.796,4.491 0,3.593 -2.794,6.387 -6.287,6.387 -3.593,0 -6.388,-2.794 -6.388,-6.387 0,-3.493 2.795,-6.287 6.388,-6.287 1.696,0 3.193,0.598 4.491,1.796 z"
         style="font-size:114.687px;font-family:'Canted Comic';-inkscape-font-specification:'Canted Comic, Normal';white-space:pre;stroke:#000000;stroke-width:0;stroke-linejoin:round"
         id="path73951" /><path
         id="rect16816-3-4-3-8"
         style="fill:#212121;stroke-width:9.10172;stroke-linecap:round;stroke-linejoin:round"
         d="m 13209.309,-15424.27 h 1335.948 c 22.09,0 39.875,18.2 39.875,40.806 v 237.334 c 0,22.606 -17.785,40.806 -39.875,40.806 h -1335.948 c -22.091,0 -39.875,-18.2 -39.875,-40.806 v -237.334 c 0,-22.606 17.784,-40.806 39.875,-40.806 z" /><path
         id="rect16816-3-0-7-6-8"
         style="fill:#474747;stroke-width:9.10172;stroke-linecap:round;stroke-linejoin:round"
         d="m 13243.454,-15232.791 h 1273.558 c 30.364,0 54.808,25.04 54.808,56.143 v 0 c 0,31.104 -24.444,56.144 -54.808,56.144 h -1273.558 c -30.363,0 -54.808,-25.04 -54.808,-56.144 v 0 c 0,-31.103 24.445,-56.143 54.808,-56.143 z" /><path
         d="m 13417.902,-15364.497 c 0.299,17.664 1.098,31.636 2.395,41.816 v 0.499 c 0,3.094 -1.397,4.691 -4.291,4.99 -0.1,0.1 -0.399,0.1 -0.699,0.1 -2.894,0 -4.591,-1.497 -4.99,-4.391 -0.898,-8.284 -1.597,-16.966 -1.996,-25.948 -2.894,0.299 -7.086,0.998 -12.375,2.095 -5.09,0.998 -9.182,1.797 -12.375,2.296 l 1.796,22.155 c 0,2.495 -1.896,4.891 -4.591,4.99 -0.1,0.1 -0.199,0.1 -0.499,0.1 -2.395,0 -4.59,-2.096 -4.89,-4.591 l -1.098,-13.972 c -1.097,-12.375 -1.596,-22.854 -1.596,-31.437 0,-5.289 0.299,-10.379 0.798,-15.369 0.399,-2.894 2.096,-4.391 4.99,-4.391 h 0.699 c 2.894,0.399 4.291,2.096 4.291,5.09 v 0.499 c -0.599,4.291 -0.898,9.281 -0.898,15.069 0,4.491 0.1,8.483 0.399,11.877 2.196,-0.3 5.888,-0.998 10.978,-2.096 5.689,-1.198 10.379,-1.996 14.072,-2.296 l -0.499,-25.349 c 0,-2.495 2.096,-4.79 4.89,-4.89 h 0.2 c 2.495,0 4.79,2.096 4.89,4.79 z"
         id="path73956"
         style="font-size:82.3036px;font-family:'Canted Comic';-inkscape-font-specification:'Canted Comic, Normal';white-space:pre;fill:#e6e6e6;stroke:#000000;stroke-width:0;stroke-linejoin:round" /><path
         d="m 13472.393,-15384.857 c 0.499,0.2 0.798,0.3 0.898,0.4 1.098,0.399 1.896,1.097 2.395,2.095 0.499,0.499 0.998,0.998 1.398,1.697 2.495,4.79 3.992,10.279 4.59,16.567 l 0.2,5.189 c 0,11.378 -2.894,21.058 -8.683,28.943 -4.091,5.888 -9.88,9.98 -17.564,12.275 -2.795,0.798 -5.29,1.198 -7.485,1.297 h -0.499 c -11.178,0 -18.863,-7.884 -20.559,-17.864 -0.499,-1.896 -0.699,-4.291 -0.699,-7.086 0,-2.195 0.299,-4.79 0.799,-7.784 3.692,-17.665 15.768,-33.333 28.642,-37.425 2.096,-0.599 4.291,-0.898 6.487,-0.898 2.894,0 5.689,0.598 8.383,1.796 z m -3.992,9.082 c -0.898,-0.299 -1.397,-0.599 -1.497,-0.698 -1.397,-0.699 -2.894,-0.998 -4.391,-0.998 -7.286,0 -15.569,6.686 -21.457,18.662 -2.894,6.088 -4.491,11.877 -4.591,17.465 -0.1,0.1 -0.1,0.4 -0.1,0.699 0,9.481 3.793,14.271 11.278,14.271 3.992,0 8.084,-1.497 12.175,-4.391 2.396,-1.497 4.192,-3.193 5.39,-4.99 3.792,-5.289 5.988,-11.776 6.587,-19.461 0.1,-0.599 0.1,-1.896 0.1,-3.792 0,-5.988 -1.198,-11.577 -3.493,-16.767 z"
         id="path73958"
         style="font-size:82.3036px;font-family:'Canted Comic';-inkscape-font-specification:'Canted Comic, Normal';white-space:pre;fill:#e6e6e6;stroke:#000000;stroke-width:0;stroke-linejoin:round" /><path
         d="m 13497.543,-15370.885 6.487,35.33 2.195,-6.787 4.092,-13.872 5.888,-21.457 1.198,-3.493 c 0,-0.299 0.1,-0.499 0.2,-0.599 l 0.199,-0.499 c 1.098,-1.696 2.595,-2.595 4.391,-2.595 1.298,0 2.396,0.4 3.294,1.098 0.399,0.399 0.698,0.699 0.798,0.998 l 0.799,1.298 0.598,1.596 2.895,9.681 5.089,15.868 c 2.895,9.182 4.791,15.37 5.589,18.663 l 7.685,-24.85 c 2.395,-7.685 4.291,-14.871 5.589,-21.557 0.499,-2.695 2.095,-3.992 4.79,-3.992 0.499,0 0.898,0 1.098,0.1 2.694,0.499 3.992,2.095 3.992,4.79 0,0.599 0,0.998 -0.1,1.098 -1.297,6.786 -3.293,14.271 -5.788,22.455 l -7.385,23.453 -0.998,3.593 c -0.898,3.493 -1.996,6.686 -3.294,9.581 -1.696,3.193 -3.792,4.89 -6.187,5.089 h -0.2 c -2.894,0 -4.391,-1.097 -6.387,-7.485 -1.297,-5.289 -2.794,-10.978 -4.491,-17.165 l -3.892,-12.276 -3.294,-9.88 c -4.091,14.87 -7.385,25.848 -9.88,33.034 -1.197,3.393 -1.996,5.289 -2.295,5.788 -2.096,4.292 -4.791,6.487 -8.084,6.487 -1.996,0 -3.493,-0.698 -4.491,-1.996 -0.399,-0.399 -0.699,-0.898 -0.799,-1.397 l -0.199,-0.698 c -0.1,-0.1 -0.1,-0.3 -0.1,-0.599 l -1.497,-7.186 -5.389,-29.641 c -0.898,-5.888 -2.295,-12.674 -4.092,-20.459 -0.1,-0.1 -0.1,-0.499 -0.1,-0.998 0,-2.694 1.297,-4.291 3.892,-4.99 0.2,-0.1 0.599,-0.1 1.098,-0.1 2.595,0 4.192,1.297 4.89,3.892 z"
         id="path73960"
         style="font-size:82.3036px;font-family:'Canted Comic';-inkscape-font-specification:'Canted Comic, Normal';white-space:pre;fill:#e6e6e6;stroke:#000000;stroke-width:0;stroke-linejoin:round" /><path
         d="m 13654.528,-15376.673 c -1.896,0.1 -3.892,0.299 -6.087,0.798 -22.455,4.691 -39.222,19.761 -39.92,35.03 v 0.599 c 0,6.886 4.59,11.377 13.672,13.473 2.296,0.499 5.39,0.799 9.381,0.799 1.298,0 2.196,0 2.495,-0.1 8.084,-0.799 15.07,-3.194 21.058,-7.186 0.899,-0.499 1.897,-0.798 2.795,-0.798 0.499,0 0.898,0 0.998,0.1 2.694,0.499 3.992,2.095 3.992,4.89 0,0.499 0,0.898 -0.1,0.998 -0.299,1.297 -0.998,2.395 -2.095,3.193 -7.485,4.891 -15.969,7.785 -25.649,8.783 -0.399,0.1 -1.497,0.1 -3.294,0.1 -2.095,0 -3.493,0 -4.191,-0.1 -3.194,-0.2 -5.689,-0.499 -7.585,-0.898 -14.271,-3.394 -21.457,-11.178 -21.457,-23.354 v -0.898 c 0.798,-20.359 20.858,-38.922 48.004,-44.411 3.094,-0.699 5.788,-0.998 8.183,-1.098 h 0.4 c 3.393,0 5.988,0.799 7.684,2.296 1.098,0.898 1.697,2.095 1.897,3.592 0.1,0.3 0.1,0.899 0.1,1.996 l -0.399,3.793 c -0.1,0.199 -0.499,2.395 -1.198,6.686 -0.399,2.795 -1.996,4.192 -4.79,4.192 -0.499,0 -0.799,0 -0.899,-0.1 -2.794,-0.399 -4.191,-1.996 -4.191,-4.69 0,-0.499 0,-0.899 0.1,-0.998 z"
         id="path73962"
         style="font-size:82.3036px;font-family:'Canted Comic';-inkscape-font-specification:'Canted Comic, Normal';white-space:pre;fill:#e6e6e6;stroke:#000000;stroke-width:0;stroke-linejoin:round" /><path
         d="m 13670.696,-15320.286 c 1.098,-13.772 7.086,-31.437 17.964,-53.094 2.695,-5.289 5.09,-9.381 6.986,-12.075 1.896,-2.595 3.793,-3.893 5.789,-3.893 0.499,0 0.898,0 0.998,0.1 1.497,0.3 2.495,0.799 2.994,1.697 l 0.399,0.399 c 0.199,0.299 0.399,0.699 0.599,1.198 0.299,0.499 0.698,1.297 1.098,2.195 0.399,0.699 1.097,2.595 2.195,5.689 l 3.294,8.982 c 0.898,2.295 2.395,6.886 4.69,13.672 l 5.589,17.565 4.192,13.773 0.199,1.497 c 0,2.495 -1.197,4.092 -3.493,4.79 l -1.497,0.2 c -2.495,0 -4.092,-1.198 -4.79,-3.493 l -5.589,-18.264 c -3.493,0.799 -7.685,1.897 -12.575,3.194 -10.08,2.894 -15.768,4.391 -17.066,4.691 -1.097,4.091 -1.696,8.083 -1.996,11.976 -0.299,3.093 -1.896,4.59 -4.99,4.59 -0.199,0 -0.299,0 -0.399,-0.1 -3.094,-0.1 -4.591,-1.797 -4.591,-4.99 z m 29.84,-53.992 c -1.297,2.196 -2.195,3.992 -2.894,5.489 -5.289,10.679 -9.181,19.362 -11.477,26.148 1.098,-0.299 4.791,-1.297 10.878,-3.094 6.088,-1.696 10.18,-2.694 12.276,-3.193 -1.896,-5.889 -3.793,-11.478 -5.689,-16.567 z"
         id="path73964"
         style="font-size:82.3036px;font-family:'Canted Comic';-inkscape-font-specification:'Canted Comic, Normal';white-space:pre;fill:#e6e6e6;stroke:#000000;stroke-width:0;stroke-linejoin:round" /><path
         d="m 13745.047,-15321.384 c 0,3.094 -1.397,4.691 -4.291,4.99 -0.1,0.1 -0.399,0.1 -0.699,0.1 -2.894,0 -4.59,-1.397 -4.99,-4.291 -0.499,-4.391 -0.698,-8.483 -0.698,-12.276 -0.1,-0.299 -0.1,-0.598 -0.1,-1.097 0,-0.499 0,-0.998 0.1,-1.597 v -9.481 c 0,-10.978 0,-16.867 -0.1,-17.565 0,-0.799 -0.1,-2.595 -0.399,-5.489 l -0.1,-3.892 -0.2,-5.589 v -2.196 l 0.2,-1.696 c 0.399,-2.096 2.994,-4.292 5.788,-4.292 2.495,0 5.09,1.397 7.585,4.092 0.698,0.699 1.497,1.697 2.595,2.994 l 0.998,1.397 c 8.084,10.28 16.766,22.455 26.247,36.328 l 3.493,5.489 v -3.992 c 0.599,-14.472 0.898,-26.148 0.898,-34.931 0,-4.89 0,-7.884 -0.1,-8.982 v -0.299 c 0,-2.495 1.996,-4.79 4.79,-4.89 h 0.3 c 2.495,0 4.79,1.996 4.89,4.79 l 0.2,9.98 c 0,10.28 -0.3,21.857 -0.998,34.731 v 5.09 c 0,1.896 0,3.093 -0.1,3.592 -0.499,7.885 -3.094,11.777 -7.784,11.777 h -0.2 c -0.998,0 -1.896,-0.3 -2.694,-0.898 l -0.998,-0.799 -10.08,-15.07 c -7.885,-11.876 -16.068,-23.353 -24.751,-34.531 l 0.399,6.887 c 0.1,0.598 0.1,2.395 0.1,5.389 0,2.994 0,7.186 -0.1,12.575 v 9.581 c 0,1.397 0,2.195 0.1,2.495 0,4.291 0.199,7.884 0.698,10.978 z"
         id="path73966"
         style="font-size:82.3036px;font-family:'Canted Comic';-inkscape-font-specification:'Canted Comic, Normal';white-space:pre;fill:#e6e6e6;stroke:#000000;stroke-width:0;stroke-linejoin:round" /><path
         d="m 13837.163,-15381.064 c -0.499,7.784 -0.798,15.868 -0.798,24.351 0,9.88 0.299,21.457 0.898,34.531 v 0.299 c 0,2.495 -1.996,4.891 -4.691,4.99 h -0.299 c -2.495,0 -4.891,-1.996 -4.99,-4.69 -0.699,-11.477 -0.998,-22.954 -0.998,-34.431 0,-9.781 0.299,-18.364 0.898,-25.849 0.299,-3.093 1.896,-4.59 4.89,-4.59 h 0.499 c 3.094,0.299 4.591,1.896 4.591,4.89 z"
         id="path73968"
         style="font-size:82.3036px;font-family:'Canted Comic';-inkscape-font-specification:'Canted Comic, Normal';white-space:pre;fill:#e6e6e6;stroke:#000000;stroke-width:0;stroke-linejoin:round" /><path
         d="m 13921.694,-15364.497 c 0.299,17.664 1.097,31.636 2.395,41.816 v 0.499 c 0,3.094 -1.397,4.691 -4.292,4.99 -0.1,0.1 -0.399,0.1 -0.698,0.1 -2.894,0 -4.591,-1.497 -4.99,-4.391 -0.898,-8.284 -1.597,-16.966 -1.996,-25.948 -2.894,0.299 -7.086,0.998 -12.375,2.095 -5.09,0.998 -9.182,1.797 -12.376,2.296 l 1.797,22.155 c 0,2.495 -1.896,4.891 -4.591,4.99 -0.1,0.1 -0.2,0.1 -0.499,0.1 -2.395,0 -4.591,-2.096 -4.89,-4.591 l -1.098,-13.972 c -1.098,-12.375 -1.597,-22.854 -1.597,-31.437 0,-5.289 0.3,-10.379 0.799,-15.369 0.399,-2.894 2.095,-4.391 4.99,-4.391 h 0.698 c 2.894,0.399 4.292,2.096 4.292,5.09 v 0.499 c -0.599,4.291 -0.899,9.281 -0.899,15.069 0,4.491 0.1,8.483 0.4,11.877 2.195,-0.3 5.888,-0.998 10.978,-2.096 5.688,-1.198 10.379,-1.996 14.071,-2.296 l -0.499,-25.349 c 0,-2.495 2.096,-4.79 4.891,-4.89 h 0.199 c 2.495,0 4.791,2.096 4.891,4.79 z"
         id="path73970"
         style="font-size:82.3036px;font-family:'Canted Comic';-inkscape-font-specification:'Canted Comic, Normal';white-space:pre;fill:#e6e6e6;stroke:#000000;stroke-width:0;stroke-linejoin:round" /><path
         d="m 13983.27,-15329.667 h 0.599 c 3.094,0 4.791,1.397 5.09,4.291 v 0.699 c 0,2.894 -1.397,4.591 -4.291,4.99 l -4.491,0.599 -16.867,2.694 -12.774,1.797 c -1.896,0.299 -3.493,0.499 -4.691,0.599 -0.299,0.1 -0.998,0.1 -1.896,0.1 -0.399,0 -1.098,-0.1 -1.996,-0.199 -3.692,-0.898 -6.287,-2.595 -7.984,-5.19 -0.499,-0.698 -0.698,-1.297 -0.698,-1.696 v -51.497 c 0,-1.298 0,-1.996 0.1,-2.296 0.898,-7.086 4.99,-9.281 14.072,-10.179 12.874,-1.697 24.052,-2.495 33.632,-2.495 2.795,0 4.99,2.195 4.99,4.99 0,2.794 -2.195,4.99 -4.99,4.99 -8.083,0 -18.961,0.798 -32.435,2.395 -1.896,0.199 -3.193,0.399 -4.091,0.599 -0.799,0.1 -1.198,0.399 -1.198,0.998 v 5.189 c 0,6.886 0,11.976 -0.1,15.17 l 35.928,-5.888 c 0.1,-0.1 0.499,-0.1 0.998,-0.1 2.694,0 4.291,1.397 4.79,4.092 v 0.998 c 0,2.794 -1.397,4.391 -4.192,4.79 -11.477,1.896 -24.051,3.992 -37.624,6.188 v 18.862 l 0.698,0.2 h 1.198 l 4.192,-0.499 c 3.093,-0.4 7.285,-0.998 12.574,-1.797 z"
         id="path73972"
         style="font-size:82.3036px;font-family:'Canted Comic';-inkscape-font-specification:'Canted Comic, Normal';white-space:pre;fill:#e6e6e6;stroke:#000000;stroke-width:0;stroke-linejoin:round" /><path
         d="m 13994.947,-15345.036 c 0,-13.673 1.198,-26.547 3.493,-38.623 0.499,-2.695 2.096,-3.992 4.791,-3.992 0.499,0 0.898,0 1.097,0.1 2.695,0.499 3.992,2.096 3.992,4.79 0,0.599 0,0.998 -0.1,1.098 -2.096,11.677 -3.194,25.349 -3.194,41.218 l 0.2,13.572 c 8.483,0 17.864,-0.698 28.144,-2.195 l 15.269,-2.096 c 0.1,-0.1 0.399,-0.1 0.799,-0.1 2.894,0 4.49,1.397 4.89,4.192 v 0.698 c 0,3.094 -1.398,4.691 -4.292,4.99 -13.573,2.096 -24.251,3.394 -31.936,3.893 -6.088,0.299 -10.778,0.499 -13.872,0.499 h -3.593 c -2.295,-0.1 -3.792,-1.198 -4.591,-3.493 -0.399,-0.799 -0.598,-1.597 -0.698,-2.396 -0.3,-10.479 -0.399,-17.265 -0.399,-20.159 z"
         id="path73974"
         style="font-size:82.3036px;font-family:'Canted Comic';-inkscape-font-specification:'Canted Comic, Normal';white-space:pre;fill:#e6e6e6;stroke:#000000;stroke-width:0;stroke-linejoin:round" /><path
         d="m 14073.889,-15338.449 c 0.3,6.187 0.998,11.676 1.996,16.467 0.1,0.1 0.1,0.499 0.1,0.998 0,2.794 -1.298,4.391 -3.992,4.89 -0.1,0.1 -0.499,0.1 -0.998,0.1 -2.795,0 -4.392,-1.298 -4.891,-3.992 -1.696,-8.483 -2.495,-19.062 -2.495,-31.737 v -13.972 l -0.199,-12.076 c 0,-2.994 1.497,-4.591 4.491,-4.89 7.285,-2.495 14.87,-3.693 22.754,-3.693 h 2.895 c 10.978,0.499 18.463,3.693 22.355,9.581 2.195,3.393 3.293,7.086 3.293,11.178 0,15.269 -12.475,24.651 -27.645,26.347 -4.091,0.399 -6.985,0.599 -8.782,0.699 -0.599,0.1 -2.196,0.1 -4.89,0.1 z m -0.399,-17.066 c 0,4.092 0,6.387 0.1,7.086 12.875,0 23.154,-0.2 30.04,-5.789 3.693,-2.894 5.589,-6.687 5.589,-11.377 0,-4.591 -2.096,-7.585 -6.387,-9.082 -3.892,-1.098 -7.984,-1.697 -12.176,-1.697 h -1.996 c -5.189,0.2 -10.279,0.998 -15.169,2.396 0.1,0.499 0.1,1.397 0.1,2.694 0,1.198 0,2.795 -0.1,4.691 z"
         id="path73976"
         style="font-size:82.3036px;font-family:'Canted Comic';-inkscape-font-specification:'Canted Comic, Normal';white-space:pre;fill:#e6e6e6;stroke:#000000;stroke-width:0;stroke-linejoin:round" /><path
         d="m 14195.346,-15373.28 c 3.493,-5.389 6.886,-10.08 10.18,-14.072 0.898,-1.097 1.996,-1.696 3.393,-1.796 h 0.499 c 2.994,0 4.591,1.497 4.89,4.491 v 0.599 c 0,1.098 -0.399,2.195 -1.197,3.094 -3.593,4.291 -8.084,10.978 -13.573,19.86 l -5.888,9.681 -15.669,24.351 -6.886,11.277 c -0.699,1.198 -1.697,1.996 -2.994,2.296 l -1.397,0.199 c -2.495,0 -3.993,-1.197 -4.691,-3.692 l -0.2,-1.298 c 0,-0.998 0.2,-1.796 0.699,-2.495 3.992,-6.686 10.08,-16.367 18.164,-28.942 -3.593,-4.291 -7.585,-9.182 -11.977,-14.77 -5.888,-7.485 -10.279,-12.875 -13.073,-16.168 -0.799,-0.998 -1.198,-2.096 -1.198,-3.393 v -0.3 c 0.1,-2.694 2.595,-4.59 5.09,-4.59 h 0.299 c 1.298,0.1 2.495,0.598 3.393,1.696 2.994,3.294 7.485,8.882 13.374,16.567 4.092,5.289 7.285,9.281 9.78,12.176 z"
         id="path73978"
         style="font-size:82.3036px;font-family:'Canted Comic';-inkscape-font-specification:'Canted Comic, Normal';white-space:pre;fill:#e6e6e6;stroke:#000000;stroke-width:0;stroke-linejoin:round" /><path
         d="m 14256.623,-15384.857 c 0.499,0.2 0.799,0.3 0.899,0.4 1.098,0.399 1.896,1.097 2.395,2.095 0.499,0.499 0.998,0.998 1.397,1.697 2.495,4.79 3.992,10.279 4.591,16.567 l 0.199,5.189 c 0,11.378 -2.894,21.058 -8.682,28.943 -4.092,5.888 -9.88,9.98 -17.565,12.275 -2.794,0.798 -5.289,1.198 -7.485,1.297 h -0.499 c -11.178,0 -18.862,-7.884 -20.559,-17.864 -0.499,-1.896 -0.698,-4.291 -0.698,-7.086 0,-2.195 0.299,-4.79 0.798,-7.784 3.693,-17.665 15.768,-33.333 28.643,-37.425 2.095,-0.599 4.291,-0.898 6.487,-0.898 2.894,0 5.688,0.598 8.383,1.796 z m -3.992,9.082 c -0.898,-0.299 -1.397,-0.599 -1.497,-0.698 -1.397,-0.699 -2.894,-0.998 -4.391,-0.998 -7.285,0 -15.569,6.686 -21.457,18.662 -2.894,6.088 -4.491,11.877 -4.591,17.465 -0.1,0.1 -0.1,0.4 -0.1,0.699 0,9.481 3.792,14.271 11.277,14.271 3.992,0 8.084,-1.497 12.176,-4.391 2.395,-1.497 4.192,-3.193 5.389,-4.99 3.793,-5.289 5.988,-11.776 6.587,-19.461 0.1,-0.599 0.1,-1.896 0.1,-3.792 0,-5.988 -1.198,-11.577 -3.494,-16.767 z"
         id="path73980"
         style="font-size:82.3036px;font-family:'Canted Comic';-inkscape-font-specification:'Canted Comic, Normal';white-space:pre;fill:#e6e6e6;stroke:#000000;stroke-width:0;stroke-linejoin:round" /><path
         d="m 14327.981,-15384.557 c -0.2,3.892 -0.3,8.583 -0.3,14.072 0.1,1.297 0.1,3.892 0.1,7.884 0,3.293 0,5.389 -0.1,6.088 -0.199,4.191 -0.299,8.682 -0.299,13.573 v 3.692 c 0.1,6.487 0.399,11.976 1.098,16.667 v 0.599 c 0,2.994 -1.397,4.69 -4.292,5.089 h -0.798 c -1.796,0 -3.194,-0.798 -4.192,-2.395 -6.487,1.397 -10.678,2.196 -12.674,2.495 -2.595,0.399 -5.09,0.599 -7.386,0.599 -4.89,0 -8.682,-0.699 -11.377,-2.196 -6.986,-3.592 -11.078,-14.171 -12.275,-31.636 -0.1,-3.094 -0.2,-5.39 -0.2,-6.887 v -3.093 c 0.1,-5.988 0.3,-11.976 0.599,-17.865 0.2,-3.493 0.299,-5.588 0.299,-6.187 0.1,-2.795 2.396,-4.791 4.891,-4.791 h 0.299 c 2.794,0.1 4.79,2.396 4.79,4.891 v 0.299 c -0.299,4.89 -0.598,9.581 -0.698,14.072 v 0.299 l -0.2,8.882 v 2.994 c 0,1.298 0.1,3.593 0.2,6.787 0.399,6.687 1.297,12.275 2.595,16.567 2.095,6.786 4.391,7.784 11.177,7.784 2.296,0 4.192,-0.1 5.888,-0.399 3.294,-0.499 7.585,-1.297 12.675,-2.495 -0.2,-3.094 -0.299,-7.285 -0.299,-12.475 l 0.199,-15.07 c 0.1,-0.599 0.1,-1.597 0.1,-2.894 0,-1.298 0,-2.994 -0.1,-5.09 v -8.882 c 0,-5.389 0.1,-9.182 0.3,-11.377 0.1,-2.695 2.495,-4.791 4.99,-4.791 h 0.299 c 2.695,0.1 4.691,2.395 4.691,4.89 z"
         id="path73982"
         style="font-size:82.3036px;font-family:'Canted Comic';-inkscape-font-specification:'Canted Comic, Normal';white-space:pre;fill:#e6e6e6;stroke:#000000;stroke-width:0;stroke-linejoin:round" /><path
         d="m 14365.106,-15376.873 c -10.079,0 -14.271,2.096 -23.453,11.677 -0.998,0.998 -2.195,1.497 -3.493,1.497 -2.794,0 -5.089,-2.196 -5.089,-4.99 0,-1.198 0.499,-2.395 1.397,-3.493 11.477,-11.477 17.764,-14.671 30.638,-14.671 h 0.899 c 10.578,0.1 15.868,3.893 15.868,11.577 v 0.2 c -0.1,3.293 -4.89,8.882 -14.371,16.766 l -15.769,12.276 -2.295,1.996 h 0.199 c 1.697,0.299 4.691,0.399 9.082,0.499 h 4.791 c 0.499,0 0.898,0 0.998,-0.1 l 3.992,-0.699 c 0.1,-0.1 0.499,-0.1 0.998,-0.1 2.694,0 4.291,1.397 4.79,4.091 v 0.998 c 0,2.795 -1.397,4.392 -4.192,4.791 -3.293,0.698 -5.089,0.998 -5.588,0.998 h -5.988 c -7.785,-0.1 -13.274,-0.799 -16.467,-1.896 -3.194,-1.098 -5.19,-2.895 -5.988,-5.39 l -0.2,-1.497 c 0,-0.998 0.399,-2.095 1.098,-3.393 l 1.297,-1.597 2.894,-2.794 4.192,-3.493 c 1.197,-0.998 3.393,-2.695 6.587,-5.19 l 9.281,-7.285 c 3.294,-2.595 5.988,-4.99 8.284,-7.286 1.297,-1.297 1.996,-2.095 2.195,-2.395 -0.1,0 -0.199,0 -0.299,-0.1 -1.298,-0.598 -3.094,-0.898 -5.489,-0.998 z m -5.588,52.196 c 0.898,1.098 1.397,2.295 1.397,3.593 0,2.794 -2.196,4.99 -4.99,4.99 -2.795,0 -4.99,-2.196 -4.99,-4.99 0,-2.795 2.195,-4.99 4.99,-4.99 1.297,0 2.495,0.499 3.593,1.397 z"
         id="path73984"
         style="font-size:82.3036px;font-family:'Canted Comic';-inkscape-font-specification:'Canted Comic, Normal';white-space:pre;fill:#e6e6e6;stroke:#000000;stroke-width:0;stroke-linejoin:round" /><path
         d="m 13233.954,-15163.128 c 0,-9.812 0.86,-19.051 2.507,-27.717 0.358,-1.934 1.504,-2.865 3.438,-2.865 0.358,0 0.644,0 0.788,0.07 1.933,0.358 2.864,1.504 2.864,3.437 0,0.43 0,0.717 -0.07,0.788 -1.504,8.38 -2.292,18.192 -2.292,29.58 l 0.144,9.74 c 6.087,0 12.82,-0.501 20.196,-1.576 l 10.958,-1.504 c 0.07,-0.07 0.287,-0.07 0.573,-0.07 2.077,0 3.223,1.002 3.51,3.008 v 0.501 c 0,2.22 -1.003,3.366 -3.08,3.581 -9.74,1.504 -17.404,2.435 -22.918,2.793 -4.369,0.215 -7.735,0.358 -9.956,0.358 h -2.578 c -1.647,-0.07 -2.722,-0.859 -3.295,-2.506 -0.286,-0.573 -0.429,-1.146 -0.501,-1.719 -0.215,-7.52 -0.286,-12.391 -0.286,-14.468 z"
         id="path73987"
         style="font-size:82.3036px;font-family:'Canted Comic';-inkscape-font-specification:'Canted Comic, Normal';white-space:pre;fill:#e6e6e6;stroke:#000000;stroke-width:0;stroke-linejoin:round" /><path
         d="m 13290.463,-15188.983 c -0.358,5.586 -0.573,11.388 -0.573,17.475 0,7.091 0.215,15.399 0.645,24.781 v 0.215 c 0,1.79 -1.433,3.509 -3.367,3.581 h -0.215 c -1.79,0 -3.509,-1.432 -3.581,-3.366 -0.501,-8.237 -0.716,-16.473 -0.716,-24.709 0,-7.019 0.215,-13.178 0.645,-18.55 0.215,-2.22 1.361,-3.294 3.509,-3.294 h 0.358 c 2.221,0.214 3.295,1.36 3.295,3.509 z"
         id="path73989"
         style="font-size:82.3036px;font-family:'Canted Comic';-inkscape-font-specification:'Canted Comic, Normal';white-space:pre;fill:#e6e6e6;stroke:#000000;stroke-width:0;stroke-linejoin:round" /><path
         d="m 13338.592,-15177.739 c -0.501,1.719 -1.647,2.579 -3.438,2.579 -0.143,0 -0.43,-0.07 -0.931,-0.143 -1.791,-0.502 -2.65,-1.648 -2.65,-3.438 l 0.143,-1.003 c 0.07,-0.07 0.573,-1.361 1.504,-3.796 l 0.144,-0.358 -1.29,-0.43 c -2.506,-0.644 -4.941,-1.002 -7.305,-1.002 h -0.716 c -6.231,0.215 -10.743,2.363 -13.393,6.374 -0.07,0.358 -0.143,0.788 -0.143,1.289 v 0.788 c 0.07,1.576 0.859,2.865 2.435,3.796 1.504,0.931 4.225,1.79 8.093,2.578 12.892,2.793 15.9,3.796 18.979,8.595 1.289,1.933 1.934,3.867 1.934,5.801 0,0.644 -0.143,1.361 -0.358,2.148 -1.934,6.088 -6.518,9.741 -13.823,10.958 -2.65,0.43 -5.443,0.645 -8.379,0.645 -1.29,0 -2.077,0 -2.436,-0.07 -10.385,-0.429 -16.401,-3.008 -18.191,-7.735 -0.501,-1.217 -0.716,-2.721 -0.788,-4.655 l -0.143,-3.796 c 0,-2.22 1.074,-3.366 3.223,-3.581 h 0.358 c 2.22,0 3.366,1.074 3.581,3.223 0,6.589 0,6.876 3.652,8.022 2.149,0.787 5.014,1.217 8.667,1.36 0.358,0.07 1.074,0.07 2.291,0.07 6.231,0 10.171,-0.716 11.675,-2.077 1.933,-1.719 3.079,-3.223 3.509,-4.584 l -0.143,-0.644 -0.573,-1.075 c -0.788,-1.289 -2.006,-2.22 -3.725,-2.865 -1.79,-0.644 -5.371,-1.504 -10.814,-2.721 -11.101,-2.364 -15.9,-5.658 -16.186,-13.107 v -0.716 c 0,-8.809 10.098,-15.112 22.13,-15.112 h 1.218 c 2.65,0.07 5.228,0.573 7.663,1.361 0.645,0 1.433,0.215 2.435,0.716 2.077,0.788 3.366,2.149 3.796,3.939 l 0.143,1.504 c 0,1.29 -0.286,2.65 -0.859,4.083 z"
         id="path73991"
         style="font-size:82.3036px;font-family:'Canted Comic';-inkscape-font-specification:'Canted Comic, Normal';white-space:pre;fill:#e6e6e6;stroke:#000000;stroke-width:0;stroke-linejoin:round" /><path
         d="m 13374.617,-15146.011 c 0,2.221 -1.003,3.366 -3.08,3.581 -0.07,0.07 -0.286,0.07 -0.501,0.07 -2.077,0 -3.295,-1.003 -3.581,-3.08 -0.788,-5.801 -1.289,-12.032 -1.504,-18.693 -0.143,-2.65 -0.215,-5.3 -0.215,-7.95 0,-2.936 0.143,-6.66 0.358,-11.172 -6.732,0.644 -12.247,1.289 -16.473,2.005 -0.07,0.07 -0.358,0.07 -0.716,0.07 -1.934,0 -3.079,-1.003 -3.438,-2.937 -0.07,-0.07 -0.07,-0.358 -0.07,-0.716 0,-1.934 1.003,-3.08 2.936,-3.438 4.441,-0.788 11.531,-1.647 21.2,-2.435 8.809,-0.788 15.613,-1.647 20.34,-2.65 0.144,-0.07 0.43,-0.07 0.788,-0.07 1.862,0 3.008,0.931 3.51,2.793 0.07,0.143 0.07,0.429 0.07,0.859 0,1.791 -0.931,2.937 -2.793,3.438 -4.369,1.003 -10.457,1.862 -18.12,2.507 -0.287,3.796 -0.43,7.735 -0.43,11.817 l 0.143,6.947 c 0.215,6.446 0.788,12.677 1.576,18.622 z"
         id="path73993"
         style="font-size:82.3036px;font-family:'Canted Comic';-inkscape-font-specification:'Canted Comic, Normal';white-space:pre;fill:#e6e6e6;stroke:#000000;stroke-width:0;stroke-linejoin:round" /><path
         d="m 13460.561,-15177.739 c -0.501,1.719 -1.647,2.579 -3.437,2.579 -0.144,0 -0.43,-0.07 -0.931,-0.143 -1.791,-0.502 -2.65,-1.648 -2.65,-3.438 l 0.143,-1.003 c 0.07,-0.07 0.573,-1.361 1.504,-3.796 l 0.143,-0.358 -1.289,-0.43 c -2.507,-0.644 -4.942,-1.002 -7.305,-1.002 h -0.717 c -6.231,0.215 -10.743,2.363 -13.393,6.374 -0.07,0.358 -0.143,0.788 -0.143,1.289 v 0.788 c 0.07,1.576 0.86,2.865 2.435,3.796 1.504,0.931 4.226,1.79 8.093,2.578 12.892,2.793 15.9,3.796 18.98,8.595 1.289,1.933 1.934,3.867 1.934,5.801 0,0.644 -0.144,1.361 -0.359,2.148 -1.933,6.088 -6.517,9.741 -13.822,10.958 -2.65,0.43 -5.443,0.645 -8.38,0.645 -1.289,0 -2.077,0 -2.435,-0.07 -10.385,-0.429 -16.401,-3.008 -18.192,-7.735 -0.501,-1.217 -0.716,-2.721 -0.787,-4.655 l -0.144,-3.796 c 0,-2.22 1.075,-3.366 3.223,-3.581 h 0.358 c 2.221,0 3.367,1.074 3.581,3.223 0,6.589 0,6.876 3.653,8.022 2.149,0.787 5.013,1.217 8.666,1.36 0.358,0.07 1.074,0.07 2.292,0.07 6.231,0 10.17,-0.716 11.674,-2.077 1.934,-1.719 3.08,-3.223 3.51,-4.584 l -0.144,-0.644 -0.573,-1.075 c -0.788,-1.289 -2.005,-2.22 -3.724,-2.865 -1.79,-0.644 -5.371,-1.504 -10.815,-2.721 -11.101,-2.364 -15.899,-5.658 -16.186,-13.107 v -0.716 c 0,-8.809 10.099,-15.112 22.131,-15.112 h 1.217 c 2.65,0.07 5.229,0.573 7.664,1.361 0.644,0 1.432,0.215 2.435,0.716 2.077,0.788 3.366,2.149 3.796,3.939 l 0.143,1.504 c 0,1.29 -0.286,2.65 -0.859,4.083 z"
         id="path73995"
         style="font-size:82.3036px;font-family:'Canted Comic';-inkscape-font-specification:'Canted Comic, Normal';white-space:pre;fill:#e6e6e6;stroke:#000000;stroke-width:0;stroke-linejoin:round" /><path
         d="m 13477.607,-15188.983 c -0.358,5.586 -0.573,11.388 -0.573,17.475 0,7.091 0.215,15.399 0.645,24.781 v 0.215 c 0,1.79 -1.433,3.509 -3.367,3.581 h -0.214 c -1.791,0 -3.51,-1.432 -3.581,-3.366 -0.502,-8.237 -0.717,-16.473 -0.717,-24.709 0,-7.019 0.215,-13.178 0.645,-18.55 0.215,-2.22 1.361,-3.294 3.509,-3.294 h 0.358 c 2.221,0.214 3.295,1.36 3.295,3.509 z"
         id="path73997"
         style="font-size:82.3036px;font-family:'Canted Comic';-inkscape-font-specification:'Canted Comic, Normal';white-space:pre;fill:#e6e6e6;stroke:#000000;stroke-width:0;stroke-linejoin:round" /><path
         d="m 13510.982,-15146.011 c 0,2.221 -1.002,3.366 -3.079,3.581 -0.07,0.07 -0.287,0.07 -0.502,0.07 -2.077,0 -3.294,-1.003 -3.581,-3.08 -0.788,-5.801 -1.289,-12.032 -1.504,-18.693 -0.143,-2.65 -0.215,-5.3 -0.215,-7.95 0,-2.936 0.144,-6.66 0.358,-11.172 -6.732,0.644 -12.247,1.289 -16.472,2.005 -0.07,0.07 -0.358,0.07 -0.717,0.07 -1.933,0 -3.079,-1.003 -3.437,-2.937 -0.07,-0.07 -0.07,-0.358 -0.07,-0.716 0,-1.934 1.003,-3.08 2.937,-3.438 4.44,-0.788 11.531,-1.647 21.199,-2.435 8.81,-0.788 15.614,-1.647 20.341,-2.65 0.143,-0.07 0.429,-0.07 0.787,-0.07 1.863,0 3.009,0.931 3.51,2.793 0.07,0.143 0.07,0.429 0.07,0.859 0,1.791 -0.931,2.937 -2.793,3.438 -4.369,1.003 -10.457,1.862 -18.12,2.507 -0.287,3.796 -0.43,7.735 -0.43,11.817 l 0.143,6.947 c 0.215,6.446 0.788,12.677 1.576,18.622 z"
         id="path73999"
         style="font-size:82.3036px;font-family:'Canted Comic';-inkscape-font-specification:'Canted Comic, Normal';white-space:pre;fill:#e6e6e6;stroke:#000000;stroke-width:0;stroke-linejoin:round" /><path
         d="m 13570.642,-15152.098 h 0.43 c 2.22,0 3.438,1.002 3.652,3.079 v 0.502 c 0,2.077 -1.002,3.294 -3.079,3.581 l -3.223,0.429 -12.104,1.934 -9.168,1.289 c -1.36,0.215 -2.506,0.358 -3.366,0.43 -0.214,0.07 -0.716,0.07 -1.36,0.07 -0.287,0 -0.788,-0.07 -1.433,-0.144 -2.65,-0.644 -4.512,-1.862 -5.73,-3.724 -0.358,-0.501 -0.501,-0.931 -0.501,-1.217 v -36.957 c 0,-0.931 0,-1.432 0.07,-1.647 0.644,-5.085 3.581,-6.661 10.098,-7.305 9.239,-1.218 17.261,-1.791 24.136,-1.791 2.005,0 3.581,1.576 3.581,3.581 0,2.006 -1.576,3.581 -3.581,3.581 -5.801,0 -13.608,0.573 -23.277,1.719 -1.36,0.143 -2.291,0.287 -2.936,0.43 -0.573,0.07 -0.859,0.286 -0.859,0.716 v 3.724 c 0,4.942 0,8.595 -0.07,10.887 l 25.784,-4.226 c 0.07,-0.07 0.358,-0.07 0.716,-0.07 1.934,0 3.079,1.002 3.438,2.936 v 0.716 c 0,2.006 -1.003,3.151 -3.009,3.438 -8.236,1.361 -17.26,2.865 -27,4.44 v 13.537 l 0.501,0.143 h 0.859 l 3.008,-0.358 c 2.221,-0.287 5.229,-0.716 9.025,-1.289 z"
         id="path74001"
         style="font-size:82.3036px;font-family:'Canted Comic';-inkscape-font-specification:'Canted Comic, Normal';white-space:pre;fill:#e6e6e6;stroke:#000000;stroke-width:0;stroke-linejoin:round" /><path
         d="m 13619.845,-15177.739 c -0.501,1.719 -1.647,2.579 -3.437,2.579 -0.144,0 -0.43,-0.07 -0.932,-0.143 -1.79,-0.502 -2.649,-1.648 -2.649,-3.438 l 0.143,-1.003 c 0.07,-0.07 0.573,-1.361 1.504,-3.796 l 0.143,-0.358 -1.289,-0.43 c -2.507,-0.644 -4.942,-1.002 -7.305,-1.002 h -0.717 c -6.231,0.215 -10.743,2.363 -13.393,6.374 -0.07,0.358 -0.143,0.788 -0.143,1.289 v 0.788 c 0.07,1.576 0.86,2.865 2.435,3.796 1.504,0.931 4.226,1.79 8.093,2.578 12.892,2.793 15.9,3.796 18.98,8.595 1.289,1.933 1.933,3.867 1.933,5.801 0,0.644 -0.143,1.361 -0.358,2.148 -1.933,6.088 -6.517,9.741 -13.822,10.958 -2.65,0.43 -5.444,0.645 -8.38,0.645 -1.289,0 -2.077,0 -2.435,-0.07 -10.385,-0.429 -16.401,-3.008 -18.192,-7.735 -0.501,-1.217 -0.716,-2.721 -0.787,-4.655 l -0.144,-3.796 c 0,-2.22 1.075,-3.366 3.223,-3.581 h 0.358 c 2.221,0 3.366,1.074 3.581,3.223 0,6.589 0,6.876 3.653,8.022 2.149,0.787 5.013,1.217 8.666,1.36 0.358,0.07 1.074,0.07 2.292,0.07 6.231,0 10.17,-0.716 11.674,-2.077 1.934,-1.719 3.08,-3.223 3.509,-4.584 l -0.143,-0.644 -0.573,-1.075 c -0.788,-1.289 -2.005,-2.22 -3.724,-2.865 -1.791,-0.644 -5.372,-1.504 -10.815,-2.721 -11.101,-2.364 -15.899,-5.658 -16.186,-13.107 v -0.716 c 0,-8.809 10.099,-15.112 22.131,-15.112 h 1.217 c 2.65,0.07 5.229,0.573 7.664,1.361 0.644,0 1.432,0.215 2.435,0.716 2.077,0.788 3.366,2.149 3.796,3.939 l 0.143,1.504 c 0,1.29 -0.287,2.65 -0.86,4.083 z"
         id="path74003"
         style="font-size:82.3036px;font-family:'Canted Comic';-inkscape-font-specification:'Canted Comic, Normal';white-space:pre;fill:#e6e6e6;stroke:#000000;stroke-width:0;stroke-linejoin:round" /><path
         d="m 13658.377,-15188.983 c -0.358,5.586 -0.573,11.388 -0.573,17.475 0,7.091 0.215,15.399 0.645,24.781 v 0.215 c 0,1.79 -1.433,3.509 -3.367,3.581 h -0.214 c -1.791,0 -3.51,-1.432 -3.581,-3.366 -0.502,-8.237 -0.717,-16.473 -0.717,-24.709 0,-7.019 0.215,-13.178 0.645,-18.55 0.215,-2.22 1.361,-3.294 3.509,-3.294 h 0.358 c 2.221,0.214 3.295,1.36 3.295,3.509 z"
         id="path74005"
         style="font-size:82.3036px;font-family:'Canted Comic';-inkscape-font-specification:'Canted Comic, Normal';white-space:pre;fill:#e6e6e6;stroke:#000000;stroke-width:0;stroke-linejoin:round" /><path
         d="m 13673.919,-15146.154 c 0,2.22 -1.003,3.366 -3.08,3.581 -0.07,0.07 -0.287,0.07 -0.501,0.07 -2.077,0 -3.295,-1.003 -3.581,-3.08 -0.358,-3.151 -0.502,-6.088 -0.502,-8.809 -0.07,-0.215 -0.07,-0.43 -0.07,-0.788 0,-0.358 0,-0.716 0.07,-1.146 v -6.804 c 0,-7.878 0,-12.104 -0.07,-12.605 0,-0.573 -0.07,-1.862 -0.287,-3.939 l -0.07,-2.794 -0.143,-4.01 v -1.576 l 0.143,-1.217 c 0.287,-1.504 2.149,-3.08 4.154,-3.08 1.791,0 3.653,1.003 5.443,2.936 0.502,0.502 1.075,1.218 1.862,2.149 l 0.717,1.003 c 5.801,7.377 12.032,16.114 18.836,26.069 l 2.506,3.94 v -2.865 c 0.43,-10.385 0.645,-18.765 0.645,-25.067 0,-3.51 0,-5.658 -0.07,-6.446 v -0.215 c 0,-1.791 1.432,-3.438 3.437,-3.509 h 0.215 c 1.791,0 3.438,1.432 3.51,3.437 l 0.143,7.162 c 0,7.377 -0.215,15.685 -0.716,24.924 v 3.653 c 0,1.361 0,2.22 -0.07,2.578 -0.358,5.658 -2.22,8.451 -5.586,8.451 h -0.143 c -0.716,0 -1.361,-0.214 -1.934,-0.644 l -0.716,-0.573 -7.234,-10.815 c -5.658,-8.523 -11.531,-16.759 -17.762,-24.78 l 0.287,4.941 c 0.07,0.43 0.07,1.719 0.07,3.868 0,2.148 0,5.157 -0.07,9.024 v 6.876 c 0,1.002 0,1.575 0.07,1.79 0,3.08 0.143,5.658 0.501,7.878 z"
         id="path74007"
         style="font-size:82.3036px;font-family:'Canted Comic';-inkscape-font-specification:'Canted Comic, Normal';white-space:pre;fill:#e6e6e6;stroke:#000000;stroke-width:0;stroke-linejoin:round" /><path
         d="m 13782.424,-15194.999 v -1.218 c -6.231,0.358 -11.889,1.648 -16.903,3.868 -10.671,4.798 -18.191,11.388 -22.704,19.839 -1.933,3.939 -3.008,7.448 -3.151,10.671 v 0.573 c 0,6.947 4.297,11.459 12.892,13.536 1.862,0.502 4.727,0.717 8.523,0.717 1.217,0 2.005,0 2.292,-0.07 7.305,-0.788 13.679,-3.08 19.122,-6.876 0.645,-0.358 1.361,-0.573 2.006,-0.573 0.358,0 0.644,0 0.716,0.07 1.934,0.358 2.865,1.576 2.865,3.653 0,0.358 0,0.644 -0.07,0.788 -0.215,0.931 -0.716,1.718 -1.504,2.363 -6.589,4.44 -14.037,7.09 -22.417,8.022 -0.358,0.07 -1.289,0.07 -2.793,0.07 -1.862,0 -3.08,0 -3.724,-0.07 -2.794,-0.215 -5.014,-0.43 -6.59,-0.788 -12.247,-3.08 -18.406,-10.099 -18.406,-20.913 v -0.788 c 0.358,-9.096 4.727,-17.834 13.107,-26.07 7.52,-7.234 17.117,-12.032 28.863,-14.467 2.793,-0.645 5.156,-0.932 7.162,-1.003 h 0.358 c 2.793,0 4.87,0.644 6.231,1.862 0.788,0.645 1.217,1.576 1.36,2.793 0.07,0.86 0.144,1.433 0.144,1.719 l -0.358,3.366 -1.075,6.303 c -0.286,2.077 -1.432,3.08 -3.366,3.08 -0.358,0 -0.573,0 -0.644,-0.07 -2.006,-0.287 -3.008,-1.433 -3.008,-3.438 0,-0.358 0,-0.644 0.07,-0.788 z"
         id="path74009"
         style="font-size:82.3036px;font-family:'Canted Comic';-inkscape-font-specification:'Canted Comic, Normal';white-space:pre;fill:#e6e6e6;stroke:#000000;stroke-width:0;stroke-linejoin:round" /><path
         d="m 13823.391,-15159.189 c 8.021,4.154 13.751,6.947 17.117,8.451 0.931,0.358 1.575,1.075 1.934,2.006 0.143,0.429 0.214,0.859 0.214,1.289 0,0.573 -0.07,1.074 -0.286,1.432 -0.358,0.931 -1.003,1.504 -1.934,1.862 -0.358,0.215 -0.859,0.287 -1.361,0.287 -0.573,0 -1.074,-0.07 -1.432,-0.287 -3.223,-1.504 -9.024,-4.368 -17.547,-8.666 -6.088,-3.079 -11.101,-5.3 -14.897,-6.804 0.07,5.372 0.501,9.812 1.217,13.465 0.07,0.07 0.07,0.358 0.07,0.716 0,1.934 -0.931,3.08 -2.865,3.438 -0.143,0.07 -0.43,0.07 -0.788,0.07 -1.934,0 -3.079,-1.003 -3.438,-2.937 -1.002,-5.013 -1.504,-12.318 -1.504,-21.916 0,-5.514 0,-8.594 -0.07,-9.31 l -0.143,-2.364 c -0.215,-2.148 -0.287,-4.583 -0.287,-7.305 0.07,-1.934 0.43,-3.295 1.075,-4.082 1.36,-1.791 4.655,-2.937 9.955,-3.295 l 3.867,-0.143 c 10.385,0 17.762,2.148 22.131,6.517 1.791,1.791 2.865,3.796 3.223,6.088 0.07,0.215 0.07,0.716 0.07,1.432 0,2.077 -0.501,4.154 -1.575,6.231 -1.934,3.94 -5.587,6.948 -10.958,9.168 -2.435,0.931 -4.799,1.647 -7.019,2.077 z m -18.837,-26.213 c 0,2.22 0.07,4.441 0.287,6.661 l 0.286,5.944 v 4.584 c 0.502,0.07 1.648,0.07 3.438,0.07 10.815,0 18.836,-3.295 21.128,-8.165 0.501,-1.218 0.788,-2.149 0.788,-2.793 0,-1.003 -0.358,-1.862 -1.074,-2.579 -3.08,-2.936 -8.953,-4.44 -17.547,-4.44 -2.937,0 -5.3,0.215 -7.091,0.644 z"
         id="path74011"
         style="font-size:82.3036px;font-family:'Canted Comic';-inkscape-font-specification:'Canted Comic, Normal';white-space:pre;fill:#e6e6e6;stroke:#000000;stroke-width:0;stroke-linejoin:round" /><path
         d="m 13882.979,-15152.098 h 0.429 c 2.221,0 3.438,1.002 3.653,3.079 v 0.502 c 0,2.077 -1.003,3.294 -3.08,3.581 l -3.222,0.429 -12.104,1.934 -9.168,1.289 c -1.361,0.215 -2.506,0.358 -3.366,0.43 -0.215,0.07 -0.716,0.07 -1.361,0.07 -0.286,0 -0.788,-0.07 -1.432,-0.144 -2.65,-0.644 -4.512,-1.862 -5.73,-3.724 -0.358,-0.501 -0.501,-0.931 -0.501,-1.217 v -36.957 c 0,-0.931 0,-1.432 0.07,-1.647 0.645,-5.085 3.581,-6.661 10.099,-7.305 9.239,-1.218 17.26,-1.791 24.136,-1.791 2.005,0 3.581,1.576 3.581,3.581 0,2.006 -1.576,3.581 -3.581,3.581 -5.801,0 -13.608,0.573 -23.277,1.719 -1.361,0.143 -2.292,0.287 -2.936,0.43 -0.573,0.07 -0.86,0.286 -0.86,0.716 v 3.724 c 0,4.942 0,8.595 -0.07,10.887 l 25.783,-4.226 c 0.07,-0.07 0.359,-0.07 0.717,-0.07 1.933,0 3.079,1.002 3.437,2.936 v 0.716 c 0,2.006 -1.002,3.151 -3.008,3.438 -8.236,1.361 -17.26,2.865 -27.001,4.44 v 13.537 l 0.502,0.143 h 0.859 l 3.008,-0.358 c 2.22,-0.287 5.229,-0.716 9.024,-1.289 z"
         id="path74013"
         style="font-size:82.3036px;font-family:'Canted Comic';-inkscape-font-specification:'Canted Comic, Normal';white-space:pre;fill:#e6e6e6;stroke:#000000;stroke-width:0;stroke-linejoin:round" /><path
         d="m 13917.428,-15146.011 c 0,2.221 -1.002,3.366 -3.079,3.581 -0.07,0.07 -0.287,0.07 -0.502,0.07 -2.077,0 -3.294,-1.003 -3.581,-3.08 -0.788,-5.801 -1.289,-12.032 -1.504,-18.693 -0.143,-2.65 -0.215,-5.3 -0.215,-7.95 0,-2.936 0.144,-6.66 0.358,-11.172 -6.732,0.644 -12.247,1.289 -16.472,2.005 -0.07,0.07 -0.358,0.07 -0.717,0.07 -1.933,0 -3.079,-1.003 -3.437,-2.937 -0.07,-0.07 -0.07,-0.358 -0.07,-0.716 0,-1.934 1.003,-3.08 2.937,-3.438 4.44,-0.788 11.531,-1.647 21.199,-2.435 8.81,-0.788 15.614,-1.647 20.341,-2.65 0.143,-0.07 0.429,-0.07 0.787,-0.07 1.863,0 3.009,0.931 3.51,2.793 0.07,0.143 0.07,0.429 0.07,0.859 0,1.791 -0.931,2.937 -2.793,3.438 -4.369,1.003 -10.457,1.862 -18.12,2.507 -0.286,3.796 -0.43,7.735 -0.43,11.817 l 0.144,6.947 c 0.214,6.446 0.787,12.677 1.575,18.622 z"
         id="path74015"
         style="font-size:82.3036px;font-family:'Canted Comic';-inkscape-font-specification:'Canted Comic, Normal';white-space:pre;fill:#e6e6e6;stroke:#000000;stroke-width:0;stroke-linejoin:round" /><path
         d="m 13977.088,-15152.098 h 0.43 c 2.22,0 3.438,1.002 3.652,3.079 v 0.502 c 0,2.077 -1.002,3.294 -3.079,3.581 l -3.223,0.429 -12.104,1.934 -9.167,1.289 c -1.361,0.215 -2.507,0.358 -3.367,0.43 -0.214,0.07 -0.716,0.07 -1.36,0.07 -0.287,0 -0.788,-0.07 -1.433,-0.144 -2.65,-0.644 -4.512,-1.862 -5.729,-3.724 -0.359,-0.501 -0.502,-0.931 -0.502,-1.217 v -36.957 c 0,-0.931 0,-1.432 0.07,-1.647 0.644,-5.085 3.581,-6.661 10.098,-7.305 9.239,-1.218 17.261,-1.791 24.136,-1.791 2.005,0 3.581,1.576 3.581,3.581 0,2.006 -1.576,3.581 -3.581,3.581 -5.801,0 -13.608,0.573 -23.276,1.719 -1.361,0.143 -2.292,0.287 -2.937,0.43 -0.573,0.07 -0.859,0.286 -0.859,0.716 v 3.724 c 0,4.942 0,8.595 -0.07,10.887 l 25.784,-4.226 c 0.07,-0.07 0.358,-0.07 0.716,-0.07 1.934,0 3.08,1.002 3.438,2.936 v 0.716 c 0,2.006 -1.003,3.151 -3.008,3.438 -8.237,1.361 -17.261,2.865 -27.001,4.44 v 13.537 l 0.501,0.143 h 0.859 l 3.009,-0.358 c 2.22,-0.287 5.228,-0.716 9.024,-1.289 z"
         id="path74017"
         style="font-size:82.3036px;font-family:'Canted Comic';-inkscape-font-specification:'Canted Comic, Normal';white-space:pre;fill:#e6e6e6;stroke:#000000;stroke-width:0;stroke-linejoin:round" /><path
         d="m 14005.092,-15145.366 c 0.788,-9.884 5.085,-22.561 12.891,-38.102 1.934,-3.796 3.653,-6.733 5.014,-8.666 1.361,-1.862 2.721,-2.793 4.154,-2.793 0.358,0 0.644,0 0.716,0.07 1.074,0.215 1.791,0.573 2.149,1.218 l 0.286,0.286 c 0.143,0.215 0.287,0.502 0.43,0.86 0.215,0.358 0.501,0.931 0.788,1.575 0.286,0.502 0.787,1.862 1.575,4.083 l 2.364,6.445 c 0.644,1.648 1.719,4.942 3.366,9.812 l 4.011,12.606 3.008,9.883 0.143,1.075 c 0,1.79 -0.86,2.936 -2.507,3.437 l -1.074,0.144 c -1.791,0 -2.937,-0.86 -3.438,-2.507 l -4.011,-13.107 c -2.506,0.573 -5.514,1.361 -9.024,2.292 -7.233,2.077 -11.316,3.152 -12.247,3.366 -0.788,2.937 -1.217,5.802 -1.432,8.595 -0.215,2.22 -1.361,3.294 -3.581,3.294 -0.144,0 -0.215,0 -0.287,-0.07 -2.22,-0.07 -3.294,-1.289 -3.294,-3.581 z m 21.414,-38.747 c -0.931,1.576 -1.576,2.865 -2.077,3.939 -3.796,7.664 -6.589,13.895 -8.236,18.765 0.788,-0.215 3.438,-0.931 7.806,-2.22 4.369,-1.218 7.306,-1.934 8.81,-2.292 -1.361,-4.226 -2.722,-8.237 -4.083,-11.889 z"
         id="path74019"
         style="font-size:82.3036px;font-family:'Canted Comic';-inkscape-font-specification:'Canted Comic, Normal';white-space:pre;fill:#e6e6e6;stroke:#000000;stroke-width:0;stroke-linejoin:round" /><path
         d="m 14058.449,-15146.154 c 0,2.22 -1.003,3.366 -3.08,3.581 -0.07,0.07 -0.286,0.07 -0.501,0.07 -2.077,0 -3.295,-1.003 -3.581,-3.08 -0.358,-3.151 -0.502,-6.088 -0.502,-8.809 -0.07,-0.215 -0.07,-0.43 -0.07,-0.788 0,-0.358 0,-0.716 0.07,-1.146 v -6.804 c 0,-7.878 0,-12.104 -0.07,-12.605 0,-0.573 -0.07,-1.862 -0.286,-3.939 l -0.07,-2.794 -0.143,-4.01 v -1.576 l 0.143,-1.217 c 0.287,-1.504 2.149,-3.08 4.154,-3.08 1.791,0 3.653,1.003 5.443,2.936 0.502,0.502 1.075,1.218 1.863,2.149 l 0.716,1.003 c 5.801,7.377 12.032,16.114 18.836,26.069 l 2.507,3.94 v -2.865 c 0.429,-10.385 0.644,-18.765 0.644,-25.067 0,-3.51 0,-5.658 -0.07,-6.446 v -0.215 c 0,-1.791 1.432,-3.438 3.437,-3.509 h 0.215 c 1.791,0 3.438,1.432 3.51,3.437 l 0.143,7.162 c 0,7.377 -0.215,15.685 -0.716,24.924 v 3.653 c 0,1.361 0,2.22 -0.07,2.578 -0.358,5.658 -2.22,8.451 -5.586,8.451 h -0.144 c -0.716,0 -1.36,-0.214 -1.933,-0.644 l -0.717,-0.573 -7.233,-10.815 c -5.658,-8.523 -11.531,-16.759 -17.762,-24.78 l 0.286,4.941 c 0.07,0.43 0.07,1.719 0.07,3.868 0,2.148 0,5.157 -0.07,9.024 v 6.876 c 0,1.002 0,1.575 0.07,1.79 0,3.08 0.143,5.658 0.501,7.878 z"
         id="path74021"
         style="font-size:82.3036px;font-family:'Canted Comic';-inkscape-font-specification:'Canted Comic, Normal';white-space:pre;fill:#e6e6e6;stroke:#000000;stroke-width:0;stroke-linejoin:round" /><path
         d="m 14098.771,-15165.706 c 0.07,-6.16 0.358,-12.319 0.716,-18.478 -1.36,-0.43 -2.148,-1.361 -2.435,-2.722 -0.07,-0.07 -0.07,-0.358 -0.07,-0.788 0,-1.934 0.931,-3.079 2.865,-3.438 6.589,-1.217 11.889,-1.862 15.828,-1.862 h 1.647 c 8.666,0.358 15.255,2.937 19.767,7.735 2.578,2.722 4.154,5.802 4.799,9.311 0.143,1.003 0.215,2.077 0.215,3.151 0,2.579 -0.573,5.515 -1.648,8.81 -4.583,12.318 -14.324,17.475 -26.141,19.982 -2.435,0.501 -4.584,0.787 -6.446,0.787 -3.366,0 -5.658,-0.859 -7.019,-2.649 -1.361,-1.791 -2.077,-7.521 -2.077,-17.118 z m 7.95,-18.98 c -0.43,4.656 -0.716,11.03 -0.788,19.051 v 2.579 c 0,3.223 0.07,6.087 0.215,8.451 0.07,1.719 0.215,2.936 0.358,3.724 0.07,0.07 0.07,0.143 0.07,0.287 l 0.07,0.358 c 0.144,0.07 0.502,0.07 1.075,0.07 1.289,-0.07 3.151,-0.358 5.658,-0.931 11.459,-3.079 16.974,-6.446 20.34,-15.327 0.859,-2.22 1.289,-4.297 1.289,-6.231 0,-9.382 -9.024,-12.82 -17.977,-13.178 -0.214,-0.07 -0.859,-0.07 -1.79,-0.07 -2.292,0 -5.157,0.286 -8.523,0.788 z"
         id="path74023"
         style="font-size:82.3036px;font-family:'Canted Comic';-inkscape-font-specification:'Canted Comic, Normal';white-space:pre;fill:#e6e6e6;stroke:#000000;stroke-width:0;stroke-linejoin:round" /><path
         d="m 14177.554,-15158.401 c 0.215,4.44 0.716,8.38 1.432,11.817 0.07,0.07 0.07,0.358 0.07,0.717 0,2.005 -0.931,3.151 -2.865,3.509 -0.07,0.07 -0.358,0.07 -0.716,0.07 -2.006,0 -3.152,-0.932 -3.51,-2.865 -1.217,-6.088 -1.79,-13.68 -1.79,-22.776 v -10.026 l -0.143,-8.666 c 0,-2.149 1.074,-3.295 3.222,-3.51 5.229,-1.79 10.672,-2.65 16.33,-2.65 h 2.077 c 7.878,0.358 13.25,2.65 16.043,6.876 1.576,2.435 2.363,5.085 2.363,8.021 0,10.958 -8.952,17.69 -19.838,18.908 -2.937,0.286 -5.014,0.43 -6.303,0.501 -0.43,0.07 -1.576,0.07 -3.509,0.07 z m -0.287,-12.247 c 0,2.936 0,4.584 0.07,5.085 9.239,0 16.616,-0.143 21.558,-4.154 2.65,-2.077 4.01,-4.799 4.01,-8.165 0,-3.294 -1.504,-5.443 -4.583,-6.517 -2.794,-0.788 -5.73,-1.218 -8.738,-1.218 h -1.432 c -3.725,0.143 -7.377,0.716 -10.887,1.719 0.07,0.358 0.07,1.003 0.07,1.934 0,0.859 0,2.005 -0.07,3.366 z"
         id="path74025"
         style="font-size:82.3036px;font-family:'Canted Comic';-inkscape-font-specification:'Canted Comic, Normal';white-space:pre;fill:#e6e6e6;stroke:#000000;stroke-width:0;stroke-linejoin:round" /><path
         d="m 14245.163,-15191.705 c 0.359,0.144 0.573,0.215 0.645,0.287 0.788,0.286 1.361,0.788 1.719,1.504 0.358,0.358 0.716,0.716 1.003,1.218 1.79,3.437 2.864,7.376 3.294,11.889 l 0.143,3.724 c 0,8.164 -2.077,15.112 -6.231,20.77 -2.936,4.225 -7.09,7.162 -12.605,8.809 -2.005,0.573 -3.796,0.859 -5.371,0.931 h -0.358 c -8.022,0 -13.537,-5.658 -14.754,-12.82 -0.358,-1.361 -0.502,-3.08 -0.502,-5.085 0,-1.576 0.215,-3.438 0.573,-5.586 2.65,-12.677 11.316,-23.922 20.555,-26.858 1.504,-0.43 3.08,-0.645 4.656,-0.645 2.077,0 4.082,0.43 6.016,1.289 z m -2.864,6.518 c -0.645,-0.215 -1.003,-0.43 -1.075,-0.501 -1.002,-0.502 -2.077,-0.717 -3.151,-0.717 -5.228,0 -11.173,4.799 -15.398,13.393 -2.077,4.369 -3.223,8.523 -3.295,12.534 -0.07,0.07 -0.07,0.286 -0.07,0.501 0,6.804 2.722,10.242 8.094,10.242 2.864,0 5.801,-1.074 8.737,-3.151 1.719,-1.075 3.008,-2.292 3.868,-3.581 2.721,-3.796 4.297,-8.452 4.727,-13.966 0.07,-0.43 0.07,-1.361 0.07,-2.722 0,-4.297 -0.859,-8.308 -2.506,-12.032 z"
         id="path74027"
         style="font-size:82.3036px;font-family:'Canted Comic';-inkscape-font-specification:'Canted Comic, Normal';white-space:pre;fill:#e6e6e6;stroke:#000000;stroke-width:0;stroke-linejoin:round" /><path
         d="m 14258.127,-15163.128 c 0,-9.812 0.859,-19.051 2.506,-27.717 0.359,-1.934 1.505,-2.865 3.438,-2.865 0.358,0 0.645,0 0.788,0.07 1.934,0.358 2.865,1.504 2.865,3.437 0,0.43 0,0.717 -0.07,0.788 -1.504,8.38 -2.292,18.192 -2.292,29.58 l 0.144,9.74 c 6.087,0 12.82,-0.501 20.197,-1.576 l 10.958,-1.504 c 0.07,-0.07 0.286,-0.07 0.573,-0.07 2.077,0 3.222,1.002 3.509,3.008 v 0.501 c 0,2.22 -1.003,3.366 -3.08,3.581 -9.74,1.504 -17.404,2.435 -22.918,2.793 -4.369,0.215 -7.735,0.358 -9.956,0.358 h -2.578 c -1.647,-0.07 -2.721,-0.859 -3.294,-2.506 -0.287,-0.573 -0.43,-1.146 -0.502,-1.719 -0.215,-7.52 -0.286,-12.391 -0.286,-14.468 z"
         id="path74029"
         style="font-size:82.3036px;font-family:'Canted Comic';-inkscape-font-specification:'Canted Comic, Normal';white-space:pre;fill:#e6e6e6;stroke:#000000;stroke-width:0;stroke-linejoin:round" /><path
         d="m 14307.545,-15163.128 c 0,-9.812 0.859,-19.051 2.507,-27.717 0.358,-1.934 1.504,-2.865 3.437,-2.865 0.359,0 0.645,0 0.788,0.07 1.934,0.358 2.865,1.504 2.865,3.437 0,0.43 0,0.717 -0.07,0.788 -1.504,8.38 -2.291,18.192 -2.291,29.58 l 0.143,9.74 c 6.088,0 12.82,-0.501 20.197,-1.576 l 10.958,-1.504 c 0.07,-0.07 0.286,-0.07 0.573,-0.07 2.077,0 3.223,1.002 3.509,3.008 v 0.501 c 0,2.22 -1.003,3.366 -3.08,3.581 -9.74,1.504 -17.403,2.435 -22.918,2.793 -4.369,0.215 -7.735,0.358 -9.955,0.358 h -2.579 c -1.647,-0.07 -2.721,-0.859 -3.294,-2.506 -0.287,-0.573 -0.43,-1.146 -0.502,-1.719 -0.214,-7.52 -0.286,-12.391 -0.286,-14.468 z"
         id="path74031"
         style="font-size:82.3036px;font-family:'Canted Comic';-inkscape-font-specification:'Canted Comic, Normal';white-space:pre;fill:#e6e6e6;stroke:#000000;stroke-width:0;stroke-linejoin:round" /><path
         d="m 14395.208,-15191.49 c -0.143,2.794 -0.214,6.16 -0.214,10.099 0.07,0.931 0.07,2.793 0.07,5.658 0,2.363 0,3.867 -0.07,4.369 -0.144,3.008 -0.215,6.231 -0.215,9.74 v 2.65 c 0.07,4.655 0.286,8.594 0.788,11.961 v 0.429 c 0,2.149 -1.003,3.366 -3.08,3.653 h -0.573 c -1.289,0 -2.292,-0.573 -3.008,-1.719 -4.656,1.003 -7.664,1.576 -9.096,1.791 -1.862,0.286 -3.653,0.429 -5.3,0.429 -3.509,0 -6.231,-0.501 -8.165,-1.575 -5.013,-2.579 -7.949,-10.17 -8.809,-22.704 -0.07,-2.22 -0.143,-3.868 -0.143,-4.942 v -2.22 c 0.07,-4.297 0.215,-8.595 0.43,-12.82 0.143,-2.507 0.214,-4.011 0.214,-4.441 0.07,-2.005 1.719,-3.437 3.51,-3.437 h 0.215 c 2.005,0.07 3.437,1.719 3.437,3.509 v 0.215 c -0.214,3.509 -0.429,6.875 -0.501,10.098 v 0.215 l -0.143,6.374 v 2.149 c 0,0.931 0.07,2.578 0.143,4.87 0.287,4.799 0.931,8.81 1.862,11.889 1.504,4.87 3.152,5.587 8.022,5.587 1.647,0 3.008,-0.07 4.225,-0.287 2.364,-0.358 5.443,-0.931 9.096,-1.79 -0.143,-2.221 -0.215,-5.229 -0.215,-8.953 l 0.144,-10.815 c 0.07,-0.429 0.07,-1.146 0.07,-2.077 0,-0.931 0,-2.148 -0.07,-3.652 v -6.374 c 0,-3.868 0.07,-6.59 0.214,-8.165 0.07,-1.934 1.791,-3.438 3.581,-3.438 h 0.215 c 1.934,0.07 3.366,1.719 3.366,3.509 z"
         id="path74033"
         style="font-size:82.3036px;font-family:'Canted Comic';-inkscape-font-specification:'Canted Comic, Normal';white-space:pre;fill:#e6e6e6;stroke:#000000;stroke-width:0;stroke-linejoin:round" /><path
         d="m 14425.862,-15146.011 c 0,2.221 -1.003,3.366 -3.08,3.581 -0.07,0.07 -0.286,0.07 -0.501,0.07 -2.077,0 -3.295,-1.003 -3.581,-3.08 -0.788,-5.801 -1.289,-12.032 -1.504,-18.693 -0.143,-2.65 -0.215,-5.3 -0.215,-7.95 0,-2.936 0.143,-6.66 0.358,-11.172 -6.732,0.644 -12.247,1.289 -16.473,2.005 -0.07,0.07 -0.358,0.07 -0.716,0.07 -1.934,0 -3.079,-1.003 -3.438,-2.937 -0.07,-0.07 -0.07,-0.358 -0.07,-0.716 0,-1.934 1.002,-3.08 2.936,-3.438 4.441,-0.788 11.531,-1.647 21.2,-2.435 8.809,-0.788 15.613,-1.647 20.34,-2.65 0.143,-0.07 0.43,-0.07 0.788,-0.07 1.862,0 3.008,0.931 3.509,2.793 0.07,0.143 0.07,0.429 0.07,0.859 0,1.791 -0.931,2.937 -2.793,3.438 -4.369,1.003 -10.457,1.862 -18.12,2.507 -0.287,3.796 -0.43,7.735 -0.43,11.817 l 0.143,6.947 c 0.215,6.446 0.788,12.677 1.576,18.622 z"
         id="path74035"
         style="font-size:82.3036px;font-family:'Canted Comic';-inkscape-font-specification:'Canted Comic, Normal';white-space:pre;fill:#e6e6e6;stroke:#000000;stroke-width:0;stroke-linejoin:round" /><path
         d="m 14485.522,-15152.098 h 0.429 c 2.221,0 3.438,1.002 3.653,3.079 v 0.502 c 0,2.077 -1.003,3.294 -3.08,3.581 l -3.223,0.429 -12.103,1.934 -9.168,1.289 c -1.361,0.215 -2.506,0.358 -3.366,0.43 -0.215,0.07 -0.716,0.07 -1.361,0.07 -0.286,0 -0.788,-0.07 -1.432,-0.144 -2.65,-0.644 -4.512,-1.862 -5.73,-3.724 -0.358,-0.501 -0.501,-0.931 -0.501,-1.217 v -36.957 c 0,-0.931 0,-1.432 0.07,-1.647 0.644,-5.085 3.581,-6.661 10.098,-7.305 9.239,-1.218 17.261,-1.791 24.136,-1.791 2.005,0 3.581,1.576 3.581,3.581 0,2.006 -1.576,3.581 -3.581,3.581 -5.801,0 -13.608,0.573 -23.277,1.719 -1.36,0.143 -2.291,0.287 -2.936,0.43 -0.573,0.07 -0.859,0.286 -0.859,0.716 v 3.724 c 0,4.942 0,8.595 -0.07,10.887 l 25.783,-4.226 c 0.07,-0.07 0.358,-0.07 0.716,-0.07 1.934,0 3.08,1.002 3.438,2.936 v 0.716 c 0,2.006 -1.002,3.151 -3.008,3.438 -8.236,1.361 -17.26,2.865 -27.001,4.44 v 13.537 l 0.502,0.143 h 0.859 l 3.008,-0.358 c 2.22,-0.287 5.228,-0.716 9.024,-1.289 z"
         id="path74037"
         style="font-size:82.3036px;font-family:'Canted Comic';-inkscape-font-specification:'Canted Comic, Normal';white-space:pre;fill:#e6e6e6;stroke:#000000;stroke-width:0;stroke-linejoin:round" /><path
         id="rect143451-4-2-1"
         style="fill:#313131;stroke-width:7.46046;stroke-linecap:round;stroke-linejoin:round"
         d="m 14380.984,-14904.704 c 1.91,0 3.448,0.385 3.448,0.864 0,0.478 -1.538,0.863 -3.448,0.863 -1.911,0 -3.448,-0.385 -3.448,-0.863 0,-0.479 1.537,-0.864 3.448,-0.864 z" /></g></g></svg>
