<?xml version="1.0" encoding="UTF-8" standalone="no"?>
<!-- Created with Inkscape (http://www.inkscape.org/) -->

<svg
   version="1.1"
   id="svg176"
   width="831.11206"
   height="1036.3984"
   viewBox="0 0 831.11208 1036.3984"
   sodipodi:docname="website for ai.svg"
   xml:space="preserve"
   inkscape:version="1.2.2 (b0a8486541, 2022-12-01)"
   xmlns:inkscape="http://www.inkscape.org/namespaces/inkscape"
   xmlns:sodipodi="http://sodipodi.sourceforge.net/DTD/sodipodi-0.dtd"
   xmlns="http://www.w3.org/2000/svg"
   xmlns:svg="http://www.w3.org/2000/svg"><defs
     id="defs180"><inkscape:path-effect
       effect="roughen"
       id="path-effect11808"
       is_visible="true"
       lpeversion="1.2"
       method="size"
       max_segment_size="12.221"
       segments="2"
       displace_x="0;1"
       displace_y="5;942714210"
       global_randomize="1;1"
       handles="along"
       shift_nodes="true"
       fixed_displacement="false"
       spray_tool_friendly="false" /><linearGradient
       id="linearGradient1486"
       inkscape:swatch="solid"><stop
         style="stop-color:#000000;stop-opacity:1;"
         offset="0"
         id="stop1484" /></linearGradient></defs><sodipodi:namedview
     id="namedview178"
     pagecolor="#ffffff"
     bordercolor="#000000"
     borderopacity="0.25"
     inkscape:showpageshadow="2"
     inkscape:pageopacity="0.0"
     inkscape:pagecheckerboard="0"
     inkscape:deskcolor="#d1d1d1"
     showgrid="false"
     showguides="false"
     inkscape:zoom="0.028284271"
     inkscape:cx="11172.287"
     inkscape:cy="16192.745"
     inkscape:window-width="1920"
     inkscape:window-height="1011"
     inkscape:window-x="0"
     inkscape:window-y="0"
     inkscape:window-maximized="1"
     inkscape:current-layer="g182"><inkscape:grid
       type="xygrid"
       id="grid2722" /></sodipodi:namedview><g
     inkscape:groupmode="layer"
     inkscape:label="Image"
     id="g182"
     transform="translate(3585.3915,-23940.707)"><g
       id="g11820"
       transform="translate(1045.1289,-3834.5912)"><path
         style="fill:#000000;stroke-width:0.58993"
         d="m -4205.1727,28295.743 c -2.2896,-0.952 -5.4707,-1.791 -7.0729,-1.861 -2.7152,-0.28 -8.3691,-3.898 -8.3691,-3.898 0,0 -1.3595,-1.241 -4.2171,-3.329 -6.0352,-4.411 -6.5589,-4.862 -8.9623,-7.692 -2.3454,-2.766 -9.349,-8.706 -11.0706,-9.388 -1.5733,-0.626 -9.6092,-18.283 -9.6092,-21.115 0,-1.677 -2.3243,-8.643 -3.1253,-9.364 -1.4115,-1.273 -3.3064,-5.946 -3.3064,-8.154 0,-1.425 -0.8741,-3.44 -2.0604,-4.749 -1.9469,-2.15 -2.0065,-2.494 -1.0783,-6.181 0.539,-2.148 1.9833,-7.905 1.9833,-7.905 l 4.1692,1.133 c 0,0 2.3857,1.013 2.9867,3.44 0.4255,1.726 1.165,2.959 1.6405,2.74 2.3706,-1.082 4.8856,3.741 5.132,9.833 0.097,2.32 0.6047,4.947 1.1343,5.841 2.0489,3.449 16.112,21.076 16.8131,21.076 0.4082,0 1.9121,1.064 3.3428,2.365 1.4328,1.302 4.2135,3.263 6.1795,4.36 1.9643,1.096 5.2186,3.2 7.231,4.678 2.0104,1.476 5.6288,3.453 8.0378,4.395 2.4108,0.94 5.9388,2.57 7.8395,3.62 2.9365,1.623 4.3886,1.812 9.6475,1.249 3.4048,-0.364 6.9921,-1.284 7.9705,-2.043 0.9801,-0.761 2.2568,-1.382 2.8383,-1.382 2.2493,0 12.2783,-5.704 12.5246,-7.123 0.1348,-0.824 0.6856,-1.512 1.2076,-1.53 1.5558,-0.04 4.0997,-3.043 7.3019,-8.592 6.3973,-11.078 10.7473,-27.53 11.3866,-43.066 0.3369,-8.166 1.45,-10.574 4.8874,-10.574 2.9425,0 3.0637,4.295 3.8071,13.313 0.2291,2.752 0.1152,5.223 -0.2542,5.494 -0.3678,0.269 -0.4931,4.417 -0.2811,9.216 0.3004,6.766 0.076,9.688 -0.984,13.005 -0.7568,2.353 -1.1632,4.528 -0.9071,4.833 0.4544,0.54 -0.2388,2.515 -2.956,8.429 -0.7239,1.58 -2.0507,4.743 -2.9481,7.029 -1.1091,2.826 -2.4014,4.501 -4.0419,5.239 -1.327,0.597 -2.6055,1.814 -2.8444,2.705 -0.2368,0.89 -1.7734,2.826 -3.4141,4.3 -1.6427,1.475 -3.3449,3.172 -3.7878,3.774 -0.441,0.602 -2.2453,2.342 -4.0094,3.871 -1.7619,1.527 -4.3962,4.177 -5.854,5.89 -1.4596,1.712 -3.2525,2.763 -3.8302,3.113 -0.57,0.346 -0.8568,0.656 -1.1804,0.855 -1.1784,0.415 -2.6843,1.446 -3.3661,1.771 -1.4711,0.624 -4.8564,2.268 -9.9327,1.664 -2.6343,-0.313 -5.1511,-0.528 -5.594,-0.477 -7.5545,0.855 -9.2585,0.75 -13.0041,-0.808 z"
         id="path52393-0-1-0-6-2-8"
         sodipodi:nodetypes="sccssssssssccssssssssssssssssssssssssssssssssccsss" /><path
         style="fill:none;stroke:#000000;stroke-width:13.2735;stroke-linecap:round;stroke-linejoin:bevel;stroke-dasharray:none"
         d="m -4221.7992,28069.181 c 3.2929,1.696 2.5605,-2.383 4.1015,-3.129 0.4041,-0.196 0.9433,0.213 1.3367,0 3.032,-1.639 4.7034,-5.418 8.3593,-6.328 0.7041,-0.177 1.5388,0.347 2.18,0 0.8021,-0.436 1.9192,-1.794 2.7604,-2.039 2.6973,-0.786 5.7967,-0.662 8.8027,-0.662 4.5708,0 12.8758,0.08 16.6881,2.994 0.8499,0.651 1.8433,2.382 2.867,2.928 1.7083,0.915 -1.6367,-2.913 1.9713,0.741 0.3673,0.371 3.1364,4.892 3.4884,5.609"
         id="path52692-6-61-9-6-5"
         sodipodi:nodetypes="cscsssssssc" /><path
         style="fill:none;stroke:#000000;stroke-width:13.2735;stroke-linecap:round;stroke-linejoin:bevel;stroke-dasharray:none"
         d="m -4098.998,28079.003 c -0.066,-1.815 5.6445,-0.419 7.1312,-0.792 1.5542,-0.389 2.2256,-1.769 3.7406,-2.305 1.202,-0.426 2.5322,-0.372 3.7406,-0.783 1.2498,-0.425 2.7408,-2.055 3.8407,-2.341 0.702,-0.182 1.4605,0.12 2.1757,0 1.7887,-0.314 5.4163,-1.612 6.966,-2.374 0.6217,-0.307 0.8586,-1.158 1.465,-1.5 1.378,-0.775 4.2144,-0.07 5.6728,-0.781 1.1716,-0.569 2.8495,-1.438 4.3079,-1.438"
         id="path52694-2-1-7-1-0"
         sodipodi:nodetypes="cssssssssc" /><path
         style="fill:none;stroke:#000000;stroke-width:13.2735;stroke-linecap:round;stroke-linejoin:bevel;stroke-dasharray:none"
         d="m -4289.8582,28077.43 c -1.339,-8.694 0.6194,-1.7 -2.241,-6.067 -0.2607,-0.398 0.2174,-1.019 0,-1.431 -0.1738,-0.313 -0.4911,-0.503 -0.739,-0.754 -0.2564,-1.052 -0.3803,-2.15 -0.7737,-3.157 -1.8823,-4.815 -8.1137,-10.777 -12.0434,-13.978"
         id="path52696-9-5-5-8-9"
         sodipodi:nodetypes="csscsc" /><path
         style="fill:none;stroke:#000000;stroke-width:10.8673;stroke-linecap:round;stroke-linejoin:bevel;stroke-dasharray:none;stroke-opacity:1"
         d="m -4285.0548,28077.698 c 0,-14.617 14.3104,-29.234 28.6186,-29.234 14.3082,0 28.6186,14.617 28.6186,29.234 0,14.617 -14.3104,29.234 -28.6186,29.234 -14.3082,0 -28.6186,-14.617 -28.6186,-29.234 z"
         id="path297192-0-7-3-7-6"
         sodipodi:nodetypes="csssc" /><path
         style="fill:none;stroke:#000000;stroke-width:10.8673;stroke-linecap:round;stroke-linejoin:bevel;stroke-dasharray:none;stroke-opacity:1"
         d="m -4164.6251,28074.191 c 0,-14.617 14.3104,-29.234 28.6208,-29.234 14.3083,0 28.6187,14.617 28.6187,29.234 0,14.617 -14.3104,29.233 -28.6187,29.233 -14.3104,0 -28.6208,-14.616 -28.6208,-29.233 z"
         id="path297192-7-2-6-8-9-3"
         sodipodi:nodetypes="csssc" /><path
         style="opacity:1;fill:#000000;fill-opacity:1;stroke-width:30;stroke-linecap:square;stroke-linejoin:round"
         d="m -4313.493,28115.468 c -140.0227,49.643 -158.4636,45.352 -183.2988,-6.929 -30.6829,-64.592 47.2992,-111.257 95.5327,-134.082 48.4193,-22.913 245.8074,-111.626 311.3102,-132.525 76.1146,-24.285 164.9069,-75.319 200.0004,5.484 34.2659,78.897 -106.8851,157.297 -149.8112,177.64 -42.926,20.343 -49.5986,-61.27 -80.9097,-85.219 -25.1725,-19.255 -79.6188,-23.313 -104.8202,-13.365 -25.2015,9.949 -53.5051,54.857 -70.3882,85.537 -5.392,22.868 -11.3148,71.939 -17.6152,103.459 z"
         id="path11032"
         sodipodi:nodetypes="cssssssscc" /><path
         style="fill:#000000;stroke-width:1.33333"
         d="m -4247.2607,28811.696 -3.3008,-12.308 -1.7668,-13.721 1.7665,-19.813 20.1591,-0.466 -5.3409,-14.253 -7.4726,-8.429 c 0,0 -5.1799,-15.39 -10.849,-21.602 -5.3726,-5.888 -10.0822,-12.978 -16.5189,-24.868 -2.1835,-4.033 -4.9311,-8.376 -6.1058,-9.65 -1.1747,-1.274 -3.1392,-3.38 -4.3655,-4.68 -1.2263,-1.3 -3.0632,-4.757 -4.0819,-7.683 -1.0188,-2.926 -3.6154,-7.966 -5.7703,-11.199 -2.155,-3.234 -4.9512,-7.434 -6.2138,-9.334 -3.6364,-5.471 -7.2763,-12.498 -8.3505,-16.12 -0.5435,-1.834 -2.9525,-6.334 -5.3531,-10 -2.4007,-3.667 -5.664,-9.067 -7.2519,-12 -1.5878,-2.934 -3.3953,-6.234 -4.0167,-7.334 -2.7994,-4.956 -8.0654,-16.363 -8.0654,-17.471 0,-0.673 -1.1816,-3.768 -2.6256,-6.877 -1.4441,-3.108 -4.0946,-10.031 -5.8899,-15.384 -1.7954,-5.353 -4.3639,-11.287 -5.7078,-13.187 -4.8017,-6.789 -10.1157,-18.4 -12.4693,-27.247 -1.8334,-6.891 -9.3254,-21.219 -14.0015,-26.776 -1.8183,-2.161 -3.3059,-4.966 -3.3059,-6.234 0,-1.268 -1.5,-4.339 -3.3334,-6.824 -1.8333,-2.485 -3.3333,-5.866 -3.3333,-7.513 0,-1.648 -0.5533,-3.338 -1.2294,-3.756 -0.6762,-0.418 -2.5384,-4.803 -4.1381,-9.745 -1.5997,-4.942 -4.5925,-12.886 -6.6506,-17.652 -6.2627,-14.505 -14.4662,-42.932 -15.5832,-54 -0.3701,-3.667 -1.2359,-7.358 -1.9241,-8.203 -1.2864,-1.58 -7.2839,1.539 -21.5462,11.203 -3.5175,2.383 -7.5348,4.333 -8.9274,4.333 -1.3926,0 -4.1337,2.1 -6.0914,4.667 -1.9577,2.566 -4.1372,4.666 -4.8435,4.666 -3.7167,0 -24.7824,20.14 -32.0771,30.667 -4.1138,5.937 -12.2681,16.193 -17.9008,22.515 -1.6015,1.797 -3.2818,4.742 -3.734,6.543 -0.4522,1.802 -3.1919,5.486 -6.0882,8.187 -2.8963,2.7 -5.266,5.665 -5.266,6.588 0,0.923 -1.4199,3.588 -3.1552,5.923 -1.7354,2.334 -4.2543,7.244 -5.5975,10.911 -2.5736,7.025 -3.9105,9.476 -10.914,20.006 -2.3833,3.584 -4.3333,7.577 -4.3333,8.874 0,1.298 -1.1139,2.955 -2.4754,3.684 -2.6847,1.437 -6.8579,14.232 -6.8579,21.027 0,2.245 -0.9468,4.868 -2.104,5.828 -2.5325,2.102 -7.5618,11.897 -9.8826,19.247 -0.9261,2.934 -2.435,6.234 -3.3529,7.334 -1.8007,2.157 -2.9284,7.139 -4.2211,18.645 -0.463,4.122 -1.9978,8.904 -3.5173,10.959 -1.6521,2.235 -2.9335,6.511 -3.3095,11.046 -0.3375,4.069 -1.1384,7.723 -1.7798,8.12 -0.6414,0.396 -1.1662,3.079 -1.1662,5.961 0,2.882 -1.1997,8.396 -2.666,12.254 -1.4663,3.858 -2.6806,9.115 -2.6984,11.681 -0.018,2.567 -0.6731,7.067 -1.456,10 -1.4089,5.279 -3.243,13.988 -7.3004,34.667 -1.1512,5.867 -3.5449,13.173 -5.3194,16.237 -2.63,4.541 -3.2264,7.417 -3.2264,15.558 -0.052,20.131 -37.086,25.256 -22.644,-2.505 4.9583,-9.414 5.2519,-10.556 3.9536,-15.378 -1.1128,-4.133 -0.9303,-6.795 0.8838,-12.894 1.2575,-4.226 2.3284,-11.38 2.3798,-15.897 0.051,-4.518 0.5434,-8.668 1.0934,-9.223 0.55,-0.555 1,-2.218 1,-3.696 0,-3.52 6.5716,-22.298 8.7031,-24.869 1.5643,-1.886 3.256,-9.426 3.4407,-15.333 0.2459,-7.871 4.412,-30.05 6.5116,-34.667 1.334,-2.933 2.8158,-8.706 3.2929,-12.828 0.5382,-4.65 1.8622,-8.563 3.4878,-10.308 1.4413,-1.547 2.9955,-4.774 3.454,-7.172 0.4585,-2.397 2.5457,-7.791 4.6384,-11.987 2.0927,-4.196 3.8049,-8.349 3.8049,-9.228 0,-0.88 0.7934,-2.547 1.763,-3.705 0.9698,-1.158 2.5835,-4.805 3.5862,-8.105 1.0027,-3.3 2.6093,-7.184 3.5702,-8.63 0.961,-1.447 1.7472,-3.917 1.7472,-5.491 0,-3.871 14.1657,-30.821 22.3334,-42.489 2.3833,-3.405 4.3333,-6.927 4.3333,-7.827 0,-0.9 1.2,-2.665 2.6667,-3.92 1.4666,-1.256 2.6666,-3.759 2.6666,-5.561 0,-1.803 1.3643,-4.75 3.0317,-6.549 1.6674,-1.799 4.3625,-5.936 5.9891,-9.193 1.6265,-3.257 4.7623,-7.81 6.9683,-10.119 2.2782,-2.384 4.0109,-5.642 4.0109,-7.542 0,-2.034 0.7581,-3.346 1.9338,-3.346 1.0635,0 2.4135,-0.835 3,-1.856 3.6453,-6.348 13.5966,-16.935 29.1734,-31.037 17.3592,-15.716 19.7729,-17.773 20.8566,-17.773 0.57,0 1.0362,-0.906 1.0362,-2.013 0,-1.215 4.5218,-4.16 11.4143,-7.435 6.2778,-2.982 11.742,-6.277 12.1426,-7.321 0.4007,-1.044 2.0142,-1.904 3.5858,-1.911 1.5715,0 5.463,-2.084 8.6477,-4.616 3.1847,-2.532 7.0847,-4.989 8.6667,-5.46 1.5819,-0.471 7.9763,-3.264 14.2096,-6.207 30.8992,-14.584 28.8081,-13.774 40.4127,-15.663 4.0356,-0.656 10.0608,-2.434 13.3892,-3.951 3.3285,-1.516 7.2493,-2.757 8.7129,-2.757 1.4636,0 2.9892,-0.53 3.3901,-1.179 0.4009,-0.649 3.4224,-1.584 6.7143,-2.077 3.2919,-0.494 6.2838,-1.381 6.6487,-1.971 0.3649,-0.591 3.5289,-1.849 7.0311,-2.797 11.1205,-3.009 11.0287,-2.414 2.9775,-19.309 -2.7956,-5.867 -5.3613,-12.167 -5.7014,-14 -3.1493,-16.974 -5.229,-24.871 -7.5314,-28.596 -1.8661,-3.019 -2.6519,-6.417 -2.5205,-10.896 0.1051,-3.579 -0.5179,-11.008 -1.3844,-16.508 -3.7239,-23.639 -4.4086,-29.203 -4.7578,-38.667 -0.203,-5.5 -0.8025,-14.5 -1.3322,-20 -1.0068,-10.452 0.4071,-27.809 4.0186,-49.333 1.5675,-9.342 2.0843,-20.892 1.9688,-44 -0.1434,-28.692 0.42,-36.806 4.0735,-58.667 0.6741,-4.033 1.608,-10.333 2.0753,-14 0.4673,-3.666 1.6668,-7.85 2.6657,-9.296 0.9988,-1.447 1.816,-4.134 1.816,-5.972 0,-6.914 10.32,-29.273 16.0308,-34.732 0.9408,-0.899 5.4169,-7.829 7.9296,-12.276 48.2977,-36.5 80.562,-50.12 148.0396,-69.39 1.8333,0.412 5.5334,2.132 8.2225,3.821 2.6891,1.69 6.4976,3.476 8.4633,3.969 1.9658,0.494 6.1521,2.865 9.303,5.27 3.1509,2.405 7.2349,5.176 9.0756,6.156 1.8406,0.981 6.2541,5.384 9.8077,9.784 3.5537,4.4 8.7047,10.4 11.4468,13.333 3.7829,4.047 4.9891,6.46 5,10.005 0.01,2.569 2.0294,8.869 4.4922,14 2.4628,5.13 4.8201,11.548 5.2384,14.26 0.4184,2.713 1.6417,6.913 2.7184,9.334 1.0768,2.42 3.2621,11.001 4.8563,19.068 1.5941,8.066 4.0022,18.866 5.3512,24 4.063,15.46 6.5064,27.536 7.3574,36.362 0.4434,4.6 1.7145,10.9 2.8245,14 1.1101,3.101 2.3015,8.038 2.6476,10.971 0.3461,2.933 1.1942,7.133 1.8846,9.333 1.8121,5.774 1.8478,10.833 0.147,20.837 -0.8262,4.86 -1.8528,15.06 -2.2814,22.667 -1.1065,19.64 -1.3974,22.747 -3.6667,39.163 -2.4721,17.883 -4.4389,27.989 -6.0405,31.036 -0.6642,1.263 -1.6438,5.597 -2.1771,9.631 -0.5332,4.033 -1.6275,8.145 -2.4318,9.138 -0.8043,0.993 -1.869,4.893 -2.3659,8.667 -1.413,10.73 -4.8925,27.363 -7.7112,36.861 -4.12,13.884 -8.4319,29.623 -9.4975,34.667 -0.5422,2.567 -2.3351,7.667 -3.9842,11.333 -1.6492,3.667 -3.4494,8.554 -4.0005,10.859 -0.9779,4.092 -0.8058,4.289 7.1592,8.218 4.4886,2.214 10.1111,4.425 12.4944,4.913 2.3833,0.489 4.3333,1.338 4.3333,1.887 0,0.549 3.15,1.723 7,2.608 9.3965,2.16 32.8511,10.734 37,13.526 4.7595,3.203 18.1531,9.323 20.4043,9.323 1.0465,0 3.4283,1.2 5.2929,2.666 1.8646,1.467 4.6384,2.667 6.164,2.667 1.6329,0 6.8973,3.976 12.7978,9.667 5.5131,5.316 13.9202,13.216 18.6824,17.554 4.7623,4.338 8.6586,8.597 8.6586,9.464 0,1.569 10.238,11.128 18.1438,16.94 2.279,1.675 6.779,6.119 10,9.874 3.2209,3.755 7.8556,8.499 10.2994,10.542 6.1078,5.106 22.8902,25.379 22.8902,27.651 0,2.038 5.7449,11.319 13.3956,21.641 2.7177,3.667 5.6883,9.067 6.6012,12 0.913,2.934 2.7246,7.134 4.0258,9.334 1.3013,2.2 3.6067,8.436 5.1232,13.858 1.5164,5.422 4.2444,12.022 6.0622,14.667 3.5664,5.188 6.7048,13.634 8.2279,22.141 0.5252,2.934 2.0669,7.425 3.4261,9.981 1.3592,2.555 2.4713,5.67 2.4713,6.921 0,1.251 0.5538,2.617 1.2307,3.035 0.677,0.418 1.626,2.56 2.1089,4.759 0.483,2.199 1.7988,5.843 2.924,8.099 1.1318,2.268 2.3413,9.262 2.7072,15.653 0.3638,6.354 1.4229,12.772 2.3537,14.264 0.9307,1.491 2.6487,6.891 3.8177,12 3.6076,15.765 6.3688,29.075 7.0441,33.955 0.3551,2.567 1.1815,5.867 1.8363,7.333 3.4556,7.74 5.4421,19.178 6.136,35.33 0.7684,17.888 3.4102,29.946 8.0262,36.634 6.0692,12.372 -24.5964,24.681 -22.5824,8.036 1.1987,-5.932 0.7851,-29.719 -0.6142,-35.333 -0.8227,-3.3 -3.5737,-12.3 -6.1135,-20 -2.5398,-7.7 -5.2429,-18.2 -6.0069,-23.333 -0.764,-5.134 -2.1145,-14.434 -3.0011,-20.667 -0.8867,-6.233 -2.1426,-12.233 -2.7911,-13.333 -0.6484,-1.1 -2.5931,-7.7 -4.3216,-14.667 -1.7285,-6.967 -4.1325,-15.967 -5.3423,-20 -1.2098,-4.033 -2.9633,-10.933 -3.8966,-15.333 -0.9334,-4.4 -2.6427,-9.8 -3.7986,-12 -1.1558,-2.2 -2.8138,-8.8 -3.6843,-14.667 -0.8705,-5.867 -2.1339,-12.836 -2.8075,-15.488 -0.6736,-2.652 -1.2247,-6.471 -1.2247,-8.488 0,-2.054 -1.9778,-6.384 -4.4979,-9.845 -2.4739,-3.399 -4.9505,-7.679 -5.5036,-9.512 -1.42,-4.707 -7.1007,-14.394 -12.1202,-20.667 -2.3471,-2.933 -5.8945,-9.233 -7.8831,-14 -1.9885,-4.767 -4.451,-9.146 -5.472,-9.733 -1.0211,-0.586 -1.8565,-1.872 -1.8565,-2.857 0,-0.985 -0.8687,-2.125 -1.9303,-2.532 -1.0617,-0.407 -2.8868,-2.59 -4.0559,-4.851 -1.169,-2.261 -3.9004,-5.807 -6.0697,-7.88 -2.1693,-2.073 -3.9441,-4.724 -3.9441,-5.891 0,-1.167 -5.037,-6.364 -11.1933,-11.548 -6.1562,-5.184 -14.0334,-12.75 -17.5047,-16.814 -3.4714,-4.063 -10.2844,-10.572 -15.1402,-14.465 -4.8556,-3.892 -11.8285,-9.945 -15.4952,-13.451 -8.1232,-7.767 -19.1042,-15.311 -22.285,-15.311 -1.428,0 -3.1214,1.856 -4.328,4.744 -1.0902,2.609 -3.115,6.359 -4.4995,8.333 -1.3845,1.974 -3.2523,5.989 -4.1507,8.923 -2.2205,7.25 -5.2028,13.718 -6.7724,14.688 -0.7138,0.441 -1.2977,2.984 -1.2977,5.651 0,3.417 -1.0337,5.927 -3.5013,8.503 -6.563,6.85 -12.3461,18.724 -13.3724,27.457 -0.4548,3.869 -1.2287,7.034 -1.7199,7.034 -0.4913,0 -1.9525,2.401 -3.2472,5.336 -1.2947,2.934 -3.0602,6.092 -3.9233,7.017 -4.1848,4.487 -10.2359,14.372 -10.2359,16.722 0,1.452 -0.9,2.985 -2,3.407 -1.1,0.422 -2,1.872 -2,3.221 0,1.35 -0.8809,3.619 -1.9576,5.042 -1.0767,1.424 -1.9767,3.705 -2,5.07 -0.023,1.365 -2.4424,5.348 -5.3757,8.852 -2.9334,3.503 -5.3334,7.256 -5.3334,8.34 0,2.64 -5.6232,16.209 -6.9497,16.771 -0.5777,0.244 -1.0503,1.48 -1.0503,2.745 0,1.265 -0.8809,3.465 -1.9576,4.889 -1.0766,1.423 -1.9766,3.608 -2,4.855 -0.023,1.247 -0.7957,2.747 -1.7164,3.333 -0.9206,0.587 -2.5056,3.467 -3.5221,6.4 -1.0165,2.933 -3.4604,7.733 -5.4309,10.667 -1.9705,2.933 -4.6359,8.033 -5.923,11.333 -1.2872,3.3 -3.1232,6.9 -4.0801,8 -0.9569,1.1 -2.1434,3.901 -2.6367,6.224 -0.4933,2.323 -2.0601,5.565 -3.4817,7.204 -1.4216,1.639 -2.5848,4.688 -2.5848,6.776 0,2.088 -0.5886,3.796 -1.3079,3.796 -0.7194,0 -1.7109,1.65 -2.2034,3.667 -0.4924,2.016 -2.0038,5.097 -3.3587,6.846 -1.3548,1.749 -2.4633,4.538 -2.4633,6.198 0,3.3 -14.7557,33.073 -17.4892,35.289 -0.4524,0.367 -2.2021,4.567 -3.8882,9.333 -1.686,4.767 -3.7935,9.567 -4.6833,10.667 -0.8898,1.1 -2.6539,4.044 -3.9203,6.541 -1.2664,2.498 -3.4388,5.761 -4.8274,7.252 -1.3888,1.49 -2.525,4.032 -2.525,5.649 0,1.617 -0.9271,3.295 -2.0602,3.73 -1.1331,0.435 -2.9522,2.749 -4.0424,5.143 -1.0903,2.393 -3.1194,6.152 -4.5091,8.352 -3.5037,5.546 -8.2192,12.288 -8.2192,12.288 l -8.6525,6.731 0.2384,18.97 15.3471,-0.618 -1.0167,25.572 -0.4719,19.683 z m 39.8395,-89.793 c 4.1059,-4.443 7.988,-9.964 12.8906,-18.333 2.6802,-4.576 9.7049,-19.578 9.7049,-20.727 0,-0.601 1.1693,-1.465 2.5985,-1.918 1.4291,-0.454 2.9955,-2.076 3.4808,-3.605 0.4854,-1.529 2.9162,-5.445 5.4019,-8.701 2.4857,-3.257 4.9163,-7.525 5.4013,-9.485 0.485,-1.961 1.9022,-4.29 3.1493,-5.178 1.247,-0.887 3.0228,-3.437 3.9462,-5.667 0.9234,-2.229 2.2061,-4.053 2.8504,-4.053 0.6444,0 1.1716,-1.1 1.1716,-2.444 0,-1.345 0.4276,-2.872 0.9502,-3.395 1.4515,-1.451 5.7141,-13.199 5.7154,-15.751 0,-2.447 4.4339,-10.791 8.0095,-15.076 4.0619,-4.868 7.9916,-14.021 7.9916,-18.613 0,-2.492 0.75,-5.344 1.6666,-6.34 2.2134,-2.403 8.0066,-13.223 17.0079,-31.765 0.5477,-1.128 1.4169,-4.544 1.9315,-7.59 0.5147,-3.046 1.7889,-6.247 2.8315,-7.112 1.0427,-0.866 1.8958,-2.267 1.8958,-3.114 0,-0.847 1.2,-2.568 2.6667,-3.824 1.7169,-1.47 2.6666,-3.933 2.6666,-6.916 0,-3.046 0.7989,-5.061 2.3334,-5.883 1.2833,-0.689 3.8098,-4.61 5.6143,-8.714 1.8046,-4.105 3.7546,-7.463 4.3334,-7.463 0.5787,0 1.0523,-2.463 1.0523,-5.474 0,-4.306 0.7392,-6.057 3.4606,-8.197 2.7511,-2.164 3.3047,-3.502 2.7,-6.526 -0.6191,-3.095 -0.2974,-3.803 1.7282,-3.803 1.6043,0 2.8139,-1.303 3.4038,-3.666 0.5032,-2.017 2.3683,-5.577 4.1445,-7.911 2.1896,-2.878 3.2295,-5.987 3.2295,-9.657 0,-4.307 0.7998,-6.124 3.918,-8.903 4.9767,-4.434 8.1919,-11.154 7.1828,-15.013 -0.5345,-2.044 0.1023,-3.818 2.0083,-5.594 1.5351,-1.43 3.4178,-4.928 4.1839,-7.772 0.7661,-2.845 2.25,-5.884 3.2976,-6.754 1.0476,-0.869 2.2908,-3.489 2.7627,-5.822 0.4719,-2.332 4.0707,-10.841 7.9973,-18.908 3.9266,-8.066 7.5286,-16.824 8.0045,-19.462 1.044,-5.788 1.0318,-5.795 -26.6884,-15.23 -10.2667,-3.495 -20.7578,-7.469 -23.3136,-8.831 -2.5558,-1.362 -5.4576,-2.477 -6.4484,-2.477 -0.9908,0 -6.2554,-1.294 -11.6991,-2.876 -8.6963,-2.526 -10.5248,-2.668 -15.0645,-1.17 -2.8418,0.938 -7.4861,3.795 -10.3206,6.349 -2.8346,2.555 -6.6538,5.617 -8.4871,6.806 -1.8334,1.188 -3.7856,2.876 -4.3384,3.75 -0.5528,0.874 -6.4205,2.356 -13.0393,3.293 -8.8307,1.249 -13.4611,2.647 -17.3948,5.252 -5.216,3.453 -5.5651,3.501 -12.9359,1.788 -5.6277,-1.309 -9.9167,-1.429 -16.6828,-0.47 -5.0092,0.711 -16.7204,0.893 -26.0249,0.404 -16.5431,-0.868 -17.171,-1.016 -28.3904,-6.673 -6.3102,-3.183 -12.0668,-5.786 -12.7925,-5.786 -0.7257,0 -4.6496,-2.914 -8.7198,-6.476 -14.12,-12.356 -19.6812,-15.047 -19.6812,-9.524 0,1.956 -0.8889,2.667 -3.3334,2.667 -1.8333,0 -3.3333,0.551 -3.3333,1.224 0,0.674 -2.25,2.571 -5,4.216 -2.75,1.645 -6.2072,4.064 -7.6827,5.376 -2.5744,2.289 -12.2914,5.459 -24.3364,7.939 -3.1271,0.644 -6.7271,1.704 -8,2.356 -1.2728,0.651 -4.5906,1.534 -7.3728,1.962 -6.3423,0.975 -26.0455,8.507 -28.3913,10.853 -1.3673,1.367 -1.4904,4.206 -0.5602,12.913 1.5349,14.366 2.7064,19.827 4.2532,19.827 0.6837,0 1.1747,3.15 1.0911,7 -0.1929,8.878 1.522,17.923 4.3655,23.024 4.0298,7.229 6.3003,14.232 6.3003,19.433 0,4.154 0.7609,5.693 4,8.087 2.2,1.627 4.0025,4.195 4.0057,5.707 0,1.512 1.7923,5.442 3.9759,8.734 2.1836,3.292 5.007,9.292 6.2742,13.333 1.2672,4.042 3.9066,9.749 5.8653,12.682 1.9587,2.934 4.0133,7.433 4.5657,9.999 0.5524,2.566 4.4654,11.566 8.6955,20 4.2302,8.434 8.1285,17.435 8.663,20.001 0.5345,2.567 3.2929,9.557 6.1299,15.534 2.837,5.976 5.1581,11.584 5.1581,12.46 0,0.877 1.0868,3.187 2.4152,5.134 1.3283,1.946 4.7115,8.039 7.5182,13.539 2.8066,5.5 5.8537,10.9 6.7714,12 0.9176,1.1 2.9899,5.107 4.6051,8.905 1.6152,3.798 4.0216,7.887 5.3476,9.087 1.326,1.2 5.2691,8.592 8.7625,16.428 3.4933,7.836 7.0725,14.847 7.9536,15.58 0.8811,0.733 4.0167,4.633 6.9679,8.667 2.9513,4.033 6.512,8.533 7.9129,10 1.4008,1.466 2.9084,3.614 3.3502,4.771 1.4652,3.84 10.0307,16.521 12.9023,19.102 1.5546,1.397 2.8264,3.283 2.8264,4.191 0,2.037 16.1345,19.244 18.0586,19.258 0.7656,0 3.4712,-2.239 6.0126,-4.989 z m -12.0712,-23.931 c -1.8333,-0.343 -5.2833,-2.492 -7.6666,-4.775 -3.9913,-3.823 -4.3334,-4.814 -4.3334,-12.552 0,-7.769 0.3604,-8.8 4.7869,-13.699 l 4.7868,-5.299 9.383,0.672 c 14.2264,1.019 17.3977,3.724 19.0408,16.245 0.7524,5.734 0.535,7.141 -1.2065,7.809 -1.1684,0.448 -2.1284,1.801 -2.1334,3.006 -0.021,5.045 -13.7631,10.256 -22.6576,8.593 z m 3.3334,-99.798 c -2.2,-0.999 -5.1137,-1.844 -6.4748,-1.878 -4.7188,-0.114 -11.4101,-10.499 -11.478,-17.814 -0.056,-6.023 1.4998,-9.391 7.041,-15.246 3.7257,-3.936 4.8227,-4.333 11.9724,-4.333 6.7103,0 9.0193,0.709 15.661,4.808 l 7.7901,4.809 -0.039,6.858 c -0.046,8.04 -2.9993,13.618 -10.2166,19.296 -6.3542,4.999 -9.343,5.733 -14.256,3.5 z m -1.2164,-119.878 c -7.0596,-3.781 -8.1637,-4.961 -10.5694,-11.292 -2.3323,-6.138 -2.4795,-7.844 -1.117,-12.938 0.8632,-3.227 1.5694,-7.059 1.5694,-8.515 0,-1.473 0.8938,-2.648 2.0131,-2.648 1.1072,0 3.0405,-1.2 4.2963,-2.667 4.7137,-5.505 15.4679,-2.277 25.4986,7.654 4.6745,4.628 5.5254,6.305 5.5254,10.889 0,7.139 -2.8155,17.457 -4.7634,17.457 -0.849,0 -2.9746,1.109 -4.7235,2.464 -5.4759,4.242 -9.2163,4.157 -17.7295,-0.404 z m 35.2164,-140.177 c 4.7666,-1.112 11.0666,-2.549 14,-3.191 7.7038,-1.688 10,-2.758 10,-4.66 0,-0.926 3.7012,-3.288 8.225,-5.25 8.668,-3.759 17.1255,-10.232 18.732,-14.337 0.5264,-1.344 1.8695,-2.445 2.9848,-2.445 3.3107,0 7.1304,-4.106 10.8031,-11.612 1.8982,-3.88 4.0071,-7.054 4.6865,-7.054 0.6794,0 1.2352,-1.407 1.2352,-3.127 0,-1.72 1.2,-4.213 2.6667,-5.54 1.4667,-1.327 2.6667,-3.56 2.6667,-4.962 0,-1.402 1.554,-4.587 3.4535,-7.077 1.9839,-2.601 3.7295,-6.96 4.1022,-10.244 0.3568,-3.145 1.1343,-6.917 1.7279,-8.384 1.3636,-3.369 3.6934,-12.116 4.6172,-17.333 0.3896,-2.2 1.9638,-9.7 3.4984,-16.667 1.5345,-6.966 3.3279,-15.666 3.9852,-19.333 2.5409,-14.173 2.9896,-16.049 4.205,-17.577 1.2671,-1.592 1.94,-5.44 6.0207,-34.423 3.0379,-21.577 3.5068,-59.997 0.8625,-70.667 -1.0904,-4.4 -2.5633,-10.327 -3.2731,-13.172 -0.7098,-2.845 -1.8313,-6.184 -2.4923,-7.419 -0.6609,-1.234 -2.1205,-10.148 -3.2435,-19.807 -1.123,-9.66 -2.9618,-19.342 -4.0861,-21.516 -1.1244,-2.174 -2.0443,-5.527 -2.0443,-7.45 0,-5.274 -5.224,-25.905 -8.1172,-32.057 -1.4022,-2.981 -2.5495,-6.47 -2.5495,-7.752 0,-1.282 -1.5,-5.61 -3.3333,-9.618 -1.8333,-4.008 -3.3333,-8.677 -3.3333,-10.375 0,-1.698 -1.2,-4.173 -2.6667,-5.5 -1.4667,-1.328 -2.6667,-3.452 -2.6667,-4.721 0,-6.945 -10.1685,-17.019 -32.6666,-32.365 -5.6016,-3.821 -9.025,-4.93 -21.4285,-6.944 -11.8221,-1.92 -15.6453,-2.089 -19.1989,-0.85 -2.4405,0.85 -6.2157,1.546 -8.3894,1.546 -7.2227,0 -26.906,5.455 -32.3166,8.957 -7.6319,4.938 -34.9432,33.052 -38.0775,39.195 -1.4538,2.85 -3.1628,5.182 -3.7976,5.182 -0.6349,0 -2.1972,2.25 -3.4718,5 -1.2746,2.75 -3.4227,6.217 -4.7735,7.704 -1.3509,1.488 -3.3997,5.379 -4.553,8.648 -1.1532,3.269 -3.5011,7.452 -5.2175,9.295 -1.7164,1.844 -3.8705,5.753 -4.7869,8.686 -0.9163,2.933 -2.4396,6.833 -3.385,8.667 -0.9454,1.833 -2.6834,7.233 -3.8622,12 -1.1788,4.766 -2.7568,10.766 -3.5066,13.333 -4.0714,13.937 -5.4502,23.834 -4.7363,34 0.8798,12.529 0.8813,11.128 -0.023,21.697 -0.3936,4.6 -0.072,10.209 0.7141,12.465 0.9274,2.66 0.9829,4.936 0.1579,6.478 -0.6995,1.307 -1.6229,11.597 -2.052,22.868 -0.4291,11.271 -1.4145,23.008 -2.1898,26.082 -1.0729,4.255 -0.8913,9.351 0.7603,21.333 1.1935,8.659 2.3847,24.144 2.6472,34.41 0.2651,10.372 1.1964,20.445 2.0956,22.667 1.4323,3.54 2.1638,9.396 4.913,39.333 0.3704,4.034 1.8295,9.773 3.2423,12.755 1.413,2.981 2.569,6.641 2.569,8.133 0,1.492 1.8,5.197 4,8.234 2.2,3.037 4,6.163 4,6.946 0,3.002 18.8359,23.73 22.829,25.122 2.2368,0.78 6.8654,3.462 10.2856,5.96 5.6095,4.097 8.3001,5.012 23.552,8.016 7.3066,1.439 38.0099,0.583 46,-1.283 z"
         id="path11802"
         sodipodi:nodetypes="cccccccsssssssssssssssssssssssssssssssssssssssssssssssssssssccsssssssssssssssssssssssssssssssscssssssssssssssssssssssssccsssssssssssssssssssssssssssssssssssssssssssssssssssssssssssccssssssssssssssssssssssssssssssssssssssssssssssssssssssssssssssssssssscccccccsssssssssssssssssssssssssssssssssssssssssssssssssssssssssssssssssssssssssssssssssssssssssssssssssscssssssssssscssssssssssssssssssssssssssssssssssssssssssssssssssssssssssssssssssssssssssssssss" /><path
         style="opacity:1;fill:none;fill-opacity:1;stroke:#000000;stroke-width:25;stroke-linecap:square;stroke-linejoin:round;stroke-dasharray:none;stroke-opacity:1"
         d="m -4316.681,27955.202 c 0,0 -1.499,-68.19 20.7951,-113.404 34.6996,-33.245 158.0207,-73.501 196.1033,-43.414 5.6486,6.522 24.7177,83.168 24.7177,83.168"
         id="path11804"
         sodipodi:nodetypes="cccc" /><path
         style="opacity:1;fill:none;fill-opacity:1;stroke:#000000;stroke-width:25;stroke-linecap:square;stroke-linejoin:round;stroke-dasharray:none;stroke-opacity:1"
         d="m -4615.5201,28746.648 12.1411,2.815 12.1138,-0.07 12.1429,-2.785 12.1741,1.281 12.126,-0.782 12.1537,0.732 12.1333,0.853 12.1327,1.02 12.1326,-0.09 12.1435,0.904 12.135,0.182 12.1411,0.14 12.1414,0.257 12.1406,-0.365 12.1451,0.147 12.1413,-1.27 12.1558,0.414 12.1381,-0.592 12.1509,0.11 12.1419,0.61 12.135,0.06 12.1424,0.959 12.1317,-0.06 12.1435,-0.643 12.1513,-0.213 12.1467,-0.576 12.1538,-0.348 12.1514,2.76 12.1007,0.49 12.1381,1.199 12.1347,0.709 12.1401,0.07 12.1416,0.377 12.1415,0.687 12.1426,0.107 12.1418,-0.182 12.1409,0.465 12.1429,1.014 12.1482,0.02 12.1413,0.02 12.1413,-0.655 12.1363,-0.151 12.1406,2.636 12.1745,-1.689 12.1143,0.441 12.1461,-2.499 12.1332,1.919 12.1429,0.284 12.1437,3.022 12.2132,-1.355 12.0989,0.301 12.15,-0.08 12.1396,0.224 12.1491,-0.332 12.1314,-0.537 12.1265,-0.908 12.1237,1.361 12.1733,-0.154 12.137,-0.04 12.1409,0.263 12.1536,0.931 12.2014,1.596 12.3248,-0.115 12.1661,-0.31 12.1166,-2.584 11.8555,-2.49"
         id="path11806"
         sodipodi:nodetypes="cc"
         inkscape:path-effect="#path-effect11808"
         inkscape:original-d="m -4615.5201,28746.648 801.3096,11.046" /></g></g></svg>
