<?xml version="1.0" encoding="UTF-8" standalone="no"?>
<!-- Created with Inkscape (http://www.inkscape.org/) -->

<svg
   version="1.1"
   id="svg176"
   width="1331.5361"
   height="846.66357"
   viewBox="0 0 1331.5362 846.66357"
   sodipodi:docname="website for ai.svg"
   xml:space="preserve"
   inkscape:version="1.2.2 (b0a8486541, 2022-12-01)"
   xmlns:inkscape="http://www.inkscape.org/namespaces/inkscape"
   xmlns:sodipodi="http://sodipodi.sourceforge.net/DTD/sodipodi-0.dtd"
   xmlns="http://www.w3.org/2000/svg"
   xmlns:svg="http://www.w3.org/2000/svg"><defs
     id="defs180"><linearGradient
       id="linearGradient1486"
       inkscape:swatch="solid"><stop
         style="stop-color:#000000;stop-opacity:1;"
         offset="0"
         id="stop1484" /></linearGradient><inkscape:path-effect
       effect="roughen"
       id="path-effect43789-7-0-2-5-0-7-25"
       is_visible="true"
       lpeversion="1.2"
       method="segments"
       max_segment_size="0.359042"
       segments="3"
       displace_x="1;1"
       displace_y="1;1"
       global_randomize="1;1"
       handles="along"
       shift_nodes="true"
       fixed_displacement="false"
       spray_tool_friendly="false" /><inkscape:path-effect
       effect="roughen"
       id="path-effect43789-1-41-6-7-6-6-9-2"
       is_visible="true"
       lpeversion="1.2"
       method="segments"
       max_segment_size="0.359042"
       segments="3"
       displace_x="1;1349370844"
       displace_y="1;544756675"
       global_randomize="1;2139095038"
       handles="along"
       shift_nodes="true"
       fixed_displacement="false"
       spray_tool_friendly="false" /><inkscape:path-effect
       effect="roughen"
       id="path-effect43789-1-3-8-4-3-2-15-4-3"
       is_visible="true"
       lpeversion="1.2"
       method="segments"
       max_segment_size="0.359042"
       segments="3"
       displace_x="1;2139095038"
       displace_y="1;1433730757"
       global_randomize="1;2139095038"
       handles="along"
       shift_nodes="true"
       fixed_displacement="false"
       spray_tool_friendly="false" /><inkscape:path-effect
       effect="roughen"
       id="path-effect43789-1-4-5-6-90-9-5-9-2"
       is_visible="true"
       lpeversion="1.2"
       method="segments"
       max_segment_size="0.359042"
       segments="3"
       displace_x="1;2139095038"
       displace_y="1;1324949604"
       global_randomize="1;2139095038"
       handles="along"
       shift_nodes="true"
       fixed_displacement="false"
       spray_tool_friendly="false" /><inkscape:path-effect
       effect="roughen"
       id="path-effect43789-1-44-9-2-1-1-47-9-7"
       is_visible="true"
       lpeversion="1.2"
       method="segments"
       max_segment_size="0.359042"
       segments="3"
       displace_x="1;2139095038"
       displace_y="1;1363927472"
       global_randomize="1;2139095038"
       handles="along"
       shift_nodes="true"
       fixed_displacement="false"
       spray_tool_friendly="false" /><inkscape:path-effect
       effect="roughen"
       id="path-effect43789-1-6-7-5-50-2-6-1-3"
       is_visible="true"
       lpeversion="1.2"
       method="segments"
       max_segment_size="0.359042"
       segments="3"
       displace_x="1;872371742"
       displace_y="1;2139095038"
       global_randomize="1;2139095038"
       handles="along"
       shift_nodes="true"
       fixed_displacement="false"
       spray_tool_friendly="false" /><inkscape:path-effect
       effect="roughen"
       id="path-effect43789-1-1-5-8-697-7-5-9-90"
       is_visible="true"
       lpeversion="1.2"
       method="segments"
       max_segment_size="0.359042"
       segments="3"
       displace_x="1;54946501"
       displace_y="1;670673737"
       global_randomize="1;2139095038"
       handles="along"
       shift_nodes="true"
       fixed_displacement="false"
       spray_tool_friendly="false" /><inkscape:path-effect
       effect="roughen"
       id="path-effect43789-1-9-3-6-92-0-6-4-1"
       is_visible="true"
       lpeversion="1.2"
       method="segments"
       max_segment_size="0.359042"
       segments="3"
       displace_x="1;2139095038"
       displace_y="1;1695715227"
       global_randomize="1;2139095038"
       handles="along"
       shift_nodes="true"
       fixed_displacement="false"
       spray_tool_friendly="false" /><inkscape:path-effect
       effect="roughen"
       id="path-effect43789-7-0-1-93-0-6-0-4-1-5"
       is_visible="true"
       lpeversion="1.2"
       method="segments"
       max_segment_size="0.359042"
       segments="3"
       displace_x="1;1"
       displace_y="1;1"
       global_randomize="1;1"
       handles="along"
       shift_nodes="true"
       fixed_displacement="false"
       spray_tool_friendly="false" /><inkscape:path-effect
       effect="roughen"
       id="path-effect43789-1-41-6-6-9-9-2-4-9-0-06"
       is_visible="true"
       lpeversion="1.2"
       method="segments"
       max_segment_size="0.359042"
       segments="3"
       displace_x="1;1349370844"
       displace_y="1;544756675"
       global_randomize="1;2139095038"
       handles="along"
       shift_nodes="true"
       fixed_displacement="false"
       spray_tool_friendly="false" /><inkscape:path-effect
       effect="roughen"
       id="path-effect43789-1-3-8-4-2-9-1-84-8-9-3-97"
       is_visible="true"
       lpeversion="1.2"
       method="segments"
       max_segment_size="0.359042"
       segments="3"
       displace_x="1;2139095038"
       displace_y="1;1433730757"
       global_randomize="1;2139095038"
       handles="along"
       shift_nodes="true"
       fixed_displacement="false"
       spray_tool_friendly="false" /><inkscape:path-effect
       effect="roughen"
       id="path-effect43789-1-4-5-6-0-7-7-7-0-3-0-9"
       is_visible="true"
       lpeversion="1.2"
       method="segments"
       max_segment_size="0.359042"
       segments="3"
       displace_x="1;2139095038"
       displace_y="1;1324949604"
       global_randomize="1;2139095038"
       handles="along"
       shift_nodes="true"
       fixed_displacement="false"
       spray_tool_friendly="false" /><inkscape:path-effect
       effect="roughen"
       id="path-effect43789-1-44-9-2-22-97-7-2-4-6-0-2"
       is_visible="true"
       lpeversion="1.2"
       method="segments"
       max_segment_size="0.359042"
       segments="3"
       displace_x="1;2139095038"
       displace_y="1;1363927472"
       global_randomize="1;2139095038"
       handles="along"
       shift_nodes="true"
       fixed_displacement="false"
       spray_tool_friendly="false" /><inkscape:path-effect
       effect="roughen"
       id="path-effect43789-1-6-7-5-97-35-1-4-2-0-4-8"
       is_visible="true"
       lpeversion="1.2"
       method="segments"
       max_segment_size="0.359042"
       segments="3"
       displace_x="1;872371742"
       displace_y="1;2139095038"
       global_randomize="1;2139095038"
       handles="along"
       shift_nodes="true"
       fixed_displacement="false"
       spray_tool_friendly="false" /><inkscape:path-effect
       effect="roughen"
       id="path-effect43789-1-1-5-8-4-04-1-0-9-5-5-99"
       is_visible="true"
       lpeversion="1.2"
       method="segments"
       max_segment_size="0.359042"
       segments="3"
       displace_x="1;54946501"
       displace_y="1;670673737"
       global_randomize="1;2139095038"
       handles="along"
       shift_nodes="true"
       fixed_displacement="false"
       spray_tool_friendly="false" /><inkscape:path-effect
       effect="roughen"
       id="path-effect43789-1-9-3-6-35-1-5-62-6-0-4-8"
       is_visible="true"
       lpeversion="1.2"
       method="segments"
       max_segment_size="0.359042"
       segments="3"
       displace_x="1;2139095038"
       displace_y="1;1695715227"
       global_randomize="1;2139095038"
       handles="along"
       shift_nodes="true"
       fixed_displacement="false"
       spray_tool_friendly="false" /><inkscape:path-effect
       effect="roughen"
       id="path-effect43789-7-0-1-9-42-3-9-1-2-2-9"
       is_visible="true"
       lpeversion="1.2"
       method="segments"
       max_segment_size="0.359042"
       segments="3"
       displace_x="1;1"
       displace_y="1;1"
       global_randomize="1;1"
       handles="along"
       shift_nodes="true"
       fixed_displacement="false"
       spray_tool_friendly="false" /><inkscape:path-effect
       effect="roughen"
       id="path-effect43789-1-41-6-6-1-27-6-9-0-9-4-3"
       is_visible="true"
       lpeversion="1.2"
       method="segments"
       max_segment_size="0.359042"
       segments="3"
       displace_x="1;1349370844"
       displace_y="1;544756675"
       global_randomize="1;2139095038"
       handles="along"
       shift_nodes="true"
       fixed_displacement="false"
       spray_tool_friendly="false" /><inkscape:path-effect
       effect="roughen"
       id="path-effect43789-1-3-8-4-2-5-61-5-0-4-4-9-63"
       is_visible="true"
       lpeversion="1.2"
       method="segments"
       max_segment_size="0.359042"
       segments="3"
       displace_x="1;2139095038"
       displace_y="1;1433730757"
       global_randomize="1;2139095038"
       handles="along"
       shift_nodes="true"
       fixed_displacement="false"
       spray_tool_friendly="false" /><inkscape:path-effect
       effect="roughen"
       id="path-effect43789-1-4-5-6-0-2-85-6-8-2-3-9-6"
       is_visible="true"
       lpeversion="1.2"
       method="segments"
       max_segment_size="0.359042"
       segments="3"
       displace_x="1;2139095038"
       displace_y="1;1324949604"
       global_randomize="1;2139095038"
       handles="along"
       shift_nodes="true"
       fixed_displacement="false"
       spray_tool_friendly="false" /><inkscape:path-effect
       effect="roughen"
       id="path-effect43789-1-44-9-2-22-0-11-3-1-2-5-9-0"
       is_visible="true"
       lpeversion="1.2"
       method="segments"
       max_segment_size="0.359042"
       segments="3"
       displace_x="1;2139095038"
       displace_y="1;1363927472"
       global_randomize="1;2139095038"
       handles="along"
       shift_nodes="true"
       fixed_displacement="false"
       spray_tool_friendly="false" /><inkscape:path-effect
       effect="roughen"
       id="path-effect43789-1-6-7-5-97-1-30-9-3-2-1-4-4"
       is_visible="true"
       lpeversion="1.2"
       method="segments"
       max_segment_size="0.359042"
       segments="3"
       displace_x="1;872371742"
       displace_y="1;2139095038"
       global_randomize="1;2139095038"
       handles="along"
       shift_nodes="true"
       fixed_displacement="false"
       spray_tool_friendly="false" /><inkscape:path-effect
       effect="roughen"
       id="path-effect43789-1-1-5-8-4-0-64-4-1-0-7-9-49"
       is_visible="true"
       lpeversion="1.2"
       method="segments"
       max_segment_size="0.359042"
       segments="3"
       displace_x="1;54946501"
       displace_y="1;670673737"
       global_randomize="1;2139095038"
       handles="along"
       shift_nodes="true"
       fixed_displacement="false"
       spray_tool_friendly="false" /><inkscape:path-effect
       effect="roughen"
       id="path-effect43789-1-9-3-6-35-6-47-8-1-5-4-8-66"
       is_visible="true"
       lpeversion="1.2"
       method="segments"
       max_segment_size="0.359042"
       segments="3"
       displace_x="1;2139095038"
       displace_y="1;1695715227"
       global_randomize="1;2139095038"
       handles="along"
       shift_nodes="true"
       fixed_displacement="false"
       spray_tool_friendly="false" /></defs><sodipodi:namedview
     id="namedview178"
     pagecolor="#ffffff"
     bordercolor="#000000"
     borderopacity="0.25"
     inkscape:showpageshadow="2"
     inkscape:pageopacity="0.0"
     inkscape:pagecheckerboard="0"
     inkscape:deskcolor="#d1d1d1"
     showgrid="false"
     showguides="false"
     inkscape:zoom="0.0646875"
     inkscape:cx="1437.6812"
     inkscape:cy="1437.6812"
     inkscape:window-width="1920"
     inkscape:window-height="1011"
     inkscape:window-x="0"
     inkscape:window-y="0"
     inkscape:window-maximized="1"
     inkscape:current-layer="g182"><inkscape:grid
       type="xygrid"
       id="grid2722" /></sodipodi:namedview><g
     inkscape:groupmode="layer"
     inkscape:label="Image"
     id="g182"
     transform="translate(-3799.6825,-2216.7095)"><g
       id="g246995"><g
         id="g206309"
         transform="translate(0.08008858,-294.44682)"><path
           style="fill:none;fill-opacity:1;stroke:#000000;stroke-width:3.15355;stroke-linecap:round;stroke-linejoin:miter;stroke-dasharray:none"
           id="path42736-1-6-0-0-2-3-7-6"
           d="m 4625.1221,3134.4093 c 0,1.7123 -0.6778,3.0414 -1.4834,4.4194 -0.9935,1.1048 -1.3266,2.708 -2.6532,3.5831 -1.3288,0.8764 -3.6021,1.0822 -5.3123,1.0822 -1.7089,0 -3.4198,-0.5862 -4.7744,-1.3618 -1.4514,-0.9065 -2.4112,-1.8175 -3.1629,-3.0898 -0.7841,-1.327 -1.0511,-2.8009 -1.0511,-4.5493 0,-1.7123 0.2608,-3.6228 1.0433,-5.0137 0.6008,-1.6907 2.2497,-2.3727 3.6523,-3.1188 1.3959,-0.7425 2.729,-1.2542 4.4337,-1.2542 1.7089,0 3.4674,0.5497 4.8423,1.3567 1.5099,0.8808 2.4692,1.9071 3.2336,3.2333 0.79,1.3707 1.2321,2.9723 1.2321,4.7129 z"
           sodipodi:type="arc"
           sodipodi:ry="9.3014164"
           sodipodi:rx="9.2826223"
           sodipodi:cy="3134.4062"
           sodipodi:cx="4615.812"
           inkscape:path-effect="#path-effect43789-7-0-2-5-0-7-25" /><path
           style="fill:none;fill-opacity:1;stroke:#000000;stroke-width:3.15355;stroke-linecap:round;stroke-linejoin:miter;stroke-dasharray:none"
           id="path42736-1-0-43-5-9-8-7-2-9"
           d="m 4625.2221,3172.04 c 0,1.7124 -0.4926,3.8831 -1.2981,5.2611 -0.7319,1.9178 -1.815,2.9779 -3.1642,3.6428 -1.4094,0.6946 -3.3474,0.1527 -5.0936,0.1527 -1.7089,0 -3.0978,-0.598 -4.4454,-1.3694 -1.1512,-0.9307 -2.6933,-1.8644 -3.5185,-3.1597 -0.8314,-1.3047 -1.0787,-3.0573 -1.0787,-4.7759 0,-1.7124 0.7561,-3.2723 1.5537,-4.614 1.0762,-1.288 1.7877,-2.553 3.0326,-3.3248 1.3146,-0.815 2.9246,-0.8695 4.68,-0.8695 1.7089,0 3.6411,0.4412 5.0108,1.2116 1.68,0.7624 2.2684,1.5191 2.9838,2.8259 0.742,1.3554 1.3376,3.2756 1.3376,5.0192 z"
           sodipodi:type="arc"
           sodipodi:ry="9.3014164"
           sodipodi:rx="9.2826223"
           sodipodi:cy="3172.0366"
           sodipodi:cx="4615.8525"
           inkscape:path-effect="#path-effect43789-1-41-6-7-6-6-9-2" /><path
           style="fill:none;fill-opacity:1;stroke:#000000;stroke-width:3.15355;stroke-linecap:round;stroke-linejoin:miter;stroke-dasharray:none"
           id="path42736-1-0-0-3-6-5-9-4-7-6"
           d="m 4625.0733,3213.716 c 0,1.7123 -0.481,3.2977 -1.2866,4.6757 -0.8636,1.4352 -2.0639,2.8116 -3.4048,3.6001 -1.3676,0.8041 -2.5032,1.1169 -4.2289,1.1169 -1.7089,0 -3.5644,-0.9841 -4.9864,-1.8181 -1.5567,-1.2856 -2.5055,-2.0985 -3.295,-3.2772 -0.8895,-1.328 -1.0104,-2.536 -1.0104,-4.3503 0,-1.7123 0.4716,-3.3952 1.2318,-4.7787 0.7979,-1.4465 1.8075,-2.5379 3.1116,-3.3311 1.3257,-0.8063 2.9151,-1.7723 4.6381,-1.7723 1.7089,0 3.4745,0.577 4.8489,1.4647 1.522,0.9303 2.3716,2.714 3.134,4.1354 0.7821,1.4582 1.2477,2.6006 1.2477,4.3349 z"
           sodipodi:type="arc"
           sodipodi:ry="9.3014164"
           sodipodi:rx="9.2826223"
           sodipodi:cy="3213.6262"
           sodipodi:cx="4615.8374"
           inkscape:path-effect="#path-effect43789-1-3-8-4-3-2-15-4-3" /><path
           style="fill:#000000;fill-opacity:1;stroke:#000000;stroke-width:3.15355;stroke-linecap:round;stroke-linejoin:miter;stroke-dasharray:none"
           id="path42736-1-0-4-3-6-2-7-5-2-8"
           d="m 4625.0733,3253.4615 c 0,1.7124 -0.481,3.7246 -1.2866,5.1026 -0.8437,1.8873 -2.0082,2.3261 -3.3048,2.994 -1.3894,0.7157 -2.5609,0.9505 -4.3289,0.9505 -1.7089,0 -3.5644,-0.5414 -4.9864,-1.333 -1.6123,-0.8659 -2.5964,-1.8533 -3.3918,-3.1564 -0.8286,-1.3575 -0.9136,-2.8435 -0.9136,-4.5909 0,-1.7123 0.4716,-3.122 1.2318,-4.5172 0.8103,-1.199 1.843,-2.9727 3.1765,-3.8503 1.3119,-0.8635 2.8783,-1.0444 4.5732,-1.0444 1.7089,0 3.4745,0.4531 4.8489,1.2595 1.529,0.7913 2.3829,1.546 3.1458,2.9114 0.7747,1.3865 1.2359,3.5487 1.2359,5.2742 z"
           sodipodi:type="arc"
           sodipodi:ry="9.3014164"
           sodipodi:rx="9.2826223"
           sodipodi:cy="3253.3125"
           sodipodi:cx="4615.8374"
           inkscape:path-effect="#path-effect43789-1-4-5-6-90-9-5-9-2" /><path
           style="fill:none;fill-opacity:1;stroke:#000000;stroke-width:3.15355;stroke-linecap:round;stroke-linejoin:miter;stroke-dasharray:none"
           id="path42736-1-0-7-8-4-1-3-2-9-0"
           d="m 4652.6729,3252.8593 c 0,1.7123 -0.481,3.8062 -1.2866,5.1842 -0.8556,1.6083 -2.0415,2.8577 -3.3646,3.5992 -1.3764,0.7713 -2.5264,0.9269 -4.2691,0.9269 -1.7088,0 -3.5644,-0.094 -4.9864,-0.9276 -1.6754,-0.4651 -2.6988,-2.1369 -3.4979,-3.6847 -0.7617,-1.4755 -0.8075,-3.1006 -0.8075,-4.772 0,-1.7123 0.4716,-3.3391 1.2318,-4.7311 0.8006,-1.3974 1.8153,-2.7458 3.1257,-3.5633 1.3228,-0.8253 2.9072,-1.0509 4.6241,-1.0509 1.7088,0 3.4744,0.3719 4.8488,1.1717 1.5389,0.7142 2.3989,1.5934 3.1623,2.9844 0.7643,1.3923 1.2194,3.15 1.2194,4.8632 z"
           sodipodi:type="arc"
           sodipodi:ry="9.3014164"
           sodipodi:rx="9.2826223"
           sodipodi:cy="3253.0913"
           sodipodi:cx="4643.437"
           inkscape:path-effect="#path-effect43789-1-44-9-2-1-1-47-9-7" /><path
           style="fill:none;fill-opacity:1;stroke:#000000;stroke-width:3.15355;stroke-linecap:round;stroke-linejoin:miter;stroke-dasharray:none"
           id="path42736-1-0-3-6-0-3-6-5-0-8"
           d="m 4652.5716,3213.3838 c 0,1.7124 -0.3346,2.7977 -1.1402,4.1757 -0.8835,0.8136 -2.3211,2.513 -3.7369,3.4786 -1.3342,0.91 -2.4459,1.8809 -4.104,1.8809 -1.7089,0 -3.412,-0.8333 -4.8051,-1.6624 -1.4293,-1.1522 -2.6386,-1.9224 -3.4348,-3.1683 -0.8583,-1.3433 -0.8219,-2.6786 -0.8219,-4.4553 0,-1.7123 0.3624,-3.3045 1.1174,-4.7066 0.6989,-1.382 1.6436,-2.6263 2.9967,-3.4661 1.3338,-0.8279 3.6462,-1.2862 5.3428,-1.2862 1.7089,0 3.1625,0.5608 4.4614,1.3672 1.2029,0.9015 2.0664,1.8241 2.8177,3.1684 0.7581,1.3566 1.3069,2.954 1.3069,4.6741 z"
           sodipodi:type="arc"
           sodipodi:ry="9.3014164"
           sodipodi:rx="9.2826223"
           sodipodi:cy="3213.4702"
           sodipodi:cx="4643.4702"
           inkscape:path-effect="#path-effect43789-1-6-7-5-50-2-6-1-3" /><path
           style="fill:none;fill-opacity:1;stroke:#000000;stroke-width:3.15355;stroke-linecap:round;stroke-linejoin:miter;stroke-dasharray:none"
           id="path42736-1-0-75-0-0-2-1-4-5-6"
           d="m 4652.6039,3171.792 c 0,1.7124 -0.3602,2.9323 -1.1658,4.3103 -0.8234,0.7463 -2.2486,2.6791 -3.6995,3.6675 -1.3414,0.914 -2.4951,1.7781 -4.137,1.7781 -1.7089,0 -3.2123,0.1761 -4.616,-0.6538 -1.368,-0.2233 -3.1278,-1.9974 -3.9982,-3.6816 -0.7728,-1.4953 -0.3555,-3.416 -0.3555,-5.0267 0,-1.7123 0.5932,-3.1123 1.3239,-4.504 0.9157,-1.1725 1.6175,-2.1847 2.8652,-3.0586 1.256,-0.8798 3.0872,-1.8628 4.8018,-1.8628 1.7089,0 3.2787,0.2838 4.6222,1.0957 1.3587,0.6432 2.3592,2.029 3.1366,3.4891 0.7515,1.4116 1.2223,2.7634 1.2223,4.4468 z"
           sodipodi:type="arc"
           sodipodi:ry="9.3014164"
           sodipodi:rx="9.2826223"
           sodipodi:cy="3172.0935"
           sodipodi:cx="4643.4092"
           inkscape:path-effect="#path-effect43789-1-1-5-8-697-7-5-9-90" /><path
           style="fill:none;fill-opacity:1;stroke:#000000;stroke-width:3.15355;stroke-linecap:round;stroke-linejoin:miter;stroke-dasharray:none"
           id="path42736-1-0-6-4-4-73-2-7-0-7"
           d="m 4652.8624,3134.1859 c 0,1.7123 -0.4811,3.9382 -1.2866,5.3162 -0.849,1.7611 -2.0229,2.1782 -3.331,2.879 -1.3838,0.7414 -2.5459,1.2611 -4.3027,1.2611 -1.7089,0 -3.5644,-0.7856 -4.9864,-1.5861 -1.5797,-1.0937 -2.5432,-1.5671 -3.3355,-2.7816 -0.864,-1.3246 -0.97,-2.8638 -0.97,-4.6504 0,-1.7124 0.4717,-3.2887 1.2319,-4.702 0.8035,-1.3579 1.8237,-2.7685 3.1411,-3.6245 1.3195,-0.8573 2.8984,-1.3479 4.6086,-1.3479 1.7089,0 3.4745,0.4328 4.8489,1.26 1.5339,0.7788 2.3908,2.0647 3.154,3.4662 0.7695,1.4131 1.2277,2.7906 1.2277,4.51 z"
           sodipodi:type="arc"
           sodipodi:ry="9.3014164"
           sodipodi:rx="9.2826223"
           sodipodi:cy="3134.3857"
           sodipodi:cx="4643.6265"
           inkscape:path-effect="#path-effect43789-1-9-3-6-92-0-6-4-1" /><path
           style="fill:#000000;fill-opacity:1;stroke:#000000;stroke-width:3.15355;stroke-linecap:round;stroke-linejoin:miter;stroke-dasharray:none"
           id="path42736-1-6-0-2-4-4-3-9-4-3-5"
           d="m 4752.2715,3134.4093 c 0,1.7123 -0.6778,3.0414 -1.4834,4.4194 -0.9935,1.1048 -1.3266,2.708 -2.6532,3.5831 -1.3288,0.8764 -3.6021,1.0822 -5.3123,1.0822 -1.7089,0 -3.4198,-0.5862 -4.7744,-1.3618 -1.4514,-0.9065 -2.4111,-1.8175 -3.1629,-3.0898 -0.784,-1.327 -1.0511,-2.8009 -1.0511,-4.5493 0,-1.7123 0.2608,-3.6228 1.0433,-5.0137 0.6008,-1.6907 2.2497,-2.3727 3.6523,-3.1188 1.3959,-0.7425 2.729,-1.2542 4.4337,-1.2542 1.7089,0 3.4674,0.5497 4.8423,1.3567 1.5099,0.8808 2.4693,1.9071 3.2336,3.2333 0.79,1.3707 1.2321,2.9723 1.2321,4.7129 z"
           sodipodi:type="arc"
           sodipodi:ry="9.3014164"
           sodipodi:rx="9.2826223"
           sodipodi:cy="3134.4062"
           sodipodi:cx="4742.9614"
           inkscape:path-effect="#path-effect43789-7-0-1-93-0-6-0-4-1-5" /><path
           style="fill:none;fill-opacity:1;stroke:#000000;stroke-width:3.15355;stroke-linecap:round;stroke-linejoin:miter;stroke-dasharray:none"
           id="path42736-1-0-43-5-7-2-4-4-0-6-1-4"
           d="m 4752.3716,3172.04 c 0,1.7124 -0.4926,3.8831 -1.2982,5.2611 -0.7319,1.9178 -1.815,2.9779 -3.1642,3.6428 -1.4094,0.6946 -3.3474,0.1527 -5.0936,0.1527 -1.7089,0 -3.0978,-0.598 -4.4454,-1.3694 -1.1512,-0.9307 -2.6933,-1.8644 -3.5185,-3.1597 -0.8313,-1.3047 -1.0787,-3.0573 -1.0787,-4.7759 0,-1.7124 0.7561,-3.2723 1.5537,-4.614 1.0762,-1.288 1.7878,-2.553 3.0326,-3.3248 1.3146,-0.815 2.9246,-0.8695 4.68,-0.8695 1.7089,0 3.6411,0.4412 5.0108,1.2116 1.68,0.7624 2.2684,1.5191 2.9838,2.8259 0.742,1.3554 1.3377,3.2756 1.3377,5.0192 z"
           sodipodi:type="arc"
           sodipodi:ry="9.3014164"
           sodipodi:rx="9.2826223"
           sodipodi:cy="3172.0366"
           sodipodi:cx="4743.002"
           inkscape:path-effect="#path-effect43789-1-41-6-6-9-9-2-4-9-0-06" /><path
           style="fill:none;fill-opacity:1;stroke:#000000;stroke-width:3.15355;stroke-linecap:round;stroke-linejoin:miter;stroke-dasharray:none"
           id="path42736-1-0-0-3-6-7-40-7-0-2-9-8-4"
           d="m 4752.2232,3213.7162 c 0,1.7124 -0.481,3.2977 -1.2866,4.6757 -0.8636,1.4353 -2.0639,2.8117 -3.4048,3.6001 -1.3676,0.8041 -2.5032,1.117 -4.2289,1.117 -1.7089,0 -3.5644,-0.9841 -4.9864,-1.8182 -1.5567,-1.2856 -2.5055,-2.0985 -3.295,-3.2772 -0.8895,-1.3279 -1.0104,-2.5359 -1.0104,-4.3502 0,-1.7124 0.4716,-3.3953 1.2318,-4.7787 0.7979,-1.4466 1.8075,-2.538 3.1116,-3.3311 1.3257,-0.8064 2.9151,-1.7723 4.6381,-1.7723 1.7089,0 3.4745,0.5769 4.8489,1.4647 1.522,0.9302 2.3716,2.7139 3.134,4.1353 0.7821,1.4582 1.2477,2.6007 1.2477,4.3349 z"
           sodipodi:type="arc"
           sodipodi:ry="9.3014164"
           sodipodi:rx="9.2826223"
           sodipodi:cy="3213.6265"
           sodipodi:cx="4742.9873"
           inkscape:path-effect="#path-effect43789-1-3-8-4-2-9-1-84-8-9-3-97" /><path
           style="fill:#000000;fill-opacity:1;stroke:#000000;stroke-width:3.15355;stroke-linecap:round;stroke-linejoin:miter;stroke-dasharray:none"
           id="path42736-1-0-4-3-6-9-2-6-3-8-4-0-6"
           d="m 4752.2232,3253.4615 c 0,1.7124 -0.481,3.7246 -1.2866,5.1026 -0.8437,1.8873 -2.0082,2.3261 -3.3047,2.994 -1.3895,0.7157 -2.561,0.9505 -4.329,0.9505 -1.7089,0 -3.5644,-0.5414 -4.9864,-1.333 -1.6123,-0.8659 -2.5964,-1.8533 -3.3918,-3.1564 -0.8286,-1.3575 -0.9136,-2.8435 -0.9136,-4.5909 0,-1.7123 0.4716,-3.122 1.2318,-4.5172 0.8103,-1.199 1.843,-2.9727 3.1765,-3.8503 1.3119,-0.8635 2.8783,-1.0444 4.5732,-1.0444 1.7089,0 3.4745,0.4531 4.8489,1.2595 1.529,0.7913 2.3829,1.546 3.1458,2.9114 0.7747,1.3865 1.2359,3.5487 1.2359,5.2742 z"
           sodipodi:type="arc"
           sodipodi:ry="9.3014164"
           sodipodi:rx="9.2826223"
           sodipodi:cy="3253.3125"
           sodipodi:cx="4742.9873"
           inkscape:path-effect="#path-effect43789-1-4-5-6-0-7-7-7-0-3-0-9" /><path
           style="fill:#000000;fill-opacity:1;stroke:#000000;stroke-width:3.15355;stroke-linecap:round;stroke-linejoin:miter;stroke-dasharray:none"
           id="path42736-1-0-7-8-4-8-7-3-9-3-2-1-0"
           d="m 4779.8228,3252.8595 c 0,1.7124 -0.481,3.8062 -1.2866,5.1842 -0.8556,1.6084 -2.0415,2.8578 -3.3646,3.5992 -1.3764,0.7714 -2.5264,0.9269 -4.2691,0.9269 -1.7088,0 -3.5644,-0.094 -4.9864,-0.9275 -1.6754,-0.4652 -2.6988,-2.137 -3.4979,-3.6848 -0.7617,-1.4754 -0.8075,-3.1006 -0.8075,-4.772 0,-1.7123 0.4717,-3.3391 1.2318,-4.731 0.8006,-1.3975 1.8153,-2.7459 3.1257,-3.5634 1.3228,-0.8252 2.9072,-1.0508 4.6241,-1.0508 1.7088,0 3.4744,0.3719 4.8488,1.1717 1.5389,0.7141 2.3989,1.5934 3.1623,2.9843 0.7643,1.3923 1.2194,3.15 1.2194,4.8632 z"
           sodipodi:type="arc"
           sodipodi:ry="9.3014164"
           sodipodi:rx="9.2826223"
           sodipodi:cy="3253.0916"
           sodipodi:cx="4770.5869"
           inkscape:path-effect="#path-effect43789-1-44-9-2-22-97-7-2-4-6-0-2" /><path
           style="fill:#000000;fill-opacity:1;stroke:#000000;stroke-width:3.15355;stroke-linecap:round;stroke-linejoin:miter;stroke-dasharray:none"
           id="path42736-1-0-3-6-0-1-20-1-1-8-2-7-5"
           d="m 4779.721,3213.3836 c 0,1.7123 -0.3346,2.7977 -1.1401,4.1757 -0.8836,0.8136 -2.3212,2.5129 -3.737,3.4786 -1.3342,0.91 -2.4459,1.8809 -4.104,1.8809 -1.7089,0 -3.412,-0.8334 -4.805,-1.6624 -1.4294,-1.1522 -2.6387,-1.9224 -3.4348,-3.1684 -0.8583,-1.3432 -0.822,-2.6785 -0.822,-4.4552 0,-1.7124 0.3624,-3.3045 1.1174,-4.7066 0.699,-1.382 1.6436,-2.6263 2.9967,-3.4662 1.3339,-0.8278 3.6462,-1.2862 5.3428,-1.2862 1.7089,0 3.1626,0.5609 4.4614,1.3673 1.2029,0.9014 2.0664,1.824 2.8177,3.1684 0.7581,1.3566 1.3069,2.954 1.3069,4.6741 z"
           sodipodi:type="arc"
           sodipodi:ry="9.3014164"
           sodipodi:rx="9.2826223"
           sodipodi:cy="3213.47"
           sodipodi:cx="4770.6196"
           inkscape:path-effect="#path-effect43789-1-6-7-5-97-35-1-4-2-0-4-8" /><path
           style="fill:none;fill-opacity:1;stroke:#000000;stroke-width:3.15355;stroke-linecap:round;stroke-linejoin:miter;stroke-dasharray:none"
           id="path42736-1-0-75-0-0-0-1-7-9-0-6-9-5"
           d="m 4779.7538,3171.7918 c 0,1.7123 -0.3602,2.9323 -1.1658,4.3103 -0.8234,0.7462 -2.2486,2.679 -3.6995,3.6675 -1.3414,0.9139 -2.4951,1.7781 -4.137,1.7781 -1.7089,0 -3.2123,0.1761 -4.616,-0.6538 -1.368,-0.2234 -3.1278,-1.9974 -3.9982,-3.6816 -0.7728,-1.4954 -0.3555,-3.4161 -0.3555,-5.0267 0,-1.7124 0.5932,-3.1124 1.3239,-4.5041 0.9157,-1.1725 1.6175,-2.1847 2.8652,-3.0586 1.256,-0.8797 3.0872,-1.8627 4.8018,-1.8627 1.7089,0 3.2787,0.2838 4.6222,1.0957 1.3587,0.6431 2.3592,2.029 3.1366,3.489 0.7515,1.4116 1.2223,2.7634 1.2223,4.4469 z"
           sodipodi:type="arc"
           sodipodi:ry="9.3014164"
           sodipodi:rx="9.2826223"
           sodipodi:cy="3172.0933"
           sodipodi:cx="4770.5591"
           inkscape:path-effect="#path-effect43789-1-1-5-8-4-04-1-0-9-5-5-99" /><path
           style="fill:none;fill-opacity:1;stroke:#000000;stroke-width:3.15355;stroke-linecap:round;stroke-linejoin:miter;stroke-dasharray:none"
           id="path42736-1-0-6-4-4-7-6-5-6-4-4-1-3"
           d="m 4780.0123,3134.1861 c 0,1.7124 -0.4811,3.9383 -1.2866,5.3163 -0.849,1.761 -2.0229,2.1781 -3.331,2.879 -1.3838,0.7413 -2.5459,1.2611 -4.3027,1.2611 -1.7089,0 -3.5644,-0.7856 -4.9864,-1.5862 -1.5797,-1.0937 -2.5432,-1.5671 -3.3355,-2.7815 -0.864,-1.3246 -0.97,-2.8638 -0.97,-4.6505 0,-1.7123 0.4717,-3.2887 1.2319,-4.702 0.8035,-1.3578 1.8237,-2.7685 3.1411,-3.6245 1.3195,-0.8573 2.8984,-1.3479 4.6086,-1.3479 1.7089,0 3.4745,0.4328 4.8489,1.26 1.5339,0.7789 2.3908,2.0647 3.154,3.4663 0.7695,1.4131 1.2277,2.7905 1.2277,4.5099 z"
           sodipodi:type="arc"
           sodipodi:ry="9.3014164"
           sodipodi:rx="9.2826223"
           sodipodi:cy="3134.386"
           sodipodi:cx="4770.7764"
           inkscape:path-effect="#path-effect43789-1-9-3-6-35-1-5-62-6-0-4-8" /><path
           style="fill:#000000;fill-opacity:1;stroke:#000000;stroke-width:3.15355;stroke-linecap:round;stroke-linejoin:miter;stroke-dasharray:none"
           id="path42736-1-6-0-2-2-2-7-9-0-1-0-9"
           d="m 4880.0576,3134.4098 c 0,1.7123 -0.6778,3.0414 -1.4833,4.4194 -0.9935,1.1048 -1.3266,2.708 -2.6533,3.583 -1.3288,0.8765 -3.6021,1.0823 -5.3123,1.0823 -1.7089,0 -3.4197,-0.5862 -4.7744,-1.3618 -1.4514,-0.9065 -2.4111,-1.8175 -3.1629,-3.0898 -0.784,-1.327 -1.0511,-2.8009 -1.0511,-4.5493 0,-1.7123 0.2608,-3.6228 1.0434,-5.0137 0.6007,-1.6907 2.2497,-2.3727 3.6523,-3.1188 1.3958,-0.7425 2.7289,-1.2542 4.4337,-1.2542 1.7088,0 3.4674,0.5497 4.8423,1.3566 1.5098,0.8809 2.4692,1.9072 3.2335,3.2334 0.79,1.3707 1.2321,2.9723 1.2321,4.7129 z"
           sodipodi:type="arc"
           sodipodi:ry="9.3014164"
           sodipodi:rx="9.2826223"
           sodipodi:cy="3134.4067"
           sodipodi:cx="4870.7476"
           inkscape:path-effect="#path-effect43789-7-0-1-9-42-3-9-1-2-2-9" /><path
           style="fill:none;fill-opacity:1;stroke:#000000;stroke-width:3.15355;stroke-linecap:round;stroke-linejoin:miter;stroke-dasharray:none"
           id="path42736-1-0-43-5-7-4-0-4-33-9-2-3-1"
           d="m 4880.1567,3172.04 c 0,1.7124 -0.4926,3.8831 -1.2982,5.2611 -0.7318,1.9178 -1.8149,2.9779 -3.1641,3.6428 -1.4095,0.6946 -3.3475,0.1527 -5.0937,0.1527 -1.7088,0 -3.0977,-0.598 -4.4453,-1.3694 -1.1513,-0.9307 -2.6933,-1.8644 -3.5186,-3.1597 -0.8313,-1.3047 -1.0786,-3.0573 -1.0786,-4.7759 0,-1.7124 0.7561,-3.2723 1.5537,-4.614 1.0762,-1.288 1.7877,-2.553 3.0326,-3.3248 1.3146,-0.815 2.9246,-0.8695 4.68,-0.8695 1.7089,0 3.6411,0.4412 5.0107,1.2116 1.68,0.7624 2.2685,1.5191 2.9839,2.8259 0.7419,1.3554 1.3376,3.2756 1.3376,5.0192 z"
           sodipodi:type="arc"
           sodipodi:ry="9.3014164"
           sodipodi:rx="9.2826223"
           sodipodi:cy="3172.0366"
           sodipodi:cx="4870.7871"
           inkscape:path-effect="#path-effect43789-1-41-6-6-1-27-6-9-0-9-4-3" /><path
           style="fill:#000000;fill-opacity:1;stroke:#000000;stroke-width:3.15355;stroke-linecap:round;stroke-linejoin:miter;stroke-dasharray:none"
           id="path42736-1-0-0-3-6-7-4-2-1-8-1-8-5-5"
           d="m 4880.0094,3213.7162 c 0,1.7124 -0.4811,3.2977 -1.2867,4.6757 -0.8636,1.4353 -2.0639,2.8117 -3.4048,3.6001 -1.3676,0.8041 -2.5031,1.117 -4.2288,1.117 -1.7089,0 -3.5645,-0.9841 -4.9864,-1.8182 -1.5568,-1.2856 -2.5056,-2.0985 -3.2951,-3.2772 -0.8895,-1.3279 -1.0104,-2.5359 -1.0104,-4.3502 0,-1.7124 0.4717,-3.3953 1.2319,-4.7787 0.7978,-1.4466 1.8075,-2.538 3.1115,-3.3311 1.3258,-0.8064 2.9152,-1.7723 4.6382,-1.7723 1.7089,0 3.4745,0.5769 4.8489,1.4647 1.522,0.9302 2.3715,2.7139 3.1339,4.1353 0.7822,1.4582 1.2478,2.6007 1.2478,4.3349 z"
           sodipodi:type="arc"
           sodipodi:ry="9.3014164"
           sodipodi:rx="9.2826223"
           sodipodi:cy="3213.6265"
           sodipodi:cx="4870.7734"
           inkscape:path-effect="#path-effect43789-1-3-8-4-2-5-61-5-0-4-4-9-63" /><path
           style="fill:none;fill-opacity:1;stroke:#000000;stroke-width:3.15355;stroke-linecap:round;stroke-linejoin:miter;stroke-dasharray:none"
           id="path42736-1-0-4-3-6-9-5-3-8-0-9-8-9-0"
           d="m 4880.0094,3253.4615 c 0,1.7124 -0.4811,3.7246 -1.2867,5.1026 -0.8437,1.8873 -2.0082,2.3261 -3.3047,2.994 -1.3894,0.7157 -2.561,0.9505 -4.3289,0.9505 -1.7089,0 -3.5645,-0.5414 -4.9864,-1.333 -1.6123,-0.8659 -2.5965,-1.8533 -3.3918,-3.1564 -0.8287,-1.3575 -0.9137,-2.8435 -0.9137,-4.5909 0,-1.7123 0.4717,-3.122 1.2319,-4.5172 0.8103,-1.199 1.843,-2.9727 3.1764,-3.8503 1.3119,-0.8635 2.8783,-1.0444 4.5733,-1.0444 1.7089,0 3.4745,0.4531 4.8489,1.2595 1.529,0.7913 2.3829,1.546 3.1457,2.9114 0.7747,1.3865 1.236,3.5487 1.236,5.2742 z"
           sodipodi:type="arc"
           sodipodi:ry="9.3014164"
           sodipodi:rx="9.2826223"
           sodipodi:cy="3253.3125"
           sodipodi:cx="4870.7734"
           inkscape:path-effect="#path-effect43789-1-4-5-6-0-2-85-6-8-2-3-9-6" /><path
           style="fill:#000000;fill-opacity:1;stroke:#000000;stroke-width:3.15355;stroke-linecap:round;stroke-linejoin:miter;stroke-dasharray:none"
           id="path42736-1-0-7-8-4-8-9-68-5-5-6-9-4-4"
           d="m 4907.6075,3252.8595 c 0,1.7124 -0.481,3.8062 -1.2866,5.1842 -0.8557,1.6084 -2.0416,2.8578 -3.3646,3.5992 -1.3764,0.7714 -2.5264,0.9269 -4.2691,0.9269 -1.7089,0 -3.5644,-0.094 -4.9864,-0.9275 -1.6754,-0.4652 -2.6988,-2.137 -3.4979,-3.6848 -0.7617,-1.4754 -0.8076,-3.1006 -0.8076,-4.772 0,-1.7123 0.4717,-3.3391 1.2319,-4.731 0.8006,-1.3975 1.8152,-2.7459 3.1256,-3.5634 1.3228,-0.8252 2.9072,-1.0508 4.6241,-1.0508 1.7089,0 3.4745,0.3719 4.8489,1.1717 1.5389,0.7141 2.3988,1.5934 3.1623,2.9843 0.7642,1.3923 1.2194,3.15 1.2194,4.8632 z"
           sodipodi:type="arc"
           sodipodi:ry="9.3014164"
           sodipodi:rx="9.2826223"
           sodipodi:cy="3253.0916"
           sodipodi:cx="4898.3716"
           inkscape:path-effect="#path-effect43789-1-44-9-2-22-0-11-3-1-2-5-9-0" /><path
           style="fill:#000000;fill-opacity:1;stroke:#000000;stroke-width:3.15355;stroke-linecap:round;stroke-linejoin:miter;stroke-dasharray:none"
           id="path42736-1-0-3-6-0-1-1-9-9-6-2-2-8-9"
           d="m 4907.5061,3213.3841 c 0,1.7123 -0.3345,2.7977 -1.1401,4.1757 -0.8835,0.8136 -2.3212,2.5129 -3.737,3.4786 -1.3342,0.91 -2.4458,1.8809 -4.104,1.8809 -1.7089,0 -3.412,-0.8334 -4.805,-1.6624 -1.4294,-1.1522 -2.6386,-1.9224 -3.4348,-3.1684 -0.8583,-1.3432 -0.8219,-2.6786 -0.8219,-4.4552 0,-1.7124 0.3623,-3.3045 1.1174,-4.7066 0.6989,-1.382 1.6436,-2.6264 2.9967,-3.4662 1.3338,-0.8278 3.6462,-1.2862 5.3428,-1.2862 1.7088,0 3.1625,0.5608 4.4614,1.3673 1.2028,0.9014 2.0664,1.824 2.8177,3.1683 0.7581,1.3567 1.3068,2.9541 1.3068,4.6742 z"
           sodipodi:type="arc"
           sodipodi:ry="9.3014164"
           sodipodi:rx="9.2826223"
           sodipodi:cy="3213.4705"
           sodipodi:cx="4898.4048"
           inkscape:path-effect="#path-effect43789-1-6-7-5-97-1-30-9-3-2-1-4-4" /><path
           style="fill:none;fill-opacity:1;stroke:#000000;stroke-width:3.15355;stroke-linecap:round;stroke-linejoin:miter;stroke-dasharray:none"
           id="path42736-1-0-75-0-0-0-2-2-7-6-5-8-4-6"
           d="m 4907.5399,3171.7923 c 0,1.7123 -0.3602,2.9323 -1.1657,4.3103 -0.8235,0.7462 -2.2487,2.679 -3.6996,3.6675 -1.3414,0.9139 -2.4951,1.7781 -4.137,1.7781 -1.7089,0 -3.2122,0.1761 -4.6159,-0.6538 -1.368,-0.2234 -3.1279,-1.9974 -3.9983,-3.6816 -0.7728,-1.4954 -0.3554,-3.4161 -0.3554,-5.0267 0,-1.7124 0.5931,-3.1124 1.3238,-4.5041 0.9158,-1.1725 1.6175,-2.1847 2.8652,-3.0586 1.256,-0.8797 3.0873,-1.8627 4.8018,-1.8627 1.7089,0 3.2787,0.2838 4.6223,1.0957 1.3587,0.6431 2.3592,2.029 3.1365,3.489 0.7516,1.4116 1.2223,2.7634 1.2223,4.4469 z"
           sodipodi:type="arc"
           sodipodi:ry="9.3014164"
           sodipodi:rx="9.2826223"
           sodipodi:cy="3172.0938"
           sodipodi:cx="4898.3452"
           inkscape:path-effect="#path-effect43789-1-1-5-8-4-0-64-4-1-0-7-9-49" /><path
           style="fill:none;fill-opacity:1;stroke:#000000;stroke-width:3.15355;stroke-linecap:round;stroke-linejoin:miter;stroke-dasharray:none"
           id="path42736-1-0-6-4-4-7-8-8-5-4-4-8-6-7"
           d="m 4907.7984,3134.1861 c 0,1.7124 -0.481,3.9383 -1.2866,5.3163 -0.8489,1.761 -2.0228,2.1781 -3.331,2.879 -1.3837,0.7413 -2.5458,1.2611 -4.3027,1.2611 -1.7089,0 -3.5644,-0.7856 -4.9864,-1.5862 -1.5797,-1.0937 -2.5432,-1.5671 -3.3354,-2.7815 -0.8641,-1.3246 -0.97,-2.8638 -0.97,-4.6505 0,-1.7123 0.4716,-3.2887 1.2318,-4.702 0.8036,-1.3578 1.8237,-2.7685 3.1412,-3.6245 1.3195,-0.8573 2.8983,-1.3479 4.6085,-1.3479 1.7089,0 3.4745,0.4328 4.8489,1.26 1.5339,0.7789 2.3908,2.0647 3.154,3.4663 0.7695,1.4131 1.2277,2.7905 1.2277,4.5099 z"
           sodipodi:type="arc"
           sodipodi:ry="9.3014164"
           sodipodi:rx="9.2826223"
           sodipodi:cy="3134.386"
           sodipodi:cx="4898.5625"
           inkscape:path-effect="#path-effect43789-1-9-3-6-35-6-47-8-1-5-4-8-66" /></g><rect
         style="opacity:0;fill:#000000;fill-opacity:1;stroke:none;stroke-width:4;stroke-linecap:round;stroke-linejoin:bevel;stroke-dasharray:none"
         id="rect26104-16"
         width="1331.5364"
         height="846.6637"
         x="3799.6826"
         y="2216.7095" /></g></g></svg>
