<?xml version="1.0" encoding="UTF-8" standalone="no"?>
<!-- Created with Inkscape (http://www.inkscape.org/) -->

<svg
   version="1.1"
   id="svg176"
   width="1331.5364"
   height="846.66382"
   viewBox="0 0 1331.5364 846.66382"
   sodipodi:docname="website for ai.svg"
   xml:space="preserve"
   inkscape:version="1.2.2 (b0a8486541, 2022-12-01)"
   xmlns:inkscape="http://www.inkscape.org/namespaces/inkscape"
   xmlns:sodipodi="http://sodipodi.sourceforge.net/DTD/sodipodi-0.dtd"
   xmlns="http://www.w3.org/2000/svg"
   xmlns:svg="http://www.w3.org/2000/svg"><defs
     id="defs180"><linearGradient
       id="linearGradient1486"
       inkscape:swatch="solid"><stop
         style="stop-color:#000000;stop-opacity:1;"
         offset="0"
         id="stop1484" /></linearGradient><inkscape:path-effect
       effect="roughen"
       id="path-effect43789-7-0-2-5-4-1-57"
       is_visible="true"
       lpeversion="1.2"
       method="segments"
       max_segment_size="0.359042"
       segments="3"
       displace_x="1;1"
       displace_y="1;1"
       global_randomize="1;1"
       handles="along"
       shift_nodes="true"
       fixed_displacement="false"
       spray_tool_friendly="false" /><inkscape:path-effect
       effect="roughen"
       id="path-effect43789-1-41-6-7-6-4-6-4"
       is_visible="true"
       lpeversion="1.2"
       method="segments"
       max_segment_size="0.359042"
       segments="3"
       displace_x="1;1349370844"
       displace_y="1;544756675"
       global_randomize="1;2139095038"
       handles="along"
       shift_nodes="true"
       fixed_displacement="false"
       spray_tool_friendly="false" /><inkscape:path-effect
       effect="roughen"
       id="path-effect43789-1-3-8-4-3-2-3-2-3"
       is_visible="true"
       lpeversion="1.2"
       method="segments"
       max_segment_size="0.359042"
       segments="3"
       displace_x="1;2139095038"
       displace_y="1;1433730757"
       global_randomize="1;2139095038"
       handles="along"
       shift_nodes="true"
       fixed_displacement="false"
       spray_tool_friendly="false" /><inkscape:path-effect
       effect="roughen"
       id="path-effect43789-1-4-5-6-90-9-0-0-9"
       is_visible="true"
       lpeversion="1.2"
       method="segments"
       max_segment_size="0.359042"
       segments="3"
       displace_x="1;2139095038"
       displace_y="1;1324949604"
       global_randomize="1;2139095038"
       handles="along"
       shift_nodes="true"
       fixed_displacement="false"
       spray_tool_friendly="false" /><inkscape:path-effect
       effect="roughen"
       id="path-effect43789-1-44-9-2-1-1-7-22-4"
       is_visible="true"
       lpeversion="1.2"
       method="segments"
       max_segment_size="0.359042"
       segments="3"
       displace_x="1;2139095038"
       displace_y="1;1363927472"
       global_randomize="1;2139095038"
       handles="along"
       shift_nodes="true"
       fixed_displacement="false"
       spray_tool_friendly="false" /><inkscape:path-effect
       effect="roughen"
       id="path-effect43789-1-6-7-5-50-2-8-9-4"
       is_visible="true"
       lpeversion="1.2"
       method="segments"
       max_segment_size="0.359042"
       segments="3"
       displace_x="1;872371742"
       displace_y="1;2139095038"
       global_randomize="1;2139095038"
       handles="along"
       shift_nodes="true"
       fixed_displacement="false"
       spray_tool_friendly="false" /><inkscape:path-effect
       effect="roughen"
       id="path-effect43789-1-1-5-8-697-7-6-74-0"
       is_visible="true"
       lpeversion="1.2"
       method="segments"
       max_segment_size="0.359042"
       segments="3"
       displace_x="1;54946501"
       displace_y="1;670673737"
       global_randomize="1;2139095038"
       handles="along"
       shift_nodes="true"
       fixed_displacement="false"
       spray_tool_friendly="false" /><inkscape:path-effect
       effect="roughen"
       id="path-effect43789-1-9-3-6-92-0-8-3-6"
       is_visible="true"
       lpeversion="1.2"
       method="segments"
       max_segment_size="0.359042"
       segments="3"
       displace_x="1;2139095038"
       displace_y="1;1695715227"
       global_randomize="1;2139095038"
       handles="along"
       shift_nodes="true"
       fixed_displacement="false"
       spray_tool_friendly="false" /></defs><sodipodi:namedview
     id="namedview178"
     pagecolor="#ffffff"
     bordercolor="#000000"
     borderopacity="0.25"
     inkscape:showpageshadow="2"
     inkscape:pageopacity="0.0"
     inkscape:pagecheckerboard="0"
     inkscape:deskcolor="#d1d1d1"
     showgrid="false"
     showguides="false"
     inkscape:zoom="0.0646875"
     inkscape:cx="1437.6812"
     inkscape:cy="1437.6812"
     inkscape:window-width="1920"
     inkscape:window-height="1011"
     inkscape:window-x="0"
     inkscape:window-y="0"
     inkscape:window-maximized="1"
     inkscape:current-layer="g182"><inkscape:grid
       type="xygrid"
       id="grid2722" /></sodipodi:namedview><g
     inkscape:groupmode="layer"
     inkscape:label="Image"
     id="g182"
     transform="translate(-2356.176,-2206.6609)"><g
       id="g207692"
       inkscape:export-filename="lights1.svg"
       inkscape:export-xdpi="246.60997"
       inkscape:export-ydpi="246.60997"><g
         id="g202593"
         transform="matrix(1.0913596,0,0,1.0935676,-2714.3852,-870.69829)"
         style="stroke-width:0.91536"><path
           style="fill:none;fill-opacity:1;stroke:#000000;stroke-width:2.88664;stroke-linecap:round;stroke-linejoin:miter;stroke-dasharray:none"
           id="path42736-1-6-0-0-2-4-0-4"
           d="m 5402.4876,3384.5155 c 0,1.5658 -0.6391,2.7577 -1.3773,4.0178 -0.9262,0.987 -1.1632,2.4918 -2.375,3.2978 -1.2135,0.8072 -3.3526,0.9733 -4.9196,0.9733 -1.5658,0 -3.1426,-0.5467 -4.3821,-1.2532 -1.3361,-0.8374 -2.1997,-1.65 -2.8841,-2.8043 -0.7167,-1.209 -0.9451,-2.5455 -0.9451,-4.1476 0,-1.5658 0.2222,-3.339 0.9373,-4.612 0.5334,-1.5731 2.0865,-2.1567 3.3743,-2.8336 1.2805,-0.6732 2.4793,-1.1453 4.0407,-1.1453 1.5658,0 3.1903,0.5101 4.4501,1.2481 1.3947,0.8117 2.2579,1.7395 2.9548,2.9478 0.7226,1.2528 1.126,2.717 1.126,4.3112 z"
           sodipodi:type="arc"
           sodipodi:ry="8.5055704"
           sodipodi:rx="8.505558"
           sodipodi:cy="3384.5125"
           sodipodi:cx="5393.9546"
           inkscape:path-effect="#path-effect43789-7-0-2-5-4-1-57" /><path
           style="fill:#000000;fill-opacity:1;stroke:#000000;stroke-width:2.88664;stroke-linecap:round;stroke-linejoin:miter;stroke-dasharray:none"
           id="path42736-1-0-43-5-9-8-31-6-9"
           d="m 5402.5837,3418.9262 c 0,1.5659 -0.4539,3.5994 -1.192,4.8594 -0.6648,1.8005 -1.6522,2.7629 -2.887,3.3591 -1.294,0.6247 -3.0974,0.042 -4.6999,0.042 -1.5658,0 -2.8207,-0.5584 -4.0531,-1.2608 -1.0363,-0.8617 -2.4822,-1.6971 -3.24,-2.8746 -0.7638,-1.1867 -0.9724,-2.8019 -0.9724,-4.3738 0,-1.5658 0.7175,-2.9885 1.4477,-4.2123 1.0086,-1.1701 1.6242,-2.3366 2.7539,-3.0392 1.1994,-0.746 2.6751,-0.7609 4.2877,-0.7609 1.5658,0 3.364,0.4015 4.6185,1.1029 1.5649,0.6934 2.0573,1.3517 2.7054,2.5406 0.6745,1.2374 1.2312,3.0202 1.2312,4.6173 z"
           sodipodi:type="arc"
           sodipodi:ry="8.5055704"
           sodipodi:rx="8.505558"
           sodipodi:cy="3418.9229"
           sodipodi:cx="5393.9912"
           inkscape:path-effect="#path-effect43789-1-41-6-7-6-4-6-4" /><path
           style="fill:none;fill-opacity:1;stroke:#000000;stroke-width:2.88664;stroke-linecap:round;stroke-linejoin:miter;stroke-dasharray:none"
           id="path42736-1-0-0-3-6-5-9-49-8-7"
           d="m 5402.4369,3457.0439 c 0,1.5658 -0.4424,3.0139 -1.1806,4.274 -0.7961,1.3173 -1.9002,2.5952 -3.126,3.3146 -1.2524,0.735 -2.254,1.0083 -3.8366,1.0083 -1.5659,0 -3.2874,-0.9445 -4.5942,-1.7095 -1.441,-1.2163 -2.2933,-1.9316 -3.0153,-2.9928 -0.8228,-1.2097 -0.9053,-2.2793 -0.9053,-3.9475 0,-1.5658 0.433,-3.1114 1.1257,-4.377 0.7304,-1.3286 1.6439,-2.3215 2.8328,-3.0456 1.2106,-0.7373 2.666,-1.6637 4.246,-1.6637 1.5658,0 3.1974,0.5374 4.4567,1.3561 1.4069,0.8611 2.1604,2.5463 2.8554,3.8499 0.7146,1.3403 1.1414,2.3455 1.1414,3.9332 z"
           sodipodi:type="arc"
           sodipodi:ry="8.5055704"
           sodipodi:rx="8.505558"
           sodipodi:cy="3456.9541"
           sodipodi:cx="5393.978"
           inkscape:path-effect="#path-effect43789-1-3-8-4-3-2-3-2-3" /><path
           style="fill:none;fill-opacity:1;stroke:#000000;stroke-width:2.88664;stroke-linecap:round;stroke-linejoin:miter;stroke-dasharray:none"
           id="path42736-1-0-4-3-6-2-7-2-7-9"
           d="m 5402.4369,3493.3939 c 0,1.5659 -0.4424,3.4408 -1.1806,4.7009 -0.7763,1.7697 -1.845,2.111 -3.0268,2.7102 -1.274,0.646 -2.3112,0.8402 -3.9358,0.8402 -1.5659,0 -3.2874,-0.5019 -4.5942,-1.2245 -1.497,-0.7967 -2.3848,-1.6856 -3.1128,-2.8707 -0.7614,-1.2396 -0.8078,-2.5883 -0.8078,-4.1893 0,-1.5658 0.433,-2.8383 1.1257,-4.1155 0.7429,-1.0813 1.6795,-2.7566 2.8979,-3.5652 1.1968,-0.7942 2.6291,-0.9354 4.1809,-0.9354 1.5658,0 3.1974,0.4135 4.4567,1.1509 1.4138,0.7222 2.1716,1.3784 2.867,2.6259 0.7072,1.2686 1.1298,3.2935 1.1298,4.8725 z"
           sodipodi:type="arc"
           sodipodi:ry="8.5055704"
           sodipodi:rx="8.505558"
           sodipodi:cy="3493.2449"
           sodipodi:cx="5393.978"
           inkscape:path-effect="#path-effect43789-1-4-5-6-90-9-0-0-9" /><path
           style="fill:#000000;fill-opacity:1;stroke:#000000;stroke-width:2.88664;stroke-linecap:round;stroke-linejoin:miter;stroke-dasharray:none"
           id="path42736-1-0-7-8-4-1-3-06-4-7"
           d="m 5427.7255,3492.8104 c 0,1.5659 -0.4424,3.5225 -1.1806,4.7826 -0.7882,1.4904 -1.8779,2.6416 -3.0859,3.3141 -1.2613,0.7021 -2.2772,0.8178 -3.8768,0.8178 -1.5658,0 -3.2873,-0.055 -4.5942,-0.8189 -1.5605,-0.3961 -2.4875,-1.9699 -3.2191,-3.4 -0.6942,-1.3573 -0.7015,-2.8447 -0.7015,-4.3695 0,-1.5659 0.433,-3.0554 1.1258,-4.3294 0.7331,-1.2796 1.6516,-2.5294 2.8469,-3.2779 1.2076,-0.7561 2.658,-0.9421 4.2318,-0.9421 1.5659,0 3.1974,0.3323 4.4567,1.063 1.4238,0.6451 2.1876,1.4258 2.8836,2.6989 0.6968,1.2744 1.1133,2.8948 1.1133,4.4614 z"
           sodipodi:type="arc"
           sodipodi:ry="8.5055704"
           sodipodi:rx="8.505558"
           sodipodi:cy="3493.0425"
           sodipodi:cx="5419.2666"
           inkscape:path-effect="#path-effect43789-1-44-9-2-1-1-7-22-4" /><path
           style="fill:#000000;fill-opacity:1;stroke:#000000;stroke-width:2.88664;stroke-linecap:round;stroke-linejoin:miter;stroke-dasharray:none"
           id="path42736-1-0-3-6-0-3-6-8-92-5"
           d="m 5427.6212,3456.7249 c 0,1.5658 -0.2959,2.5139 -1.0341,3.774 -0.8162,0.6958 -2.1578,2.2976 -3.4588,3.1946 -1.2189,0.8403 -2.1963,1.7707 -3.7112,1.7707 -1.5658,0 -3.1349,-0.7937 -4.4128,-1.5537 -1.314,-1.083 -2.427,-1.7551 -3.1556,-2.8834 -0.7912,-1.2252 -0.7163,-2.4228 -0.7163,-4.053 0,-1.5658 0.3237,-3.0207 1.0113,-4.3049 0.6315,-1.2641 1.4799,-2.4099 2.718,-3.1807 1.2187,-0.7588 3.397,-1.1775 4.9505,-1.1775 1.5659,0 2.8855,0.5212 4.0693,1.2586 1.0877,0.8323 1.855,1.6564 2.5389,2.8828 0.6907,1.2387 1.2008,2.6988 1.2008,4.2725 z"
           sodipodi:type="arc"
           sodipodi:ry="8.5055704"
           sodipodi:rx="8.505558"
           sodipodi:cy="3456.8113"
           sodipodi:cx="5419.2969"
           inkscape:path-effect="#path-effect43789-1-6-7-5-50-2-8-9-4" /><path
           style="fill:#000000;fill-opacity:1;stroke:#000000;stroke-width:2.88664;stroke-linecap:round;stroke-linejoin:miter;stroke-dasharray:none"
           id="path42736-1-0-75-0-0-2-1-9-4-1"
           d="m 5427.6594,3418.6734 c 0,1.5658 -0.3216,2.6485 -1.0597,3.9086 -0.7561,0.6283 -2.0853,2.4639 -3.4213,3.3837 -1.2261,0.8443 -2.2456,1.6677 -3.7443,1.6677 -1.5658,0 -2.9352,0.2157 -4.2237,-0.5451 -1.2525,-0.154 -2.9162,-1.8306 -3.719,-3.3967 -0.7058,-1.3768 -0.2499,-3.1593 -0.2499,-4.6244 0,-1.5659 0.5545,-2.8286 1.2177,-4.1024 0.8485,-1.0549 1.4544,-1.9687 2.5873,-2.7736 1.1407,-0.8103 2.8376,-1.7536 4.4088,-1.7536 1.5659,0 3.0016,0.2442 4.23,0.987 1.2436,0.5741 2.1478,1.8616 2.8577,3.2038 0.6842,1.2936 1.1164,2.508 1.1164,4.045 z"
           sodipodi:type="arc"
           sodipodi:ry="8.5055704"
           sodipodi:rx="8.505558"
           sodipodi:cy="3418.9749"
           sodipodi:cx="5419.2417"
           inkscape:path-effect="#path-effect43789-1-1-5-8-697-7-6-74-0" /><path
           style="fill:none;fill-opacity:1;stroke:#000000;stroke-width:2.88664;stroke-linecap:round;stroke-linejoin:miter;stroke-dasharray:none"
           id="path42736-1-0-6-4-4-73-2-26-4-3"
           d="m 5427.8998,3384.2938 c 0,1.5658 -0.4424,3.6545 -1.1806,4.9145 -0.7815,1.6434 -1.8594,1.9625 -3.0526,2.5945 -1.2685,0.6719 -2.2963,1.1515 -3.9101,1.1515 -1.5658,0 -3.2873,-0.746 -4.5942,-1.4775 -1.464,-1.0245 -2.3311,-1.3999 -3.0559,-2.4965 -0.7972,-1.2064 -0.8647,-2.6079 -0.8647,-4.2483 0,-1.5658 0.4331,-3.0049 1.1258,-4.3003 0.7361,-1.24 1.6601,-2.5522 2.8625,-3.3391 1.2043,-0.7882 2.6492,-1.2391 4.2163,-1.2391 1.5658,0 3.1974,0.3932 4.4567,1.1513 1.4188,0.7098 2.1795,1.8971 2.8753,3.1808 0.702,1.2952 1.1215,2.5354 1.1215,4.1082 z"
           sodipodi:type="arc"
           sodipodi:ry="8.5055704"
           sodipodi:rx="8.505558"
           sodipodi:cy="3384.4937"
           sodipodi:cx="5419.4409"
           inkscape:path-effect="#path-effect43789-1-9-3-6-92-0-8-3-6" /></g><rect
         style="opacity:0;fill:#000000;fill-opacity:1;stroke:none;stroke-width:4;stroke-linecap:round;stroke-linejoin:bevel;stroke-dasharray:none"
         id="rect26104-7"
         width="1331.5364"
         height="846.6637"
         x="2356.176"
         y="2206.6609" /></g></g></svg>
