<?xml version="1.0" encoding="UTF-8" standalone="no"?>
<!-- Created with Inkscape (http://www.inkscape.org/) -->

<svg
   version="1.1"
   id="svg176"
   width="93.432739"
   height="93.432739"
   viewBox="0 0 93.432739 93.432739"
   sodipodi:docname="logo.svg"
   xml:space="preserve"
   inkscape:version="1.2.2 (b0a8486541, 2022-12-01)"
   xmlns:inkscape="http://www.inkscape.org/namespaces/inkscape"
   xmlns:sodipodi="http://sodipodi.sourceforge.net/DTD/sodipodi-0.dtd"
   xmlns="http://www.w3.org/2000/svg"
   xmlns:svg="http://www.w3.org/2000/svg"><defs
     id="defs180"><linearGradient
       id="linearGradient1486"
       inkscape:swatch="solid"><stop
         style="stop-color:#000000;stop-opacity:1;"
         offset="0"
         id="stop1484" /></linearGradient></defs><sodipodi:namedview
     id="namedview178"
     pagecolor="#ffffff"
     bordercolor="#000000"
     borderopacity="0.25"
     inkscape:showpageshadow="2"
     inkscape:pageopacity="0.0"
     inkscape:pagecheckerboard="0"
     inkscape:deskcolor="#d1d1d1"
     showgrid="false"
     showguides="false"
     inkscape:zoom="2.0817493"
     inkscape:cx="-1753.3331"
     inkscape:cy="1351.7478"
     inkscape:window-width="1920"
     inkscape:window-height="1011"
     inkscape:window-x="0"
     inkscape:window-y="0"
     inkscape:window-maximized="1"
     inkscape:current-layer="g182"><inkscape:grid
       type="xygrid"
       id="grid2722" /></sodipodi:namedview><g
     inkscape:groupmode="layer"
     inkscape:label="Image"
     id="g182"
     transform="translate(9094.1162,5913.9839)"><g
       id="g72840"><rect
         style="opacity:0;fill:#000000;fill-opacity:1;stroke-width:0.0093319;stroke-linejoin:round"
         id="rect72023"
         width="93.432739"
         height="93.432739"
         x="-9094.1162"
         y="-5913.9839" /><g
         id="g124127-7-8-6"
         inkscape:export-filename="logo.png"
         inkscape:export-xdpi="17.554285"
         inkscape:export-ydpi="17.554285"
         transform="matrix(0.17233067,0,0,0.17233067,-8160.8749,-4737.5597)"
         style="stroke-width:5.8028"><path
           style="fill:#000000;fill-opacity:1;stroke-width:7.37756"
           d="m -5170.3098,-6362.2454 c -4.3013,4.4967 -5.5827,5.1015 -10.8072,5.1015 -5.2363,0 -9.041,-1.1698 -12.8291,-5.4564 -2.3584,-2.6688 -4.768,-7.8043 -5.4584,-10.622 -1.4235,-2.736 -1.4563,-11.7282 -1.3512,-14.7997 0.1509,-4.7779 1.1094,-17.716 0.2336,-21.7317 -0.8699,-3.9896 -1.354,-7.274 -3.0158,-7.9749 -0.7301,-0.3078 -7.3626,2.7716 -7.3626,2.7716 l -12.9441,4.1405 -23.9644,9.9428 -18.2218,9.6551 -2.7034,1.4778 -14.1616,8.8504 -27.0274,13.1125 -10.8653,6.2152 c 0,0 -22.7131,11.811 -30.9053,2.5542 -7.5153,-8.4919 -7.4338,-16.3725 -7.4338,-16.3725 l 0.8159,-23.5559 -0.3894,-65.0112 -1.8213,-27.1683 -1.8368,-30.6446 -2.622,-26.4364 -2.6476,-29.2198 -2.4897,-57.1761 -1.297,-46.459 0.016,-19.0735 c 0,0 3.5867,-16.9885 7.5486,-20.6075 3.5888,-3.2784 11.0203,-5.5273 15.0503,-4.5545 5.0557,1.2204 15.0948,16.3104 15.0948,16.3104 l 2.7793,9.8611 -0.5079,11.0796 -0.273,40.8457 0.2449,20.0862 0.2366,17.928 1.1733,21.4319 1.0702,15.7383 c 0.1467,6.4841 0.7704,17.0932 1.2447,23.5553 l 1.6617,45.5769 4.8458,72.4271 -0.053,12.2725 c 0,0 -0.3012,8.5958 1.535,9.45 1.5112,0.5422 2.6837,1.5217 5.7296,-2.0416 1.5072,-1.7631 5.5295,-4.2082 8.9385,-5.4336 3.4091,-1.2255 7.5676,-3.2864 9.2411,-4.58 2.7955,-2.161 28.396,-15.9695 29.6068,-15.9695 0.2903,0 3.4514,-1.4696 7.0249,-3.2659 3.5734,-1.7963 9.1579,-4.2429 12.4101,-5.4368 3.2523,-1.1939 9.1879,-3.8706 13.1903,-5.9484 6.9524,-3.6091 11.2448,-5.087 23.6307,-8.1365 l 5.5555,-1.3679 -1.0459,-6.1525 -2.062,-16.4603 c 0,0 -1.0215,-31.756 -3.1708,-52.7388 -1.009,-9.8512 -2.077,-20.8964 -2.3733,-24.545 -0.2963,-3.6486 -1.1053,-11.4101 -1.7975,-17.2479 -0.6923,-5.8377 -1.7194,-22.5549 -1.7194,-22.5549 l -4.8658,-47.74 c 0,0 -3.2726,-21.198 -3.5978,-33.2384 -0.3253,-12.0403 -2.3021,-27.6537 -2.5147,-30.9374 -0.5196,-8.0292 -1.7787,-21.3592 -0.9837,-25.2457 0.5122,-2.5044 -1.0798,-5.3969 1.2421,-11.2783 2.4441,-6.1905 13.5592,-5.6588 16.2771,-5.8969 4.8827,-0.4277 3.2157,-0.8091 9.4209,-0.2309 7.0305,0.655 10.8125,3.8041 11.4106,8.4197 0.5808,4.4806 1.0582,12.2211 1.359,15.5856 0.2984,3.3371 0.1985,13.1038 0.6837,15.5762 0.1586,0.8078 0.4445,21.0945 0.6035,25.3809 0.3279,8.8316 2.3184,21.991 2.4513,38.0125 0.1974,23.7976 0.5905,29.8692 1.3947,37.5313 1.4564,13.8737 2.6243,36.6163 2.6243,36.6163 l 5.3741,68.9916 c 0,0 1.7296,28.5537 3.2589,39.1394 1.4137,9.7875 2.027,19.237 2.669,41.1295 0.6357,21.6737 3.0645,39.3835 3.3215,40.5859 0,0 1.0312,5.2353 1.0312,10.7782 0,10.049 -4.8798,15.1795 -4.8798,15.1795 z"
           id="path56835-10-5-8-5"
           sodipodi:nodetypes="sssccssccccccccsccccccccccsscccccccccccccsssssssscccsssccssssssssssssccsssscs" /><path
           style="fill:#000000;fill-opacity:1;stroke-width:7.95656"
           d="m -4925.9191,-6363.635 c -12.3226,10.8637 -15.44,10.8961 -27.0406,0.071 -7.6179,-7.4477 -25.0142,-29.9013 -36.7572,-41.7584 -7.3185,-8.3268 -17.4698,-19.5594 -23.3839,-27.0036 -10.5006,-13.295 -7.8851,-10.2479 -15.941,-18.4872 -3.7689,-3.8548 -7.1578,-11.2266 -10.7055,-15.6372 -3.5475,-4.4103 -9.3969,-10.1374 -10.7953,-11.7154 -1.3985,-1.5781 -6.1904,-8.2493 -12.1304,-15.3437 -5.94,-7.0947 -6.9883,-11.3965 -8.5869,-12.03 -1.5989,-0.6336 -8.6015,-10.7902 -8.6015,-10.7902 0,0 -4.8236,-6.0555 -9.4728,-10.6271 -4.5819,-4.505 -11.381,-15.2298 -11.4195,-17.7096 -0.039,-2.4798 0.7634,-5.6989 1.3197,-6.8537 0.556,-1.155 6.7404,-14.147 6.7404,-14.147 l 13.9886,-20.6612 9.9974,-13.4523 8.4741,-11.9593 10.7302,-15.4 21.303,-30.3331 10.1832,-12.5558 10.7229,-15.6114 16.9206,-22.9554 c 0,0 15.8419,-21.6335 23.9042,-32.3649 2.5795,-3.509 10.1853,-14.2893 13.8785,-14.4987 3.9302,-0.2226 12.4111,5.283 16.0108,8.6485 5.133,4.7988 11.2967,4.7425 3.7337,20.6375 -3.2573,6.8459 -15.7745,23.0366 -15.7745,23.0366 l -14.5211,22.2361 -11.2906,15.8494 -11.3609,15.5781 -30.2039,38.9399 -24.4398,32.9931 -6.1129,10.6195 c 0,0 -6.8275,9.8532 -6.7624,11.2198 0.066,1.3663 1.3877,4.1137 2.9392,6.1051 9.1375,11.7288 22.7594,30.8106 22.7594,30.8106 l 13.6399,17.7494 5.783,7.6926 5.0558,6.267 8.0899,9.8519 2.7469,3.5739 2.1792,3.4088 3.5467,5.386 4.1087,5.4342 8.664,8.3926 7.0726,9.2585 6.2228,8.0429 c 4.6641,5.6512 8.5611,10.5835 12.3745,15.6348 0,0 9.2915,12.2602 13.0864,16.2737 4.6351,4.9023 10.2737,12.3014 14.6238,18.4304 5.928,8.3521 3.2921,10.7971 -5.4994,19.7542 z"
           id="path56837-0-2-9-1"
           sodipodi:nodetypes="ccccssssscszzccccccccccssscccccccsscccccccccccccssc" /></g></g></g></svg>
