<?xml version="1.0" encoding="UTF-8" standalone="no"?>
<!-- Created with Inkscape (http://www.inkscape.org/) -->

<svg
   version="1.1"
   id="svg176"
   width="1750"
   height="400"
   viewBox="0 0 1750 400"
   sodipodi:docname="website for ai.svg"
   xml:space="preserve"
   inkscape:version="1.2.2 (b0a8486541, 2022-12-01)"
   xmlns:inkscape="http://www.inkscape.org/namespaces/inkscape"
   xmlns:sodipodi="http://sodipodi.sourceforge.net/DTD/sodipodi-0.dtd"
   xmlns="http://www.w3.org/2000/svg"
   xmlns:svg="http://www.w3.org/2000/svg"><defs
     id="defs180"><linearGradient
       id="linearGradient1486"
       inkscape:swatch="solid"><stop
         style="stop-color:#000000;stop-opacity:1;"
         offset="0"
         id="stop1484" /></linearGradient><inkscape:path-effect
       effect="roughen"
       id="path-effect57270-5-0"
       is_visible="true"
       lpeversion="1.2"
       method="segments"
       max_segment_size="1.07906"
       segments="1"
       displace_x="4;1"
       displace_y="4;1"
       global_randomize="1;1"
       handles="along"
       shift_nodes="true"
       fixed_displacement="false"
       spray_tool_friendly="false" /><inkscape:path-effect
       effect="roughen"
       id="path-effect57270-8-0-36"
       is_visible="true"
       lpeversion="1.2"
       method="segments"
       max_segment_size="1.07906"
       segments="1"
       displace_x="4;2139095038"
       displace_y="4;1023281806"
       global_randomize="1;1"
       handles="along"
       shift_nodes="true"
       fixed_displacement="false"
       spray_tool_friendly="false" /></defs><sodipodi:namedview
     id="namedview178"
     pagecolor="#ffffff"
     bordercolor="#000000"
     borderopacity="0.25"
     inkscape:showpageshadow="2"
     inkscape:pageopacity="0.0"
     inkscape:pagecheckerboard="0"
     inkscape:deskcolor="#d1d1d1"
     showgrid="false"
     showguides="false"
     inkscape:zoom="0.26021866"
     inkscape:cx="-3447.101"
     inkscape:cy="-1906.0893"
     inkscape:window-width="1920"
     inkscape:window-height="1011"
     inkscape:window-x="0"
     inkscape:window-y="0"
     inkscape:window-maximized="1"
     inkscape:current-layer="g182"><inkscape:grid
       type="xygrid"
       id="grid2722" /></sodipodi:namedview><g
     inkscape:groupmode="layer"
     inkscape:label="Image"
     id="g182"
     transform="translate(7005.3553,6314.0513)"><g
       id="g137421"
       inkscape:export-filename="logo-white.svg"
       inkscape:export-xdpi="246.60997"
       inkscape:export-ydpi="246.60997"><path
         style="fill:#e6e6e6;fill-opacity:1;stroke:none;stroke-width:1.98133;stroke-opacity:1"
         d="m -5518.4906,-6161.6729 -5.5157,26.4271 -8.2819,33.438 -4.9766,21.1922 -13.1687,58.8676 -6.6313,25.9019 -5.1485,25.9015 c 0,0 -1.3378,9.0024 -6.4037,37.6977 -5.5279,10.3602 -8.3958,17.955 -20.6721,18.1927 -12.2359,0.2368 -14.3636,-14.6305 -14.3636,-14.6305 l -7.7825,-23.6893 -6.0487,-20.9084 -11.3855,-37.3264 -8.3076,-24.5567 -6.906,-25.4775 -10.2811,-28.0924 -9.915,-28.7453 -8.175,-25.3663 -7.8263,-22.7447 c 0,0 -9.1137,-28.9288 -13.2565,-40.4713 -2.9251,-12.5232 -5.4746,-14.6334 -1.1685,-26.6198 1.569,-4.3674 7.2591,-10.9305 12.6601,-11.3101 8.6602,-0.6088 10.4079,3.3204 16.7467,21.9102 4.4703,13.1101 19.1109,60.2591 19.1109,60.2591 l 16.7295,53.5493 8.6941,23.5194 9.8169,26.279 8.1123,21.5082 12.0212,31.1629 6.4215,-3.6574 11.7817,-58.6617 7.7231,-36.4948 9.0303,-41.5427 10.1413,-48.8067 c 0,0 4.3583,-23.8654 8.1929,-38.9191 2.1783,-8.551 8.1149,-9.3697 15.2913,-9.898 10.1211,3.7784 12.6046,6.4357 14.005,15.5579 2.1049,15.4338 -3.8932,36.3733 -3.8932,36.3733 z"
         id="path56837-9-3-6"
         sodipodi:nodetypes="ccccccccscccccccccccssscccccccccccscccc" /><path
         style="fill:#e6e6e6;fill-opacity:1;stroke:none;stroke-width:1.37531;stroke-opacity:1"
         d="m -5258.2773,-5924.6877 c -4.8121,5.1338 -9.429,10.6287 -14.1447,10.6363 -7.5082,0.012 -20.1762,-18.5972 -20.1762,-18.5972 l -3.9427,-3.7855 -24.1293,-27.742 -8.1624,-9.1974 -26.8809,-29.0081 -16.8112,-18.9288 -23.1179,-30.5223 c 0,0 -11.4295,-11.4691 -12.2817,-16.9306 -1.9594,-12.5566 0.1776,-17.6115 13.2806,-31.4172 6.2582,-6.5935 12.8219,-17.3816 15.9017,-21.4894 5.4553,-7.2767 4.0153,-8.0216 18.4236,-26.3663 3.8093,-4.8499 12.752,-17.6235 16.0823,-22.2381 13.5601,-18.7891 18.5535,-25.5815 23.277,-32.2586 10.3901,-14.6872 12.5922,-20.27 12.5922,-20.27 l 4.6976,-8.3574 8.137,-10.27 c 0,0 10.2692,-4.8484 14.5113,-1.3569 3.002,2.4712 7.7221,8.4603 7.7221,13.5597 0,3.5976 0.083,9.1127 0.083,9.1127 l -17.15,30.2398 -7.7975,12.5048 -6.527,10.4654 c 0,0 -3.5059,6.2754 -14.1309,18.7088 -5.7675,6.7492 -13.2698,17.2314 -16.6721,23.2939 -3.4021,6.0625 -9.3181,14.6601 -13.1463,19.1061 -6.8277,7.9287 -12.3435,15.6545 -16.5548,23.1877 -2.0817,3.7235 -5.6046,7.8667 -0.8497,14.4685 2.6619,3.6956 10.0874,13.1192 16.5016,20.9416 13.6971,16.7039 19.098,24.359 20.7455,26.0771 7.1203,7.4254 34.4488,38.5111 38.9966,44.1694 7.6908,9.5686 12.7675,15.3991 21.4084,25.9153 15.1912,19.0682 14.9274,21.2149 10.1156,26.3487 z"
         id="path56837-7-6-3"
         sodipodi:nodetypes="zscccccccsssssscccssccccsssssssscz" /><path
         style="fill:#e6e6e6;fill-opacity:1;stroke:none;stroke-width:1.27138;stroke-opacity:1"
         d="m -6804.2498,-5920.8307 c -4.3013,4.4967 -5.5827,5.1015 -10.8072,5.1015 -5.2363,0 -9.041,-1.1698 -12.8291,-5.4564 -2.3584,-2.6688 -4.768,-7.8043 -5.4584,-10.622 -1.4235,-2.736 -1.4563,-11.7282 -1.3512,-14.7997 0.1509,-4.7779 1.1094,-17.716 0.2336,-21.7317 -0.8699,-3.9896 -1.354,-7.274 -3.0158,-7.9749 -0.7301,-0.3078 -7.3626,2.7716 -7.3626,2.7716 l -12.9441,4.1405 -23.9644,9.9428 -18.2218,9.6551 -2.7034,1.4778 -14.1616,8.8504 -27.0274,13.1125 -10.8653,6.2152 c 0,0 -22.7131,11.811 -30.9053,2.5542 -7.5153,-8.4919 -7.4338,-16.3725 -7.4338,-16.3725 l 0.8159,-23.5559 -0.3894,-65.0112 -1.8213,-27.1683 -1.8368,-30.6446 -2.622,-26.4364 -2.6476,-29.2198 -2.4897,-57.1761 -1.297,-46.459 0.016,-19.0735 c 0,0 3.5867,-16.9885 7.5486,-20.6075 3.5888,-3.2784 11.0203,-5.5273 15.0503,-4.5545 5.0557,1.2204 15.0948,16.3104 15.0948,16.3104 l 2.7793,9.8611 -0.5079,11.0796 -0.273,40.8457 0.2449,20.0862 0.2366,17.928 1.1733,21.4319 1.0702,15.7383 c 0.1467,6.4841 0.7704,17.0932 1.2447,23.5553 l 1.6617,45.5769 4.8458,72.4271 -0.053,12.2725 c 0,0 -0.3012,8.5958 1.535,9.45 1.5112,0.5422 2.6837,1.5217 5.7296,-2.0416 1.5072,-1.7631 5.5295,-4.2082 8.9385,-5.4336 3.4091,-1.2255 7.5676,-3.2864 9.2411,-4.58 2.7955,-2.161 28.396,-15.9695 29.6068,-15.9695 0.2903,0 3.4514,-1.4696 7.0249,-3.2659 3.5734,-1.7963 9.1579,-4.2429 12.4101,-5.4368 3.2523,-1.1939 9.1879,-3.8706 13.1903,-5.9484 6.9524,-3.6091 11.2448,-5.087 23.6307,-8.1365 l 5.5555,-1.3679 -1.0459,-6.1525 -2.062,-16.4603 c 0,0 -1.0215,-31.756 -3.1708,-52.7388 -1.009,-9.8512 -2.077,-20.8964 -2.3733,-24.545 -0.2963,-3.6486 -1.1053,-11.4101 -1.7975,-17.2479 -0.6923,-5.8377 -1.7194,-22.5549 -1.7194,-22.5549 l -4.8658,-47.74 c 0,0 -3.2726,-21.198 -3.5978,-33.2384 -0.3253,-12.0403 -2.3021,-27.6537 -2.5147,-30.9374 -0.5196,-8.0292 -1.7787,-21.3592 -0.9837,-25.2457 0.5122,-2.5044 -1.0798,-5.3969 1.2421,-11.2783 2.4441,-6.1905 13.5592,-5.6588 16.2771,-5.8969 4.8827,-0.4277 3.2157,-0.8091 9.4209,-0.2309 7.0305,0.655 10.8125,3.8041 11.4106,8.4197 0.5808,4.4806 1.0582,12.2211 1.359,15.5856 0.2984,3.3371 0.1985,13.1038 0.6837,15.5762 0.1586,0.8078 0.4445,21.0945 0.6035,25.3809 0.3279,8.8316 2.3184,21.991 2.4513,38.0125 0.1974,23.7976 0.5905,29.8692 1.3947,37.5313 1.4564,13.8737 2.6243,36.6163 2.6243,36.6163 l 5.3741,68.9916 c 0,0 1.7296,28.5537 3.2589,39.1394 1.4137,9.7875 2.027,19.237 2.669,41.1295 0.6357,21.6737 3.0645,39.3835 3.3215,40.5859 0,0 1.0312,5.2353 1.0312,10.7782 0,10.049 -4.8798,15.1795 -4.8798,15.1795 z"
         id="path56835-10-2"
         sodipodi:nodetypes="sssccssccccccccsccccccccccsscccccccccccccsssssssscccsssccssssssssssssccsssscs" /><path
         style="fill:#e6e6e6;fill-opacity:1;stroke:none;stroke-width:1.09539;stroke-opacity:1"
         d="m -6636.8835,-5935.3066 c -0.5854,0.8544 -0.9076,1.8854 -0.7161,2.2913 0.192,0.4059 -1.8046,3.0529 -4.4366,5.8824 l -4.7851,5.1446 -13.7001,0.7168 c -12.7331,0.6662 -21.1072,0.5368 -33.2011,1.3566 -8.6605,0.587 -13.9535,0.01 -20.9078,0.3685 -2.8376,0.1462 -6.5705,0.6028 -8.2952,1.014 -1.7247,0.4113 -6.2995,0.7301 -10.1662,0.7083 -3.8997,-0.022 -8.9923,0.7924 -11.4359,1.8284 -2.4227,1.0274 -5.3328,1.9006 -6.4665,1.9407 -3.0499,0.1073 -10.6445,-2.2362 -10.5747,-3.2629 0.034,-0.4887 -1.4297,-2.0785 -3.251,-3.5329 -3.833,-3.0606 -4.5168,-5.998 -3.757,-16.1355 0.2981,-3.9784 0.1746,-7.8024 -0.2744,-8.498 -0.7494,-1.1602 -1.0048,-18.2308 -1.0048,-18.2308 l 3.1023,-43.1789 -1.6048,-51.3281 0.3501,-49.8626 0.072,-56.0575 1.9942,-38.9649 c 0,0 1.3585,-22.6312 1.951,-25.3777 0.4668,-2.1645 0.5903,-9.3842 2.4827,-11.2427 1.8925,-1.8586 4.4667,-3.476 5.5203,-3.64 2.3424,-0.3644 2.7724,-1.1122 7.0855,-0.3622 3.2523,0.5655 6.7875,2.3928 9.3775,4.5424 2.0572,1.7074 4.0567,4.1615 4.7361,6.3324 1.1792,12.727 -0.243,22.0743 -0.6872,27.5789 -0.561,7.1106 -0.6521,13.5089 -0.6071,14.445 0.045,0.936 -0.7469,6.0606 -1.1635,11.7644 -0.4079,5.5847 -0.598,13.3617 -0.807,17.3843 -0.2094,4.0228 -0.884,15.6634 -1.4998,25.8678 -0.6161,10.2047 -0.6113,25.9413 -0.6113,25.9413 l 1.0459,36.4463 0.364,6.2453 -0.052,10.2499 0.2933,42.2609 -1.5696,40.3151 c 0,0 -0.7643,11.463 4.9234,20.4901 1.6487,2.1051 -1.1026,1.9991 46.3979,1.786 15.4527,-0.07 19.0724,-0.8828 27.9905,-1.0836 12.5641,-0.2827 23.9162,0.9362 24.6772,11.1952 0.2079,2.8049 -0.2036,5.8069 -0.789,6.6614 z"
         id="path56835-1-6-6"
         sodipodi:nodetypes="ssscsssssssssssccccccsssssccsssscccccccsssss" /><path
         style="fill:#e6e6e6;fill-opacity:1;stroke:none;stroke-width:1.08374;stroke-opacity:1"
         d="m -6469.9616,-6226.0986 c 0.1394,7.8913 -1.4057,10.8525 -6.9508,12.7096 -3.7874,1.2683 -23.5907,4.8162 -35.0813,6.438 -1.4561,0.2056 -14.9595,3.5007 -22.8449,4.5551 -9.9098,1.3251 -12.9787,6.0462 -13.9354,9.97 -0.5202,2.1336 -0.8635,12.8361 -1.1614,30.5147 -0.2979,17.6784 -1.0015,35.3845 -1.5635,39.3469 -1.0388,7.324 -1.4208,20.6712 -0.9357,32.6969 0.4537,11.2522 0.7294,29.8396 0.7294,29.8396 l 1.8523,61.3957 c 0,0 1.71,10.1988 1.6547,31.7935 -0.103,40.194 0.2766,49.4063 -6.0535,51.0373 -10.4507,2.6926 -10.5629,2.5011 -20.1863,-2.1481 -4.171,-2.0151 -3.2472,-21.2632 -3.2286,-23.7799 0.015,-1.9844 0.6159,-43.3973 0.6159,-43.3973 l -1.0022,-16.0714 -3.0132,-64.2876 0.059,-46.3923 0.8422,-39.6814 0.6303,-36.2064 c 0,0 1.4008,-8.8834 -3.0292,-8.807 -2.8825,0.05 -15.1363,1.9482 -17.7821,2.5902 -3.4712,0.8425 -11.7569,1.8859 -15.6453,2.8978 -1.6837,0.4382 -8.8399,0.9452 -11.3764,1.629 -5.065,1.3659 -13.6923,2.9884 -19.7474,2.8028 -4.2287,-0.1297 -4.6171,-1.7188 -5.3994,-8.5694 -0.7814,-6.8424 -5.4509,-17.6787 1.9875,-19.4725 11.6601,-2.8118 26.1736,-8.093 26.1736,-8.093 l 15.5421,-1.8904 14.4912,-2.2694 13.1238,-2.2911 16.5213,-2.2906 12.6517,-1.6094 c 2.4308,-1.2633 11.7551,-1.8733 18.4933,-3.275 l 17.3024,-3.3311 33.6328,-4.3067 c 0,0 10.7499,1.5718 12.0608,7.9492 z"
         id="path56835-2-3-1"
         sodipodi:nodetypes="csssssssccssssccccccsssssssccccccccccc" /><path
         style="fill:#e6e6e6;fill-opacity:1;stroke:none;stroke-width:1.08965;stroke-opacity:1"
         d="m -6275.2737,-5930.9726 c -3.4822,2.8589 -3.9542,3.1277 -8.0989,5.6849 -3.2629,2.013 -6.4299,4.659 -10.0415,2.5675 -1.4043,-0.8134 -6.2747,-10.1893 -6.2747,-10.1893 l -6.2584,-13.2377 -6.8114,-14.4671 -6.3975,-15.4682 -8.3655,-16.8316 -7.6563,-15.5195 c 0,0 -12.6021,-20.9431 -17.2688,-32.1144 -0.7976,-1.9404 -3.6023,-6.9247 -5.1721,-10.339 -1.5695,-3.4142 -6.7154,-13.2355 -7.866,-15.6982 -2.1147,-4.7649 -6.5405,-12.3814 -6.5405,-12.3814 0,0 -2.2562,-1.0425 -4.6197,1.1217 -5.9953,4.695 -9.7812,4.6917 -14.296,9.9552 -7.9712,6.033 -6.2715,2.9859 -12.8032,7.5906 l -6.8093,4.7321 0.2852,6.3451 c 0.3087,6.8553 0.6044,22.0581 0.8114,33.7764 0.2069,11.7184 0.769,22.8256 1.249,24.6824 0.4801,1.8569 0.7998,7.4109 0.7105,12.3423 -0.3224,17.8306 -0.5363,24.1457 -0.398,28.0927 -0.4208,9.7534 -0.956,16.1695 -1.1125,26.0823 -1.2444,6.3116 -4.1893,10.1039 -7.8507,10.1098 -3.3446,0.01 -13.8753,0.5371 -19.7783,-1.1685 -3.6344,-1.7015 -3.0187,-14.9782 -3.0187,-14.9782 l -0.077,-39.8185 0.3598,-16.2859 0.1737,-11.3622 -0.8153,-14.511 0.1298,-29.6321 -0.5546,-33.1179 0.4392,-50.1955 0.4522,-45.4676 -0.077,-30.4188 0.2735,-11.92 c 0,0 -0.8515,-11.0046 0.2973,-16.1775 2.8278,-12.7351 12.7769,-18.8455 25.4652,-12.0523 9.7411,4.5657 19.484,6.0505 19.484,6.0505 l 13.759,3.6391 20.4094,5.9507 14.3622,2.9836 20.5831,8.1785 21.5998,8.2308 12.0084,3.8969 c 0,0 12.8709,9.4903 15.364,14.5686 1.044,2.1271 2.368,4.201 2.9412,4.6086 1.2965,0.9223 3.7656,8.2325 4.38,12.9678 0.8707,6.7087 -4.6069,12.7628 -23.9914,26.516 -3.9614,2.8106 -8.3158,6.2898 -9.6761,7.7311 -1.3601,1.4416 -4.1419,3.7016 -6.1813,5.0222 -2.0395,1.3206 -14.3408,10.2179 -14.6255,10.5547 -0.2847,0.3366 -7.3949,5.4973 -10.3652,7.6122 -5.8812,4.1876 -12.9448,6.8281 -10.8671,12.3207 2.981,7.881 16.8621,33.155 16.8621,33.155 l 3.1086,7.6127 7.6564,17.7477 4.6333,9.7593 9.8641,18.5976 6.0414,11.334 4.103,9.0032 2.8395,5.8212 9.9265,21.305 c 0,0 1.8601,5.2887 2.8484,7.8393 1.3952,3.6134 4.4836,11.2408 5.3115,13.0601 1.5643,4.6366 0.1856,9.6343 -4.0653,14.2023 z m -29.6266,-243.3227 c -5.6669,-2.6975 -11.1728,-5.84 -17.3672,-9.126 -1.9318,-1.021 -3.1733,-0.8554 -3.4683,-1.2983 -3.9959,-0.6881 -12.4347,-5.5311 -15.8928,-7.1952 -1.475,-0.022 -7.9854,-2.7741 -14.2056,-4.3558 -13.5871,-3.4552 -25.9999,-6.8475 -31.0464,-7.927 -7.525,-2.6861 -11.7771,-5.1292 -17.3033,-4.4522 l -7.3663,0.034 -1.1286,7.4268 c -1.2774,8.4039 -0.5517,33.3726 -0.4347,68.5368 0.1327,39.9124 0.3653,41.0443 7.6266,37.1084 2.2165,-1.2013 5.0159,-2.1699 6.2207,-2.1523 1.2047,0.018 4.2287,-1.8392 6.7199,-4.126 4.0925,-3.7567 6.5913,-5.3801 11.198,-7.2753 4.2021,-2.2484 7.6947,-4.3201 11.8307,-8.2248 7.4653,-5.0832 15.1255,-12.1157 24.1986,-18.6769 1.972,-0.6855 6.0975,-3.7069 9.1673,-6.7139 5.8573,-5.737 12.5949,-11.5264 18.651,-16.0268 1.9814,-1.4725 5.7855,-4.2979 8.4533,-6.2783 2.6678,-1.9804 4.9527,-4.395 5.3011,-5.2759 0.6901,-1.7429 0.9466,-3.1143 -1.154,-4.0005 z"
         id="path56835-9-2-5"
         sodipodi:nodetypes="csscccccccsccccccssssccsccccccccccccsccccccccssssssssscccccccccccccccscccssssscccsssscscc" /><path
         style="fill:#e6e6e6;fill-opacity:1;stroke:none;stroke-width:1.37116;stroke-opacity:1"
         d="m -5805.4951,-5922.2203 c -12.3226,10.8637 -15.44,10.8961 -27.0406,0.071 -7.6179,-7.4477 -25.0142,-29.9013 -36.7572,-41.7584 -7.3185,-8.3268 -17.4698,-19.5594 -23.3839,-27.0036 -10.5006,-13.295 -7.8851,-10.2479 -15.941,-18.4872 -3.7689,-3.8548 -7.1578,-11.2266 -10.7055,-15.6372 -3.5475,-4.4103 -9.3969,-10.1374 -10.7953,-11.7154 -1.3985,-1.5781 -6.1904,-8.2493 -12.1304,-15.3437 -5.94,-7.0947 -6.9883,-11.3965 -8.5869,-12.03 -1.5989,-0.6336 -8.6015,-10.7902 -8.6015,-10.7902 0,0 -4.8236,-6.0555 -9.4728,-10.6271 -4.5819,-4.505 -11.381,-15.2298 -11.4195,-17.7096 -0.039,-2.4798 0.7634,-5.6989 1.3197,-6.8537 0.556,-1.155 6.7404,-14.147 6.7404,-14.147 l 13.9886,-20.6612 9.9974,-13.4523 8.4741,-11.9593 10.7302,-15.4 21.303,-30.3331 10.1832,-12.5558 10.7229,-15.6114 16.9206,-22.9554 c 0,0 15.8419,-21.6335 23.9042,-32.3649 2.5795,-3.509 10.1853,-14.2893 13.8785,-14.4987 3.9302,-0.2226 12.4111,5.283 16.0108,8.6485 5.133,4.7988 11.2967,4.7425 3.7337,20.6375 -3.2573,6.8459 -15.7745,23.0366 -15.7745,23.0366 l -14.5211,22.2361 -11.2906,15.8494 -11.3609,15.5781 -30.2039,38.9399 -24.4398,32.9931 -6.1129,10.6195 c 0,0 -6.8275,9.8532 -6.7624,11.2198 0.066,1.3663 1.3877,4.1137 2.9392,6.1051 9.1375,11.7288 22.7594,30.8106 22.7594,30.8106 l 13.6399,17.7494 5.783,7.6926 5.0558,6.267 8.0899,9.8519 2.7469,3.5739 2.1792,3.4088 3.5467,5.386 4.1087,5.4342 8.664,8.3926 7.0726,9.2585 6.2228,8.0429 c 4.6641,5.6512 8.5611,10.5835 12.3745,15.6348 0,0 9.2915,12.2602 13.0864,16.2737 4.6351,4.9023 10.2737,12.3014 14.6238,18.4304 5.928,8.3521 3.2921,10.7971 -5.4994,19.7542 z"
         id="path56837-0-5"
         sodipodi:nodetypes="ccccssssscszzccccccccccssscccccccsscccccccccccccssc" /><path
         style="fill:#e6e6e6;fill-opacity:1;stroke:none;stroke-width:1.14365;stroke-opacity:1"
         d="m -6234.9725,-5916.3504 c -5.6126,-4.1269 -4.7294,-7.5698 -1.8789,-23.8645 l 4.1995,-20.0203 8.6418,-30.534 8.5084,-37.1196 6.6367,-25.3348 11.0524,-40.0633 5.6111,-25.9766 4.2633,-15.9231 4.3161,-17.3361 3.6375,-10.477 11.9582,-46.3927 c 0,0 5.2685,-16.6591 7.2007,-21.692 4.8819,-12.7052 14.0631,-16.4114 24.5301,-9.6172 4.8583,3.1534 4.9953,2.7497 8.2576,12.8072 5.4413,16.7753 5.1352,19.073 8.6709,31.8563 3.1687,11.5213 9.2652,34.0878 9.2873,34.0628 l 5.7537,24.3548 c 0,0 5.455,19.0945 7.0654,28.0248 0.9017,5.0659 5.9729,22.1058 7.5303,27.8826 3.6428,10.8649 5.8382,23.1104 9.2626,33.1769 4.4523,15.1608 7.5036,29.8008 11.1157,43.2771 2.3956,6.3045 5.3388,18.6751 5.3388,18.6751 l 5.6187,19.4237 c 0,0 3.0115,10.2497 4.5222,14.7125 4.6719,13.8019 4.2445,18.2861 3.6161,25.5506 -3.8605,7.0162 -4.2818,5.5607 -8.5026,8.4649 -4.7995,2.1504 -11.8486,-0.5566 -15.689,-6.3781 -2.8762,-4.3609 -5.7034,-13.6452 -5.7034,-13.6452 l -2.6712,-8.9784 -3.0017,-12.7386 -5.1354,-18.08 c -1.1885,-3.8765 -3.0736,-11.5676 -3.9003,-15.5859 l -2.2768,-8.1264 c 0,0 -1.8295,1.0322 -14.3124,8.4103 -4.3278,2.3698 -8.4126,5.3123 -12.5685,8.0767 l -9.6438,6.7792 -18.6656,11.7222 -10.813,7.8396 -12.3579,9.4014 -22.8902,17.3064 -10.5789,7.1181 c 0,0 -6.6591,5.0008 -11.022,7.8298 -7.1286,4.737 -10.5336,4.0264 -14.9835,1.1308 z m 53.9451,-70.0897 12.2838,-8.7847 c 4.1892,-2.6911 8.7247,-5.9462 13.2859,-9.2798 l 8.8608,-6.623 9.0782,-5.1261 12.3798,-9.031 c 4.8535,-4.2343 14.3318,-9.0454 19.5951,-12.9075 l -1.9877,-8.4643 c -1.4835,-4.9202 -3.3109,-12.6023 -3.3109,-12.6023 l -5.288,-17.9159 -4.8399,-19.0547 -3.0361,-14.1111 -4.9495,-23.2287 -4.5814,-17.2337 c 0,0 -4.3102,-15.8231 -6.5796,-24.0887 -1.5107,-8.3495 -3.0702,-14.8258 -4.9957,-14.8091 -1.5721,0.014 -7.7171,22.245 -7.7171,22.245 l -4.633,15.3374 c -1.4752,6.7624 -4.3801,17.0327 -5.7561,22.7216 -1.748,7.7084 -3.616,13.6911 -5.3437,21.0032 l -2.6003,12.8977 -1.4379,5.9633 -4.5203,18.2821 -4.7191,19.9855 -9.5913,38.8651 c 0,0 -1.5987,6.8976 -3.5408,17.0292 -1.1823,5.1871 -7.0365,22.8119 -5.3477,22.6009 4.6474,-2.7493 19.2925,-13.6704 19.2925,-13.6704 z"
         id="path57142-6-4"
         sodipodi:nodetypes="cccccccccccccsscccccccccsccscccccccccccccccccccccccccccccccscccccccccccc" /><path
         style="fill:#e6e6e6;fill-opacity:1;stroke:none;stroke-width:1.38248;stroke-opacity:1"
         d="m -5743.3774,-5914.1718 c -8.7227,1.1357 -14.6955,-5.8613 -15.7168,-16.9161 -0.8049,-8.7125 -1.0017,-16.4604 -1.0017,-16.4604 l -0.7465,-23.1618 -0.1791,-22.9759 -2.3063,-83.8897 -0.6536,-58.3547 c 0,0 -0.6811,-14.5567 0.411,-18.0401 1.3887,-10.6193 4.1404,-8.9697 12.2479,-10.0883 4.9582,-0.505 11.6275,0.4902 16.223,4.3152 l 1.4734,5.3678 0.1107,13.4104 1.6861,28.2641 -2.1044,18.6437 -0.045,18.5594 0.86,17.6327 1.931,56.8389 0.8259,34.8538 0.742,31.4812 c -0.4571,14.1231 1.1407,18.4899 -13.758,20.5198 z"
         id="path56837-1-5-6"
         sodipodi:nodetypes="cscccccccscccccccccc" /><path
         style="fill:#e6e6e6;fill-opacity:1;stroke:none;stroke-width:1.03687;stroke-linecap:round;stroke-linejoin:round;stroke-dasharray:none;stroke-opacity:1"
         id="rect57268-5-5"
         width="37.068245"
         height="40.748844"
         x="-5766.1455"
         y="-6242.4399"
         inkscape:path-effect="#path-effect57270-5-0"
         d="m -5755.6696,-6241.9719 16.5421,-1.5565 c 5.9042,1.0885 12.368,5.6831 12.368,10.833 l -2.8732,20.8539 c 0.5554,6.0044 -4.0915,9.5613 -9.2415,9.5613 l -18.0163,0.5421 c -5.109,0.047 -8.6334,-3.7514 -8.6334,-8.9013 l -1.3565,-23.6909 c 0.7349,-3.9637 6.0608,-7.6416 11.2108,-7.6416 z"
         sodipodi:type="rect"
         ry="9.2959423"
         rx="9.2959423" /><path
         style="fill:#e6e6e6;fill-opacity:1;stroke:none;stroke-width:1.45247;stroke-opacity:1"
         d="m -5440.2872,-5925.981 c -3.606,7.9971 -10.9428,13.2267 -16.3425,11.6486 -1.8349,-0.5363 -8.945,-6.9957 -8.945,-6.9957 l -4.138,-23.6986 -1.5371,-20.1229 -0.7332,-21.0284 0.3771,-22.1766 -1.7032,-22.7419 -0.5238,-28.8377 -0.3741,-36.1828 -3.3491,-31.5637 c 0,0 -1.5549,-21.5807 -0.059,-25.7561 2.486,-6.9402 9.0063,-11.1837 17.195,-11.1908 6.2266,-0.012 6.9698,0.4238 11.3827,6.5714 l 4.721,6.577 -0.9431,17.6731 -0.4858,18.6594 1.1703,28.7598 0.1438,37.8726 1.0338,31.9085 3.9125,65.9897 1.4014,10.7779 c 0,0 0.3478,8.1984 -2.2036,13.8572 z"
         id="path56837-4-7-9"
         sodipodi:nodetypes="sscccccccccscsccccccccs" /><path
         style="fill:#e6e6e6;fill-opacity:1;stroke:none;stroke-width:1.03686;stroke-linecap:round;stroke-linejoin:round;stroke-dasharray:none;stroke-opacity:1"
         id="rect57268-4-6-3"
         width="37.068245"
         height="40.821648"
         x="-5476.5293"
         y="-6243.875"
         inkscape:path-effect="#path-effect57270-8-0-36"
         d="m -5467.3317,-6243.0603 16.6584,-0.4175 c 7.0663,-0.3972 10.1527,4.2333 10.1527,9.3832 l 1.8927,21.7575 c -0.8332,5.1378 -6.2184,9.5008 -11.3684,9.5008 l -17.3679,-0.2265 c -5.0191,0.01 -8.2652,-3.7578 -8.2652,-8.9078 l -0.6435,-22.5947 c -0.2564,-5.1637 3.7913,-8.495 8.9412,-8.495 z"
         sodipodi:type="rect"
         ry="9.2959423"
         rx="9.2959423" /></g></g></svg>
