<?xml version="1.0" encoding="UTF-8" standalone="no"?>
<!-- Created with Inkscape (http://www.inkscape.org/) -->

<svg
   version="1.1"
   id="svg176"
   width="1219.8027"
   height="1394.4058"
   viewBox="0 0 1219.8028 1394.4058"
   sodipodi:docname="website for ai.svg"
   xml:space="preserve"
   inkscape:version="1.2.2 (b0a8486541, 2022-12-01)"
   xmlns:inkscape="http://www.inkscape.org/namespaces/inkscape"
   xmlns:sodipodi="http://sodipodi.sourceforge.net/DTD/sodipodi-0.dtd"
   xmlns="http://www.w3.org/2000/svg"
   xmlns:svg="http://www.w3.org/2000/svg"><defs
     id="defs180"><linearGradient
       id="linearGradient1486"
       inkscape:swatch="solid"><stop
         style="stop-color:#000000;stop-opacity:1;"
         offset="0"
         id="stop1484" /></linearGradient><rect
       x="-1955.4146"
       y="630.24219"
       width="1258.9419"
       height="409.6745"
       id="rect3105-5-5-97-13-9-1-5-6-0-6-9-6-7-6-5-2-3-8-27-17-77-8-8-6-3-1" /><rect
       x="-1955.4146"
       y="630.24219"
       width="1258.9419"
       height="409.6745"
       id="rect3105-5-5-97-13-9-1-5-6-0-6-9-6-7-6-5-2-3-8-27-17-77-8-8-6-3-6-0" /><rect
       x="-1955.4146"
       y="630.24219"
       width="1258.9419"
       height="409.6745"
       id="rect3105-5-5-97-13-9-1-5-6-0-6-9-6-7-6-5-2-3-8-27-17-77-8-8-6-3-6-61-6" /><rect
       x="-1955.4146"
       y="630.24219"
       width="1258.9419"
       height="409.6745"
       id="rect3105-5-5-97-13-9-1-5-6-0-6-9-6-7-6-5-2-3-8-27-17-77-8-8-6-3-6-6-1" /><rect
       x="-1955.4146"
       y="630.24219"
       width="1258.9419"
       height="409.6745"
       id="rect3105-5-5-97-13-9-1-5-6-0-6-9-6-7-6-5-2-3-8-27-17-77-8-8-6-3-6-6-7-5" /><rect
       x="-1955.4146"
       y="630.24219"
       width="1258.9419"
       height="409.6745"
       id="rect3105-5-5-97-13-9-1-5-6-0-6-9-6-7-6-5-2-3-8-27-17-77-8-8-6-3-3-9" /><rect
       x="-1955.4146"
       y="630.24219"
       width="1258.9419"
       height="409.6745"
       id="rect3105-5-5-97-13-9-1-5-6-0-6-9-6-7-6-5-2-3-8-27-17-77-8-8-6-3-3-2-4" /><rect
       x="-1955.4146"
       y="630.24219"
       width="1258.9419"
       height="409.6745"
       id="rect3105-5-5-97-13-9-1-5-6-0-6-9-6-7-6-5-2-3-8-27-17-77-8-8-6-3-3-2-1-90" /><rect
       x="-1955.4146"
       y="630.24219"
       width="1258.9419"
       height="409.6745"
       id="rect3105-5-5-97-13-9-1-5-6-0-6-9-6-7-6-5-2-3-8-27-17-77-8-8-6-3-3-2-1-7-91" /><rect
       x="-1955.4146"
       y="630.24219"
       width="1258.9419"
       height="409.6745"
       id="rect3105-5-5-97-13-9-1-5-6-0-6-9-6-7-6-5-2-3-8-27-17-77-8-8-6-3-3-2-1-7-9-7" /><rect
       x="-1955.4146"
       y="630.24219"
       width="1258.9419"
       height="409.6745"
       id="rect3105-5-5-97-13-9-1-5-6-0-6-9-6-7-6-5-2-3-8-27-17-77-8-8-6-3-7-7" /><inkscape:path-effect
       effect="simplify"
       id="path-effect10137-1"
       is_visible="true"
       lpeversion="1"
       steps="2"
       threshold="0.002"
       smooth_angles="0"
       helper_size="5"
       simplify_individual_paths="false"
       simplify_just_coalesce="false" /><rect
       x="-1955.4146"
       y="630.24219"
       width="1258.9419"
       height="409.6745"
       id="rect3105-5-5-97-13-9-1-5-6-0-6-9-6-7-6-5-2-3-8-27-17-77-8-8-6-3-7-2-2-1" /></defs><sodipodi:namedview
     id="namedview178"
     pagecolor="#ffffff"
     bordercolor="#000000"
     borderopacity="0.25"
     inkscape:showpageshadow="2"
     inkscape:pageopacity="0.0"
     inkscape:pagecheckerboard="0"
     inkscape:deskcolor="#d1d1d1"
     showgrid="false"
     showguides="false"
     inkscape:zoom="0.25"
     inkscape:cx="16996"
     inkscape:cy="-4432"
     inkscape:window-width="1920"
     inkscape:window-height="1011"
     inkscape:window-x="0"
     inkscape:window-y="0"
     inkscape:window-maximized="1"
     inkscape:current-layer="g182"><inkscape:grid
       type="xygrid"
       id="grid2722" /></sodipodi:namedview><g
     inkscape:groupmode="layer"
     inkscape:label="Image"
     id="g182"
     transform="translate(-16384.265,6933.6709)"><g
       id="g70643"
       transform="translate(-5044.9375,-3023.375)"><rect
         style="fill:#ebebeb;fill-opacity:1;stroke:none;stroke-width:8;stroke-linecap:round;stroke-linejoin:round;stroke-dasharray:none;stroke-opacity:1"
         id="rect52906-6-5"
         width="1219.8026"
         height="1394.406"
         x="21429.203"
         y="-3910.2961"
         ry="181.0304"
         rx="181.0304" /><path
         style="fill:#afafaf;fill-opacity:1;stroke-width:1.96436"
         d="m 21905.081,-2584.138 c -2.325,-2.166 -4.226,-5.402 -4.226,-7.191 0,-1.79 -2.339,-5.695 -5.198,-8.679 -3.997,-4.172 -5.996,-4.998 -8.656,-3.574 -4.428,2.369 -25.131,-1.484 -29.853,-5.557 -1.891,-1.631 -3.438,-4.154 -3.438,-5.607 0,-1.453 -0.884,-2.642 -1.964,-2.642 -1.102,0 -1.965,-5.442 -1.965,-12.398 0,-9.683 0.861,-13.321 3.929,-16.615 5.398,-5.794 4.936,-8.832 -1.964,-12.908 -6.365,-3.76 -8.484,-13.081 -2.973,-13.081 3.81,0 8.136,-10.621 8.519,-20.914 0.26,-6.99 -0.717,-9.136 -6.879,-15.122 l -7.182,-6.975 5.24,-7.918 c 2.881,-4.355 5.239,-10.536 5.239,-13.737 0,-3.2 0.898,-6.374 1.996,-7.053 1.099,-0.678 1.539,-1.975 0.978,-2.882 -0.875,-1.416 -10.71,2.196 -20.653,7.586 -6.554,3.553 -13.602,28.523 -9.967,35.314 3.71,6.932 1.68,18.534 -5.496,31.419 -1.509,2.709 -2.196,8.006 -1.658,12.769 1.311,11.577 10.608,35 15.545,39.159 3.12,2.629 4.099,5.525 3.868,11.44 -0.171,4.357 0.672,9.758 1.874,12.003 2.132,3.983 1.905,4.048 -9.339,2.654 -6.338,-0.786 -18.154,-2.104 -26.257,-2.929 -16.793,-1.711 -25.232,-5.084 -36.106,-14.431 -6.546,-5.627 -7.239,-6.955 -4.911,-9.404 1.492,-1.569 5.255,-8.598 8.363,-15.621 7.712,-17.428 11.211,-23.886 15.368,-28.362 4.347,-4.681 4.551,-12.529 0.478,-18.345 -2.429,-3.468 -4.974,-4.366 -12.376,-4.366 -5.124,0 -10.31,0.993 -11.523,2.206 -2.573,2.573 -12.972,-3.921 -16.332,-10.2 -1.117,-2.085 -3.283,-3.792 -4.815,-3.792 -6.151,0 -12.564,-4.763 -16.02,-11.899 -2.006,-4.141 -4.973,-7.966 -6.593,-8.498 -4.648,-1.528 -14.436,-7.8 -17.217,-11.033 -1.394,-1.62 -3.968,-6.04 -5.72,-9.821 -1.995,-4.307 -7.112,-9.41 -13.696,-13.658 -5.781,-3.73 -6.37,-8.393 -6.37,-9.06 0,-1.239 31.146,-4.082 64.611,-6.549 10.264,-0.757 19.545,-1.693 20.626,-2.081 1.08,-0.388 3.442,-0.06 5.248,0.74 1.806,0.794 5.021,0.515 7.144,-0.621 2.124,-1.136 11.253,-2.225 20.289,-2.42 9.035,-0.195 17.853,-1.068 19.595,-1.939 4.135,-2.068 60.774,-4.163 60.364,-2.232 -0.173,0.813 0.225,2.805 0.884,4.425 0.659,1.621 1.625,8.251 2.147,14.733 1.448,17.968 5.103,36.61 11.2,57.106 0.987,3.318 1.825,8.622 1.863,11.786 0.04,3.165 1.333,7.964 2.877,10.665 1.544,2.701 2.839,9.941 2.877,16.09 0.04,6.148 1.051,11.785 2.251,12.527 1.244,0.769 1.741,4.054 1.158,7.65 -0.563,3.467 -0.439,7.21 0.274,8.319 1.699,2.639 11.039,4.484 32.728,6.467 9.723,0.889 21.215,2.375 25.536,3.304 7.484,1.607 7.874,2.059 8.203,9.514 0.217,4.917 -1.469,11.574 -4.534,17.903 -4.714,9.734 -5.224,10.127 -15.078,11.616 -5.609,0.848 -13.735,1.846 -18.056,2.217 -11.728,1.006 -15.56,1.675 -17.907,3.127 -1.168,0.721 -4.026,-0.46 -6.35,-2.625 z m 30.392,-57.926 c -4.662,-1.709 -10.566,-2.32 -15.224,-1.575 l -7.608,1.217 v -9.154 c 0,-5.035 -1.486,-12.44 -3.303,-16.457 -1.817,-4.017 -3.445,-10.397 -3.619,-14.179 -0.173,-3.781 -1.398,-11.295 -2.72,-16.697 -3.371,-13.775 -4.053,-17.902 -5.355,-32.412 -0.63,-7.022 -1.933,-13.608 -2.896,-14.634 -0.963,-1.027 -1.751,-3.763 -1.751,-6.082 0,-2.319 -1.418,-7.059 -3.151,-10.533 -2.366,-4.742 -2.774,-8.613 -1.638,-15.526 0.832,-5.065 1.333,-10.62 1.114,-12.346 -0.487,-3.831 2.929,-6.712 9.939,-8.385 5.796,-1.383 9.216,1.495 4.797,4.035 -1.798,1.033 -2.955,5.741 -3.289,13.38 -0.971,22.172 -0.514,23.955 8.434,32.903 4.592,4.592 8.128,9.012 7.858,9.822 -0.271,0.81 0.573,1.252 1.875,0.982 1.301,-0.27 2.406,0.54 2.455,1.801 0.05,1.26 0.752,2.955 1.563,3.765 0.81,0.81 1.473,2.627 1.473,4.037 0,1.411 3.901,10.766 8.668,20.79 8.291,17.433 16.641,27.884 26.199,32.791 3.759,1.93 4.42,3.858 4.42,12.888 0,5.841 0.884,11.165 1.964,11.833 1.081,0.668 1.965,2.814 1.965,4.77 0,6.098 -18.878,7.838 -32.17,2.966 z m 38.554,-61.092 c -3.799,-1.533 -2.9,-8.21 1.473,-10.941 2.34,-1.462 3.929,-4.581 3.929,-7.714 0,-10.463 -1.376,-11.474 -15.621,-11.474 -10.715,0 -13.909,-0.744 -16.771,-3.906 -1.944,-2.149 -8.048,-6.746 -13.564,-10.217 -11.675,-7.347 -20.521,-16.365 -22.057,-22.485 -1.486,-5.922 4.26,-17.24 12.784,-25.175 16.568,-15.424 24.873,-22.582 26.255,-22.632 0.81,-0.03 1.473,-1.47 1.473,-3.203 0,-1.733 5.524,-8.556 12.275,-15.162 11.988,-11.73 12.265,-12.236 11.854,-21.606 -0.444,-10.124 -0.854,-10.685 -17.576,-24.054 -4.144,-3.314 -9.036,-6.583 -10.87,-7.265 -1.834,-0.683 -4.25,-4.639 -5.368,-8.793 -1.119,-4.154 -3.817,-9.466 -5.996,-11.805 -4.674,-5.017 -5.048,-11.455 -1.124,-19.34 1.562,-3.137 3.165,-11.449 3.562,-18.472 0.68,-11.992 1.224,-13.261 8.948,-20.885 6.874,-6.786 8.224,-9.38 8.224,-15.813 0,-12.221 6.245,-15.896 14.284,-8.406 2.365,2.203 6.526,4.438 9.249,4.967 2.722,0.529 7.602,1.911 10.843,3.071 3.241,1.16 10.393,3.232 15.894,4.605 13.932,3.478 20.1,7.993 21.562,15.785 1.491,7.945 -0.261,14.028 -6.025,20.925 -3.147,3.766 -4.746,9.032 -5.708,18.803 -1.996,20.248 0.806,25.172 15.528,27.286 14.506,2.084 13.751,1.084 13.751,18.182 0,15.148 -0.159,15.685 -4.938,16.641 -13.472,2.694 -19.364,17.449 -11.834,29.633 2.385,3.859 6.556,7.562 9.29,8.248 4.499,1.13 4.841,1.91 3.665,8.346 -0.713,3.904 -1.544,7.983 -1.847,9.064 -0.302,1.08 -1.654,5.861 -3.004,10.623 -1.35,4.762 -5.011,11.215 -8.135,14.339 -3.125,3.125 -7.252,8.462 -9.172,11.861 -4.082,7.228 -7.059,11.227 -15.768,21.18 -3.511,4.013 -6.384,8.349 -6.384,9.636 0,4.013 -6.276,21.743 -8.093,22.867 -0.951,0.588 -1.729,3.084 -1.729,5.548 0,2.894 -1.771,5.286 -5.003,6.759 -2.752,1.254 -5.183,2.21 -5.402,2.125 -0.219,-0.08 -1.504,-0.601 -2.854,-1.146 z m -438.861,-9.855 c -0.468,-1.967 -0.5,-11.23 -0.07,-20.583 l 0.778,-17.005 8.155,-0.948 c 4.485,-0.522 11.69,-2.091 16.012,-3.487 4.321,-1.397 14.929,-2.703 23.572,-2.904 8.643,-0.2 24.333,-1.044 34.867,-1.875 20.989,-1.656 25.005,0.405 11.786,6.048 -5.319,2.271 -11.175,2.888 -21.078,2.22 l -13.713,-0.924 -7.404,7.63 c -4.073,4.196 -7.405,8.418 -7.405,9.382 0,2.828 -5.947,4.301 -12.541,3.106 -6.393,-1.159 -7.042,-0.738 -25.007,16.216 -6.156,5.809 -7.214,6.225 -7.951,3.124 z m 93.944,-47.352 c 0,-1.046 46.401,-4.119 48.021,-3.497 1.621,0.622 6.37,8.635 6.37,9.06 0,0.425 -51.615,1.035 -53.236,1.035 -1.62,0 -1.155,-5.551 -1.155,-6.598 z m 388.613,-81.228 c 0,0 8.803,-28.36 22.814,-22.983 2.397,0.92 5.435,-1.983 3.771,0.02 -2.106,2.538 -3.971,36.887 -2.461,42.753 1.166,4.53 -11.052,2.563 -11.052,2.563 1.659,-4.111 -31.193,-24.962 -13.072,-22.354 z m 7.707,-76.605 c -0.763,-1.233 0.35,-3.667 2.473,-5.41 2.122,-1.742 6.637,-6.791 10.033,-11.219 5.309,-6.922 6.359,-10.25 7.484,-23.742 l 1.308,-15.691 -7.196,-7.197 c -3.958,-3.958 -8.84,-7.196 -10.849,-7.196 -2.01,0 -4.115,-1.202 -4.679,-2.671 -1.137,-2.966 -15.582,-7.151 -24.679,-7.151 -3.226,0 -7.033,-1.105 -8.461,-2.455 -1.428,-1.351 -4.98,-3.685 -7.895,-5.188 -2.914,-1.503 -9.544,-6.647 -14.732,-11.431 -10.953,-10.098 -15.709,-12.356 -26.033,-12.356 -8.311,0 -12.948,-4.829 -15.135,-15.764 -0.652,-3.259 -1.955,-6.401 -2.896,-6.983 -0.941,-0.581 -1.71,-3.018 -1.71,-5.415 0,-5.965 -5.329,-13.089 -9.791,-13.089 -2.021,0 -5.313,-1.989 -7.315,-4.42 -9.896,-12.015 -10.821,-12.303 -37.603,-11.727 -24.832,0.534 -62.486,4.838 -74.352,8.499 -5.735,1.769 -11.312,2.475 -37.909,4.8 -4.862,0.425 -19.848,1.298 -33.301,1.94 -13.454,0.642 -25.334,1.707 -26.4,2.366 -1.065,0.658 -12.157,1.947 -24.647,2.864 -32.115,2.357 -38.232,2.913 -47.715,4.335 -4.614,0.691 -28.72,1.581 -53.569,1.976 -24.849,0.395 -51.576,1.357 -59.394,2.138 -7.817,0.781 -16.554,0.832 -19.416,0.114 -5.034,-1.263 -5.166,-1.663 -4.074,-12.246 1.133,-10.981 6.819,-20.283 12.398,-20.283 1.371,0 3.648,-1.547 5.06,-3.438 1.412,-1.891 5.849,-5.89 9.861,-8.885 11.848,-8.846 17.971,-15.249 30.642,-32.044 l 11.984,-15.885 -1.489,-13.932 c -1.211,-11.334 -2.385,-14.678 -6.298,-17.935 -2.646,-2.202 -5.916,-4.032 -7.266,-4.068 -1.351,-0.04 -2.456,-1.782 -2.456,-3.879 0,-2.097 -0.883,-4.359 -1.964,-5.026 -1.08,-0.668 -1.964,-4.159 -1.964,-7.757 0,-5.841 0.96,-6.995 8.941,-10.746 23.391,-10.995 43.359,-14.747 69.984,-13.148 29.023,1.744 41.613,3.272 43.749,5.313 2.342,2.238 23.216,2.355 25.733,0.143 1.026,-0.902 6.038,-3.174 11.138,-5.051 7.438,-2.736 12.413,-3.137 25.15,-2.026 l 15.878,1.385 12.173,-12.753 c 12.892,-13.508 30.482,-27.06 35.124,-27.06 1.53,0 3.842,-1.06 5.139,-2.357 2.844,-2.844 3.163,-22.449 0.392,-24.161 -3.434,-2.123 -2.117,-11.37 2.287,-16.058 2.338,-2.489 4.487,-6.743 4.777,-9.454 0.42,-3.939 -0.533,-5.163 -4.742,-6.097 -10.796,-2.395 -13.208,-3.305 -16.563,-6.251 -1.891,-1.66 -3.438,-5.769 -3.438,-9.132 0,-7.667 14.597,-25.054 25.168,-29.978 9.711,-4.524 16.924,-11.391 24.382,-23.213 3.409,-5.401 9.123,-12.842 12.7,-16.533 3.576,-3.691 6.505,-7.669 6.507,-8.839 0,-2.416 31.461,-32.247 42.781,-40.571 6.385,-4.696 9.982,-5.661 25.06,-6.722 9.682,-0.681 22.024,-2.216 27.426,-3.41 5.402,-1.194 15.125,-2.332 21.608,-2.53 15.719,-0.478 43.691,-4.47 48.189,-6.877 1.984,-1.062 5.859,-1.931 8.611,-1.931 5.786,0 8.369,6.453 6.107,15.26 -3.135,12.209 -3.281,21.858 -0.425,28.256 7.409,16.595 9.414,33.559 5.444,46.06 -0.995,3.132 -2.237,12.984 -2.76,21.893 -0.929,15.81 -0.813,16.346 4.853,22.412 7.846,8.398 9.627,12.1 7.466,15.516 -3.63,5.736 -0.396,22.767 5.509,29.008 1.35,1.428 2.455,3.314 2.455,4.191 0,0.877 4.002,4.57 8.893,8.208 l 8.892,6.613 -1.196,9.822 c -1.833,15.059 -1.546,40.529 0.783,69.326 1.478,18.267 1.493,27.708 0.05,31.43 -1.766,4.559 -7.369,52.379 -7.542,64.371 -0.03,2.227 1.811,6.056 4.097,8.509 3.765,4.042 4.133,6.582 3.918,27.038 -0.129,12.418 -1.116,24.221 -2.191,26.229 -1.075,2.008 -1.954,13.822 -1.954,26.254 0,12.95 -0.839,23.122 -1.964,23.817 -3.378,2.088 -2.152,12.882 2.378,20.943 3.592,6.391 3.932,8.386 1.965,11.536 -2.834,4.537 -3.074,9.093 -0.562,10.646 2.746,1.697 11.79,-2.79 22.656,-11.24 7.213,-5.608 10.781,-7.211 13.751,-6.174 9.212,3.217 25.068,0.737 44.102,-6.898 4.959,-1.99 12.995,-4.697 17.856,-6.018 14.759,-4.007 17.531,-5.58 21.605,-12.263 2.154,-3.534 4.245,-7.309 4.647,-8.389 1.027,-2.761 22.857,8.726 22.857,12.027 0,1.488 -0.936,2.706 -2.079,2.706 -1.144,0 -5.343,2.612 -9.331,5.804 -3.988,3.192 -10.787,7.249 -15.109,9.014 -4.321,1.766 -12.865,7.109 -18.986,11.875 -6.121,4.766 -12.088,8.665 -13.26,8.665 -1.171,0 -2.13,0.788 -2.13,1.751 0,0.964 -2.431,2.358 -5.402,3.1 -2.971,0.741 -8.054,3.312 -11.295,5.713 -3.241,2.4 -9.871,5.582 -14.733,7.071 -4.861,1.489 -11.198,3.861 -14.082,5.272 -2.883,1.411 -9.071,3.005 -13.75,3.543 -4.68,0.538 -12.928,1.922 -18.33,3.075 -11.662,2.489 -14.009,2.58 -21.121,0.819 -4.143,-1.025 -6.984,-0.135 -12.156,3.81 -4.617,3.521 -7.189,4.44 -8.136,2.907 z m 43.553,-69.722 c -0.674,-1.757 -0.406,-4.188 0.597,-5.402 1.002,-1.213 2.291,-8.394 2.864,-15.957 0.572,-7.563 2.261,-28.778 3.753,-47.145 1.767,-21.76 2.071,-35.31 0.872,-38.896 -2.305,-6.889 -1.521,-7.635 9.937,-9.457 5.116,-0.813 13.394,-2.374 18.395,-3.469 5.001,-1.094 17.312,-2.503 27.358,-3.13 10.047,-0.628 24.684,-2.467 32.529,-4.087 7.844,-1.621 22.069,-3.334 31.612,-3.809 l 17.35,-0.863 2.65,5.986 c 1.955,4.417 2.073,6.563 0.451,8.186 -2.764,2.763 -2.874,18.091 -0.165,23.15 1.401,2.619 1.401,4.98 0,7.601 -1.467,2.74 -1.171,7.53 1.06,17.149 3.054,13.168 3.038,13.393 -1.198,16.824 -2.362,1.912 -6.305,3.477 -8.763,3.477 -2.458,0 -7.001,1.321 -10.095,2.934 -3.095,1.614 -9.332,2.94 -13.859,2.947 -4.528,0 -8.779,0.896 -9.447,1.976 -0.668,1.081 -5.361,1.97 -10.429,1.976 -15.859,0.02 -39.647,8.795 -50.103,18.486 -2.591,2.401 -7.71,5.55 -11.376,6.997 -3.666,1.449 -8.876,4.578 -11.577,6.955 -4.775,4.202 -16.808,10.766 -19.735,10.766 -0.799,0 -2.004,-1.437 -2.679,-3.195 z m 167.776,-65.31 c 0,-3.105 -1.194,-9.072 -2.654,-13.259 -2.015,-5.78 -2.289,-13.042 -1.138,-30.153 0.833,-12.397 1.161,-23.113 0.728,-23.813 -0.432,-0.7 2.511,-1.818 6.541,-2.484 10.623,-1.756 12.238,-1.564 12.238,1.458 0,1.492 5.304,9.852 11.786,18.577 6.483,8.726 11.787,16.938 11.787,18.25 0,1.311 1.305,3.827 2.901,5.591 1.595,1.763 3.142,5.329 3.437,7.925 0.463,4.069 -0.491,4.895 -6.903,5.983 -4.092,0.694 -9.837,3.444 -12.768,6.112 -8.21,7.473 -15.506,11.459 -20.975,11.459 -4.175,0 -4.98,-0.912 -4.98,-5.646 z m 61.292,-26.362 c -1.047,-1.303 -3.815,-6.607 -6.151,-11.789 -2.336,-5.181 -5.966,-11.14 -8.067,-13.24 -2.101,-2.101 -5.632,-7.675 -7.847,-12.387 -2.215,-4.712 -6.582,-11.015 -9.705,-14.007 -5.566,-5.333 -6.137,-5.438 -28.895,-5.329 -49.576,0.239 -76.871,1.544 -79.596,3.806 -1.637,1.358 -11.088,2.433 -23.279,2.649 -11.288,0.199 -24.06,1.267 -28.381,2.373 -4.322,1.106 -12.91,2.172 -19.084,2.37 -6.175,0.197 -12.605,1.502 -14.289,2.899 -1.685,1.398 -3.631,1.974 -4.325,1.28 -0.694,-0.694 -0.231,-1.262 1.03,-1.262 1.457,0 2.284,-3.754 2.271,-10.313 -0.04,-19.357 6.424,-60.169 9.749,-61.566 2.915,-1.224 8.906,-2.085 44.749,-6.427 8.895,-1.078 17.138,-2.556 18.318,-3.285 1.179,-0.729 19.094,-1.636 39.811,-2.015 41.63,-0.761 51.055,-1.786 54.491,-5.926 1.275,-1.536 4.362,-2.793 6.861,-2.793 7.863,0 13.246,-3.295 27.065,-16.568 7.385,-7.094 14.315,-12.897 15.4,-12.897 2.902,0 9.336,8.314 9.412,12.161 0.04,1.827 0.949,3.868 2.03,4.536 3.326,2.055 2.193,9.686 -2.938,19.801 -2.697,5.315 -4.907,11.159 -4.911,12.986 0,1.827 -0.893,3.868 -1.973,4.535 -2.804,1.734 -2.429,9.937 0.568,12.425 1.393,1.156 6.696,3.215 11.786,4.577 5.09,1.361 9.254,3.175 9.254,4.031 0,0.857 1.105,1.564 2.455,1.573 1.351,0 3.442,1.997 4.646,4.42 2.122,4.266 9.707,18.219 14.181,26.087 1.205,2.12 3.466,7.1 5.023,11.067 3.92,9.985 11.245,14.342 23.233,13.821 10.43,-0.454 15.127,-2.338 23.785,-9.54 6.85,-5.698 8.435,-5.752 11.308,-0.384 1.933,3.611 1.58,4.778 -2.386,7.91 -2.96,2.336 -6.976,3.44 -11.037,3.034 -4.59,-0.46 -6.384,0.169 -6.384,2.24 0,1.584 -0.522,2.357 -1.16,1.72 -2.09,-2.09 -16.348,4.123 -25.5,11.111 -9.672,7.385 -12.645,7.39 -17.466,0.03 -4.437,-6.773 -11.043,-6.028 -18.418,2.076 -3.415,3.753 -6.209,7.96 -6.209,9.35 0,4.063 -7.116,7.73 -9.425,4.856 z m -218.323,-128.809 c -5.241,-3.586 -7.054,-28.993 -4.745,-66.492 l 0.994,-16.141 -11.933,-12.083 -11.934,-12.083 v -13.402 c 0,-7.372 -0.884,-13.949 -1.964,-14.617 -1.081,-0.668 -1.965,-2.866 -1.965,-4.885 0,-2.018 -2.293,-5.474 -5.096,-7.678 -5.66,-4.453 -5.718,-7.076 -0.888,-40.792 2.448,-17.085 1.793,-22.846 -5.619,-49.457 -3.97,-14.255 -3.983,-36.273 -0.02,-38.721 1.604,-0.991 20.742,-4.01 43.056,-6.793 7.023,-0.875 17.18,-2.569 22.571,-3.763 5.392,-1.194 10.895,-1.752 12.23,-1.24 1.335,0.513 6.647,-0.349 11.805,-1.914 5.158,-1.565 14.461,-2.855 20.673,-2.867 6.213,-0.02 11.295,-0.905 11.295,-1.985 0,-1.08 3.418,-1.964 7.595,-1.964 h 7.596 l -0.973,13.598 c -0.863,12.054 -0.387,14.647 4.191,22.837 3.296,5.899 5.164,12.232 5.164,17.516 0,9.128 -2.456,12.006 -23.835,27.942 -13.003,9.692 -12.82,9.056 -14.601,50.7 -1.303,30.458 -3.285,40.074 -10.929,53.031 -4.057,6.876 -4.483,10.105 -4.565,34.63 -0.06,19.12 0.629,27.768 2.365,29.508 3.344,3.351 2.991,17.498 -0.553,22.185 -1.587,2.097 -2.884,7.406 -2.884,11.798 0,6.824 -0.786,8.332 -5.412,10.38 -7.233,3.201 -37.987,5.235 -41.616,2.752 z m 65.864,-17.65 c 0.783,-1.78 2.304,-8.12 3.381,-14.09 1.582,-8.775 1.364,-12.162 -1.137,-17.68 -4.476,-9.872 -5.702,-40.388 -1.952,-48.567 1.61,-3.511 3.805,-6.384 4.878,-6.384 1.073,0 1.428,-1.361 0.79,-3.024 -0.638,-1.663 -0.394,-4.536 0.543,-6.384 4.799,-9.468 5.991,-14.563 6.991,-29.879 0.599,-9.183 1.746,-25.155 2.55,-35.492 l 1.46,-18.795 13.674,-14.11 c 16.24,-16.756 20.702,-25.067 20.702,-38.555 0,-7.572 -1.26,-11.851 -5.193,-17.639 -4.612,-6.788 -4.941,-8.337 -2.946,-13.855 1.235,-3.417 2.246,-12.362 2.246,-19.878 0,-8.54 1.033,-15.139 2.753,-17.595 1.514,-2.162 3.061,-6.025 3.438,-8.585 1.347,-9.156 11.557,-10.461 15.472,-1.978 0.714,1.548 2.486,5.025 3.937,7.726 1.451,2.701 3.022,12.645 3.492,22.099 0.47,9.453 1.63,17.188 2.578,17.188 0.948,0 1.724,2.461 1.724,5.47 0,3.009 1.854,10.743 4.12,17.188 2.266,6.445 4.856,19.674 5.756,29.397 1.937,20.927 5.58,40.508 8.022,43.118 0.96,1.026 1.746,4.289 1.746,7.25 0,2.962 0.884,5.931 1.964,6.599 1.081,0.667 1.97,3.15 1.977,5.518 0,2.367 1.332,6.835 2.946,9.93 1.614,3.094 2.935,8.104 2.935,11.131 0,3.028 0.91,5.809 2.023,6.18 1.221,0.406 2.042,9.21 2.069,22.186 0.02,11.832 0.917,22.564 1.985,23.851 1.067,1.286 5.895,3.506 10.728,4.933 7.492,2.212 9.063,3.59 10.65,9.339 1.025,3.71 4.174,9.158 6.999,12.107 8.332,8.696 6.225,14.836 -7.551,22.005 -6.271,3.263 -14.976,9.471 -19.344,13.796 -5.583,5.527 -11.534,8.964 -20.028,11.567 -6.647,2.036 -13.412,4.211 -15.032,4.832 -1.621,0.621 -20.907,1.396 -42.858,1.723 -36.46,0.542 -39.788,0.314 -38.488,-2.643 z m 151.817,-61.184 c -0.136,-1.081 -0.467,-2.849 -0.737,-3.929 -0.27,-1.08 -0.601,-3.254 -0.736,-4.831 -0.264,-3.081 -9.912,-12.848 -12.691,-12.848 -0.924,0 -4.248,-1.828 -7.386,-4.062 -5.584,-3.977 -5.706,-4.447 -5.736,-22.099 -0.02,-9.921 -0.818,-19.282 -1.781,-20.803 -1.047,-1.654 -0.958,-4.504 0.222,-7.094 1.46,-3.206 1.158,-5.902 -1.166,-10.396 -1.726,-3.337 -3.138,-7.88 -3.138,-10.094 0,-2.214 -0.883,-4.026 -1.964,-4.026 -1.08,0 -1.964,-3.87 -1.964,-8.6 0,-4.73 -1.357,-11.847 -3.015,-15.816 -1.659,-3.969 -3.96,-16.673 -5.115,-28.232 -1.283,-12.844 -3.883,-25.598 -6.685,-32.802 -2.521,-6.482 -5.097,-16.206 -5.724,-21.608 -2.933,-25.279 -4.436,-35.589 -5.583,-38.304 -1.88,-4.448 1.493,-16.789 4.409,-16.133 4.23,0.952 7.833,-5.998 7.929,-15.297 0.09,-8.41 3.656,-21.957 6.545,-24.845 0.74,-0.741 1.346,-3.851 1.346,-6.912 0,-5.869 1.675,-7.903 16.387,-19.905 5.032,-4.106 9.149,-8.746 9.149,-10.313 0,-1.567 0.884,-2.849 1.965,-2.849 2.922,0 2.375,-9.222 -0.926,-15.606 -7.343,-14.199 -4.985,-41.407 4.475,-51.628 4.664,-5.04 4.939,-6.515 4.644,-24.874 -0.275,-17.057 0.3,-20.837 4.566,-30.001 2.685,-5.767 4.89,-11.9 4.901,-13.63 0.02,-1.73 2.104,-7.067 4.653,-11.861 2.549,-4.794 5.56,-10.45 6.692,-12.57 1.131,-2.119 5.75,-11.282 10.264,-20.361 18.944,-38.106 23.642,-40.998 33.505,-20.623 2.32,4.793 5.828,9.575 7.795,10.628 3.614,1.935 15.684,0.568 15.684,-1.776 0,-0.698 4.199,-3.46 9.331,-6.139 5.132,-2.678 9.772,-5.312 10.313,-5.852 1.566,-1.567 8.305,-5.641 15.301,-9.253 5.589,-2.884 7.315,-2.985 12.769,-0.745 3.468,1.424 8.667,3.021 11.552,3.548 2.886,0.527 6.931,2.527 8.991,4.446 2.059,1.918 5.845,4.155 8.412,4.97 7.325,2.324 10.609,6.818 11.177,15.292 0.288,4.305 1.296,8.808 2.24,10.008 0.944,1.2 2.332,7.021 3.086,12.937 0.753,5.915 2.356,11.943 3.562,13.396 1.206,1.453 2.886,10.315 3.733,19.693 2.466,27.306 4.033,37.685 5.862,38.816 0.941,0.581 1.711,3.922 1.711,7.423 0,3.502 0.957,7.324 2.128,8.494 1.17,1.171 2.123,6.431 2.117,11.688 0,5.258 1.169,12.212 2.611,15.453 2.776,6.244 5.725,19.011 5.89,25.498 0.13,5.105 7.782,8.814 18.261,8.85 4.63,0.02 10.597,1.456 13.26,3.201 4.081,2.674 4.855,4.757 4.928,13.259 0.116,13.498 4.113,27.928 9.123,32.938 3.719,3.719 4.72,3.858 11.132,1.539 6.685,-2.417 7.492,-2.227 15.772,3.72 4.8,3.446 9.521,6.267 10.492,6.267 3.926,0 10.749,12.174 9.736,17.373 -2.444,12.546 -5.212,20.913 -7.129,21.552 -1.137,0.379 -2.068,1.507 -2.068,2.507 0,2.52 -10.05,13.57 -12.343,13.57 -1.029,0 -5.017,2.762 -8.863,6.138 -3.845,3.377 -9.708,7.281 -13.027,8.676 -3.32,1.395 -10.014,6.196 -14.876,10.668 -4.862,4.472 -11.682,10.374 -15.156,13.114 l -6.317,4.983 -5.469,-3.83 c -8.312,-5.822 -10.483,-6.013 -22.167,-1.951 -11.8,4.102 -20.557,12.442 -22.32,21.257 -2.003,10.016 -12.9,8.326 -20.423,-3.167 -4.44,-6.784 -10.723,-8.889 -13.435,-4.502 -0.774,1.253 -1.269,5.805 -1.1,10.115 0.169,4.31 -0.712,9.064 -1.957,10.565 -1.245,1.5 -2.495,9.392 -2.778,17.539 -0.602,17.337 -2.006,19.451 -17.426,26.24 -6.007,2.645 -10.921,5.644 -10.921,6.664 0,2.735 -9.714,14.995 -11.881,14.995 -1.023,0 -7.386,2.59 -14.141,5.756 -8.09,3.79 -14.082,5.397 -17.553,4.707 -3.135,-0.624 -7.03,0.184 -9.613,1.994 -5.539,3.879 -11.748,13.274 -10.31,15.6 1.28,2.071 -2.291,9.622 -8.652,18.291 -2.453,3.343 -4.46,7.912 -4.46,10.154 0,2.241 -1.475,7.019 -3.279,10.618 -6.11,12.193 -6.543,13.361 -6.543,17.643 0,8.569 -9.186,24.432 -10.067,17.384 z"
         id="path25797-1-1-9"
         sodipodi:nodetypes="ssssssssssssscsssssssssssssssssssssssssssssssssssssssssssssssssssssscsssssssssssssssssssssssssssssssssssssssssssssssssssssssssssssssssssssssssssscsssssscssssssssssssssssssssscsssssssssssssssssssssssssssscsssssssssssscsssssssssssscssssssssssssssscssssssssssssssssssssssssssssssssssssssssssssscsssssssssssssssssssssssssssssssssssssssssssssssssssssssscssssssssssssssssssssssscccssssssssssscsscsssssssssssssssssssssscssssssssssssssssscssssssssssssssssssscsssssssssssssssssssssscssssssssssssssssssssscsscsssssssssssssscssssssssssssssss" /><text
         xml:space="preserve"
         id="text3103-6-6-90-4-4-9-7-2-2-7-4-2-5-0-9-2-1-1-0-9-1-3-7-2-6-7"
         style="font-style:normal;font-variant:normal;font-weight:normal;font-stretch:normal;font-size:82.3036px;font-family:'Canted Comic';-inkscape-font-specification:'Canted Comic, Normal';font-variant-ligatures:normal;font-variant-caps:normal;font-variant-numeric:normal;font-variant-east-asian:normal;white-space:pre;shape-inside:url(#rect3105-5-5-97-13-9-1-5-6-0-6-9-6-7-6-5-2-3-8-27-17-77-8-8-6-3-1);display:inline;fill:#000000;fill-opacity:1;stroke:#000000;stroke-width:0;stroke-linejoin:round;stroke-dasharray:none"
         transform="matrix(0.90358462,0,0,0.90358462,23595.843,-3824.031)"><tspan
           x="-1955.4141"
           y="711.07608"
           id="tspan87364">ny</tspan></text><text
         xml:space="preserve"
         id="text3103-6-6-90-4-4-9-7-2-2-7-4-2-5-0-9-2-1-1-0-9-1-3-7-2-6-0-7"
         style="font-style:normal;font-variant:normal;font-weight:normal;font-stretch:normal;font-size:82.3036px;font-family:'Canted Comic';-inkscape-font-specification:'Canted Comic, Normal';font-variant-ligatures:normal;font-variant-caps:normal;font-variant-numeric:normal;font-variant-east-asian:normal;white-space:pre;shape-inside:url(#rect3105-5-5-97-13-9-1-5-6-0-6-9-6-7-6-5-2-3-8-27-17-77-8-8-6-3-6-0);display:inline;fill:#000000;fill-opacity:1;stroke:#000000;stroke-width:0;stroke-linejoin:round;stroke-dasharray:none"
         transform="matrix(0.90358462,0,0,0.90358462,23726.248,-3461.597)"><tspan
           x="-1955.4141"
           y="711.07608"
           id="tspan87366">nj</tspan></text><text
         xml:space="preserve"
         id="text3103-6-6-90-4-4-9-7-2-2-7-4-2-5-0-9-2-1-1-0-9-1-3-7-2-6-0-8-6"
         style="font-style:normal;font-variant:normal;font-weight:normal;font-stretch:normal;font-size:82.3036px;font-family:'Canted Comic';-inkscape-font-specification:'Canted Comic, Normal';font-variant-ligatures:normal;font-variant-caps:normal;font-variant-numeric:normal;font-variant-east-asian:normal;white-space:pre;shape-inside:url(#rect3105-5-5-97-13-9-1-5-6-0-6-9-6-7-6-5-2-3-8-27-17-77-8-8-6-3-6-61-6);display:inline;fill:#000000;fill-opacity:1;stroke:#000000;stroke-width:0;stroke-linejoin:round;stroke-dasharray:none"
         transform="matrix(0.90358462,0,0,0.90358462,23486.165,-3353.425)"><tspan
           x="-1955.4141"
           y="711.07608"
           id="tspan87368">md</tspan></text><text
         xml:space="preserve"
         id="text3103-6-6-90-4-4-9-7-2-2-7-4-2-5-0-9-2-1-1-0-9-1-3-7-2-6-0-2-7"
         style="font-style:normal;font-variant:normal;font-weight:normal;font-stretch:normal;font-size:82.3036px;font-family:'Canted Comic';-inkscape-font-specification:'Canted Comic, Normal';font-variant-ligatures:normal;font-variant-caps:normal;font-variant-numeric:normal;font-variant-east-asian:normal;white-space:pre;shape-inside:url(#rect3105-5-5-97-13-9-1-5-6-0-6-9-6-7-6-5-2-3-8-27-17-77-8-8-6-3-6-6-1);display:inline;fill:#000000;fill-opacity:1;stroke:#000000;stroke-width:0;stroke-linejoin:round;stroke-dasharray:none"
         transform="matrix(0.90358462,0,0,0.90358462,23690.346,-3284.709)"><tspan
           x="-1955.4141"
           y="711.07608"
           id="tspan87370">de</tspan></text><text
         xml:space="preserve"
         id="text3103-6-6-90-4-4-9-7-2-2-7-4-2-5-0-9-2-1-1-0-9-1-3-7-2-6-0-2-9-3"
         style="font-style:normal;font-variant:normal;font-weight:normal;font-stretch:normal;font-size:82.3036px;font-family:'Canted Comic';-inkscape-font-specification:'Canted Comic, Normal';font-variant-ligatures:normal;font-variant-caps:normal;font-variant-numeric:normal;font-variant-east-asian:normal;white-space:pre;shape-inside:url(#rect3105-5-5-97-13-9-1-5-6-0-6-9-6-7-6-5-2-3-8-27-17-77-8-8-6-3-6-6-7-5);display:inline;fill:#000000;fill-opacity:1;stroke:#000000;stroke-width:0;stroke-linejoin:round;stroke-dasharray:none"
         transform="matrix(0.90358462,0,0,0.90358462,23320.871,-3253.63)"><tspan
           x="-1955.4141"
           y="711.07608"
           id="tspan87372">dc</tspan></text><text
         xml:space="preserve"
         id="text3103-6-6-90-4-4-9-7-2-2-7-4-2-5-0-9-2-1-1-0-9-1-3-7-2-6-56-6"
         style="font-style:normal;font-variant:normal;font-weight:normal;font-stretch:normal;font-size:82.3036px;font-family:'Canted Comic';-inkscape-font-specification:'Canted Comic, Normal';font-variant-ligatures:normal;font-variant-caps:normal;font-variant-numeric:normal;font-variant-east-asian:normal;white-space:pre;shape-inside:url(#rect3105-5-5-97-13-9-1-5-6-0-6-9-6-7-6-5-2-3-8-27-17-77-8-8-6-3-3-9);display:inline;fill:#000000;fill-opacity:1;stroke:#000000;stroke-width:0;stroke-linejoin:round;stroke-dasharray:none"
         transform="matrix(0.90358462,0,0,0.90358462,23929.689,-3924.814)"><tspan
           x="-1955.4141"
           y="711.07608"
           id="tspan87374">nh</tspan></text><text
         xml:space="preserve"
         id="text3103-6-6-90-4-4-9-7-2-2-7-4-2-5-0-9-2-1-1-0-9-1-3-7-2-6-56-9-5"
         style="font-style:normal;font-variant:normal;font-weight:normal;font-stretch:normal;font-size:82.3036px;font-family:'Canted Comic';-inkscape-font-specification:'Canted Comic, Normal';font-variant-ligatures:normal;font-variant-caps:normal;font-variant-numeric:normal;font-variant-east-asian:normal;white-space:pre;shape-inside:url(#rect3105-5-5-97-13-9-1-5-6-0-6-9-6-7-6-5-2-3-8-27-17-77-8-8-6-3-3-2-4);display:inline;fill:#000000;fill-opacity:1;stroke:#000000;stroke-width:0;stroke-linejoin:round;stroke-dasharray:none"
         transform="matrix(0.90358462,0,0,0.90358462,23819.432,-4039.757)"><tspan
           x="-1955.4141"
           y="711.07608"
           id="tspan87376">vt</tspan></text><text
         xml:space="preserve"
         id="text3103-6-6-90-4-4-9-7-2-2-7-4-2-5-0-9-2-1-1-0-9-1-3-7-2-6-56-9-2-6"
         style="font-style:normal;font-variant:normal;font-weight:normal;font-stretch:normal;font-size:82.3036px;font-family:'Canted Comic';-inkscape-font-specification:'Canted Comic, Normal';font-variant-ligatures:normal;font-variant-caps:normal;font-variant-numeric:normal;font-variant-east-asian:normal;white-space:pre;shape-inside:url(#rect3105-5-5-97-13-9-1-5-6-0-6-9-6-7-6-5-2-3-8-27-17-77-8-8-6-3-3-2-1-90);display:inline;fill:#000000;fill-opacity:1;stroke:#000000;stroke-width:0;stroke-linejoin:round;stroke-dasharray:none"
         transform="matrix(0.90358462,0,0,0.90358462,24015.562,-3662.216)"><tspan
           x="-1955.4141"
           y="711.07608"
           id="tspan87378">ri</tspan></text><text
         xml:space="preserve"
         id="text3103-6-6-90-4-4-9-7-2-2-7-4-2-5-0-9-2-1-1-0-9-1-3-7-2-6-56-9-2-0-39"
         style="font-style:normal;font-variant:normal;font-weight:normal;font-stretch:normal;font-size:82.3036px;font-family:'Canted Comic';-inkscape-font-specification:'Canted Comic, Normal';font-variant-ligatures:normal;font-variant-caps:normal;font-variant-numeric:normal;font-variant-east-asian:normal;white-space:pre;shape-inside:url(#rect3105-5-5-97-13-9-1-5-6-0-6-9-6-7-6-5-2-3-8-27-17-77-8-8-6-3-3-2-1-7-91);display:inline;fill:#000000;fill-opacity:1;stroke:#000000;stroke-width:0;stroke-linejoin:round;stroke-dasharray:none"
         transform="matrix(0.90358462,0,0,0.90358462,23857.448,-3691.273)"><tspan
           x="-1955.4141"
           y="711.07608"
           id="tspan87380">ct</tspan></text><text
         xml:space="preserve"
         id="text3103-6-6-90-4-4-9-7-2-2-7-4-2-5-0-9-2-1-1-0-9-1-3-7-2-6-56-9-2-0-3-4"
         style="font-style:normal;font-variant:normal;font-weight:normal;font-stretch:normal;font-size:82.3036px;font-family:'Canted Comic';-inkscape-font-specification:'Canted Comic, Normal';font-variant-ligatures:normal;font-variant-caps:normal;font-variant-numeric:normal;font-variant-east-asian:normal;white-space:pre;shape-inside:url(#rect3105-5-5-97-13-9-1-5-6-0-6-9-6-7-6-5-2-3-8-27-17-77-8-8-6-3-3-2-1-7-9-7);display:inline;fill:#000000;fill-opacity:1;stroke:#000000;stroke-width:0;stroke-linejoin:round;stroke-dasharray:none"
         transform="matrix(0.90358462,0,0,0.90358462,23900.313,-3787.998)"><tspan
           x="-1955.4141"
           y="711.07608"
           id="tspan87382">ma</tspan></text><text
         xml:space="preserve"
         id="text3103-6-6-90-4-4-9-7-2-2-7-4-2-5-0-9-2-1-1-0-9-1-3-7-2-6-5-8"
         style="font-style:normal;font-variant:normal;font-weight:normal;font-stretch:normal;font-size:82.3036px;font-family:'Canted Comic';-inkscape-font-specification:'Canted Comic, Normal';font-variant-ligatures:normal;font-variant-caps:normal;font-variant-numeric:normal;font-variant-east-asian:normal;white-space:pre;shape-inside:url(#rect3105-5-5-97-13-9-1-5-6-0-6-9-6-7-6-5-2-3-8-27-17-77-8-8-6-3-7-7);display:inline;fill:#000000;fill-opacity:1;stroke:#000000;stroke-width:0;stroke-linejoin:round;stroke-dasharray:none"
         transform="matrix(0.90358462,0,0,0.90358462,24090.651,-4206.717)"><tspan
           x="-1955.4141"
           y="711.07608"
           id="tspan87384">me</tspan></text><path
         style="fill:#afafaf;fill-opacity:1;stroke:none;stroke-width:20;stroke-linecap:round;stroke-linejoin:round"
         d="m 21772.781,-2657.251 c 0.659,-1.0782 0.916,-2.6656 2.377,-2.9501 1.291,-0.7286 1.898,-2.1186 2.219,-3.4761 1.048,-1.0192 1.514,-2.422 1.595,-3.8577 0.04,-2.3145 0.09,-4.6336 0.04,-6.9491 -0.4,-1.4568 -2.114,-1.7049 -3.224,-2.426 -1.483,-0.7446 -3.163,-0.601 -4.732,-0.9821 -1.549,-0.033 -3.122,-0.3222 -4.655,-0.01 -1.369,0.2241 -2.589,0.9061 -3.961,1.1241 -1.607,0.2897 -3.065,1.2505 -4.727,1.2255 -1.182,0.3692 -2.471,0.1633 -3.659,0.5657 -1.434,0.2375 -2.855,1.1062 -3.197,2.6069 -0.354,1.3258 -0.858,2.871 -0.126,4.155 0.591,1.3531 1.714,2.2877 2.713,3.3389 1.747,1.5303 4.124,1.8801 6.158,2.8842 1.299,0.767 2.835,1.0869 4.057,1.9939 1.32,0.6946 2.461,1.6571 3.588,2.6144 1.182,0.7962 2.724,1.7456 4.124,0.8638 0.47,-0.2321 0.969,-0.4958 1.412,-0.7228 z"
         id="path10039-1"
         sodipodi:nodetypes="csssssssssccssssssssssssscsssscssscsssssssscssccscssssssssssscsscsscsccscsssscssscscsssssscsscc"
         inkscape:path-effect="#path-effect10137-1"
         inkscape:original-d="m 21772.781,-2657.251 c 0.128,-0.18 0.298,-0.338 0.385,-0.542 0.08,-0.182 0.04,-0.395 0.1,-0.586 0.06,-0.206 0.899,-1.407 1.137,-1.528 0.207,-0.104 0.434,-0.1 0.681,-0.193 0.09,-0.03 0.119,-0.145 0.195,-0.196 0.752,-0.501 0.96,-0.825 1.428,-1.526 0.05,-0.08 0.153,-0.113 0.194,-0.194 0.175,-0.345 0.174,-0.8 0.293,-1.157 0.05,-0.144 -0.1,-0.1 0,-0.289 0.04,-0.08 0.196,-0.196 0.196,-0.196 l 1.037,-1.381 c 0,0 0.135,-0.443 0.193,-0.675 0.03,-0.141 0.149,-0.253 0.195,-0.391 0.06,-0.173 -0.03,-0.399 0,-0.581 0.06,-0.365 0.136,-0.715 0.195,-1.074 0.04,-0.254 0,-0.628 0,-0.879 v -2.332 c 0,-0.436 0.08,-3.358 0,-3.513 -0.04,-0.08 -0.153,-0.113 -0.195,-0.195 -0.03,-0.06 0.02,-0.128 0,-0.187 -0.03,-0.08 -0.153,-0.327 -0.194,-0.388 -0.261,-0.391 -0.809,-0.801 -1.268,-0.878 -0.129,-0.02 -0.271,0.05 -0.391,0 -0.127,-0.05 -0.185,-0.206 -0.293,-0.292 -0.355,-0.285 -1.861,-0.922 -2.246,-0.977 -0.456,-0.07 -0.903,-0.13 -1.363,-0.195 -0.194,-0.03 -0.405,0.07 -0.587,0 -0.09,-0.03 -0.112,-0.155 -0.195,-0.196 -0.197,-0.1 -0.552,0.07 -0.762,0 -0.298,-0.1 -0.573,-0.02 -0.868,-0.1 -0.619,-0.155 -1.294,-0.1 -1.948,-0.1 -0.376,0 -1.975,-0.105 -2.239,0 -0.109,0.04 -0.188,0.143 -0.293,0.196 -0.318,0.159 -0.734,0.127 -1.074,0.195 -0.477,0.09 -0.134,0.05 -0.488,0.293 -0.122,0.08 -0.578,0.147 -0.754,0.191 -0.288,0.07 -0.437,-0.03 -0.779,0.1 -0.21,0.08 -0.277,0.24 -0.488,0.293 -0.266,0.07 -0.523,0.01 -0.778,0.1 -0.235,0.08 -0.447,0.214 -0.681,0.292 -0.441,0.147 -0.936,0.149 -1.369,0.293 -0.325,0.109 -0.631,0.402 -0.976,0.488 -0.335,0.08 -0.731,-0.07 -1.07,0 -0.789,0.158 -0.02,0 -0.39,0.196 -0.273,0.139 -1,-0.07 -1.353,0 -0.07,0.01 -0.124,0.08 -0.196,0.1 -0.128,0.02 -0.261,-0.02 -0.39,0 -0.289,0.04 -0.587,0.148 -0.874,0.196 -0.132,0.02 -0.373,-0.03 -0.488,0 -0.563,0.16 -0.208,0.163 -0.585,0.293 -0.773,0.265 -1.398,0.352 -1.926,1.056 -0.54,0.72 -0.534,0.764 -0.683,1.657 -0.04,0.262 -0.224,0.439 -0.293,0.683 -0.147,0.513 -0.1,1.036 -0.1,1.563 0,0.318 -0.121,0.966 0,1.265 0.08,0.207 0.774,0.909 0.879,1.172 0.05,0.125 0.04,0.271 0.1,0.391 0.182,0.364 1.097,1.042 1.375,1.375 0.135,0.162 0.247,0.345 0.396,0.495 0.295,0.296 0.627,0.559 0.98,0.784 0.407,0.258 1.034,0.59 1.478,0.788 0.123,0.05 0.268,0.05 0.393,0.1 0.208,0.08 0.407,0.19 0.602,0.301 0.04,0.02 0.05,0.09 0.1,0.101 0.829,0.169 0,-0.175 0.684,0.1 0.176,0.07 0.31,0.227 0.488,0.293 0.156,0.06 0.329,0.05 0.489,0.1 0.112,0.03 0.178,0.165 0.291,0.193 0.09,0.02 0.199,-0.04 0.289,0 0.09,0.03 0.13,0.131 0.195,0.196 0.13,0.07 0.254,0.144 0.391,0.195 0.125,0.05 0.267,0.05 0.39,0.1 0.39,0.167 0.166,0.185 0.489,0.293 0.127,0.04 0.27,0.04 0.39,0.1 0.146,0.07 0.245,0.22 0.391,0.293 0.496,0.248 1.244,0.341 1.762,0.686 0.04,0.03 0.06,0.07 0.1,0.1 0.13,0.1 0.249,0.212 0.391,0.293 0.357,0.204 0.725,0.353 1.074,0.586 0.211,0.141 0.368,0.358 0.586,0.488 0.09,0.05 0.195,0.07 0.293,0.1 0.1,0.1 0.178,0.216 0.293,0.293 0.09,0.06 0.212,0.03 0.293,0.1 0.09,0.07 0.112,0.21 0.195,0.293 0.05,0.05 0.135,0.06 0.195,0.1 0.247,0.164 0.428,0.415 0.678,0.58 0.147,0.1 0.234,0.283 0.38,0.38 0.224,0.15 0.668,0.395 0.87,0.485 0.01,0 0.776,0.191 0.783,0.195 0.08,0.04 0.119,0.144 0.196,0.195 0.125,0.09 0.487,0.122 0.657,0.184 0.279,0.101 0.538,-0.152 0.72,-0.194 0.207,-0.05 0.421,-0.05 2.098,-0.927 z" /><path
         style="fill:none;fill-opacity:1;stroke:#000000;stroke-width:8;stroke-linecap:round;stroke-linejoin:round;stroke-dasharray:none;stroke-opacity:1"
         d="m 21684.076,-2631.641 c 19.968,-1.769 41.07,-8.902 55.346,-20.606"
         id="path10193-2" /><text
         xml:space="preserve"
         id="text3103-6-6-90-4-4-9-7-2-2-7-4-2-5-0-9-2-1-1-0-9-1-3-7-2-6-5-0-6-9"
         style="font-style:normal;font-variant:normal;font-weight:normal;font-stretch:normal;font-size:82.3036px;font-family:'Canted Comic';-inkscape-font-specification:'Canted Comic, Normal';font-variant-ligatures:normal;font-variant-caps:normal;font-variant-numeric:normal;font-variant-east-asian:normal;white-space:pre;shape-inside:url(#rect3105-5-5-97-13-9-1-5-6-0-6-9-6-7-6-5-2-3-8-27-17-77-8-8-6-3-7-2-2-1);display:inline;fill:#000000;fill-opacity:1;stroke:#000000;stroke-width:0;stroke-linejoin:round;stroke-dasharray:none"
         transform="matrix(0.90358462,0,0,0.90358462,23300.034,-4332.234)"><tspan
           x="-1955.4141"
           y="711.07608"
           id="tspan87386">the northeast:</tspan></text></g></g></svg>
