<?xml version="1.0" encoding="UTF-8" standalone="no"?>
<!-- Created with Inkscape (http://www.inkscape.org/) -->

<svg
   version="1.1"
   id="svg176"
   width="1219.8027"
   height="1394.4062"
   viewBox="0 0 1219.8028 1394.4062"
   sodipodi:docname="website for ai.svg"
   xml:space="preserve"
   inkscape:version="1.2.2 (b0a8486541, 2022-12-01)"
   xmlns:inkscape="http://www.inkscape.org/namespaces/inkscape"
   xmlns:sodipodi="http://sodipodi.sourceforge.net/DTD/sodipodi-0.dtd"
   xmlns="http://www.w3.org/2000/svg"
   xmlns:svg="http://www.w3.org/2000/svg"><defs
     id="defs180"><linearGradient
       id="linearGradient1486"
       inkscape:swatch="solid"><stop
         style="stop-color:#000000;stop-opacity:1;"
         offset="0"
         id="stop1484" /></linearGradient><rect
       x="-1955.4146"
       y="630.24219"
       width="1258.9419"
       height="409.6745"
       id="rect3105-5-5-97-13-9-1-5-6-0-6-9-6-7-6-5-2-3-8-27-17-77-8-8-6-3-1" /><rect
       x="-1955.4146"
       y="630.24219"
       width="1258.9419"
       height="409.6745"
       id="rect3105-5-5-97-13-9-1-5-6-0-6-9-6-7-6-5-2-3-8-27-17-77-8-8-6-3-6-0" /><rect
       x="-1955.4146"
       y="630.24219"
       width="1258.9419"
       height="409.6745"
       id="rect3105-5-5-97-13-9-1-5-6-0-6-9-6-7-6-5-2-3-8-27-17-77-8-8-6-3-6-61-6" /><rect
       x="-1955.4146"
       y="630.24219"
       width="1258.9419"
       height="409.6745"
       id="rect3105-5-5-97-13-9-1-5-6-0-6-9-6-7-6-5-2-3-8-27-17-77-8-8-6-3-6-6-1" /><rect
       x="-1955.4146"
       y="630.24219"
       width="1258.9419"
       height="409.6745"
       id="rect3105-5-5-97-13-9-1-5-6-0-6-9-6-7-6-5-2-3-8-27-17-77-8-8-6-3-6-6-7-5" /><rect
       x="-1955.4146"
       y="630.24219"
       width="1258.9419"
       height="409.6745"
       id="rect3105-5-5-97-13-9-1-5-6-0-6-9-6-7-6-5-2-3-8-27-17-77-8-8-6-3-3-9" /><rect
       x="-1955.4146"
       y="630.24219"
       width="1258.9419"
       height="409.6745"
       id="rect3105-5-5-97-13-9-1-5-6-0-6-9-6-7-6-5-2-3-8-27-17-77-8-8-6-3-3-2-4" /><rect
       x="-1955.4146"
       y="630.24219"
       width="1258.9419"
       height="409.6745"
       id="rect3105-5-5-97-13-9-1-5-6-0-6-9-6-7-6-5-2-3-8-27-17-77-8-8-6-3-3-2-1-90" /><rect
       x="-1955.4146"
       y="630.24219"
       width="1258.9419"
       height="409.6745"
       id="rect3105-5-5-97-13-9-1-5-6-0-6-9-6-7-6-5-2-3-8-27-17-77-8-8-6-3-3-2-1-7-91" /><rect
       x="-1955.4146"
       y="630.24219"
       width="1258.9419"
       height="409.6745"
       id="rect3105-5-5-97-13-9-1-5-6-0-6-9-6-7-6-5-2-3-8-27-17-77-8-8-6-3-3-2-1-7-9-7" /><rect
       x="-1955.4146"
       y="630.24219"
       width="1258.9419"
       height="409.6745"
       id="rect3105-5-5-97-13-9-1-5-6-0-6-9-6-7-6-5-2-3-8-27-17-77-8-8-6-3-7-7" /><rect
       x="-1955.4146"
       y="630.24219"
       width="1258.9419"
       height="409.6745"
       id="rect3105-5-5-97-13-9-1-5-6-0-6-9-6-7-6-5-2-3-8-27-17-77-8-8-6-3-7-2-2-1" /></defs><sodipodi:namedview
     id="namedview178"
     pagecolor="#ffffff"
     bordercolor="#000000"
     borderopacity="0.25"
     inkscape:showpageshadow="2"
     inkscape:pageopacity="0.0"
     inkscape:pagecheckerboard="0"
     inkscape:deskcolor="#d1d1d1"
     showgrid="false"
     showguides="false"
     inkscape:zoom="0.14522152"
     inkscape:cx="-3515.3193"
     inkscape:cy="26373.502"
     inkscape:window-width="1920"
     inkscape:window-height="1011"
     inkscape:window-x="0"
     inkscape:window-y="0"
     inkscape:window-maximized="1"
     inkscape:current-layer="g182"><inkscape:grid
       type="xygrid"
       id="grid2722" /></sodipodi:namedview><g
     inkscape:groupmode="layer"
     inkscape:label="Image"
     id="g182"
     transform="translate(-15327.744,7266.3525)"><g
       id="g70643"
       transform="translate(-5044.9375,-3023.375)"
       inkscape:export-filename="northeast.svg"
       inkscape:export-xdpi="10"
       inkscape:export-ydpi="10"><g
         id="g27925"
         transform="translate(-2238.3638,-1538.7053)"><g
           id="g27818"><path
             id="rect52906-6-5"
             style="fill:#ebebeb;stroke-width:8;stroke-linecap:round;stroke-linejoin:round"
             d="m 22792.076,-2704.2722 h 857.741 c 100.291,0 181.031,80.7395 181.031,181.0304 v 1032.3452 c 0,100.2908 -80.74,181.0304 -181.031,181.0304 h -857.741 c -100.291,0 -181.031,-80.7396 -181.031,-181.0304 v -1032.3452 c 0,-100.2909 80.74,-181.0304 181.031,-181.0304 z" /></g><g
           id="g27870"
           transform="translate(1181.8425,1206.0235)"><path
             style="fill:#afafaf;fill-opacity:1;stroke-width:1.96436"
             d="m 21905.081,-2584.138 c -2.325,-2.166 -4.226,-5.402 -4.226,-7.191 0,-1.79 -2.339,-5.695 -5.198,-8.679 -3.997,-4.172 -5.996,-4.998 -8.656,-3.574 -4.428,2.369 -25.131,-1.484 -29.853,-5.557 -1.891,-1.631 -3.438,-4.154 -3.438,-5.607 0,-1.453 -0.884,-2.642 -1.964,-2.642 -1.102,0 -1.965,-5.442 -1.965,-12.398 0,-9.683 0.861,-13.321 3.929,-16.615 5.398,-5.794 4.936,-8.832 -1.964,-12.908 -6.365,-3.76 -8.484,-13.081 -2.973,-13.081 3.81,0 8.136,-10.621 8.519,-20.914 0.26,-6.99 -0.717,-9.136 -6.879,-15.122 l -7.182,-6.975 5.24,-7.918 c 2.881,-4.355 5.239,-10.536 5.239,-13.737 0,-3.2 0.898,-6.374 1.996,-7.053 1.099,-0.678 1.539,-1.975 0.978,-2.882 -0.875,-1.416 -10.71,2.196 -20.653,7.586 -6.554,3.553 -13.602,28.523 -9.967,35.314 3.71,6.932 1.68,18.534 -5.496,31.419 -1.509,2.709 -2.196,8.006 -1.658,12.769 1.311,11.577 10.608,35 15.545,39.159 3.12,2.629 4.099,5.525 3.868,11.44 -0.171,4.357 0.672,9.758 1.874,12.003 2.132,3.983 1.905,4.048 -9.339,2.654 -6.338,-0.786 -18.154,-2.104 -26.257,-2.929 -16.793,-1.711 -25.232,-5.084 -36.106,-14.431 -6.546,-5.627 -7.239,-6.955 -4.911,-9.404 1.492,-1.569 5.255,-8.598 8.363,-15.621 7.712,-17.428 11.211,-23.886 15.368,-28.362 4.347,-4.681 4.551,-12.529 0.478,-18.345 -2.429,-3.468 -4.974,-4.366 -12.376,-4.366 -5.124,0 -10.31,0.993 -11.523,2.206 -2.573,2.573 -12.972,-3.921 -16.332,-10.2 -1.117,-2.085 -3.283,-3.792 -4.815,-3.792 -6.151,0 -12.564,-4.763 -16.02,-11.899 -2.006,-4.141 -4.973,-7.966 -6.593,-8.498 -4.648,-1.528 -14.436,-7.8 -17.217,-11.033 -1.394,-1.62 -3.968,-6.04 -5.72,-9.821 -1.995,-4.307 -7.112,-9.41 -13.696,-13.658 -5.781,-3.73 -6.37,-8.393 -6.37,-9.06 0,-1.239 31.146,-4.082 64.611,-6.549 10.264,-0.757 19.545,-1.693 20.626,-2.081 1.08,-0.388 3.442,-0.06 5.248,0.74 1.806,0.794 5.021,0.515 7.144,-0.621 2.124,-1.136 11.253,-2.225 20.289,-2.42 9.035,-0.195 17.853,-1.068 19.595,-1.939 4.135,-2.068 60.774,-4.163 60.364,-2.232 -0.173,0.813 0.225,2.805 0.884,4.425 0.659,1.621 1.625,8.251 2.147,14.733 1.448,17.968 5.103,36.61 11.2,57.106 0.987,3.318 1.825,8.622 1.863,11.786 0.04,3.165 1.333,7.964 2.877,10.665 1.544,2.701 2.839,9.941 2.877,16.09 0.04,6.148 1.051,11.785 2.251,12.527 1.244,0.769 1.741,4.054 1.158,7.65 -0.563,3.467 -0.439,7.21 0.274,8.319 1.699,2.639 11.039,4.484 32.728,6.467 9.723,0.889 21.215,2.375 25.536,3.304 7.484,1.607 7.874,2.059 8.203,9.514 0.217,4.917 -1.469,11.574 -4.534,17.903 -4.714,9.734 -5.224,10.127 -15.078,11.616 -5.609,0.848 -13.735,1.846 -18.056,2.217 -11.728,1.006 -15.56,1.675 -17.907,3.127 -1.168,0.721 -4.026,-0.46 -6.35,-2.625 z m 30.392,-57.926 c -4.662,-1.709 -10.566,-2.32 -15.224,-1.575 l -7.608,1.217 v -9.154 c 0,-5.035 -1.486,-12.44 -3.303,-16.457 -1.817,-4.017 -3.445,-10.397 -3.619,-14.179 -0.173,-3.781 -1.398,-11.295 -2.72,-16.697 -3.371,-13.775 -4.053,-17.902 -5.355,-32.412 -0.63,-7.022 -1.933,-13.608 -2.896,-14.634 -0.963,-1.027 -1.751,-3.763 -1.751,-6.082 0,-2.319 -1.418,-7.059 -3.151,-10.533 -2.366,-4.742 -2.774,-8.613 -1.638,-15.526 0.832,-5.065 1.333,-10.62 1.114,-12.346 -0.487,-3.831 2.929,-6.712 9.939,-8.385 5.796,-1.383 9.216,1.495 4.797,4.035 -1.798,1.033 -2.955,5.741 -3.289,13.38 -0.971,22.172 -0.514,23.955 8.434,32.903 4.592,4.592 8.128,9.012 7.858,9.822 -0.271,0.81 0.573,1.252 1.875,0.982 1.301,-0.27 2.406,0.54 2.455,1.801 0.05,1.26 0.752,2.955 1.563,3.765 0.81,0.81 1.473,2.627 1.473,4.037 0,1.411 3.901,10.766 8.668,20.79 8.291,17.433 16.641,27.884 26.199,32.791 3.759,1.93 4.42,3.858 4.42,12.888 0,5.841 0.884,11.165 1.964,11.833 1.081,0.668 1.965,2.814 1.965,4.77 0,6.098 -18.878,7.838 -32.17,2.966 z m 38.554,-61.092 c -3.799,-1.533 -2.9,-8.21 1.473,-10.941 2.34,-1.462 3.929,-4.581 3.929,-7.714 0,-10.463 -1.376,-11.474 -15.621,-11.474 -10.715,0 -13.909,-0.744 -16.771,-3.906 -1.944,-2.149 -8.048,-6.746 -13.564,-10.217 -11.675,-7.347 -20.521,-16.365 -22.057,-22.485 -1.486,-5.922 4.26,-17.24 12.784,-25.175 16.568,-15.424 24.873,-22.582 26.255,-22.632 0.81,-0.03 1.473,-1.47 1.473,-3.203 0,-1.733 5.524,-8.556 12.275,-15.162 11.988,-11.73 12.265,-12.236 11.854,-21.606 -0.444,-10.124 -0.854,-10.685 -17.576,-24.054 -4.144,-3.314 -9.036,-6.583 -10.87,-7.265 -1.834,-0.683 -4.25,-4.639 -5.368,-8.793 -1.119,-4.154 -3.817,-9.466 -5.996,-11.805 -4.674,-5.017 -5.048,-11.455 -1.124,-19.34 1.562,-3.137 3.165,-11.449 3.562,-18.472 0.68,-11.992 1.224,-13.261 8.948,-20.885 6.874,-6.786 8.224,-9.38 8.224,-15.813 0,-12.221 6.245,-15.896 14.284,-8.406 2.365,2.203 6.526,4.438 9.249,4.967 2.722,0.529 7.602,1.911 10.843,3.071 3.241,1.16 10.393,3.232 15.894,4.605 13.932,3.478 20.1,7.993 21.562,15.785 1.491,7.945 -0.261,14.028 -6.025,20.925 -3.147,3.766 -4.746,9.032 -5.708,18.803 -1.996,20.248 0.806,25.172 15.528,27.286 14.506,2.084 13.751,1.084 13.751,18.182 0,15.148 -0.159,15.685 -4.938,16.641 -13.472,2.694 -19.364,17.449 -11.834,29.633 2.385,3.859 6.556,7.562 9.29,8.248 4.499,1.13 4.841,1.91 3.665,8.346 -0.713,3.904 -1.544,7.983 -1.847,9.064 -0.302,1.08 -1.654,5.861 -3.004,10.623 -1.35,4.762 -5.011,11.215 -8.135,14.339 -3.125,3.125 -7.252,8.462 -9.172,11.861 -4.082,7.228 -7.059,11.227 -15.768,21.18 -3.511,4.013 -6.384,8.349 -6.384,9.636 0,4.013 -6.276,21.743 -8.093,22.867 -0.951,0.588 -1.729,3.084 -1.729,5.548 0,2.894 -1.771,5.286 -5.003,6.759 -2.752,1.254 -5.183,2.21 -5.402,2.125 -0.219,-0.08 -1.504,-0.601 -2.854,-1.146 z m -438.861,-9.855 c -0.468,-1.967 -0.5,-11.23 -0.07,-20.583 l 0.778,-17.005 8.155,-0.948 c 4.485,-0.522 11.69,-2.091 16.012,-3.487 4.321,-1.397 14.929,-2.703 23.572,-2.904 8.643,-0.2 24.333,-1.044 34.867,-1.875 20.989,-1.656 25.005,0.405 11.786,6.048 -5.319,2.271 -11.175,2.888 -21.078,2.22 l -13.713,-0.924 -7.404,7.63 c -4.073,4.196 -7.405,8.418 -7.405,9.382 0,2.828 -5.947,4.301 -12.541,3.106 -6.393,-1.159 -7.042,-0.738 -25.007,16.216 -6.156,5.809 -7.214,6.225 -7.951,3.124 z m 93.944,-47.352 c 0,-1.046 46.401,-4.119 48.021,-3.497 1.621,0.622 6.37,8.635 6.37,9.06 0,0.425 -51.615,1.035 -53.236,1.035 -1.62,0 -1.155,-5.551 -1.155,-6.598 z m 388.613,-81.228 c 0,0 8.803,-28.36 22.814,-22.983 2.397,0.92 5.435,-1.983 3.771,0.02 -2.106,2.538 -3.971,36.887 -2.461,42.753 1.166,4.53 -11.052,2.563 -11.052,2.563 1.659,-4.111 -31.193,-24.962 -13.072,-22.354 z m 7.707,-76.605 c -0.763,-1.233 0.35,-3.667 2.473,-5.41 2.122,-1.742 6.637,-6.791 10.033,-11.219 5.309,-6.922 6.359,-10.25 7.484,-23.742 l 1.308,-15.691 -7.196,-7.197 c -3.958,-3.958 -8.84,-7.196 -10.849,-7.196 -2.01,0 -4.115,-1.202 -4.679,-2.671 -1.137,-2.966 -15.582,-7.151 -24.679,-7.151 -3.226,0 -7.033,-1.105 -8.461,-2.455 -1.428,-1.351 -4.98,-3.685 -7.895,-5.188 -2.914,-1.503 -9.544,-6.647 -14.732,-11.431 -10.953,-10.098 -15.709,-12.356 -26.033,-12.356 -8.311,0 -12.948,-4.829 -15.135,-15.764 -0.652,-3.259 -1.955,-6.401 -2.896,-6.983 -0.941,-0.581 -1.71,-3.018 -1.71,-5.415 0,-5.965 -5.329,-13.089 -9.791,-13.089 -2.021,0 -5.313,-1.989 -7.315,-4.42 -9.896,-12.015 -10.821,-12.303 -37.603,-11.727 -24.832,0.534 -62.486,4.838 -74.352,8.499 -5.735,1.769 -11.312,2.475 -37.909,4.8 -4.862,0.425 -19.848,1.298 -33.301,1.94 -13.454,0.642 -25.334,1.707 -26.4,2.366 -1.065,0.658 -12.157,1.947 -24.647,2.864 -32.115,2.357 -38.232,2.913 -47.715,4.335 -4.614,0.691 -28.72,1.581 -53.569,1.976 -24.849,0.395 -51.576,1.357 -59.394,2.138 -7.817,0.781 -16.554,0.832 -19.416,0.114 -5.034,-1.263 -5.166,-1.663 -4.074,-12.246 1.133,-10.981 6.819,-20.283 12.398,-20.283 1.371,0 3.648,-1.547 5.06,-3.438 1.412,-1.891 5.849,-5.89 9.861,-8.885 11.848,-8.846 17.971,-15.249 30.642,-32.044 l 11.984,-15.885 -1.489,-13.932 c -1.211,-11.334 -2.385,-14.678 -6.298,-17.935 -2.646,-2.202 -5.916,-4.032 -7.266,-4.068 -1.351,-0.04 -2.456,-1.782 -2.456,-3.879 0,-2.097 -0.883,-4.359 -1.964,-5.026 -1.08,-0.668 -1.964,-4.159 -1.964,-7.757 0,-5.841 0.96,-6.995 8.941,-10.746 23.391,-10.995 43.359,-14.747 69.984,-13.148 29.023,1.744 41.613,3.272 43.749,5.313 2.342,2.238 23.216,2.355 25.733,0.143 1.026,-0.902 6.038,-3.174 11.138,-5.051 7.438,-2.736 12.413,-3.137 25.15,-2.026 l 15.878,1.385 12.173,-12.753 c 12.892,-13.508 30.482,-27.06 35.124,-27.06 1.53,0 3.842,-1.06 5.139,-2.357 2.844,-2.844 3.163,-22.449 0.392,-24.161 -3.434,-2.123 -2.117,-11.37 2.287,-16.058 2.338,-2.489 4.487,-6.743 4.777,-9.454 0.42,-3.939 -0.533,-5.163 -4.742,-6.097 -10.796,-2.395 -13.208,-3.305 -16.563,-6.251 -1.891,-1.66 -3.438,-5.769 -3.438,-9.132 0,-7.667 14.597,-25.054 25.168,-29.978 9.711,-4.524 16.924,-11.391 24.382,-23.213 3.409,-5.401 9.123,-12.842 12.7,-16.533 3.576,-3.691 6.505,-7.669 6.507,-8.839 0,-2.416 31.461,-32.247 42.781,-40.571 6.385,-4.696 9.982,-5.661 25.06,-6.722 9.682,-0.681 22.024,-2.216 27.426,-3.41 5.402,-1.194 15.125,-2.332 21.608,-2.53 15.719,-0.478 43.691,-4.47 48.189,-6.877 1.984,-1.062 5.859,-1.931 8.611,-1.931 5.786,0 8.369,6.453 6.107,15.26 -3.135,12.209 -3.281,21.858 -0.425,28.256 7.409,16.595 9.414,33.559 5.444,46.06 -0.995,3.132 -2.237,12.984 -2.76,21.893 -0.929,15.81 -0.813,16.346 4.853,22.412 7.846,8.398 9.627,12.1 7.466,15.516 -3.63,5.736 -0.396,22.767 5.509,29.008 1.35,1.428 2.455,3.314 2.455,4.191 0,0.877 4.002,4.57 8.893,8.208 l 8.892,6.613 -1.196,9.822 c -1.833,15.059 -1.546,40.529 0.783,69.326 1.478,18.267 1.493,27.708 0.05,31.43 -1.766,4.559 -7.369,52.379 -7.542,64.371 -0.03,2.227 1.811,6.056 4.097,8.509 3.765,4.042 4.133,6.582 3.918,27.038 -0.129,12.418 -1.116,24.221 -2.191,26.229 -1.075,2.008 -1.954,13.822 -1.954,26.254 0,12.95 -0.839,23.122 -1.964,23.817 -3.378,2.088 -2.152,12.882 2.378,20.943 3.592,6.391 3.932,8.386 1.965,11.536 -2.834,4.537 -3.074,9.093 -0.562,10.646 2.746,1.697 11.79,-2.79 22.656,-11.24 7.213,-5.608 10.781,-7.211 13.751,-6.174 9.212,3.217 25.068,0.737 44.102,-6.898 4.959,-1.99 12.995,-4.697 17.856,-6.018 14.759,-4.007 17.531,-5.58 21.605,-12.263 2.154,-3.534 4.245,-7.309 4.647,-8.389 1.027,-2.761 22.857,8.726 22.857,12.027 0,1.488 -0.936,2.706 -2.079,2.706 -1.144,0 -5.343,2.612 -9.331,5.804 -3.988,3.192 -10.787,7.249 -15.109,9.014 -4.321,1.766 -12.865,7.109 -18.986,11.875 -6.121,4.766 -12.088,8.665 -13.26,8.665 -1.171,0 -2.13,0.788 -2.13,1.751 0,0.964 -2.431,2.358 -5.402,3.1 -2.971,0.741 -8.054,3.312 -11.295,5.713 -3.241,2.4 -9.871,5.582 -14.733,7.071 -4.861,1.489 -11.198,3.861 -14.082,5.272 -2.883,1.411 -9.071,3.005 -13.75,3.543 -4.68,0.538 -12.928,1.922 -18.33,3.075 -11.662,2.489 -14.009,2.58 -21.121,0.819 -4.143,-1.025 -6.984,-0.135 -12.156,3.81 -4.617,3.521 -7.189,4.44 -8.136,2.907 z m 43.553,-69.722 c -0.674,-1.757 -0.406,-4.188 0.597,-5.402 1.002,-1.213 2.291,-8.394 2.864,-15.957 0.572,-7.563 2.261,-28.778 3.753,-47.145 1.767,-21.76 2.071,-35.31 0.872,-38.896 -2.305,-6.889 -1.521,-7.635 9.937,-9.457 5.116,-0.813 13.394,-2.374 18.395,-3.469 5.001,-1.094 17.312,-2.503 27.358,-3.13 10.047,-0.628 24.684,-2.467 32.529,-4.087 7.844,-1.621 22.069,-3.334 31.612,-3.809 l 17.35,-0.863 2.65,5.986 c 1.955,4.417 2.073,6.563 0.451,8.186 -2.764,2.763 -2.874,18.091 -0.165,23.15 1.401,2.619 1.401,4.98 0,7.601 -1.467,2.74 -1.171,7.53 1.06,17.149 3.054,13.168 3.038,13.393 -1.198,16.824 -2.362,1.912 -6.305,3.477 -8.763,3.477 -2.458,0 -7.001,1.321 -10.095,2.934 -3.095,1.614 -9.332,2.94 -13.859,2.947 -4.528,0 -8.779,0.896 -9.447,1.976 -0.668,1.081 -5.361,1.97 -10.429,1.976 -15.859,0.02 -39.647,8.795 -50.103,18.486 -2.591,2.401 -7.71,5.55 -11.376,6.997 -3.666,1.449 -8.876,4.578 -11.577,6.955 -4.775,4.202 -16.808,10.766 -19.735,10.766 -0.799,0 -2.004,-1.437 -2.679,-3.195 z m 167.776,-65.31 c 0,-3.105 -1.194,-9.072 -2.654,-13.259 -2.015,-5.78 -2.289,-13.042 -1.138,-30.153 0.833,-12.397 1.161,-23.113 0.728,-23.813 -0.432,-0.7 2.511,-1.818 6.541,-2.484 10.623,-1.756 12.238,-1.564 12.238,1.458 0,1.492 5.304,9.852 11.786,18.577 6.483,8.726 11.787,16.938 11.787,18.25 0,1.311 1.305,3.827 2.901,5.591 1.595,1.763 3.142,5.329 3.437,7.925 0.463,4.069 -0.491,4.895 -6.903,5.983 -4.092,0.694 -9.837,3.444 -12.768,6.112 -8.21,7.473 -15.506,11.459 -20.975,11.459 -4.175,0 -4.98,-0.912 -4.98,-5.646 z m 61.292,-26.362 c -1.047,-1.303 -3.815,-6.607 -6.151,-11.789 -2.336,-5.181 -5.966,-11.14 -8.067,-13.24 -2.101,-2.101 -5.632,-7.675 -7.847,-12.387 -2.215,-4.712 -6.582,-11.015 -9.705,-14.007 -5.566,-5.333 -6.137,-5.438 -28.895,-5.329 -49.576,0.239 -76.871,1.544 -79.596,3.806 -1.637,1.358 -11.088,2.433 -23.279,2.649 -11.288,0.199 -24.06,1.267 -28.381,2.373 -4.322,1.106 -12.91,2.172 -19.084,2.37 -6.175,0.197 -12.605,1.502 -14.289,2.899 -1.685,1.398 -3.631,1.974 -4.325,1.28 -0.694,-0.694 -0.231,-1.262 1.03,-1.262 1.457,0 2.284,-3.754 2.271,-10.313 -0.04,-19.357 6.424,-60.169 9.749,-61.566 2.915,-1.224 8.906,-2.085 44.749,-6.427 8.895,-1.078 17.138,-2.556 18.318,-3.285 1.179,-0.729 19.094,-1.636 39.811,-2.015 41.63,-0.761 51.055,-1.786 54.491,-5.926 1.275,-1.536 4.362,-2.793 6.861,-2.793 7.863,0 13.246,-3.295 27.065,-16.568 7.385,-7.094 14.315,-12.897 15.4,-12.897 2.902,0 9.336,8.314 9.412,12.161 0.04,1.827 0.949,3.868 2.03,4.536 3.326,2.055 2.193,9.686 -2.938,19.801 -2.697,5.315 -4.907,11.159 -4.911,12.986 0,1.827 -0.893,3.868 -1.973,4.535 -2.804,1.734 -2.429,9.937 0.568,12.425 1.393,1.156 6.696,3.215 11.786,4.577 5.09,1.361 9.254,3.175 9.254,4.031 0,0.857 1.105,1.564 2.455,1.573 1.351,0 3.442,1.997 4.646,4.42 2.122,4.266 9.707,18.219 14.181,26.087 1.205,2.12 3.466,7.1 5.023,11.067 3.92,9.985 11.245,14.342 23.233,13.821 10.43,-0.454 15.127,-2.338 23.785,-9.54 6.85,-5.698 8.435,-5.752 11.308,-0.384 1.933,3.611 1.58,4.778 -2.386,7.91 -2.96,2.336 -6.976,3.44 -11.037,3.034 -4.59,-0.46 -6.384,0.169 -6.384,2.24 0,1.584 -0.522,2.357 -1.16,1.72 -2.09,-2.09 -16.348,4.123 -25.5,11.111 -9.672,7.385 -12.645,7.39 -17.466,0.03 -4.437,-6.773 -11.043,-6.028 -18.418,2.076 -3.415,3.753 -6.209,7.96 -6.209,9.35 0,4.063 -7.116,7.73 -9.425,4.856 z m -218.323,-128.809 c -5.241,-3.586 -7.054,-28.993 -4.745,-66.492 l 0.994,-16.141 -11.933,-12.083 -11.934,-12.083 v -13.402 c 0,-7.372 -0.884,-13.949 -1.964,-14.617 -1.081,-0.668 -1.965,-2.866 -1.965,-4.885 0,-2.018 -2.293,-5.474 -5.096,-7.678 -5.66,-4.453 -5.718,-7.076 -0.888,-40.792 2.448,-17.085 1.793,-22.846 -5.619,-49.457 -3.97,-14.255 -3.983,-36.273 -0.02,-38.721 1.604,-0.991 20.742,-4.01 43.056,-6.793 7.023,-0.875 17.18,-2.569 22.571,-3.763 5.392,-1.194 10.895,-1.752 12.23,-1.24 1.335,0.513 6.647,-0.349 11.805,-1.914 5.158,-1.565 14.461,-2.855 20.673,-2.867 6.213,-0.02 11.295,-0.905 11.295,-1.985 0,-1.08 3.418,-1.964 7.595,-1.964 h 7.596 l -0.973,13.598 c -0.863,12.054 -0.387,14.647 4.191,22.837 3.296,5.899 5.164,12.232 5.164,17.516 0,9.128 -2.456,12.006 -23.835,27.942 -13.003,9.692 -12.82,9.056 -14.601,50.7 -1.303,30.458 -3.285,40.074 -10.929,53.031 -4.057,6.876 -4.483,10.105 -4.565,34.63 -0.06,19.12 0.629,27.768 2.365,29.508 3.344,3.351 2.991,17.498 -0.553,22.185 -1.587,2.097 -2.884,7.406 -2.884,11.798 0,6.824 -0.786,8.332 -5.412,10.38 -7.233,3.201 -37.987,5.235 -41.616,2.752 z m 65.864,-17.65 c 0.783,-1.78 2.304,-8.12 3.381,-14.09 1.582,-8.775 1.364,-12.162 -1.137,-17.68 -4.476,-9.872 -5.702,-40.388 -1.952,-48.567 1.61,-3.511 3.805,-6.384 4.878,-6.384 1.073,0 1.428,-1.361 0.79,-3.024 -0.638,-1.663 -0.394,-4.536 0.543,-6.384 4.799,-9.468 5.991,-14.563 6.991,-29.879 0.599,-9.183 1.746,-25.155 2.55,-35.492 l 1.46,-18.795 13.674,-14.11 c 16.24,-16.756 20.702,-25.067 20.702,-38.555 0,-7.572 -1.26,-11.851 -5.193,-17.639 -4.612,-6.788 -4.941,-8.337 -2.946,-13.855 1.235,-3.417 2.246,-12.362 2.246,-19.878 0,-8.54 1.033,-15.139 2.753,-17.595 1.514,-2.162 3.061,-6.025 3.438,-8.585 1.347,-9.156 11.557,-10.461 15.472,-1.978 0.714,1.548 2.486,5.025 3.937,7.726 1.451,2.701 3.022,12.645 3.492,22.099 0.47,9.453 1.63,17.188 2.578,17.188 0.948,0 1.724,2.461 1.724,5.47 0,3.009 1.854,10.743 4.12,17.188 2.266,6.445 4.856,19.674 5.756,29.397 1.937,20.927 5.58,40.508 8.022,43.118 0.96,1.026 1.746,4.289 1.746,7.25 0,2.962 0.884,5.931 1.964,6.599 1.081,0.667 1.97,3.15 1.977,5.518 0,2.367 1.332,6.835 2.946,9.93 1.614,3.094 2.935,8.104 2.935,11.131 0,3.028 0.91,5.809 2.023,6.18 1.221,0.406 2.042,9.21 2.069,22.186 0.02,11.832 0.917,22.564 1.985,23.851 1.067,1.286 5.895,3.506 10.728,4.933 7.492,2.212 9.063,3.59 10.65,9.339 1.025,3.71 4.174,9.158 6.999,12.107 8.332,8.696 6.225,14.836 -7.551,22.005 -6.271,3.263 -14.976,9.471 -19.344,13.796 -5.583,5.527 -11.534,8.964 -20.028,11.567 -6.647,2.036 -13.412,4.211 -15.032,4.832 -1.621,0.621 -20.907,1.396 -42.858,1.723 -36.46,0.542 -39.788,0.314 -38.488,-2.643 z m 151.817,-61.184 c -0.136,-1.081 -0.467,-2.849 -0.737,-3.929 -0.27,-1.08 -0.601,-3.254 -0.736,-4.831 -0.264,-3.081 -9.912,-12.848 -12.691,-12.848 -0.924,0 -4.248,-1.828 -7.386,-4.062 -5.584,-3.977 -5.706,-4.447 -5.736,-22.099 -0.02,-9.921 -0.818,-19.282 -1.781,-20.803 -1.047,-1.654 -0.958,-4.504 0.222,-7.094 1.46,-3.206 1.158,-5.902 -1.166,-10.396 -1.726,-3.337 -3.138,-7.88 -3.138,-10.094 0,-2.214 -0.883,-4.026 -1.964,-4.026 -1.08,0 -1.964,-3.87 -1.964,-8.6 0,-4.73 -1.357,-11.847 -3.015,-15.816 -1.659,-3.969 -3.96,-16.673 -5.115,-28.232 -1.283,-12.844 -3.883,-25.598 -6.685,-32.802 -2.521,-6.482 -5.097,-16.206 -5.724,-21.608 -2.933,-25.279 -4.436,-35.589 -5.583,-38.304 -1.88,-4.448 1.493,-16.789 4.409,-16.133 4.23,0.952 7.833,-5.998 7.929,-15.297 0.09,-8.41 3.656,-21.957 6.545,-24.845 0.74,-0.741 1.346,-3.851 1.346,-6.912 0,-5.869 1.675,-7.903 16.387,-19.905 5.032,-4.106 9.149,-8.746 9.149,-10.313 0,-1.567 0.884,-2.849 1.965,-2.849 2.922,0 2.375,-9.222 -0.926,-15.606 -7.343,-14.199 -4.985,-41.407 4.475,-51.628 4.664,-5.04 4.939,-6.515 4.644,-24.874 -0.275,-17.057 0.3,-20.837 4.566,-30.001 2.685,-5.767 4.89,-11.9 4.901,-13.63 0.02,-1.73 2.104,-7.067 4.653,-11.861 2.549,-4.794 5.56,-10.45 6.692,-12.57 1.131,-2.119 5.75,-11.282 10.264,-20.361 18.944,-38.106 23.642,-40.998 33.505,-20.623 2.32,4.793 5.828,9.575 7.795,10.628 3.614,1.935 15.684,0.568 15.684,-1.776 0,-0.698 4.199,-3.46 9.331,-6.139 5.132,-2.678 9.772,-5.312 10.313,-5.852 1.566,-1.567 8.305,-5.641 15.301,-9.253 5.589,-2.884 7.315,-2.985 12.769,-0.745 3.468,1.424 8.667,3.021 11.552,3.548 2.886,0.527 6.931,2.527 8.991,4.446 2.059,1.918 5.845,4.155 8.412,4.97 7.325,2.324 10.609,6.818 11.177,15.292 0.288,4.305 1.296,8.808 2.24,10.008 0.944,1.2 2.332,7.021 3.086,12.937 0.753,5.915 2.356,11.943 3.562,13.396 1.206,1.453 2.886,10.315 3.733,19.693 2.466,27.306 4.033,37.685 5.862,38.816 0.941,0.581 1.711,3.922 1.711,7.423 0,3.502 0.957,7.324 2.128,8.494 1.17,1.171 2.123,6.431 2.117,11.688 0,5.258 1.169,12.212 2.611,15.453 2.776,6.244 5.725,19.011 5.89,25.498 0.13,5.105 7.782,8.814 18.261,8.85 4.63,0.02 10.597,1.456 13.26,3.201 4.081,2.674 4.855,4.757 4.928,13.259 0.116,13.498 4.113,27.928 9.123,32.938 3.719,3.719 4.72,3.858 11.132,1.539 6.685,-2.417 7.492,-2.227 15.772,3.72 4.8,3.446 9.521,6.267 10.492,6.267 3.926,0 10.749,12.174 9.736,17.373 -2.444,12.546 -5.212,20.913 -7.129,21.552 -1.137,0.379 -2.068,1.507 -2.068,2.507 0,2.52 -10.05,13.57 -12.343,13.57 -1.029,0 -5.017,2.762 -8.863,6.138 -3.845,3.377 -9.708,7.281 -13.027,8.676 -3.32,1.395 -10.014,6.196 -14.876,10.668 -4.862,4.472 -11.682,10.374 -15.156,13.114 l -6.317,4.983 -5.469,-3.83 c -8.312,-5.822 -10.483,-6.013 -22.167,-1.951 -11.8,4.102 -20.557,12.442 -22.32,21.257 -2.003,10.016 -12.9,8.326 -20.423,-3.167 -4.44,-6.784 -10.723,-8.889 -13.435,-4.502 -0.774,1.253 -1.269,5.805 -1.1,10.115 0.169,4.31 -0.712,9.064 -1.957,10.565 -1.245,1.5 -2.495,9.392 -2.778,17.539 -0.602,17.337 -2.006,19.451 -17.426,26.24 -6.007,2.645 -10.921,5.644 -10.921,6.664 0,2.735 -9.714,14.995 -11.881,14.995 -1.023,0 -7.386,2.59 -14.141,5.756 -8.09,3.79 -14.082,5.397 -17.553,4.707 -3.135,-0.624 -7.03,0.184 -9.613,1.994 -5.539,3.879 -11.748,13.274 -10.31,15.6 1.28,2.071 -2.291,9.622 -8.652,18.291 -2.453,3.343 -4.46,7.912 -4.46,10.154 0,2.241 -1.475,7.019 -3.279,10.618 -6.11,12.193 -6.543,13.361 -6.543,17.643 0,8.569 -9.186,24.432 -10.067,17.384 z"
             id="path25797-1-1-9"
             sodipodi:nodetypes="ssssssssssssscsssssssssssssssssssssssssssssssssssssssssssssssssssssscsssssssssssssssssssssssssssssssssssssssssssssssssssssssssssssssssssssssssssscsssssscssssssssssssssssssssscsssssssssssssssssssssssssssscsssssssssssscsssssssssssscssssssssssssssscssssssssssssssssssssssssssssssssssssssssssssscsssssssssssssssssssssssssssssssssssssssssssssssssssssssscssssssssssssssssssssssscccssssssssssscsscsssssssssssssssssssssscssssssssssssssssscssssssssssssssssssscsssssssssssssssssssssscssssssssssssssssssssscsscsssssssssssssscssssssssssssssss" /><g
             aria-label="ny"
             transform="matrix(0.90358462,0,0,0.90358462,23595.843,-3824.031)"
             id="text3103-6-6-90-4-4-9-7-2-2-7-4-2-5-0-9-2-1-1-0-9-1-3-7-2-6-7"
             style="font-size:82.3036px;font-family:'Canted Comic';-inkscape-font-specification:'Canted Comic, Normal';white-space:pre;shape-inside:url(#rect3105-5-5-97-13-9-1-5-6-0-6-9-6-7-6-5-2-3-8-27-17-77-8-8-6-3-1);display:inline;stroke:#000000;stroke-width:0;stroke-linejoin:round"><path
               d="m -1941.834,706.9609 c 0,2.55141 -1.1522,3.86827 -3.539,4.11518 -0.082,0.0823 -0.3292,0.0823 -0.5761,0.0823 -2.3869,0 -3.786,-1.15225 -4.1152,-3.53905 -0.4115,-3.62136 -0.5762,-6.99581 -0.5762,-10.12335 -0.082,-0.24691 -0.082,-0.49382 -0.082,-0.90534 0,-0.41151 0,-0.82303 0.082,-1.31685 v -7.81885 c 0,-9.05339 0,-13.9093 -0.082,-14.48543 0,-0.65843 -0.082,-2.13989 -0.3292,-4.5267 l -0.082,-3.20984 -0.1646,-4.609 v -1.81068 l 0.1646,-1.39916 c 0.3292,-1.72837 2.4691,-3.53905 4.7736,-3.53905 2.0576,0 4.1975,1.15225 6.2551,3.37444 0.5761,0.57613 1.2346,1.39917 2.1399,2.46911 l 0.823,1.15225 c 6.6666,8.47727 13.827,18.51831 21.6459,29.95851 l 2.8806,4.5267 v -3.29214 c 0.4938,-11.93403 0.7407,-21.56355 0.7407,-28.80626 0,-4.03288 0,-6.50199 -0.082,-7.40733 v -0.24691 c 0,-2.05759 1.6461,-3.95057 3.9506,-4.03287 h 0.2469 c 2.0576,0 3.9506,1.64607 4.0329,3.95057 l 0.1646,8.23036 c 0,8.47727 -0.2469,18.02449 -0.823,28.64165 v 4.19748 c 0,1.56377 0,2.55142 -0.082,2.96293 -0.4116,6.50199 -2.5514,9.71183 -6.4197,9.71183 h -0.1646 c -0.8231,0 -1.5638,-0.24691 -2.2222,-0.74073 l -0.8231,-0.65843 -8.3126,-12.42785 c -6.502,-9.79412 -13.2509,-19.25904 -20.4113,-28.47704 l 0.3292,5.67895 c 0.082,0.49382 0.082,1.97528 0.082,4.44439 0,2.46911 0,5.92586 -0.082,10.37025 v 7.90115 c 0,1.15225 0,1.81068 0.082,2.05759 0,3.53905 0.1646,6.50198 0.5761,9.0534 z"
               id="path9279" /><path
               d="m -1865.3739,664.16303 c 2.8806,-4.4444 5.6789,-8.31267 8.3949,-11.60481 0.7408,-0.90534 1.6461,-1.39916 2.7984,-1.48146 h 0.4115 c 2.4691,0 3.7859,1.23455 4.0328,3.70366 v 0.49382 c 0,0.90534 -0.3292,1.81068 -0.9876,2.55141 -2.9629,3.53905 -6.6666,9.0534 -11.1933,16.37842 l -4.8559,7.98344 -12.9217,20.08208 -5.6789,9.30031 c -0.5761,0.98764 -1.3992,1.64607 -2.4691,1.89298 l -1.1523,0.16461 c -2.0576,0 -3.2921,-0.98764 -3.8682,-3.04523 l -0.1646,-1.06995 c 0,-0.82304 0.1646,-1.48147 0.5761,-2.05759 3.2921,-5.51434 8.3126,-13.49779 14.9792,-23.86804 -2.9629,-3.53906 -6.255,-7.57194 -9.8764,-12.18094 -4.8559,-6.17277 -8.4773,-10.61716 -10.7818,-13.33318 -0.6584,-0.82304 -0.9876,-1.72837 -0.9876,-2.79832 v -0.24691 c 0.082,-2.2222 2.1399,-3.78597 4.1975,-3.78597 h 0.2469 c 1.0699,0.0823 2.0576,0.49382 2.7983,1.39916 2.4691,2.71602 6.1728,7.32502 11.0287,13.6624 3.3744,4.36209 6.0082,7.65423 8.0657,10.04104 z"
               id="path9281" /></g><g
             aria-label="nj"
             transform="matrix(0.90358462,0,0,0.90358462,23726.248,-3461.597)"
             id="text3103-6-6-90-4-4-9-7-2-2-7-4-2-5-0-9-2-1-1-0-9-1-3-7-2-6-0-7"
             style="font-size:82.3036px;font-family:'Canted Comic';-inkscape-font-specification:'Canted Comic, Normal';white-space:pre;shape-inside:url(#rect3105-5-5-97-13-9-1-5-6-0-6-9-6-7-6-5-2-3-8-27-17-77-8-8-6-3-6-0);display:inline;stroke:#000000;stroke-width:0;stroke-linejoin:round"><path
               d="m -1941.834,706.9609 c 0,2.55141 -1.1522,3.86827 -3.539,4.11518 -0.082,0.0823 -0.3292,0.0823 -0.5761,0.0823 -2.3869,0 -3.786,-1.15225 -4.1152,-3.53905 -0.4115,-3.62136 -0.5762,-6.99581 -0.5762,-10.12335 -0.082,-0.24691 -0.082,-0.49382 -0.082,-0.90534 0,-0.41151 0,-0.82303 0.082,-1.31685 v -7.81885 c 0,-9.05339 0,-13.9093 -0.082,-14.48543 0,-0.65843 -0.082,-2.13989 -0.3292,-4.5267 l -0.082,-3.20984 -0.1646,-4.609 v -1.81068 l 0.1646,-1.39916 c 0.3292,-1.72837 2.4691,-3.53905 4.7736,-3.53905 2.0576,0 4.1975,1.15225 6.2551,3.37444 0.5761,0.57613 1.2346,1.39917 2.1399,2.46911 l 0.823,1.15225 c 6.6666,8.47727 13.827,18.51831 21.6459,29.95851 l 2.8806,4.5267 v -3.29214 c 0.4938,-11.93403 0.7407,-21.56355 0.7407,-28.80626 0,-4.03288 0,-6.50199 -0.082,-7.40733 v -0.24691 c 0,-2.05759 1.6461,-3.95057 3.9506,-4.03287 h 0.2469 c 2.0576,0 3.9506,1.64607 4.0329,3.95057 l 0.1646,8.23036 c 0,8.47727 -0.2469,18.02449 -0.823,28.64165 v 4.19748 c 0,1.56377 0,2.55142 -0.082,2.96293 -0.4116,6.50199 -2.5514,9.71183 -6.4197,9.71183 h -0.1646 c -0.8231,0 -1.5638,-0.24691 -2.2222,-0.74073 l -0.8231,-0.65843 -8.3126,-12.42785 c -6.502,-9.79412 -13.2509,-19.25904 -20.4113,-28.47704 l 0.3292,5.67895 c 0.082,0.49382 0.082,1.97528 0.082,4.44439 0,2.46911 0,5.92586 -0.082,10.37025 v 7.90115 c 0,1.15225 0,1.81068 0.082,2.05759 0,3.53905 0.1646,6.50198 0.5761,9.0534 z"
               id="path9284" /><path
               d="m -1891.2173,698.56593 c 0.2469,0.90534 0.6585,1.72838 1.2346,2.46911 1.5638,1.89298 3.539,2.79832 5.9258,2.79832 0.7408,0 1.2346,0 1.4815,-0.0823 5.8436,-0.90534 8.8065,-6.33738 8.8065,-16.13151 0,-3.95057 -0.6584,-10.12334 -1.893,-18.51831 -0.7407,-4.19748 -1.0699,-6.50198 -1.0699,-6.8312 -4.1975,0.32922 -8.5596,0.90534 -13.1686,1.81068 -0.082,0.0823 -0.4115,0.0823 -0.9053,0.0823 -2.2222,0 -3.5391,-1.15225 -3.9506,-3.37445 -0.082,-0.0823 -0.082,-0.41152 -0.082,-0.82304 0,-2.22219 1.0699,-3.53905 3.2921,-3.95057 5.0205,-1.06995 9.8765,-1.64607 14.4855,-1.89298 l 6.6665,-0.49382 7.572,-0.41152 6.9135,-0.24691 c 2.0576,0 3.9506,1.64607 4.0329,3.86827 v 0.24691 c 0,2.05759 -1.7284,4.03287 -3.9506,4.11518 l -6.2551,0.24691 c -1.1522,0 -3.2921,0.0823 -6.4197,0.32921 l 0.9877,6.09047 c 1.3168,7.98345 1.9753,14.40313 1.9753,19.25904 0,11.85172 -3.4568,19.50595 -10.4526,23.04501 -2.4691,1.31685 -5.0205,1.97528 -7.7365,1.97528 -0.9054,0 -1.893,-0.0823 -2.8807,-0.24691 -3.8682,-0.57612 -7.0781,-2.46911 -9.6295,-5.59664 -2.3868,-2.71602 -3.7036,-6.50199 -4.0329,-11.3579 l -0.3292,-4.93821 c 0,-2.55142 1.2346,-3.95058 3.786,-4.19749 h 0.3292 c 2.5514,0 3.8683,1.23456 4.1152,3.78597 l 0.3292,4.19748 c 0,1.39916 0.1646,2.55141 0.4115,3.45675 z"
               id="path9286" /></g><g
             aria-label="md"
             transform="matrix(0.90358462,0,0,0.90358462,23486.165,-3353.425)"
             id="text3103-6-6-90-4-4-9-7-2-2-7-4-2-5-0-9-2-1-1-0-9-1-3-7-2-6-0-8-6"
             style="font-size:82.3036px;font-family:'Canted Comic';-inkscape-font-specification:'Canted Comic, Normal';white-space:pre;shape-inside:url(#rect3105-5-5-97-13-9-1-5-6-0-6-9-6-7-6-5-2-3-8-27-17-77-8-8-6-3-6-61-6);display:inline;stroke:#000000;stroke-width:0;stroke-linejoin:round"><path
               d="m -1938.6241,675.93244 c -1.5638,7.48963 -3.6214,17.77758 -6.1728,30.69924 -0.4115,2.2222 -1.7284,3.37445 -3.9506,3.37445 -0.4115,0 -0.7407,0 -0.823,-0.0823 -2.2222,-0.41152 -3.3745,-1.72838 -3.3745,-3.95058 0,-0.41151 0,-0.74073 0.082,-0.82303 3.0453,-15.55538 5.1029,-25.84333 6.1728,-30.86385 l 2.6337,-10.20565 c 0.4939,-1.72837 0.9877,-3.78596 1.4815,-6.00816 l 0.4115,-1.89298 c 0,-0.24691 0.082,-0.57613 0.3292,-1.06995 l 0.3292,-0.65843 c 0.1647,-0.24691 0.4116,-0.57612 0.8231,-0.98764 0.7407,-0.74073 1.5637,-1.06995 2.6337,-1.06995 0.6584,0 1.2346,0.0823 1.6461,0.32922 1.0699,0.41151 1.893,1.23455 2.4691,2.3868 l 0.6584,1.56377 4.1975,16.0492 1.9753,6.58429 2.6337,7.73654 2.2222,6.8312 0.6584,1.64607 9.8764,-31.27537 3.2922,-9.87643 c 0,-0.24691 0.082,-0.32922 0.1646,-0.32922 0.082,-0.32921 0.3292,-0.65842 0.5761,-0.90534 0.5761,-0.74073 1.3992,-1.23455 2.3045,-1.39916 0.1646,-0.0823 0.4938,-0.0823 0.9877,-0.0823 2.2222,0 3.9505,1.31686 5.2674,4.03288 1.0699,2.05759 2.3868,6.41968 3.9506,12.92166 l 4.609,19.42365 c 1.5637,6.8312 3.2921,13.08627 5.0205,18.92983 l 0.1646,1.15225 c 0,2.05759 -0.9876,3.37444 -2.8806,3.95057 l -1.2346,0.16461 c -2.0576,0 -3.3744,-0.98765 -3.9506,-2.96293 -0.9053,-2.71602 -1.8106,-5.92586 -2.716,-9.79413 l -2.3045,-9.218 -5.5143,-23.04501 -10.3703,32.67453 c -0.082,0.0823 -0.1646,0.32921 -0.2469,0.74073 l -0.4938,1.81068 c -1.3169,4.36209 -2.3045,8.47727 -5.5966,9.05339 -0.082,0.0823 -0.4116,0.0823 -0.8231,0.0823 -0.823,0 -1.5637,-0.24691 -2.3045,-0.82304 l -0.7407,-0.74073 -0.5761,-0.90534 -2.3868,-5.84355 -2.4692,-6.7489 c -3.7036,-10.86407 -6.255,-18.92983 -7.8188,-24.27956 z"
               id="path9289" /><path
               d="m -1877.5548,684.49202 c 0.082,-7.07811 0.4115,-14.15622 0.823,-21.23433 -1.5638,-0.49382 -2.4691,-1.56377 -2.7983,-3.12754 -0.082,-0.0823 -0.082,-0.41152 -0.082,-0.90534 0,-2.2222 1.0699,-3.53905 3.2921,-3.95057 7.572,-1.39916 13.6624,-2.1399 18.1891,-2.1399 h 1.893 c 9.9587,0.41152 17.5307,3.37445 22.7158,8.88879 2.9629,3.12754 4.7736,6.66659 5.5143,10.69947 0.1646,1.15225 0.2469,2.38681 0.2469,3.62136 0,2.96293 -0.6584,6.33738 -1.8929,10.12334 -5.2675,14.15622 -16.4608,20.08208 -30.0409,22.9627 -2.7983,0.57613 -5.2674,0.90534 -7.4073,0.90534 -3.8682,0 -6.502,-0.98764 -8.0657,-3.04523 -1.5638,-2.05759 -2.3868,-8.64188 -2.3868,-19.67056 z m 9.1357,-21.81046 c -0.4939,5.34974 -0.8231,12.67476 -0.9054,21.89276 v 2.96293 c 0,3.70366 0.082,6.9958 0.2469,9.71182 0.082,1.97529 0.2469,3.37445 0.4116,4.27979 0.082,0.0823 0.082,0.16461 0.082,0.32921 l 0.082,0.41152 c 0.1646,0.0823 0.5761,0.0823 1.2345,0.0823 1.4815,-0.0823 3.6214,-0.41152 6.502,-1.06995 13.1686,-3.53906 19.506,-7.40732 23.3742,-17.61297 0.9877,-2.55141 1.4815,-4.93822 1.4815,-7.16041 0,-10.78177 -10.3703,-14.73235 -20.6582,-15.14387 -0.2469,-0.0823 -0.9877,-0.0823 -2.0576,-0.0823 -2.6337,0 -5.9259,0.32922 -9.7941,0.90534 z"
               id="path9291" /></g><g
             aria-label="de"
             transform="matrix(0.90358462,0,0,0.90358462,23690.346,-3284.709)"
             id="text3103-6-6-90-4-4-9-7-2-2-7-4-2-5-0-9-2-1-1-0-9-1-3-7-2-6-0-2-7"
             style="font-size:82.3036px;font-family:'Canted Comic';-inkscape-font-specification:'Canted Comic, Normal';white-space:pre;shape-inside:url(#rect3105-5-5-97-13-9-1-5-6-0-6-9-6-7-6-5-2-3-8-27-17-77-8-8-6-3-6-6-1);display:inline;stroke:#000000;stroke-width:0;stroke-linejoin:round"><path
               d="m -1948.089,684.49202 c 0.082,-7.07811 0.4115,-14.15622 0.823,-21.23433 -1.5638,-0.49382 -2.4691,-1.56377 -2.7983,-3.12754 -0.082,-0.0823 -0.082,-0.41152 -0.082,-0.90534 0,-2.2222 1.0699,-3.53905 3.2921,-3.95057 7.5719,-1.39916 13.6624,-2.1399 18.1891,-2.1399 h 1.893 c 9.9587,0.41152 17.5307,3.37445 22.7158,8.88879 2.9629,3.12754 4.7736,6.66659 5.5143,10.69947 0.1646,1.15225 0.2469,2.38681 0.2469,3.62136 0,2.96293 -0.6584,6.33738 -1.8929,10.12334 -5.2675,14.15622 -16.4608,20.08208 -30.0409,22.9627 -2.7983,0.57613 -5.2674,0.90534 -7.4073,0.90534 -3.8683,0 -6.502,-0.98764 -8.0657,-3.04523 -1.5638,-2.05759 -2.3868,-8.64188 -2.3868,-19.67056 z m 9.1357,-21.81046 c -0.4939,5.34974 -0.8231,12.67476 -0.9054,21.89276 v 2.96293 c 0,3.70366 0.082,6.9958 0.2469,9.71182 0.082,1.97529 0.2469,3.37445 0.4115,4.27979 0.082,0.0823 0.082,0.16461 0.082,0.32921 l 0.082,0.41152 c 0.1646,0.0823 0.5761,0.0823 1.2345,0.0823 1.4815,-0.0823 3.6214,-0.41152 6.502,-1.06995 13.1686,-3.53906 19.5059,-7.40732 23.3742,-17.61297 0.9877,-2.55141 1.4815,-4.93822 1.4815,-7.16041 0,-10.78177 -10.3703,-14.73235 -20.6582,-15.14387 -0.2469,-0.0823 -0.9877,-0.0823 -2.0576,-0.0823 -2.6337,0 -5.9259,0.32922 -9.7941,0.90534 z"
               id="path9294" /><path
               d="m -1849.16,700.1297 h 0.4938 c 2.5514,0 3.9505,1.15225 4.1975,3.53905 v 0.57613 c 0,2.3868 -1.1523,3.78596 -3.5391,4.11518 l -3.7037,0.49382 -13.9093,2.2222 -10.5348,1.48146 c -1.5638,0.24691 -2.8807,0.41152 -3.8683,0.49382 -0.2469,0.0823 -0.823,0.0823 -1.5638,0.0823 -0.3292,0 -0.9053,-0.0823 -1.646,-0.16461 -3.0453,-0.74073 -5.1852,-2.13989 -6.5843,-4.27979 -0.4115,-0.57612 -0.5761,-1.06994 -0.5761,-1.39916 v -42.46865 c 0,-1.06995 0,-1.64608 0.082,-1.89299 0.7407,-5.84355 4.1151,-7.65423 11.6048,-8.39496 10.6171,-1.39917 19.8351,-2.05759 27.7363,-2.05759 2.3045,0 4.1152,1.81068 4.1152,4.11518 0,2.3045 -1.8107,4.11518 -4.1152,4.11518 -6.6666,0 -15.6377,0.65842 -26.7487,1.97528 -1.5638,0.16461 -2.6337,0.32922 -3.3744,0.49382 -0.6585,0.0823 -0.9877,0.32922 -0.9877,0.82304 v 4.27979 c 0,5.67894 0,9.87643 -0.082,12.51014 l 29.6293,-4.85591 c 0.082,-0.0823 0.4115,-0.0823 0.823,-0.0823 2.2222,0 3.5391,1.15225 3.9506,3.37445 v 0.82303 c 0,2.3045 -1.1522,3.62136 -3.4567,3.95057 -9.4649,1.56377 -19.8352,3.29215 -31.0285,5.10283 v 15.55538 l 0.5761,0.1646 h 0.9877 l 3.4567,-0.41151 c 2.5514,-0.32922 6.0082,-0.82304 10.3703,-1.48147 z"
               id="path9296" /></g><g
             aria-label="dc"
             transform="matrix(0.90358462,0,0,0.90358462,23320.871,-3253.63)"
             id="text3103-6-6-90-4-4-9-7-2-2-7-4-2-5-0-9-2-1-1-0-9-1-3-7-2-6-0-2-9-3"
             style="font-size:82.3036px;font-family:'Canted Comic';-inkscape-font-specification:'Canted Comic, Normal';white-space:pre;shape-inside:url(#rect3105-5-5-97-13-9-1-5-6-0-6-9-6-7-6-5-2-3-8-27-17-77-8-8-6-3-6-6-7-5);display:inline;stroke:#000000;stroke-width:0;stroke-linejoin:round"><path
               d="m -1948.089,684.49202 c 0.082,-7.07811 0.4115,-14.15622 0.823,-21.23433 -1.5638,-0.49382 -2.4691,-1.56377 -2.7983,-3.12754 -0.082,-0.0823 -0.082,-0.41152 -0.082,-0.90534 0,-2.2222 1.0699,-3.53905 3.2921,-3.95057 7.5719,-1.39916 13.6624,-2.1399 18.1891,-2.1399 h 1.893 c 9.9587,0.41152 17.5307,3.37445 22.7158,8.88879 2.9629,3.12754 4.7736,6.66659 5.5143,10.69947 0.1646,1.15225 0.2469,2.38681 0.2469,3.62136 0,2.96293 -0.6584,6.33738 -1.8929,10.12334 -5.2675,14.15622 -16.4608,20.08208 -30.0409,22.9627 -2.7983,0.57613 -5.2674,0.90534 -7.4073,0.90534 -3.8683,0 -6.502,-0.98764 -8.0657,-3.04523 -1.5638,-2.05759 -2.3868,-8.64188 -2.3868,-19.67056 z m 9.1357,-21.81046 c -0.4939,5.34974 -0.8231,12.67476 -0.9054,21.89276 v 2.96293 c 0,3.70366 0.082,6.9958 0.2469,9.71182 0.082,1.97529 0.2469,3.37445 0.4115,4.27979 0.082,0.0823 0.082,0.16461 0.082,0.32921 l 0.082,0.41152 c 0.1646,0.0823 0.5761,0.0823 1.2345,0.0823 1.4815,-0.0823 3.6214,-0.41152 6.502,-1.06995 13.1686,-3.53906 19.5059,-7.40732 23.3742,-17.61297 0.9877,-2.55141 1.4815,-4.93822 1.4815,-7.16041 0,-10.78177 -10.3703,-14.73235 -20.6582,-15.14387 -0.2469,-0.0823 -0.9877,-0.0823 -2.0576,-0.0823 -2.6337,0 -5.9259,0.32922 -9.7941,0.90534 z"
               id="path9299" /><path
               d="m -1845.5387,661.3647 c -1.5638,0.0823 -3.2098,0.24692 -5.0205,0.65843 -18.5183,3.86827 -32.3453,16.29612 -32.9214,28.88857 v 0.49382 c 0,5.67895 3.7859,9.38261 11.2755,11.11098 1.893,0.41152 4.4444,0.65843 7.7366,0.65843 1.0699,0 1.8107,0 2.0576,-0.0823 6.6666,-0.65843 12.4278,-2.63372 17.366,-5.92586 0.7408,-0.41152 1.5638,-0.65843 2.3045,-0.65843 0.4116,0 0.7408,0 0.8231,0.0823 2.2222,0.41152 3.2921,1.72838 3.2921,4.03288 0,0.41152 0,0.74073 -0.082,0.82304 -0.2469,1.06994 -0.823,1.97528 -1.7284,2.63371 -6.1727,4.03288 -13.1685,6.41968 -21.152,7.24272 -0.3292,0.0823 -1.2345,0.0823 -2.716,0.0823 -1.7284,0 -2.8806,0 -3.4568,-0.0823 -2.6337,-0.16461 -4.6913,-0.41152 -6.255,-0.74073 -11.7694,-2.79833 -17.6953,-9.21801 -17.6953,-19.25905 v -0.74073 c 0.6584,-16.78993 17.2014,-32.0984 39.588,-36.6251 2.5514,-0.57612 4.7736,-0.82304 6.7489,-0.90534 h 0.3292 c 2.7984,0 4.9382,0.65843 6.3374,1.89298 0.9054,0.74074 1.3992,1.72838 1.5638,2.96293 0.082,0.24691 0.082,0.74074 0.082,1.64608 l -0.3292,3.12753 c -0.082,0.16461 -0.4115,1.97529 -0.9877,5.51434 -0.3292,2.3045 -1.646,3.45675 -3.9505,3.45675 -0.4116,0 -0.6585,0 -0.7408,-0.0823 -2.3045,-0.32921 -3.4567,-1.64607 -3.4567,-3.86827 0,-0.41152 0,-0.74073 0.082,-0.82303 z"
               id="path9301" /></g><g
             aria-label="nh"
             transform="matrix(0.90358462,0,0,0.90358462,23929.689,-3924.814)"
             id="text3103-6-6-90-4-4-9-7-2-2-7-4-2-5-0-9-2-1-1-0-9-1-3-7-2-6-56-6"
             style="font-size:82.3036px;font-family:'Canted Comic';-inkscape-font-specification:'Canted Comic, Normal';white-space:pre;shape-inside:url(#rect3105-5-5-97-13-9-1-5-6-0-6-9-6-7-6-5-2-3-8-27-17-77-8-8-6-3-3-9);display:inline;stroke:#000000;stroke-width:0;stroke-linejoin:round"><path
               d="m -1941.834,706.9609 c 0,2.55141 -1.1522,3.86827 -3.539,4.11518 -0.082,0.0823 -0.3292,0.0823 -0.5761,0.0823 -2.3869,0 -3.786,-1.15225 -4.1152,-3.53905 -0.4115,-3.62136 -0.5762,-6.99581 -0.5762,-10.12335 -0.082,-0.24691 -0.082,-0.49382 -0.082,-0.90534 0,-0.41151 0,-0.82303 0.082,-1.31685 v -7.81885 c 0,-9.05339 0,-13.9093 -0.082,-14.48543 0,-0.65843 -0.082,-2.13989 -0.3292,-4.5267 l -0.082,-3.20984 -0.1646,-4.609 v -1.81068 l 0.1646,-1.39916 c 0.3292,-1.72837 2.4691,-3.53905 4.7736,-3.53905 2.0576,0 4.1975,1.15225 6.2551,3.37444 0.5761,0.57613 1.2346,1.39917 2.1399,2.46911 l 0.823,1.15225 c 6.6666,8.47727 13.827,18.51831 21.6459,29.95851 l 2.8806,4.5267 v -3.29214 c 0.4938,-11.93403 0.7407,-21.56355 0.7407,-28.80626 0,-4.03288 0,-6.50199 -0.082,-7.40733 v -0.24691 c 0,-2.05759 1.6461,-3.95057 3.9506,-4.03287 h 0.2469 c 2.0576,0 3.9506,1.64607 4.0329,3.95057 l 0.1646,8.23036 c 0,8.47727 -0.2469,18.02449 -0.823,28.64165 v 4.19748 c 0,1.56377 0,2.55142 -0.082,2.96293 -0.4116,6.50199 -2.5514,9.71183 -6.4197,9.71183 h -0.1646 c -0.8231,0 -1.5638,-0.24691 -2.2222,-0.74073 l -0.8231,-0.65843 -8.3126,-12.42785 c -6.502,-9.79412 -13.2509,-19.25904 -20.4113,-28.47704 l 0.3292,5.67895 c 0.082,0.49382 0.082,1.97528 0.082,4.44439 0,2.46911 0,5.92586 -0.082,10.37025 v 7.90115 c 0,1.15225 0,1.81068 0.082,2.05759 0,3.53905 0.1646,6.50198 0.5761,9.0534 z"
               id="path9304" /><path
               d="m -1862.0818,671.40574 c 0.2469,14.56774 0.9053,26.09024 1.9753,34.48521 v 0.41152 c 0,2.55141 -1.1523,3.86827 -3.5391,4.11518 -0.082,0.0823 -0.3292,0.0823 -0.5761,0.0823 -2.3868,0 -3.7859,-1.23455 -4.1152,-3.62136 -0.7407,-6.8312 -1.3168,-13.99161 -1.646,-21.39893 -2.3868,0.24691 -5.8436,0.82303 -10.2057,1.72837 -4.1975,0.82304 -7.5719,1.48147 -10.2056,1.89299 l 1.4814,18.2714 c 0,2.05758 -1.5637,4.03287 -3.7859,4.11517 -0.082,0.0823 -0.1646,0.0823 -0.4115,0.0823 -1.9753,0 -3.786,-1.72838 -4.0329,-3.78597 l -0.9054,-11.5225 c -0.9053,-10.20565 -1.3168,-18.84752 -1.3168,-25.92563 0,-4.36209 0.2469,-8.55958 0.6584,-12.67476 0.3292,-2.3868 1.7284,-3.62136 4.1152,-3.62136 h 0.5761 c 2.3868,0.32922 3.5391,1.72838 3.5391,4.19749 v 0.41152 c -0.4939,3.53905 -0.7408,7.65423 -0.7408,12.42784 0,3.70366 0.082,6.9958 0.3293,9.79413 1.8106,-0.24691 4.8559,-0.82304 9.0533,-1.72838 4.6914,-0.98764 8.5596,-1.64607 11.6049,-1.89298 l -0.4116,-20.90511 c 0,-2.05759 1.7284,-3.95058 4.0329,-4.03288 h 0.1646 c 2.0576,0 3.9506,1.72837 4.0329,3.95057 z"
               id="path9306" /></g><g
             aria-label="vt"
             transform="matrix(0.90358462,0,0,0.90358462,23819.432,-4039.757)"
             id="text3103-6-6-90-4-4-9-7-2-2-7-4-2-5-0-9-2-1-1-0-9-1-3-7-2-6-56-9-5"
             style="font-size:82.3036px;font-family:'Canted Comic';-inkscape-font-specification:'Canted Comic, Normal';white-space:pre;shape-inside:url(#rect3105-5-5-97-13-9-1-5-6-0-6-9-6-7-6-5-2-3-8-27-17-77-8-8-6-3-3-2-4);display:inline;stroke:#000000;stroke-width:0;stroke-linejoin:round"><path
               d="m -1939.7764,668.77203 c 2.716,7.16041 5.0205,14.81465 6.8312,22.8804 l 1.9753,8.39496 c 0.6584,-1.15225 1.3169,-2.55141 1.9753,-4.19748 l 1.1522,-3.04523 c 7.8189,-17.20145 13.004,-29.38239 15.6377,-36.5428 0.4115,-1.06995 1.07,-1.81068 2.1399,-2.3045 0.4115,-0.24691 0.9877,-0.32921 1.7284,-0.32921 0.4938,0 0.9876,0.0823 1.4815,0.24691 1.0699,0.41152 1.8106,1.06994 2.3045,2.13989 0.2469,0.41152 0.3292,0.98764 0.3292,1.72838 0,0.49382 -0.082,0.98764 -0.2469,1.48146 -2.8807,7.57193 -8.1481,19.91747 -15.8023,37.03662 -0.082,0.0823 -0.1646,0.24691 -0.2469,0.49382 l -0.9054,2.2222 c -1.893,4.609 -3.7859,7.90114 -5.7612,9.87643 -1.5638,1.48146 -3.1276,2.2222 -4.7736,2.2222 -2.0576,0 -3.6214,-0.82304 -4.6913,-2.46911 -0.1646,-0.24691 -0.3293,-0.57613 -0.4939,-0.98764 l -0.6584,-1.89299 c -1.0699,-3.37444 -2.1399,-7.48962 -3.2098,-12.26323 -1.7284,-7.65424 -3.8683,-14.89695 -6.502,-21.89276 l -4.3621,-11.68711 c -0.1646,-0.49382 -0.2469,-0.98764 -0.2469,-1.48146 0,-0.41152 0.1646,-0.98765 0.4115,-1.72838 0.4115,-1.06995 1.2346,-1.72838 2.3045,-2.13989 0.4115,-0.16461 0.9053,-0.24691 1.3992,-0.24691 0.7407,0 1.3168,0.0823 1.7283,0.32921 1.07,0.49382 1.7284,1.23455 2.1399,2.3045 z"
               id="path9309" /><path
               d="m -1869.9006,707.1255 c 0,2.55142 -1.1523,3.86827 -3.5391,4.11518 -0.082,0.0823 -0.3292,0.0823 -0.5761,0.0823 -2.3868,0 -3.786,-1.15225 -4.1152,-3.53906 -0.9053,-6.66659 -1.4815,-13.827 -1.7284,-21.48124 -0.1646,-3.04523 -0.2469,-6.09046 -0.2469,-9.13569 0,-3.37445 0.1646,-7.65424 0.4115,-12.83937 -7.7365,0.74074 -14.0739,1.48147 -18.9298,2.3045 -0.082,0.0823 -0.4115,0.0823 -0.823,0.0823 -2.2222,0 -3.5391,-1.15225 -3.9506,-3.37445 -0.082,-0.0823 -0.082,-0.41152 -0.082,-0.82304 0,-2.22219 1.1523,-3.53905 3.3745,-3.95057 5.1028,-0.90534 13.2508,-1.89298 24.3618,-2.79832 10.1234,-0.90534 17.9422,-1.89298 23.3742,-3.04523 0.1646,-0.0823 0.4939,-0.0823 0.9054,-0.0823 2.1399,0 3.4567,1.06995 4.0329,3.20984 0.082,0.16461 0.082,0.49383 0.082,0.98765 0,2.05759 -1.07,3.37444 -3.2099,3.95057 -5.0205,1.15225 -12.0163,2.13989 -20.8228,2.88063 -0.3292,4.36209 -0.4938,8.88878 -0.4938,13.58009 l 0.1646,7.98345 c 0.2469,7.40732 0.9053,14.56773 1.8107,21.39893 z"
               id="path9311" /></g><g
             aria-label="ri"
             transform="matrix(0.90358462,0,0,0.90358462,24015.562,-3662.216)"
             id="text3103-6-6-90-4-4-9-7-2-2-7-4-2-5-0-9-2-1-1-0-9-1-3-7-2-6-56-9-2-6"
             style="font-size:82.3036px;font-family:'Canted Comic';-inkscape-font-specification:'Canted Comic, Normal';white-space:pre;shape-inside:url(#rect3105-5-5-97-13-9-1-5-6-0-6-9-6-7-6-5-2-3-8-27-17-77-8-8-6-3-3-2-1-90);display:inline;stroke:#000000;stroke-width:0;stroke-linejoin:round"><path
               d="m -1919.8589,691.98164 c 9.218,4.77361 15.8023,7.98345 19.6706,9.71183 1.0699,0.41151 1.8106,1.23455 2.2221,2.3045 0.1647,0.49382 0.247,0.98764 0.247,1.48146 0,0.65843 -0.082,1.23456 -0.3293,1.64607 -0.4115,1.06995 -1.1522,1.72838 -2.2222,2.1399 -0.4115,0.24691 -0.9876,0.32921 -1.5637,0.32921 -0.6584,0 -1.2346,-0.0823 -1.6461,-0.32921 -3.7037,-1.72838 -10.3702,-5.02052 -20.1644,-9.95874 -6.9958,-3.53905 -12.757,-6.09046 -17.1191,-7.81884 0.082,6.17277 0.5761,11.27559 1.3991,15.47308 0.082,0.0823 0.082,0.41152 0.082,0.82303 0,2.2222 -1.0699,3.53906 -3.2921,3.95058 -0.1646,0.0823 -0.4938,0.0823 -0.9053,0.0823 -2.2222,0 -3.5391,-1.15225 -3.9506,-3.37445 -1.1523,-5.76125 -1.7284,-14.15622 -1.7284,-25.1849 0,-6.33738 0,-9.87643 -0.082,-10.69947 l -0.1646,-2.71601 c -0.2469,-2.46911 -0.3292,-5.26744 -0.3292,-8.39497 0.082,-2.2222 0.4938,-3.78597 1.2345,-4.69131 1.5638,-2.05759 5.3498,-3.37444 11.4402,-3.78596 l 4.4444,-0.16461 c 11.9341,0 20.4113,2.46911 25.4318,7.48963 2.0576,2.05759 3.2922,4.36209 3.7037,6.9958 0.082,0.24691 0.082,0.82304 0.082,1.64608 0,2.3868 -0.5761,4.7736 -1.8107,7.16041 -2.2222,4.5267 -6.4196,7.98345 -12.5924,10.53486 -2.7983,1.06995 -5.5144,1.89298 -8.0658,2.3868 z m -21.6459,-30.12311 c 0,2.55141 0.082,5.10282 0.3293,7.65423 l 0.3292,6.8312 v 5.26743 c 0.5761,0.0823 1.893,0.0823 3.9505,0.0823 12.4279,0 21.6459,-3.78596 24.2796,-9.38261 0.5761,-1.39916 0.9053,-2.4691 0.9053,-3.20984 0,-1.15225 -0.4115,-2.13989 -1.2345,-2.96293 -3.5391,-3.37444 -10.288,-5.10282 -20.1644,-5.10282 -3.3744,0 -6.0905,0.24691 -8.148,0.74073 z"
               id="path9314" /><path
               d="m -1884.6329,657.74335 c -0.4115,6.41968 -0.6585,13.08627 -0.6585,20.08207 0,8.14806 0.247,17.69528 0.7408,28.47705 v 0.24691 c 0,2.05759 -1.6461,4.03288 -3.8683,4.11518 h -0.2469 c -2.0576,0 -4.0329,-1.64607 -4.1152,-3.86827 -0.5761,-9.46491 -0.823,-18.92983 -0.823,-28.39474 0,-8.06575 0.2469,-15.14386 0.7407,-21.31663 0.2469,-2.55141 1.5638,-3.78597 4.0329,-3.78597 h 0.4115 c 2.5514,0.24691 3.786,1.56377 3.786,4.03288 z"
               id="path9316" /></g><g
             aria-label="ct"
             transform="matrix(0.90358462,0,0,0.90358462,23857.448,-3691.273)"
             id="text3103-6-6-90-4-4-9-7-2-2-7-4-2-5-0-9-2-1-1-0-9-1-3-7-2-6-56-9-2-0-39"
             style="font-size:82.3036px;font-family:'Canted Comic';-inkscape-font-specification:'Canted Comic, Normal';white-space:pre;shape-inside:url(#rect3105-5-5-97-13-9-1-5-6-0-6-9-6-7-6-5-2-3-8-27-17-77-8-8-6-3-3-2-1-7-91);display:inline;stroke:#000000;stroke-width:0;stroke-linejoin:round"><path
               d="m -1906.2788,661.3647 c -1.5638,0.0823 -3.2099,0.24692 -5.0205,0.65843 -18.5183,3.86827 -32.3453,16.29612 -32.9215,28.88857 v 0.49382 c 0,5.67895 3.786,9.38261 11.2756,11.11098 1.893,0.41152 4.4444,0.65843 7.7366,0.65843 1.0699,0 1.8106,0 2.0575,-0.0823 6.6666,-0.65843 12.4279,-2.63372 17.3661,-5.92586 0.7407,-0.41152 1.5638,-0.65843 2.3045,-0.65843 0.4115,0 0.7407,0 0.823,0.0823 2.2222,0.41152 3.2922,1.72838 3.2922,4.03288 0,0.41152 0,0.74073 -0.082,0.82304 -0.2469,1.06994 -0.8231,1.97528 -1.7284,2.63371 -6.1728,4.03288 -13.1686,6.41968 -21.152,7.24272 -0.3292,0.0823 -1.2346,0.0823 -2.716,0.0823 -1.7284,0 -2.8807,0 -3.4568,-0.0823 -2.6337,-0.16461 -4.6913,-0.41152 -6.2551,-0.74073 -11.7694,-2.79833 -17.6952,-9.21801 -17.6952,-19.25905 v -0.74073 c 0.6584,-16.78993 17.2014,-32.0984 39.588,-36.6251 2.5514,-0.57612 4.7736,-0.82304 6.7489,-0.90534 h 0.3292 c 2.7983,0 4.9382,0.65843 6.3374,1.89298 0.9053,0.74074 1.3991,1.72838 1.5638,2.96293 0.082,0.24691 0.082,0.74074 0.082,1.64608 l -0.3293,3.12753 c -0.082,0.16461 -0.4115,1.97529 -0.9876,5.51434 -0.3292,2.3045 -1.6461,3.45675 -3.9506,3.45675 -0.4115,0 -0.6584,0 -0.7407,-0.0823 -2.3045,-0.32921 -3.4568,-1.64607 -3.4568,-3.86827 0,-0.41152 0,-0.74073 0.082,-0.82303 z"
               id="path9319" /><path
               d="m -1860.8472,707.1255 c 0,2.55142 -1.1522,3.86827 -3.539,4.11518 -0.082,0.0823 -0.3292,0.0823 -0.5762,0.0823 -2.3868,0 -3.7859,-1.15225 -4.1151,-3.53906 -0.9054,-6.66659 -1.4815,-13.827 -1.7284,-21.48124 -0.1646,-3.04523 -0.2469,-6.09046 -0.2469,-9.13569 0,-3.37445 0.1646,-7.65424 0.4115,-12.83937 -7.7365,0.74074 -14.0739,1.48147 -18.9298,2.3045 -0.082,0.0823 -0.4116,0.0823 -0.8231,0.0823 -2.2222,0 -3.539,-1.15225 -3.9505,-3.37445 -0.082,-0.0823 -0.082,-0.41152 -0.082,-0.82304 0,-2.22219 1.1522,-3.53905 3.3744,-3.95057 5.1028,-0.90534 13.2509,-1.89298 24.3619,-2.79832 10.1233,-0.90534 17.9421,-1.89298 23.3742,-3.04523 0.1646,-0.0823 0.4938,-0.0823 0.9053,-0.0823 2.1399,0 3.4568,1.06995 4.0329,3.20984 0.082,0.16461 0.082,0.49383 0.082,0.98765 0,2.05759 -1.0699,3.37444 -3.2098,3.95057 -5.0206,1.15225 -12.0164,2.13989 -20.8228,2.88063 -0.3293,4.36209 -0.4939,8.88878 -0.4939,13.58009 l 0.1646,7.98345 c 0.247,7.40732 0.9054,14.56773 1.8107,21.39893 z"
               id="path9321" /></g><g
             aria-label="ma"
             transform="matrix(0.90358462,0,0,0.90358462,23900.313,-3787.998)"
             id="text3103-6-6-90-4-4-9-7-2-2-7-4-2-5-0-9-2-1-1-0-9-1-3-7-2-6-56-9-2-0-3-4"
             style="font-size:82.3036px;font-family:'Canted Comic';-inkscape-font-specification:'Canted Comic, Normal';white-space:pre;shape-inside:url(#rect3105-5-5-97-13-9-1-5-6-0-6-9-6-7-6-5-2-3-8-27-17-77-8-8-6-3-3-2-1-7-9-7);display:inline;stroke:#000000;stroke-width:0;stroke-linejoin:round"><path
               d="m -1938.6241,675.93244 c -1.5638,7.48963 -3.6214,17.77758 -6.1728,30.69924 -0.4115,2.2222 -1.7284,3.37445 -3.9506,3.37445 -0.4115,0 -0.7407,0 -0.823,-0.0823 -2.2222,-0.41152 -3.3745,-1.72838 -3.3745,-3.95058 0,-0.41151 0,-0.74073 0.082,-0.82303 3.0453,-15.55538 5.1029,-25.84333 6.1728,-30.86385 l 2.6337,-10.20565 c 0.4939,-1.72837 0.9877,-3.78596 1.4815,-6.00816 l 0.4115,-1.89298 c 0,-0.24691 0.082,-0.57613 0.3292,-1.06995 l 0.3292,-0.65843 c 0.1647,-0.24691 0.4116,-0.57612 0.8231,-0.98764 0.7407,-0.74073 1.5637,-1.06995 2.6337,-1.06995 0.6584,0 1.2346,0.0823 1.6461,0.32922 1.0699,0.41151 1.893,1.23455 2.4691,2.3868 l 0.6584,1.56377 4.1975,16.0492 1.9753,6.58429 2.6337,7.73654 2.2222,6.8312 0.6584,1.64607 9.8764,-31.27537 3.2922,-9.87643 c 0,-0.24691 0.082,-0.32922 0.1646,-0.32922 0.082,-0.32921 0.3292,-0.65842 0.5761,-0.90534 0.5761,-0.74073 1.3992,-1.23455 2.3045,-1.39916 0.1646,-0.0823 0.4938,-0.0823 0.9877,-0.0823 2.2222,0 3.9505,1.31686 5.2674,4.03288 1.0699,2.05759 2.3868,6.41968 3.9506,12.92166 l 4.609,19.42365 c 1.5637,6.8312 3.2921,13.08627 5.0205,18.92983 l 0.1646,1.15225 c 0,2.05759 -0.9876,3.37444 -2.8806,3.95057 l -1.2346,0.16461 c -2.0576,0 -3.3744,-0.98765 -3.9506,-2.96293 -0.9053,-2.71602 -1.8106,-5.92586 -2.716,-9.79413 l -2.3045,-9.218 -5.5143,-23.04501 -10.3703,32.67453 c -0.082,0.0823 -0.1646,0.32921 -0.2469,0.74073 l -0.4938,1.81068 c -1.3169,4.36209 -2.3045,8.47727 -5.5966,9.05339 -0.082,0.0823 -0.4116,0.0823 -0.8231,0.0823 -0.823,0 -1.5637,-0.24691 -2.3045,-0.82304 l -0.7407,-0.74073 -0.5761,-0.90534 -2.3868,-5.84355 -2.4692,-6.7489 c -3.7036,-10.86407 -6.255,-18.92983 -7.8188,-24.27956 z"
               id="path9324" /><path
               d="m -1882.9046,707.86624 c 0.9054,-11.3579 5.8436,-25.92564 14.8147,-43.78552 2.2222,-4.36209 4.1975,-7.73653 5.7612,-9.95873 1.5638,-2.1399 3.1276,-3.20984 4.7736,-3.20984 0.4116,0 0.7408,0 0.8231,0.0823 1.2345,0.24691 2.0576,0.65843 2.4691,1.39916 l 0.3292,0.32922 c 0.1646,0.24691 0.3292,0.57612 0.4938,0.98764 0.2469,0.41152 0.5761,1.06995 0.9054,1.81068 0.3292,0.57612 0.9053,2.13989 1.8106,4.6913 l 2.7161,7.40733 c 0.7407,1.89298 1.9752,5.67895 3.8682,11.27559 l 4.609,14.48543 3.4568,11.3579 0.1646,1.23455 c 0,2.05759 -0.9877,3.37445 -2.8806,3.95058 l -1.2346,0.1646 c -2.0576,0 -3.3744,-0.98764 -3.9506,-2.88062 l -4.609,-15.06156 c -2.8806,0.65843 -6.3373,1.56377 -10.3702,2.63371 -8.3127,2.38681 -13.004,3.62136 -14.0739,3.86827 -0.9054,3.37445 -1.3992,6.6666 -1.6461,9.87644 -0.2469,2.55141 -1.5638,3.78596 -4.1152,3.78596 -0.1646,0 -0.2469,0 -0.3292,-0.0823 -2.5514,-0.0823 -3.786,-1.48147 -3.786,-4.11518 z m 24.6088,-44.52625 c -1.0699,1.81068 -1.8107,3.29214 -2.3868,4.5267 -4.3621,8.80648 -7.5719,15.9669 -9.4649,21.56354 0.9053,-0.24691 3.9506,-1.06995 8.9711,-2.55141 5.0205,-1.39916 8.395,-2.2222 10.1233,-2.63372 -1.5637,-4.85591 -3.1275,-9.46491 -4.6913,-13.66239 z"
               id="path9326" /></g><g
             aria-label="me"
             transform="matrix(0.90358462,0,0,0.90358462,24090.651,-4206.717)"
             id="text3103-6-6-90-4-4-9-7-2-2-7-4-2-5-0-9-2-1-1-0-9-1-3-7-2-6-5-8"
             style="font-size:82.3036px;font-family:'Canted Comic';-inkscape-font-specification:'Canted Comic, Normal';white-space:pre;shape-inside:url(#rect3105-5-5-97-13-9-1-5-6-0-6-9-6-7-6-5-2-3-8-27-17-77-8-8-6-3-7-7);display:inline;stroke:#000000;stroke-width:0;stroke-linejoin:round"><path
               d="m -1938.6241,675.93244 c -1.5638,7.48963 -3.6214,17.77758 -6.1728,30.69924 -0.4115,2.2222 -1.7284,3.37445 -3.9506,3.37445 -0.4115,0 -0.7407,0 -0.823,-0.0823 -2.2222,-0.41152 -3.3745,-1.72838 -3.3745,-3.95058 0,-0.41151 0,-0.74073 0.082,-0.82303 3.0453,-15.55538 5.1029,-25.84333 6.1728,-30.86385 l 2.6337,-10.20565 c 0.4939,-1.72837 0.9877,-3.78596 1.4815,-6.00816 l 0.4115,-1.89298 c 0,-0.24691 0.082,-0.57613 0.3292,-1.06995 l 0.3292,-0.65843 c 0.1647,-0.24691 0.4116,-0.57612 0.8231,-0.98764 0.7407,-0.74073 1.5637,-1.06995 2.6337,-1.06995 0.6584,0 1.2346,0.0823 1.6461,0.32922 1.0699,0.41151 1.893,1.23455 2.4691,2.3868 l 0.6584,1.56377 4.1975,16.0492 1.9753,6.58429 2.6337,7.73654 2.2222,6.8312 0.6584,1.64607 9.8764,-31.27537 3.2922,-9.87643 c 0,-0.24691 0.082,-0.32922 0.1646,-0.32922 0.082,-0.32921 0.3292,-0.65842 0.5761,-0.90534 0.5761,-0.74073 1.3992,-1.23455 2.3045,-1.39916 0.1646,-0.0823 0.4938,-0.0823 0.9877,-0.0823 2.2222,0 3.9505,1.31686 5.2674,4.03288 1.0699,2.05759 2.3868,6.41968 3.9506,12.92166 l 4.609,19.42365 c 1.5637,6.8312 3.2921,13.08627 5.0205,18.92983 l 0.1646,1.15225 c 0,2.05759 -0.9876,3.37444 -2.8806,3.95057 l -1.2346,0.16461 c -2.0576,0 -3.3744,-0.98765 -3.9506,-2.96293 -0.9053,-2.71602 -1.8106,-5.92586 -2.716,-9.79413 l -2.3045,-9.218 -5.5143,-23.04501 -10.3703,32.67453 c -0.082,0.0823 -0.1646,0.32921 -0.2469,0.74073 l -0.4938,1.81068 c -1.3169,4.36209 -2.3045,8.47727 -5.5966,9.05339 -0.082,0.0823 -0.4116,0.0823 -0.8231,0.0823 -0.823,0 -1.5637,-0.24691 -2.3045,-0.82304 l -0.7407,-0.74073 -0.5761,-0.90534 -2.3868,-5.84355 -2.4692,-6.7489 c -3.7036,-10.86407 -6.255,-18.92983 -7.8188,-24.27956 z"
               id="path9329" /><path
               d="m -1839.366,700.1297 h 0.4939 c 2.5514,0 3.9505,1.15225 4.1974,3.53905 v 0.57613 c 0,2.3868 -1.1522,3.78596 -3.539,4.11518 l -3.7037,0.49382 -13.9093,2.2222 -10.5348,1.48146 c -1.5638,0.24691 -2.8807,0.41152 -3.8683,0.49382 -0.2469,0.0823 -0.823,0.0823 -1.5638,0.0823 -0.3292,0 -0.9053,-0.0823 -1.6461,-0.16461 -3.0452,-0.74073 -5.1851,-2.13989 -6.5842,-4.27979 -0.4116,-0.57612 -0.5762,-1.06994 -0.5762,-1.39916 v -42.46865 c 0,-1.06995 0,-1.64608 0.082,-1.89299 0.7408,-5.84355 4.1152,-7.65423 11.6048,-8.39496 10.6172,-1.39917 19.8352,-2.05759 27.7364,-2.05759 2.3045,0 4.1151,1.81068 4.1151,4.11518 0,2.3045 -1.8106,4.11518 -4.1151,4.11518 -6.6666,0 -15.6377,0.65842 -26.7487,1.97528 -1.5638,0.16461 -2.6337,0.32922 -3.3745,0.49382 -0.6584,0.0823 -0.9876,0.32922 -0.9876,0.82304 v 4.27979 c 0,5.67894 0,9.87643 -0.082,12.51014 l 29.6293,-4.85591 c 0.082,-0.0823 0.4115,-0.0823 0.823,-0.0823 2.2222,0 3.5391,1.15225 3.9506,3.37445 v 0.82303 c 0,2.3045 -1.1523,3.62136 -3.4568,3.95057 -9.4649,1.56377 -19.8351,3.29215 -31.0284,5.10283 v 15.55538 l 0.5761,0.1646 h 0.9877 l 3.4567,-0.41151 c 2.5514,-0.32922 6.0082,-0.82304 10.3703,-1.48147 z"
               id="path9331" /></g><path
             style="fill:#afafaf;fill-opacity:1;stroke:none;stroke-width:20;stroke-linecap:round;stroke-linejoin:round"
             d="m 21772.781,-2657.251 c 0.659,-1.0782 0.916,-2.6656 2.377,-2.9501 1.291,-0.7286 1.898,-2.1186 2.219,-3.4761 1.048,-1.0192 1.514,-2.422 1.595,-3.8577 0.04,-2.3145 0.09,-4.6336 0.04,-6.9491 -0.4,-1.4568 -2.114,-1.7049 -3.224,-2.426 -1.483,-0.7446 -3.163,-0.601 -4.732,-0.9821 -1.549,-0.033 -3.122,-0.3222 -4.655,-0.01 -1.369,0.2241 -2.589,0.9061 -3.961,1.1241 -1.607,0.2897 -3.065,1.2505 -4.727,1.2255 -1.182,0.3692 -2.471,0.1633 -3.659,0.5657 -1.434,0.2375 -2.855,1.1062 -3.197,2.6069 -0.354,1.3258 -0.858,2.871 -0.126,4.155 0.591,1.3531 1.714,2.2877 2.713,3.3389 1.747,1.5303 4.124,1.8801 6.158,2.8842 1.299,0.767 2.835,1.0869 4.057,1.9939 1.32,0.6946 2.461,1.6571 3.588,2.6144 1.182,0.7962 2.724,1.7456 4.124,0.8638 0.47,-0.2321 0.969,-0.4958 1.412,-0.7228 z"
             id="path10039-1"
             sodipodi:nodetypes="csssssssssccssssssssssssscsssscssscsssssssscssccscssssssssssscsscsscsccscsssscssscscsssssscsscc" /><path
             style="fill:none;fill-opacity:1;stroke:#000000;stroke-width:8;stroke-linecap:round;stroke-linejoin:round;stroke-dasharray:none;stroke-opacity:1"
             d="m 21684.076,-2631.641 c 19.968,-1.769 41.07,-8.902 55.346,-20.606"
             id="path10193-2" /><g
             aria-label="the northeast:"
             transform="matrix(0.90358462,0,0,0.90358462,23300.034,-4332.234)"
             id="text3103-6-6-90-4-4-9-7-2-2-7-4-2-5-0-9-2-1-1-0-9-1-3-7-2-6-5-0-6-9"
             style="font-size:82.3036px;font-family:'Canted Comic';-inkscape-font-specification:'Canted Comic, Normal';white-space:pre;shape-inside:url(#rect3105-5-5-97-13-9-1-5-6-0-6-9-6-7-6-5-2-3-8-27-17-77-8-8-6-3-7-2-2-1);display:inline;stroke:#000000;stroke-width:0;stroke-linejoin:round"><path
               d="m -1921.3404,707.1255 c 0,2.55142 -1.1522,3.86827 -3.539,4.11518 -0.082,0.0823 -0.3292,0.0823 -0.5762,0.0823 -2.3868,0 -3.7859,-1.15225 -4.1151,-3.53906 -0.9054,-6.66659 -1.4815,-13.827 -1.7284,-21.48124 -0.1646,-3.04523 -0.2469,-6.09046 -0.2469,-9.13569 0,-3.37445 0.1646,-7.65424 0.4115,-12.83937 -7.7365,0.74074 -14.0739,1.48147 -18.9298,2.3045 -0.082,0.0823 -0.4115,0.0823 -0.8231,0.0823 -2.2222,0 -3.539,-1.15225 -3.9505,-3.37445 -0.082,-0.0823 -0.082,-0.41152 -0.082,-0.82304 0,-2.22219 1.1522,-3.53905 3.3744,-3.95057 5.1028,-0.90534 13.2509,-1.89298 24.3619,-2.79832 10.1233,-0.90534 17.9422,-1.89298 23.3742,-3.04523 0.1646,-0.0823 0.4938,-0.0823 0.9053,-0.0823 2.1399,0 3.4568,1.06995 4.0329,3.20984 0.082,0.16461 0.082,0.49383 0.082,0.98765 0,2.05759 -1.0699,3.37444 -3.2098,3.95057 -5.0205,1.15225 -12.0164,2.13989 -20.8228,2.88063 -0.3293,4.36209 -0.4939,8.88878 -0.4939,13.58009 l 0.1646,7.98345 c 0.247,7.40732 0.9054,14.56773 1.8107,21.39893 z"
               id="path9334" /><path
               d="m -1857.5551,671.40574 c 0.2469,14.56774 0.9054,26.09024 1.9753,34.48521 v 0.41152 c 0,2.55141 -1.1522,3.86827 -3.539,4.11518 -0.082,0.0823 -0.3292,0.0823 -0.5762,0.0823 -2.3868,0 -3.7859,-1.23455 -4.1151,-3.62136 -0.7408,-6.8312 -1.3169,-13.99161 -1.6461,-21.39893 -2.3868,0.24691 -5.8436,0.82303 -10.2057,1.72837 -4.1974,0.82304 -7.5719,1.48147 -10.2056,1.89299 l 1.4815,18.2714 c 0,2.05758 -1.5638,4.03287 -3.786,4.11517 -0.082,0.0823 -0.1646,0.0823 -0.4115,0.0823 -1.9753,0 -3.786,-1.72838 -4.0329,-3.78597 l -0.9053,-11.5225 c -0.9054,-10.20565 -1.3169,-18.84752 -1.3169,-25.92563 0,-4.36209 0.2469,-8.55958 0.6584,-12.67476 0.3292,-2.3868 1.7284,-3.62136 4.1152,-3.62136 h 0.5761 c 2.3868,0.32922 3.5391,1.72838 3.5391,4.19749 v 0.41152 c -0.4938,3.53905 -0.7407,7.65423 -0.7407,12.42784 0,3.70366 0.082,6.9958 0.3292,9.79413 1.8107,-0.24691 4.8559,-0.82304 9.0534,-1.72838 4.6913,-0.98764 8.5595,-1.64607 11.6048,-1.89298 l -0.4115,-20.90511 c 0,-2.05759 1.7283,-3.95058 4.0328,-4.03288 h 0.1646 c 2.0576,0 3.9506,1.72837 4.0329,3.95057 z"
               id="path9336" /><path
               d="m -1806.7737,700.1297 h 0.4938 c 2.5514,0 3.9506,1.15225 4.1975,3.53905 v 0.57613 c 0,2.3868 -1.1523,3.78596 -3.5391,4.11518 l -3.7037,0.49382 -13.9093,2.2222 -10.5348,1.48146 c -1.5638,0.24691 -2.8806,0.41152 -3.8683,0.49382 -0.2469,0.0823 -0.823,0.0823 -1.5638,0.0823 -0.3292,0 -0.9053,-0.0823 -1.646,-0.16461 -3.0453,-0.74073 -5.1852,-2.13989 -6.5843,-4.27979 -0.4115,-0.57612 -0.5761,-1.06994 -0.5761,-1.39916 v -42.46865 c 0,-1.06995 0,-1.64608 0.082,-1.89299 0.7407,-5.84355 4.1151,-7.65423 11.6048,-8.39496 10.6171,-1.39917 19.8351,-2.05759 27.7363,-2.05759 2.3045,0 4.1152,1.81068 4.1152,4.11518 0,2.3045 -1.8107,4.11518 -4.1152,4.11518 -6.6666,0 -15.6377,0.65842 -26.7487,1.97528 -1.5638,0.16461 -2.6337,0.32922 -3.3744,0.49382 -0.6585,0.0823 -0.9877,0.32922 -0.9877,0.82304 v 4.27979 c 0,5.67894 0,9.87643 -0.082,12.51014 l 29.6293,-4.85591 c 0.082,-0.0823 0.4115,-0.0823 0.823,-0.0823 2.2222,0 3.5391,1.15225 3.9506,3.37445 v 0.82303 c 0,2.3045 -1.1522,3.62136 -3.4567,3.95057 -9.4649,1.56377 -19.8352,3.29215 -31.0285,5.10283 v 15.55538 l 0.5761,0.1646 h 0.9877 l 3.4567,-0.41151 c 2.5514,-0.32922 6.0082,-0.82304 10.3703,-1.48147 z"
               id="path9338" /><path
               d="m -1762.9882,706.9609 c 0,2.55141 -1.1523,3.86827 -3.5391,4.11518 -0.082,0.0823 -0.3292,0.0823 -0.5761,0.0823 -2.3868,0 -3.786,-1.15225 -4.1152,-3.53905 -0.4115,-3.62136 -0.5761,-6.99581 -0.5761,-10.12335 -0.082,-0.24691 -0.082,-0.49382 -0.082,-0.90534 0,-0.41151 0,-0.82303 0.082,-1.31685 v -7.81885 c 0,-9.05339 0,-13.9093 -0.082,-14.48543 0,-0.65843 -0.082,-2.13989 -0.3292,-4.5267 l -0.082,-3.20984 -0.1646,-4.609 v -1.81068 l 0.1646,-1.39916 c 0.3292,-1.72837 2.4691,-3.53905 4.7736,-3.53905 2.0576,0 4.1975,1.15225 6.2551,3.37444 0.5761,0.57613 1.2345,1.39917 2.1398,2.46911 l 0.8231,1.15225 c 6.6666,8.47727 13.827,18.51831 21.6458,29.95851 l 2.8807,4.5267 v -3.29214 c 0.4938,-11.93403 0.7407,-21.56355 0.7407,-28.80626 0,-4.03288 0,-6.50199 -0.082,-7.40733 v -0.24691 c 0,-2.05759 1.6461,-3.95057 3.9506,-4.03287 h 0.2469 c 2.0576,0 3.9505,1.64607 4.0328,3.95057 l 0.1647,8.23036 c 0,8.47727 -0.247,18.02449 -0.8231,28.64165 v 4.19748 c 0,1.56377 0,2.55142 -0.082,2.96293 -0.4115,6.50199 -2.5514,9.71183 -6.4197,9.71183 h -0.1646 c -0.823,0 -1.5637,-0.24691 -2.2222,-0.74073 l -0.823,-0.65843 -8.3127,-12.42785 c -6.502,-9.79412 -13.2509,-19.25904 -20.4113,-28.47704 l 0.3293,5.67895 c 0.082,0.49382 0.082,1.97528 0.082,4.44439 0,2.46911 0,5.92586 -0.082,10.37025 v 7.90115 c 0,1.15225 0,1.81068 0.082,2.05759 0,3.53905 0.1646,6.50198 0.5761,9.0534 z"
               id="path9340" /><path
               d="m -1684.306,654.61581 c 0.4115,0.16461 0.6584,0.24691 0.7407,0.32921 0.9054,0.32922 1.5638,0.90534 1.9753,1.72838 0.4115,0.41152 0.8231,0.82304 1.1523,1.39916 2.0576,3.95057 3.2921,8.47727 3.7859,13.6624 l 0.1646,4.27978 c 0,9.38261 -2.3868,17.36606 -7.1604,23.86805 -3.3744,4.85591 -8.148,8.23036 -14.4854,10.12334 -2.3045,0.65843 -4.3621,0.98764 -6.1728,1.06995 h -0.4115 c -9.218,0 -15.5554,-6.50199 -16.9545,-14.73235 -0.4116,-1.56377 -0.5762,-3.53905 -0.5762,-5.84355 0,-1.81068 0.247,-3.95057 0.6585,-6.41968 3.0452,-14.56774 13.0039,-27.4894 23.6211,-30.86385 1.7284,-0.49382 3.5391,-0.74073 5.3497,-0.74073 2.3868,0 4.6913,0.49382 6.9135,1.48146 z m -3.2921,7.48963 c -0.7408,-0.24691 -1.1523,-0.49382 -1.2346,-0.57613 -1.1522,-0.57612 -2.3868,-0.82303 -3.6214,-0.82303 -6.0081,0 -12.8393,5.51434 -17.6952,15.39077 -2.3868,5.02052 -3.7037,9.79413 -3.786,14.40313 -0.082,0.0823 -0.082,0.32921 -0.082,0.57612 0,7.81884 3.1275,11.76942 9.3003,11.76942 3.2922,0 6.6666,-1.23456 10.041,-3.62136 1.9753,-1.23455 3.4568,-2.63372 4.4444,-4.11518 3.1276,-4.36209 4.9383,-9.71183 5.4321,-16.0492 0.082,-0.49382 0.082,-1.56377 0.082,-3.12754 0,-4.93821 -0.9877,-9.54722 -2.8806,-13.827 z"
               id="path9342" /><path
               d="m -1637.969,691.98164 c 9.218,4.77361 15.8023,7.98345 19.6706,9.71183 1.0699,0.41151 1.8107,1.23455 2.2222,2.3045 0.1646,0.49382 0.2469,0.98764 0.2469,1.48146 0,0.65843 -0.082,1.23456 -0.3292,1.64607 -0.4116,1.06995 -1.1523,1.72838 -2.2222,2.1399 -0.4115,0.24691 -0.9877,0.32921 -1.5638,0.32921 -0.6584,0 -1.2346,-0.0823 -1.6461,-0.32921 -3.7036,-1.72838 -10.3702,-5.02052 -20.1644,-9.95874 -6.9958,-3.53905 -12.757,-6.09046 -17.1191,-7.81884 0.082,6.17277 0.5761,11.27559 1.3992,15.47308 0.082,0.0823 0.082,0.41152 0.082,0.82303 0,2.2222 -1.07,3.53906 -3.2922,3.95058 -0.1646,0.0823 -0.4938,0.0823 -0.9053,0.0823 -2.2222,0 -3.5391,-1.15225 -3.9506,-3.37445 -1.1522,-5.76125 -1.7284,-14.15622 -1.7284,-25.1849 0,-6.33738 0,-9.87643 -0.082,-10.69947 l -0.1646,-2.71601 c -0.2469,-2.46911 -0.3292,-5.26744 -0.3292,-8.39497 0.082,-2.2222 0.4938,-3.78597 1.2346,-4.69131 1.5637,-2.05759 5.3497,-3.37444 11.4402,-3.78596 l 4.4444,-0.16461 c 11.934,0 20.4112,2.46911 25.4318,7.48963 2.0576,2.05759 3.2921,4.36209 3.7036,6.9958 0.082,0.24691 0.082,0.82304 0.082,1.64608 0,2.3868 -0.5761,4.7736 -1.8106,7.16041 -2.2222,4.5267 -6.4197,7.98345 -12.5925,10.53486 -2.7983,1.06995 -5.5143,1.89298 -8.0657,2.3868 z m -21.6458,-30.12311 c 0,2.55141 0.082,5.10282 0.3292,7.65423 l 0.3292,6.8312 v 5.26743 c 0.5761,0.0823 1.893,0.0823 3.9506,0.0823 12.4278,0 21.6458,-3.78596 24.2795,-9.38261 0.5762,-1.39916 0.9054,-2.4691 0.9054,-3.20984 0,-1.15225 -0.4115,-2.13989 -1.2346,-2.96293 -3.539,-3.37444 -10.2879,-5.10282 -20.1644,-5.10282 -3.3744,0 -6.0904,0.24691 -8.148,0.74073 z"
               id="path9344" /><path
               d="m -1580.9326,707.1255 c 0,2.55142 -1.1522,3.86827 -3.539,4.11518 -0.082,0.0823 -0.3292,0.0823 -0.5761,0.0823 -2.3869,0 -3.786,-1.15225 -4.1152,-3.53906 -0.9054,-6.66659 -1.4815,-13.827 -1.7284,-21.48124 -0.1646,-3.04523 -0.2469,-6.09046 -0.2469,-9.13569 0,-3.37445 0.1646,-7.65424 0.4115,-12.83937 -7.7365,0.74074 -14.0739,1.48147 -18.9298,2.3045 -0.082,0.0823 -0.4115,0.0823 -0.8231,0.0823 -2.2222,0 -3.539,-1.15225 -3.9505,-3.37445 -0.082,-0.0823 -0.082,-0.41152 -0.082,-0.82304 0,-2.22219 1.1522,-3.53905 3.3744,-3.95057 5.1028,-0.90534 13.2509,-1.89298 24.3619,-2.79832 10.1233,-0.90534 17.9422,-1.89298 23.3742,-3.04523 0.1646,-0.0823 0.4938,-0.0823 0.9053,-0.0823 2.1399,0 3.4568,1.06995 4.0329,3.20984 0.082,0.16461 0.082,0.49383 0.082,0.98765 0,2.05759 -1.0699,3.37444 -3.2098,3.95057 -5.0205,1.15225 -12.0163,2.13989 -20.8228,2.88063 -0.3292,4.36209 -0.4939,8.88878 -0.4939,13.58009 l 0.1647,7.98345 c 0.2469,7.40732 0.9053,14.56773 1.8106,21.39893 z"
               id="path9346" /><path
               d="m -1517.1473,671.40574 c 0.2469,14.56774 0.9054,26.09024 1.9753,34.48521 v 0.41152 c 0,2.55141 -1.1522,3.86827 -3.539,4.11518 -0.082,0.0823 -0.3292,0.0823 -0.5762,0.0823 -2.3868,0 -3.7859,-1.23455 -4.1151,-3.62136 -0.7408,-6.8312 -1.3169,-13.99161 -1.6461,-21.39893 -2.3868,0.24691 -5.8436,0.82303 -10.2057,1.72837 -4.1974,0.82304 -7.5719,1.48147 -10.2056,1.89299 l 1.4815,18.2714 c 0,2.05758 -1.5638,4.03287 -3.786,4.11517 -0.082,0.0823 -0.1646,0.0823 -0.4115,0.0823 -1.9753,0 -3.786,-1.72838 -4.0329,-3.78597 l -0.9053,-11.5225 c -0.9054,-10.20565 -1.3169,-18.84752 -1.3169,-25.92563 0,-4.36209 0.2469,-8.55958 0.6584,-12.67476 0.3293,-2.3868 1.7284,-3.62136 4.1152,-3.62136 h 0.5761 c 2.3868,0.32922 3.5391,1.72838 3.5391,4.19749 v 0.41152 c -0.4938,3.53905 -0.7407,7.65423 -0.7407,12.42784 0,3.70366 0.082,6.9958 0.3292,9.79413 1.8107,-0.24691 4.8559,-0.82304 9.0534,-1.72838 4.6913,-0.98764 8.5595,-1.64607 11.6048,-1.89298 l -0.4115,-20.90511 c 0,-2.05759 1.7283,-3.95058 4.0328,-4.03288 h 0.1646 c 2.0576,0 3.9506,1.72837 4.0329,3.95057 z"
               id="path9348" /><path
               d="m -1466.3659,700.1297 h 0.4938 c 2.5514,0 3.9506,1.15225 4.1975,3.53905 v 0.57613 c 0,2.3868 -1.1523,3.78596 -3.5391,4.11518 l -3.7036,0.49382 -13.9094,2.2222 -10.5348,1.48146 c -1.5638,0.24691 -2.8806,0.41152 -3.8683,0.49382 -0.2469,0.0823 -0.823,0.0823 -1.5637,0.0823 -0.3293,0 -0.9054,-0.0823 -1.6461,-0.16461 -3.0453,-0.74073 -5.1851,-2.13989 -6.5843,-4.27979 -0.4115,-0.57612 -0.5761,-1.06994 -0.5761,-1.39916 v -42.46865 c 0,-1.06995 0,-1.64608 0.082,-1.89299 0.7407,-5.84355 4.1151,-7.65423 11.6048,-8.39496 10.6171,-1.39917 19.8351,-2.05759 27.7363,-2.05759 2.3045,0 4.1152,1.81068 4.1152,4.11518 0,2.3045 -1.8107,4.11518 -4.1152,4.11518 -6.6666,0 -15.6377,0.65842 -26.7487,1.97528 -1.5637,0.16461 -2.6337,0.32922 -3.3744,0.49382 -0.6585,0.0823 -0.9877,0.32922 -0.9877,0.82304 v 4.27979 c 0,5.67894 0,9.87643 -0.082,12.51014 l 29.6293,-4.85591 c 0.082,-0.0823 0.4115,-0.0823 0.8231,-0.0823 2.2222,0 3.539,1.15225 3.9505,3.37445 v 0.82303 c 0,2.3045 -1.1522,3.62136 -3.4567,3.95057 -9.4649,1.56377 -19.8352,3.29215 -31.0285,5.10283 v 15.55538 l 0.5761,0.1646 h 0.9877 l 3.4567,-0.41151 c 2.5515,-0.32922 6.0082,-0.82304 10.3703,-1.48147 z"
               id="path9350" /><path
               d="m -1458.8762,707.86624 c 0.9053,-11.3579 5.8435,-25.92564 14.8146,-43.78552 2.2222,-4.36209 4.1975,-7.73653 5.7613,-9.95873 1.5637,-2.1399 3.1275,-3.20984 4.7736,-3.20984 0.4115,0 0.7407,0 0.823,0.0823 1.2346,0.24691 2.0576,0.65843 2.4691,1.39916 l 0.3292,0.32922 c 0.1646,0.24691 0.3292,0.57612 0.4938,0.98764 0.247,0.41152 0.5762,1.06995 0.9054,1.81068 0.3292,0.57612 0.9053,2.13989 1.8107,4.6913 l 2.716,7.40733 c 0.7407,1.89298 1.9753,5.67895 3.8682,11.27559 l 4.609,14.48543 3.4568,11.3579 0.1646,1.23455 c 0,2.05759 -0.9876,3.37445 -2.8806,3.95058 l -1.2346,0.1646 c -2.0576,0 -3.3744,-0.98764 -3.9505,-2.88062 l -4.609,-15.06156 c -2.8807,0.65843 -6.3374,1.56377 -10.3703,2.63371 -8.3127,2.38681 -13.004,3.62136 -14.0739,3.86827 -0.9054,3.37445 -1.3992,6.6666 -1.6461,9.87644 -0.2469,2.55141 -1.5638,3.78596 -4.1152,3.78596 -0.1646,0 -0.2469,0 -0.3292,-0.0823 -2.5514,-0.0823 -3.7859,-1.48147 -3.7859,-4.11518 z m 24.6087,-44.52625 c -1.0699,1.81068 -1.8106,3.29214 -2.3868,4.5267 -4.3621,8.80648 -7.5719,15.9669 -9.4649,21.56354 0.9054,-0.24691 3.9506,-1.06995 8.9711,-2.55141 5.0205,-1.39916 8.395,-2.2222 10.1233,-2.63372 -1.5637,-4.85591 -3.1275,-9.46491 -4.6913,-13.66239 z"
               id="path9352" /><path
               d="m -1360.1119,670.66501 c -0.5761,1.97529 -1.893,2.96293 -3.9506,2.96293 -0.1646,0 -0.4938,-0.0823 -1.0699,-0.16461 -2.0576,-0.57612 -3.0453,-1.89298 -3.0453,-3.95057 l 0.1646,-1.15225 c 0.082,-0.0823 0.6585,-1.56377 1.7284,-4.36209 l 0.1646,-0.41152 -1.4814,-0.49382 c -2.8807,-0.74073 -5.679,-1.15225 -8.395,-1.15225 h -0.823 c -7.1604,0.24691 -12.3456,2.71602 -15.3908,7.32502 -0.082,0.41152 -0.1646,0.90534 -0.1646,1.48146 v 0.90534 c 0.082,1.81068 0.9876,3.29215 2.7983,4.36209 1.7284,1.06995 4.8559,2.05759 9.3003,2.96293 14.8147,3.20984 18.2714,4.36209 21.8105,9.87644 1.4814,2.22219 2.2222,4.44439 2.2222,6.66659 0,0.74073 -0.1646,1.56377 -0.4116,2.46911 -2.2222,6.9958 -7.4896,11.19328 -15.8845,12.59245 -3.0453,0.49382 -6.2551,0.74073 -9.6296,0.74073 -1.4814,0 -2.3868,0 -2.7983,-0.0823 -11.934,-0.49382 -18.8475,-3.45675 -20.9051,-8.88878 -0.5761,-1.39917 -0.823,-3.12754 -0.9053,-5.34974 l -0.1647,-4.36209 c 0,-2.55141 1.2346,-3.86827 3.7037,-4.11518 h 0.4115 c 2.5514,0 3.8683,1.23456 4.1152,3.70366 0,7.57193 0,7.90115 4.1975,9.21801 2.4691,0.90534 5.7612,1.39916 9.9587,1.56376 0.4115,0.0823 1.2346,0.0823 2.6337,0.0823 7.1605,0 11.6872,-0.82304 13.4155,-2.38681 2.2222,-1.97528 3.5391,-3.70366 4.0329,-5.26743 l -0.1646,-0.74073 -0.6584,-1.23455 c -0.9054,-1.48147 -2.3045,-2.55141 -4.2798,-3.29215 -2.0576,-0.74073 -6.1728,-1.72837 -12.4279,-3.12753 -12.757,-2.71602 -18.2714,-6.50199 -18.6006,-15.06156 v -0.82304 c 0,-10.12334 11.6048,-17.36606 25.4318,-17.36606 h 1.3992 c 3.0452,0.0823 6.0082,0.65843 8.8065,1.56377 0.7407,0 1.6461,0.24691 2.7983,0.82304 2.3868,0.90534 3.8683,2.46911 4.3621,4.5267 l 0.1646,1.72837 c 0,1.48147 -0.3292,3.04523 -0.9876,4.69131 z"
               id="path9354" /><path
               d="m -1318.7132,707.1255 c 0,2.55142 -1.1523,3.86827 -3.5391,4.11518 -0.082,0.0823 -0.3292,0.0823 -0.5761,0.0823 -2.3868,0 -3.786,-1.15225 -4.1152,-3.53906 -0.9053,-6.66659 -1.4815,-13.827 -1.7284,-21.48124 -0.1646,-3.04523 -0.2469,-6.09046 -0.2469,-9.13569 0,-3.37445 0.1646,-7.65424 0.4115,-12.83937 -7.7365,0.74074 -14.0739,1.48147 -18.9298,2.3045 -0.082,0.0823 -0.4115,0.0823 -0.823,0.0823 -2.2222,0 -3.5391,-1.15225 -3.9506,-3.37445 -0.082,-0.0823 -0.082,-0.41152 -0.082,-0.82304 0,-2.22219 1.1522,-3.53905 3.3744,-3.95057 5.1029,-0.90534 13.2509,-1.89298 24.3619,-2.79832 10.1233,-0.90534 17.9422,-1.89298 23.3742,-3.04523 0.1646,-0.0823 0.4939,-0.0823 0.9054,-0.0823 2.1399,0 3.4567,1.06995 4.0328,3.20984 0.082,0.16461 0.082,0.49383 0.082,0.98765 0,2.05759 -1.0699,3.37444 -3.2098,3.95057 -5.0205,1.15225 -12.0163,2.13989 -20.8228,2.88063 -0.3292,4.36209 -0.4938,8.88878 -0.4938,13.58009 l 0.1646,7.98345 c 0.2469,7.40732 0.9053,14.56773 1.8107,21.39893 z"
               id="path9356" /><path
               d="m -1284.3103,664.08072 c 1.0699,1.23456 1.5638,2.55141 1.5638,3.95058 0,3.20984 -2.4692,5.59664 -5.5144,5.59664 -3.0452,0 -5.5143,-2.3868 -5.5143,-5.59664 0,-3.04524 2.4691,-5.51435 5.5143,-5.51435 1.3992,0 2.716,0.49383 3.9506,1.56377 z m -1.3992,25.26721 c 1.07,1.23455 1.5638,2.63371 1.5638,4.03287 0,3.04524 -2.3868,5.51434 -5.5967,5.51434 -3.0452,0 -5.5143,-2.4691 -5.5143,-5.51434 0,-3.20984 2.4691,-5.59664 5.5143,-5.59664 1.3992,0 2.7984,0.49382 4.0329,1.56377 z"
               id="path9358" /></g></g></g></g></g></svg>
