<?xml version="1.0" encoding="UTF-8" standalone="no"?>
<!-- Created with Inkscape (http://www.inkscape.org/) -->

<svg
   version="1.1"
   id="svg176"
   width="1729.9552"
   height="1040.2656"
   viewBox="0 0 1729.9552 1040.2656"
   sodipodi:docname="website for ai.svg"
   xml:space="preserve"
   inkscape:version="1.2.2 (b0a8486541, 2022-12-01)"
   xmlns:inkscape="http://www.inkscape.org/namespaces/inkscape"
   xmlns:sodipodi="http://sodipodi.sourceforge.net/DTD/sodipodi-0.dtd"
   xmlns="http://www.w3.org/2000/svg"
   xmlns:svg="http://www.w3.org/2000/svg"><defs
     id="defs180"><linearGradient
       id="linearGradient1486"
       inkscape:swatch="solid"><stop
         style="stop-color:#000000;stop-opacity:1;"
         offset="0"
         id="stop1484" /></linearGradient><inkscape:path-effect
       effect="roughen"
       id="path-effect9366-3"
       is_visible="true"
       lpeversion="1.2"
       method="size"
       max_segment_size="18.935"
       segments="2"
       displace_x="5;1"
       displace_y="5;1"
       global_randomize="1;1"
       handles="along"
       shift_nodes="true"
       fixed_displacement="false"
       spray_tool_friendly="false" /><inkscape:path-effect
       effect="roughen"
       id="path-effect9368-6"
       is_visible="true"
       lpeversion="1.2"
       method="size"
       max_segment_size="9.348"
       segments="2"
       displace_x="3;1"
       displace_y="3;1"
       global_randomize="1;1"
       handles="along"
       shift_nodes="true"
       fixed_displacement="false"
       spray_tool_friendly="false" /><inkscape:path-effect
       effect="roughen"
       id="path-effect11808-7"
       is_visible="true"
       lpeversion="1.2"
       method="size"
       max_segment_size="12.221"
       segments="2"
       displace_x="0;1"
       displace_y="5;942714210"
       global_randomize="1;1"
       handles="along"
       shift_nodes="true"
       fixed_displacement="false"
       spray_tool_friendly="false" /><inkscape:path-effect
       effect="roughen"
       id="path-effect9358-5"
       is_visible="true"
       lpeversion="1.2"
       method="size"
       max_segment_size="11.893"
       segments="2"
       displace_x="3;1"
       displace_y="3;1"
       global_randomize="1;1"
       handles="along"
       shift_nodes="true"
       fixed_displacement="false"
       spray_tool_friendly="false" /><inkscape:path-effect
       effect="roughen"
       id="path-effect9364-3"
       is_visible="true"
       lpeversion="1.2"
       method="size"
       max_segment_size="17.089"
       segments="2"
       displace_x="5;1"
       displace_y="5;1"
       global_randomize="1;1"
       handles="along"
       shift_nodes="true"
       fixed_displacement="false"
       spray_tool_friendly="false" /><inkscape:path-effect
       effect="roughen"
       id="path-effect9362-5"
       is_visible="true"
       lpeversion="1.2"
       method="size"
       max_segment_size="4.102"
       segments="2"
       displace_x="2;1"
       displace_y="2;1"
       global_randomize="1;1"
       handles="along"
       shift_nodes="true"
       fixed_displacement="false"
       spray_tool_friendly="false" /><inkscape:path-effect
       effect="roughen"
       id="path-effect9360-6"
       is_visible="true"
       lpeversion="1.2"
       method="size"
       max_segment_size="4"
       segments="2"
       displace_x="2;1"
       displace_y="2;1"
       global_randomize="1;1"
       handles="along"
       shift_nodes="true"
       fixed_displacement="false"
       spray_tool_friendly="false" /></defs><sodipodi:namedview
     id="namedview178"
     pagecolor="#ffffff"
     bordercolor="#000000"
     borderopacity="0.25"
     inkscape:showpageshadow="2"
     inkscape:pageopacity="0.0"
     inkscape:pagecheckerboard="0"
     inkscape:deskcolor="#d1d1d1"
     showgrid="false"
     showguides="false"
     inkscape:zoom="0.11313709"
     inkscape:cx="-9174.7105"
     inkscape:cy="25323.262"
     inkscape:window-width="1920"
     inkscape:window-height="1011"
     inkscape:window-x="0"
     inkscape:window-y="0"
     inkscape:window-maximized="1"
     inkscape:current-layer="g182"><inkscape:grid
       type="xygrid"
       id="grid2722" /></sodipodi:namedview><g
     inkscape:groupmode="layer"
     inkscape:label="Image"
     id="g182"
     transform="translate(2040.6097,-26405.637)"><g
       id="g9552"><path
         style="fill:#000000;stroke-width:0.58993"
         d="m -1615.262,26929.949 c -2.2896,-0.952 -5.4707,-1.791 -7.0729,-1.861 -2.7152,-0.28 -8.3691,-3.898 -8.3691,-3.898 0,0 -1.3595,-1.241 -4.2171,-3.329 -6.0352,-4.411 -6.5589,-4.862 -8.9623,-7.692 -2.3454,-2.766 -9.349,-8.706 -11.0706,-9.388 -1.5733,-0.626 -9.6092,-18.283 -9.6092,-21.115 0,-1.677 -2.3243,-8.643 -3.1253,-9.364 -1.4115,-1.273 -3.3064,-5.946 -3.3064,-8.154 0,-1.425 -0.8741,-3.44 -2.0604,-4.749 -1.9469,-2.15 -2.0065,-2.494 -1.0783,-6.181 0.539,-2.148 1.9833,-7.905 1.9833,-7.905 l 4.1692,1.133 c 0,0 2.3857,1.013 2.9867,3.44 0.4255,1.726 1.165,2.959 1.6405,2.74 2.3706,-1.082 4.8856,3.741 5.132,9.833 0.097,2.32 0.6047,4.947 1.1343,5.841 2.0489,3.449 16.112,21.076 16.8131,21.076 0.4082,0 1.9121,1.064 3.3428,2.365 1.4328,1.302 4.2135,3.263 6.1795,4.36 1.9643,1.096 5.2186,3.2 7.231,4.678 2.0104,1.476 5.6288,3.453 8.0378,4.395 2.4108,0.94 5.9388,2.57 7.8395,3.62 2.9365,1.623 4.3886,1.812 9.6475,1.249 3.4048,-0.364 6.9921,-1.284 7.9705,-2.043 0.9801,-0.761 2.2568,-1.382 2.8383,-1.382 2.2493,0 12.2783,-5.704 12.5246,-7.123 0.1348,-0.824 0.6856,-1.512 1.2076,-1.53 1.5558,-0.04 4.0997,-3.043 7.3019,-8.592 6.3973,-11.078 10.7473,-27.53 11.3866,-43.066 0.3369,-8.166 1.45,-10.574 4.8874,-10.574 2.9425,0 3.0637,4.295 3.8071,13.313 0.2291,2.752 0.1152,5.223 -0.2542,5.494 -0.3678,0.269 -0.4931,4.417 -0.2811,9.216 0.3004,6.766 0.076,9.688 -0.984,13.005 -0.7568,2.353 -1.1632,4.528 -0.9071,4.833 0.4544,0.54 -0.2388,2.515 -2.956,8.429 -0.7239,1.58 -2.0507,4.743 -2.9481,7.029 -1.1091,2.826 -2.4014,4.501 -4.0419,5.239 -1.327,0.597 -2.6055,1.814 -2.8444,2.705 -0.2368,0.89 -1.7734,2.826 -3.4141,4.3 -1.6427,1.475 -3.3449,3.172 -3.7878,3.774 -0.441,0.602 -2.2453,2.342 -4.0094,3.871 -1.7619,1.527 -4.3962,4.177 -5.854,5.89 -1.4596,1.712 -3.2525,2.763 -3.8302,3.113 -0.57,0.346 -0.8568,0.656 -1.1804,0.855 -1.1784,0.415 -2.6843,1.446 -3.3661,1.771 -1.4711,0.624 -4.8564,2.268 -9.9327,1.664 -2.6343,-0.313 -5.1511,-0.528 -5.594,-0.477 -7.5545,0.855 -9.2585,0.75 -13.0041,-0.808 z"
         id="path52393-0-1-0-6-2-8-2"
         sodipodi:nodetypes="sccssssssssccssssssssssssssssssssssssssssssssccsss" /><path
         style="fill:none;stroke:#000000;stroke-width:13.2735;stroke-linecap:round;stroke-linejoin:bevel;stroke-dasharray:none"
         d="m -1631.8885,26703.387 c 3.2929,1.696 2.5605,-2.383 4.1015,-3.129 0.4041,-0.196 0.9433,0.213 1.3367,0 3.032,-1.639 4.7034,-5.418 8.3593,-6.328 0.7041,-0.177 1.5388,0.347 2.18,0 0.8021,-0.436 1.9192,-1.794 2.7604,-2.039 2.6973,-0.786 5.7967,-0.662 8.8027,-0.662 4.5708,0 12.8758,0.08 16.6881,2.994 0.8499,0.651 1.8433,2.382 2.867,2.928 1.7083,0.915 -1.6367,-2.913 1.9713,0.741 0.3673,0.371 3.1364,4.892 3.4884,5.609"
         id="path52692-6-61-9-6-5-9"
         sodipodi:nodetypes="cscsssssssc" /><path
         style="fill:none;stroke:#000000;stroke-width:13.2735;stroke-linecap:round;stroke-linejoin:bevel;stroke-dasharray:none"
         d="m -1509.0873,26713.209 c -0.066,-1.815 5.6445,-0.419 7.1312,-0.792 1.5542,-0.389 2.2256,-1.769 3.7406,-2.305 1.202,-0.426 2.5322,-0.372 3.7406,-0.783 1.2498,-0.425 2.7408,-2.055 3.8407,-2.341 0.702,-0.182 1.4605,0.12 2.1757,0 1.7887,-0.314 5.4163,-1.612 6.966,-2.374 0.6217,-0.307 0.8586,-1.158 1.465,-1.5 1.378,-0.775 4.2144,-0.07 5.6728,-0.781 1.1716,-0.569 2.8495,-1.438 4.3079,-1.438"
         id="path52694-2-1-7-1-0-1"
         sodipodi:nodetypes="cssssssssc" /><path
         style="fill:none;stroke:#000000;stroke-width:13.2735;stroke-linecap:round;stroke-linejoin:bevel;stroke-dasharray:none"
         d="m -1699.9475,26711.636 c -1.339,-8.694 0.6194,-1.7 -2.241,-6.067 -0.2607,-0.398 0.2174,-1.019 0,-1.431 -0.1738,-0.313 -0.4911,-0.503 -0.739,-0.754 -0.2564,-1.052 -0.3803,-2.15 -0.7737,-3.157 -1.8823,-4.815 -8.1137,-10.777 -12.0434,-13.978"
         id="path52696-9-5-5-8-9-2"
         sodipodi:nodetypes="csscsc" /><path
         style="fill:none;stroke:#000000;stroke-width:10.8673;stroke-linecap:round;stroke-linejoin:bevel;stroke-dasharray:none;stroke-opacity:1"
         d="m -1695.1441,26711.904 c 0,-14.617 14.3104,-29.234 28.6186,-29.234 14.3082,0 28.6186,14.617 28.6186,29.234 0,14.617 -14.3104,29.234 -28.6186,29.234 -14.3082,0 -28.6186,-14.617 -28.6186,-29.234 z"
         id="path297192-0-7-3-7-6-7"
         sodipodi:nodetypes="csssc" /><path
         style="fill:none;stroke:#000000;stroke-width:10.8673;stroke-linecap:round;stroke-linejoin:bevel;stroke-dasharray:none;stroke-opacity:1"
         d="m -1574.7144,26708.397 c 0,-14.617 14.3104,-29.234 28.6208,-29.234 14.3083,0 28.6187,14.617 28.6187,29.234 0,14.617 -14.3104,29.233 -28.6187,29.233 -14.3104,0 -28.6208,-14.616 -28.6208,-29.233 z"
         id="path297192-7-2-6-8-9-3-0"
         sodipodi:nodetypes="csssc" /><path
         style="fill:#000000;fill-opacity:1;stroke-width:30;stroke-linecap:square;stroke-linejoin:round"
         d="m -1720.7378,26750.662 c -12.7293,4.513 -28.2412,6.232 -39.0571,9.858 -11.5732,2.203 -17.4765,7.275 -26.4262,10.014 -7.1681,3.642 -19.8645,4.564 -28.1306,6.592 -8.0508,0.736 -14.6643,2.473 -20.7593,3.479 -6.556,0.242 -11.3435,1.533 -16.2237,1.778 -4.9843,0.188 -8.5952,0.553 -12.6278,0.04 -3.5526,-0.113 -9.1429,-3.036 -12.6979,-4.498 -3.8226,-2.677 -4.0643,-2.041 -6.5004,-3.738 -1.7608,-1.67 -6.3027,-5.046 -9.2461,-8.402 -2.5784,-2.945 -4.2881,-5.901 -6.6884,-9.724 -2.4164,-3.848 -5.4251,-8.538 -7.6782,-13.281 -3.0683,-6.459 -4.9137,-12.724 -5.949,-18.82 -0.8979,-6.079 -2.1791,-14.939 -1.4612,-20.659 -0.4322,-7.888 0.9885,-11.477 2.7547,-16.08 1.1544,-7.031 6.1049,-10.236 9.4095,-15.009 4.7127,-4.805 7.3839,-9.412 11.724,-13.786 4.5492,-4.425 9.4836,-8.671 14.6648,-12.682 5.2281,-3.877 10.7379,-7.527 16.2388,-11.045 5.6839,-3.313 15.2304,-6.534 20.7318,-9.627 9.152,-2.521 8.3862,-8.78 12.2055,-11.276 4.7369,-3.094 10.0294,-2.401 15.4469,-4.965 2.6899,-1.273 5.9821,-2.612 9.5415,-4.269 3.6849,-1.512 10.0204,-2.441 14.3267,-4.426 6.3747,-0.735 7.907,-4.031 12.2736,-6.042 4.9093,-2.648 10.2437,-4.923 15.7976,-7.472 5.5427,-2.753 11.0569,-5.919 17.0975,-8.677 5.7404,-3.473 11.8071,-6.347 18.2595,-9.267 5.9751,-3.671 12.9622,-7.699 19.7732,-10.741 6.3857,-4.704 13.0438,-6.25 19.8495,-9.226 6.7194,-3.393 14.007,-6.23 21.1333,-9.277 7.005,-3.135 13.7117,-8.512 20.8273,-11.488 6.4591,-5.381 16.6804,-4.894 23.5902,-7.653 9.1062,-1.679 13.2732,-4.485 19.4233,-6.905 7.3913,-2.114 14.5362,-4.373 20.9345,-6.88 7.5277,-1.609 15.0501,-4.633 20.9069,-6.986 8.0955,-1.92 9.6551,-5.935 14.4944,-7.992 4.7703,-4.026 12.0768,-4.107 17.2055,-6.003 5.8539,-1.366 8.5382,-7.094 12.6952,-8.668 4.204,-1.592 9.2348,0.781 13.1225,-0.459 6.3429,-2.024 14.688,-4.176 21.165,-6.483 7.853,-2.055 11.2085,-5.143 17.1723,-7.348 5.9565,-3.291 14.6062,-4.013 21.2299,-6.381 7.5233,-1.319 11.9124,-4.934 18.0189,-6.932 6.0193,-2.686 12.7575,-4.266 19.0789,-5.93 6.1128,-1.849 11.3792,-6.065 17.4228,-7.061 5.2868,-4.087 11.9377,-2.885 18.0174,-2.824 5.4553,-1.233 11.2929,-1.701 17.0793,-0.231 4.963,-1.013 11.2079,2.043 16.6206,5.376 4.4527,1.071 9.2246,3.192 13.5521,7.816 3.9504,0.772 8.0084,8.831 11.5676,15.372 3.2593,5.989 6.3744,14.134 8.8927,19.933 2.4476,5.635 7.949,12.073 8.7054,17.682 4.694,6.327 2.3045,11.316 1.5599,16.763 0.7971,6.241 -2.8987,7.422 -5.2601,13.222 -3.1193,2.191 -6.3874,12.974 -10.7046,19.414 -3.5488,4.975 -6.452,10.903 -10.7122,15.887 -3.3576,5.666 -9.0004,9.688 -13.8888,14.443 -4.9986,4.576 -7.9504,9.949 -13.2496,14.426 -3.5684,5.343 -11.4164,9.323 -17.3715,13.703 -5.5824,4.148 -9.1651,8.59 -14.8743,12.363 -3.9478,4.538 -12.4104,7.734 -18.5342,11.284 -5.696,3.14 -11.8669,5.106 -17.1949,7.932 -6.0057,1.61 -9.0929,6.069 -13.7382,8.597 -3.6595,3.194 -9.2609,5.244 -13.5501,7.228 -4.1487,1.918 -7.4579,3.833 -10.3526,5.205 -6.1322,2.906 -10.3199,4.616 -15.1761,3.806 -4.0499,0.02 -7.3438,-2.832 -11.6015,-6.987 -1.5796,-3.194 -8.923,-11.839 -12.7011,-17.947 -3.8587,-7.248 -5.6079,-9.815 -8.4622,-15.113 -3.1373,-6.103 -7.4972,-14.092 -11.0229,-20.333 -4.0363,-7.189 -3.9232,-10.95 -7.4542,-15.731 -3.7998,-5.144 -7.9251,-8.894 -12.5597,-12.439 -4.1955,-3.209 -9.2784,-7.564 -14.9532,-9.984 -5.5863,-3.921 -12.03,-4.678 -18.4812,-6.192 -6.8247,-1.891 -11.7855,-2.463 -18.6052,-3.111 -5.7242,-0.548 -14.9817,-1.259 -22.1821,-1.034 -6.6976,-0.14 -12.8538,-2.553 -18.4751,-1.551 -5.7066,1.018 -10.5123,5.931 -14.6357,7.559 -4.2002,1.658 -7.5945,4.774 -11.9075,8.141 -3.4691,3.898 -9.1067,6.461 -13.5048,11.12 -4.7493,3.603 -9.3117,9.109 -13.5713,14.721 -4.6811,4.641 -5.4507,12.549 -9.2473,18.569 -1.0116,7.061 -8.3538,11.075 -12.3541,16.619 -3.9096,5.418 -7.7124,10.68 -10.4442,15.644 -0.8986,3.811 -1.8269,8.334 -2.7323,13.426 -0.9348,5.067 -1.6893,10.744 -2.6083,16.712 -0.7897,5.967 -1.001,12.383 -1.9515,18.792 -0.099,6.541 -3.0036,10.639 -4.1131,17.058 -2.159,4.473 -2.1719,12.707 -3.1118,19.621 -0.8459,6.222 1.2165,14.463 0.2224,19.436 z"
         id="path11032-9"
         sodipodi:nodetypes="cssssssscc"
         inkscape:path-effect="#path-effect9366-3"
         inkscape:original-d="m -1723.5823,26749.674 c -140.0227,49.643 -158.4636,45.352 -183.2988,-6.929 -30.6829,-64.592 47.2992,-111.257 95.5327,-134.082 48.4193,-22.913 245.8074,-111.626 311.3102,-132.525 76.1146,-24.285 164.9069,-75.319 200.0004,5.484 34.2659,78.897 -106.8851,157.297 -149.8112,177.64 -42.926,20.343 -49.5986,-61.27 -80.9097,-85.219 -25.1725,-19.255 -79.6188,-23.313 -104.8202,-13.365 -25.2015,9.949 -53.5051,54.857 -70.3882,85.537 -5.392,22.868 -11.3148,71.939 -17.6152,103.459 z" /><path
         style="fill:#000000;stroke-width:1.33333"
         d="m -1657.35,27445.902 -3.3008,-12.308 -1.7668,-13.721 1.7665,-19.813 20.1591,-0.466 -5.3409,-14.253 -7.4726,-8.429 c 0,0 -5.1799,-15.39 -10.849,-21.602 -5.3726,-5.888 -10.0822,-12.978 -16.5189,-24.868 -2.1835,-4.033 -4.9311,-8.376 -6.1058,-9.65 -1.1747,-1.274 -3.1392,-3.38 -4.3655,-4.68 -1.2263,-1.3 -3.0632,-4.757 -4.0819,-7.683 -1.0188,-2.926 -3.6154,-7.966 -5.7703,-11.199 -2.155,-3.234 -4.9512,-7.434 -6.2138,-9.334 -3.6364,-5.471 -7.2763,-12.498 -8.3505,-16.12 -0.5435,-1.834 -2.9525,-6.334 -5.3531,-10 -2.4007,-3.667 -5.664,-9.067 -7.2519,-12 -1.5878,-2.934 -3.3953,-6.234 -4.0167,-7.334 -2.7994,-4.956 -8.0654,-16.363 -8.0654,-17.471 0,-0.673 -1.1816,-3.768 -2.6256,-6.877 -1.4441,-3.108 -4.0946,-10.031 -5.8899,-15.384 -1.7954,-5.353 -4.3639,-11.287 -5.7078,-13.187 -4.8017,-6.789 -10.1157,-18.4 -12.4693,-27.247 -1.8334,-6.891 -9.3254,-21.219 -14.0015,-26.776 -1.8183,-2.161 -3.3059,-4.966 -3.3059,-6.234 0,-1.268 -1.5,-4.339 -3.3334,-6.824 -1.8333,-2.485 -3.3333,-5.866 -3.3333,-7.513 0,-1.648 -0.5533,-3.338 -1.2294,-3.756 -0.6762,-0.418 -2.5384,-4.803 -4.1381,-9.745 -1.5997,-4.942 -4.5925,-12.886 -6.6506,-17.652 -6.2627,-14.505 -14.4662,-42.932 -15.5832,-54 -0.3701,-3.667 -1.2359,-7.358 -1.9241,-8.203 -1.2864,-1.58 -7.2839,1.539 -21.5462,11.203 -3.5175,2.383 -7.5348,4.333 -8.9274,4.333 -1.3926,0 -4.1337,2.1 -6.0914,4.667 -1.9577,2.566 -4.1372,4.666 -4.8435,4.666 -3.7167,0 -24.7824,20.14 -32.0771,30.667 -4.1138,5.937 -12.2681,16.193 -17.9008,22.515 -1.6015,1.797 -3.2818,4.742 -3.734,6.543 -0.4522,1.802 -3.1919,5.486 -6.0882,8.187 -2.8963,2.7 -5.266,5.665 -5.266,6.588 0,0.923 -1.4199,3.588 -3.1552,5.923 -1.7354,2.334 -4.2543,7.244 -5.5975,10.911 -2.5736,7.025 -3.9105,9.476 -10.914,20.006 -2.3833,3.584 -4.3333,7.577 -4.3333,8.874 0,1.298 -1.1139,2.955 -2.4754,3.684 -2.6847,1.437 -6.8579,14.232 -6.8579,21.027 0,2.245 -0.9468,4.868 -2.104,5.828 -2.5325,2.102 -7.5618,11.897 -9.8826,19.247 -0.9261,2.934 -2.435,6.234 -3.3529,7.334 -1.8007,2.157 -2.9284,7.139 -4.2211,18.645 -0.463,4.122 -1.9978,8.904 -3.5173,10.959 -1.6521,2.235 -2.9335,6.511 -3.3095,11.046 -0.3375,4.069 -1.1384,7.723 -1.7798,8.12 -0.6414,0.396 -1.1662,3.079 -1.1662,5.961 0,2.882 -1.1997,8.396 -2.666,12.254 -1.4663,3.858 -2.6806,9.115 -2.6984,11.681 -0.018,2.567 -0.6731,7.067 -1.456,10 -1.4089,5.279 -3.243,13.988 -7.3004,34.667 -1.1512,5.867 -3.5449,13.173 -5.3194,16.237 -2.63,4.541 -3.2264,7.417 -3.2264,15.558 -0.052,20.131 -37.086,25.256 -22.644,-2.505 4.9583,-9.414 5.2519,-10.556 3.9536,-15.378 -1.1128,-4.133 -0.9303,-6.795 0.8838,-12.894 1.2575,-4.226 2.3284,-11.38 2.3798,-15.897 0.051,-4.518 0.5434,-8.668 1.0934,-9.223 0.55,-0.555 1,-2.218 1,-3.696 0,-3.52 6.5716,-22.298 8.7031,-24.869 1.5643,-1.886 3.256,-9.426 3.4407,-15.333 0.2459,-7.871 4.412,-30.05 6.5116,-34.667 1.334,-2.933 2.8158,-8.706 3.2929,-12.828 0.5382,-4.65 1.8622,-8.563 3.4878,-10.308 1.4413,-1.547 2.9955,-4.774 3.454,-7.172 0.4585,-2.397 2.5457,-7.791 4.6384,-11.987 2.0927,-4.196 3.8049,-8.349 3.8049,-9.228 0,-0.88 0.7934,-2.547 1.763,-3.705 0.9698,-1.158 2.5835,-4.805 3.5862,-8.105 1.0027,-3.3 2.6093,-7.184 3.5702,-8.63 0.961,-1.447 1.7472,-3.917 1.7472,-5.491 0,-3.871 14.1657,-30.821 22.3334,-42.489 2.3833,-3.405 4.3333,-6.927 4.3333,-7.827 0,-0.9 1.2,-2.665 2.6667,-3.92 1.4666,-1.256 2.6666,-3.759 2.6666,-5.561 0,-1.803 1.3643,-4.75 3.0317,-6.549 1.6674,-1.799 4.3625,-5.936 5.9891,-9.193 1.6265,-3.257 4.7623,-7.81 6.9683,-10.119 2.2782,-2.384 4.0109,-5.642 4.0109,-7.542 0,-2.034 0.7581,-3.346 1.9338,-3.346 1.0635,0 2.4135,-0.835 3,-1.856 3.6453,-6.348 13.5966,-16.935 29.1734,-31.037 17.3592,-15.716 19.7729,-17.773 20.8566,-17.773 0.57,0 1.0362,-0.906 1.0362,-2.013 0,-1.215 4.5218,-4.16 11.4143,-7.435 6.2778,-2.982 11.742,-6.277 12.1426,-7.321 0.4007,-1.044 2.0142,-1.904 3.5858,-1.911 1.5715,0 5.463,-2.084 8.6477,-4.616 3.1847,-2.532 7.0847,-4.989 8.6667,-5.46 1.5819,-0.471 7.9763,-3.264 14.2096,-6.207 30.8992,-14.584 28.8081,-13.774 40.4127,-15.663 4.0356,-0.656 10.0608,-2.434 13.3892,-3.951 3.3285,-1.516 7.2493,-2.757 8.7129,-2.757 1.4636,0 2.9892,-0.53 3.3901,-1.179 0.4009,-0.649 3.4224,-1.584 6.7143,-2.077 3.2919,-0.494 6.2838,-1.381 6.6487,-1.971 0.3649,-0.591 3.5289,-1.849 7.0311,-2.797 11.1205,-3.009 11.0287,-2.414 2.9775,-19.309 -2.7956,-5.867 -5.3613,-12.167 -5.7014,-14 -3.1493,-16.974 -5.229,-24.871 -7.5314,-28.596 -1.8661,-3.019 -2.6519,-6.417 -2.5205,-10.896 0.1051,-3.579 -0.5179,-11.008 -1.3844,-16.508 -3.7239,-23.639 -4.4086,-29.203 -4.7578,-38.667 -0.203,-5.5 -0.8025,-14.5 -1.3322,-20 -1.0068,-10.452 0.4071,-27.809 4.0186,-49.333 1.5675,-9.342 2.0843,-20.892 1.9688,-44 -0.1434,-28.692 0.42,-36.806 4.0735,-58.667 0.6741,-4.033 1.608,-10.333 2.0753,-14 0.4673,-3.666 1.6668,-7.85 2.6657,-9.296 0.9988,-1.447 1.816,-4.134 1.816,-5.972 0,-6.914 10.32,-29.273 16.0308,-34.732 0.9408,-0.899 5.4169,-7.829 7.9296,-12.276 48.2977,-36.5 80.562,-50.12 148.0396,-69.39 1.8333,0.412 5.5334,2.132 8.2225,3.821 2.6891,1.69 6.4976,3.476 8.4633,3.969 1.9658,0.494 6.1521,2.865 9.303,5.27 3.1509,2.405 7.2349,5.176 9.0756,6.156 1.8406,0.981 6.2541,5.384 9.8077,9.784 3.5537,4.4 8.7047,10.4 11.4468,13.333 3.7829,4.047 4.9891,6.46 5,10.005 0.01,2.569 2.0294,8.869 4.4922,14 2.4628,5.13 4.8201,11.548 5.2384,14.26 0.4184,2.713 1.6417,6.913 2.7184,9.334 1.0768,2.42 3.2621,11.001 4.8563,19.068 1.5941,8.066 4.0022,18.866 5.3512,24 4.063,15.46 6.5064,27.536 7.3574,36.362 0.4434,4.6 1.7145,10.9 2.8245,14 1.1101,3.101 2.3015,8.038 2.6476,10.971 0.3461,2.933 1.1942,7.133 1.8846,9.333 1.8121,5.774 1.8478,10.833 0.147,20.837 -0.8262,4.86 -1.8528,15.06 -2.2814,22.667 -1.1065,19.64 -1.3974,22.747 -3.6667,39.163 -2.4721,17.883 -4.4389,27.989 -6.0405,31.036 -0.6642,1.263 -1.6438,5.597 -2.1771,9.631 -0.5332,4.033 -1.6275,8.145 -2.4318,9.138 -0.8043,0.993 -1.869,4.893 -2.3659,8.667 -1.413,10.73 -4.8925,27.363 -7.7112,36.861 -4.12,13.884 -8.4319,29.623 -9.4975,34.667 -0.5422,2.567 -2.3351,7.667 -3.9842,11.333 -1.6492,3.667 -3.4494,8.554 -4.0005,10.859 -0.9779,4.092 -0.8058,4.289 7.1592,8.218 4.4886,2.214 10.1111,4.425 12.4944,4.913 2.3833,0.489 4.3333,1.338 4.3333,1.887 0,0.549 3.15,1.723 7,2.608 9.3965,2.16 32.8511,10.734 37,13.526 4.7595,3.203 18.1531,9.323 20.4043,9.323 1.0465,0 3.4283,1.2 5.2929,2.666 1.8646,1.467 4.6384,2.667 6.164,2.667 1.6329,0 6.8973,3.976 12.7978,9.667 5.5131,5.316 13.9202,13.216 18.6824,17.554 4.7623,4.338 8.6586,8.597 8.6586,9.464 0,1.569 10.238,11.128 18.1438,16.94 2.279,1.675 6.779,6.119 10,9.874 3.2209,3.755 7.8556,8.499 10.2994,10.542 6.1078,5.106 22.8902,25.379 22.8902,27.651 0,2.038 5.7449,11.319 13.3956,21.641 2.7177,3.667 5.6883,9.067 6.6012,12 0.913,2.934 2.7246,7.134 4.0258,9.334 1.3013,2.2 3.6067,8.436 5.1232,13.858 1.5164,5.422 4.2444,12.022 6.0622,14.667 3.5664,5.188 6.7048,13.634 8.2279,22.141 0.5252,2.934 2.0669,7.425 3.4261,9.981 1.3592,2.555 2.4713,5.67 2.4713,6.921 0,1.251 0.5538,2.617 1.2307,3.035 0.677,0.418 1.626,2.56 2.1089,4.759 0.483,2.199 1.7988,5.843 2.924,8.099 1.1318,2.268 2.3413,9.262 2.7072,15.653 0.3638,6.354 1.4229,12.772 2.3537,14.264 0.9307,1.491 2.6487,6.891 3.8177,12 3.6076,15.765 6.3688,29.075 7.0441,33.955 0.3551,2.567 1.1815,5.867 1.8363,7.333 3.4556,7.74 5.4421,19.178 6.136,35.33 0.7684,17.888 3.4102,29.946 8.0262,36.634 6.0692,12.372 -24.5964,24.681 -22.5824,8.036 1.1987,-5.932 0.7851,-29.719 -0.6142,-35.333 -0.8227,-3.3 -3.5737,-12.3 -6.1135,-20 -2.5398,-7.7 -5.2429,-18.2 -6.0069,-23.333 -0.764,-5.134 -2.1145,-14.434 -3.0011,-20.667 -0.8867,-6.233 -2.1426,-12.233 -2.7911,-13.333 -0.6484,-1.1 -2.5931,-7.7 -4.3216,-14.667 -1.7285,-6.967 -4.1325,-15.967 -5.3423,-20 -1.2098,-4.033 -2.9633,-10.933 -3.8966,-15.333 -0.9334,-4.4 -2.6427,-9.8 -3.7986,-12 -1.1558,-2.2 -2.8138,-8.8 -3.6843,-14.667 -0.8705,-5.867 -2.1339,-12.836 -2.8075,-15.488 -0.6736,-2.652 -1.2247,-6.471 -1.2247,-8.488 0,-2.054 -1.9778,-6.384 -4.4979,-9.845 -2.4739,-3.399 -4.9505,-7.679 -5.5036,-9.512 -1.42,-4.707 -7.1007,-14.394 -12.1202,-20.667 -2.3471,-2.933 -5.8945,-9.233 -7.8831,-14 -1.9885,-4.767 -4.451,-9.146 -5.472,-9.733 -1.0211,-0.586 -1.8565,-1.872 -1.8565,-2.857 0,-0.985 -0.8687,-2.125 -1.9303,-2.532 -1.0617,-0.407 -2.8868,-2.59 -4.0559,-4.851 -1.169,-2.261 -3.9004,-5.807 -6.0697,-7.88 -2.1693,-2.073 -3.9441,-4.724 -3.9441,-5.891 0,-1.167 -5.037,-6.364 -11.1933,-11.548 -6.1562,-5.184 -14.0334,-12.75 -17.5047,-16.814 -3.4714,-4.063 -10.2844,-10.572 -15.1402,-14.465 -4.8556,-3.892 -11.8285,-9.945 -15.4952,-13.451 -8.1232,-7.767 -19.1042,-15.311 -22.285,-15.311 -1.428,0 -3.1214,1.856 -4.328,4.744 -1.0902,2.609 -3.115,6.359 -4.4995,8.333 -1.3845,1.974 -3.2523,5.989 -4.1507,8.923 -2.2205,7.25 -5.2028,13.718 -6.7724,14.688 -0.7138,0.441 -1.2977,2.984 -1.2977,5.651 0,3.417 -1.0337,5.927 -3.5013,8.503 -6.563,6.85 -12.3461,18.724 -13.3724,27.457 -0.4548,3.869 -1.2287,7.034 -1.7199,7.034 -0.4913,0 -1.9525,2.401 -3.2472,5.336 -1.2947,2.934 -3.0602,6.092 -3.9233,7.017 -4.1848,4.487 -10.2359,14.372 -10.2359,16.722 0,1.452 -0.9,2.985 -2,3.407 -1.1,0.422 -2,1.872 -2,3.221 0,1.35 -0.8809,3.619 -1.9576,5.042 -1.0767,1.424 -1.9767,3.705 -2,5.07 -0.023,1.365 -2.4424,5.348 -5.3757,8.852 -2.9334,3.503 -5.3334,7.256 -5.3334,8.34 0,2.64 -5.6232,16.209 -6.9497,16.771 -0.5777,0.244 -1.0503,1.48 -1.0503,2.745 0,1.265 -0.8809,3.465 -1.9576,4.889 -1.0766,1.423 -1.9766,3.608 -2,4.855 -0.023,1.247 -0.7957,2.747 -1.7164,3.333 -0.9206,0.587 -2.5056,3.467 -3.5221,6.4 -1.0165,2.933 -3.4604,7.733 -5.4309,10.667 -1.9705,2.933 -4.6359,8.033 -5.923,11.333 -1.2872,3.3 -3.1232,6.9 -4.0801,8 -0.9569,1.1 -2.1434,3.901 -2.6367,6.224 -0.4933,2.323 -2.0601,5.565 -3.4817,7.204 -1.4216,1.639 -2.5848,4.688 -2.5848,6.776 0,2.088 -0.5886,3.796 -1.3079,3.796 -0.7194,0 -1.7109,1.65 -2.2034,3.667 -0.4924,2.016 -2.0038,5.097 -3.3587,6.846 -1.3548,1.749 -2.4633,4.538 -2.4633,6.198 0,3.3 -14.7557,33.073 -17.4892,35.289 -0.4524,0.367 -2.2021,4.567 -3.8882,9.333 -1.686,4.767 -3.7935,9.567 -4.6833,10.667 -0.8898,1.1 -2.6539,4.044 -3.9203,6.541 -1.2664,2.498 -3.4388,5.761 -4.8274,7.252 -1.3888,1.49 -2.525,4.032 -2.525,5.649 0,1.617 -0.9271,3.295 -2.0602,3.73 -1.1331,0.435 -2.9522,2.749 -4.0424,5.143 -1.0903,2.393 -3.1194,6.152 -4.5091,8.352 -3.5037,5.546 -8.2192,12.288 -8.2192,12.288 l -8.6525,6.731 0.2384,18.97 15.3471,-0.618 -1.0167,25.572 -0.4719,19.683 z m 39.8395,-89.793 c 4.1059,-4.443 7.988,-9.964 12.8906,-18.333 2.6802,-4.576 9.7049,-19.578 9.7049,-20.727 0,-0.601 1.1693,-1.465 2.5985,-1.918 1.4291,-0.454 2.9955,-2.076 3.4808,-3.605 0.4854,-1.529 2.9162,-5.445 5.4019,-8.701 2.4857,-3.257 4.9163,-7.525 5.4013,-9.485 0.485,-1.961 1.9022,-4.29 3.1493,-5.178 1.247,-0.887 3.0228,-3.437 3.9462,-5.667 0.9234,-2.229 2.2061,-4.053 2.8504,-4.053 0.6444,0 1.1716,-1.1 1.1716,-2.444 0,-1.345 0.4276,-2.872 0.9502,-3.395 1.4515,-1.451 5.7141,-13.199 5.7154,-15.751 0,-2.447 4.4339,-10.791 8.0095,-15.076 4.0619,-4.868 7.9916,-14.021 7.9916,-18.613 0,-2.492 0.75,-5.344 1.6666,-6.34 2.2134,-2.403 8.0066,-13.223 17.0079,-31.765 0.5477,-1.128 1.4169,-4.544 1.9315,-7.59 0.5147,-3.046 1.7889,-6.247 2.8315,-7.112 1.0427,-0.866 1.8958,-2.267 1.8958,-3.114 0,-0.847 1.2,-2.568 2.6667,-3.824 1.7169,-1.47 2.6666,-3.933 2.6666,-6.916 0,-3.046 0.7989,-5.061 2.3334,-5.883 1.2833,-0.689 3.8098,-4.61 5.6143,-8.714 1.8046,-4.105 3.7546,-7.463 4.3334,-7.463 0.5787,0 1.0523,-2.463 1.0523,-5.474 0,-4.306 0.7392,-6.057 3.4606,-8.197 2.7511,-2.164 3.3047,-3.502 2.7,-6.526 -0.6191,-3.095 -0.2974,-3.803 1.7282,-3.803 1.6043,0 2.8139,-1.303 3.4038,-3.666 0.5032,-2.017 2.3683,-5.577 4.1445,-7.911 2.1896,-2.878 3.2295,-5.987 3.2295,-9.657 0,-4.307 0.7998,-6.124 3.918,-8.903 4.9767,-4.434 8.1919,-11.154 7.1828,-15.013 -0.5345,-2.044 0.1023,-3.818 2.0083,-5.594 1.5351,-1.43 3.4178,-4.928 4.1839,-7.772 0.7661,-2.845 2.25,-5.884 3.2976,-6.754 1.0476,-0.869 2.2908,-3.489 2.7627,-5.822 0.4719,-2.332 4.0707,-10.841 7.9973,-18.908 3.9266,-8.066 7.5286,-16.824 8.0045,-19.462 1.044,-5.788 1.0318,-5.795 -26.6884,-15.23 -10.2667,-3.495 -20.7578,-7.469 -23.3136,-8.831 -2.5558,-1.362 -5.4576,-2.477 -6.4484,-2.477 -0.9908,0 -6.2554,-1.294 -11.6991,-2.876 -8.6963,-2.526 -10.5248,-2.668 -15.0645,-1.17 -2.8418,0.938 -7.4861,3.795 -10.3206,6.349 -2.8346,2.555 -6.6538,5.617 -8.4871,6.806 -1.8334,1.188 -3.7856,2.876 -4.3384,3.75 -0.5528,0.874 -6.4205,2.356 -13.0393,3.293 -8.8307,1.249 -13.4611,2.647 -17.3948,5.252 -5.216,3.453 -5.5651,3.501 -12.9359,1.788 -5.6277,-1.309 -9.9167,-1.429 -16.6828,-0.47 -5.0092,0.711 -16.7204,0.893 -26.0249,0.404 -16.5431,-0.868 -17.171,-1.016 -28.3904,-6.673 -6.3102,-3.183 -12.0668,-5.786 -12.7925,-5.786 -0.7257,0 -4.6496,-2.914 -8.7198,-6.476 -14.12,-12.356 -19.6812,-15.047 -19.6812,-9.524 0,1.956 -0.8889,2.667 -3.3334,2.667 -1.8333,0 -3.3333,0.551 -3.3333,1.224 0,0.674 -2.25,2.571 -5,4.216 -2.75,1.645 -6.2072,4.064 -7.6827,5.376 -2.5744,2.289 -12.2914,5.459 -24.3364,7.939 -3.1271,0.644 -6.7271,1.704 -8,2.356 -1.2728,0.651 -4.5906,1.534 -7.3728,1.962 -6.3423,0.975 -26.0455,8.507 -28.3913,10.853 -1.3673,1.367 -1.4904,4.206 -0.5602,12.913 1.5349,14.366 2.7064,19.827 4.2532,19.827 0.6837,0 1.1747,3.15 1.0911,7 -0.1929,8.878 1.522,17.923 4.3655,23.024 4.0298,7.229 6.3003,14.232 6.3003,19.433 0,4.154 0.7609,5.693 4,8.087 2.2,1.627 4.0025,4.195 4.0057,5.707 0,1.512 1.7923,5.442 3.9759,8.734 2.1836,3.292 5.007,9.292 6.2742,13.333 1.2672,4.042 3.9066,9.749 5.8653,12.682 1.9587,2.934 4.0133,7.433 4.5657,9.999 0.5524,2.566 4.4654,11.566 8.6955,20 4.2302,8.434 8.1285,17.435 8.663,20.001 0.5345,2.567 3.2929,9.557 6.1299,15.534 2.837,5.976 5.1581,11.584 5.1581,12.46 0,0.877 1.0868,3.187 2.4152,5.134 1.3283,1.946 4.7115,8.039 7.5182,13.539 2.8066,5.5 5.8537,10.9 6.7714,12 0.9176,1.1 2.9899,5.107 4.6051,8.905 1.6152,3.798 4.0216,7.887 5.3476,9.087 1.326,1.2 5.2691,8.592 8.7625,16.428 3.4933,7.836 7.0725,14.847 7.9536,15.58 0.8811,0.733 4.0167,4.633 6.9679,8.667 2.9513,4.033 6.512,8.533 7.9129,10 1.4008,1.466 2.9084,3.614 3.3502,4.771 1.4652,3.84 10.0307,16.521 12.9023,19.102 1.5546,1.397 2.8264,3.283 2.8264,4.191 0,2.037 16.1345,19.244 18.0586,19.258 0.7656,0 3.4712,-2.239 6.0126,-4.989 z m -12.0712,-23.931 c -1.8333,-0.343 -5.2833,-2.492 -7.6666,-4.775 -3.9913,-3.823 -4.3334,-4.814 -4.3334,-12.552 0,-7.769 0.3604,-8.8 4.7869,-13.699 l 4.7868,-5.299 9.383,0.672 c 14.2264,1.019 17.3977,3.724 19.0408,16.245 0.7524,5.734 0.535,7.141 -1.2065,7.809 -1.1684,0.448 -2.1284,1.801 -2.1334,3.006 -0.021,5.045 -13.7631,10.256 -22.6576,8.593 z m 3.3334,-99.798 c -2.2,-0.999 -5.1137,-1.844 -6.4748,-1.878 -4.7188,-0.114 -11.4101,-10.499 -11.478,-17.814 -0.056,-6.023 1.4998,-9.391 7.041,-15.246 3.7257,-3.936 4.8227,-4.333 11.9724,-4.333 6.7103,0 9.0193,0.709 15.661,4.808 l 7.7901,4.809 -0.039,6.858 c -0.046,8.04 -2.9993,13.618 -10.2166,19.296 -6.3542,4.999 -9.343,5.733 -14.256,3.5 z m -1.2164,-119.878 c -7.0596,-3.781 -8.1637,-4.961 -10.5694,-11.292 -2.3323,-6.138 -2.4795,-7.844 -1.117,-12.938 0.8632,-3.227 1.5694,-7.059 1.5694,-8.515 0,-1.473 0.8938,-2.648 2.0131,-2.648 1.1072,0 3.0405,-1.2 4.2963,-2.667 4.7137,-5.505 15.4679,-2.277 25.4986,7.654 4.6745,4.628 5.5254,6.305 5.5254,10.889 0,7.139 -2.8155,17.457 -4.7634,17.457 -0.849,0 -2.9746,1.109 -4.7235,2.464 -5.4759,4.242 -9.2163,4.157 -17.7295,-0.404 z m 35.2164,-140.177 c 4.7666,-1.112 11.0666,-2.549 14,-3.191 7.7038,-1.688 10,-2.758 10,-4.66 0,-0.926 3.7012,-3.288 8.225,-5.25 8.668,-3.759 17.1255,-10.232 18.732,-14.337 0.5264,-1.344 1.8695,-2.445 2.9848,-2.445 3.3107,0 7.1304,-4.106 10.8031,-11.612 1.8982,-3.88 4.0071,-7.054 4.6865,-7.054 0.6794,0 1.2352,-1.407 1.2352,-3.127 0,-1.72 1.2,-4.213 2.6667,-5.54 1.4667,-1.327 2.6667,-3.56 2.6667,-4.962 0,-1.402 1.554,-4.587 3.4535,-7.077 1.9839,-2.601 3.7295,-6.96 4.1022,-10.244 0.3568,-3.145 1.1343,-6.917 1.7279,-8.384 1.3636,-3.369 3.6934,-12.116 4.6172,-17.333 0.3896,-2.2 1.9638,-9.7 3.4984,-16.667 1.5345,-6.966 3.3279,-15.666 3.9852,-19.333 2.5409,-14.173 2.9896,-16.049 4.205,-17.577 1.2671,-1.592 1.94,-5.44 6.0207,-34.423 3.0379,-21.577 3.5068,-59.997 0.8625,-70.667 -1.0904,-4.4 -2.5633,-10.327 -3.2731,-13.172 -0.7098,-2.845 -1.8313,-6.184 -2.4923,-7.419 -0.6609,-1.234 -2.1205,-10.148 -3.2435,-19.807 -1.123,-9.66 -2.9618,-19.342 -4.0861,-21.516 -1.1244,-2.174 -2.0443,-5.527 -2.0443,-7.45 0,-5.274 -5.224,-25.905 -8.1172,-32.057 -1.4022,-2.981 -2.5495,-6.47 -2.5495,-7.752 0,-1.282 -1.5,-5.61 -3.3333,-9.618 -1.8333,-4.008 -3.3333,-8.677 -3.3333,-10.375 0,-1.698 -1.2,-4.173 -2.6667,-5.5 -1.4667,-1.328 -2.6667,-3.452 -2.6667,-4.721 0,-6.945 -10.1685,-17.019 -32.6666,-32.365 -5.6016,-3.821 -9.025,-4.93 -21.4285,-6.944 -11.8221,-1.92 -15.6453,-2.089 -19.1989,-0.85 -2.4405,0.85 -6.2157,1.546 -8.3894,1.546 -7.2227,0 -26.906,5.455 -32.3166,8.957 -7.6319,4.938 -34.9432,33.052 -38.0775,39.195 -1.4538,2.85 -3.1628,5.182 -3.7976,5.182 -0.6349,0 -2.1972,2.25 -3.4718,5 -1.2746,2.75 -3.4227,6.217 -4.7735,7.704 -1.3509,1.488 -3.3997,5.379 -4.553,8.648 -1.1532,3.269 -3.5011,7.452 -5.2175,9.295 -1.7164,1.844 -3.8705,5.753 -4.7869,8.686 -0.9163,2.933 -2.4396,6.833 -3.385,8.667 -0.9454,1.833 -2.6834,7.233 -3.8622,12 -1.1788,4.766 -2.7568,10.766 -3.5066,13.333 -4.0714,13.937 -5.4502,23.834 -4.7363,34 0.8798,12.529 0.8813,11.128 -0.023,21.697 -0.3936,4.6 -0.072,10.209 0.7141,12.465 0.9274,2.66 0.9829,4.936 0.1579,6.478 -0.6995,1.307 -1.6229,11.597 -2.052,22.868 -0.4291,11.271 -1.4145,23.008 -2.1898,26.082 -1.0729,4.255 -0.8913,9.351 0.7603,21.333 1.1935,8.659 2.3847,24.144 2.6472,34.41 0.2651,10.372 1.1964,20.445 2.0956,22.667 1.4323,3.54 2.1638,9.396 4.913,39.333 0.3704,4.034 1.8295,9.773 3.2423,12.755 1.413,2.981 2.569,6.641 2.569,8.133 0,1.492 1.8,5.197 4,8.234 2.2,3.037 4,6.163 4,6.946 0,3.002 18.8359,23.73 22.829,25.122 2.2368,0.78 6.8654,3.462 10.2856,5.96 5.6095,4.097 8.3001,5.012 23.552,8.016 7.3066,1.439 38.0099,0.583 46,-1.283 z"
         id="path11802-3"
         sodipodi:nodetypes="cccccccsssssssssssssssssssssssssssssssssssssssssssssssssssssccsssssssssssssssssssssssssssssssscssssssssssssssssssssssssccsssssssssssssssssssssssssssssssssssssssssssssssssssssssssssccssssssssssssssssssssssssssssssssssssssssssssssssssssssssssssssssssssscccccccsssssssssssssssssssssssssssssssssssssssssssssssssssssssssssssssssssssssssssssssssssssssssssssssssscssssssssssscssssssssssssssssssssssssssssssssssssssssssssssssssssssssssssssssssssssssssssssss" /><path
         style="fill:none;fill-opacity:1;stroke:#000000;stroke-width:25;stroke-linecap:square;stroke-linejoin:round;stroke-dasharray:none;stroke-opacity:1"
         d="m -1726.7703,26589.408 c 0,0 -0.5746,-1.22 -0.5808,-1.985 -0.5707,-1.435 1.7326,-1.132 1.7418,-2.193 1.7512,-1.134 -0.3891,-3.99 -0.3539,-6.219 -0.3872,-2.509 -0.2989,-4.418 -0.2231,-6.735 -0.2963,-2.875 0.1639,-5.125 0.3255,-7.969 0.1386,-3.014 0.8563,-5.901 1.1412,-9.248 0.7558,-3.14 0.084,-7.866 0.5021,-11.569 -0.1704,-4.264 1.72,-6.482 2.2557,-9.996 1.4732,-3.508 1.2439,-7.797 1.98,-11.779 0.7271,-3.894 1.9976,-7.575 2.9083,-11.511 1.3875,-3.69 1.9471,-7.909 3.0302,-11.856 1.1267,-3.847 2.3011,-7.705 3.626,-11.461 1.3174,-3.734 2.0865,-9.149 3.8097,-12.644 1.5086,-1.445 2.6619,-3.949 4.4937,-5.408 1.2696,-2.477 4.5396,-2.818 6.6179,-4.245 2.7773,-1.314 4.1181,-2.66 6.3221,-4.004 2.4396,-1.411 4.9788,-2.857 7.6112,-4.289 2.6918,-1.378 5.5057,-2.741 8.3387,-4.131 2.9627,-1.284 8.284,-2.606 11.2769,-3.94 4.8994,-0.906 4.4159,-4.104 6.8403,-5.113 2.7131,-3.292 6.3134,-2.376 9.4472,-3.556 3.4525,-1.12 6.6338,-2.32 9.9712,-3.45 3.4596,-1.06 8.3041,-1.614 11.7401,-2.651 4.5641,-0.297 6.0678,-2.014 9.1282,-2.848 3.4429,-1.164 6.9548,-1.959 10.4281,-2.782 3.4816,-0.95 6.7761,-2.011 10.232,-2.697 3.3254,-1.123 6.6919,-1.755 10.15,-2.289 3.2063,-0.981 6.8792,-2.047 10.3202,-2.399 3.2639,-1.401 6.5722,-0.781 9.8619,-0.904 3.1614,-0.322 6.5542,-0.192 9.7539,-0.08 3.0881,0.05 5.9046,-1.144 8.8869,-0.806 2.8414,-1.123 7.8603,1.427 10.8154,2.144 3.8164,1.044 4.5954,1.444 6.525,2.098 2.7571,1.129 5.2557,2.192 7.2729,3.129 2.7516,1.469 5.3266,2.016 6.9505,2.999 1.7973,1.089 1.3293,1.156 3.1765,2.615 0.5649,0.652 1.8232,2.29 2.6343,4.215 1.3268,2.111 1.1441,2.051 2.0706,4.774 0.6683,1.286 2.6018,7.631 3.9237,12.066 1.2276,3.709 3.2951,7.374 4.3832,11.264 2.2367,3.923 1.7291,7.376 2.7379,11.331 0.67,3.755 2.9136,9.036 3.8913,13.079 1.6597,4.177 1.365,6.745 2.0423,9.889 0.4596,3.157 1.3041,6.535 1.8483,9.177 0.4195,2.452 0.3128,2.857 0.6239,4.311 0.3006,1.404 0.707,3.239 0.707,3.239"
         id="path11804-6"
         sodipodi:nodetypes="cccc"
         inkscape:path-effect="#path-effect9368-6"
         inkscape:original-d="m -1726.7703,26589.408 c 0,0 -1.499,-68.19 20.7951,-113.404 34.6996,-33.245 158.0207,-73.501 196.1033,-43.414 5.6486,6.522 24.7177,83.168 24.7177,83.168" /><path
         style="fill:none;fill-opacity:1;stroke:#000000;stroke-width:25;stroke-linecap:square;stroke-linejoin:round;stroke-dasharray:none;stroke-opacity:1"
         d="m -2025.6094,27380.854 12.1411,2.815 12.1138,-0.07 12.1429,-2.785 12.1741,1.281 12.126,-0.782 12.1537,0.732 12.1333,0.853 12.1327,1.02 12.1326,-0.09 12.1435,0.904 12.135,0.182 12.1411,0.14 12.1414,0.257 12.1406,-0.365 12.1451,0.147 12.1413,-1.27 12.1558,0.414 12.1381,-0.592 12.1509,0.11 12.1419,0.61 12.135,0.06 12.1424,0.959 12.1317,-0.06 12.1435,-0.643 12.1513,-0.213 12.1467,-0.576 12.1538,-0.348 12.1514,2.76 12.1007,0.49 12.1381,1.199 12.1347,0.709 12.1401,0.07 12.1416,0.377 12.1415,0.687 12.1426,0.107 12.1418,-0.182 12.1409,0.465 12.1429,1.014 12.1482,0.02 12.1413,0.02 12.1413,-0.655 12.1363,-0.151 12.1406,2.636 12.1745,-1.689 12.1143,0.441 12.1461,-2.499 12.1332,1.919 12.1429,0.284 12.1437,3.022 12.2132,-1.355 12.0989,0.301 12.15,-0.08 12.1396,0.224 12.1491,-0.332 12.1314,-0.537 12.1265,-0.908 12.1237,1.361 12.1733,-0.154 12.137,-0.04 12.1409,0.263 12.1536,0.931 12.2014,1.596 12.3248,-0.115 12.1661,-0.31 12.1166,-2.584 11.8555,-2.49"
         id="path11806-0"
         sodipodi:nodetypes="cc"
         inkscape:path-effect="#path-effect11808-7"
         inkscape:original-d="m -2025.6094,27380.854 801.3096,11.046" /><path
         style="fill:#000000;stroke-width:0.91982"
         d="m -764.2377,26745.881 c 0.4858,-1.446 0.7953,-5.056 0.6937,-8.017 -0.1159,-3.725 0.3242,-5.587 1.4712,-6.029 0.912,-0.344 1.9967,-2.632 2.4097,-5.076 0.4138,-2.443 2.1692,-6.592 3.901,-9.221 1.7352,-2.625 4.6131,-6.959 6.4011,-9.637 1.7826,-2.677 4.5386,-5.356 6.1169,-5.954 1.5802,-0.601 5.3629,-2.231 8.4037,-3.622 9.3525,-4.273 13.0694,-4.701 18.443,-2.119 3.9694,1.913 5.5757,3.837 9.6847,11.621 4.8245,9.134 6.3677,14.659 7.8583,28.155 0.6936,6.287 0.5884,6.69 -1.7527,6.69 -1.4662,0 -2.4921,0.735 -2.4921,1.787 0,1.421 -0.4717,1.531 -2.3316,0.536 -1.2819,-0.684 -2.3271,-1.911 -2.3271,-2.727 0,-0.817 -1.0496,-3.653 -2.3316,-6.299 -1.2819,-2.649 -2.3297,-5.928 -2.3297,-7.283 0,-4.143 -5.8785,-12.905 -9.5025,-14.166 -2.0729,-0.724 -3.3127,-1.98 -3.3127,-3.365 0,-2.388 -3.8835,-1.386 -3.8835,-1.386 l -2.6842,0.143 -5.8301,0.211 -3.4776,2.288 c 0,0 0.3646,0.804 -0.4341,1.764 -0.7971,0.958 -1.1759,1.745 -0.84,1.745 0.3367,0 -0.9033,1.616 -2.7533,3.592 -1.8485,1.978 -3.9214,5.669 -4.6045,8.204 -0.6847,2.531 -2.9312,5.249 -2.9312,5.249 l -3.1796,8.399 c 0,0 -4.7068,6.456 -6.8551,6.779 -2.0413,0.312 -2.2772,-0.03 -1.5301,-2.263 z"
         id="path52393-0-2-5-23-4-2-0-9-1-6-3-0-9-2-1-8-63-1-6-6"
         sodipodi:nodetypes="sssssssssssssssssssccccssssccsss" /><path
         style="fill:#000000;stroke-width:0.91982"
         d="m -637.9227,26748.013 c -4.8789,-0.75 -6.8781,-6.057 -3.0006,-14.881 2.6384,-6.004 3.0935,-9.051 3.0935,-9.051 l 2.0842,-5.264 c 0,0 1.9843,-3.901 2.927,-4.454 0.9399,-0.551 2.4411,-2.374 3.3355,-4.048 4.835,-9.093 11.8419,-16.144 16.035,-16.144 7.7329,0 17.8054,3.6 22.1116,7.896 4.1353,4.128 8.323,10.702 8.323,13.07 0,0.664 0.8787,3.151 1.958,5.53 2.4096,5.337 2.955,16.536 0.8033,16.536 -0.8157,0 -1.9931,0.915 -2.6192,2.033 -1.1277,2.013 -3.4267,-2.116 -9.3455,-16.779 -2.7471,-6.802 -5.1997,-7.931 -14.9687,-6.882 -2.0817,0.231 -5.6206,0.467 -7.8628,0.547 -2.649,0.102 -4.0792,0.716 -4.0792,1.773 0,0.897 -3.1733,2.755 -4.2499,5.875 -1.5056,4.353 -1.8327,5.24 -1.8327,5.24 l -0.9067,5.867 c 0,0 -1.1636,1.335 -1.1636,2.968 0,2.666 -5.5452,11.245 -6.9928,10.815 -0.3168,-0.102 -1.9607,-0.391 -3.6494,-0.647 z"
         id="path52393-0-3-7-09-7-3-2-8-0-6-9-1-8-64-7-0-7-2-5-5-2"
         sodipodi:nodetypes="ssccsssssssssssssccsss" /><path
         style="fill:#000000;stroke-width:1.46054"
         d="m -756.2598,26859.649 c 1.6274,-0.5 3.6951,-1.497 4.5894,-2.214 2.9586,-2.369 6.387,-2.098 8.7142,0.686 1.8368,2.198 2.2824,4.752 2.3123,13.211 0.016,5.771 0.6348,12.017 1.3616,13.885 1.4653,3.784 1.6521,4.611 2.8184,12.652 0.5795,3.979 1.9509,6.805 4.6892,9.666 6.487,6.762 13.7,11.842 17.9642,12.654 2.2263,0.419 5.1418,1.327 6.472,2.016 1.3285,0.686 4.3228,1.655 6.6508,2.155 2.3274,0.499 8.5862,2.09 13.908,3.533 11.4296,3.104 20.2507,2.748 28.8352,-1.154 3.1416,-1.428 8.8262,-3.164 12.6309,-3.852 8.1496,-1.473 11.1438,-3.217 18.2605,-10.634 5.5469,-5.785 9.7461,-13.392 9.7919,-17.753 0,-1.413 0.7874,-3.2 1.7177,-3.973 0.9329,-0.769 2.926,-4.503 4.4254,-8.297 3.5039,-8.829 5.5268,-11.121 9.8313,-11.121 2.1948,0 3.7784,0.782 4.294,2.114 1.8931,4.897 -0.088,24.637 -3.0409,30.027 -0.7683,1.406 -1.0593,2.888 -0.6576,3.291 0.4032,0.403 -0.1877,1.085 -1.298,1.512 -1.1187,0.43 -2.8383,2.478 -3.8265,4.559 -4.1948,8.831 -7.661,13.098 -12.759,15.699 -2.9216,1.492 -6.4011,3.291 -7.7286,4.003 -12.7511,6.79 -30.3847,10.387 -50.284,10.249 -8.358,-0.07 -17.4739,-0.673 -20.2553,-1.368 -2.7804,-0.693 -7.3682,-1.836 -10.1952,-2.539 -2.826,-0.697 -6.3448,-2.057 -7.8196,-3.016 -1.4723,-0.96 -3.29,-1.743 -4.0361,-1.743 -1.9826,0 -14.206,-11.135 -19.9976,-18.219 -8.4879,-10.369 -14.881,-29.064 -14.9715,-43.772 -0.016,-5.775 -0.5225,-7.441 -2.6997,-9.2 l -2.6613,-2.148 z"
         id="path3002-3-9-7-92-3-7-41-0-7-1-1-2-0-3-7-2-06-5-6-6"
         sodipodi:nodetypes="sssssssssssssssssssssssssssssscsccs" /><path
         style="fill:#000000;stroke-width:1.17208"
         d="m -1052.7924,27409.605 c -2.9009,-1.014 -6.3152,-2.571 -7.5863,-3.46 -1.272,-0.89 -3.2139,-1.618 -4.3153,-1.618 -1.1024,0 -3.0117,-1.45 -4.2433,-3.222 -1.9155,-2.758 -2.2548,-5.481 -2.3444,-18.832 -0.062,-8.584 0.2857,-19.26 0.763,-23.725 0.4764,-4.464 0.4624,-8.522 -0.035,-9.016 -1.1674,-1.168 -1.4504,-23.773 -0.3929,-31.353 0.4492,-3.223 1.7968,-8.819 2.9941,-12.434 1.1973,-3.616 2.1229,-8.89 2.057,-11.721 -0.1644,-7.046 4.4393,-39.265 7.3516,-51.445 1.3098,-5.479 2.8174,-12.072 3.351,-14.65 3.6604,-17.711 5.9135,-26.639 7.4466,-29.51 3.9066,-7.316 9.0157,-18.67 9.0157,-20.034 0,-0.799 1.0549,-3.419 2.3444,-5.824 1.2888,-2.406 2.3436,-4.96 2.3436,-5.675 0,-0.715 1.0074,-2.213 2.239,-3.327 1.2316,-1.114 2.5713,-3.349 2.9765,-4.966 0.9178,-3.657 10.3071,-19.315 15.3512,-25.603 2.0693,-2.579 4.15,-6.008 4.6247,-7.619 0.8844,-3 5.3527,-11.839 6.5174,-12.893 2.4394,-2.206 6.9701,-9.361 6.9701,-11.005 0,-1.097 1.3696,-3.365 3.0442,-5.038 1.6738,-1.674 4.4428,-4.966 6.1535,-7.317 3.7343,-5.13 5.6796,-7.518 9.5563,-11.734 1.6113,-1.752 5.1698,-6.091 7.9081,-9.643 4.3109,-5.592 13.6255,-14.875 23.7383,-23.658 10.6859,-9.281 17.7325,-14.967 22.6728,-18.295 3.1225,-2.104 7.6057,-5.874 9.9625,-8.38 2.9343,-3.118 5.2884,-4.554 7.4676,-4.556 1.7503,0 5.6779,-1.584 8.7274,-3.518 3.0495,-1.934 6.3222,-3.516 7.2734,-3.516 0.9511,0 2.6266,-0.812 3.7237,-1.805 2.1458,-1.942 11.5712,-5.825 19.4951,-8.033 2.6925,-0.75 5.8985,-2.272 7.1248,-3.381 1.2263,-1.11 2.8341,-2.018 3.5734,-2.018 0.7384,0 4.7839,-1.576 8.9893,-3.502 4.2063,-1.927 9.8376,-3.853 12.5153,-4.281 2.6767,-0.428 5.8352,-1.746 7.0167,-2.927 1.1823,-1.183 4.3988,-2.507 7.1477,-2.943 6.0971,-0.967 12.6163,-3.573 12.6163,-5.044 0,-0.596 0.9863,-1.009 2.1915,-0.917 3.0249,0.227 11.8736,-2.799 11.8736,-4.063 0,-1.76 -4.6846,-10.314 -5.6489,-10.314 -1.0285,0 -4.3514,-8.257 -3.9321,-9.771 0.1495,-0.538 -0.7103,-1.236 -1.9102,-1.55 -1.5085,-0.394 -2.8077,-2.804 -4.2125,-7.811 -1.1173,-3.982 -2.5238,-8.156 -3.1268,-9.275 -0.6022,-1.12 -1.0953,-4.163 -1.0953,-6.762 0,-2.601 -1.265,-7.843 -2.8122,-11.65 -1.7845,-4.391 -3.1057,-10.663 -3.6164,-17.158 -0.4413,-5.631 -1.3213,-11.6 -1.9551,-13.265 -0.6329,-1.665 -1.381,-6.461 -1.6623,-10.655 -0.2813,-4.195 -1.0619,-11.377 -1.7344,-15.961 -0.6725,-4.583 -1.112,-11.44 -0.9758,-15.237 0.2893,-8.08 -1.206,-39.194 -1.94,-40.382 -0.277,-0.448 0.3797,-2.584 1.4583,-4.746 1.5929,-3.192 2.0324,-8.346 2.3366,-27.394 0.2057,-12.903 0.9379,-25.176 1.6271,-27.273 0.6892,-2.096 1.4162,-8.426 1.6158,-14.065 0.1986,-5.639 0.8834,-11.572 1.5207,-13.183 0.6374,-1.611 1.5173,-5.831 1.956,-9.377 0.4386,-3.545 1.2157,-7.501 1.7282,-8.791 1.61,-3.405 12.9528,-19.076 12.9528,-19.076 l 26.5999,-17.954 28.6891,-14.512 29.5262,-7.733 26.8295,-2.254 27.5654,-1.968 25.7008,0.518 21.0339,2.901 21.7115,6.77 19.0241,8.2 18.5396,11.521 8.8432,7.354 c 0,0 9.2462,16.476 9.3227,18.783 0.8553,0.71 1.5559,3.042 1.5559,5.181 0,2.139 0.5275,4.216 1.1718,4.614 0.6444,0.398 1.1718,3.629 1.1718,7.178 0,3.551 0.5169,7.419 1.1472,8.598 0.6312,1.179 1.2518,6.182 1.3792,11.117 0.1275,4.935 0.6664,9.241 1.1973,9.569 0.531,0.328 0.9652,1.84 0.9652,3.36 0,1.52 0.5758,2.956 1.2808,3.19 0.705,0.235 1.5076,3.312 1.7837,6.838 0.2769,3.526 0.8465,8.256 1.2658,10.513 1.1991,6.455 1.4935,9.318 1.9841,19.339 0.2531,5.157 1.0452,14.559 1.7616,20.893 0.7156,6.333 1.5498,16.882 1.8522,23.442 0.3033,6.558 0.8597,17.463 1.2368,24.232 0.3772,6.769 0.1636,14.68 -0.4738,17.581 -0.6382,2.901 -2.7347,12.659 -4.6608,21.683 -1.9251,9.026 -4.1509,18.256 -4.9465,20.513 -0.7947,2.255 -2.1546,6.09 -3.0222,8.52 -0.8685,2.431 -1.5779,5.291 -1.5779,6.355 0,1.064 -0.7059,2.767 -1.5674,3.785 -0.8624,1.018 -2.7761,5.807 -4.252,10.641 -1.4769,4.835 -4.4639,12.167 -6.6379,16.293 -5.1188,9.716 -5.1443,11.806 -0.1433,11.638 7.9002,-0.266 18.485,1.639 21.269,3.829 1.5595,1.227 3.6323,2.231 4.6063,2.231 3.511,0 5.4784,1.473 5.4784,4.102 0,2.897 2.9466,4.801 4.2248,2.732 1.1234,-1.817 12.9425,-0.382 15.1656,1.841 0.9969,0.996 4.0296,2.402 6.7407,3.124 2.711,0.723 5.7376,1.724 6.7257,2.227 0.9881,0.502 3.4574,1.278 5.4863,1.724 2.0297,0.445 4.3188,1.567 5.0862,2.493 0.7683,0.925 2.0289,1.682 2.8007,1.682 0.7719,0 3.5603,1.846 6.1966,4.103 2.6354,2.256 5.3412,4.102 6.011,4.102 0.6708,0 2.6276,1.846 4.3488,4.102 1.7203,2.257 3.9417,4.103 4.9359,4.103 0.9942,0 3.1734,1.513 4.8428,3.362 1.6685,1.849 4.1949,3.722 5.6137,4.162 1.4179,0.441 3.7026,2.62 5.0766,4.843 1.374,2.223 2.9027,4.042 3.3967,4.042 0.494,0 1.8847,2.187 3.0899,4.86 1.2052,2.673 2.7357,5.442 3.4011,6.153 0.6655,0.712 2.7207,3.519 4.5677,6.239 1.846,2.72 4.2977,5.243 5.4466,5.608 1.2457,0.395 1.8909,1.475 1.5982,2.674 -0.3006,1.228 1.6843,4.349 5.1021,8.025 7.6962,8.276 13.2115,15.269 13.2115,16.752 0,0.682 1.0548,1.9 2.3444,2.705 1.2887,0.805 2.3436,2.09 2.3436,2.855 0,0.765 1.2035,2.352 2.6733,3.528 3.5822,2.863 8.5752,9.681 9.6336,13.158 0.4721,1.548 3.4196,6.629 6.5508,11.289 3.1304,4.66 6.2959,11.041 7.0334,14.179 0.7385,3.137 1.7819,6.496 2.319,7.463 3.7642,6.775 5.6181,11.961 6.1895,17.316 0.3631,3.4 1.0628,6.828 1.5568,7.619 0.4932,0.79 1.0576,2.469 1.2536,3.73 0.196,1.261 0.741,2.58 1.2122,2.93 0.4703,0.35 1.5472,2.747 2.392,5.326 0.8447,2.578 1.9823,5.743 2.5273,7.032 2.2935,5.427 8.2403,25.741 9.5211,32.521 0.7613,4.032 2.6091,9.967 4.1061,13.191 3.9022,8.403 6.3495,17.578 9.8447,36.921 1.3863,7.671 3.925,15.236 5.1135,15.236 0.5661,0 0.4387,0.712 -0.283,1.583 -1.3142,1.583 -1.2422,2.165 2.2495,18.05 1.2351,5.618 2.5045,52.872 2.4965,92.888 0,30.322 0.3016,27.754 -3.4274,28.505 -1.1041,0.483 -14.3183,-0.771 -17.5813,0.34 -1.1279,0.352 -4.9984,0.751 -6.8796,0.628 -7.7446,-0.39 -17.4029,-0.39 -24.8257,-0.503 -11.0824,-0.156 -20.2836,0.07 -20.4471,0.511 -0.1644,0.439 -2.384,0.07 -4.9333,-0.808 -3.3352,-1.154 -5.0608,-1.251 -6.1526,-0.345 -1.083,0.899 -2.4394,0.885 -4.7416,-0.05 -2.8324,-1.15 -6.3223,-1.598 -23.4034,-3.002 -2.0728,-0.171 -4.5738,-0.977 -5.5566,-1.793 -1.0302,-0.855 -3.4037,-1.234 -5.6067,-0.895 -2.2715,0.35 -6.6721,-0.399 -10.8529,-1.845 -4.151,-1.437 -10.1541,-2.463 -14.6505,-2.505 -4.1905,-0.03 -7.8826,-0.354 -8.2052,-0.701 -1.2685,-1.363 -17.4345,-3.715 -25.0859,-3.65 -4.4507,0.03 -8.9621,-0.398 -10.0266,-0.967 -1.0637,-0.57 -2.6539,-0.591 -3.533,-0.04 -0.9591,0.592 -2.5757,0.359 -4.0393,-0.582 -1.3423,-0.863 -6.9235,-2.203 -12.4027,-2.977 -5.4801,-0.773 -10.6227,-1.932 -11.4279,-2.574 -0.9863,-0.785 -1.4654,-0.758 -1.4654,0.08 0,0.756 -2.7655,1.21 -7.0061,1.15 -3.853,-0.05 -7.6769,0.456 -8.4971,1.135 -1.5603,1.291 -2.3524,1.359 -15.359,1.329 -4.4033,0 -8.6228,0.487 -9.3761,1.105 -1.9621,1.608 -6.3284,1.896 -13.2827,0.875 -4.056,-0.595 -6.9165,-0.425 -8.6773,0.518 -3.3721,1.804 -12.7324,2.276 -15.672,0.789 -1.2491,-0.631 -10.1954,-1.36 -19.8818,-1.617 -10.569,-0.282 -17.9171,-0.964 -18.3751,-1.705 -0.4202,-0.679 -2.2856,-1.112 -4.1457,-0.962 -1.8601,0.15 -4.1738,-0.06 -5.1407,-0.468 -0.967,-0.408 -3.8679,-0.59 -6.4462,-0.405 -2.5783,0.186 -6.0067,-0.143 -7.6189,-0.73 -1.6113,-0.588 -9.7866,-1.241 -18.1668,-1.452 -14.4975,-0.366 -25.0182,-1.997 -39.1826,-6.075 -9.2231,-2.656 -52.7043,-0.252 -70.0984,3.876 -7.109,1.687 -15.5577,2.847 -20.7354,2.847 -4.8059,0 -9.0693,0.536 -9.4737,1.191 -0.4052,0.655 -1.2509,0.874 -1.8794,0.485 -0.6277,-0.389 -1.9102,-0.07 -2.8491,0.71 -1.076,0.893 -1.7063,0.962 -1.7063,0.185 0,-0.746 -1.9664,-1.037 -4.9816,-0.737 -19.2164,1.91 -26.8651,2.841 -32.3927,3.941 -3.4723,0.691 -10.5927,1.255 -15.8232,1.252 -5.2304,0 -13.9508,0.915 -19.3781,2.04 -7.938,1.645 -9.9686,1.747 -10.3774,0.52 -0.4096,-1.23 -0.8834,-1.209 -2.4385,0.11 -2.2522,1.91 -15.0786,4.368 -22.7924,4.368 -2.9458,0 -6.8101,0.553 -8.5876,1.228 -3.9453,1.5 -23.3955,2.658 -41.099,2.446 -7.6742,-0.09 -13.4189,0.331 -13.8435,1.018 -0.4826,0.783 -1.4724,0.775 -2.9616,-0.03 -3.38,-1.81 -9.3251,-0.999 -15.2025,2.073 -2.9009,1.515 -5.7755,3.256 -6.3882,3.867 -1.6948,1.69 -11.1369,1.222 -17.0539,-0.845 z m 698.008,-17.995 c 0.7464,-0.62 1.6096,-0.875 1.9181,-0.567 1.2659,1.266 10.6016,1.716 12.6683,0.61 1.5093,-0.807 3.2393,-0.806 5.3754,0 4.7628,1.811 6.7636,-0.418 5.8485,-6.516 -0.5503,-3.67 -0.2725,-5.247 1.1261,-6.409 1.1216,-0.931 1.5269,-2.277 1.0223,-3.403 -0.4589,-1.025 -0.9555,-13.468 -1.1032,-27.65 -0.5178,-49.643 -1.2606,-63.766 -3.9031,-74.196 -1.3555,-5.352 -2.7682,-12.736 -3.1391,-16.409 -0.371,-3.673 -1.4021,-8.524 -2.2917,-10.78 -0.8888,-2.256 -2.181,-7.012 -2.8711,-10.568 -0.6892,-3.556 -1.9673,-7.84 -2.8393,-9.522 -0.8721,-1.681 -2.2478,-5.892 -3.0566,-9.358 -0.8087,-3.471 -2.7031,-10.262 -4.2098,-15.097 -1.5067,-4.835 -3.2464,-12.033 -3.8661,-15.997 -1.0892,-6.97 -3.2561,-12.133 -5.0925,-12.133 -0.4896,0 -0.8905,-1.369 -0.8905,-3.042 0,-1.674 -0.7375,-4.443 -1.6394,-6.154 -0.9019,-1.711 -2.835,-7.067 -4.2978,-11.901 -1.4619,-4.835 -3.6244,-11.027 -4.8067,-13.76 -1.1823,-2.733 -2.1493,-5.998 -2.1493,-7.256 0,-1.259 -0.5275,-2.614 -1.1718,-3.013 -0.6444,-0.398 -1.1718,-1.797 -1.1718,-3.107 0,-1.311 -1.0549,-3.724 -2.3445,-5.364 -1.2896,-1.638 -2.3444,-3.76 -2.3444,-4.715 0,-0.954 -2.3735,-5.306 -5.2744,-9.67 -2.9009,-4.363 -5.2744,-8.703 -5.2744,-9.645 0,-0.94 -2.7286,-4.825 -6.0629,-8.632 -6.419,-7.328 -17.7282,-21.944 -21.2277,-27.435 -1.1498,-1.805 -3.3827,-3.605 -4.9632,-4.001 -1.7722,-0.445 -3.1567,-1.853 -3.6139,-3.675 -0.4078,-1.624 -2.2618,-3.739 -4.1201,-4.7 -1.8584,-0.962 -3.3792,-2.262 -3.3792,-2.89 0,-1.637 -3.743,-1.34 -6.1534,0.49 -1.1279,0.856 -2.0509,2.316 -2.0509,3.245 0,0.927 -0.4501,2.188 -0.9995,2.8 -0.5494,0.613 -1.701,3.719 -2.5589,6.903 -1.2184,4.524 -1.2457,5.893 -0.124,6.267 0.9098,0.303 0.2998,1.53 -1.6658,3.351 -2.1555,1.999 -2.9027,3.63 -2.4509,5.356 0.386,1.477 -0.2769,3.781 -1.6368,5.692 -1.257,1.765 -2.2855,4.76 -2.2855,6.655 0,1.925 -1.0057,4.358 -2.2777,5.508 -1.9401,1.757 -3.6991,6.151 -4.245,10.61 -0.3244,2.645 -2.8297,7.493 -4.3435,8.403 -0.8905,0.535 -2.3374,3.61 -3.2138,6.834 -0.8773,3.223 -3.3115,8.316 -5.4098,11.318 -2.4245,3.468 -4.3496,8.168 -5.2823,12.893 -0.807,4.089 -2.3462,8.754 -3.4196,10.365 -1.0742,1.612 -2.9211,5.04 -4.1052,7.619 -1.1841,2.578 -2.8491,5.115 -3.7009,5.636 -1.0487,0.643 -1.2025,1.566 -0.4764,2.863 1.0531,1.882 -0.6681,5.721 -4.2407,9.459 -0.814,0.852 -1.4803,2.792 -1.4803,4.311 0,2.603 -1.8276,5.244 -5.0502,7.3 -0.7806,0.497 -2.9133,5.281 -4.7391,10.63 -1.8267,5.349 -4.5905,10.995 -6.142,12.546 -1.5524,1.553 -2.8218,3.934 -2.8218,5.292 0,1.359 -1.3133,5.247 -2.9185,8.64 -1.6052,3.393 -3.2728,7.976 -3.7053,10.183 -0.4325,2.207 -1.9787,5.596 -3.4362,7.53 -1.4575,1.934 -3.039,5.099 -3.5128,7.033 -0.4747,1.933 -1.5331,4.571 -2.3524,5.86 -0.8192,1.289 -3.14,6.563 -5.1574,11.721 -5.3351,13.639 -6.3478,15.823 -7.3332,15.823 -0.4879,0 -0.8861,1.105 -0.8861,2.456 0,1.351 -0.9635,3.857 -2.1396,5.567 -1.1771,1.712 -2.8517,4.958 -3.7211,7.214 -0.8694,2.256 -2.544,5.503 -3.7211,7.213 -1.1762,1.712 -2.1397,3.772 -2.1397,4.579 0,0.806 -1.3186,3.195 -2.9299,5.307 -1.984,2.603 -2.9299,5.339 -2.9299,8.479 0,5.846 -10.9787,28.197 -15.5305,31.617 -1.1278,0.849 -2.0508,2.573 -2.0508,3.831 0,1.26 -1.0523,3.191 -2.3375,4.291 -3.0442,2.607 -5.3728,9.488 -3.758,11.104 2.3173,2.316 34.8304,0.234 36.4171,-2.333 0.7164,-1.158 1.7107,-1.214 4.2802,-0.237 1.8407,0.701 5.7534,1.034 8.693,0.742 2.9405,-0.292 10.6209,0.384 10.6209,0.384 l 11.4279,0.39 c 0,0 20.6765,4.225 23.8903,4.992 1.7652,0.421 3.4249,0.187 3.8785,-0.546 1.17,-1.894 7.4448,-1.559 11.0841,0.591 2.5686,1.518 4.4991,1.676 10.1435,0.831 5.1136,-0.765 7.7516,-0.645 9.901,0.453 1.6113,0.823 6.0101,1.513 6.0101,1.513 l 14.2453,3.05 c 0,0 4.9061,0.684 5.4862,1.042 0.5802,0.359 1.3731,0.136 1.7626,-0.494 0.4606,-0.746 1.7897,-0.736 3.7966,0.03 1.6984,0.645 10.7563,2.493 20.1289,4.107 9.3726,1.613 17.155,3.047 17.2947,3.187 0.8307,0.831 30.4025,-0.623 31.5189,-1.55 z m -639.2081,-1.068 c 0.2145,-0.6 6.1921,-1.399 13.2835,-1.774 13.5341,-0.717 19.1478,-1.508 21.0976,-2.973 0.6444,-0.484 6.295,-1.171 12.5557,-1.527 6.2607,-0.354 12.0625,-1.083 12.8933,-1.621 0.8298,-0.536 3.3553,-1.02 5.611,-1.075 7.2426,-0.176 23.6847,-1.67 24.598,-2.234 0.4862,-0.3 5.8309,-0.843 11.878,-1.205 6.0462,-0.363 14.9494,-1.161 19.7842,-1.772 8.8197,-1.114 14.7367,-1.787 27.2308,-3.097 4.4261,-0.464 7.2893,-0.23 8.3925,0.685 1.156,0.959 1.9128,1.006 2.4429,0.149 0.422,-0.683 2.1827,-1.198 3.9136,-1.142 1.73,0.05 5.2559,-0.435 7.8342,-1.089 2.5783,-0.654 5.4793,-1.122 6.4462,-1.041 3.9022,0.325 11.9623,-1.897 12.5636,-3.464 0.6083,-1.586 -0.2461,-4.004 -3.9153,-11.071 -0.8888,-1.711 -1.6158,-4.266 -1.6158,-5.677 0,-1.56 -0.8975,-2.8 -2.289,-3.164 -4.9237,-1.288 -8.0962,-10.241 -5.4458,-15.366 2.5554,-4.942 1.1559,-13.178 -4.0763,-23.998 -2.529,-5.23 -4.5975,-10.395 -4.5975,-11.478 0,-1.083 -0.8369,-2.664 -1.8592,-3.513 -1.2122,-1.005 -1.6421,-2.628 -1.236,-4.661 0.6971,-3.486 -1.9286,-8.148 -4.5905,-8.148 -0.9564,0 -1.6913,-1.109 -1.6913,-2.553 0,-1.405 -0.4975,-4.174 -1.105,-6.154 -0.6083,-1.979 -2.0095,-7.292 -3.1154,-11.804 -1.105,-4.513 -2.9809,-10.043 -4.1685,-12.29 -1.1876,-2.246 -2.1599,-4.54 -2.1599,-5.097 0,-0.556 -0.7489,-2.674 -1.664,-4.706 -0.916,-2.031 -2.9686,-7.948 -4.5615,-13.149 -3.4108,-11.13 -7.4765,-20.433 -8.9313,-20.433 -0.5679,0 -0.7938,-0.923 -0.5011,-2.05 0.2927,-1.128 -0.2839,-4.36 -1.2817,-7.181 -0.9977,-2.821 -1.8135,-6.644 -1.8135,-8.497 0,-1.853 -0.5274,-3.369 -1.1726,-3.369 -0.6444,0 -1.1885,-0.923 -1.2088,-2.051 -0.017,-1.128 -0.8122,-3.075 -1.7581,-4.327 -0.9467,-1.251 -1.7212,-3.752 -1.7212,-5.557 0,-2.012 -0.9063,-3.848 -2.3445,-4.746 -1.7115,-1.069 -2.3436,-2.733 -2.3436,-6.167 0,-2.587 -1.1269,-8.394 -2.5027,-12.905 -1.3766,-4.51 -2.6134,-9.737 -2.747,-11.616 -0.1345,-1.878 -1.3072,-4.276 -2.6056,-5.328 -2.101,-1.701 -5.3482,-11.035 -7.0545,-20.28 -0.3288,-1.781 -1.0645,-3.526 -1.6351,-3.878 -0.5705,-0.353 -1.0364,-2.374 -1.0364,-4.492 0,-2.363 -0.9063,-4.671 -2.3444,-5.973 -1.2896,-1.167 -2.3445,-3.057 -2.3445,-4.201 0,-1.143 -0.7226,-2.801 -1.6061,-3.685 -2.6301,-2.63 -5.095,-8.197 -5.9759,-13.499 -0.4544,-2.736 -1.308,-5.273 -1.8961,-5.636 -0.589,-0.364 -1.0707,-3.755 -1.0707,-7.535 0,-5.443 -1.8979,-18.021 -2.9686,-19.678 -0.7657,-1.184 -10.9031,4.831 -16.341,9.694 -11.4296,10.223 -31.0899,29.92 -31.0899,31.149 0,0.65 -0.5195,1.819 -1.1542,2.598 -0.6355,0.779 -5.1188,6.124 -9.9633,11.878 -4.8445,5.755 -8.8082,11.165 -8.8082,12.025 0,0.859 -1.4883,3.12 -3.308,5.023 -3.256,3.408 -5.0862,6.597 -9.0983,15.857 -2.0904,4.825 -3.2525,6.789 -12.7201,21.498 -8.9814,13.953 -25.2731,47.918 -25.2731,52.689 0,1.22 -2.4535,7.481 -4.7338,12.082 -0.5125,1.034 -1.2869,4.462 -1.7221,7.619 -0.9625,6.981 -3.874,17.784 -5.655,20.976 -0.7182,1.29 -1.3661,4.718 -1.439,7.619 -0.218,8.683 -2.8623,30.331 -4.1053,33.598 -1.4021,3.69 -3.0767,10.929 -5.241,22.663 -0.8922,4.834 -1.9075,10.109 -2.2556,11.72 -1.1982,5.536 -0.9389,22.861 0.4272,28.59 0.8492,3.562 1.1041,9.998 0.6716,16.995 -0.3824,6.194 -0.2699,11.807 0.2505,12.474 0.5213,0.666 3.4556,3.237 6.5218,5.714 l 5.575,4.503 12.0063,-0.07 c 6.6036,-0.03 15.1709,0.632 19.0388,1.491 8.5533,1.899 14.3226,2.175 14.8466,0.71 z m 363.5332,-13.037 c 6.8655,0.617 8.4785,0.381 11.3847,-1.66 1.8628,-1.308 3.7097,-3.822 4.1053,-5.587 0.3947,-1.766 1.2377,-3.531 1.8724,-3.923 0.6347,-0.393 1.6517,-1.849 2.2592,-3.237 0.6083,-1.388 3.4978,-5.689 6.4224,-9.556 2.9238,-3.868 6.2177,-8.522 7.32,-10.343 1.1015,-1.82 2.9264,-4.406 4.0543,-5.746 1.1278,-1.341 2.0508,-3.369 2.0508,-4.507 0,-1.138 0.727,-3.563 1.6149,-5.388 3.612,-7.422 5.3746,-11.684 6.0787,-14.698 0.4079,-1.747 1.4469,-3.76 2.3093,-4.476 0.8624,-0.716 1.9058,-2.841 2.319,-4.723 0.4131,-1.882 1.2386,-3.723 1.8337,-4.091 0.5951,-0.368 1.0821,-1.839 1.0821,-3.269 0,-1.43 1.0892,-3.534 2.421,-4.674 1.4074,-1.205 2.2776,-3.164 2.0781,-4.683 -0.1952,-1.495 0.7665,-3.719 2.2513,-5.204 1.4258,-1.425 2.9246,-4.664 3.329,-7.196 0.4747,-2.966 1.4584,-4.791 2.7691,-5.134 1.1445,-0.3 2.3532,-2.135 2.7664,-4.198 0.4026,-2.016 1.8012,-5.877 3.1075,-8.58 1.3063,-2.704 2.3752,-5.841 2.3752,-6.97 0,-1.131 0.5275,-2.382 1.1718,-2.78 0.6444,-0.398 1.1718,-2.028 1.1718,-3.623 0,-1.593 0.7912,-3.2 1.7581,-3.572 0.967,-0.371 1.7582,-1.655 1.7582,-2.853 0,-1.197 1.5823,-3.979 3.5162,-6.182 2.268,-2.583 3.5163,-5.278 3.5163,-7.59 0,-1.973 0.5274,-3.912 1.1727,-4.31 0.6443,-0.398 1.1718,-1.51 1.1718,-2.47 0,-0.96 1.0548,-3.929 2.3444,-6.598 1.2887,-2.669 2.3436,-5.264 2.3436,-5.769 0,-0.504 1.3186,-3.799 2.9308,-7.323 1.6113,-3.523 2.9299,-7.758 2.9299,-9.412 0,-1.652 0.4923,-3.004 1.0936,-3.004 0.6013,0 2.8956,-3.297 5.0977,-7.327 2.2021,-4.028 5.4019,-9.858 7.1108,-12.954 1.7089,-3.096 3.1075,-6.341 3.1075,-7.21 0,-0.868 2.1097,-5.705 4.688,-10.747 2.5783,-5.042 4.6881,-10.156 4.6881,-11.363 0,-1.208 1.0593,-3.683 2.3541,-5.501 1.2949,-1.818 2.6961,-5.064 3.1145,-7.214 0.4185,-2.149 1.0734,-4.172 1.4558,-4.493 1.6043,-1.354 4.797,-8.15 4.797,-10.213 0,-1.228 0.7745,-3.256 1.7204,-4.508 0.9467,-1.251 1.7379,-3.198 1.7581,-4.326 0.018,-1.128 0.5178,-2.051 1.105,-2.051 1.2738,0 5.9653,-9.356 5.9653,-11.896 0,-0.978 0.3613,-2.14 0.8026,-2.582 1.4056,-1.405 3.8494,-9.433 3.8679,-12.704 0.01,-1.735 0.545,-3.48 1.1894,-3.879 0.6452,-0.398 1.1727,-1.722 1.1727,-2.94 0,-1.22 0.8931,-2.718 1.984,-3.328 1.323,-0.741 2.0245,-2.712 2.1054,-5.914 0.061,-2.642 0.7551,-5.439 1.5313,-6.215 0.7762,-0.776 1.4118,-3.087 1.4118,-5.136 0,-2.048 0.7911,-4.38 1.7581,-5.182 0.967,-0.803 1.7581,-2.978 1.7581,-4.833 0,-1.855 1.0549,-4.428 2.3436,-5.716 1.2896,-1.29 2.3445,-3.102 2.3445,-4.026 0,-3.212 -2.2952,-7.696 -3.9382,-7.696 -0.909,0 -2.5168,-1.318 -3.5725,-2.93 -1.5674,-2.392 -2.8684,-2.93 -7.0897,-2.93 -4.7681,0 -5.1979,-0.25 -5.5399,-3.223 -0.2769,-2.407 -1.1058,-3.327 -3.2701,-3.632 -1.5937,-0.225 -4.4032,-1.675 -6.2431,-3.223 -1.8399,-1.548 -4.3936,-2.815 -5.6762,-2.815 -1.2825,0 -3.3,-0.518 -4.4841,-1.152 -1.1841,-0.634 -7.6988,-1.4 -14.4782,-1.701 -9.8824,-0.441 -12.6067,-0.21 -13.7486,1.166 -1.1313,1.365 -1.7757,1.423 -3.1426,0.289 -0.9459,-0.785 -3.3299,-1.304 -5.2973,-1.155 -1.9673,0.151 -5.4748,-0.366 -7.7946,-1.148 -2.3199,-0.781 -5.4889,-1.455 -7.0431,-1.497 -2.072,-0.05 -3.1664,-1.046 -4.1026,-3.711 -0.7024,-2 -2.0904,-4.839 -3.0864,-6.309 -2.6082,-3.854 -6.5745,-2.217 -9.4421,3.897 -3.656,7.797 -6.1033,11.559 -9.6038,14.767 -1.8012,1.65 -5.2796,4.978 -7.7305,7.396 -2.4499,2.417 -5.2357,4.395 -6.1903,4.395 -0.9547,0 -2.901,1.241 -4.3259,2.758 -1.4241,1.516 -4.7751,3.411 -7.4448,4.211 -2.6706,0.8 -5.9856,2.195 -7.3666,3.101 -1.3819,0.905 -4.0569,1.82 -5.9451,2.034 -1.8882,0.213 -4.2248,0.687 -5.1918,1.054 -0.9669,0.366 -7.5599,1.871 -14.6514,3.344 -7.0905,1.473 -13.2659,3.237 -13.7231,3.92 -1.1928,1.784 -33.4967,4.371 -34.491,2.762 -0.3112,-0.502 -3.9285,-0.914 -8.039,-0.914 -4.1097,0 -8.7423,-0.483 -10.2948,-1.073 -1.5524,-0.59 -5.1469,-1.338 -7.988,-1.662 -2.8412,-0.323 -7.3815,-1.686 -10.0908,-3.029 -2.7084,-1.342 -5.3456,-2.441 -5.8599,-2.442 -0.5151,0 -2.4684,-1.319 -4.3417,-2.931 -1.8724,-1.61 -3.8688,-2.928 -4.4349,-2.928 -0.567,0 -5.3148,-4.087 -10.5514,-9.084 -14.1573,-13.506 -23.4473,-21.39 -25.2037,-21.39 -0.6004,0 -2.6398,-1.619 -4.5333,-3.596 -2.3515,-2.456 -4.26,-3.44 -6.0216,-3.104 -1.9234,0.367 -2.6671,-0.133 -2.93,-1.971 -0.2171,-1.523 -1.359,-2.607 -2.9888,-2.839 -2.3524,-0.334 -2.6372,0.125 -2.6372,4.252 0,5.717 -1.2342,6.771 -11.3109,9.652 -4.4094,1.261 -8.8109,3.284 -9.7814,4.494 -1.214,1.515 -3.889,2.404 -8.584,2.854 -3.751,0.36 -7.4431,1.141 -8.2044,1.737 -0.7612,0.596 -3.1778,1.424 -5.3702,1.841 -2.1924,0.416 -6.1482,1.763 -8.7906,2.992 -2.6425,1.23 -7.9696,3.424 -11.8375,4.875 -3.8679,1.45 -7.56,3.018 -8.2044,3.483 -0.6443,0.465 -2.922,1.219 -5.0607,1.677 -2.1388,0.457 -4.173,1.574 -4.5202,2.479 -0.3481,0.906 -1.3731,1.648 -2.2785,1.648 -0.9055,0 -3.9989,1.187 -6.8752,2.637 -5.9987,3.025 -6.3556,4.535 -2.8781,12.17 1.6588,3.64 2.3876,7.571 2.3261,12.537 -0.1565,12.518 1.2104,19.844 5.3332,28.589 2.1951,4.656 3.991,9.014 3.991,9.686 0,0.672 0.4624,2.138 1.0285,3.257 3.431,6.786 5.1355,12.092 5.4854,17.079 0.2189,3.117 0.8878,6.282 1.4865,7.033 0.5995,0.75 1.49,2.684 1.9796,4.295 0.4905,1.612 1.8733,4.189 3.0741,5.725 1.2421,1.591 2.1827,4.686 2.1827,7.183 0,2.469 0.7683,5.024 1.7582,5.846 0.9916,0.823 1.7581,3.377 1.7581,5.86 0,2.482 0.7666,5.038 1.7581,5.86 0.967,0.803 1.7582,2.485 1.7582,3.737 0,1.253 0.5626,3.328 1.25,4.613 0.6874,1.284 1.4355,4.617 1.6623,7.405 0.2277,2.788 0.9134,6.054 1.5234,7.258 1.091,2.149 3.6736,9.261 4.2002,11.564 0.1468,0.645 0.8545,2.237 1.5718,3.538 0.7182,1.301 1.6737,4.466 2.1247,7.032 0.4509,2.567 1.8161,6.412 3.0345,8.543 1.2175,2.132 2.2144,4.803 2.2144,5.934 0,1.131 1.0549,4.24 2.3444,6.909 1.2888,2.668 2.3436,5.965 2.3436,7.325 0,1.361 1.2307,5.21 2.7348,8.554 1.5041,3.345 3.2939,8.191 3.9769,10.769 0.683,2.579 3.4495,10.754 6.1473,18.168 2.6979,7.413 5.197,14.797 5.5531,16.409 0.3569,1.612 2.8051,7.414 5.4414,12.893 2.6363,5.479 4.9017,10.754 5.0344,11.721 0.1327,0.966 1.6386,5.45 3.3466,9.963 1.708,4.512 3.4002,9.523 3.7606,11.134 0.3596,1.612 1.1877,3.604 1.839,4.427 0.6514,0.823 1.3925,3.917 1.6465,6.876 0.2541,2.959 1.4971,7.407 2.7612,9.885 1.2641,2.477 2.2979,6.199 2.2979,8.269 0,2.07 0.756,4.598 1.6798,5.62 1.396,1.541 2.2997,4.547 2.9124,9.685 0.053,0.444 3.1286,0.567 6.8356,0.272 14.8079,-1.178 16.7023,-1.2 16.7023,-0.197 0,0.573 1.1867,0.947 2.6371,0.829 1.4505,-0.118 2.901,-0.114 3.2236,0 0.3217,0.122 4.4832,0.465 9.2478,0.762 4.7636,0.296 9.5993,1.041 10.7465,1.655 1.323,0.709 2.2276,0.707 2.4737,0 0.3736,-1.08 15.89,1.454 19.7271,3.223 0.967,0.446 6.5051,0.871 12.307,0.946 5.8018,0.07 13.7134,0.528 17.5813,1.01 3.8679,0.482 9.8604,0.842 13.3169,0.8 3.4592,-0.04 7.8228,0.719 9.7049,1.692 1.8803,0.972 3.7985,1.549 4.2635,1.281 0.4641,-0.269 1.8996,-0.1 3.1884,0.38 1.2895,0.477 3.3993,0.499 4.6889,0.04 1.2887,-0.451 5.9433,-0.496 10.344,-0.1 z m -80.1858,-61.076 c -0.6338,-1.183 -1.8961,-2.152 -2.8051,-2.152 -1.5515,0 -3.2639,-2.443 -6.5745,-9.377 -1.977,-4.14 -2.8798,-16.409 -1.2078,-16.409 0.7226,0 1.3133,-0.791 1.3133,-1.758 0,-0.967 0.5274,-1.759 1.1718,-1.759 0.6443,0 1.1718,-0.809 1.1718,-1.799 0,-1.016 2.4253,-2.886 5.568,-4.292 5.6154,-2.515 8.7555,-2.791 9.4737,-0.834 0.2153,0.587 1.3748,1.066 2.5774,1.066 1.2025,0 3.6085,1.318 5.3473,2.93 1.7397,1.611 3.6121,2.929 4.1633,2.929 0.5503,0 1.0004,0.618 1.0004,1.374 0,0.755 0.9045,2.371 2.0095,3.592 2.9326,3.241 2.6064,13.135 -0.6259,19.045 -1.4056,2.569 -2.5554,5.37 -2.5554,6.223 0,0.853 -0.5503,1.212 -1.2237,0.796 -0.6725,-0.417 -1.8592,-0.248 -2.6372,0.372 -0.7771,0.622 -4.4735,1.373 -8.214,1.668 -5.7359,0.454 -6.9815,0.201 -7.9529,-1.615 z m 6.5491,-125.221 c -0.3991,-0.645 -3.0724,-1.173 -5.9416,-1.173 -3.766,0 -5.7746,-0.651 -7.2233,-2.343 -1.1041,-1.29 -2.6574,-2.345 -3.4521,-2.345 -1.3212,0 -2.5036,-4.025 -2.9273,-9.962 -0.4659,-6.54 0.4879,-8.667 6.9437,-15.488 7.6092,-8.04 15.2703,-13.229 19.532,-13.229 4.1149,0 14.3393,6.707 15.8126,10.373 1.6026,3.988 2.4992,14.076 1.316,14.807 -0.4993,0.309 -2.3251,3.46 -4.0587,7.002 -3.4969,7.149 -7.7876,11.185 -11.8858,11.185 -1.4865,0 -3.0293,0.528 -3.4275,1.173 -0.3982,0.644 -1.4531,1.172 -2.3444,1.172 -0.8905,0 -1.9454,-0.528 -2.3436,-1.172 z m 50.9858,-175.309 c 7.4131,-1.65 15.1322,-3.115 17.1532,-3.256 2.0209,-0.139 4.3944,-0.837 5.2744,-1.549 0.8799,-0.712 3.9733,-1.673 6.8743,-2.135 4.6247,-0.736 15.1287,-5.645 19.7508,-9.229 0.8703,-0.675 2.4526,-1.355 3.5163,-1.508 1.0628,-0.155 3.0371,-1.563 4.3883,-3.129 1.3502,-1.566 3.8503,-3.762 5.5565,-4.88 1.7063,-1.118 2.8403,-2.458 2.5186,-2.977 -0.3209,-0.52 0.6505,-2.44 2.1589,-4.267 5.1162,-6.199 8.8153,-12.387 8.2641,-13.823 -0.3015,-0.787 0.2664,-2.108 1.2624,-2.935 0.9968,-0.827 1.8117,-2.029 1.8117,-2.67 0,-0.642 1.5832,-2.97 3.5181,-5.175 4.23,-4.817 8.3229,-12.753 11.0894,-21.502 1.1208,-3.545 3.5628,-9.61 5.4273,-13.478 1.8645,-3.868 4.1457,-10.028 5.0705,-13.689 0.9247,-3.66 2.1968,-7.619 2.8262,-8.796 1.3089,-2.446 3.7465,-13.938 4.4296,-20.882 0.2531,-2.579 0.9573,-6.008 1.5647,-7.619 2.4974,-6.628 3.8732,-17.765 3.7651,-30.475 -0.1143,-13.347 -2.5247,-39.298 -4.7743,-51.394 -0.7586,-4.081 -0.7709,-8.352 -0.035,-12.237 0.7516,-3.959 0.734,-6.365 -0.053,-7.151 -0.6513,-0.65 -1.1849,-3.056 -1.1858,-5.345 0,-2.288 -0.8281,-8.116 -1.8399,-12.951 -1.0109,-4.835 -2.0983,-11.955 -2.4157,-15.823 -0.3173,-3.868 -1.1436,-8.188 -1.8363,-9.6 -0.6927,-1.411 -0.945,-4.142 -0.56,-6.067 0.3991,-1.994 0.018,-4.923 -0.8896,-6.809 -0.8747,-1.821 -2.3691,-10.342 -2.3691,-10.342 l -2.2561,-14.092 -8.4486,-14.666 -19.5802,-11.895 -19.352,-7.959 -16.0338,-3.352 -20.5324,-3.106 -22.4102,1.21 -31.2265,2.083 -38.4741,5.729 -24.77,8.299 -20.2042,9.667 -16.4542,15.775 -2.3181,4.215 -1.9023,5.046 c 0,0 -1.621,5.124 -1.1393,7.692 0.4405,2.348 0.062,5.743 -0.9529,8.432 -2.5633,6.826 -3.5672,18.907 -4.7091,56.661 -0.2831,9.347 -1.3423,22.796 -2.355,29.888 -1.0118,7.091 -1.5894,13.573 -1.2835,14.404 0.3068,0.832 -0.07,2.516 -0.8368,3.744 -1.1182,1.791 -1.0312,2.651 0.4395,4.349 2.7664,3.193 3.3527,7.091 1.3204,8.777 -1.4022,1.164 -1.5956,2.835 -0.9204,7.955 0.4703,3.566 1.0557,10.966 1.3001,16.445 0.2453,5.48 0.9775,11.492 1.6272,13.361 0.6496,1.869 1.1814,6.845 1.1814,11.057 0,7.173 2.7453,20.383 4.7962,23.081 0.5028,0.66 1.279,4.089 1.7265,7.618 0.4474,3.53 1.4645,7.208 2.2609,8.175 0.7965,0.967 1.7617,3.809 2.145,6.316 0.3832,2.506 1.9568,6.462 3.4951,8.79 3.7651,5.698 14.8782,26.086 14.8782,27.296 0,0.531 0.6998,0.966 1.5542,0.966 0.8545,0 2.7928,1.319 4.3065,2.93 1.5138,1.612 3.4337,2.93 4.2653,2.93 0.8324,0 2.0324,0.971 2.6671,2.157 1.9541,3.651 7.9801,9.565 9.747,9.565 1.6272,0 11.6916,8.592 21.3455,18.223 10.0161,9.992 20.1245,13.694 42.8492,15.692 16.9554,1.49 20.0963,1.327 33.9908,-1.765 z"
         id="path9996-4-9-1"
         sodipodi:nodetypes="cssssscsssssssssssssssssssssssssssssssssssssssssssssssssssssssccccccccccccccssssssssssssssssssssssssssssssssssssssssssssssssssssssssssssssssssscccccsssssssssssssssssssssssssssssssssssssssssssssssscsscccsscssssssssssssssssssssssssssssssssssssssssssssssssssssssssssssssssssssssssssssccsssssccsssssccsssssssssssssssssssssssssssssssssssssssssssssssssssssssssssssssssssssssssssccssssssssssssssssssssssssssssssssssssssssssssssssssssssssscsssssssssssssssssssssssssssssssssssssssssssssssssssssssssssssssssssssssssssssssssssssssssssssssssssssssssssssssssssssssssssssssssssssssssssssssssssssssssssssssssssssssssssssssssssccccccccccccccccssssssssssssssssssssssssss" /><path
         style="fill:#000000;fill-opacity:1;stroke:none;stroke-width:13.0761;stroke-linecap:square;stroke-linejoin:round;stroke-dasharray:none"
         d="m -804.78992,26601.555 c 1.41074,3.215 2.30757,5.657 3.82349,8.741 1.08273,2.537 5.18769,6.954 7.26754,10 3.36689,2.722 2.92921,3.98 4.8317,6.012 1.94435,1.881 4.68102,4.364 7.86204,6.254 2.68786,1.379 6.64336,3.354 10.83657,4.414 4.06679,1.029 9.1786,1.877 14.37447,1.718 4.77891,-0.479 8.72518,-2.267 12.93589,-3.49 3.69667,-2.123 9.10439,-2.42 12.78922,-4.173 4.33622,-1.29 6.62556,-3.479 9.51355,-5.445 3.09118,-2.094 6.32302,-4.077 8.77242,-6.361 2.92126,-2.022 4.59329,-4.616 6.34534,-6.93 1.83804,-2.32 3.27636,-4.64 4.40062,-6.785 1.10895,-2.116 1.21486,-5.844 1.80192,-7.525 1.35997,-3.894 1.9526,-9.332 3.0555,-13.443 0.53684,-5.002 3.03341,-7.366 4.3988,-9.863 1.47338,-2.694 2.42095,-4.267 4.46088,-4.158 2.60166,0.14 4.65482,2.129 6.3178,5.044 1.72775,2.956 3.12867,6.87 4.42586,10.887 1.30414,4.038 4.99353,8.269 6.56395,11.796 0.77828,1.747 1.58433,1.807 3.02693,4.065 1.35708,0.578 3.99224,5.656 6.53671,8.599 2.227,2.442 4.38787,4.755 6.91535,6.922 2.68551,2.311 6.97134,4.893 10.07492,6.579 4.48213,2.231 5.80465,2.549 8.87842,3.219 3.66869,0.801 7.64907,1.002 12.36596,0.367 4.37908,-0.59 8.53771,-1.874 12.7513,-2.997 4.02836,-1.549 7.99269,-2.933 11.85428,-4.553 3.53834,-2.054 7.36666,-4.504 10.68975,-6.575 3.03518,-3.025 5.88081,-4.248 8.38408,-6.515 2.5087,-2.623 4.90901,-5.079 6.6224,-7.982 1.73732,-2.944 2.63549,-7.627 3.02384,-11.364 0.45154,-4.345 3.58205,-7.387 5.38837,-10.446 3.36575,-2.395 4.02221,-5.076 5.56895,-7.37 2.22464,-2.406 3.81917,-4.71 3.58038,-7.34 0.51047,-1.752 -0.15441,-4.617 -3.3877,-7.449 -3.08062,-2.699 -9.86343,-6.814 -16.40794,-10.179 -0.73155,-0.376 -1.35854,-0.427 -2.94443,-0.705 -1.15802,-0.03 -4.38988,-2.674 -6.99423,-2.867 -2.71389,-2.293 -4.57543,-0.127 -7.36943,-0.208 -2.92731,0.07 -5.37602,-0.1 -9.09063,-0.09 -2.82095,0.04 -8.68794,-0.435 -13.26421,-0.327 -4.44399,-0.404 -7.48729,0.775 -11.89944,0.947 -4.01352,0.731 -10.08921,0.08 -15.2485,0.35 -5.10106,-0.09 -9.86152,0.417 -14.89996,0.733 -5.21636,0.205 -10.97322,-1.147 -16.23173,-0.762 -5.79963,-1.445 -10.75261,0.01 -15.94727,0.467 -5.69555,-0.318 -11.07482,-0.539 -16.31344,0 -5.79164,-0.958 -10.67752,0 -15.81577,0.641 -5.47013,-0.478 -10.55763,-0.829 -15.61144,-0.07 -5.31224,-1.414 -10.29687,0.63 -15.18057,1.558 -4.92371,-0.09 -9.52864,1.995 -14.01097,3.063 -4.35933,1.107 -6.25419,2.642 -10.20154,3.772 -2.18493,1.787 -7.93484,2.793 -11.94282,4.077 -2.58129,1.316 -7.16331,-0.4 -10.19792,0.657 -3.30636,-1.579 -5.79377,2.367 -8.01432,3.798 -1.8743,1.072 -2.76247,2.798 -3.88502,3.864 -1.1059,1.05 -2.47527,1.449 -2.83897,2.033 -5.23125,8.41 -6.16696,15.195 -6.46233,20.096 0.95216,4.857 0.9307,7.685 2.70132,9.937 2.01571,2.549 6.03472,4.192 8.2893,4.913 2.29259,0.734 2.73076,0.448 2.73076,0.448 z"
         id="path10712-8"
         sodipodi:nodetypes="cczssssssc"
         inkscape:path-effect="#path-effect9358-5"
         inkscape:original-d="m -804.737,26601.621 c 8.4644,19.288 16.8886,37.779 48.4767,36.812 33.4524,-3.352 53.5775,-27.004 57.6576,-38.687 4.0799,-11.683 5.3382,-29.587 11.2337,-29.272 7.805,0.42 10.0995,17.085 14.7982,27.637 4.6697,10.485 24.0867,33.549 50.3614,30.012 26.2745,-3.539 51.3712,-16.905 53.6286,-38.631 2.2577,-21.722 30.0369,-25.3 -4.9907,-43.309 -15.3625,-7.899 -229.2568,5.38 -238.3948,20.07 -20.925,33.639 7.2293,35.368 7.2293,35.368 z" /><path
         style="fill:none;fill-opacity:1;stroke:#000000;stroke-width:12;stroke-linecap:square;stroke-linejoin:round;stroke-dasharray:none"
         d="m -809.9461,26909.987 c -0.88043,5.993 -2.28255,10.883 -2.66293,16.911 -1.34587,5.027 2.29741,13.254 1.81662,18.788 2.43999,5.824 -2.64707,8.608 -4.79093,11.732 -1.98428,2.892 -4.45593,5.011 -7.24188,5.348 -2.9869,0.36 -5.65104,-1.27 -7.93007,-4.285 -2.32306,-3.064 -3.42935,-7.004 -5.06943,-12.384 -0.89403,-5.047 -4.15486,-13.541 -5.45757,-20.59 -1.26644,-6.854 0.10875,-12.086 -0.5173,-19.263 -0.23054,-2.643 -0.47755,-5.939 -0.75603,-9.791 -0.26811,-3.847 0.21024,-7.823 -0.10444,-12.662 0.46538,-4.535 -0.56489,-10.367 -0.93131,-16.145 -0.24806,-5.568 -0.59177,-11.521 -0.97446,-17.66 -0.24493,-6.116 -1.8306,-15.406 -2.22751,-21.841 -1.39326,-8.435 -1.5324,-12.757 -1.83293,-18.224 -1.20289,-7.739 0.73172,-11.805 0.4955,-17.527 1.07163,-6.396 -0.48408,-12.652 -0.78818,-18.644 -0.22445,-5.955 -0.51154,-11.716 -0.81311,-17.132 -0.18443,-5.302 -0.36365,-10.28 -0.62167,-14.915 -0.2501,-4.492 3.56652,-8.521 3.4729,-12.122 -0.11189,-4.304 -0.84321,-12.538 -1.111,-17.789 -0.73555,-7.655 -0.12499,-8.591 -0.3797,-13.257 0.014,-5.812 -0.52778,-12.111 -0.83757,-18.515 -0.16488,-6.239 1.94511,-11.859 1.75109,-18.384 2.32936,-5.759 -0.48393,-14.003 -0.62198,-20.728 -0.18464,-6.545 -0.18534,-12.449 -0.0771,-18.255 0.10141,-6.062 0.0677,-12.142 0.58585,-17.327 0.20174,-5.86 0.82445,-10.475 1.98517,-14.565 1.21019,-4.264 3.08332,-9.006 5.01559,-12.237 1.43276,-4.425 3.09216,-8.812 5.49731,-12.531 2.11665,-4.044 5.17718,-7.189 8.45062,-10.25 3.21221,-3.188 6.50771,-8.32 10.5899,-10.8 3.44517,-4.869 11.00786,-3.637 15.61273,-5.462 6.87752,-0.776 9.10629,-2.531 13.60901,-3.782 5.78688,-0.889 11.69525,-1.764 17.22083,-2.777 6.60808,-0.12 13.56455,-1.551 19.20594,-2.252 7.93977,-0.38 9.65257,-2.803 14.95054,-3.254 5.56986,-2.145 14.11351,-0.299 20.91193,-0.302 7.10811,0.456 11.43316,-3.501 17.61341,-3.404 6.24149,0.1 13.70066,4.059 20.40242,4.253 7.19293,0.03 16.01063,0 22.63405,-0.131 7.87221,-0.06 10.97075,-1.116 16.44377,-1.262 5.65016,-1.003 13.6874,0.605 19.45053,0.591 6.42886,0.894 9.51436,-0.51 14.16001,-0.317 4.80861,-0.337 10.13289,0.445 14.89986,1.142 4.52723,0.496 8.08089,-1.371 12.34074,-0.04 3.64268,-1.548 8.67128,2.567 13.10826,5.594 2.96575,1.217 6.51988,3.318 10.04885,6.921 3.29585,3.366 6.96282,7.606 9.69428,11.086 3.417,3.114 6.13955,3.336 8.64428,7.804 2.78344,1.657 5.31194,9.874 7.27787,16.74 1.65072,4.306 3.20548,12.608 4.35926,19.414 1.1412,6.231 5.83739,13.318 6.56068,19.743 4.64811,7.013 2.67104,12.722 2.86723,18.807 1.81721,6.754 -0.37985,8.331 -0.57916,14.292 -0.66056,2.348 -0.48476,14.279 -0.25294,21.215 0.18735,5.605 1.62132,11.576 2.47368,15.305 0.86162,3.77 1.56961,8.139 2.39243,13.23 0.69231,4.983 3.67722,11.458 4.45712,17.565 2.78045,6.419 1.45412,11.986 2.07068,18.324 0.68027,6.657 3.39199,13.977 3.90687,20.832 2.67036,7.185 0.77372,13.263 1.02702,19.779 0.17474,6.654 -0.309,12.164 -0.22562,18.394 -0.63887,5.32 1.37424,13.329 1.4671,19.029 1.27095,5.696 0.22961,10.001 -0.003,13.856 -0.24249,4.015 -0.12065,7.563 -0.12065,9.959 0,3.08 1.18953,8.548 1.10285,14.114 1.13649,6.256 2.33591,12.487 2.07235,19.211 2.31639,7.758 -1.59622,11.838 -2.24219,19.184 -1.58054,5.847 -1.32753,16.903 -2.36639,24.77 -0.64432,7.232 -2.67758,12.28 -3.89023,17.842 -1.94146,4.565 0.25772,11.312 -1.10024,14.77 -1.23871,3.154 -2.65962,5.607 -4.24494,5.339 -1.97601,-0.334 -3.74766,-4.102 -5.33462,-7.66 -1.4608,-4.814 -3.04892,-7.981 -4.21208,-12.978 -1.56239,-5.85 -0.79085,-11.601 -1.72246,-18.065 0.61805,-6.516 -2.11651,-13.909 -3.0116,-20.433 -1.04384,-6.623 -1.71607,-15.536 -2.30424,-20.481 -0.59841,-5.031 -0.75988,-5.595 -0.9967,-8.273"
         id="path10816-7"
         sodipodi:nodetypes="czzzccczzzc"
         inkscape:path-effect="#path-effect9364-3"
         inkscape:original-d="m -809.9461,26909.987 c -3.5217,23.972 -0.3052,52.072 -12.2529,53.515 -11.9476,1.443 -18.5394,-28.771 -21.0755,-57.843 -2.536,-29.071 -6.8634,-137.571 -7.8704,-176.306 -1.007,-38.736 -5.9631,-121.059 10.7911,-149.074 15.7604,-48.678 93.2906,-54.615 163.5653,-52.582 64.7364,0.305 106.1492,-8.998 133.4097,25.736 27.336,24.916 22.3609,96.81 30.1154,130.737 7.7545,33.927 15.1153,129.507 15.1153,151.068 0,21.56 -0.7446,116.757 -12.6007,114.755 -11.8561,-2.002 -13.6779,-71.204 -15.0695,-86.942" /><path
         style="fill:#000000;fill-opacity:1;stroke:none;stroke-width:40;stroke-linecap:round;stroke-linejoin:round;stroke-dasharray:none"
         d="m -804.07733,26570.383 c -0.63069,0.284 -1.47766,1.137 -2.46237,1.626 -1.34364,-0.06 -0.92118,1.277 -2.14365,1.92 -0.31292,0.999 -3.39911,1.219 -5.15458,2.15 -1.71358,0.334 -3.18886,1.274 -4.71971,2.104 -1.78034,0.535 -3.10351,1.664 -4.64327,2.527 -1.58487,0.853 -2.8036,1.931 -4.3007,2.792 -1.24014,1.065 -3.42581,1.16 -4.84157,1.967 -1.73425,0.185 -2.03501,1.776 -3.15282,2.484 -0.62286,1.002 -2.33445,1.442 -3.27581,1.985 -0.82814,0.483 -1.20612,1.032 -1.68369,1.289 -0.46545,0.251 -1.00227,0.227 -1.00227,0.227 l -0.60317,4.045 -1.08565,2.867 -1.10902,4.436 -0.0957,4.729 -0.59316,4.115 -0.57592,4.051 -0.53343,4.083 1.05084,4.081 -1.51987,2.917 -1.09002,5.206 -1.0266,3.956 4.6837,-1.359 2.97832,-1.649 3.60572,-1.879 3.49615,-2.079 3.44238,-2.071 3.64998,-2.483 3.40761,-1.732 3.73305,-1.73 3.53288,-2.653 4.74202,-1.106 3.14311,-1.059 4.03814,-1.305 4.42379,-1.638 2.36804,-2.353 4.19097,-1.327 -1.38029,-5.232 -0.55591,-2.303 -0.3373,-3.913 -1.51803,-4.352 -0.50278,-3.038 -1.56533,-4.473 -1.17477,-3.585 -1.58284,-4.897 -1.05062,-3.07 z"
         id="path10889-9"
         inkscape:path-effect="#path-effect9362-5"
         inkscape:original-d="m -803.7189,26571.383 c -6.9376,3.121 -37.7819,20.055 -37.7819,20.055 l -7.1961,44.447 55.1243,-26.551 z" /><path
         style="fill:#000000;fill-opacity:1;stroke:none;stroke-width:40;stroke-linecap:round;stroke-linejoin:round;stroke-dasharray:none"
         d="m -571.4038,26549.25 c 0.65986,0.208 1.2303,1.423 2.26599,1.792 0.78581,-0.13 3.699,1.15 5.22759,1.732 2.17451,0.611 1.81217,0.376 2.92807,0.814 1.35952,0.215 3.11863,1.045 4.89002,1.771 1.47812,0.413 3.48015,1.426 5.24253,2.175 1.63582,0.681 3.61542,1.589 5.21167,2.284 1.78639,0.817 2.52839,0.674 3.86237,1.264 1.25402,0.123 3.73414,1.662 5.08673,2.316 1.57195,0.709 1.83174,0.904 2.53984,1.271 0.88795,0.46 1.86781,0.996 2.32038,1.25 0.47286,0.264 0.43744,0.249 0.43744,0.249 l 1.08555,3.611 0.59879,2.413 1.02775,4.102 1.79937,4.365 0.97545,3.484 1.02042,3.614 1.06599,3.643 2.64645,3.63 0.29531,2.014 0.88885,5.102 0.53456,3.664 1.44145,4.036 -3.70393,-1.409 -3.622,-1.318 -3.78289,-1.526 -3.70325,-1.462 -3.50886,-1.83 -3.55605,-1.209 -3.61219,-1.152 -3.8782,-2.123 -2.22744,-0.581 -4.59097,-1.14 -3.54505,-0.802 -3.20553,-1.152 -5.12637,-1.986 -2.92307,-0.594 -4.47365,-2.448 -3.32125,0.59 1.31309,-3.875 0.17763,-4.177 0.98399,-3.242 0.26096,-4.444 0.36229,-3.783 0.0254,-5.052 0.16205,-3.28 0.31151,-4.422 0.68411,-3.71 z"
         id="path10889-7-2"
         inkscape:path-effect="#path-effect9360-6"
         inkscape:original-d="m -571.3258,26550.713 c 7.2585,2.278 39.8916,15.439 39.8916,15.439 l 12.4104,43.28 -57.8812,-19.834 z" /></g></g></svg>
