<?xml version="1.0" encoding="UTF-8" standalone="no"?>
<!-- Created with Inkscape (http://www.inkscape.org/) -->

<svg
   version="1.1"
   id="svg176"
   width="1331.5366"
   height="846.6637"
   viewBox="0 0 1331.5367 846.6637"
   sodipodi:docname="website for ai.svg"
   xml:space="preserve"
   inkscape:version="1.2.2 (b0a8486541, 2022-12-01)"
   xmlns:inkscape="http://www.inkscape.org/namespaces/inkscape"
   xmlns:sodipodi="http://sodipodi.sourceforge.net/DTD/sodipodi-0.dtd"
   xmlns="http://www.w3.org/2000/svg"
   xmlns:svg="http://www.w3.org/2000/svg"><defs
     id="defs180"><linearGradient
       id="linearGradient1486"
       inkscape:swatch="solid"><stop
         style="stop-color:#000000;stop-opacity:1;"
         offset="0"
         id="stop1484" /></linearGradient></defs><sodipodi:namedview
     id="namedview178"
     pagecolor="#ffffff"
     bordercolor="#000000"
     borderopacity="0.25"
     inkscape:showpageshadow="2"
     inkscape:pageopacity="0.0"
     inkscape:pagecheckerboard="0"
     inkscape:deskcolor="#d1d1d1"
     showgrid="false"
     showguides="false"
     inkscape:zoom="0.0646875"
     inkscape:cx="1437.6812"
     inkscape:cy="1437.6812"
     inkscape:window-width="1920"
     inkscape:window-height="1011"
     inkscape:window-x="0"
     inkscape:window-y="0"
     inkscape:window-maximized="1"
     inkscape:current-layer="g182"><inkscape:grid
       type="xygrid"
       id="grid2722" /></sodipodi:namedview><g
     inkscape:groupmode="layer"
     inkscape:label="Image"
     id="g182"
     transform="translate(-6684.8114,-1171.416)"><g
       id="g55208"
       inkscape:export-filename="step2-3.svg"
       inkscape:export-xdpi="246.60997"
       inkscape:export-ydpi="246.60997"
       transform="translate(1398.5855,64.391125)"><rect
         style="opacity:0;fill:#000000;fill-opacity:1;stroke:none;stroke-width:4;stroke-linecap:round;stroke-linejoin:bevel;stroke-dasharray:none"
         id="rect26104-1-0"
         width="1331.5364"
         height="846.6637"
         x="5286.2261"
         y="1107.0249" /><path
         style="fill:none;fill-opacity:1;stroke:#000000;stroke-width:6.80315;stroke-linecap:round;stroke-linejoin:round;stroke-dasharray:none;stroke-opacity:1"
         d="m 5832.8271,1613.8329 c 5.1374,0.8363 9.718,0.8216 14.4994,1.03 4.4743,-0.3822 10.8373,0.3075 15.2375,-0.3413 5.1858,-0.3325 7.242,-2.0306 10.5535,-3.5127 3.4353,-2.1408 6.8353,-4.2501 9.7771,-7.2483 2.6555,-3.308 5.4807,-6.6541 7.5705,-11.1956 2.0764,-4.5126 4.0375,-9.6971 5.0332,-16.2229"
         id="path7893-0-5-0-9-4-3-3-5-6-6-9-9-4-2-4-7-9-5-9-9-7-0-51-77-0-2"
         sodipodi:nodetypes="cc" /><path
         style="fill:none;fill-opacity:1;stroke:#000000;stroke-width:6.80315;stroke-linecap:round;stroke-linejoin:round;stroke-dasharray:none;stroke-opacity:1"
         d="m 5936.8677,1536.4513 c 5.386,3.7957 10.4206,6.1649 15.865,8.3814 5.1909,1.6861 12.4771,4.0233 18.0151,4.8253 6.1895,0.9579 9.4695,0.406 14.205,0.078 4.9407,-0.8307 10.0788,-1.6387 14.9873,-3.0982 4.613,-1.7751 9.561,-3.4246 14.0013,-5.784 4.3942,-2.3726 8.9207,-4.9118 12.7676,-7.9972 4.186,-2.8947 6.952,-7.1602 10.0673,-10.8456 2.6901,-4.3065 6.486,-7.2445 8.8096,-11.236 3.0324,-3.8447 4.167,-8.4198 5.406,-12.8608 1.2245,-4.3882 2.2658,-8.7049 2.5163,-13.2244"
         id="path7895-3-0-33-2-0-8-3-6-4-0-4-4-4-9-5-9-3-1-6-8-4-6-7-5-6-8-2"
         sodipodi:nodetypes="cc" /><path
         style="fill:none;fill-opacity:1;stroke:#000000;stroke-width:6.80315;stroke-linecap:round;stroke-linejoin:round;stroke-dasharray:none;stroke-opacity:1"
         d="m 6026.709,1532.8562 c 4.9985,0.9258 10.3675,0.7277 15.2473,0.6392 5.1163,-0.6805 8.0672,-0.3742 12.5944,-1.319 3.8126,-0.8148 10.3413,-3.1059 15.1308,-5.1486 4.5407,-2.2742 8.6151,-4.2969 12.5557,-6.788 4.2407,-2.8299 7.7883,-5.3669 11.3892,-8.4884 3.7327,-3.242 6.8698,-6.5483 10.1245,-10.3349 3.0059,-3.7023 6.8383,-8.7149 9.6366,-13.1252 3.0114,-4.7618 4.315,-8.1687 6.3773,-12.6436 1.5924,-4.5992 4.1419,-9.9034 5.6816,-15.1057 1.4911,-5.0509 2.2982,-10.0603 3.0604,-15.3572 0.4269,-5.1744 1.1113,-10.8213 1.0705,-16.3575 -0.087,-5.4485 -0.5552,-10.9863 -1.4654,-16.5317 -0.9706,-5.5405 -1.8118,-12.3965 -3.6692,-17.9361 -1.3312,-6.6296 -3.7109,-11.2993 -6.528,-16.377 -2.5992,-6.1383 -7.2226,-10.4014 -11.4655,-15.3884 -4.2243,-4.965 -8.4809,-9.8562 -13.7838,-14.9244"
         id="path7895-3-0-33-2-0-8-3-6-4-0-6-2-3-8-3-9-9-8-9-6-1-3-8-0-1-7-27-9-2"
         sodipodi:nodetypes="cc" /><path
         style="fill:none;fill-opacity:1;stroke:#000000;stroke-width:6.80315;stroke-linecap:round;stroke-linejoin:round;stroke-dasharray:none;stroke-opacity:1"
         d="m 5635.6818,1503.7335 c -5.0081,2.0425 -10.163,2.3219 -14.5897,2.2102 -4.6249,-0.7015 -6.8668,-0.8537 -10.456,-2.5778 -2.7848,-1.7013 -8.0071,-5.2972 -11.1897,-8.8928 -3.1074,-3.6347 -5.5122,-7.2012 -7.5335,-11.306 -2.3576,-4.5532 -3.7433,-8.897 -4.8884,-13.784 -1.2083,-5.0862 -1.503,-10.1943 -1.5807,-15.6012 0.2615,-5.276 0.012,-11.6778 1.1378,-17.1456 0.6904,-5.9527 3.4697,-10.1927 5.871,-15.0481 3.1083,-4.7237 5.4727,-9.7156 9.214,-14.0105 3.7324,-4.285 8.5378,-7.9402 13.9277,-11.1376"
         id="path7895-3-0-33-2-0-8-3-6-4-0-6-2-3-6-1-6-9-3-8-0-3-3-3-8-3-1-1-9-4"
         sodipodi:nodetypes="cc" /><path
         style="fill:none;fill-opacity:1;stroke:#000000;stroke-width:6.80315;stroke-linecap:round;stroke-linejoin:round;stroke-dasharray:none;stroke-opacity:1"
         d="m 5655.6976,1547.738 c -4.2662,1.6997 -8.9,1.6825 -12.8705,1.2842 -4.1906,-0.9743 -6.0383,-1.3633 -9.1493,-3.3337 -2.2277,-1.9685 -6.9243,-5.8604 -9.3345,-9.8292 -2.4727,-4.0389 -3.9609,-7.9943 -4.646,-12.6026 -0.7245,-4.8722 -0.2664,-10.0156 1.0858,-15.9981"
         id="path7895-3-0-33-2-0-8-3-6-4-0-6-2-3-6-1-6-9-3-8-0-3-3-6-3-4-2-69-5-3-7"
         sodipodi:nodetypes="cc" /></g></g></svg>
