<?xml version="1.0" encoding="UTF-8" standalone="no"?>
<!-- Created with Inkscape (http://www.inkscape.org/) -->

<svg
   version="1.1"
   id="svg176"
   width="1331.5366"
   height="846.66357"
   viewBox="0 0 1331.5367 846.66357"
   sodipodi:docname="website for ai.svg"
   xml:space="preserve"
   inkscape:version="1.2.2 (b0a8486541, 2022-12-01)"
   xmlns:inkscape="http://www.inkscape.org/namespaces/inkscape"
   xmlns:sodipodi="http://sodipodi.sourceforge.net/DTD/sodipodi-0.dtd"
   xmlns="http://www.w3.org/2000/svg"
   xmlns:svg="http://www.w3.org/2000/svg"><defs
     id="defs180"><linearGradient
       id="linearGradient1486"
       inkscape:swatch="solid"><stop
         style="stop-color:#000000;stop-opacity:1;"
         offset="0"
         id="stop1484" /></linearGradient><inkscape:path-effect
       effect="roughen"
       id="path-effect28253-1"
       is_visible="true"
       lpeversion="1.2"
       method="segments"
       max_segment_size="4.01502"
       segments="7"
       displace_x="5;1"
       displace_y="5;1"
       global_randomize="1;1"
       handles="along"
       shift_nodes="true"
       fixed_displacement="false"
       spray_tool_friendly="false" /><inkscape:path-effect
       effect="roughen"
       id="path-effect28251-7"
       is_visible="true"
       lpeversion="1.2"
       method="segments"
       max_segment_size="3.04823"
       segments="8"
       displace_x="5;1"
       displace_y="5;1"
       global_randomize="1;1"
       handles="along"
       shift_nodes="true"
       fixed_displacement="false"
       spray_tool_friendly="false" /></defs><sodipodi:namedview
     id="namedview178"
     pagecolor="#ffffff"
     bordercolor="#000000"
     borderopacity="0.25"
     inkscape:showpageshadow="2"
     inkscape:pageopacity="0.0"
     inkscape:pagecheckerboard="0"
     inkscape:deskcolor="#d1d1d1"
     showgrid="false"
     showguides="false"
     inkscape:zoom="0.053985444"
     inkscape:cx="-4797.5895"
     inkscape:cy="-5093.9657"
     inkscape:window-width="1920"
     inkscape:window-height="1011"
     inkscape:window-x="0"
     inkscape:window-y="0"
     inkscape:window-maximized="1"
     inkscape:current-layer="g182"><inkscape:grid
       type="xygrid"
       id="grid2722" /></sodipodi:namedview><g
     inkscape:groupmode="layer"
     inkscape:label="Image"
     id="g182"
     transform="translate(-4699.0892,3331.3862)"><g
       id="g91377"
       inkscape:export-filename="./step2-1.svg"
       inkscape:export-xdpi="246.60997"
       inkscape:export-ydpi="246.60997"
       transform="translate(2336.9375,-4449.3423)"><rect
         style="opacity:0;fill:#000000;fill-opacity:1;stroke:none;stroke-width:4;stroke-linecap:round;stroke-linejoin:bevel;stroke-dasharray:none"
         id="rect26104-6"
         width="1331.5364"
         height="846.6637"
         x="2362.1519"
         y="1117.9561" /><path
         style="fill:none;fill-opacity:1;stroke:#000000;stroke-width:6.80315;stroke-linecap:round;stroke-linejoin:round;stroke-dasharray:none;stroke-opacity:1"
         d="m 2832.4344,1641.3751 c -7.3289,-6.5159 -13.7709,-13.5587 -18.7274,-19.7048 -5.2035,-6.536 -7.288,-11.3199 -10.2423,-16.4338 -1.9322,-5.2934 -5.9039,-10.975 -7.6756,-15.108 -1.9161,-4.2287 -2.9081,-7.045 -3.5348,-9.1084 -0.6798,-2.2384 -0.6432,-3.1236 -0.6432,-3.1236"
         id="path7891-9-0-1-9-6-7-0-8-1-3-1-6-6-6-8-7-0-6-3-4-9-2-9-3" /><path
         style="fill:none;fill-opacity:1;stroke:#000000;stroke-width:6.80315;stroke-linecap:round;stroke-linejoin:round;stroke-dasharray:none;stroke-opacity:1"
         d="m 2801.4077,1605.2834 c -4.0313,-0.9252 -8.5221,-2.6704 -12.1969,-3.7978 -4.0249,-1.7528 -4.6544,-1.8625 -7.739,-3.0528 -1.9856,-1.2302 -8.1376,-3.7296 -11.6245,-5.4784 -3.1975,-1.9282 -5.7359,-3.1833 -8.1804,-4.6667 -2.8719,-1.8717 -4.7869,-3.054 -6.9524,-4.6376 -2.3294,-1.709 -3.9055,-3.1796 -5.8892,-4.9518 -1.6066,-1.6779 -4.7157,-4.6416 -6.5039,-6.6393 -2.074,-2.3994 -1.7856,-2.957 -3.006,-4.6172 -0.5686,-1.8268 -2.9534,-4.2953 -4.1704,-6.4811 -1.0885,-1.964 -1.5149,-3.7239 -2.3288,-5.7165 -0.3278,-1.8831 -1.5037,-4.2163 -2.0691,-6.3433 -0.463,-1.9963 -0.8465,-4.0277 -1.117,-6.0394 -0.1776,-2.0065 -1.1254,-5.5625 -1.1325,-7.5534 -0.7204,-3.0884 -0.5064,-3.9667 -0.3224,-5.4289 -0.3586,-2.7741 1.5559,-3.5656 2.1276,-5.2339 1.5483,-1.8328 1.4323,-3.6053 2.2998,-5.3384 0.9515,-1.7494 1.9952,-3.5017 3.1952,-5.261 1.1112,-1.6292 2.465,-3.2197 3.9263,-4.8903"
         id="path7893-9-68-5-2-9-8-2-5-7-1-1-2-1-2-5-7-9-2-1-43-9-2-2-1"
         sodipodi:nodetypes="cc" /><path
         style="fill:none;fill-opacity:1;stroke:#000000;stroke-width:6.80315;stroke-linecap:round;stroke-linejoin:round;stroke-dasharray:none;stroke-opacity:1"
         d="m 2872.2561,1642.0094 c 7.3406,-1.6837 13.1353,-4.4092 18.4272,-6.9074 4.8598,-3.084 10.9293,-5.0604 14.6386,-8.1457 4.8601,-2.7429 6.1125,-6.7206 8.4357,-10.1926 2.1438,-4.1249 4.1413,-7.7507 5.8677,-11.6683 1.7362,-3.9398 3.4798,-7.7317 4.9703,-12.0025"
         id="path7891-1-0-9-4-5-3-5-1-0-5-8-5-5-3-5-9-6-4-9-8-0-6-4-1-9"
         sodipodi:nodetypes="cc" /><path
         style="fill:none;fill-opacity:1;stroke:#000000;stroke-width:6.80315;stroke-linecap:round;stroke-linejoin:round;stroke-dasharray:none;stroke-opacity:1"
         d="m 2901.3633,1574.7065 c 3.5415,3.6409 6.9544,6.0169 10.9908,8.3617 3.7815,1.8414 9.8871,4.4473 14.4611,5.5894 5.2244,1.2332 7.7109,1.0401 11.8179,1.122 4.3415,-0.3747 9.0833,-0.6908 13.7865,-1.6622 4.396,-1.2865 9.3131,-2.4525 13.8991,-4.3714 4.5249,-1.9283 9.3567,-4.0634 13.6751,-6.8221 4.6406,-2.5576 8.0404,-6.5537 11.9534,-10.0795 3.514,-4.1769 8.2638,-7.1441 11.6774,-11.3278 4.0869,-3.9619 6.554,-8.7653 9.2704,-13.6088 2.7569,-4.9042 5.4472,-9.9255 7.3349,-15.3929 2.2275,-5.2618 3.2646,-11.1938 4.0815,-17.1676 0.8034,-5.8752 1.1185,-11.969 0.947,-18.1746"
         id="path7895-3-0-33-2-0-8-3-6-4-5-6-8-49-1-4-5-1-4-0-6-8-2-7-97-0"
         sodipodi:nodetypes="cc" /><path
         style="fill:#000000;stroke-width:0.221348"
         d="m 2809.0142,1799.8551 c 0.1877,-0.4096 0.6718,-1.1322 1.0864,-1.6052 0.4167,-0.4733 0.7563,-1.1007 0.7563,-1.3935 0,-0.315 0.1313,-0.4916 0.3002,-0.4324 0.3959,0.1332 1.1503,-0.8471 1.1503,-1.4898 0,-0.2786 0.1125,-0.5063 0.2551,-0.5063 0.1314,0 0.4147,-0.3839 0.6098,-0.8531 0.199,-0.4691 0.7844,-1.2386 1.306,-1.7103 0.5423,-0.489 1.1316,-1.3437 1.3736,-1.9908 0.2345,-0.6239 0.7825,-1.5158 1.2179,-1.9818 0.4353,-0.4663 1.4504,-1.5361 2.2535,-2.3775 0.942,-0.989 1.458,-1.7337 1.458,-2.1044 0,-0.315 0.1126,-0.6397 0.244,-0.7217 0.1313,-0.084 0.242,-0.3797 0.242,-0.6576 0,-0.2788 0.4109,-0.8986 0.9157,-1.3771 1.0452,-0.9914 1.8896,-2.2076 1.7789,-2.5653 -0.037,-0.1332 0,-0.1576 0.1125,-0.057 0.2872,0.2866 1.5499,-1.0577 1.5499,-1.65 0,-0.2908 0.2253,-0.8138 0.503,-1.1652 0.274,-0.3515 0.4203,-0.6376 0.3265,-0.6376 -0.094,0 0,-0.1899 0.1876,-0.4235 0.2026,-0.2343 0.4278,-0.6051 0.5066,-0.8268 0.094,-0.2544 0.623,-0.5037 1.4486,-0.6747 1.3718,-0.2866 4.7925,-0.1856 5.3197,0.1539 0.1689,0.1094 1.231,0.218 2.3625,0.2422 1.1314,0.042 2.3304,0.069 2.6645,0.1017 0.5741,0.057 1.2834,-0.042 3.5089,-0.3838 0.5329,-0.084 1.4918,-0.3876 2.1297,-0.6696 1.124,-0.4981 1.1822,-0.5009 1.8897,-0.084 0.4165,0.2465 0.9025,0.3595 1.1389,0.2627 0.653,-0.2666 3.3682,-0.3678 3.9555,-0.1539 0.3472,0.1295 0.7844,0.073 1.2384,-0.1539 0.4316,-0.214 1.0359,-0.2987 1.5481,-0.214 0.4635,0.077 1.7339,0.042 2.8241,-0.084 1.0901,-0.1219 2.6888,-0.2384 3.5558,-0.2626 0.8651,-0.042 2.0096,-0.1899 2.5425,-0.3675 0.5311,-0.182 1.4224,-0.3313 1.9815,-0.3313 0.5555,0 1.2648,-0.095 1.5725,-0.2139 0.745,-0.2827 3.1411,-0.531 6.2054,-0.6504 1.3716,-0.057 2.6007,-0.1614 2.7264,-0.2424 0.1314,-0.077 1.0433,-0.1783 2.034,-0.2221 1.3192,-0.062 1.9872,-0.2141 2.4845,-0.5659 0.7749,-0.5509 2.8352,-0.9434 3.0567,-0.582 0.2026,0.3271 6.134,0.1746 6.5468,-0.1707 0.1877,-0.15 0.9627,-0.2421 1.747,-0.2059 1.3473,0.06 1.4805,0.122 2.5725,1.2386 0.6325,0.6464 1.1522,1.3764 1.1522,1.6212 0,0.2464 0.1126,0.5126 0.2421,0.5947 0.1314,0.081 0.2421,0.7359 0.2421,1.4517 0,1.2756 -0.037,1.3351 -1.5743,2.9143 -0.8651,0.8873 -1.5745,1.7578 -1.5745,1.9342 0,0.1782 -0.1875,0.3555 -0.3996,0.3999 -0.2177,0.045 -0.7562,0.7319 -1.1934,1.5306 -0.4373,0.7987 -0.8988,1.4289 -1.0264,1.4009 -0.4597,-0.1049 -1.4674,1.1063 -1.7282,2.0714 -0.1502,0.5419 -0.3791,1.0566 -0.5197,1.1439 -0.3679,0.226 -1.1841,2.221 -1.1841,2.8943 0,0.315 -0.1895,0.7137 -0.424,0.8873 -0.2347,0.1726 -0.593,0.797 -0.8014,1.3846 -0.2308,0.6555 -0.5441,1.0929 -0.8067,1.1312 -0.5649,0.084 -1.0453,0.7602 -1.231,1.7341 -0.075,0.4326 -0.2533,0.7868 -0.379,0.7868 -0.1314,0 -0.2309,0.1257 -0.2309,0.2746 0,0.3717 -0.9757,2.3713 -1.5067,3.0852 -0.2384,0.3189 -0.4298,0.8728 -0.4298,1.2339 0,0.3635 -0.3246,1.1368 -0.7223,1.7226 -0.396,0.5857 -0.7243,1.1479 -0.7263,1.2491 0,0.3312 -1.274,1.6182 -1.7356,1.7643 -0.2478,0.077 -0.7807,0.8063 -1.1822,1.6177 -0.4053,0.8118 -0.9758,1.7029 -1.2703,1.9804 -1.535,1.4423 -3.0642,3.8466 -3.2144,5.0535 -0.075,0.5275 -0.5085,1.2134 -1.3735,2.1291 -0.7017,0.7431 -1.4392,1.669 -1.6381,2.0571 -0.1989,0.3878 -0.4185,0.7601 -0.4842,0.8268 -1.0733,1.0683 -2.9065,4.174 -2.9065,4.921 0,0.2062 -0.4636,0.8803 -1.0283,1.5003 -1.1822,1.2941 -1.6138,1.9881 -1.625,2.6095 0,0.2423 -0.1126,0.3757 -0.2308,0.2989 -0.1126,-0.073 -0.1896,0.1369 -0.1501,0.4709 0.037,0.3353 -0.057,0.6116 -0.2008,0.618 -0.1501,0 -0.6249,0.4552 -1.0583,0.9948 -0.6774,0.8467 -0.7862,1.1698 -0.7862,2.3476 v 1.3659 l 2.2479,-0.049 c 3.0342,-0.063 3.9518,-0.1744 4.374,-0.5271 0.3697,-0.3069 1.3961,-0.2585 4.4978,0.198 0.8556,0.1294 1.6193,0.1938 1.6963,0.1444 0.075,-0.049 0.5666,0.122 1.0902,0.3758 0.5216,0.2544 1.3173,0.4615 1.7676,0.4615 0.4503,0 0.7655,0.084 0.6999,0.1898 -0.075,0.105 0.1989,0.4411 0.5854,0.7476 0.7901,0.6285 1.4431,1.7849 1.4431,2.556 0,0.4528 -0.5499,1.4912 -0.9684,1.8321 -0.075,0.063 -0.2833,0.4553 -0.4484,0.8632 -0.1989,0.493 -0.5779,0.8414 -1.1259,1.04 -0.7899,0.2867 -1.5743,1.3499 -1.5743,2.136 0,0.1857 -0.1689,0.3997 -0.3884,0.4817 -0.2139,0.081 -0.6417,0.4056 -0.957,0.7189 -0.3133,0.311 -0.6849,0.5695 -0.8218,0.5695 -0.1314,0 -0.2552,0.1258 -0.2552,0.2788 0,0.1539 -0.2683,0.631 -0.5948,1.0594 -0.3265,0.4282 -0.5386,0.8366 -0.4691,0.906 0.3564,0.3553 -0.4899,2.2036 -1.3699,2.9994 -0.5254,0.4748 -0.9551,0.9625 -0.9551,1.084 0,0.1219 -0.3528,0.6046 -0.7787,1.0752 -0.4278,0.4701 -0.9139,1.1777 -1.0808,1.5708 -0.1689,0.3919 -0.4672,0.7795 -0.6736,0.8586 -0.2064,0.077 -0.3716,0.3797 -0.3716,0.6739 0,0.2989 -0.4222,0.941 -0.9701,1.4749 -0.531,0.5203 -0.9682,1.1709 -0.9682,1.4476 0,0.2788 -0.2984,0.7933 -0.6643,1.1494 -0.82,0.7983 -1.5462,1.6394 -1.4167,1.6394 0.056,0 -0.057,0.5157 -0.2459,1.1462 -0.2025,0.6759 -0.728,1.545 -1.2816,2.1181 -0.5159,0.5342 -1.1145,1.3256 -1.3322,1.7586 -0.2177,0.432 -0.501,0.7863 -0.6323,0.7863 -0.1314,0 -0.2347,0.1744 -0.2347,0.3877 0,0.2101 -0.2176,0.6616 -0.4841,1.0001 -0.2664,0.3392 -0.4841,0.7371 -0.4841,0.8857 0,0.1501 -0.3677,0.6846 -0.8199,1.1908 -0.4504,0.5064 -0.8858,1.2568 -0.9702,1.6677 -0.075,0.4116 -0.5835,1.2202 -1.1164,1.7978 -0.5311,0.5771 -0.9664,1.162 -0.9664,1.2988 0,0.137 -0.3565,0.7719 -0.7862,1.4086 -1.0433,1.534 -1.3923,2.1617 -1.3923,2.4957 0,0.1538 -0.3884,0.7048 -0.8594,1.2274 -0.6005,0.6633 -0.8163,1.0913 -0.7131,1.4161 0.094,0.307 -0.057,0.6859 -0.4522,1.1127 -0.4935,0.5331 -1.7902,3.3356 -2.4281,5.2481 -0.075,0.2423 -0.242,0.3797 -0.3621,0.3029 -0.2627,-0.1613 -0.5724,0.5388 -0.3753,0.8525 0.075,0.122 0,0.2182 -0.1127,0.2182 -0.15,0 -0.2589,0.1744 -0.2589,0.3878 0,0.214 -0.1989,0.6755 -0.439,1.0291 -0.2421,0.3512 -0.4541,0.9011 -0.473,1.2177 0,0.3151 -0.2551,0.7837 -0.529,1.0377 -0.2777,0.2625 -0.4954,0.769 -0.4954,1.1624 0,0.3837 -0.1502,0.845 -0.3247,1.0223 -0.1688,0.1782 -0.3227,0.6483 -0.3227,1.0457 0,0.6975 -1.3023,2.9206 -1.9553,3.3378 -0.1689,0.105 -0.304,0.3393 -0.304,0.515 0,0.1783 -0.15,0.4572 -0.3621,0.6229 -0.2026,0.165 -0.364,0.488 -0.364,0.7153 0,0.2302 -0.4241,1.0215 -0.9439,1.7631 -0.5198,0.7422 -1.017,1.6042 -1.1052,1.9163 -0.3658,1.2826 -1.4373,3.5113 -1.9665,4.0813 -0.4447,0.4782 -0.5929,0.969 -0.6868,2.2848 -0.1313,1.834 -0.6116,2.5563 -1.9045,2.8814 -0.6136,0.1539 -0.6493,0.2344 -0.5104,1.0978 0.1876,1.1064 -0.094,1.3487 -1.0339,0.9512 -0.3753,-0.1576 -1.4487,-0.3109 -2.3812,-0.3311 -3.0305,-0.081 -2.8803,-0.042 -3.3607,-1.0163 -0.2458,-0.4988 -0.5423,-1.0965 -0.6605,-1.328 -0.3265,-0.6349 -0.259,-1.4294 0.1501,-1.8907 0.2064,-0.2262 0.4297,-0.7186 0.4973,-1.0919 0.075,-0.3716 0.1951,-0.7945 0.2832,-0.9369 0.094,-0.1407 0.1314,-0.5692 0.094,-0.9475 -0.037,-0.4593 0.1127,-0.888 0.488,-1.2853 0.4802,-0.5113 0.5722,-0.8965 0.6379,-2.6904 0.037,-1.1512 0.1932,-2.2352 0.3377,-2.4089 0.1502,-0.182 0.3078,-1.8693 0.3697,-3.999 0.056,-2.0255 0.197,-3.7943 0.3059,-3.9304 0.3846,-0.4677 0.3959,-4.136 0,-4.5949 -0.1501,-0.1782 -0.3303,-0.8808 -0.4128,-1.565 -0.1314,-1.0393 -0.075,-1.3325 0.3433,-1.7809 0.3791,-0.4155 0.5198,-1.002 0.6306,-2.5938 0.2138,-3.107 0.3152,-3.7329 0.7317,-4.6267 0.2083,-0.4509 0.3828,-1.0377 0.3828,-1.3042 0,-0.2666 0,-1.3011 -0.037,-2.2996 0,-0.9987 -0.037,-2.4052 -0.057,-3.1262 0,-0.7217 0.094,-1.3477 0.2195,-1.3918 0.1314,-0.045 0.2045,-0.6475 0.1689,-1.3596 -0.037,-0.7024 0.037,-2.2549 0.1689,-3.4489 0.1501,-1.4168 0.1501,-2.6186 0,-3.4573 -0.1501,-0.8684 -0.1501,-1.5369 0,-2.0588 0.2252,-0.6895 0.4353,-2.5248 0.6117,-5.3694 0.037,-0.5325 0.1314,-1.1505 0.2345,-1.3733 0.094,-0.2224 0.197,-0.5734 0.229,-0.7797 0.037,-0.206 0.1125,-0.4414 0.2027,-0.5234 0.15,-0.1501 0.037,-1.9352 -0.1877,-2.9539 -0.075,-0.2986 0.037,-0.8587 0.2383,-1.2394 0.197,-0.3796 0.2946,-0.7572 0.2177,-0.8353 -0.075,-0.077 -0.057,-0.3352 0.037,-0.5748 0.1688,-0.3998 0.3321,-2.9788 0.3396,-5.2753 0,-0.5331 0.1313,-2.3302 0.2871,-3.9942 0.1876,-1.9324 0.2008,-3.3294 0.057,-3.8645 -0.1689,-0.602 -0.1127,-1.2543 0.15,-2.3008 0.2064,-0.8025 0.3772,-1.9226 0.3772,-2.488 0,-0.5658 0.057,-1.0286 0.1314,-1.0286 0.075,0 0.1125,-0.675 0.075,-1.4999 -0.037,-0.872 0.094,-1.8445 0.2909,-2.3244 0.2383,-0.5704 0.3584,-1.9401 0.3828,-4.4401 0.037,-1.988 0.242,-3.7414 0.242,-3.7414 l 0.2064,-0.9333 0.3397,-3.2568 0.5085,-1.2221 c 0,0 -0.037,-0.6698 0.1126,-0.8592 0.1501,-0.1858 0.2064,-0.4641 0.1126,-0.6151 -0.094,-0.1502 -0.1689,-1.1916 -0.1502,-2.3104 0,-1.1196 -0.094,-2.0356 -0.094,-2.0356 l -4.2182,0.1258 c 0,0 -4.9613,0.3675 -9.9169,0.3675 -2.749,0 -4.0625,0.1017 -4.9032,0.3797 -0.6642,0.218 -1.4467,0.311 -1.8538,0.2263 -0.3866,-0.084 -0.7657,-0.057 -0.8407,0.069 -0.3003,0.4829 -4.4284,-0.2425 -4.8956,-0.8579 -0.1689,-0.2344 -0.3284,-0.7531 -0.3359,-1.152 0,-0.3999 -0.075,-0.944 -0.1313,-1.2106 -0.075,-0.2666 0.037,-0.8191 0.2177,-1.2289 z"
         id="path8060-3-8-8-8-3-1-8-8-2"
         sodipodi:nodetypes="sssssssssssssssssssssssssssssssssssssssssssssssssssssssssssssssssscssssssssssssssscssssssssssssssssssssssssssssssssssssssssssssssssssssssscssssssssssssssssssssssssssssscsssssssssssssssssssssssccccsssccsssssssss" /><path
         d="m 2769.8006,1964.217 c -1.9609,-0.5459 -4.9482,-5.8973 -4.1808,-7.489 0.2759,-0.5703 0.5874,-2.2482 0.6906,-3.7298 0.1126,-1.4816 0.5873,-3.4604 1.0752,-4.3996 0.486,-0.9389 1.1052,-3.2223 1.3754,-5.074 0.2721,-1.8522 0.7712,-3.904 1.1109,-4.5599 0.3415,-0.6535 0.7749,-4.7283 0.9645,-9.0531 0.1876,-4.325 0.6155,-8.3729 0.9513,-8.9967 0.3321,-0.6227 0.4654,-2.7797 0.2871,-4.7924 -0.5198,-6.01 -0.4804,-7.4552 0.3527,-13.3469 0.4373,-3.0986 0.7469,-7.5064 0.6812,-9.7945 -0.057,-2.2876 0.2383,-5.983 0.6662,-8.2124 0.4277,-2.2292 0.9307,-5.5732 1.1127,-7.4306 0.1876,-1.8574 0.6399,-4.8975 1.017,-6.7549 0.3753,-1.8574 1.1296,-6.1125 1.6757,-9.4554 0.5442,-3.3438 1.5762,-7.2952 2.2929,-8.7814 1.2648,-2.6203 2.7997,-10.2022 4.1732,-20.6018 1.0639,-8.0779 1.2572,-10.1 1.58,-16.6396 0.3377,-6.8567 1.2853,-11.1744 2.7039,-12.348 0.5967,-0.4924 0.9626,-2.259 0.9982,-4.8236 0.057,-2.225 0.3247,-4.5702 0.6569,-5.2113 0.332,-0.6416 0.7993,-2.6843 1.0414,-4.538 0.5779,-4.4007 2.3455,-11.8486 3.1674,-13.3373 0.3546,-0.6452 0.6473,-2.3744 0.6473,-3.844 0,-1.4688 0.304,-2.8597 0.6774,-3.0878 0.3697,-0.2305 0.6774,-1.8856 0.6774,-3.6789 0,-1.7934 0.4578,-4.1303 1.0133,-5.1951 0.5573,-1.0637 1.0151,-3.2265 1.017,-4.8041 0,-1.58 0.2777,-2.8711 0.6099,-2.8711 0.6942,0 1.5067,-4.534 1.4804,-8.2572 0,-1.3843 0.608,-3.9682 1.3774,-5.7423 1.2627,-2.9213 2.2311,-8.6204 2.9122,-17.1545 0.7975,-9.9812 1.3267,-13.8619 2.8483,-20.8565 0.9308,-4.2723 1.9816,-8.7016 2.3344,-9.8427 0.3565,-1.1406 0.6455,-2.7658 0.6455,-3.6122 0,-1.4109 0.4296,-2.592 3.0961,-8.4979 0.5009,-1.1137 1.094,-3.4453 1.3135,-5.1789 0.2458,-1.9313 1.1784,-4.2192 2.4036,-5.9045 1.0996,-1.5138 2.0004,-3.0366 2.0004,-3.3845 0,-0.3479 0.4334,-1.0653 0.9626,-1.5939 0.7862,-0.7816 0.8443,-1.9276 0.3208,-6.1597 -0.9926,-7.9554 0.9832,-13.3403 6.4812,-17.6778 4.0794,-3.2158 7.8755,-4.5084 11.7033,-3.9841 1.7432,0.2414 3.462,0.055 4.4078,-0.4574 0.8537,-0.4675 2.6194,-0.9788 3.9254,-1.1384 4.3008,-0.5271 19.8395,-0.2453 20.2636,0.366 0.4822,0.7 5.0551,2.8946 6.029,2.8946 0.364,0 1.0377,0.4523 1.4993,1.0062 0.4616,0.5528 1.0733,0.8595 1.3642,0.6817 0.2889,-0.1801 1.0582,0.4814 1.7056,1.4667 0.6493,0.9873 2.2086,2.8187 3.4639,4.0706 1.2572,1.2515 2.2854,2.8739 2.2854,3.6035 0,0.7311 0.2628,1.3288 0.5931,1.3288 0.3302,0 0.3903,0.9881 0.1313,2.1949 -0.6004,2.901 0.3809,9.8265 1.6644,11.7809 0.6286,0.9562 0.8557,2.2154 0.5892,3.2729 -0.4391,1.7407 0.7994,7.5438 1.8614,8.7229 0.319,0.3514 0.578,1.8391 0.578,3.3026 0,1.7425 0.4053,2.9563 1.1708,3.515 0.835,0.608 1.2178,1.9687 1.3304,4.731 0.1126,2.8196 0.5349,4.2762 1.5406,5.3433 0.76,0.8067 1.3829,2.0154 1.3829,2.6887 0,0.6717 0.8838,2.9318 1.9647,5.0218 2.1371,4.1369 3.5314,9.8568 5.209,21.363 0.5948,4.0868 1.3359,8.0377 1.6474,8.7811 0.3077,0.7431 0.7525,2.263 0.9814,3.3773 0.2252,1.114 0.8387,2.9379 1.3566,4.0534 2.2893,4.9181 3.0793,7.0481 3.0793,8.3211 0,1.9184 2.0547,9.7615 2.7958,10.6736 0.3415,0.4188 0.4485,1.1942 0.2458,1.7249 -0.2007,0.531 0.057,2.0134 0.6005,3.294 0.5348,1.2803 1.1447,3.3922 1.3529,4.6925 0.5122,3.1857 2.1955,11.1856 3.0623,14.5574 0.3847,1.5062 0.8764,5.5502 1.0902,8.9872 0.2121,3.4369 0.7882,7.525 1.2836,9.0834 0.4954,1.559 1.2685,4.202 1.7206,5.8733 0.4522,1.6712 1.0734,3.9521 1.3829,5.0657 0.3078,1.1149 0.471,3.0229 0.3622,4.2394 -0.1314,1.3394 0.2158,2.6307 0.8575,3.2702 0.9008,0.8943 0.9157,1.1465 0.1127,1.642 -0.7225,0.4474 -0.7619,0.774 -0.1689,1.3723 0.4353,0.4334 0.6266,1.2082 0.4296,1.7267 -0.1988,0.5157 -0.057,1.3148 0.304,1.7742 0.366,0.4624 1.0301,2.0514 1.4787,3.5365 0.4485,1.487 1.0808,3.3103 1.4091,4.0545 0.7826,1.7744 2.7885,11.1059 2.7584,12.8322 0,0.7438 0.3359,2.415 0.7768,3.7147 0.4447,1.3011 0.8407,2.5167 0.8895,2.7026 0.057,0.1858 0.3189,0.9464 0.6005,1.6882 0.2851,0.7438 0.8311,2.1977 1.2197,3.2299 0.3902,1.0342 0.5103,2.0734 0.2739,2.3107 -0.2346,0.2342 0,1.0881 0.5273,1.8918 0.5292,0.803 0.7468,1.8057 0.4841,2.2299 -0.5142,0.8277 0.057,7.4284 1.2365,13.9788 0.3941,2.2292 0.9833,6.0286 1.3023,8.4431 0.5854,4.4023 2.4224,11.4728 3.554,13.6698 0.3339,0.645 0.6098,1.7089 0.6154,2.3637 0,1.3573 1.3829,5.4334 2.3268,6.9049 0.3453,0.5429 0.5554,2.2143 0.4654,3.7153 -0.094,1.5018 0.3095,4.06 0.8893,5.6852 0.5799,1.6256 1.0527,3.6058 1.0527,4.4005 0,0.7947 0.6118,2.5784 1.3568,3.9646 0.7467,1.3864 1.3547,2.9407 1.3547,3.4534 0,0.5136 0.4241,1.284 0.9419,1.7111 0.7131,0.5882 0.7938,1.4213 0.3435,3.4263 -0.3472,1.5415 -0.3435,3.3133 0,4.2365 0.334,0.8723 1.1108,4.7418 1.7244,8.5986 l 1.1183,7.0119 -1.9684,1.9637 c -2.9309,2.9191 -6.0045,2.872 -8.0592,-0.1239 -0.8726,-1.2719 -1.4168,-2.8325 -1.2122,-3.4753 0.5667,-1.7772 0.3041,-10.4257 -0.319,-10.4257 -0.075,0 -0.2927,-1.9757 -0.4859,-4.3909 -0.1952,-2.4149 -0.8069,-5.4547 -1.3661,-6.7549 -2.0491,-4.7761 -5.0044,-15.3076 -5.0663,-18.0592 0,-0.2855 -0.2853,-0.8412 -0.6155,-1.2411 -0.3322,-0.3997 -0.7788,-2.2226 -0.9908,-4.0522 -0.2139,-1.8302 -0.6587,-4.24 -0.9908,-5.354 -1.6381,-5.522 -2.9272,-11.2355 -3.4263,-15.198 -0.304,-2.4154 -1.0565,-6.5187 -1.6701,-9.1181 -1.229,-5.2063 -1.3735,-6.1537 -2.2235,-14.5422 -0.3227,-3.1691 -1.0827,-7.2718 -1.6925,-9.1197 -0.6118,-1.8468 -1.7189,-6.0887 -2.4656,-9.4263 -0.745,-3.338 -1.6739,-6.1749 -2.0623,-6.3043 -0.3902,-0.1276 -0.7093,-1.2679 -0.7093,-2.5293 0,-1.2614 -0.7355,-4.5032 -1.6344,-7.2044 -0.9363,-2.8131 -1.8069,-7.4233 -2.0396,-10.7928 -0.2196,-3.2342 -0.7506,-6.73 -1.1709,-7.7671 -1.1615,-2.8561 -3.2387,-13.2954 -4.0044,-20.1242 -0.3771,-3.344 -0.9795,-6.607 -1.3396,-7.2523 -0.3641,-0.6447 -0.6606,-1.7084 -0.6625,-2.3633 0,-0.6561 -0.4203,-1.9856 -0.9269,-2.9545 -0.6268,-1.1963 -0.7168,-2.1332 -0.2796,-2.9134 0.6454,-1.1474 0,-4.9244 -1.8389,-10.8596 -2.3062,-7.4196 -3.646,-12.4269 -4.01,-14.9906 -0.3902,-2.7289 -3.8278,-9.9612 -5.4003,-11.3519 -0.4185,-0.3708 -0.7937,-2.8036 -0.8313,-5.4028 -0.057,-2.6014 -0.4053,-6.553 -0.8181,-8.7824 -0.4147,-2.2289 -1.0714,-5.8768 -1.4673,-8.1057 -0.396,-2.2281 -1.7827,-6.3969 -3.0812,-9.2612 -1.2984,-2.8647 -2.3623,-5.8105 -2.3623,-6.5456 0,-0.7357 -0.2591,-1.4961 -0.5743,-1.6915 -0.3189,-0.194 -1.4242,-2.8721 -2.4618,-5.9504 -1.0395,-3.0771 -2.1092,-5.9001 -2.3793,-6.271 -0.2703,-0.3707 -0.8576,-2.1732 -1.306,-4.0049 -0.4485,-1.8311 -1.4074,-4.1585 -2.1336,-5.1707 -0.7224,-1.0116 -1.3134,-2.1204 -1.3134,-2.4631 0,-0.3406 -0.7188,-1.2938 -1.595,-2.1151 -1.4767,-1.3808 -1.8446,-1.4331 -4.9163,-0.7069 -1.8258,0.4334 -4.389,1.2038 -5.6931,1.716 -3.3213,1.3058 -8.4945,2.0339 -12.8816,1.816 -7.5414,-0.3756 -9.8626,-0.6609 -11.1967,-1.3817 -0.7525,-0.4051 -2.1241,-0.7729 -3.053,-0.8149 -9.0875,-0.4145 -8.4814,-0.4982 -8.2506,1.1402 0.1313,0.9101 -0.2121,1.6879 -0.8481,1.9303 -0.6887,0.2636 -1.0603,1.2518 -1.0603,2.812 0,2.0704 -1.5837,6.1674 -5.0194,12.9841 -1.7245,3.4209 -5.3592,18.9372 -4.7849,20.428 0.227,0.5926 -0.057,1.8147 -0.6624,2.7158 -0.8482,1.2894 -0.9645,2.4186 -0.5405,5.2897 0.381,2.5846 0.2777,4.1719 -0.3452,5.4354 -0.4841,0.9816 -0.9213,3.9713 -0.9701,6.6448 -0.057,3.1998 -0.5085,5.6766 -1.3135,7.2524 -0.6737,1.3157 -1.4204,3.7966 -1.6606,5.5132 -0.2402,1.7166 -0.9082,4.7936 -1.488,6.837 -0.5817,2.0434 -1.0358,4.1709 -1.0096,4.727 0.057,0.5579 -0.3527,2.5333 -0.8406,4.3908 -0.4879,1.8583 -1.2422,5.3536 -1.6757,7.7685 -1.0752,5.9882 -1.1145,6.1853 -1.6118,8.1045 -0.2439,0.9295 -0.5798,2.552 -0.7505,3.605 -0.1689,1.054 -0.5987,2.2697 -0.9477,2.7027 -0.3528,0.4331 -0.8575,2.1528 -1.1296,3.8246 -0.2721,1.6722 -0.7468,3.5183 -1.0545,4.1024 -0.3078,0.584 -1.1953,5.5788 -1.9722,11.0976 -0.7787,5.5187 -1.67,10.3604 -1.9814,10.7578 -0.8313,1.0604 -1.52,6.7138 -1.5706,12.8809 -0.057,2.9727 -0.3491,5.784 -0.7149,6.2482 -0.4486,0.5652 -0.4054,1.1601 0.1312,1.7977 0.471,0.5652 0.5349,1.1116 0.1502,1.345 -0.349,0.216 -0.8163,1.3821 -1.034,2.5931 -0.2158,1.2102 -0.803,4.4806 -1.2984,7.2674 -0.4954,2.7854 -1.2365,5.8255 -1.6456,6.7545 -0.7056,1.6001 -2.4788,8.5055 -4.6837,18.2378 -1.4636,6.4545 -3.7641,22.542 -4.0549,28.3686 -0.5347,10.6743 -0.6023,27.8299 -0.1125,28.132 0.8612,0.5298 0.576,1.5881 -0.4279,1.5881 -0.7037,0 -0.9626,1.1549 -1.0226,4.56 -0.057,2.5067 -0.2328,5.3951 -0.4279,6.416 -0.1933,1.0208 -0.4616,2.6939 -0.5985,3.7147 -0.1314,1.0225 -0.5705,3.2257 -0.9646,4.8971 -0.3941,1.6729 -0.9213,5.4718 -1.1783,8.4433 -0.3359,3.9435 -0.9438,6.2721 -2.2424,8.6122 -1.8313,3.3023 -1.9946,3.3923 -4.7849,2.6144 z m 86.4678,-301.389 c 2.201,-0.7717 4.6122,-1.3837 5.3572,-1.3603 1.3773,0.047 2.7358,-0.485 8.8154,-3.4208 3.1299,-1.5116 3.4376,-1.8787 4.0062,-4.7885 0.5461,-2.79 0.4297,-3.4286 -1.017,-5.5664 -0.897,-1.3261 -2.3962,-2.8236 -3.3288,-3.3249 -8.0612,-4.3363 -7.9091,-4.2923 -13.7411,-4.0244 -10.994,0.5051 -13.0581,0.7106 -14.3959,1.4306 -0.745,0.3994 -2.4019,1.1201 -3.6835,1.5952 -1.2798,0.4767 -3.8354,2.2974 -5.6781,4.048 -3.0435,2.8936 -3.3606,3.4822 -3.4751,6.4524 -0.1501,3.8335 0.1313,4.9584 1.2553,4.9584 0.4485,0 2.0191,0.5703 3.4882,1.2677 3.7624,1.7859 11.0542,3.4812 14.411,3.3494 1.5612,-0.062 3.0418,0.089 3.2894,0.3368 0.5686,0.5671 0.057,0.671 4.6968,-0.954 z"
         style="fill:#000000;stroke-width:1.78356"
         id="path9376-3-7-6-4-2-4-3-9-2-0-9-9-1-6-1-5-1-8-5" /><path
         style="fill:#000000;stroke-width:0.691135"
         d="m 3041.455,1929.1127 c -0.5405,-0.2611 -2.4177,-1.9355 -2.7143,-2.4303 -0.2873,-0.486 -0.045,-13.5108 0.3695,-17.7983 0.1826,-1.8788 0.3034,-4.1439 0.2965,-5.0334 0,-0.8896 0,-1.8603 0,-2.1571 0,-0.7518 0.3034,-19.214 0.3765,-23.3684 0.069,-1.8785 -0.045,-6.5701 -0.1597,-10.4262 -0.1596,-4.1999 -0.091,-9.3168 0.045,-12.7631 0.1597,-3.1635 0.3012,-13.3558 0.3012,-22.6494 0,-16.9326 0,-21.9604 -0.045,-26.5474 0,-1.3529 0.1595,-3.5368 0.2965,-4.853 0.5154,-4.0656 0.6295,-34.0601 0.1596,-38.7046 -0.228,-2.1753 -0.333,-4.927 -0.2372,-6.1126 0.1597,-2.0236 0.1142,-2.2425 -0.7299,-3.555 -0.4995,-0.7682 -0.9056,-1.5254 -0.9056,-1.6811 0,-0.1551 -0.1824,-0.5082 -0.4149,-0.786 -0.6251,-0.7651 -1.6469,-3.7099 -1.6469,-4.7464 0,-0.5083 -0.3992,-1.589 -0.8805,-2.4053 -0.7367,-1.2455 -0.8509,-1.7045 -0.6981,-2.8559 0.1597,-1.2014 0.069,-1.5491 -0.8279,-2.8082 -0.6454,-0.9206 -1.2521,-2.4211 -1.6946,-4.1806 -0.47,-1.8722 -1.0014,-3.1519 -1.6765,-4.0241 -0.5429,-0.704 -0.9853,-1.5811 -0.9853,-1.9486 0,-0.9019 -1.428,-4.1407 -2.427,-5.4997 -0.4427,-0.6057 -0.8075,-1.3156 -0.8099,-1.5779 0,-0.2608 -0.5723,-1.395 -1.268,-2.5163 -1.3754,-2.2141 -2.3495,-4.3683 -2.6527,-5.8653 -0.1597,-0.7722 -0.3992,-0.9785 -1.2979,-1.1113 -1.9092,-0.2843 -16.9724,0.1348 -17.2621,0.4745 -0.5816,0.6703 -2.4588,0.3055 -4.2425,-0.8136 l -1.8043,-1.1384 v -1.7553 c 0,-1.4468 0.1597,-1.9122 0.8007,-2.6612 0.4357,-0.4969 1.161,-0.9947 1.6034,-1.1026 1.0333,-0.252 1.6766,-1.4592 1.9137,-3.6107 0.1597,-1.4102 0.4289,-1.9744 1.5398,-3.2718 1.8179,-2.1145 2.8215,-2.607 4.7488,-2.3281 1.1176,0.1574 1.7837,0.4968 2.3721,1.1798 0.7414,0.8633 0.8258,1.225 0.9056,3.8062 l 0.091,2.853 2.2056,-0.086 c 4.7397,-0.1893 5.9486,-0.1459 7.2876,0.2349 1.8271,0.52 10.6383,0.7587 11.3499,0.3055 0.3695,-0.2348 0.7572,-0.2211 1.177,0.058 1.4028,0.899 29.643,0 31.308,-0.9858 0.2668,-0.1596 1.8817,-0.1778 3.581,-0.057 1.6993,0.1436 3.2869,0.1236 3.5309,-0.057 0.2713,-0.1734 0.6022,-1.3156 0.837,-2.921 0.39,-2.6447 1.3914,-5.0998 1.9685,-4.8362 0.1825,0.08 0.6341,-0.073 1.0333,-0.3462 0.4083,-0.2784 1.6193,-0.4912 2.8282,-0.5025 1.9344,0 2.1601,0.067 2.7189,0.9348 0.34,0.5186 0.6092,1.2087 0.6159,1.528 0,0.319 0.2054,1.3083 0.4768,2.1983 0.2623,0.8896 0.488,2.3462 0.5109,3.2353 0.068,1.446 0.1143,1.6284 0.7732,1.715 2.1463,0.2846 2.6299,0.5422 3.9277,2.1022 0.7482,0.9062 1.3641,1.8084 1.3641,2.0057 0,0.6435 -0.9352,2.3149 -1.5648,2.7968 -0.691,0.5248 -6.2954,0.8172 -6.537,0.3402 -0.1597,-0.2953 -8.111,-0.1458 -11.7241,0.2325 -2.4361,0.2522 -3.6313,1.186 -4.4546,3.482 -0.301,0.8392 -0.9488,2.1163 -1.4392,2.8373 -0.4927,0.7213 -1.282,2.2589 -1.7519,3.4157 -0.4721,1.157 -1.211,2.7506 -1.6445,3.5416 -0.4289,0.7908 -1.1633,2.3283 -1.6285,3.4156 -0.4631,1.0878 -0.9877,2.22 -1.1702,2.5163 -0.1825,0.295 -0.7048,1.7531 -1.1678,3.2359 -0.463,1.483 -1.0836,3.3744 -1.3777,4.2051 -0.2966,0.8294 -0.5383,1.9018 -0.5383,2.3825 0,0.4802 -0.1826,1.0759 -0.4424,1.3222 -0.2716,0.2757 -0.4403,1.0739 -0.4403,2.1105 0,1.0349 -0.276,2.3436 -0.7276,3.4617 -0.3992,0.9883 -0.7276,2.061 -0.7345,2.3825 0,0.3226 -0.2053,0.7864 -0.4492,1.0327 -0.2441,0.2427 -0.4426,0.6583 -0.4426,0.9155 0,0.261 -0.3126,0.9265 -0.6981,1.4867 -1.4551,2.1098 -1.7401,3.5377 -1.8657,9.282 -0.2623,11.8551 -0.4288,15.8108 -0.6912,16.4066 -0.1596,0.3466 -0.269,0.9578 -0.269,1.3659 0,0.4078 -0.1142,0.743 -0.2578,0.743 -0.4699,0 -0.7823,6.8951 -0.5704,12.4031 0.091,1.9572 -0.31,8.0854 -0.5359,8.5364 -0.3398,0.672 -0.723,6.1645 -0.7185,10.3384 0,2.274 0,4.4985 0,4.943 0,1.9657 0,4.2717 0,10.156 0,5.6502 -0.091,13.6461 -0.406,28.0429 -0.2052,9.6759 -0.2052,17.2374 0,17.6597 0.1597,0.329 0.4289,17.5408 0.4698,31.0543 0,1.0121 -0.2668,9.5682 -0.3534,11.1458 -0.068,0.3967 0.1142,2.0944 0.3034,3.7748 0.3146,2.8252 0.4196,5.1945 0.3261,7.6254 -0.068,1.0276 -0.7732,2.0819 -2.2422,3.2025 -0.894,0.6858 -1.4164,0.7831 -2.2033,0.4133 z m 3.0588,-181.686 c 0.4288,-0.4139 0.9784,-0.6622 1.2158,-0.5529 0.7093,0.3288 1.2749,-0.1304 1.9434,-1.5811 0.3443,-0.7544 0.8575,-1.4445 1.1381,-1.5337 0.3101,-0.099 0.5861,-0.6848 0.7162,-1.5362 0.1143,-0.7562 0.7299,-2.7146 1.3639,-4.353 0.6342,-1.6388 1.1519,-3.1279 1.1519,-3.3101 0,-0.1778 0.3695,-1.1962 0.8304,-2.2542 0.8186,-1.9087 0.9898,-2.3939 2.0641,-5.902 0.3034,-1.0021 0.9695,-2.5229 1.478,-3.3794 0.5041,-0.8573 0.9215,-1.8016 0.9215,-2.0991 0,-0.2953 0.4379,-1.5265 0.9786,-2.7326 0.5384,-1.2054 1.1518,-2.9193 1.3685,-3.8093 0.2053,-0.8903 0.6501,-1.9013 0.9649,-2.2455 1.9959,-2.1824 -1.396,-2.4883 -21.8354,-1.9688 -6.1447,0.1552 -11.1445,0.4301 -11.2974,0.6189 -0.1825,0.2121 0,1.2543 0.4835,2.7758 0.4221,1.3409 0.8578,2.8426 0.9717,3.3364 0.091,0.4916 0.4585,1.3285 0.7574,1.8532 0.3033,0.525 0.5496,1.1463 0.5496,1.3827 0,0.2348 0.1824,0.8577 0.4198,1.3821 0.2302,0.5252 0.5747,1.4798 0.7686,2.123 0.2053,0.6425 0.4631,1.168 0.5953,1.168 0.4334,0 1.4278,2.0289 1.5988,3.2706 0.091,0.6731 0.4243,1.6278 0.7415,2.122 0.3169,0.4973 0.9671,1.8495 1.4483,3.0121 0.4768,1.1612 1.209,2.5761 1.6195,3.1422 0.4105,0.5665 0.7526,1.1341 0.7526,1.2609 0,0.125 0.2395,0.4916 0.536,0.8116 0.2966,0.3161 0.616,0.8607 0.723,1.2004 0.091,0.3407 0.6889,0.9125 1.3025,1.2696 l 1.1154,0.6489 -0.091,2.7979 c -0.045,1.801 0.045,2.9822 0.2555,3.3153 0.5018,0.7391 1.5418,0.6388 2.4542,-0.2353 z"
         id="path11198-6-2-1-7-3-2-9-33-4-9"
         sodipodi:nodetypes="cssssssssssssssssssssssscssssscsssssssscssssssssssssssssssssssssssssssscsssssssssssscssssssssccssssssssssssssssssssssssssssssscsss" /><path
         id="rect39415-8-6-8-8-4-3-5-5"
         d="m 3156.8359,1719.5109 6.8875,0.2294 8.8327,0.3023 5.5741,-0.4427 7.1845,-0.2373 7.4069,0.1006 7.5094,0.315 6.3997,-0.5594 8.2167,0.4899 6.4913,0.1491 7.485,0.35 6.844,0.08 7.1608,0.056 -0.4662,16.9612 -0.3429,18.7652 0.6634,19.0413 0.045,18.2461 0.056,18.2464 0.1061,18.2808 1.8456,18.2732 -0.619,16.696 -0.2078,19.7869 -0.3161,18.2277 0.6964,18.6317 -1.5452,17.6247 -7.1497,-0.078 -7.2801,-0.2886 -7.2407,-0.2679 -7.0169,-0.6822 -7.2,0.038 -7.0626,0.1573 -7.3282,-0.8665 -5.793,0.7998 -8.0076,0.6121 -6.8767,0.6318 -6.5091,0.1746 -8.7102,-0.7697 0.4385,-17.987 -0.3614,-19.9397 0.1553,-16.5196 0.8592,-18.2775 -0.387,-18.582 0.5295,-17.4238 -0.3515,-18.8326 -0.1714,-18.0241 -0.5557,-19.4291 -0.2301,-17.4264 -0.149,-18.7174 z"
         style="fill:none;stroke:#000000;stroke-width:4.49708;stroke-linecap:round;stroke-linejoin:miter;stroke-dasharray:none" /><path
         style="fill:none;stroke:#000000;stroke-width:1.97758;stroke-linecap:round;stroke-linejoin:miter;stroke-dasharray:none"
         d="m 3157.3278,1842.7301 20.7483,-0.7239 22.8465,0.2901 19.5864,2.6464 21.1883,-2.0854"
         id="path40166-4-3-9-8-9-9-67-8-9" /><path
         style="fill:none;stroke:#000000;stroke-width:1.97758;stroke-linecap:round;stroke-linejoin:miter;stroke-dasharray:none"
         d="m 3157.3278,1882.8827 20.7483,-3.7802 22.9887,1.0047 19.5388,3.0984 21.0937,-2.315"
         id="path40166-5-1-3-9-2-1-04-4-2" /><path
         style="fill:none;stroke:#000000;stroke-width:1.97758;stroke-linecap:round;stroke-linejoin:miter;stroke-dasharray:none"
         d="m 3157.3278,1761.5284 20.7483,-1.3069 22.8588,0.1297 19.5892,-0.6308 21.1732,0.5153"
         id="path40166-48-8-3-7-6-0-84-8-6" /><path
         style="fill:none;stroke:#000000;stroke-width:1.97758;stroke-linecap:round;stroke-linejoin:miter;stroke-dasharray:none"
         d="m 3157.3278,1797.3909 20.7483,1.6287 22.8685,-0.3579 19.5824,-1.5504 21.1703,-2.2211"
         id="path40166-1-9-8-76-6-7-8-8-8" /><path
         id="path42736-1-6-0-4-4-5-1-38-5"
         d="m 3187.6369,1741.793 c 0,1.7125 -0.699,3.0158 -1.5065,4.3938 -1.0129,1.0794 -1.2723,2.725 -2.5977,3.6064 -1.3274,0.8828 -3.6671,1.0644 -5.381,1.0644 -1.7128,0 -3.4375,-0.5978 -4.7932,-1.3704 -1.4614,-0.9159 -2.406,-1.8044 -3.1546,-3.0668 -0.784,-1.3221 -1.0337,-2.7837 -1.0337,-4.5356 0,-1.7123 0.243,-3.6516 1.0251,-5.0436 0.5835,-1.7204 2.2822,-2.3585 3.6908,-3.0988 1.4008,-0.7362 2.7119,-1.2524 4.4197,-1.2524 1.7128,0 3.4896,0.5579 4.8675,1.3648 1.5256,0.8877 2.4697,1.9023 3.232,3.2236 0.7904,1.3701 1.2316,2.9714 1.2316,4.7146 z"
         style="fill:none;fill-opacity:1;stroke:#000000;stroke-width:3.15355;stroke-linecap:round;stroke-linejoin:miter;stroke-dasharray:none" /><path
         id="path42736-1-0-43-5-3-9-8-6-7-2"
         d="m 3187.7421,1779.4238 c 0,1.7124 -0.4965,3.9361 -1.3039,5.3141 -0.727,1.969 -1.8072,3.0215 -3.1578,3.6734 -1.4153,0.6831 -3.3879,0.046 -5.1406,0.046 -1.7128,0 -3.0853,-0.6106 -4.4334,-1.3787 -1.1335,-0.9423 -2.715,-1.8559 -3.5439,-3.1437 -0.8353,-1.2977 -1.0635,-3.0639 -1.0635,-4.7829 0,-1.7125 0.7847,-3.2682 1.5834,-4.6065 1.1033,-1.2796 1.7765,-2.5552 3.0123,-3.3237 1.3118,-0.8157 2.9259,-0.832 4.6898,-0.832 1.7128,0 3.6795,0.4391 5.0518,1.2061 1.7116,0.7582 2.2502,1.4781 2.959,2.7783 0.7378,1.3531 1.3468,3.3029 1.3468,5.0494 z"
         style="fill:none;fill-opacity:1;stroke:#000000;stroke-width:3.15355;stroke-linecap:round;stroke-linejoin:miter;stroke-dasharray:none" /><path
         id="path42736-1-0-0-3-6-0-50-7-8-5-8"
         d="m 3187.5815,1821.1082 c 0,1.7124 -0.4839,3.2959 -1.2913,4.6739 -0.8709,1.4407 -2.0785,2.8382 -3.4193,3.6249 -1.3699,0.8038 -2.4653,1.1025 -4.1965,1.1025 -1.7126,0 -3.5957,-1.0329 -5.0251,-1.8694 -1.576,-1.33 -2.5084,-2.1123 -3.298,-3.2729 -0.9001,-1.3228 -0.9903,-2.4926 -0.9903,-4.3168 0,-1.7123 0.4736,-3.4026 1.2313,-4.7865 0.799,-1.453 1.7981,-2.5389 3.0985,-3.3306 1.3241,-0.8064 2.916,-1.8194 4.6442,-1.8194 1.7127,0 3.4974,0.5877 4.8748,1.483 1.5388,0.9417 2.363,2.7846 3.1232,4.21 0.7816,1.4659 1.2485,2.5651 1.2485,4.3013 z"
         style="fill:none;fill-opacity:1;stroke:#000000;stroke-width:3.15355;stroke-linecap:round;stroke-linejoin:miter;stroke-dasharray:none" /><path
         id="path42736-1-0-4-3-6-3-4-0-5-2-3"
         d="m 3187.5815,1860.8595 c 0,1.7123 -0.4839,3.7627 -1.2913,5.1407 -0.8492,1.9354 -2.0181,2.3085 -3.3107,2.9638 -1.3936,0.7064 -2.5281,0.9188 -4.3051,0.9188 -1.7126,0 -3.5957,-0.5488 -5.0251,-1.339 -1.6373,-0.8713 -2.6085,-1.8434 -3.4047,-3.1394 -0.8329,-1.3556 -0.8836,-2.8304 -0.8836,-4.5813 0,-1.7123 0.4736,-3.1038 1.2313,-4.5006 0.8127,-1.1823 1.837,-3.0145 3.1697,-3.8988 1.309,-0.8685 2.8757,-1.0229 4.573,-1.0229 1.7127,0 3.4974,0.4523 4.8748,1.2586 1.5465,0.7898 2.3753,1.5074 3.1359,2.8716 0.7736,1.3873 1.2358,3.6018 1.2358,5.3285 z"
         style="fill:none;fill-opacity:1;stroke:#000000;stroke-width:3.15355;stroke-linecap:round;stroke-linejoin:miter;stroke-dasharray:none" /><path
         id="path42736-1-0-7-8-4-0-8-4-2-4-6"
         d="m 3215.2426,1860.2215 c 0,1.7124 -0.4839,3.852 -1.2913,5.2301 -0.8622,1.6299 -2.0541,2.8887 -3.3754,3.6242 -1.3795,0.7679 -2.4908,0.8944 -4.2404,0.8944 -1.7127,0 -3.5957,-0.06 -5.0251,-0.8955 -1.7068,-0.4333 -2.7209,-2.1543 -3.5211,-3.7183 -0.7593,-1.4842 -0.7673,-3.1108 -0.7673,-4.7784 0,-1.7123 0.4737,-3.3411 1.2314,-4.7344 0.802,-1.3993 1.8065,-2.766 3.1139,-3.5846 1.3209,-0.8269 2.9074,-1.0303 4.6289,-1.0303 1.7127,0 3.4973,0.3634 4.8747,1.1624 1.5574,0.7055 2.3927,1.5594 3.154,2.9516 0.7621,1.3936 1.2177,3.1657 1.2177,4.8788 z"
         style="fill:none;fill-opacity:1;stroke:#000000;stroke-width:3.15355;stroke-linecap:round;stroke-linejoin:miter;stroke-dasharray:none" /><path
         id="path42736-1-0-3-6-0-9-7-8-19-5-7"
         d="m 3215.128,1820.7594 c 0,1.7124 -0.3237,2.7492 -1.131,4.1272 -0.8929,0.7609 -2.3603,2.5126 -3.7834,3.4934 -1.3332,0.919 -2.4023,1.9365 -4.0593,1.9365 -1.7126,0 -3.4289,-0.8681 -4.8267,-1.6991 -1.4372,-1.1843 -2.6545,-1.9194 -3.4515,-3.1533 -0.8653,-1.3397 -0.7834,-2.6494 -0.7834,-4.4322 0,-1.7124 0.354,-3.3034 1.1061,-4.7078 0.6907,-1.3823 1.6187,-2.6354 2.9729,-3.4783 1.333,-0.8297 3.7156,-1.2877 5.4149,-1.2877 1.7127,0 3.1562,0.5701 4.4509,1.3764 1.1897,0.9103 2.0291,1.8114 2.777,3.1526 0.7555,1.3547 1.3135,2.9514 1.3135,4.6723 z"
         style="fill:none;fill-opacity:1;stroke:#000000;stroke-width:3.15355;stroke-linecap:round;stroke-linejoin:miter;stroke-dasharray:none" /><path
         id="path42736-1-0-75-0-0-2-17-0-96-0-8"
         d="m 3215.1698,1779.1473 c 0,1.7124 -0.3517,2.8964 -1.1591,4.2744 -0.8271,0.6871 -2.2809,2.6944 -3.7421,3.7003 -1.3413,0.9232 -2.4564,1.8238 -4.0957,1.8238 -1.7126,0 -3.2104,0.2359 -4.6198,-0.5961 -1.37,-0.1684 -3.1896,-2.002 -4.0679,-3.7147 -0.772,-1.5055 -0.2733,-3.4549 -0.2733,-5.0571 0,-1.7123 0.6065,-3.0932 1.332,-4.4861 0.9281,-1.1536 1.5907,-2.1529 2.83,-3.0332 1.2476,-0.8862 3.1038,-1.9177 4.8222,-1.9177 1.7128,0 3.2832,0.2671 4.6269,1.0794 1.3601,0.6278 2.3493,2.0357 3.1256,3.5035 0.7484,1.4147 1.2212,2.7428 1.2212,4.4235 z"
         style="fill:none;fill-opacity:1;stroke:#000000;stroke-width:3.15355;stroke-linecap:round;stroke-linejoin:miter;stroke-dasharray:none" /><path
         id="path42736-1-0-6-4-4-5-27-4-06-5-7"
         d="m 3215.4327,1741.5506 c 0,1.7124 -0.4839,3.9965 -1.2912,5.3745 -0.8549,1.797 -2.0338,2.1461 -3.339,2.8372 -1.3874,0.7348 -2.5117,1.2592 -4.2768,1.2592 -1.7128,0 -3.5958,-0.8158 -5.0251,-1.6158 -1.6015,-1.1203 -2.5499,-1.5308 -3.3426,-2.7301 -0.872,-1.3193 -0.9458,-2.8518 -0.9458,-4.6458 0,-1.7123 0.4736,-3.2861 1.2313,-4.7027 0.8053,-1.356 1.8158,-2.7909 3.131,-3.6515 1.3174,-0.862 2.8977,-1.3551 4.6118,-1.3551 1.7127,0 3.4973,0.43 4.8747,1.2591 1.5519,0.7762 2.3841,2.0747 3.145,3.4785 0.7679,1.4164 1.2267,2.7725 1.2267,4.4925 z"
         style="fill:none;fill-opacity:1;stroke:#000000;stroke-width:3.15355;stroke-linecap:round;stroke-linejoin:miter;stroke-dasharray:none" /><path
         id="rect39415-8-6-8-8-4-2-7-7-4-2"
         d="m 3167.9797,1719.5364 0.111,-13.3129 6.8875,0.2294 8.8326,0.3023 5.5741,-0.4427 7.1845,-0.2373 7.407,0.1006 7.5093,0.3151 6.3997,-0.5595 8.2167,0.4899 6.4913,0.1492 7.4851,0.35 6.844,0.08 7.1607,0.056 -0.4662,16.9611 -0.3429,18.7653 0.6634,19.0413 0.045,18.246 0.056,18.2465 0.1061,18.2808 1.8455,18.2731 -0.619,16.696 -0.2078,19.7869 -0.3161,18.2278 0.6964,18.6316 -1.5452,17.6248 -9.2799,-0.1713"
         style="fill:none;stroke:#000000;stroke-width:4.49708;stroke-linecap:round;stroke-linejoin:miter;stroke-dasharray:none"
         sodipodi:nodetypes="ccccccccccccccccccccccccccc" /><path
         id="rect39415-8-6-8-8-4-2-8-9-12-1-6"
         d="m 3179.2131,1705.6043 0.111,-13.3129 6.8875,0.2294 8.8326,0.3023 5.5741,-0.4427 7.1845,-0.2373 7.407,0.1006 7.5093,0.3151 6.3997,-0.5595 8.2167,0.4899 6.4913,0.1492 7.4851,0.3499 6.844,0.08 7.1607,0.056 -0.4662,16.9612 -0.3429,18.7653 0.6634,19.0413 0.045,18.246 0.056,18.2465 0.1061,18.2808 1.8455,18.2731 -0.619,16.696 -0.2078,19.7869 -0.3161,18.2278 0.6964,18.6316 -1.5452,17.6248 -9.2799,-0.1713"
         style="fill:none;stroke:#000000;stroke-width:4.49708;stroke-linecap:round;stroke-linejoin:miter;stroke-dasharray:none"
         sodipodi:nodetypes="ccccccccccccccccccccccccccc" /><path
         style="fill:none;stroke:#000000;stroke-width:4;stroke-linecap:round;stroke-linejoin:bevel;stroke-dasharray:none"
         d="m 2881.8009,1656.4506 c 4.4263,8.193 8.0935,14.1132 12.9038,20.4954 4.2066,5.4716 13.4558,13.2387 19.134,18.099 7.4204,4.4325 8.4362,6.0333 13.1624,8.6272 5.0964,2.1101 11.1792,4.7359 17.4588,6.1215 5.5581,0.6283 12.6466,1.8744 19.4789,1.566 6.5894,-0.3586 14.372,-0.979 21.6186,-2.9951 7.2663,-2.0215 13.1307,-6.8679 20.962,-10.7938 4.8125,12.4673 11.1892,24.9179 16.2833,36.1416 6.3987,11.4336 9.9995,21.0901 15.3114,30.6778 5.5146,9.9423 12.0611,19.6109 18.2113,28.123 6.8218,8.7859 12.4946,16.0122 19.3026,22.8884 7.1571,7.1591 14.7113,13.4504 22.8671,18.9406 8.3187,5.5228 15.9094,7.2467 25.4846,11.0711 9.491,3.7908 19.9419,7.9347 31.179,10.0411"
         id="path22371-3-2-6"
         sodipodi:nodetypes="ccc"
         inkscape:original-d="m 2881.8009,1656.4506 c 30.9839,57.3509 70.9722,70.007 125.6371,42.603 33.6874,87.2715 70.8328,143.5712 148.5942,158.1478"
         inkscape:path-effect="#path-effect28253-1" /><path
         style="fill:none;stroke:#000000;stroke-width:4;stroke-linecap:round;stroke-linejoin:bevel;stroke-dasharray:none"
         d="m 2886.6661,1684.2295 c 4.4622,11.3039 8.9221,19.9375 15.0792,28.6179 5.532,7.7676 16.7026,17.3949 24.6659,23.6643 9.6453,5.8732 13.1911,8.5127 20.6018,11.7322 7.8417,2.6401 16.837,5.3324 25.9666,6.3199 8.416,0.2417 18.2717,0.5975 27.587,-1.0726 9.1294,-1.7047 19.1774,-4.1604 28.238,-8.4628 9.8467,-3.8722 16.8683,-11.5602 25.2259,-18.7381 8.4139,-7.2263 18.857,-13.8108 26.535,-23.8313 0.643,6.7461 1.5207,13.6234 2.6433,20.5159 1.1325,6.8972 3.2875,14.2375 4.9503,21.0724 2.403,7.0716 3.5854,13.2263 5.7326,19.6053 2.319,6.6083 4.857,12.9695 7.7022,19.0744 2.9932,6.1431 4.9887,9.038 8.5513,14.5035 2.9082,3.1442 7.6589,10.3401 12.7929,15.8515 3.6451,3.104 11.043,9.8469 16.6293,14.086 5.2887,4.0134 9.6796,7.4192 15.4598,9.5509"
         id="path22371-0-0-2-2"
         sodipodi:nodetypes="ccc"
         inkscape:original-d="m 2886.6661,1684.2295 c 35.6978,90.4313 131.5851,97.045 192.4245,17.6445 5.1435,53.9684 26.1166,116.4237 75.8549,134.7669"
         inkscape:path-effect="#path-effect28251-7" /></g></g></svg>
