<?xml version="1.0" encoding="UTF-8" standalone="no"?>
<!-- Created with Inkscape (http://www.inkscape.org/) -->

<svg
   version="1.1"
   id="svg176"
   width="1331.5361"
   height="846.66309"
   viewBox="0 0 1331.5362 846.66309"
   sodipodi:docname="website for ai.svg"
   xml:space="preserve"
   inkscape:version="1.2.2 (b0a8486541, 2022-12-01)"
   xmlns:inkscape="http://www.inkscape.org/namespaces/inkscape"
   xmlns:sodipodi="http://sodipodi.sourceforge.net/DTD/sodipodi-0.dtd"
   xmlns="http://www.w3.org/2000/svg"
   xmlns:svg="http://www.w3.org/2000/svg"><defs
     id="defs180"><linearGradient
       id="linearGradient1486"
       inkscape:swatch="solid"><stop
         style="stop-color:#000000;stop-opacity:1;"
         offset="0"
         id="stop1484" /></linearGradient><rect
       x="-1955.4146"
       y="630.24219"
       width="1257.7179"
       height="207.95268"
       id="rect3105-5-5-97-13-9-1-5-6-0-6-9-6-7-6-4-6-7-70-0" /><rect
       x="-1955.4146"
       y="630.24219"
       width="1257.7179"
       height="207.95268"
       id="rect3105-5-5-97-13-9-1-5-6-0-6-9-6-7-6-4-6-1-3-3-74-6" /></defs><sodipodi:namedview
     id="namedview178"
     pagecolor="#ffffff"
     bordercolor="#000000"
     borderopacity="0.25"
     inkscape:showpageshadow="2"
     inkscape:pageopacity="0.0"
     inkscape:pagecheckerboard="0"
     inkscape:deskcolor="#d1d1d1"
     showgrid="false"
     showguides="false"
     inkscape:zoom="0.09200119"
     inkscape:cx="2641.2702"
     inkscape:cy="-3423.8688"
     inkscape:window-width="1920"
     inkscape:window-height="1011"
     inkscape:window-x="0"
     inkscape:window-y="0"
     inkscape:window-maximized="1"
     inkscape:current-layer="g21862"><inkscape:grid
       type="xygrid"
       id="grid2722" /></sodipodi:namedview><g
     inkscape:groupmode="layer"
     inkscape:label="Image"
     id="g182"
     transform="translate(-13607.5,14409.835)"><g
       id="g100848"><path
         id="rect26104-0-2"
         style="opacity:0;stroke-width:4;stroke-linecap:round;stroke-linejoin:bevel"
         d="m 13607.5,-14409.835 h 1331.536 v 846.663 H 13607.5 Z" /><g
         aria-label="we add"
         transform="matrix(1.1664129,0,0,1.1664129,15888.32,-15023.456)"
         id="text3103-6-6-90-4-4-9-7-2-2-7-4-2-5-0-1-9-0-27-6"
         style="font-size:82.3036px;font-family:'Canted Comic';-inkscape-font-specification:'Canted Comic, Normal';white-space:pre;shape-inside:url(#rect3105-5-5-97-13-9-1-5-6-0-6-9-6-7-6-4-6-7-70-0);display:inline;stroke:#000000;stroke-width:0;stroke-linejoin:round"><path
           d="m -1945.4553,666.13831 5.3497,29.13548 1.8107,-5.59665 3.3744,-11.4402 4.8559,-17.69527 0.9877,-2.88063 c 0,-0.24691 0.082,-0.41152 0.1646,-0.49382 l 0.1646,-0.41152 c 0.9053,-1.39916 2.1399,-2.13989 3.6214,-2.13989 1.0699,0 1.9752,0.32921 2.716,0.90534 0.3292,0.32921 0.5761,0.57612 0.6584,0.82304 l 0.6584,1.06994 0.4939,1.31686 2.3868,7.98345 4.1974,13.08627 c 2.3869,7.57193 3.9506,12.67475 4.609,15.39077 l 6.3374,-20.49359 c 1.9753,-6.33738 3.5391,-12.26324 4.609,-17.77758 0.4115,-2.2222 1.7284,-3.29214 3.9506,-3.29214 0.4115,0 0.7407,0 0.9053,0.0823 2.2222,0.41152 3.2922,1.72838 3.2922,3.95057 0,0.49382 0,0.82304 -0.082,0.90534 -1.07,5.59665 -2.716,11.76942 -4.7736,18.51831 l -6.0905,19.34135 -0.823,2.96293 c -0.7408,2.88062 -1.6461,5.51434 -2.7161,7.90114 -1.3991,2.63372 -3.1275,4.03288 -5.1028,4.19748 h -0.1646 c -2.3868,0 -3.6213,-0.90533 -5.2674,-6.17276 -1.07,-4.3621 -2.3045,-9.0534 -3.7037,-14.15622 l -3.2098,-10.12335 -2.716,-8.14805 c -3.3745,12.26323 -6.0905,21.31663 -8.1481,27.24249 -0.9876,2.79832 -1.6461,4.36209 -1.893,4.77361 -1.7283,3.53905 -3.9505,5.34973 -6.6666,5.34973 -1.646,0 -2.8806,-0.57612 -3.7036,-1.64607 -0.3292,-0.32922 -0.5761,-0.74073 -0.6585,-1.15225 l -0.1646,-0.57613 c -0.082,-0.0823 -0.082,-0.24691 -0.082,-0.49382 l -1.2345,-5.92586 -4.4444,-24.44417 c -0.7407,-4.85591 -1.893,-10.45255 -3.3745,-16.87223 -0.082,-0.0823 -0.082,-0.41152 -0.082,-0.82304 0,-2.2222 1.07,-3.53905 3.2099,-4.11518 0.1646,-0.0823 0.4938,-0.0823 0.9053,-0.0823 2.1399,0 3.4568,1.06994 4.0329,3.20984 z"
           id="path100774" /><path
           d="m -1844.3041,700.1297 h 0.4938 c 2.5514,0 3.9506,1.15225 4.1975,3.53905 v 0.57613 c 0,2.3868 -1.1523,3.78596 -3.5391,4.11518 l -3.7036,0.49382 -13.9094,2.2222 -10.5348,1.48146 c -1.5638,0.24691 -2.8806,0.41152 -3.8683,0.49382 -0.2469,0.0823 -0.823,0.0823 -1.5638,0.0823 -0.3292,0 -0.9053,-0.0823 -1.646,-0.16461 -3.0453,-0.74073 -5.1852,-2.13989 -6.5843,-4.27979 -0.4115,-0.57612 -0.5761,-1.06994 -0.5761,-1.39916 v -42.46865 c 0,-1.06995 0,-1.64608 0.082,-1.89299 0.7407,-5.84355 4.1151,-7.65423 11.6048,-8.39496 10.6171,-1.39917 19.8351,-2.05759 27.7363,-2.05759 2.3045,0 4.1152,1.81068 4.1152,4.11518 0,2.3045 -1.8107,4.11518 -4.1152,4.11518 -6.6666,0 -15.6377,0.65842 -26.7487,1.97528 -1.5638,0.16461 -2.6337,0.32922 -3.3744,0.49382 -0.6585,0.0823 -0.9877,0.32922 -0.9877,0.82304 v 4.27979 c 0,5.67894 0,9.87643 -0.082,12.51014 l 29.6293,-4.85591 c 0.082,-0.0823 0.4115,-0.0823 0.8231,-0.0823 2.2222,0 3.539,1.15225 3.9505,3.37445 v 0.82303 c 0,2.3045 -1.1522,3.62136 -3.4567,3.95057 -9.4649,1.56377 -19.8352,3.29215 -31.0285,5.10283 v 15.55538 l 0.5761,0.1646 h 0.9877 l 3.4567,-0.41151 c 2.5515,-0.32922 6.0082,-0.82304 10.3703,-1.48147 z"
           id="path100776" /><path
           d="m -1812.1234,707.86624 c 0.9053,-11.3579 5.8435,-25.92564 14.8146,-43.78552 2.2222,-4.36209 4.1975,-7.73653 5.7613,-9.95873 1.5637,-2.1399 3.1275,-3.20984 4.7736,-3.20984 0.4115,0 0.7407,0 0.823,0.0823 1.2346,0.24691 2.0576,0.65843 2.4691,1.39916 l 0.3292,0.32922 c 0.1647,0.24691 0.3293,0.57612 0.4939,0.98764 0.2469,0.41152 0.5761,1.06995 0.9053,1.81068 0.3292,0.57612 0.9053,2.13989 1.8107,4.6913 l 2.716,7.40733 c 0.7407,1.89298 1.9753,5.67895 3.8683,11.27559 l 4.609,14.48543 3.4567,11.3579 0.1646,1.23455 c 0,2.05759 -0.9876,3.37445 -2.8806,3.95058 l -1.2345,0.1646 c -2.0576,0 -3.3745,-0.98764 -3.9506,-2.88062 l -4.609,-15.06156 c -2.8806,0.65843 -6.3374,1.56377 -10.3703,2.63371 -8.3126,2.38681 -13.0039,3.62136 -14.0739,3.86827 -0.9053,3.37445 -1.3992,6.6666 -1.6461,9.87644 -0.2469,2.55141 -1.5637,3.78596 -4.1151,3.78596 -0.1647,0 -0.247,0 -0.3293,-0.0823 -2.5514,-0.0823 -3.7859,-1.48147 -3.7859,-4.11518 z m 24.6088,-44.52625 c -1.07,1.81068 -1.8107,3.29214 -2.3869,4.5267 -4.362,8.80648 -7.5719,15.9669 -9.4649,21.56354 0.9054,-0.24691 3.9506,-1.06995 8.9711,-2.55141 5.0205,-1.39916 8.395,-2.2222 10.1234,-2.63372 -1.5638,-4.85591 -3.1276,-9.46491 -4.6913,-13.66239 z"
           id="path100778" /><path
           d="m -1757.0623,684.49202 c 0.082,-7.07811 0.4115,-14.15622 0.823,-21.23433 -1.5637,-0.49382 -2.4691,-1.56377 -2.7983,-3.12754 -0.082,-0.0823 -0.082,-0.41152 -0.082,-0.90534 0,-2.2222 1.0699,-3.53905 3.2921,-3.95057 7.572,-1.39916 13.6624,-2.1399 18.1891,-2.1399 h 1.893 c 9.9588,0.41152 17.5307,3.37445 22.7158,8.88879 2.9629,3.12754 4.7736,6.66659 5.5144,10.69947 0.1646,1.15225 0.2469,2.38681 0.2469,3.62136 0,2.96293 -0.6585,6.33738 -1.893,10.12334 -5.2674,14.15622 -16.4607,20.08208 -30.0408,22.9627 -2.7984,0.57613 -5.2675,0.90534 -7.4074,0.90534 -3.8682,0 -6.5019,-0.98764 -8.0657,-3.04523 -1.5638,-2.05759 -2.3868,-8.64188 -2.3868,-19.67056 z m 9.1357,-21.81046 c -0.4938,5.34974 -0.823,12.67476 -0.9053,21.89276 v 2.96293 c 0,3.70366 0.082,6.9958 0.2469,9.71182 0.082,1.97529 0.2469,3.37445 0.4115,4.27979 0.082,0.0823 0.082,0.16461 0.082,0.32921 l 0.082,0.41152 c 0.1646,0.0823 0.5761,0.0823 1.2345,0.0823 1.4815,-0.0823 3.6214,-0.41152 6.502,-1.06995 13.1686,-3.53906 19.506,-7.40732 23.3742,-17.61297 0.9877,-2.55141 1.4815,-4.93822 1.4815,-7.16041 0,-10.78177 -10.3702,-14.73235 -20.6582,-15.14387 -0.2469,-0.0823 -0.9876,-0.0823 -2.0576,-0.0823 -2.6337,0 -5.9258,0.32922 -9.7941,0.90534 z"
           id="path100780" /><path
           d="m -1696.3222,684.49202 c 0.082,-7.07811 0.4115,-14.15622 0.8231,-21.23433 -1.5638,-0.49382 -2.4692,-1.56377 -2.7984,-3.12754 -0.082,-0.0823 -0.082,-0.41152 -0.082,-0.90534 0,-2.2222 1.07,-3.53905 3.2922,-3.95057 7.5719,-1.39916 13.6624,-2.1399 18.1891,-2.1399 h 1.893 c 9.9587,0.41152 17.5306,3.37445 22.7157,8.88879 2.963,3.12754 4.7737,6.66659 5.5144,10.69947 0.1646,1.15225 0.2469,2.38681 0.2469,3.62136 0,2.96293 -0.6584,6.33738 -1.893,10.12334 -5.2674,14.15622 -16.4607,20.08208 -30.0408,22.9627 -2.7983,0.57613 -5.2674,0.90534 -7.4073,0.90534 -3.8683,0 -6.502,-0.98764 -8.0658,-3.04523 -1.5637,-2.05759 -2.3868,-8.64188 -2.3868,-19.67056 z m 9.1357,-21.81046 c -0.4938,5.34974 -0.823,12.67476 -0.9053,21.89276 v 2.96293 c 0,3.70366 0.082,6.9958 0.2469,9.71182 0.082,1.97529 0.2469,3.37445 0.4115,4.27979 0.082,0.0823 0.082,0.16461 0.082,0.32921 l 0.082,0.41152 c 0.1646,0.0823 0.5761,0.0823 1.2346,0.0823 1.4814,-0.0823 3.6213,-0.41152 6.502,-1.06995 13.1685,-3.53906 19.5059,-7.40732 23.3742,-17.61297 0.9876,-2.55141 1.4814,-4.93822 1.4814,-7.16041 0,-10.78177 -10.3702,-14.73235 -20.6582,-15.14387 -0.2469,-0.0823 -0.9876,-0.0823 -2.0576,-0.0823 -2.6337,0 -5.9258,0.32922 -9.7941,0.90534 z"
           id="path100782" /></g><g
         aria-label="."
         transform="matrix(1.1664129,0,0,1.1664129,16426.191,-15018.944)"
         id="text3103-6-6-90-4-4-9-7-2-2-7-4-2-5-0-1-9-0-4-7-9-6"
         style="font-size:82.3036px;font-family:'Canted Comic';-inkscape-font-specification:'Canted Comic, Normal';white-space:pre;shape-inside:url(#rect3105-5-5-97-13-9-1-5-6-0-6-9-6-7-6-4-6-1-3-3-74-6);display:inline;stroke:#000000;stroke-width:0;stroke-linejoin:round"><path
           d="m -1941.2578,700.29431 c 0.9876,1.06994 1.4814,2.3045 1.4814,3.70366 0,2.96293 -2.3045,5.26743 -5.1851,5.26743 -2.9629,0 -5.2674,-2.3045 -5.2674,-5.26743 0,-2.88063 2.3045,-5.18513 5.2674,-5.18513 1.3992,0 2.6337,0.49382 3.7037,1.48147 z"
           id="path100785" /></g><path
         style="fill:#000000;fill-opacity:1;stroke:#000000;stroke-width:7.81059;stroke-linecap:round;stroke-linejoin:bevel;stroke-dasharray:none;stroke-opacity:1"
         d="m 14059.148,-14230.025 h -45.24"
         id="path217951-0-2-9-9-7-95-4" /><g
         style="fill:#000000;fill-opacity:1"
         id="g61-7-7-2-9"
         transform="matrix(13.641461,0,0,13.641461,13209.665,-14306.605)">
      <g
   id="use59-7-6-0-5"
   transform="translate(62.694,8.302)">
        <path
   style="stroke:none"
   d="m 5.671875,-4.875 c -0.390625,0.0625 -0.53125,0.359375 -0.53125,0.578125 0,0.296875 0.21875,0.390625 0.390625,0.390625 0.359375,0 0.609375,-0.3125 0.609375,-0.640625 0,-0.5 -0.578125,-0.71875 -1.078125,-0.71875 -0.71875,0 -1.125,0.71875 -1.234375,0.9375 -0.28125,-0.890625 -1.015625,-0.9375 -1.234375,-0.9375 -1.21875,0 -1.859375,1.5625 -1.859375,1.828125 0,0.046875 0.046875,0.109375 0.125,0.109375 0.09375,0 0.125,-0.078125 0.140625,-0.125 0.40625,-1.328125 1.21875,-1.578125 1.5625,-1.578125 0.53125,0 0.640625,0.5 0.640625,0.78125 0,0.265625 -0.078125,0.546875 -0.21875,1.125 L 2.578125,-1.5 c -0.171875,0.71875 -0.515625,1.375 -1.15625,1.375 -0.0625,0 -0.359375,0 -0.609375,-0.15625 C 1.25,-0.359375 1.34375,-0.71875 1.34375,-0.859375 1.34375,-1.09375 1.15625,-1.25 0.9375,-1.25 c -0.296875,0 -0.609375,0.265625 -0.609375,0.640625 0,0.5 0.5625,0.734375 1.078125,0.734375 0.578125,0 0.984375,-0.453125 1.234375,-0.953125 C 2.828125,-0.125 3.4375,0.125 3.875,0.125 5.09375,0.125 5.734375,-1.453125 5.734375,-1.703125 5.734375,-1.765625 5.6875,-1.8125 5.625,-1.8125 5.515625,-1.8125 5.5,-1.75 5.46875,-1.65625 5.140625,-0.609375 4.453125,-0.125 3.90625,-0.125 3.484375,-0.125 3.265625,-0.4375 3.265625,-0.921875 3.265625,-1.1875 3.3125,-1.375 3.5,-2.15625 L 3.921875,-3.796875 C 4.09375,-4.5 4.5,-5.03125 5.0625,-5.03125 c 0.015625,0 0.359375,0 0.609375,0.15625 z m 0,0"
   id="path92-5-9-8-0" />
      </g>
    </g></g></g></svg>
