<?xml version="1.0" encoding="UTF-8" standalone="no"?>
<!-- Created with Inkscape (http://www.inkscape.org/) -->

<svg
   version="1.1"
   id="svg176"
   width="1505.8203"
   height="995.72852"
   viewBox="0 0 1505.8203 995.72852"
   sodipodi:docname="website for ai.svg"
   xml:space="preserve"
   inkscape:version="1.2.2 (b0a8486541, 2022-12-01)"
   xmlns:inkscape="http://www.inkscape.org/namespaces/inkscape"
   xmlns:sodipodi="http://sodipodi.sourceforge.net/DTD/sodipodi-0.dtd"
   xmlns="http://www.w3.org/2000/svg"
   xmlns:svg="http://www.w3.org/2000/svg"><defs
     id="defs180"><linearGradient
       id="linearGradient1486"
       inkscape:swatch="solid"><stop
         style="stop-color:#000000;stop-opacity:1;"
         offset="0"
         id="stop1484" /></linearGradient></defs><sodipodi:namedview
     id="namedview178"
     pagecolor="#ffffff"
     bordercolor="#000000"
     borderopacity="0.25"
     inkscape:showpageshadow="2"
     inkscape:pageopacity="0.0"
     inkscape:pagecheckerboard="0"
     inkscape:deskcolor="#d1d1d1"
     showgrid="false"
     showguides="false"
     inkscape:zoom="0.09200119"
     inkscape:cx="2641.2702"
     inkscape:cy="-3423.8688"
     inkscape:window-width="1920"
     inkscape:window-height="1011"
     inkscape:window-x="0"
     inkscape:window-y="0"
     inkscape:window-maximized="1"
     inkscape:current-layer="g21862"><inkscape:grid
       type="xygrid"
       id="grid2722" /></sodipodi:namedview><g
     inkscape:groupmode="layer"
     inkscape:label="Image"
     id="g182"
     transform="translate(-12866.777,17729.525)"><g
       id="g34695"><path
         id="rect83864-5-5-2"
         style="opacity:0;stroke-width:20.0114;stroke-linecap:round;stroke-linejoin:round"
         d="m 12866.784,-17729.526 h 1505.813 v 995.729 h -1505.813 z" /><path
         style="fill:none;stroke:#000000;stroke-width:106.467;stroke-linecap:round;stroke-linejoin:round;stroke-dasharray:none;stroke-dashoffset:0;stroke-opacity:1"
         d="m 13741.939,-17019.918 7.827,4.917 12.843,2.844 7.679,4.599 9.585,5.438 10.205,5.048 10.429,4.188 7.296,4.662 12.277,4.267 9.028,4.435 10.358,4.175 9.24,4.447 9.602,4.594 6.217,4.344 10.27,6.087 11.962,4.285 9.619,4.656 9.62,4.62 9.761,4.536 11.68,0.783 5.877,3.709 13.024,6.237 9.539,4.71 11.578,2.916 8.204,4.383 9.574,5.032 8.8,5.007 9.144,5.42 8.334,4.636 10.657,5.866 9.631,5.077 6.954,4.257 13.959,3.882 9.567,4.295 10.336,4.073 10.157,2.393 7.264,5.411 11.529,5.301 5.123,4.181 12.873,6.815 10.042,3.318 8.21,5.732 11.377,4.887 7.696,5.257 9.309,5.711 5.879,5.05 10.417,6.674 7.76,5.243 9.974,5.286 7.88,3.869 11.602,5.334"
         id="path43010-0-7-3"
         sodipodi:nodetypes="cc" /><path
         id="path43064-4-4-9"
         d="m 13570.006,-17603.974 c 5.372,3.124 10.655,6.527 15.848,9.84 5.38,3.21 14.998,1.165 19.977,4.629 9.64,-2.116 11.536,4.588 16.221,8.141 6.809,1.456 2.475,4.239 7.186,8.145 -0.489,2.298 12.965,11.409 19.331,17.374 4.16,4.246 10.79,7.761 15.097,12.156 5.948,3.382 7.687,8.456 11.578,12.756 3.737,4.607 10.859,6.469 14.759,11.156 6.694,2.06 7.811,9.494 11.534,14.378 3.716,4.762 9.926,6.706 13.383,11.651 6.348,2.243 6.911,10.545 10.314,15.915 3.001,5.167 3.896,10.393 6.933,15.656 0.692,5.6 8.192,9.767 11.155,15.439 4.74,4.025 6.323,10.579 8.925,16.094 3.33,5.099 6.551,10.165 8.877,15.644 3.918,4.854 7.031,9.917 9.143,15.506 4.623,4.549 7.823,8.08 9.731,13.839 5.779,3.095 -0.409,12.023 1.406,18.534 -2.708,5.577 4.052,12.625 5.57,19.129 1.974,5.585 0.07,11.602 1.209,17.489 -1.377,5.902 5.308,7.992 6.256,14.02 4.2,3.024 6.106,10.783 6.902,17.877 4.83,3.612 -1.014,12.392 -0.561,19.362 -1.976,5.012 -0.09,12.98 0.09,19.468 -0.65,5.964 1.855,9.352 1.825,15.244 1.6,4.321 -0.903,13.374 -1.202,20.124 -0.955,5.842 -6.019,8.841 -6.465,14.745 -5.908,3.699 -0.736,13.118 -1.398,19.797 -0.25,5.719 0.333,10.783 -0.384,16.68 0.808,5.225 -3.586,11.918 -4.525,18.14 -2.873,5.37 -3.639,11.721 -4.656,17.595 -2.799,5.697 2.138,8.089 1.049,13.79 2.808,3.753 -4.206,14.181 -5.894,21.334 -2.668,5.643 -4.125,11.608 -5.627,17.298 -2.843,5.829 -3.095,11.236 -4.687,16.8 -1.735,5.814 -3.255,11.361 -5.051,17.057 -1.726,5.678 -2.824,10.474 -4.863,16.211 -1.214,4.925 -9.031,11.838 -11.61,17.944 -6.806,5.113 -5.992,10.159 -7.54,15.642 -1.698,6.014 2.746,9.338 -0.275,14.659 -3.08,5.444 -11.348,8.13 -14.62,13.399 -8.236,2.399 -7.161,9.701 -10.474,14.609 -4.15,4.633 -6.849,9.906 -10.38,14.73 -3.585,4.866 -2.945,6.27 -6.662,10.956 -0.57,2.716 -10.92,12.188 -16.001,17.979 -4.881,4.43 -3.995,6.185 -7.866,10.282 -1.462,3.051 -10.838,10.62 -16.058,15.656 -4.826,4.108 -14.635,4.955 -18.857,8.741 -9.996,0.379 -10.379,6.607 -14.074,9.729 -6.893,3.382 -4.263,1.705 -8.123,4.777 -2.537,0.05 -8.942,6.829 -15.003,11.227 -2.7,1.683 -10.32,7.607 -16.083,11.439 -4.054,2.929 -8.753,5.489 -13.898,8.649 -3.96,2.164 -9.568,6.041 -15.012,9.114 -4.138,2.578 -10.368,5.796 -15.756,8.587 -4.861,2.573 -7.059,1.792 -12.26,4.264 -3.159,-0.391 -9.617,2.736 -16.121,5.508 -3.215,-0.461 -10.4,1.11 -16.945,3.603 -3.885,-1.809 -8.617,-0.756 -15.12,1.458 -2.804,-3.122 -12.02,3.776 -19.18,5.936 -3.952,0.93 -10.841,3.02 -16.966,4.669 -4.546,1.029 -12.153,3.168 -18.041,4.571 -5.776,1.378 -12.02,2.193 -17.342,3.312 -6.496,0.81 -7.708,1 -12.78,1.932 -3.908,0.1 -11.915,1.926 -18.268,2.883 -5.062,0.58 -15.569,0.878 -21.373,1.575 -8.35,-0.257 -9.09,0.933 -13.412,1.355 -5.903,0.476 -11.042,0.99 -16.484,1.361 -5.713,0.382 -13.666,0.423 -19.225,0.62 -7.361,-0.08 -9.675,0.274 -14.479,0.302 -5.687,0.03 -10.68,-0.33 -16.303,-0.511 -5.258,-0.483 -12.978,-0.255 -18.837,-0.692 -6.535,-0.154 -8.932,-1.679 -14.218,-2.305 -4.515,-1.51 -10.611,-2.391 -16.844,-3.439 -4.355,-1.813 -9.582,-3.819 -15.896,-5.173 -3.473,-2.959 -13.145,-2.848 -19.827,-4.477 -5.742,-1.37 -7.501,-8.142 -13.202,-9.786 -2.565,-7.126 -12.313,-3.702 -19.31,-5.104 -4.831,-1.685 -13.221,-2.141 -19.21,-3.652 -6.113,-1.543 -11.187,-3.611 -16.124,-6.483 -5.372,-3.125 -10.731,-6.338 -15.926,-9.653 -5.255,-3.294 -9.465,-6.959 -14.466,-10.441 -4.35,-3.85 -10.631,-7.241 -15.593,-11.011 -5.165,-3.577 -10.435,-7.62 -15,-11.384 -5.433,-3.951 -11.864,-7.906 -16.089,-11.668 -6.965,-3.978 -7.331,-6.978 -10.991,-10.471 -4.145,-4.301 -8.943,-8.273 -13.09,-12.566 -4.457,-4.157 -10.049,-8.841 -13.959,-13.228 -5.57,-4.347 -7.853,-8.046 -11.311,-12.234 -4.4,-4.351 -4.256,-13.083 -7.78,-17.72 -0.195,-8.343 -7.545,-9.046 -10.68,-13.49 -4.247,-4.872 -3.45,-10.579 -6.486,-15.244 -0.359,-6.399 -10.306,-10.38 -13.354,-15.486 -6.501,-4.684 -0.605,-12.7 -3.05,-17.133 1.923,-8.652 -4.937,-9.602 -7.366,-14.38 -2.432,-5.277 -5.128,-10.304 -7.537,-15.506 -2.436,-5.238 -4.513,-10.783 -6.734,-16.084 -1.972,-5.55 -4.397,-10.576 -6.404,-15.906 -2.106,-5.395 -2.891,-11.177 -4.714,-16.625 -0.761,-5.831 -3.373,-11.013 -4.996,-16.527 -1.445,-5.588 -10.382,-15.101 -11.796,-20.677 -8.209,-7.838 -1.812,-7.675 -2.662,-11.507 -1.206,-5.764 -4.902,-11.275 -5.915,-17.032 -3.496,-5.557 -0.896,-11.904 -1.635,-17.69 0.25,-6.16 1.123,-13.185 0.651,-19.001 2.026,-6.99 -1.545,-10.653 -1.769,-16.068 -1.023,-5.78 -1.974,-12.318 -1.953,-18.276 -1.595,-6.221 -2.391,-12.601 -2.1,-18.416 -2.281,-6.696 -1.042,-11.23 -0.465,-16.946 -1.134,-5.938 3.464,-14.549 4.45,-20.702 2.84,-7.326 2.059,-10.455 3.083,-15.518 1.489,-6.06 4.122,-12.226 5.553,-17.969 3.012,-6.149 6.77,-15.093 8.323,-20.524 5.137,-8.326 0.431,-8.1 1.654,-12.161 -0.133,-5.895 3.51,-12.049 5.58,-17.964 1.747,-5.763 5.036,-12.407 7.323,-18.093 3.003,-6.249 6.085,-12.034 8.385,-17.249 3.991,-6.586 7.905,-15.253 10.126,-20.153 5.514,-9.638 7.047,-10.664 8.532,-14.078 2.115,-4.86 2.701,-7.864 6.709,-14.945 3.083,-5.444 9.725,-13.163 12.99,-18.426 6.037,-6.514 3.23,-7.924 5.908,-11.959 1.682,-5.181 9.735,-14.032 13.588,-19.315 5.138,-7.004 1.533,-8.14 4.444,-11.882 0.06,-5.881 6.448,-10.508 10.862,-15.662 2.213,-4.824 9.203,-10.803 13.672,-15.567 4.437,-5.065 10.298,-11.775 14.322,-15.739 5.711,-6.785 5.838,-6.394 9.18,-9.481 3.811,-4.224 9.862,-8.5 14.542,-12.46 5.09,-3.934 2.663,-8.975 7.155,-12.473 -0.342,-6.198 11.647,-8.847 17.662,-13.022 4.869,-3.409 11.356,-7.244 16.423,-10.44 6.029,-3.413 10.586,-6.21 15.296,-8.925 6.046,-3.216 7.677,-5.103 12.49,-7.631 3.947,-2.781 12.357,-6.2 18.253,-8.947 5.848,-2.662 10.083,-4.607 15.261,-6.771 5.322,-2.249 12.896,-5.435 18.454,-7.486 6.734,-2.761 11.299,-6.234 16.175,-7.834 6.452,-4.348 6.373,-3.356 11.232,-4.754 3.398,-2.206 14.013,-3.965 20.792,-5.541 6.107,-1.576 13.218,-3.383 18.779,-4.435 7.173,-1.884 10.952,-3.011 15.988,-3.769 6.386,-2.034 14.401,-3.737 19.878,-4.334 8.107,-2.709 8.148,-1.189 12.779,-1.525 5.174,-0.721 10.484,-1.74 16.781,-1.887 4.534,-1.14 9.901,-1.972 16.564,-1.78 3.707,-1.634 13.818,0.719 20.978,1.332 5.598,0.617 13.574,-0.04 19.618,0.745 6.948,-0.506 11.7,0.996 17.107,1.929 6.472,0.432 6.197,-0.579 11.759,0.623 2.567,-1.002 16.295,2.779 23.925,4.896 6.584,0.768 10.672,3.084 16.078,4.82 5.546,1.789 6.915,3.298 12.583,5.361 2.365,1.997 11.395,4.221 18.379,7.02 3.838,1.57 12.606,5.042 18.953,7.776 5.567,2.286 10.551,4.826 15.999,7.312 5.227,2.607 9.696,5.396 15.21,8.04 4.371,3.035 11.792,5.453 17.618,8.26 5.723,2.588 11.333,5.163 16.627,7.909 5.693,2.95 11.115,5.914 16.223,8.886 z"
         style="fill:#ffffff;fill-opacity:1;stroke:#000000;stroke-width:44.3946;stroke-linecap:round;stroke-linejoin:round;stroke-dasharray:none;stroke-dashoffset:0;stroke-opacity:1" /><path
         d="m 13146.755,-16989.361 c 0,-9.993 0.875,-19.403 2.553,-28.229 0.364,-1.969 1.531,-2.917 3.501,-2.917 0.365,0 0.656,0 0.802,0.07 1.97,0.364 2.918,1.532 2.918,3.501 0,0.438 0,0.729 -0.07,0.802 -1.532,8.534 -2.334,18.527 -2.334,30.125 l 0.146,9.92 c 6.2,0 13.056,-0.511 20.569,-1.605 l 11.16,-1.532 c 0.07,-0.07 0.292,-0.07 0.584,-0.07 2.115,0 3.282,1.022 3.574,3.064 v 0.511 c 0,2.261 -1.022,3.428 -3.137,3.647 -9.92,1.531 -17.724,2.48 -23.341,2.844 -4.449,0.219 -7.878,0.365 -10.139,0.365 h -2.626 c -1.677,-0.07 -2.771,-0.875 -3.355,-2.553 -0.292,-0.584 -0.437,-1.167 -0.51,-1.751 -0.219,-7.658 -0.292,-12.618 -0.292,-14.734 z"
         id="path34238"
         style="font-size:64px;font-family:'Canted Comic';-inkscape-font-specification:'Canted Comic, Normal';white-space:pre;stroke:#000000;stroke-width:0;stroke-linejoin:round" /><path
         d="m 13228.595,-17018.465 c 0.364,0.146 0.583,0.219 0.656,0.292 0.802,0.292 1.386,0.802 1.751,1.532 0.364,0.364 0.729,0.729 1.021,1.24 1.823,3.501 2.917,7.513 3.355,12.108 l 0.146,3.793 c 0,8.315 -2.115,15.39 -6.346,21.153 -2.991,4.303 -7.221,7.294 -12.838,8.971 -2.042,0.584 -3.865,0.876 -5.47,0.949 h -0.365 c -8.169,0 -13.786,-5.763 -15.026,-13.057 -0.364,-1.386 -0.51,-3.136 -0.51,-5.179 0,-1.604 0.219,-3.501 0.583,-5.689 2.699,-12.911 11.525,-24.362 20.934,-27.353 1.532,-0.437 3.137,-0.656 4.742,-0.656 2.115,0 4.157,0.437 6.127,1.313 z m -2.918,6.638 c -0.657,-0.219 -1.021,-0.438 -1.094,-0.511 -1.021,-0.51 -2.115,-0.729 -3.21,-0.729 -5.324,0 -11.378,4.887 -15.682,13.64 -2.115,4.449 -3.282,8.68 -3.355,12.764 -0.07,0.07 -0.07,0.292 -0.07,0.511 0,6.929 2.772,10.431 8.242,10.431 2.918,0 5.908,-1.095 8.899,-3.21 1.751,-1.094 3.064,-2.334 3.939,-3.647 2.772,-3.866 4.376,-8.607 4.814,-14.223 0.07,-0.438 0.07,-1.386 0.07,-2.772 0,-4.377 -0.875,-8.461 -2.553,-12.254 z"
         id="path34240"
         style="font-size:64px;font-family:'Canted Comic';-inkscape-font-specification:'Canted Comic, Normal';white-space:pre;stroke:#000000;stroke-width:0;stroke-linejoin:round" /><path
         d="m 13281.695,-17012.484 c -1.385,0.07 -2.844,0.219 -4.449,0.584 -16.412,3.428 -28.666,14.442 -29.176,25.602 v 0.438 c 0,5.033 3.355,8.315 9.993,9.847 1.677,0.364 3.938,0.583 6.856,0.583 0.948,0 1.605,0 1.824,-0.07 5.908,-0.583 11.014,-2.334 15.39,-5.251 0.657,-0.365 1.386,-0.584 2.042,-0.584 0.365,0 0.657,0 0.73,0.07 1.969,0.365 2.917,1.532 2.917,3.574 0,0.365 0,0.657 -0.07,0.73 -0.219,0.948 -0.73,1.75 -1.532,2.334 -5.471,3.574 -11.671,5.689 -18.746,6.418 -0.292,0.07 -1.094,0.07 -2.407,0.07 -1.532,0 -2.553,0 -3.064,-0.07 -2.334,-0.145 -4.157,-0.364 -5.543,-0.656 -10.431,-2.48 -15.682,-8.169 -15.682,-17.068 v -0.657 c 0.583,-14.88 15.244,-28.447 35.084,-32.458 2.261,-0.511 4.231,-0.73 5.981,-0.803 h 0.292 c 2.48,0 4.377,0.584 5.617,1.678 0.802,0.656 1.24,1.532 1.385,2.626 0.07,0.219 0.07,0.656 0.07,1.459 l -0.291,2.771 c -0.07,0.146 -0.365,1.751 -0.876,4.887 -0.291,2.043 -1.459,3.064 -3.501,3.064 -0.365,0 -0.583,0 -0.656,-0.07 -2.043,-0.292 -3.064,-1.459 -3.064,-3.428 0,-0.365 0,-0.657 0.07,-0.73 z"
         id="path34242"
         style="font-size:64px;font-family:'Canted Comic';-inkscape-font-specification:'Canted Comic, Normal';white-space:pre;stroke:#000000;stroke-width:0;stroke-linejoin:round" /><path
         d="m 13293.512,-16971.272 c 0.802,-10.066 5.179,-22.976 13.129,-38.805 1.97,-3.865 3.72,-6.856 5.106,-8.825 1.386,-1.897 2.772,-2.845 4.231,-2.845 0.364,0 0.656,0 0.729,0.07 1.094,0.219 1.824,0.583 2.188,1.24 l 0.292,0.292 c 0.146,0.218 0.292,0.51 0.438,0.875 0.219,0.365 0.51,0.948 0.802,1.605 0.292,0.51 0.802,1.896 1.605,4.157 l 2.407,6.565 c 0.656,1.677 1.75,5.033 3.428,9.993 l 4.085,12.837 3.063,10.066 0.146,1.094 c 0,1.824 -0.875,2.991 -2.553,3.501 l -1.094,0.146 c -1.823,0 -2.99,-0.875 -3.501,-2.553 l -4.085,-13.348 c -2.553,0.584 -5.616,1.386 -9.19,2.334 -7.367,2.116 -11.525,3.21 -12.473,3.429 -0.802,2.99 -1.24,5.908 -1.459,8.752 -0.219,2.262 -1.386,3.356 -3.647,3.356 -0.146,0 -0.219,0 -0.292,-0.07 -2.261,-0.07 -3.355,-1.313 -3.355,-3.647 z m 21.809,-39.461 c -0.948,1.605 -1.604,2.918 -2.115,4.012 -3.866,7.804 -6.711,14.15 -8.388,19.11 0.802,-0.219 3.501,-0.948 7.95,-2.261 4.45,-1.24 7.44,-1.969 8.972,-2.334 -1.386,-4.304 -2.772,-8.388 -4.158,-12.108 z"
         id="path34244"
         style="font-size:64px;font-family:'Canted Comic';-inkscape-font-specification:'Canted Comic, Normal';white-space:pre;stroke:#000000;stroke-width:0;stroke-linejoin:round" /><path
         d="m 13361.784,-16971.929 c 0,2.262 -1.021,3.429 -3.136,3.647 -0.07,0.07 -0.292,0.07 -0.511,0.07 -2.115,0 -3.355,-1.021 -3.647,-3.136 -0.802,-5.908 -1.313,-12.254 -1.531,-19.038 -0.146,-2.698 -0.219,-5.397 -0.219,-8.096 0,-2.991 0.146,-6.784 0.365,-11.379 -6.857,0.657 -12.473,1.313 -16.777,2.043 -0.07,0.07 -0.365,0.07 -0.729,0.07 -1.97,0 -3.137,-1.021 -3.501,-2.99 -0.07,-0.07 -0.07,-0.365 -0.07,-0.73 0,-1.969 1.021,-3.136 2.99,-3.501 4.523,-0.802 11.744,-1.677 21.591,-2.48 8.971,-0.802 15.901,-1.677 20.715,-2.698 0.146,-0.07 0.438,-0.07 0.802,-0.07 1.897,0 3.064,0.948 3.574,2.844 0.07,0.146 0.07,0.438 0.07,0.876 0,1.823 -0.948,2.99 -2.844,3.501 -4.45,1.021 -10.65,1.896 -18.454,2.553 -0.292,3.866 -0.438,7.877 -0.438,12.035 l 0.146,7.075 c 0.219,6.565 0.802,12.911 1.604,18.965 z"
         id="path34246"
         style="font-size:64px;font-family:'Canted Comic';-inkscape-font-specification:'Canted Comic, Normal';white-space:pre;stroke:#000000;stroke-width:0;stroke-linejoin:round" /><path
         d="m 13393.076,-17015.693 c -0.364,5.689 -0.583,11.598 -0.583,17.797 0,7.222 0.219,15.683 0.656,25.238 v 0.219 c 0,1.823 -1.459,3.574 -3.428,3.647 h -0.219 c -1.823,0 -3.574,-1.459 -3.647,-3.428 -0.511,-8.389 -0.729,-16.777 -0.729,-25.165 0,-7.148 0.218,-13.421 0.656,-18.892 0.219,-2.261 1.386,-3.355 3.574,-3.355 h 0.365 c 2.261,0.219 3.355,1.386 3.355,3.574 z"
         id="path34248"
         style="font-size:64px;font-family:'Canted Comic';-inkscape-font-specification:'Canted Comic, Normal';white-space:pre;stroke:#000000;stroke-width:0;stroke-linejoin:round" /><path
         d="m 13432.027,-17018.465 c 0.364,0.146 0.583,0.219 0.656,0.292 0.802,0.292 1.386,0.802 1.751,1.532 0.364,0.364 0.729,0.729 1.021,1.24 1.823,3.501 2.917,7.513 3.355,12.108 l 0.146,3.793 c 0,8.315 -2.115,15.39 -6.346,21.153 -2.99,4.303 -7.221,7.294 -12.837,8.971 -2.043,0.584 -3.866,0.876 -5.471,0.949 h -0.365 c -8.169,0 -13.786,-5.763 -15.026,-13.057 -0.364,-1.386 -0.51,-3.136 -0.51,-5.179 0,-1.604 0.219,-3.501 0.583,-5.689 2.699,-12.911 11.525,-24.362 20.934,-27.353 1.532,-0.437 3.137,-0.656 4.742,-0.656 2.115,0 4.157,0.437 6.127,1.313 z m -2.918,6.638 c -0.656,-0.219 -1.021,-0.438 -1.094,-0.511 -1.021,-0.51 -2.115,-0.729 -3.21,-0.729 -5.324,0 -11.378,4.887 -15.682,13.64 -2.115,4.449 -3.282,8.68 -3.355,12.764 -0.07,0.07 -0.07,0.292 -0.07,0.511 0,6.929 2.772,10.431 8.242,10.431 2.918,0 5.908,-1.095 8.899,-3.21 1.751,-1.094 3.064,-2.334 3.939,-3.647 2.772,-3.866 4.376,-8.607 4.814,-14.223 0.07,-0.438 0.07,-1.386 0.07,-2.772 0,-4.377 -0.875,-8.461 -2.553,-12.254 z"
         id="path34250"
         style="font-size:64px;font-family:'Canted Comic';-inkscape-font-specification:'Canted Comic, Normal';white-space:pre;stroke:#000000;stroke-width:0;stroke-linejoin:round" /><path
         d="m 13453.617,-16972.074 c 0,2.261 -1.021,3.428 -3.136,3.647 -0.07,0.07 -0.292,0.07 -0.511,0.07 -2.115,0 -3.355,-1.022 -3.647,-3.137 -0.365,-3.209 -0.511,-6.2 -0.511,-8.972 -0.07,-0.218 -0.07,-0.437 -0.07,-0.802 0,-0.365 0,-0.729 0.07,-1.167 v -6.929 c 0,-8.024 0,-12.327 -0.07,-12.838 0,-0.584 -0.07,-1.896 -0.291,-4.012 l -0.07,-2.844 -0.146,-4.085 v -1.605 l 0.146,-1.24 c 0.292,-1.532 2.188,-3.136 4.23,-3.136 1.824,0 3.72,1.021 5.544,2.99 0.51,0.511 1.094,1.24 1.896,2.189 l 0.73,1.021 c 5.908,7.513 12.254,16.411 19.183,26.55 l 2.553,4.012 v -2.918 c 0.438,-10.576 0.657,-19.11 0.657,-25.529 0,-3.574 0,-5.762 -0.07,-6.565 v -0.219 c 0,-1.823 1.458,-3.501 3.501,-3.574 h 0.219 c 1.823,0 3.501,1.459 3.574,3.502 l 0.146,7.294 c 0,7.513 -0.219,15.974 -0.73,25.383 v 3.72 c 0,1.386 0,2.261 -0.07,2.626 -0.364,5.762 -2.261,8.607 -5.689,8.607 h -0.146 c -0.729,0 -1.386,-0.219 -1.969,-0.657 l -0.73,-0.583 -7.367,-11.014 c -5.762,-8.68 -11.743,-17.068 -18.089,-25.238 l 0.292,5.033 c 0.07,0.438 0.07,1.751 0.07,3.939 0,2.188 0,5.252 -0.07,9.191 v 7.002 c 0,1.021 0,1.605 0.07,1.823 0,3.137 0.145,5.763 0.51,8.024 z"
         id="path34252"
         style="font-size:64px;font-family:'Canted Comic';-inkscape-font-specification:'Canted Comic, Normal';white-space:pre;stroke:#000000;stroke-width:0;stroke-linejoin:round" /><path
         d="m 13520.139,-17010.077 c 0.948,1.094 1.386,2.262 1.386,3.502 0,2.844 -2.188,4.96 -4.887,4.96 -2.699,0 -4.887,-2.116 -4.887,-4.96 0,-2.699 2.188,-4.888 4.887,-4.888 1.24,0 2.407,0.438 3.501,1.386 z m -1.24,22.393 c 0.948,1.094 1.386,2.334 1.386,3.574 0,2.699 -2.115,4.887 -4.96,4.887 -2.699,0 -4.887,-2.188 -4.887,-4.887 0,-2.844 2.188,-4.96 4.887,-4.96 1.24,0 2.48,0.438 3.574,1.386 z"
         id="path34254"
         style="font-size:64px;font-family:'Canted Comic';-inkscape-font-specification:'Canted Comic, Normal';white-space:pre;stroke:#000000;stroke-width:0;stroke-linejoin:round" /><path
         d="m 13162.874,-16884.427 c 0,2.261 -1.021,3.428 -3.136,3.647 -0.07,0.07 -0.292,0.07 -0.511,0.07 -2.115,0 -3.355,-1.022 -3.647,-3.137 -0.365,-3.209 -0.511,-6.2 -0.511,-8.972 -0.07,-0.218 -0.07,-0.437 -0.07,-0.802 0,-0.365 0,-0.729 0.07,-1.167 v -6.929 c 0,-8.024 0,-12.327 -0.07,-12.838 0,-0.584 -0.07,-1.896 -0.291,-4.012 l -0.07,-2.844 -0.146,-4.085 v -1.605 l 0.146,-1.24 c 0.291,-1.532 2.188,-3.136 4.23,-3.136 1.824,0 3.72,1.021 5.544,2.99 0.51,0.511 1.094,1.24 1.896,2.189 l 0.73,1.021 c 5.908,7.513 12.254,16.411 19.183,26.55 l 2.553,4.012 v -2.918 c 0.438,-10.576 0.656,-19.11 0.656,-25.529 0,-3.574 0,-5.762 -0.07,-6.565 v -0.219 c 0,-1.823 1.458,-3.501 3.501,-3.574 h 0.219 c 1.823,0 3.501,1.459 3.574,3.502 l 0.145,7.294 c 0,7.513 -0.218,15.974 -0.729,25.383 v 3.72 c 0,1.386 0,2.261 -0.07,2.626 -0.365,5.762 -2.261,8.607 -5.689,8.607 h -0.146 c -0.73,0 -1.386,-0.219 -1.97,-0.657 l -0.729,-0.583 -7.367,-11.014 c -5.762,-8.68 -11.743,-17.068 -18.089,-25.238 l 0.291,5.033 c 0.07,0.438 0.07,1.751 0.07,3.939 0,2.188 0,5.252 -0.07,9.191 v 7.002 c 0,1.021 0,1.605 0.07,1.823 0,3.137 0.146,5.763 0.511,8.024 z"
         id="path34257"
         style="font-size:64px;font-family:'Canted Comic';-inkscape-font-specification:'Canted Comic, Normal';white-space:pre;stroke:#000000;stroke-width:0;stroke-linejoin:round" /><path
         d="m 13209.994,-16890.336 c 0.875,0.949 1.313,2.043 1.313,3.283 0,2.626 -2.043,4.668 -4.596,4.668 -2.625,0 -4.668,-2.042 -4.668,-4.668 0,-2.553 2.043,-4.596 4.668,-4.596 1.24,0 2.335,0.438 3.283,1.313 z"
         id="path34259"
         style="font-size:64px;font-family:'Canted Comic';-inkscape-font-specification:'Canted Comic, Normal';white-space:pre;stroke:#000000;stroke-width:0;stroke-linejoin:round" /><path
         d="m 13249.017,-16918.272 c 2.407,6.346 4.45,13.129 6.054,20.278 l 1.751,7.44 c 0.583,-1.022 1.167,-2.262 1.75,-3.72 l 1.022,-2.699 c 6.929,-15.245 11.524,-26.04 13.858,-32.386 0.365,-0.948 0.949,-1.605 1.897,-2.042 0.364,-0.219 0.875,-0.292 1.532,-0.292 0.437,0 0.875,0.07 1.312,0.219 0.949,0.364 1.605,0.948 2.043,1.896 0.219,0.365 0.292,0.875 0.292,1.532 0,0.438 -0.07,0.875 -0.219,1.313 -2.553,6.71 -7.221,17.652 -14.005,32.823 -0.07,0.07 -0.146,0.219 -0.219,0.438 l -0.802,1.969 c -1.678,4.085 -3.355,7.003 -5.106,8.753 -1.386,1.313 -2.772,1.97 -4.231,1.97 -1.823,0 -3.209,-0.73 -4.157,-2.189 -0.146,-0.218 -0.292,-0.51 -0.438,-0.875 l -0.583,-1.678 c -0.949,-2.99 -1.897,-6.637 -2.845,-10.868 -1.532,-6.783 -3.428,-13.202 -5.762,-19.402 l -3.866,-10.358 c -0.146,-0.437 -0.219,-0.875 -0.219,-1.313 0,-0.364 0.146,-0.875 0.365,-1.531 0.364,-0.949 1.094,-1.532 2.042,-1.897 0.365,-0.146 0.802,-0.219 1.24,-0.219 0.657,0 1.167,0.07 1.532,0.292 0.948,0.438 1.532,1.094 1.896,2.043 z"
         id="path34261"
         style="font-size:64px;font-family:'Canted Comic';-inkscape-font-specification:'Canted Comic, Normal';white-space:pre;stroke:#000000;stroke-width:0;stroke-linejoin:round" /><path
         d="m 13291.615,-16928.046 c -0.365,5.689 -0.584,11.598 -0.584,17.797 0,7.222 0.219,15.683 0.657,25.238 v 0.219 c 0,1.823 -1.459,3.574 -3.429,3.647 h -0.219 c -1.823,0 -3.574,-1.459 -3.647,-3.428 -0.51,-8.389 -0.729,-16.777 -0.729,-25.165 0,-7.148 0.219,-13.421 0.656,-18.892 0.219,-2.261 1.386,-3.355 3.575,-3.355 h 0.364 c 2.261,0.219 3.356,1.386 3.356,3.574 z"
         id="path34263"
         style="font-size:64px;font-family:'Canted Comic';-inkscape-font-specification:'Canted Comic, Normal';white-space:pre;stroke:#000000;stroke-width:0;stroke-linejoin:round" /><path
         d="m 13326.918,-16897.703 c 8.169,4.231 14.005,7.076 17.433,8.607 0.948,0.365 1.605,1.094 1.969,2.043 0.146,0.437 0.219,0.875 0.219,1.313 0,0.583 -0.07,1.094 -0.292,1.458 -0.364,0.949 -1.021,1.532 -1.969,1.897 -0.365,0.219 -0.875,0.292 -1.386,0.292 -0.583,0 -1.094,-0.07 -1.459,-0.292 -3.282,-1.532 -9.19,-4.45 -17.87,-8.826 -6.2,-3.136 -11.306,-5.398 -15.172,-6.929 0.07,5.47 0.511,9.993 1.24,13.713 0.07,0.07 0.07,0.364 0.07,0.729 0,1.969 -0.948,3.136 -2.918,3.501 -0.146,0.07 -0.437,0.07 -0.802,0.07 -1.969,0 -3.136,-1.021 -3.501,-2.991 -1.021,-5.105 -1.532,-12.545 -1.532,-22.319 0,-5.617 0,-8.753 -0.07,-9.483 l -0.146,-2.407 c -0.219,-2.188 -0.291,-4.668 -0.291,-7.44 0.07,-1.969 0.437,-3.355 1.094,-4.157 1.386,-1.824 4.741,-2.991 10.138,-3.356 l 3.939,-0.146 c 10.577,0 18.09,2.189 22.539,6.638 1.823,1.824 2.918,3.866 3.282,6.2 0.07,0.219 0.07,0.729 0.07,1.459 0,2.115 -0.51,4.23 -1.604,6.346 -1.97,4.011 -5.69,7.075 -11.16,9.336 -2.48,0.948 -4.887,1.678 -7.149,2.115 z m -19.183,-26.696 c 0,2.261 0.07,4.522 0.291,6.783 l 0.292,6.055 v 4.668 c 0.511,0.07 1.678,0.07 3.501,0.07 11.014,0 19.184,-3.356 21.518,-8.316 0.51,-1.24 0.802,-2.188 0.802,-2.844 0,-1.021 -0.365,-1.897 -1.094,-2.626 -3.136,-2.991 -9.118,-4.522 -17.87,-4.522 -2.991,0 -5.398,0.218 -7.222,0.656 z"
         id="path34265"
         style="font-size:64px;font-family:'Canted Comic';-inkscape-font-specification:'Canted Comic, Normal';white-space:pre;stroke:#000000;stroke-width:0;stroke-linejoin:round" /><path
         d="m 13386.657,-16900.693 -0.511,-0.146 c -0.511,-0.146 -1.167,-0.219 -2.042,-0.219 -1.24,0 -2.334,0.07 -3.283,0.292 -1.24,0.219 -3.72,1.094 -7.586,2.626 -0.437,0.146 -0.875,0.218 -1.312,0.218 -0.584,0 -1.095,-0.07 -1.459,-0.291 -0.949,-0.365 -1.532,-1.094 -1.897,-2.043 -0.219,-0.364 -0.292,-0.802 -0.292,-1.313 0,-0.583 0.07,-1.094 0.292,-1.458 0.365,-0.949 1.094,-1.605 2.043,-1.97 4.084,-1.677 7.075,-2.626 9.044,-2.917 1.678,-0.292 3.283,-0.438 4.668,-0.438 1.386,0 2.626,0.146 3.72,0.438 2.845,0.802 4.669,2.334 5.471,4.741 0.292,0.802 0.438,1.677 0.438,2.626 0,3.136 -1.386,6.345 -4.231,9.774 -5.47,6.71 -12.546,10.138 -21.08,10.211 h -0.51 c -11.379,0 -19.33,-7.002 -19.913,-17.797 v -0.948 c 0,-3.429 0.948,-7.003 2.844,-10.65 0.803,-1.604 1.824,-3.282 3.21,-5.033 4.741,-6.2 10.722,-10.795 17.943,-13.713 3.137,-1.167 6.127,-2.042 8.972,-2.552 1.824,-0.219 3.209,-0.365 4.085,-0.365 0.875,0 1.459,0 1.677,0.07 2.699,0.219 4.669,1.313 5.763,3.136 0.51,0.803 0.729,1.678 0.729,2.699 0,0.511 -0.146,1.24 -0.365,2.188 l -0.146,0.803 -0.218,0.364 c -0.07,0.07 -0.07,0.146 -0.07,0.219 l -0.584,4.668 c -0.292,2.116 -1.532,3.21 -3.647,3.21 -0.219,0 -0.365,0 -0.437,-0.07 -2.116,-0.219 -3.21,-1.459 -3.21,-3.647 l 0.584,-4.96 c 0.07,-0.438 0.146,-0.876 0.364,-1.386 h -0.437 c -1.094,0 -2.043,0.07 -2.845,0.292 -5.471,0.948 -10.576,3.136 -15.463,6.637 -7.659,5.836 -11.452,11.89 -11.452,18.09 0,8.242 5.835,11.451 12.546,11.451 h 0.364 c 6.638,-0.218 11.525,-2.407 14.807,-6.564 2.262,-2.699 3.429,-4.742 3.429,-6.127 z"
         id="path34267"
         style="font-size:64px;font-family:'Canted Comic';-inkscape-font-specification:'Canted Comic, Normal';white-space:pre;stroke:#000000;stroke-width:0;stroke-linejoin:round" /><path
         d="m 13405.329,-16928.046 c -0.364,5.689 -0.583,11.598 -0.583,17.797 0,7.222 0.219,15.683 0.656,25.238 v 0.219 c 0,1.823 -1.459,3.574 -3.428,3.647 h -0.219 c -1.823,0 -3.574,-1.459 -3.647,-3.428 -0.51,-8.389 -0.729,-16.777 -0.729,-25.165 0,-7.148 0.219,-13.421 0.656,-18.892 0.219,-2.261 1.386,-3.355 3.574,-3.355 h 0.365 c 2.261,0.219 3.355,1.386 3.355,3.574 z"
         id="path34269"
         style="font-size:64px;font-family:'Canted Comic';-inkscape-font-specification:'Canted Comic, Normal';white-space:pre;stroke:#000000;stroke-width:0;stroke-linejoin:round" /><path
         d="m 13421.158,-16884.427 c 0,2.261 -1.022,3.428 -3.137,3.647 -0.07,0.07 -0.292,0.07 -0.51,0.07 -2.116,0 -3.356,-1.022 -3.648,-3.137 -0.364,-3.209 -0.51,-6.2 -0.51,-8.972 -0.07,-0.218 -0.07,-0.437 -0.07,-0.802 0,-0.365 0,-0.729 0.07,-1.167 v -6.929 c 0,-8.024 0,-12.327 -0.07,-12.838 0,-0.584 -0.07,-1.896 -0.292,-4.012 l -0.07,-2.844 -0.146,-4.085 v -1.605 l 0.146,-1.24 c 0.292,-1.532 2.188,-3.136 4.231,-3.136 1.823,0 3.72,1.021 5.543,2.99 0.511,0.511 1.094,1.24 1.897,2.189 l 0.729,1.021 c 5.908,7.513 12.254,16.411 19.184,26.55 l 2.553,4.012 v -2.918 c 0.437,-10.576 0.656,-19.11 0.656,-25.529 0,-3.574 0,-5.762 -0.07,-6.565 v -0.219 c 0,-1.823 1.459,-3.501 3.501,-3.574 h 0.219 c 1.824,0 3.501,1.459 3.574,3.502 l 0.146,7.294 c 0,7.513 -0.219,15.974 -0.729,25.383 v 3.72 c 0,1.386 0,2.261 -0.07,2.626 -0.365,5.762 -2.261,8.607 -5.69,8.607 h -0.146 c -0.729,0 -1.385,-0.219 -1.969,-0.657 l -0.729,-0.583 -7.367,-11.014 c -5.763,-8.68 -11.744,-17.068 -18.09,-25.238 l 0.292,5.033 c 0.07,0.438 0.07,1.751 0.07,3.939 0,2.188 0,5.252 -0.07,9.191 v 7.002 c 0,1.021 0,1.605 0.07,1.823 0,3.137 0.146,5.763 0.511,8.024 z"
         id="path34271"
         style="font-size:64px;font-family:'Canted Comic';-inkscape-font-specification:'Canted Comic, Normal';white-space:pre;stroke:#000000;stroke-width:0;stroke-linejoin:round" /><path
         d="m 13466.6,-16928.046 c -0.365,5.689 -0.584,11.598 -0.584,17.797 0,7.222 0.219,15.683 0.657,25.238 v 0.219 c 0,1.823 -1.459,3.574 -3.429,3.647 h -0.218 c -1.824,0 -3.574,-1.459 -3.647,-3.428 -0.511,-8.389 -0.73,-16.777 -0.73,-25.165 0,-7.148 0.219,-13.421 0.657,-18.892 0.218,-2.261 1.386,-3.355 3.574,-3.355 h 0.364 c 2.262,0.219 3.356,1.386 3.356,3.574 z"
         id="path34273"
         style="font-size:64px;font-family:'Canted Comic';-inkscape-font-specification:'Canted Comic, Normal';white-space:pre;stroke:#000000;stroke-width:0;stroke-linejoin:round" /><path
         d="m 13472.143,-16883.625 c 0.803,-10.066 5.179,-22.976 13.13,-38.805 1.969,-3.865 3.72,-6.856 5.105,-8.825 1.386,-1.897 2.772,-2.845 4.231,-2.845 0.365,0 0.656,0 0.729,0.07 1.095,0.219 1.824,0.583 2.189,1.24 l 0.291,0.292 c 0.146,0.218 0.292,0.51 0.438,0.875 0.219,0.365 0.511,0.948 0.802,1.605 0.292,0.51 0.803,1.896 1.605,4.157 l 2.407,6.565 c 0.657,1.677 1.751,5.033 3.428,9.993 l 4.085,12.837 3.064,10.066 0.145,1.094 c 0,1.824 -0.875,2.991 -2.552,3.501 l -1.095,0.146 c -1.823,0 -2.99,-0.875 -3.501,-2.553 l -4.084,-13.348 c -2.553,0.584 -5.617,1.386 -9.191,2.334 -7.367,2.116 -11.525,3.21 -12.473,3.429 -0.802,2.99 -1.24,5.908 -1.459,8.752 -0.219,2.262 -1.386,3.356 -3.647,3.356 -0.146,0 -0.219,0 -0.292,-0.07 -2.261,-0.07 -3.355,-1.313 -3.355,-3.647 z m 21.81,-39.461 c -0.949,1.605 -1.605,2.918 -2.116,4.012 -3.866,7.804 -6.71,14.15 -8.388,19.11 0.802,-0.219 3.501,-0.948 7.951,-2.261 4.449,-1.24 7.44,-1.969 8.971,-2.334 -1.386,-4.304 -2.771,-8.388 -4.157,-12.108 z"
         id="path34275"
         style="font-size:64px;font-family:'Canted Comic';-inkscape-font-specification:'Canted Comic, Normal';white-space:pre;stroke:#000000;stroke-width:0;stroke-linejoin:round" /><path
         style="fill:none;fill-opacity:1;stroke:#000000;stroke-width:19.0262;stroke-linecap:round;stroke-linejoin:bevel;stroke-dasharray:none;stroke-opacity:1"
         d="m 13075.485,-17229.141 27.082,-2.002 27.09,0.93 27.077,-1.512 27.093,-0.932 27.095,0.134 27.082,0.865 27.071,-2.002 27.12,1.209 27.059,0.287 27.08,0.916 27.068,0.268 27.08,0.227 27.08,-4.117 27.22,-1.748 27.22,1.355 27.018,1.339 27.018,1.316 27.023,1.396 27.022,1.371 27.043,-4.287"
         id="path29722-45" /><path
         d="m 13284.181,-17148.788 c 1.728,-4.639 3.82,-11.278 6.094,-19.737 1.091,-3.91 2.001,-6.73 2.638,-8.458 0.454,-1.273 1.273,-2.183 2.364,-2.638 0.455,-0.272 1.092,-0.363 1.91,-0.363 0.546,0 1.092,0.09 1.637,0.273 1.183,0.454 2.001,1.182 2.547,2.364 0.273,0.455 0.364,1.092 0.364,1.91 0,0.455 -0.09,1.001 -0.273,1.546 -2.547,6.64 -4.093,11.915 -4.639,16.008 -0.818,3.001 -2.637,8.276 -5.457,15.734 l 10.096,-0.364 c 0.273,-0.09 1.182,-0.09 2.637,-0.09 1.001,-7.731 2.274,-14.461 3.82,-20.1 0.637,-2.274 2.001,-3.365 4.275,-3.365 0.637,0 1.091,0 1.273,0.09 2.274,0.637 3.366,2.092 3.366,4.366 l -0.182,1.273 c -1.365,4.638 -2.456,10.459 -3.366,17.462 h 2.365 c 1.183,0 2.001,0 2.274,-0.09 h 0.273 c 2.274,0 4.365,1.819 4.456,4.275 v 0.273 c 0,1.182 -0.363,2.274 -1.182,3.092 -1,1.001 -3.001,1.546 -6.003,1.637 h -3.274 l -1.364,14.28 c -0.273,2.728 -1.728,4.092 -4.548,4.092 h -0.454 c -2.729,-0.272 -4.093,-1.819 -4.093,-4.547 l 1.364,-13.643 -1.455,0.09 c -6.276,0.09 -11.642,0.364 -16.189,0.819 H 13285 c -2.729,0 -4.275,-1.364 -4.548,-4.093 v -1.182 c 0,-0.546 0.09,-1.001 0.273,-1.456 z"
         id="path34278"
         style="font-size:64px;font-family:'Canted Comic';-inkscape-font-specification:'Canted Comic, Normal';white-space:pre;stroke:#000000;stroke-width:0;stroke-linejoin:round" /><path
         d="m 13332.021,-17128.052 4.821,-7.367 c 1.182,-1.728 3.183,-4.365 5.912,-7.73 9.004,-11.369 13.46,-18.918 13.46,-22.738 0,-0.546 0,-0.91 -0.09,-1.091 -0.364,-1.91 -1.819,-2.911 -4.456,-2.911 l -2.001,0.182 c -4.821,0.728 -8.459,2.365 -11.096,5.002 -1.91,2.092 -3.274,4.73 -4.184,7.913 -0.637,2.183 -2.001,3.274 -4.275,3.274 l -1.364,-0.182 c -2.183,-0.636 -3.274,-2.092 -3.274,-4.274 l 0.182,-1.365 c 1.364,-4.82 3.547,-8.64 6.366,-11.55 3.911,-4.275 9.459,-6.913 16.462,-7.822 1.092,-0.182 2.183,-0.273 3.184,-0.273 7.367,0 11.823,3.365 13.369,10.005 0.182,0.818 0.273,1.728 0.273,2.728 0,6.276 -5.184,15.916 -15.461,28.74 l -5.548,7.186 -3.638,5.729 c 9.368,-1.546 17.644,-2.546 24.92,-3.092 h 0.273 c 2.819,0 4.366,1.364 4.638,4.184 v 0.455 c 0,2.728 -1.364,4.183 -4.183,4.456 -8.277,0.637 -17.736,1.819 -28.195,3.638 -0.09,0 -0.364,0.09 -0.728,0.273 -1.546,0.637 -3.001,0.91 -4.183,0.91 -3.365,0 -5.73,-2.456 -5.73,-5.094 v -0.727 c 0.09,-0.728 0.364,-1.365 0.727,-2.001 z"
         id="path34280"
         style="font-size:64px;font-family:'Canted Comic';-inkscape-font-specification:'Canted Comic, Normal';white-space:pre;stroke:#000000;stroke-width:0;stroke-linejoin:round" /><path
         d="m 13416.696,-17153.791 c -1.728,8.277 -4.002,19.646 -6.821,33.925 -0.455,2.456 -1.91,3.729 -4.366,3.729 -0.455,0 -0.818,0 -0.909,-0.09 -2.456,-0.455 -3.729,-1.91 -3.729,-4.366 0,-0.454 0,-0.818 0.09,-0.909 3.365,-17.19 5.639,-28.559 6.821,-34.107 l 2.91,-11.277 c 0.546,-1.91 1.092,-4.184 1.637,-6.64 l 0.455,-2.092 c 0,-0.273 0.09,-0.636 0.364,-1.182 l 0.364,-0.728 c 0.182,-0.273 0.455,-0.636 0.909,-1.091 0.819,-0.819 1.728,-1.182 2.911,-1.182 0.727,0 1.364,0.09 1.819,0.363 1.182,0.455 2.092,1.365 2.728,2.638 l 0.728,1.728 4.638,17.735 2.183,7.276 2.91,8.55 2.456,7.549 0.728,1.819 10.914,-34.562 3.638,-10.914 c 0,-0.272 0.09,-0.363 0.182,-0.363 0.09,-0.364 0.364,-0.728 0.636,-1.001 0.637,-0.818 1.547,-1.364 2.547,-1.546 0.182,-0.09 0.546,-0.09 1.091,-0.09 2.456,0 4.366,1.455 5.821,4.457 1.183,2.273 2.638,7.094 4.366,14.279 l 5.093,21.464 c 1.728,7.549 3.638,14.461 5.548,20.919 l 0.182,1.273 c 0,2.274 -1.091,3.729 -3.183,4.366 l -1.365,0.181 c -2.273,0 -3.729,-1.091 -4.365,-3.274 -1.001,-3.001 -2.001,-6.548 -3.002,-10.823 l -2.546,-10.186 -6.094,-25.466 -11.46,36.107 c -0.09,0.09 -0.182,0.364 -0.272,0.818 l -0.546,2.001 c -1.455,4.821 -2.547,9.368 -6.185,10.005 -0.09,0.09 -0.455,0.09 -0.909,0.09 -0.91,0 -1.728,-0.273 -2.547,-0.91 l -0.818,-0.818 -0.637,-1.001 -2.638,-6.457 -2.728,-7.458 c -4.093,-12.005 -6.912,-20.919 -8.64,-26.83 z"
         id="path34282"
         style="font-size:64px;font-family:'Canted Comic';-inkscape-font-specification:'Canted Comic, Normal';white-space:pre;stroke:#000000;stroke-width:0;stroke-linejoin:round" /><path
         d="m 13487.092,-17164.614 5.912,32.197 2,-6.185 3.729,-12.642 5.366,-19.554 1.092,-3.184 c 0,-0.272 0.09,-0.454 0.182,-0.545 l 0.182,-0.455 c 1,-1.546 2.364,-2.365 4.002,-2.365 1.182,0 2.182,0.364 3.001,1.001 0.364,0.363 0.637,0.636 0.727,0.909 l 0.728,1.183 0.546,1.455 2.637,8.822 4.639,14.461 c 2.637,8.367 4.365,14.006 5.093,17.008 l 7.003,-22.647 c 2.183,-7.003 3.911,-13.551 5.093,-19.645 0.455,-2.456 1.91,-3.638 4.366,-3.638 0.455,0 0.819,0 1,0.09 2.456,0.455 3.639,1.91 3.639,4.365 0,0.546 0,0.91 -0.09,1.001 -1.183,6.184 -3.002,13.006 -5.276,20.464 l -6.73,21.373 -0.909,3.274 c -0.819,3.183 -1.819,6.094 -3.002,8.731 -1.546,2.911 -3.456,4.457 -5.639,4.639 h -0.182 c -2.637,0 -4.001,-1.001 -5.82,-6.821 -1.183,-4.821 -2.547,-10.005 -4.093,-15.644 l -3.547,-11.187 -3.002,-9.004 c -3.729,13.552 -6.73,23.556 -9.004,30.105 -1.091,3.092 -1.819,4.82 -2.092,5.275 -1.91,3.911 -4.365,5.912 -7.367,5.912 -1.819,0 -3.183,-0.637 -4.092,-1.819 -0.364,-0.364 -0.637,-0.819 -0.728,-1.274 l -0.182,-0.636 c -0.09,-0.09 -0.09,-0.273 -0.09,-0.546 l -1.364,-6.548 -4.911,-27.013 c -0.819,-5.366 -2.092,-11.55 -3.729,-18.645 -0.09,-0.09 -0.09,-0.454 -0.09,-0.909 0,-2.456 1.182,-3.911 3.547,-4.548 0.182,-0.09 0.546,-0.09 1,-0.09 2.365,0 3.82,1.182 4.457,3.547 z"
         id="path34284"
         style="font-size:64px;font-family:'Canted Comic';-inkscape-font-specification:'Canted Comic, Normal';white-space:pre;stroke:#000000;stroke-width:0;stroke-linejoin:round" /><path
         d="m 13593.595,-17158.793 c 0.272,16.098 1,28.831 2.182,38.108 v 0.455 c 0,2.82 -1.273,4.275 -3.91,4.548 -0.09,0.09 -0.364,0.09 -0.637,0.09 -2.638,0 -4.184,-1.365 -4.548,-4.002 -0.818,-7.549 -1.455,-15.462 -1.819,-23.647 -2.637,0.272 -6.457,0.909 -11.277,1.91 -4.639,0.909 -8.368,1.637 -11.278,2.091 l 1.637,20.191 c 0,2.274 -1.728,4.457 -4.184,4.548 -0.09,0.09 -0.182,0.09 -0.455,0.09 -2.182,0 -4.183,-1.91 -4.456,-4.184 l -1.001,-12.733 c -1,-11.278 -1.455,-20.828 -1.455,-28.649 0,-4.821 0.273,-9.459 0.728,-14.007 0.364,-2.637 1.91,-4.001 4.547,-4.001 h 0.637 c 2.637,0.363 3.911,1.91 3.911,4.638 v 0.455 c -0.546,3.911 -0.819,8.458 -0.819,13.733 0,4.093 0.09,7.731 0.364,10.823 2.001,-0.272 5.366,-0.909 10.005,-1.91 5.184,-1.091 9.458,-1.819 12.824,-2.091 l -0.455,-23.102 c 0,-2.274 1.91,-4.365 4.456,-4.456 h 0.182 c 2.274,0 4.366,1.91 4.457,4.365 z"
         id="path34286"
         style="font-size:64px;font-family:'Canted Comic';-inkscape-font-specification:'Canted Comic, Normal';white-space:pre;stroke:#000000;stroke-width:0;stroke-linejoin:round" /><path
         d="m 13098.612,-17503.574 c 0,-9.993 0.875,-19.403 2.553,-28.229 0.364,-1.969 1.531,-2.917 3.501,-2.917 0.365,0 0.656,0 0.802,0.07 1.97,0.364 2.918,1.532 2.918,3.501 0,0.438 0,0.729 -0.07,0.802 -1.532,8.534 -2.334,18.527 -2.334,30.125 l 0.146,9.92 c 6.2,0 13.056,-0.511 20.569,-1.605 l 11.16,-1.532 c 0.07,-0.07 0.292,-0.07 0.584,-0.07 2.115,0 3.282,1.022 3.574,3.064 v 0.511 c 0,2.261 -1.022,3.428 -3.137,3.647 -9.92,1.531 -17.724,2.48 -23.341,2.844 -4.449,0.219 -7.878,0.365 -10.139,0.365 h -2.626 c -1.677,-0.07 -2.771,-0.875 -3.355,-2.553 -0.292,-0.584 -0.437,-1.167 -0.51,-1.751 -0.219,-7.658 -0.292,-12.618 -0.292,-14.734 z"
         id="path34289"
         style="font-size:64px;font-family:'Canted Comic';-inkscape-font-specification:'Canted Comic, Normal';white-space:pre;stroke:#000000;stroke-width:0;stroke-linejoin:round" /><path
         d="m 13148.941,-17503.574 c 0,-9.993 0.875,-19.403 2.553,-28.229 0.365,-1.969 1.532,-2.917 3.501,-2.917 0.365,0 0.657,0 0.803,0.07 1.969,0.364 2.917,1.532 2.917,3.501 0,0.438 0,0.729 -0.07,0.802 -1.532,8.534 -2.334,18.527 -2.334,30.125 l 0.146,9.92 c 6.2,0 13.056,-0.511 20.569,-1.605 l 11.16,-1.532 c 0.07,-0.07 0.292,-0.07 0.584,-0.07 2.115,0 3.282,1.022 3.574,3.064 v 0.511 c 0,2.261 -1.021,3.428 -3.137,3.647 -9.92,1.531 -17.724,2.48 -23.341,2.844 -4.449,0.219 -7.877,0.365 -10.138,0.365 h -2.626 c -1.678,-0.07 -2.772,-0.875 -3.356,-2.553 -0.291,-0.584 -0.437,-1.167 -0.51,-1.751 -0.219,-7.658 -0.292,-12.618 -0.292,-14.734 z"
         id="path34291"
         style="font-size:64px;font-family:'Canted Comic';-inkscape-font-specification:'Canted Comic, Normal';white-space:pre;stroke:#000000;stroke-width:0;stroke-linejoin:round" /><path
         d="m 13210.503,-17513.786 c -1.386,6.637 -3.209,15.755 -5.47,27.207 -0.365,1.969 -1.532,2.99 -3.502,2.99 -0.364,0 -0.656,0 -0.729,-0.07 -1.969,-0.364 -2.991,-1.531 -2.991,-3.501 0,-0.364 0,-0.656 0.07,-0.729 2.699,-13.786 4.523,-22.904 5.471,-27.353 l 2.334,-9.045 c 0.438,-1.531 0.875,-3.355 1.313,-5.324 l 0.365,-1.678 c 0,-0.219 0.07,-0.511 0.291,-0.948 l 0.292,-0.584 c 0.146,-0.219 0.365,-0.51 0.73,-0.875 0.656,-0.656 1.386,-0.948 2.334,-0.948 0.583,0 1.094,0.07 1.459,0.292 0.948,0.364 1.677,1.094 2.188,2.115 l 0.583,1.386 3.72,14.223 1.751,5.835 2.334,6.857 1.969,6.054 0.584,1.459 8.753,-27.718 2.917,-8.753 c 0,-0.218 0.07,-0.291 0.146,-0.291 0.07,-0.292 0.292,-0.584 0.511,-0.803 0.51,-0.656 1.24,-1.094 2.042,-1.24 0.146,-0.07 0.438,-0.07 0.876,-0.07 1.969,0 3.501,1.167 4.668,3.574 0.948,1.824 2.115,5.69 3.501,11.452 l 4.085,17.214 c 1.385,6.054 2.917,11.598 4.449,16.777 l 0.146,1.021 c 0,1.823 -0.875,2.99 -2.553,3.501 l -1.094,0.146 c -1.824,0 -2.991,-0.876 -3.501,-2.626 -0.803,-2.407 -1.605,-5.252 -2.407,-8.68 l -2.043,-8.169 -4.887,-20.424 -9.19,28.958 c -0.07,0.07 -0.146,0.291 -0.219,0.656 l -0.438,1.605 c -1.167,3.866 -2.042,7.513 -4.96,8.023 -0.07,0.07 -0.364,0.07 -0.729,0.07 -0.73,0 -1.386,-0.219 -2.043,-0.729 l -0.656,-0.657 -0.511,-0.802 -2.115,-5.179 -2.188,-5.981 c -3.282,-9.628 -5.544,-16.776 -6.929,-21.517 z"
         id="path34293"
         style="font-size:64px;font-family:'Canted Comic';-inkscape-font-specification:'Canted Comic, Normal';white-space:pre;stroke:#000000;stroke-width:0;stroke-linejoin:round" /><path
         d="m 13310.213,-17486.142 c 0,2.262 -1.021,3.429 -3.136,3.647 -0.07,0.07 -0.292,0.07 -0.511,0.07 -2.115,0 -3.355,-1.021 -3.647,-3.136 -0.802,-5.908 -1.313,-12.254 -1.532,-19.038 -0.145,-2.698 -0.218,-5.397 -0.218,-8.096 0,-2.991 0.145,-6.784 0.364,-11.379 -6.856,0.657 -12.473,1.313 -16.776,2.043 -0.07,0.07 -0.365,0.07 -0.729,0.07 -1.97,0 -3.137,-1.021 -3.502,-2.99 -0.07,-0.07 -0.07,-0.365 -0.07,-0.73 0,-1.969 1.022,-3.136 2.991,-3.501 4.522,-0.802 11.743,-1.677 21.59,-2.48 8.972,-0.802 15.902,-1.677 20.716,-2.698 0.146,-0.07 0.437,-0.07 0.802,-0.07 1.896,0 3.064,0.948 3.574,2.844 0.07,0.146 0.07,0.438 0.07,0.876 0,1.823 -0.948,2.99 -2.845,3.501 -4.449,1.021 -10.649,1.896 -18.454,2.553 -0.291,3.866 -0.437,7.877 -0.437,12.035 l 0.146,7.075 c 0.218,6.565 0.802,12.911 1.604,18.965 z"
         id="path34295"
         style="font-size:64px;font-family:'Canted Comic';-inkscape-font-specification:'Canted Comic, Normal';white-space:pre;stroke:#000000;stroke-width:0;stroke-linejoin:round" /><path
         d="m 13362.147,-17499.563 c 8.169,4.231 14.005,7.076 17.433,8.607 0.948,0.365 1.605,1.094 1.969,2.043 0.146,0.437 0.219,0.875 0.219,1.313 0,0.583 -0.07,1.094 -0.292,1.458 -0.364,0.949 -1.021,1.532 -1.969,1.897 -0.365,0.219 -0.875,0.292 -1.386,0.292 -0.583,0 -1.094,-0.07 -1.459,-0.292 -3.282,-1.532 -9.19,-4.45 -17.87,-8.826 -6.2,-3.136 -11.306,-5.398 -15.172,-6.929 0.07,5.47 0.511,9.993 1.24,13.713 0.07,0.07 0.07,0.364 0.07,0.729 0,1.969 -0.948,3.136 -2.918,3.501 -0.145,0.07 -0.437,0.07 -0.802,0.07 -1.969,0 -3.136,-1.021 -3.501,-2.991 -1.021,-5.105 -1.532,-12.545 -1.532,-22.319 0,-5.617 0,-8.753 -0.07,-9.483 l -0.146,-2.407 c -0.218,-2.188 -0.291,-4.668 -0.291,-7.44 0.07,-1.969 0.437,-3.355 1.094,-4.157 1.386,-1.824 4.741,-2.991 10.138,-3.356 l 3.939,-0.146 c 10.577,0 18.09,2.189 22.539,6.638 1.824,1.824 2.918,3.866 3.282,6.2 0.07,0.219 0.07,0.729 0.07,1.459 0,2.115 -0.51,4.23 -1.604,6.346 -1.97,4.011 -5.69,7.075 -11.16,9.336 -2.48,0.948 -4.887,1.678 -7.149,2.115 z m -19.183,-26.696 c 0,2.261 0.07,4.522 0.291,6.783 l 0.292,6.055 v 4.668 c 0.511,0.07 1.678,0.07 3.501,0.07 11.014,0 19.184,-3.356 21.518,-8.316 0.511,-1.24 0.802,-2.188 0.802,-2.844 0,-1.021 -0.364,-1.897 -1.094,-2.626 -3.136,-2.991 -9.117,-4.522 -17.87,-4.522 -2.991,0 -5.398,0.218 -7.221,0.656 z"
         id="path34297"
         style="font-size:64px;font-family:'Canted Comic';-inkscape-font-specification:'Canted Comic, Normal';white-space:pre;stroke:#000000;stroke-width:0;stroke-linejoin:round" /><path
         d="m 13384.248,-17485.485 c 0.803,-10.066 5.179,-22.976 13.13,-38.805 1.969,-3.865 3.72,-6.856 5.105,-8.825 1.386,-1.897 2.772,-2.845 4.231,-2.845 0.365,0 0.656,0 0.729,0.07 1.094,0.219 1.824,0.583 2.189,1.24 l 0.291,0.292 c 0.146,0.218 0.292,0.51 0.438,0.875 0.219,0.365 0.511,0.948 0.802,1.605 0.292,0.51 0.803,1.896 1.605,4.157 l 2.407,6.565 c 0.657,1.677 1.751,5.033 3.428,9.993 l 4.085,12.837 3.064,10.066 0.145,1.094 c 0,1.824 -0.875,2.991 -2.553,3.501 l -1.094,0.146 c -1.823,0 -2.99,-0.875 -3.501,-2.553 l -4.084,-13.348 c -2.553,0.584 -5.617,1.386 -9.191,2.334 -7.367,2.116 -11.525,3.21 -12.473,3.429 -0.802,2.99 -1.24,5.908 -1.459,8.752 -0.219,2.262 -1.386,3.356 -3.647,3.356 -0.146,0 -0.219,0 -0.292,-0.07 -2.261,-0.07 -3.355,-1.313 -3.355,-3.647 z m 21.81,-39.461 c -0.949,1.605 -1.605,2.918 -2.116,4.012 -3.866,7.804 -6.71,14.15 -8.388,19.11 0.802,-0.219 3.501,-0.948 7.951,-2.261 4.449,-1.24 7.44,-1.969 8.971,-2.334 -1.386,-4.304 -2.771,-8.388 -4.157,-12.108 z"
         id="path34299"
         style="font-size:64px;font-family:'Canted Comic';-inkscape-font-specification:'Canted Comic, Normal';white-space:pre;stroke:#000000;stroke-width:0;stroke-linejoin:round" /><path
         d="m 13437.422,-17529.906 c -0.365,5.689 -0.583,11.598 -0.583,17.797 0,7.222 0.218,15.683 0.656,25.238 v 0.219 c 0,1.823 -1.459,3.574 -3.428,3.647 h -0.219 c -1.824,0 -3.574,-1.459 -3.647,-3.428 -0.511,-8.389 -0.729,-16.777 -0.729,-25.165 0,-7.148 0.218,-13.421 0.656,-18.892 0.219,-2.261 1.386,-3.355 3.574,-3.355 h 0.365 c 2.261,0.219 3.355,1.386 3.355,3.574 z"
         id="path34301"
         style="font-size:64px;font-family:'Canted Comic';-inkscape-font-specification:'Canted Comic, Normal';white-space:pre;stroke:#000000;stroke-width:0;stroke-linejoin:round" /><path
         d="m 13453.25,-17486.287 c 0,2.261 -1.021,3.428 -3.136,3.647 -0.07,0.07 -0.292,0.07 -0.511,0.07 -2.115,0 -3.355,-1.022 -3.647,-3.137 -0.365,-3.209 -0.51,-6.2 -0.51,-8.972 -0.07,-0.218 -0.07,-0.437 -0.07,-0.802 0,-0.365 0,-0.729 0.07,-1.167 v -6.929 c 0,-8.024 0,-12.327 -0.07,-12.838 0,-0.584 -0.07,-1.896 -0.292,-4.012 l -0.07,-2.844 -0.146,-4.085 v -1.605 l 0.146,-1.24 c 0.292,-1.532 2.188,-3.136 4.23,-3.136 1.824,0 3.72,1.021 5.544,2.99 0.511,0.511 1.094,1.24 1.896,2.189 l 0.73,1.021 c 5.908,7.513 12.254,16.411 19.183,26.55 l 2.553,4.012 v -2.918 c 0.438,-10.576 0.657,-19.11 0.657,-25.529 0,-3.574 0,-5.762 -0.07,-6.565 v -0.219 c 0,-1.823 1.459,-3.501 3.501,-3.574 h 0.219 c 1.823,0 3.501,1.459 3.574,3.502 l 0.146,7.294 c 0,7.513 -0.219,15.974 -0.73,25.383 v 3.72 c 0,1.386 0,2.261 -0.07,2.626 -0.364,5.762 -2.261,8.607 -5.689,8.607 h -0.146 c -0.729,0 -1.386,-0.219 -1.969,-0.657 l -0.73,-0.583 -7.367,-11.014 c -5.762,-8.68 -11.743,-17.068 -18.089,-25.238 l 0.292,5.033 c 0.07,0.438 0.07,1.751 0.07,3.939 0,2.188 0,5.252 -0.07,9.191 v 7.002 c 0,1.021 0,1.605 0.07,1.823 0,3.137 0.146,5.763 0.51,8.024 z"
         id="path34303"
         style="font-size:64px;font-family:'Canted Comic';-inkscape-font-specification:'Canted Comic, Normal';white-space:pre;stroke:#000000;stroke-width:0;stroke-linejoin:round" /><path
         d="m 13498.692,-17529.906 c -0.364,5.689 -0.583,11.598 -0.583,17.797 0,7.222 0.219,15.683 0.656,25.238 v 0.219 c 0,1.823 -1.459,3.574 -3.428,3.647 h -0.219 c -1.823,0 -3.574,-1.459 -3.647,-3.428 -0.51,-8.389 -0.729,-16.777 -0.729,-25.165 0,-7.148 0.219,-13.421 0.656,-18.892 0.219,-2.261 1.386,-3.355 3.574,-3.355 h 0.365 c 2.261,0.219 3.355,1.386 3.355,3.574 z"
         id="path34305"
         style="font-size:64px;font-family:'Canted Comic';-inkscape-font-specification:'Canted Comic, Normal';white-space:pre;stroke:#000000;stroke-width:0;stroke-linejoin:round" /><path
         d="m 13514.521,-17486.287 c 0,2.261 -1.022,3.428 -3.137,3.647 -0.07,0.07 -0.292,0.07 -0.51,0.07 -2.116,0 -3.356,-1.022 -3.647,-3.137 -0.365,-3.209 -0.511,-6.2 -0.511,-8.972 -0.07,-0.218 -0.07,-0.437 -0.07,-0.802 0,-0.365 0,-0.729 0.07,-1.167 v -6.929 c 0,-8.024 0,-12.327 -0.07,-12.838 0,-0.584 -0.07,-1.896 -0.292,-4.012 l -0.07,-2.844 -0.146,-4.085 v -1.605 l 0.146,-1.24 c 0.292,-1.532 2.189,-3.136 4.231,-3.136 1.823,0 3.72,1.021 5.543,2.99 0.511,0.511 1.094,1.24 1.897,2.189 l 0.729,1.021 c 5.908,7.513 12.254,16.411 19.184,26.55 l 2.553,4.012 v -2.918 c 0.437,-10.576 0.656,-19.11 0.656,-25.529 0,-3.574 0,-5.762 -0.07,-6.565 v -0.219 c 0,-1.823 1.459,-3.501 3.501,-3.574 h 0.219 c 1.824,0 3.501,1.459 3.574,3.502 l 0.146,7.294 c 0,7.513 -0.219,15.974 -0.729,25.383 v 3.72 c 0,1.386 0,2.261 -0.07,2.626 -0.365,5.762 -2.261,8.607 -5.69,8.607 h -0.146 c -0.729,0 -1.385,-0.219 -1.969,-0.657 l -0.729,-0.583 -7.367,-11.014 c -5.763,-8.68 -11.744,-17.068 -18.09,-25.238 l 0.292,5.033 c 0.07,0.438 0.07,1.751 0.07,3.939 0,2.188 0,5.252 -0.07,9.191 v 7.002 c 0,1.021 0,1.605 0.07,1.823 0,3.137 0.146,5.763 0.511,8.024 z"
         id="path34307"
         style="font-size:64px;font-family:'Canted Comic';-inkscape-font-specification:'Canted Comic, Normal';white-space:pre;stroke:#000000;stroke-width:0;stroke-linejoin:round" /><path
         d="m 13588.483,-17502.553 -0.511,-0.146 c -0.511,-0.146 -1.167,-0.219 -2.042,-0.219 -1.24,0 -2.335,0.07 -3.283,0.292 -1.24,0.219 -3.72,1.094 -7.586,2.626 -0.437,0.146 -0.875,0.218 -1.313,0.218 -0.583,0 -1.094,-0.07 -1.458,-0.291 -0.949,-0.365 -1.532,-1.094 -1.897,-2.043 -0.219,-0.364 -0.292,-0.802 -0.292,-1.313 0,-0.583 0.07,-1.094 0.292,-1.458 0.365,-0.949 1.094,-1.605 2.043,-1.97 4.084,-1.677 7.075,-2.626 9.044,-2.917 1.678,-0.292 3.283,-0.438 4.668,-0.438 1.386,0 2.626,0.146 3.72,0.438 2.845,0.802 4.669,2.334 5.471,4.741 0.292,0.802 0.438,1.677 0.438,2.626 0,3.136 -1.386,6.345 -4.231,9.774 -5.471,6.71 -12.546,10.138 -21.08,10.211 h -0.51 c -11.379,0 -19.33,-7.002 -19.913,-17.797 v -0.948 c 0,-3.429 0.948,-7.003 2.844,-10.65 0.803,-1.604 1.824,-3.282 3.21,-5.033 4.741,-6.2 10.722,-10.795 17.943,-13.713 3.137,-1.167 6.127,-2.042 8.972,-2.552 1.823,-0.219 3.209,-0.365 4.085,-0.365 0.875,0 1.458,0 1.677,0.07 2.699,0.219 4.668,1.313 5.763,3.136 0.51,0.803 0.729,1.678 0.729,2.699 0,0.511 -0.146,1.24 -0.365,2.188 l -0.146,0.803 -0.218,0.364 c -0.07,0.07 -0.07,0.146 -0.07,0.219 l -0.584,4.668 c -0.292,2.116 -1.532,3.21 -3.647,3.21 -0.219,0 -0.365,0 -0.438,-0.07 -2.115,-0.219 -3.209,-1.459 -3.209,-3.647 l 0.584,-4.96 c 0.07,-0.438 0.145,-0.876 0.364,-1.386 h -0.437 c -1.094,0 -2.043,0.07 -2.845,0.292 -5.471,0.948 -10.576,3.136 -15.464,6.637 -7.658,5.836 -11.451,11.89 -11.451,18.09 0,8.242 5.835,11.451 12.546,11.451 h 0.364 c 6.638,-0.218 11.525,-2.407 14.807,-6.564 2.261,-2.699 3.429,-4.742 3.429,-6.127 z"
         id="path34309"
         style="font-size:64px;font-family:'Canted Comic';-inkscape-font-specification:'Canted Comic, Normal';white-space:pre;stroke:#000000;stroke-width:0;stroke-linejoin:round" /><path
         d="m 13239.17,-17288.957 c 0.803,-10.066 5.179,-22.976 13.13,-38.805 1.969,-3.865 3.72,-6.856 5.106,-8.825 1.385,-1.897 2.771,-2.845 4.23,-2.845 0.365,0 0.657,0 0.73,0.07 1.094,0.219 1.823,0.583 2.188,1.24 l 0.292,0.292 c 0.145,0.218 0.291,0.51 0.437,0.875 0.219,0.365 0.511,0.948 0.803,1.605 0.291,0.51 0.802,1.896 1.604,4.157 l 2.407,6.565 c 0.657,1.677 1.751,5.033 3.428,9.993 l 4.085,12.837 3.064,10.066 0.146,1.094 c 0,1.824 -0.876,2.991 -2.553,3.501 l -1.094,0.146 c -1.824,0 -2.991,-0.875 -3.502,-2.553 l -4.084,-13.348 c -2.553,0.584 -5.617,1.386 -9.191,2.334 -7.367,2.116 -11.525,3.21 -12.473,3.429 -0.802,2.99 -1.24,5.908 -1.459,8.752 -0.218,2.262 -1.385,3.356 -3.647,3.356 -0.145,0 -0.218,0 -0.291,-0.07 -2.262,-0.07 -3.356,-1.313 -3.356,-3.647 z m 21.81,-39.461 c -0.949,1.605 -1.605,2.918 -2.116,4.012 -3.865,7.804 -6.71,14.15 -8.388,19.11 0.803,-0.219 3.501,-0.948 7.951,-2.261 4.449,-1.24 7.44,-1.969 8.971,-2.334 -1.385,-4.304 -2.771,-8.388 -4.157,-12.108 z"
         id="path34312"
         style="font-size:64px;font-family:'Canted Comic';-inkscape-font-specification:'Canted Comic, Normal';white-space:pre;stroke:#000000;stroke-width:0;stroke-linejoin:round" /><path
         d="m 13285.123,-17307.046 c 0,-9.993 0.875,-19.403 2.553,-28.229 0.365,-1.969 1.532,-2.917 3.501,-2.917 0.365,0 0.657,0 0.803,0.07 1.969,0.364 2.917,1.532 2.917,3.501 0,0.438 0,0.729 -0.07,0.802 -1.532,8.534 -2.334,18.527 -2.334,30.125 l 0.146,9.92 c 6.2,0 13.056,-0.511 20.569,-1.605 l 11.16,-1.532 c 0.07,-0.07 0.292,-0.07 0.584,-0.07 2.115,0 3.282,1.022 3.574,3.064 v 0.511 c 0,2.261 -1.021,3.428 -3.137,3.647 -9.92,1.531 -17.724,2.48 -23.341,2.844 -4.449,0.219 -7.877,0.365 -10.138,0.365 h -2.626 c -1.678,-0.07 -2.772,-0.875 -3.356,-2.553 -0.291,-0.584 -0.437,-1.167 -0.51,-1.751 -0.219,-7.658 -0.292,-12.618 -0.292,-14.734 z"
         id="path34314"
         style="font-size:64px;font-family:'Canted Comic';-inkscape-font-specification:'Canted Comic, Normal';white-space:pre;stroke:#000000;stroke-width:0;stroke-linejoin:round" /><path
         d="m 13335.452,-17307.046 c 0,-9.993 0.876,-19.403 2.553,-28.229 0.365,-1.969 1.532,-2.917 3.501,-2.917 0.365,0 0.657,0 0.803,0.07 1.969,0.364 2.917,1.532 2.917,3.501 0,0.438 0,0.729 -0.07,0.802 -1.531,8.534 -2.334,18.527 -2.334,30.125 l 0.146,9.92 c 6.2,0 13.057,-0.511 20.57,-1.605 l 11.16,-1.532 c 0.07,-0.07 0.291,-0.07 0.583,-0.07 2.115,0 3.282,1.022 3.574,3.064 v 0.511 c 0,2.261 -1.021,3.428 -3.136,3.647 -9.92,1.531 -17.725,2.48 -23.341,2.844 -4.45,0.219 -7.878,0.365 -10.139,0.365 h -2.626 c -1.678,-0.07 -2.772,-0.875 -3.355,-2.553 -0.292,-0.584 -0.438,-1.167 -0.511,-1.751 -0.219,-7.658 -0.292,-12.618 -0.292,-14.734 z"
         id="path34316"
         style="font-size:64px;font-family:'Canted Comic';-inkscape-font-specification:'Canted Comic, Normal';white-space:pre;stroke:#000000;stroke-width:0;stroke-linejoin:round" /><path
         d="m 13444.353,-17295.814 h 0.438 c 2.261,0 3.501,1.022 3.72,3.137 v 0.51 c 0,2.116 -1.022,3.356 -3.137,3.648 l -3.282,0.437 -12.327,1.97 -9.337,1.313 c -1.385,0.218 -2.553,0.364 -3.428,0.437 -0.219,0.07 -0.729,0.07 -1.386,0.07 -0.291,0 -0.802,-0.07 -1.458,-0.146 -2.699,-0.656 -4.596,-1.896 -5.836,-3.793 -0.364,-0.51 -0.51,-0.948 -0.51,-1.24 v -37.637 c 0,-0.948 0,-1.459 0.07,-1.678 0.656,-5.179 3.647,-6.783 10.284,-7.44 9.41,-1.24 17.579,-1.823 24.581,-1.823 2.043,0 3.647,1.604 3.647,3.647 0,2.042 -1.604,3.647 -3.647,3.647 -5.908,0 -13.858,0.583 -23.705,1.75 -1.386,0.146 -2.335,0.292 -2.991,0.438 -0.584,0.07 -0.875,0.292 -0.875,0.729 v 3.793 c 0,5.033 0,8.753 -0.07,11.087 l 26.258,-4.303 c 0.07,-0.07 0.365,-0.07 0.73,-0.07 1.969,0 3.136,1.021 3.501,2.99 v 0.73 c 0,2.042 -1.021,3.209 -3.064,3.501 -8.388,1.386 -17.578,2.918 -27.498,4.522 v 13.786 l 0.51,0.146 h 0.876 l 3.063,-0.365 c 2.261,-0.291 5.325,-0.729 9.191,-1.313 z"
         id="path34318"
         style="font-size:64px;font-family:'Canted Comic';-inkscape-font-specification:'Canted Comic, Normal';white-space:pre;stroke:#000000;stroke-width:0;stroke-linejoin:round" /><path
         d="m 13452.887,-17307.046 c 0,-9.993 0.875,-19.403 2.553,-28.229 0.365,-1.969 1.532,-2.917 3.501,-2.917 0.365,0 0.657,0 0.803,0.07 1.969,0.364 2.917,1.532 2.917,3.501 0,0.438 0,0.729 -0.07,0.802 -1.532,8.534 -2.334,18.527 -2.334,30.125 l 0.146,9.92 c 6.2,0 13.056,-0.511 20.569,-1.605 l 11.16,-1.532 c 0.07,-0.07 0.292,-0.07 0.584,-0.07 2.115,0 3.282,1.022 3.574,3.064 v 0.511 c 0,2.261 -1.021,3.428 -3.137,3.647 -9.92,1.531 -17.724,2.48 -23.341,2.844 -4.449,0.219 -7.877,0.365 -10.138,0.365 h -2.626 c -1.678,-0.07 -2.772,-0.875 -3.356,-2.553 -0.291,-0.584 -0.437,-1.167 -0.51,-1.751 -0.219,-7.658 -0.292,-12.618 -0.292,-14.734 z"
         id="path34320"
         style="font-size:64px;font-family:'Canted Comic';-inkscape-font-specification:'Canted Comic, Normal';white-space:pre;stroke:#000000;stroke-width:0;stroke-linejoin:round" /><path
         d="m 13544.793,-17321.926 c -0.511,1.75 -1.678,2.626 -3.502,2.626 -0.145,0 -0.437,-0.07 -0.948,-0.146 -1.823,-0.511 -2.699,-1.678 -2.699,-3.502 l 0.146,-1.021 c 0.07,-0.07 0.584,-1.386 1.532,-3.866 l 0.146,-0.364 -1.313,-0.438 c -2.553,-0.656 -5.033,-1.021 -7.44,-1.021 h -0.729 c -6.346,0.219 -10.941,2.407 -13.64,6.492 -0.07,0.364 -0.146,0.802 -0.146,1.313 v 0.802 c 0.07,1.605 0.875,2.918 2.48,3.866 1.532,0.948 4.303,1.823 8.242,2.626 13.129,2.844 16.193,3.866 19.329,8.753 1.313,1.969 1.97,3.938 1.97,5.908 0,0.656 -0.146,1.386 -0.365,2.188 -1.969,6.2 -6.637,9.92 -14.077,11.16 -2.699,0.438 -5.544,0.656 -8.535,0.656 -1.312,0 -2.115,0 -2.479,-0.07 -10.577,-0.437 -16.704,-3.063 -18.527,-7.877 -0.511,-1.24 -0.73,-2.772 -0.803,-4.741 l -0.146,-3.866 c 0,-2.261 1.094,-3.428 3.283,-3.647 h 0.364 c 2.262,0 3.429,1.094 3.647,3.282 0,6.711 0,7.002 3.72,8.17 2.189,0.802 5.106,1.24 8.826,1.385 0.365,0.07 1.094,0.07 2.334,0.07 6.346,0 10.358,-0.729 11.89,-2.115 1.969,-1.751 3.136,-3.282 3.574,-4.668 l -0.146,-0.657 -0.584,-1.094 c -0.802,-1.313 -2.042,-2.261 -3.793,-2.917 -1.823,-0.657 -5.47,-1.532 -11.014,-2.772 -11.305,-2.407 -16.192,-5.762 -16.484,-13.348 v -0.73 c 0,-8.971 10.284,-15.39 22.538,-15.39 h 1.24 c 2.699,0.07 5.325,0.583 7.805,1.386 0.657,0 1.459,0.218 2.48,0.729 2.115,0.802 3.428,2.188 3.866,4.012 l 0.146,1.532 c 0,1.312 -0.292,2.698 -0.875,4.157 z"
         id="path34322"
         style="font-size:64px;font-family:'Canted Comic';-inkscape-font-specification:'Canted Comic, Normal';white-space:pre;stroke:#000000;stroke-width:0;stroke-linejoin:round" /><path
         d="m 13591.621,-17295.814 h 0.437 c 2.261,0 3.501,1.022 3.72,3.137 v 0.51 c 0,2.116 -1.021,3.356 -3.136,3.648 l -3.283,0.437 -12.327,1.97 -9.336,1.313 c -1.386,0.218 -2.553,0.364 -3.428,0.437 -0.219,0.07 -0.73,0.07 -1.386,0.07 -0.292,0 -0.803,-0.07 -1.459,-0.146 -2.699,-0.656 -4.595,-1.896 -5.835,-3.793 -0.365,-0.51 -0.511,-0.948 -0.511,-1.24 v -37.637 c 0,-0.948 0,-1.459 0.07,-1.678 0.657,-5.179 3.647,-6.783 10.285,-7.44 9.409,-1.24 17.579,-1.823 24.581,-1.823 2.042,0 3.647,1.604 3.647,3.647 0,2.042 -1.605,3.647 -3.647,3.647 -5.908,0 -13.859,0.583 -23.706,1.75 -1.386,0.146 -2.334,0.292 -2.991,0.438 -0.583,0.07 -0.875,0.292 -0.875,0.729 v 3.793 c 0,5.033 0,8.753 -0.07,11.087 l 26.259,-4.303 c 0.07,-0.07 0.365,-0.07 0.729,-0.07 1.97,0 3.137,1.021 3.502,2.99 v 0.73 c 0,2.042 -1.022,3.209 -3.064,3.501 -8.388,1.386 -17.579,2.918 -27.499,4.522 v 13.786 l 0.511,0.146 h 0.875 l 3.064,-0.365 c 2.261,-0.291 5.324,-0.729 9.19,-1.313 z"
         id="path34324"
         style="font-size:64px;font-family:'Canted Comic';-inkscape-font-specification:'Canted Comic, Normal';white-space:pre;stroke:#000000;stroke-width:0;stroke-linejoin:round" /><path
         style="fill:none;fill-opacity:1;stroke:#000000;stroke-width:7.6105;stroke-linecap:round;stroke-linejoin:bevel;stroke-dasharray:none;stroke-opacity:1"
         d="m 13100.637,-17311.86 h 45.631"
         id="path29722-4-1" /><path
         style="fill:none;fill-opacity:1;stroke:#000000;stroke-width:7.6105;stroke-linecap:round;stroke-linejoin:bevel;stroke-dasharray:none;stroke-opacity:1"
         d="m 13123.453,-17334.675 v 45.63"
         id="path29722-1-0" /><path
         d="m 13213.712,-17430.984 c -0.365,5.689 -0.584,11.598 -0.584,17.797 0,7.222 0.219,15.683 0.657,25.238 v 0.219 c 0,1.823 -1.459,3.574 -3.428,3.647 h -0.219 c -1.824,0 -3.574,-1.459 -3.647,-3.428 -0.511,-8.389 -0.73,-16.777 -0.73,-25.165 0,-7.148 0.219,-13.421 0.657,-18.892 0.219,-2.261 1.386,-3.355 3.574,-3.355 h 0.365 c 2.261,0.219 3.355,1.386 3.355,3.574 z"
         id="path34327"
         style="font-size:64px;font-family:'Canted Comic';-inkscape-font-specification:'Canted Comic, Normal';white-space:pre;stroke:#000000;stroke-width:0;stroke-linejoin:round" /><path
         d="m 13229.54,-17387.365 c 0,2.261 -1.021,3.428 -3.136,3.647 -0.07,0.07 -0.292,0.07 -0.511,0.07 -2.115,0 -3.355,-1.022 -3.647,-3.137 -0.365,-3.209 -0.51,-6.2 -0.51,-8.972 -0.07,-0.218 -0.07,-0.437 -0.07,-0.802 0,-0.365 0,-0.729 0.07,-1.167 v -6.929 c 0,-8.024 0,-12.327 -0.07,-12.838 0,-0.584 -0.07,-1.896 -0.292,-4.012 l -0.07,-2.844 -0.146,-4.085 v -1.605 l 0.146,-1.24 c 0.292,-1.532 2.188,-3.136 4.23,-3.136 1.824,0 3.72,1.021 5.544,2.99 0.511,0.511 1.094,1.24 1.896,2.189 l 0.73,1.021 c 5.908,7.513 12.254,16.411 19.183,26.55 l 2.553,4.012 v -2.918 c 0.438,-10.576 0.657,-19.11 0.657,-25.529 0,-3.574 0,-5.762 -0.07,-6.565 v -0.219 c 0,-1.823 1.459,-3.501 3.501,-3.574 h 0.219 c 1.823,0 3.501,1.459 3.574,3.502 l 0.146,7.294 c 0,7.513 -0.219,15.974 -0.73,25.383 v 3.72 c 0,1.386 0,2.261 -0.07,2.626 -0.364,5.762 -2.261,8.607 -5.689,8.607 h -0.146 c -0.729,0 -1.386,-0.219 -1.969,-0.657 l -0.73,-0.583 -7.367,-11.014 c -5.762,-8.68 -11.743,-17.068 -18.089,-25.238 l 0.292,5.033 c 0.07,0.438 0.07,1.751 0.07,3.939 0,2.188 0,5.252 -0.07,9.191 v 7.002 c 0,1.021 0,1.605 0.07,1.823 0,3.137 0.146,5.763 0.51,8.024 z"
         id="path34329"
         style="font-size:64px;font-family:'Canted Comic';-inkscape-font-specification:'Canted Comic, Normal';white-space:pre;stroke:#000000;stroke-width:0;stroke-linejoin:round" /><path
         d="m 13270.241,-17432.808 c 3.428,-0.364 9.191,-0.802 17.141,-1.313 7.951,-0.51 13.494,-0.948 16.631,-1.458 h 0.437 c 2.189,0 3.429,1.021 3.72,3.136 v 0.511 c 0,2.115 -1.021,3.355 -3.136,3.647 -3.355,0.51 -9.118,0.948 -17.214,1.459 -7.878,0.51 -12.619,0.875 -14.224,1.021 0,3.866 0.219,7.95 0.657,12.327 3.866,-0.219 9.701,-0.73 17.506,-1.605 l 8.388,-0.948 c 2.261,0 3.428,1.094 3.647,3.282 v 0.365 c 0,2.188 -1.094,3.428 -3.282,3.647 l -7.878,0.802 c -6.929,0.876 -12.765,1.459 -17.506,1.678 0.584,4.157 1.605,10.285 2.991,18.454 0.07,0.07 0.07,0.365 0.07,0.729 0,2.043 -1.022,3.21 -2.991,3.501 -0.07,0.07 -0.365,0.07 -0.729,0.07 -2.043,0 -3.21,-1.021 -3.502,-2.99 -0.07,-0.657 -0.218,-1.386 -0.437,-2.261 -1.824,-10.723 -3.064,-19.476 -3.647,-26.259 -0.365,-4.449 -0.584,-8.096 -0.584,-10.941 0,-2.845 0.365,-4.741 1.021,-5.544 0.511,-0.656 1.24,-1.021 2.116,-1.094 z"
         id="path34331"
         style="font-size:64px;font-family:'Canted Comic';-inkscape-font-specification:'Canted Comic, Normal';white-space:pre;stroke:#000000;stroke-width:0;stroke-linejoin:round" /><path
         d="m 13349.09,-17393.42 h 0.438 c 2.261,0 3.501,1.022 3.72,3.137 v 0.51 c 0,2.116 -1.021,3.356 -3.137,3.648 l -3.282,0.437 -12.327,1.97 -9.336,1.313 c -1.386,0.218 -2.553,0.364 -3.429,0.437 -0.219,0.07 -0.729,0.07 -1.386,0.07 -0.291,0 -0.802,-0.07 -1.458,-0.146 -2.699,-0.656 -4.596,-1.896 -5.836,-3.793 -0.364,-0.51 -0.51,-0.948 -0.51,-1.24 v -37.637 c 0,-0.948 0,-1.459 0.07,-1.678 0.656,-5.179 3.647,-6.783 10.284,-7.44 9.41,-1.24 17.579,-1.823 24.581,-1.823 2.043,0 3.647,1.604 3.647,3.647 0,2.042 -1.604,3.647 -3.647,3.647 -5.908,0 -13.858,0.583 -23.705,1.75 -1.386,0.146 -2.334,0.292 -2.991,0.438 -0.583,0.07 -0.875,0.292 -0.875,0.729 v 3.793 c 0,5.033 0,8.753 -0.07,11.087 l 26.259,-4.303 c 0.07,-0.07 0.364,-0.07 0.729,-0.07 1.969,0 3.136,1.021 3.501,2.99 v 0.73 c 0,2.042 -1.021,3.209 -3.063,3.501 -8.389,1.386 -17.579,2.918 -27.499,4.522 v 13.786 l 0.51,0.146 h 0.876 l 3.063,-0.365 c 2.261,-0.291 5.325,-0.729 9.191,-1.313 z"
         id="path34333"
         style="font-size:64px;font-family:'Canted Comic';-inkscape-font-specification:'Canted Comic, Normal';white-space:pre;stroke:#000000;stroke-width:0;stroke-linejoin:round" /><path
         d="m 13385.488,-17400.641 c 8.169,4.231 14.004,7.076 17.433,8.607 0.948,0.365 1.604,1.094 1.969,2.043 0.146,0.437 0.219,0.875 0.219,1.313 0,0.583 -0.07,1.094 -0.292,1.458 -0.365,0.949 -1.021,1.532 -1.969,1.897 -0.365,0.219 -0.876,0.292 -1.386,0.292 -0.584,0 -1.094,-0.07 -1.459,-0.292 -3.282,-1.532 -9.191,-4.45 -17.871,-8.826 -6.2,-3.136 -11.305,-5.398 -15.171,-6.929 0.07,5.47 0.51,9.993 1.24,13.713 0.07,0.07 0.07,0.364 0.07,0.729 0,1.969 -0.949,3.136 -2.918,3.501 -0.146,0.07 -0.438,0.07 -0.802,0.07 -1.97,0 -3.137,-1.021 -3.501,-2.991 -1.022,-5.105 -1.532,-12.545 -1.532,-22.319 0,-5.617 0,-8.753 -0.07,-9.483 l -0.146,-2.407 c -0.219,-2.188 -0.292,-4.668 -0.292,-7.44 0.07,-1.969 0.438,-3.355 1.094,-4.157 1.386,-1.824 4.741,-2.991 10.139,-3.356 l 3.939,-0.146 c 10.576,0 18.089,2.189 22.539,6.638 1.823,1.824 2.917,3.866 3.282,6.2 0.07,0.219 0.07,0.729 0.07,1.459 0,2.115 -0.511,4.23 -1.605,6.346 -1.969,4.011 -5.689,7.075 -11.16,9.336 -2.48,0.948 -4.887,1.678 -7.148,2.115 z m -19.184,-26.696 c 0,2.261 0.07,4.522 0.292,6.783 l 0.292,6.055 v 4.668 c 0.51,0.07 1.677,0.07 3.501,0.07 11.014,0 19.183,-3.356 21.518,-8.316 0.51,-1.24 0.802,-2.188 0.802,-2.844 0,-1.021 -0.365,-1.897 -1.094,-2.626 -3.137,-2.991 -9.118,-4.522 -17.871,-4.522 -2.99,0 -5.397,0.218 -7.221,0.656 z"
         id="path34335"
         style="font-size:64px;font-family:'Canted Comic';-inkscape-font-specification:'Canted Comic, Normal';white-space:pre;stroke:#000000;stroke-width:0;stroke-linejoin:round" /><path
         d="m 13446.174,-17393.42 h 0.438 c 2.261,0 3.501,1.022 3.72,3.137 v 0.51 c 0,2.116 -1.021,3.356 -3.136,3.648 l -3.283,0.437 -12.327,1.97 -9.336,1.313 c -1.386,0.218 -2.553,0.364 -3.428,0.437 -0.219,0.07 -0.73,0.07 -1.386,0.07 -0.292,0 -0.803,-0.07 -1.459,-0.146 -2.699,-0.656 -4.595,-1.896 -5.835,-3.793 -0.365,-0.51 -0.511,-0.948 -0.511,-1.24 v -37.637 c 0,-0.948 0,-1.459 0.07,-1.678 0.657,-5.179 3.647,-6.783 10.285,-7.44 9.409,-1.24 17.578,-1.823 24.581,-1.823 2.042,0 3.647,1.604 3.647,3.647 0,2.042 -1.605,3.647 -3.647,3.647 -5.908,0 -13.859,0.583 -23.706,1.75 -1.386,0.146 -2.334,0.292 -2.991,0.438 -0.583,0.07 -0.875,0.292 -0.875,0.729 v 3.793 c 0,5.033 0,8.753 -0.07,11.087 l 26.259,-4.303 c 0.07,-0.07 0.365,-0.07 0.729,-0.07 1.97,0 3.137,1.021 3.501,2.99 v 0.73 c 0,2.042 -1.021,3.209 -3.063,3.501 -8.388,1.386 -17.579,2.918 -27.499,4.522 v 13.786 l 0.511,0.146 h 0.875 l 3.064,-0.365 c 2.261,-0.291 5.324,-0.729 9.19,-1.313 z"
         id="path34337"
         style="font-size:64px;font-family:'Canted Comic';-inkscape-font-specification:'Canted Comic, Normal';white-space:pre;stroke:#000000;stroke-width:0;stroke-linejoin:round" /><path
         d="m 13463.097,-17387.365 c 0,2.261 -1.021,3.428 -3.137,3.647 -0.07,0.07 -0.291,0.07 -0.51,0.07 -2.115,0 -3.355,-1.022 -3.647,-3.137 -0.365,-3.209 -0.511,-6.2 -0.511,-8.972 -0.07,-0.218 -0.07,-0.437 -0.07,-0.802 0,-0.365 0,-0.729 0.07,-1.167 v -6.929 c 0,-8.024 0,-12.327 -0.07,-12.838 0,-0.584 -0.07,-1.896 -0.292,-4.012 l -0.07,-2.844 -0.146,-4.085 v -1.605 l 0.146,-1.24 c 0.291,-1.532 2.188,-3.136 4.23,-3.136 1.824,0 3.72,1.021 5.544,2.99 0.51,0.511 1.094,1.24 1.896,2.189 l 0.729,1.021 c 5.909,7.513 12.255,16.411 19.184,26.55 l 2.553,4.012 v -2.918 c 0.437,-10.576 0.656,-19.11 0.656,-25.529 0,-3.574 0,-5.762 -0.07,-6.565 v -0.219 c 0,-1.823 1.459,-3.501 3.502,-3.574 h 0.218 c 1.824,0 3.502,1.459 3.574,3.502 l 0.146,7.294 c 0,7.513 -0.218,15.974 -0.729,25.383 v 3.72 c 0,1.386 0,2.261 -0.07,2.626 -0.365,5.762 -2.261,8.607 -5.689,8.607 h -0.146 c -0.73,0 -1.386,-0.219 -1.97,-0.657 l -0.729,-0.583 -7.367,-11.014 c -5.762,-8.68 -11.744,-17.068 -18.089,-25.238 l 0.291,5.033 c 0.07,0.438 0.07,1.751 0.07,3.939 0,2.188 0,5.252 -0.07,9.191 v 7.002 c 0,1.021 0,1.605 0.07,1.823 0,3.137 0.146,5.763 0.511,8.024 z"
         id="path34339"
         style="font-size:64px;font-family:'Canted Comic';-inkscape-font-specification:'Canted Comic, Normal';white-space:pre;stroke:#000000;stroke-width:0;stroke-linejoin:round" /><path
         d="m 13541.216,-17427.775 c -1.386,0.07 -2.844,0.219 -4.449,0.584 -16.412,3.428 -28.666,14.442 -29.176,25.602 v 0.438 c 0,5.033 3.355,8.315 9.993,9.847 1.677,0.364 3.938,0.583 6.856,0.583 0.948,0 1.605,0 1.824,-0.07 5.908,-0.583 11.014,-2.334 15.39,-5.251 0.656,-0.365 1.386,-0.584 2.042,-0.584 0.365,0 0.657,0 0.73,0.07 1.969,0.365 2.917,1.532 2.917,3.574 0,0.365 0,0.657 -0.07,0.73 -0.218,0.948 -0.729,1.75 -1.531,2.334 -5.471,3.574 -11.671,5.689 -18.746,6.418 -0.292,0.07 -1.094,0.07 -2.407,0.07 -1.532,0 -2.553,0 -3.064,-0.07 -2.334,-0.145 -4.157,-0.364 -5.543,-0.656 -10.431,-2.48 -15.682,-8.169 -15.682,-17.068 v -0.657 c 0.583,-14.88 15.244,-28.447 35.084,-32.458 2.261,-0.511 4.231,-0.73 5.981,-0.803 h 0.292 c 2.48,0 4.376,0.584 5.616,1.678 0.803,0.656 1.24,1.532 1.386,2.626 0.07,0.219 0.07,0.656 0.07,1.459 l -0.291,2.771 c -0.07,0.146 -0.365,1.751 -0.876,4.887 -0.292,2.043 -1.459,3.064 -3.501,3.064 -0.365,0 -0.583,0 -0.656,-0.07 -2.043,-0.292 -3.064,-1.459 -3.064,-3.428 0,-0.365 0,-0.657 0.07,-0.73 z"
         id="path34341"
         style="font-size:64px;font-family:'Canted Comic';-inkscape-font-specification:'Canted Comic, Normal';white-space:pre;stroke:#000000;stroke-width:0;stroke-linejoin:round" /><path
         d="m 13591.619,-17393.42 h 0.437 c 2.261,0 3.501,1.022 3.72,3.137 v 0.51 c 0,2.116 -1.021,3.356 -3.136,3.648 l -3.283,0.437 -12.327,1.97 -9.336,1.313 c -1.386,0.218 -2.553,0.364 -3.428,0.437 -0.219,0.07 -0.73,0.07 -1.386,0.07 -0.292,0 -0.802,-0.07 -1.459,-0.146 -2.699,-0.656 -4.595,-1.896 -5.835,-3.793 -0.365,-0.51 -0.511,-0.948 -0.511,-1.24 v -37.637 c 0,-0.948 0,-1.459 0.07,-1.678 0.657,-5.179 3.647,-6.783 10.285,-7.44 9.409,-1.24 17.579,-1.823 24.581,-1.823 2.042,0 3.647,1.604 3.647,3.647 0,2.042 -1.605,3.647 -3.647,3.647 -5.908,0 -13.859,0.583 -23.706,1.75 -1.386,0.146 -2.334,0.292 -2.99,0.438 -0.584,0.07 -0.876,0.292 -0.876,0.729 v 3.793 c 0,5.033 0,8.753 -0.07,11.087 l 26.259,-4.303 c 0.07,-0.07 0.365,-0.07 0.729,-0.07 1.97,0 3.137,1.021 3.502,2.99 v 0.73 c 0,2.042 -1.022,3.209 -3.064,3.501 -8.388,1.386 -17.579,2.918 -27.499,4.522 v 13.786 l 0.511,0.146 h 0.875 l 3.064,-0.365 c 2.261,-0.291 5.324,-0.729 9.19,-1.313 z"
         id="path34343"
         style="font-size:64px;font-family:'Canted Comic';-inkscape-font-specification:'Canted Comic, Normal';white-space:pre;stroke:#000000;stroke-width:0;stroke-linejoin:round" /><path
         style="fill:none;fill-opacity:1;stroke:#000000;stroke-width:7.6105;stroke-linecap:round;stroke-linejoin:bevel;stroke-dasharray:none;stroke-opacity:1"
         d="m 13100.637,-17412.463 h 45.631"
         id="path29722-4-2-3" /><path
         style="fill:none;fill-opacity:1;stroke:#000000;stroke-width:7.6105;stroke-linecap:round;stroke-linejoin:bevel;stroke-dasharray:none;stroke-opacity:1"
         d="m 13123.453,-17435.278 v 45.63"
         id="path29722-1-1-2" /></g></g></svg>
