<?xml version="1.0" encoding="UTF-8" standalone="no"?>
<!-- Created with Inkscape (http://www.inkscape.org/) -->

<svg
   version="1.1"
   id="svg176"
   width="2907.7988"
   height="890.64355"
   viewBox="0 0 2907.7989 890.64355"
   sodipodi:docname="website for ai.svg"
   xml:space="preserve"
   inkscape:version="1.2.2 (b0a8486541, 2022-12-01)"
   xmlns:inkscape="http://www.inkscape.org/namespaces/inkscape"
   xmlns:sodipodi="http://sodipodi.sourceforge.net/DTD/sodipodi-0.dtd"
   xmlns="http://www.w3.org/2000/svg"
   xmlns:svg="http://www.w3.org/2000/svg"><defs
     id="defs180"><linearGradient
       id="linearGradient1486"
       inkscape:swatch="solid"><stop
         style="stop-color:#000000;stop-opacity:1;"
         offset="0"
         id="stop1484" /></linearGradient><rect
       x="-1955.4146"
       y="630.24219"
       width="1616.5107"
       height="249.089"
       id="rect3105-5-5-97-13-9-1-5-6-0-6-9-6-7-6-5-2-3-8-27-17-77-4-9" /><rect
       x="-1955.4146"
       y="630.24219"
       width="1173.1226"
       height="126.25886"
       id="rect3105-5-5-97-13-9-1-5-6-0-6-9-6-7-6-5-2-3-8-27-17-77-8-84-0" /><rect
       x="-1955.4146"
       y="630.24219"
       width="1258.9419"
       height="409.6745"
       id="rect3105-5-5-97-13-9-1-5-6-0-6-9-6-7-6-5-2-3-8-27-17-77-8-8-6-5" /><rect
       x="-1955.4146"
       y="630.24219"
       width="1235.2866"
       height="126.27376"
       id="rect3105-5-5-97-13-9-1-5-6-0-6-9-6-7-6-5-2-3-8-27-17-77-8-8-0-2-4" /></defs><sodipodi:namedview
     id="namedview178"
     pagecolor="#ffffff"
     bordercolor="#000000"
     borderopacity="0.25"
     inkscape:showpageshadow="2"
     inkscape:pageopacity="0.0"
     inkscape:pagecheckerboard="0"
     inkscape:deskcolor="#d1d1d1"
     showgrid="false"
     showguides="false"
     inkscape:zoom="0.08"
     inkscape:cx="6000"
     inkscape:cy="12162.5"
     inkscape:window-width="1920"
     inkscape:window-height="1011"
     inkscape:window-x="0"
     inkscape:window-y="0"
     inkscape:window-maximized="1"
     inkscape:current-layer="g26395"><inkscape:grid
       type="xygrid"
       id="grid2722" /></sodipodi:namedview><g
     inkscape:groupmode="layer"
     inkscape:label="Image"
     id="g182"
     transform="translate(-14881.422,9277.3721)"><g
       id="g109697"><g
         id="g109738"><g
           id="g28036-7-1"
           transform="matrix(0.65102415,0,0,0.65102415,18475.97,-24253.403)"
           style="stroke-width:1.62969"><path
             style="fill:#ffed12;fill-opacity:1;stroke:#000000;stroke-width:80;stroke-linecap:round;stroke-linejoin:round;stroke-dasharray:none;stroke-opacity:1"
             d="m -4800.0542,23043.802 -49.4134,69.333 -48.3348,85.025 -37.617,84.448 -44.9043,72.011 -42.9311,82.576 -37.7886,82.787 -40.3276,81.798 -41.4735,79.293 -41.4862,80.323 -39.2012,81.648 -42.2149,79.914 -42.3473,80.076 -42.5958,77.355 -44.9746,76.275 -43.3962,85.346 -42.3168,75.501 91.1596,0.96 92.6449,2.398 85.4132,0.109 92.1388,-1.701 91.0366,0.582 87.5318,-2.103 82.6604,-3.627 100.7377,0.993 90.505,2.414 90.6535,1.772 89.7463,0.42 91.062,3.615 83.5728,-7.518 100.7152,8.401 87.0046,1.478 c 1.2624,-0.119 -5.6526,-6.959 -9.6367,-16.439 -9.1008,-10.577 -6.8146,-19.13 -14.4852,-35.069 -5.9784,-15.747 -21.8747,-42.022 -34.9566,-67.916 -14.1334,-25.442 -19.0585,-50.067 -34.166,-79.371 -9.2202,-30.283 -35.5593,-68.145 -54.3,-103.874 -19.5211,-36.795 -33.7287,-67.342 -52.9601,-103.626 -17.8812,-36.937 -41.4108,-78.452 -62.8342,-118.498 -21.1356,-40.043 -55.9697,-91.992 -77.3572,-131.692 -32.4443,-47.928 -45.3903,-69.619 -63.6889,-103.677 -28.6457,-38.59 -37.8724,-72.571 -57.1337,-108.994 -17.8924,-35.665 -39.4654,-76.101 -58.1597,-111.865 -17.258,-34.264 -32.101,-64.113 -47.969,-94.68 -13.0884,-27.826 -35.1462,-64.772 -48.6836,-90.738 -15.3459,-26.606 -21.6658,-41.241 -30.1423,-57.832 -8.7523,-16.596 -19.4569,-38.109 -24.3645,-48.044 -4.6906,-9.496 -2.2565,-3.415 -2.2565,-3.415"
             id="path27175-9-7"
             sodipodi:nodetypes="ccsc" /><path
             id="path27959-4-9"
             d="m -4716.8252,24168.62 c 0,22.516 -10.4119,41.49 -25.1671,56.245 -14.7551,14.755 -34.9954,28.441 -57.511,28.441 -22.5156,0 -42.8858,-8.303 -57.7101,-24.383 -14.8243,-16.079 -28.6483,-44.068 -28.6483,-66.584 0,-22.516 14.3754,-41.009 30.267,-54.731 15.8916,-13.722 27.4011,-23.795 49.9167,-23.795 22.5156,0 44.0286,5.833 60.2583,20.869 16.2297,15.036 28.5945,41.422 28.5945,63.938 z"
             style="fill:#000000;fill-opacity:1;stroke:none;stroke-width:80.0001;stroke-linecap:round;stroke-linejoin:round;stroke-dasharray:none;stroke-opacity:1" /><path
             style="fill:#000000;fill-opacity:1;stroke:none;stroke-width:99.9998;stroke-linecap:round;stroke-linejoin:round;stroke-dasharray:none;stroke-opacity:1"
             d="m -4843.4716,23965.001 c 2.9945,32.786 31.6476,62.973 52.0566,62.628 20.4091,-0.344 33.6144,-22.151 36.4881,-53.56 2.4219,-26.47 -2.4126,-57.23 0.1734,-87.068 -4.8193,-31.655 5.6495,-59.915 8.702,-91.052 3.3262,-31.634 2.3576,-64.986 5.6144,-97.134 -0.7822,-32.957 3.706,-67.876 7.3432,-98.749 0.3655,-34.467 4.8546,-63.972 8.7018,-91.017 4.0022,-28.136 13.9245,-47.968 15.5655,-73.319 2.0893,-32.279 -17.1238,-64.428 -34.248,-80.931 -23.9282,-22.563 -30.5317,-18.657 -50.5798,-19.458 -19.6191,2.965 -57.7269,1.719 -76.1624,19.691 -16.734,16.314 -12.1228,48.868 -9.5962,81.762 1.9495,25.379 4.6054,54.925 6.4718,83.642 2.5905,30.281 10.6692,63.586 12.431,93.561 8.7773,35.219 4.4107,60.985 5.535,90.246 2.5967,33.765 7.8297,62.821 8.6867,93.039 6.6732,32.013 -10.1673,57.119 -10.3079,86.56 -0.139,29.086 10.6212,53.747 13.1248,81.159 z"
             id="path28031-9-3"
             sodipodi:nodetypes="sssss" /></g><path
           id="rect28092-1-9-6"
           style="fill:#ffed12;stroke-width:57.7225;stroke-linecap:round;stroke-linejoin:round"
           d="m 16120.746,-9277.3721 h 1553.03 c 63.957,0 115.445,51.4886 115.445,115.4452 v 659.7536 c 0,63.9566 -51.488,115.4452 -115.445,115.4452 h -1553.03 c -63.957,0 -115.445,-51.4886 -115.445,-115.4452 v -659.7536 c 0,-63.9566 51.488,-115.4452 115.445,-115.4452 z" /><path
           id="path27959-7-1-2"
           d="m 16125.912,-8678.2848 c 0,7.9748 -6.516,12.1245 -11.742,17.3506 -5.226,5.2262 -7.231,11.4906 -15.206,11.4906 -7.975,0 -17.121,-5.1391 -23.331,-10.5865 -6.21,-5.4474 -10.334,-12.3651 -10.334,-20.3399 0,-7.9749 3.376,-14.997 8.815,-19.9326 5.439,-4.9357 13.996,-7.0993 21.97,-7.0993 7.975,0 13.684,0.7211 18.646,5.7758 4.963,5.0548 11.182,15.3664 11.182,23.3413 z"
           style="fill:#000000;fill-opacity:1;stroke:none;stroke-width:46.1783;stroke-linecap:round;stroke-linejoin:round;stroke-dasharray:none;stroke-opacity:1" /><g
           aria-label="warning"
           transform="matrix(2.9174983,0,0,2.9174983,22094.202,-11143.196)"
           id="text3103-6-6-90-4-4-9-7-2-2-7-4-2-5-0-9-2-1-1-0-9-1-9-1"
           style="font-size:82.3036px;font-family:'Canted Comic';-inkscape-font-specification:'Canted Comic, Normal';white-space:pre;shape-inside:url(#rect3105-5-5-97-13-9-1-5-6-0-6-9-6-7-6-5-2-3-8-27-17-77-4-9);display:inline;stroke:#000000;stroke-width:0;stroke-linejoin:round"><path
             d="m -1945.4553,666.13831 5.3497,29.13548 1.8107,-5.59665 3.3744,-11.4402 4.8559,-17.69527 0.9877,-2.88063 c 0,-0.24691 0.082,-0.41152 0.1646,-0.49382 l 0.1646,-0.41152 c 0.9053,-1.39916 2.1399,-2.13989 3.6214,-2.13989 1.0699,0 1.9752,0.32921 2.716,0.90534 0.3292,0.32921 0.5761,0.57612 0.6584,0.82304 l 0.6584,1.06994 0.4939,1.31686 2.3868,7.98345 4.1974,13.08627 c 2.3869,7.57193 3.9506,12.67475 4.609,15.39077 l 6.3374,-20.49359 c 1.9753,-6.33738 3.5391,-12.26324 4.609,-17.77758 0.4115,-2.2222 1.7284,-3.29214 3.9506,-3.29214 0.4115,0 0.7407,0 0.9053,0.0823 2.2222,0.41152 3.2922,1.72838 3.2922,3.95057 0,0.49382 0,0.82304 -0.082,0.90534 -1.07,5.59665 -2.716,11.76942 -4.7736,18.51831 l -6.0905,19.34135 -0.823,2.96293 c -0.7408,2.88062 -1.6461,5.51434 -2.7161,7.90114 -1.3991,2.63372 -3.1275,4.03288 -5.1028,4.19748 h -0.1646 c -2.3868,0 -3.6213,-0.90533 -5.2674,-6.17276 -1.07,-4.3621 -2.3045,-9.0534 -3.7037,-14.15622 l -3.2098,-10.12335 -2.716,-8.14805 c -3.3745,12.26323 -6.0905,21.31663 -8.1481,27.24249 -0.9876,2.79832 -1.6461,4.36209 -1.893,4.77361 -1.7283,3.53905 -3.9505,5.34973 -6.6666,5.34973 -1.646,0 -2.8806,-0.57612 -3.7036,-1.64607 -0.3292,-0.32922 -0.5761,-0.74073 -0.6585,-1.15225 l -0.1646,-0.57613 c -0.082,-0.0823 -0.082,-0.24691 -0.082,-0.49382 l -1.2345,-5.92586 -4.4444,-24.44417 c -0.7407,-4.85591 -1.893,-10.45255 -3.3745,-16.87223 -0.082,-0.0823 -0.082,-0.41152 -0.082,-0.82304 0,-2.2222 1.07,-3.53905 3.2099,-4.11518 0.1646,-0.0823 0.4938,-0.0823 0.9053,-0.0823 2.1399,0 3.4568,1.06994 4.0329,3.20984 z"
             id="path109743" /><path
             d="m -1887.8427,707.86624 c 0.9053,-11.3579 5.8435,-25.92564 14.8146,-43.78552 2.2222,-4.36209 4.1975,-7.73653 5.7613,-9.95873 1.5637,-2.1399 3.1275,-3.20984 4.7736,-3.20984 0.4115,0 0.7407,0 0.823,0.0823 1.2346,0.24691 2.0576,0.65843 2.4691,1.39916 l 0.3292,0.32922 c 0.1646,0.24691 0.3292,0.57612 0.4939,0.98764 0.2469,0.41152 0.5761,1.06995 0.9053,1.81068 0.3292,0.57612 0.9053,2.13989 1.8107,4.6913 l 2.716,7.40733 c 0.7407,1.89298 1.9753,5.67895 3.8683,11.27559 l 4.609,14.48543 3.4567,11.3579 0.1646,1.23455 c 0,2.05759 -0.9876,3.37445 -2.8806,3.95058 l -1.2346,0.1646 c -2.0576,0 -3.3744,-0.98764 -3.9505,-2.88062 l -4.609,-15.06156 c -2.8807,0.65843 -6.3374,1.56377 -10.3703,2.63371 -8.3127,2.38681 -13.004,3.62136 -14.0739,3.86827 -0.9053,3.37445 -1.3992,6.6666 -1.6461,9.87644 -0.2469,2.55141 -1.5637,3.78596 -4.1152,3.78596 -0.1646,0 -0.2469,0 -0.3292,-0.0823 -2.5514,-0.0823 -3.7859,-1.48147 -3.7859,-4.11518 z m 24.6087,-44.52625 c -1.0699,1.81068 -1.8106,3.29214 -2.3868,4.5267 -4.3621,8.80648 -7.5719,15.9669 -9.4649,21.56354 0.9054,-0.24691 3.9506,-1.06995 8.9711,-2.55141 5.0205,-1.39916 8.395,-2.2222 10.1234,-2.63372 -1.5638,-4.85591 -3.1276,-9.46491 -4.6914,-13.66239 z"
             id="path109745" /><path
             d="m -1804.5515,691.98164 c 9.218,4.77361 15.8023,7.98345 19.6706,9.71183 1.0699,0.41151 1.8106,1.23455 2.2222,2.3045 0.1646,0.49382 0.2469,0.98764 0.2469,1.48146 0,0.65843 -0.082,1.23456 -0.3292,1.64607 -0.4116,1.06995 -1.1523,1.72838 -2.2222,2.1399 -0.4116,0.24691 -0.9877,0.32921 -1.5638,0.32921 -0.6584,0 -1.2346,-0.0823 -1.6461,-0.32921 -3.7036,-1.72838 -10.3702,-5.02052 -20.1644,-9.95874 -6.9958,-3.53905 -12.757,-6.09046 -17.1191,-7.81884 0.082,6.17277 0.5761,11.27559 1.3992,15.47308 0.082,0.0823 0.082,0.41152 0.082,0.82303 0,2.2222 -1.07,3.53906 -3.2922,3.95058 -0.1646,0.0823 -0.4938,0.0823 -0.9053,0.0823 -2.2222,0 -3.5391,-1.15225 -3.9506,-3.37445 -1.1522,-5.76125 -1.7284,-14.15622 -1.7284,-25.1849 0,-6.33738 0,-9.87643 -0.082,-10.69947 l -0.1646,-2.71601 c -0.2469,-2.46911 -0.3292,-5.26744 -0.3292,-8.39497 0.082,-2.2222 0.4938,-3.78597 1.2346,-4.69131 1.5637,-2.05759 5.3497,-3.37444 11.4402,-3.78596 l 4.4444,-0.16461 c 11.934,0 20.4112,2.46911 25.4318,7.48963 2.0576,2.05759 3.2921,4.36209 3.7036,6.9958 0.082,0.24691 0.082,0.82304 0.082,1.64608 0,2.3868 -0.5761,4.7736 -1.8106,7.16041 -2.2222,4.5267 -6.4197,7.98345 -12.5925,10.53486 -2.7983,1.06995 -5.5143,1.89298 -8.0658,2.3868 z m -21.6458,-30.12311 c 0,2.55141 0.082,5.10282 0.3292,7.65423 l 0.3292,6.8312 v 5.26743 c 0.5761,0.0823 1.893,0.0823 3.9506,0.0823 12.4278,0 21.6458,-3.78596 24.2795,-9.38261 0.5762,-1.39916 0.9054,-2.4691 0.9054,-3.20984 0,-1.15225 -0.4116,-2.13989 -1.2346,-2.96293 -3.539,-3.37444 -10.2879,-5.10282 -20.1644,-5.10282 -3.3744,0 -6.0904,0.24691 -8.148,0.74073 z"
             id="path109747" /><path
             d="m -1768.0087,706.9609 c 0,2.55141 -1.1522,3.86827 -3.539,4.11518 -0.082,0.0823 -0.3292,0.0823 -0.5761,0.0823 -2.3868,0 -3.786,-1.15225 -4.1152,-3.53905 -0.4115,-3.62136 -0.5761,-6.99581 -0.5761,-10.12335 -0.082,-0.24691 -0.082,-0.49382 -0.082,-0.90534 0,-0.41151 0,-0.82303 0.082,-1.31685 v -7.81885 c 0,-9.05339 0,-13.9093 -0.082,-14.48543 0,-0.65843 -0.082,-2.13989 -0.3293,-4.5267 l -0.082,-3.20984 -0.1646,-4.609 v -1.81068 l 0.1646,-1.39916 c 0.3293,-1.72837 2.4691,-3.53905 4.7737,-3.53905 2.0575,0 4.1974,1.15225 6.255,3.37444 0.5761,0.57613 1.2346,1.39917 2.1399,2.46911 l 0.8231,1.15225 c 6.6665,8.47727 13.827,18.51831 21.6458,29.95851 l 2.8806,4.5267 v -3.29214 c 0.4938,-11.93403 0.7408,-21.56355 0.7408,-28.80626 0,-4.03288 0,-6.50199 -0.082,-7.40733 v -0.24691 c 0,-2.05759 1.646,-3.95057 3.9505,-4.03287 h 0.2469 c 2.0576,0 3.9506,1.64607 4.0329,3.95057 l 0.1646,8.23036 c 0,8.47727 -0.2469,18.02449 -0.823,28.64165 v 4.19748 c 0,1.56377 0,2.55142 -0.082,2.96293 -0.4115,6.50199 -2.5514,9.71183 -6.4197,9.71183 h -0.1646 c -0.823,0 -1.5638,-0.24691 -2.2222,-0.74073 l -0.823,-0.65843 -8.3127,-12.42785 c -6.502,-9.79412 -13.2509,-19.25904 -20.4113,-28.47704 l 0.3292,5.67895 c 0.082,0.49382 0.082,1.97528 0.082,4.44439 0,2.46911 0,5.92586 -0.082,10.37025 v 7.90115 c 0,1.15225 0,1.81068 0.082,2.05759 0,3.53905 0.1646,6.50198 0.5761,9.0534 z"
             id="path109749" /><path
             d="m -1716.7335,657.74335 c -0.4115,6.41968 -0.6585,13.08627 -0.6585,20.08207 0,8.14806 0.247,17.69528 0.7408,28.47705 v 0.24691 c 0,2.05759 -1.6461,4.03288 -3.8683,4.11518 h -0.2469 c -2.0576,0 -4.0329,-1.64607 -4.1152,-3.86827 -0.5761,-9.46491 -0.823,-18.92983 -0.823,-28.39474 0,-8.06575 0.2469,-15.14386 0.7407,-21.31663 0.2469,-2.55141 1.5638,-3.78597 4.0329,-3.78597 h 0.4115 c 2.5514,0.24691 3.786,1.56377 3.786,4.03288 z"
             id="path109751" /><path
             d="m -1698.8736,706.9609 c 0,2.55141 -1.1523,3.86827 -3.5391,4.11518 -0.082,0.0823 -0.3292,0.0823 -0.5761,0.0823 -2.3868,0 -3.786,-1.15225 -4.1152,-3.53905 -0.4115,-3.62136 -0.5761,-6.99581 -0.5761,-10.12335 -0.082,-0.24691 -0.082,-0.49382 -0.082,-0.90534 0,-0.41151 0,-0.82303 0.082,-1.31685 v -7.81885 c 0,-9.05339 0,-13.9093 -0.082,-14.48543 0,-0.65843 -0.082,-2.13989 -0.3292,-4.5267 l -0.082,-3.20984 -0.1646,-4.609 v -1.81068 l 0.1646,-1.39916 c 0.3292,-1.72837 2.4691,-3.53905 4.7736,-3.53905 2.0576,0 4.1975,1.15225 6.255,3.37444 0.5762,0.57613 1.2346,1.39917 2.1399,2.46911 l 0.8231,1.15225 c 6.6666,8.47727 13.827,18.51831 21.6458,29.95851 l 2.8807,4.5267 v -3.29214 c 0.4938,-11.93403 0.7407,-21.56355 0.7407,-28.80626 0,-4.03288 0,-6.50199 -0.082,-7.40733 v -0.24691 c 0,-2.05759 1.6461,-3.95057 3.9506,-4.03287 h 0.2469 c 2.0576,0 3.9505,1.64607 4.0328,3.95057 l 0.1646,8.23036 c 0,8.47727 -0.2469,18.02449 -0.823,28.64165 v 4.19748 c 0,1.56377 0,2.55142 -0.082,2.96293 -0.4115,6.50199 -2.5514,9.71183 -6.4197,9.71183 h -0.1646 c -0.823,0 -1.5637,-0.24691 -2.2222,-0.74073 l -0.823,-0.65843 -8.3127,-12.42785 c -6.502,-9.79412 -13.2509,-19.25904 -20.4113,-28.47704 l 0.3292,5.67895 c 0.082,0.49382 0.082,1.97528 0.082,4.44439 0,2.46911 0,5.92586 -0.082,10.37025 v 7.90115 c 0,1.15225 0,1.81068 0.082,2.05759 0,3.53905 0.1647,6.50198 0.5762,9.0534 z"
             id="path109753" /><path
             d="m -1615.4178,688.6072 -0.5761,-0.16461 c -0.5761,-0.16461 -1.3169,-0.24691 -2.3045,-0.24691 -1.3992,0 -2.6337,0.0823 -3.7037,0.32921 -1.3991,0.24691 -4.1975,1.23456 -8.5595,2.96293 -0.4939,0.16461 -0.9877,0.24691 -1.4815,0.24691 -0.6584,0 -1.2346,-0.0823 -1.6461,-0.32921 -1.0699,-0.41152 -1.7284,-1.23456 -2.1399,-2.3045 -0.2469,-0.41152 -0.3292,-0.90534 -0.3292,-1.48147 0,-0.65843 0.082,-1.23455 0.3292,-1.64607 0.4115,-1.06995 1.2346,-1.81068 2.3045,-2.2222 4.609,-1.89298 7.9835,-2.96293 10.2057,-3.29214 1.893,-0.32922 3.7036,-0.49382 5.2674,-0.49382 1.5638,0 2.9629,0.1646 4.1975,0.49382 3.2098,0.90534 5.2674,2.63371 6.1728,5.34973 0.3292,0.90534 0.4938,1.89299 0.4938,2.96293 0,3.53906 -1.5638,7.16042 -4.7736,11.02868 -6.1728,7.57194 -14.1563,11.4402 -23.7858,11.52251 h -0.5761 c -12.8394,0 -21.8104,-7.90115 -22.4689,-20.08208 v -1.06995 c 0,-3.86827 1.07,-7.90114 3.2099,-12.01632 0.9053,-1.81068 2.0576,-3.70366 3.6213,-5.67895 5.3498,-6.99581 12.0986,-12.18093 20.2467,-15.47308 3.5391,-1.31685 6.9135,-2.3045 10.1233,-2.88062 2.0576,-0.24691 3.6214,-0.41152 4.609,-0.41152 0.9877,0 1.6461,0 1.893,0.0823 3.0453,0.24691 5.2675,1.48147 6.502,3.53906 0.5761,0.90534 0.8231,1.89298 0.8231,3.04523 0,0.57613 -0.1647,1.39916 -0.4116,2.46911 l -0.1646,0.90534 -0.2469,0.41152 c -0.082,0.0823 -0.082,0.1646 -0.082,0.24691 l -0.6584,5.26743 c -0.3292,2.3868 -1.7284,3.62136 -4.1152,3.62136 -0.2469,0 -0.4115,0 -0.4938,-0.0823 -2.3868,-0.24691 -3.6214,-1.64607 -3.6214,-4.11518 l 0.6585,-5.59664 c 0.082,-0.49382 0.1646,-0.98765 0.4115,-1.56377 h -0.4939 c -1.2345,0 -2.3045,0.0823 -3.2098,0.32921 -6.1728,1.06995 -11.934,3.53906 -17.4484,7.48963 -8.6418,6.58429 -12.9216,13.41549 -12.9216,20.41129 0,9.30031 6.5843,12.92167 14.1562,12.92167 h 0.4115 c 7.4896,-0.24691 13.004,-2.71602 16.7076,-7.40733 2.5515,-3.04523 3.8683,-5.34973 3.8683,-6.9135 z"
             id="path109755" /></g><g
           aria-label="deep excavations ahead"
           transform="matrix(1.3492981,0,0,1.3492981,18826.852,-9813.52)"
           id="text3103-6-6-90-4-4-9-7-2-2-7-4-2-5-0-9-2-1-1-0-9-1-3-4-2"
           style="font-size:82.3036px;font-family:'Canted Comic';-inkscape-font-specification:'Canted Comic, Normal';white-space:pre;shape-inside:url(#rect3105-5-5-97-13-9-1-5-6-0-6-9-6-7-6-5-2-3-8-27-17-77-8-84-0);display:inline;stroke:#000000;stroke-width:0;stroke-linejoin:round"><path
             d="m -1948.089,684.49202 c 0.082,-7.07811 0.4115,-14.15622 0.823,-21.23433 -1.5638,-0.49382 -2.4691,-1.56377 -2.7983,-3.12754 -0.082,-0.0823 -0.082,-0.41152 -0.082,-0.90534 0,-2.2222 1.0699,-3.53905 3.2921,-3.95057 7.5719,-1.39916 13.6624,-2.1399 18.1891,-2.1399 h 1.893 c 9.9587,0.41152 17.5307,3.37445 22.7158,8.88879 2.9629,3.12754 4.7736,6.66659 5.5143,10.69947 0.1646,1.15225 0.2469,2.38681 0.2469,3.62136 0,2.96293 -0.6584,6.33738 -1.8929,10.12334 -5.2675,14.15622 -16.4608,20.08208 -30.0409,22.9627 -2.7983,0.57613 -5.2674,0.90534 -7.4073,0.90534 -3.8683,0 -6.502,-0.98764 -8.0657,-3.04523 -1.5638,-2.05759 -2.3868,-8.64188 -2.3868,-19.67056 z m 9.1357,-21.81046 c -0.4939,5.34974 -0.8231,12.67476 -0.9054,21.89276 v 2.96293 c 0,3.70366 0.082,6.9958 0.2469,9.71182 0.082,1.97529 0.2469,3.37445 0.4115,4.27979 0.082,0.0823 0.082,0.16461 0.082,0.32921 l 0.082,0.41152 c 0.1646,0.0823 0.5761,0.0823 1.2345,0.0823 1.4815,-0.0823 3.6214,-0.41152 6.502,-1.06995 13.1686,-3.53906 19.5059,-7.40732 23.3742,-17.61297 0.9877,-2.55141 1.4815,-4.93822 1.4815,-7.16041 0,-10.78177 -10.3703,-14.73235 -20.6582,-15.14387 -0.2469,-0.0823 -0.9877,-0.0823 -2.0576,-0.0823 -2.6337,0 -5.9259,0.32922 -9.7941,0.90534 z"
             id="path109758" /><path
             d="m -1849.16,700.1297 h 0.4938 c 2.5514,0 3.9505,1.15225 4.1975,3.53905 v 0.57613 c 0,2.3868 -1.1523,3.78596 -3.5391,4.11518 l -3.7037,0.49382 -13.9093,2.2222 -10.5348,1.48146 c -1.5638,0.24691 -2.8807,0.41152 -3.8683,0.49382 -0.2469,0.0823 -0.823,0.0823 -1.5638,0.0823 -0.3292,0 -0.9053,-0.0823 -1.646,-0.16461 -3.0453,-0.74073 -5.1852,-2.13989 -6.5843,-4.27979 -0.4115,-0.57612 -0.5761,-1.06994 -0.5761,-1.39916 v -42.46865 c 0,-1.06995 0,-1.64608 0.082,-1.89299 0.7407,-5.84355 4.1151,-7.65423 11.6048,-8.39496 10.6171,-1.39917 19.8351,-2.05759 27.7363,-2.05759 2.3045,0 4.1152,1.81068 4.1152,4.11518 0,2.3045 -1.8107,4.11518 -4.1152,4.11518 -6.6666,0 -15.6377,0.65842 -26.7487,1.97528 -1.5638,0.16461 -2.6337,0.32922 -3.3744,0.49382 -0.6585,0.0823 -0.9877,0.32922 -0.9877,0.82304 v 4.27979 c 0,5.67894 0,9.87643 -0.082,12.51014 l 29.6293,-4.85591 c 0.082,-0.0823 0.4115,-0.0823 0.823,-0.0823 2.2222,0 3.5391,1.15225 3.9506,3.37445 v 0.82303 c 0,2.3045 -1.1522,3.62136 -3.4567,3.95057 -9.4649,1.56377 -19.8352,3.29215 -31.0285,5.10283 v 15.55538 l 0.5761,0.1646 h 0.9877 l 3.4567,-0.41151 c 2.5514,-0.32922 6.0082,-0.82304 10.3703,-1.48147 z"
             id="path109760" /><path
             d="m -1798.1317,700.1297 h 0.4938 c 2.5514,0 3.9505,1.15225 4.1975,3.53905 v 0.57613 c 0,2.3868 -1.1523,3.78596 -3.5391,4.11518 l -3.7037,0.49382 -13.9093,2.2222 -10.5348,1.48146 c -1.5638,0.24691 -2.8807,0.41152 -3.8683,0.49382 -0.2469,0.0823 -0.823,0.0823 -1.5638,0.0823 -0.3292,0 -0.9053,-0.0823 -1.646,-0.16461 -3.0453,-0.74073 -5.1852,-2.13989 -6.5843,-4.27979 -0.4115,-0.57612 -0.5762,-1.06994 -0.5762,-1.39916 v -42.46865 c 0,-1.06995 0,-1.64608 0.082,-1.89299 0.7407,-5.84355 4.1151,-7.65423 11.6048,-8.39496 10.6171,-1.39917 19.8351,-2.05759 27.7363,-2.05759 2.3045,0 4.1152,1.81068 4.1152,4.11518 0,2.3045 -1.8107,4.11518 -4.1152,4.11518 -6.6666,0 -15.6377,0.65842 -26.7487,1.97528 -1.5638,0.16461 -2.6337,0.32922 -3.3744,0.49382 -0.6585,0.0823 -0.9877,0.32922 -0.9877,0.82304 v 4.27979 c 0,5.67894 0,9.87643 -0.082,12.51014 l 29.6293,-4.85591 c 0.082,-0.0823 0.4115,-0.0823 0.823,-0.0823 2.2222,0 3.5391,1.15225 3.9506,3.37445 v 0.82303 c 0,2.3045 -1.1522,3.62136 -3.4567,3.95057 -9.465,1.56377 -19.8352,3.29215 -31.0285,5.10283 v 15.55538 l 0.5761,0.1646 h 0.9877 l 3.4567,-0.41151 c 2.5514,-0.32922 6.0082,-0.82304 10.3703,-1.48147 z"
             id="path109762" /><path
             d="m -1780.1895,692.88698 c 0.2469,5.10283 0.823,9.62952 1.6461,13.5801 0.082,0.0823 0.082,0.41151 0.082,0.82303 0,2.3045 -1.07,3.62136 -3.2922,4.03288 -0.082,0.0823 -0.4115,0.0823 -0.823,0.0823 -2.3045,0 -3.6214,-1.06995 -4.0329,-3.29214 -1.3991,-6.99581 -2.0576,-15.71999 -2.0576,-26.17255 v -11.5225 l -0.1646,-9.95873 c 0,-2.46911 1.2346,-3.78597 3.7037,-4.03288 6.0081,-2.05759 12.2632,-3.04523 18.7652,-3.04523 h 2.3868 c 9.0534,0.41151 15.2262,3.04523 18.436,7.90114 1.8107,2.79832 2.716,5.84356 2.716,9.218 0,12.59245 -10.2879,20.32899 -22.7981,21.72815 -3.3744,0.32922 -5.7612,0.49382 -7.2427,0.57613 -0.4938,0.0823 -1.8107,0.0823 -4.0329,0.0823 z m -0.3292,-14.07391 c 0,3.37444 0,5.26743 0.082,5.84355 10.6172,0 19.0944,-0.1646 24.7734,-4.77361 3.0452,-2.3868 4.609,-5.51434 4.609,-9.38261 0,-3.78596 -1.7284,-6.25507 -5.2675,-7.48962 -3.2098,-0.90534 -6.5842,-1.39916 -10.041,-1.39916 h -1.6461 c -4.2798,0.1646 -8.4772,0.82303 -12.5101,1.97528 0.082,0.41152 0.082,1.15225 0.082,2.2222 0,0.98764 0,2.3045 -0.082,3.86827 z"
             id="path109764" /><path
             d="m -1671.9603,700.1297 h 0.4939 c 2.5514,0 3.9505,1.15225 4.1974,3.53905 v 0.57613 c 0,2.3868 -1.1522,3.78596 -3.539,4.11518 l -3.7037,0.49382 -13.9093,2.2222 -10.5348,1.48146 c -1.5638,0.24691 -2.8807,0.41152 -3.8683,0.49382 -0.2469,0.0823 -0.823,0.0823 -1.5638,0.0823 -0.3292,0 -0.9053,-0.0823 -1.6461,-0.16461 -3.0452,-0.74073 -5.1851,-2.13989 -6.5842,-4.27979 -0.4116,-0.57612 -0.5762,-1.06994 -0.5762,-1.39916 v -42.46865 c 0,-1.06995 0,-1.64608 0.082,-1.89299 0.7408,-5.84355 4.1152,-7.65423 11.6048,-8.39496 10.6172,-1.39917 19.8352,-2.05759 27.7364,-2.05759 2.3045,0 4.1151,1.81068 4.1151,4.11518 0,2.3045 -1.8106,4.11518 -4.1151,4.11518 -6.6666,0 -15.6377,0.65842 -26.7487,1.97528 -1.5638,0.16461 -2.6337,0.32922 -3.3745,0.49382 -0.6584,0.0823 -0.9876,0.32922 -0.9876,0.82304 v 4.27979 c 0,5.67894 0,9.87643 -0.082,12.51014 l 29.6293,-4.85591 c 0.082,-0.0823 0.4115,-0.0823 0.823,-0.0823 2.2222,0 3.5391,1.15225 3.9506,3.37445 v 0.82303 c 0,2.3045 -1.1523,3.62136 -3.4568,3.95057 -9.4649,1.56377 -19.8351,3.29215 -31.0284,5.10283 v 15.55538 l 0.5761,0.1646 h 0.9877 l 3.4567,-0.41151 c 2.5514,-0.32922 6.0082,-0.82304 10.3703,-1.48147 z"
             id="path109766" /><path
             d="m -1642.4955,673.46333 c 4.8559,-7.32502 8.5596,-13.16857 11.111,-17.44836 0.5761,-0.98764 1.3991,-1.64607 2.4691,-1.97529 l 1.2345,-0.1646 c 2.0576,0 3.2922,0.98764 3.8683,2.96293 l 0.1646,1.23455 c 0,0.65843 -0.1646,1.31686 -0.4938,1.89298 -0.9877,1.81068 -2.0576,3.62136 -3.2922,5.51434 l -9.9587,15.22617 c 6.0082,8.80648 11.0287,16.87224 15.2262,24.27956 0.3292,0.65843 0.4938,1.31686 0.4938,1.97529 0,0.57612 0,0.98764 -0.082,1.15225 -0.5761,2.05759 -1.893,3.04523 -3.9506,3.04523 l -1.1522,-0.16461 c -1.07,-0.24691 -1.9753,-0.90534 -2.5514,-1.89298 -3.786,-6.8312 -8.0658,-13.827 -12.8394,-20.82281 l -3.9506,6.66659 -4.8559,7.90115 c -1.0699,1.81068 -2.5514,4.03287 -4.2798,6.58428 -0.5761,0.90534 -1.4814,1.48147 -2.5514,1.72838 -0.1646,0.0823 -0.4938,0.0823 -0.9053,0.0823 -2.2222,0 -3.5391,-1.15225 -3.9506,-3.37444 -0.082,-0.0823 -0.082,-0.41152 -0.082,-0.82304 0,-0.74073 0.2469,-1.48146 0.7407,-2.2222 1.893,-2.71602 4.5267,-6.9958 8.0658,-12.83936 l 6.6666,-11.11098 c -4.3621,-6.00817 -9.7119,-13.25088 -15.8846,-21.56355 -0.5761,-0.74073 -0.8231,-1.56376 -0.8231,-2.4691 0,-0.24691 0,-0.49382 0.082,-0.57613 0.247,-2.3868 1.5638,-3.53905 4.0329,-3.53905 h 0.5761 c 1.07,0.1646 1.9753,0.74073 2.7161,1.64607 z"
             id="path109768" /><path
             d="m -1571.879,661.3647 c -1.5638,0.0823 -3.2098,0.24692 -5.0205,0.65843 -18.5183,3.86827 -32.3453,16.29612 -32.9215,28.88857 v 0.49382 c 0,5.67895 3.786,9.38261 11.2756,11.11098 1.893,0.41152 4.4444,0.65843 7.7366,0.65843 1.0699,0 1.8106,0 2.0576,-0.0823 6.6665,-0.65843 12.4278,-2.63372 17.366,-5.92586 0.7407,-0.41152 1.5638,-0.65843 2.3045,-0.65843 0.4115,0 0.7408,0 0.8231,0.0823 2.2222,0.41152 3.2921,1.72838 3.2921,4.03288 0,0.41152 0,0.74073 -0.082,0.82304 -0.2469,1.06994 -0.823,1.97528 -1.7284,2.63371 -6.1728,4.03288 -13.1686,6.41968 -21.152,7.24272 -0.3292,0.0823 -1.2346,0.0823 -2.716,0.0823 -1.7284,0 -2.8807,0 -3.4568,-0.0823 -2.6337,-0.16461 -4.6913,-0.41152 -6.255,-0.74073 -11.7695,-2.79833 -17.6953,-9.21801 -17.6953,-19.25905 v -0.74073 c 0.6584,-16.78993 17.2014,-32.0984 39.588,-36.6251 2.5514,-0.57612 4.7736,-0.82304 6.7489,-0.90534 h 0.3292 c 2.7983,0 4.9382,0.65843 6.3374,1.89298 0.9053,0.74074 1.3992,1.72838 1.5638,2.96293 0.082,0.24691 0.082,0.74074 0.082,1.64608 l -0.3292,3.12753 c -0.082,0.16461 -0.4116,1.97529 -0.9877,5.51434 -0.3292,2.3045 -1.6461,3.45675 -3.9506,3.45675 -0.4115,0 -0.6584,0 -0.7407,-0.0823 -2.3045,-0.32921 -3.4567,-1.64607 -3.4567,-3.86827 0,-0.41152 0,-0.74073 0.082,-0.82303 z"
             id="path109770" /><path
             d="m -1558.5458,707.86624 c 0.9054,-11.3579 5.8436,-25.92564 14.8147,-43.78552 2.2222,-4.36209 4.1975,-7.73653 5.7612,-9.95873 1.5638,-2.1399 3.1276,-3.20984 4.7736,-3.20984 0.4116,0 0.7408,0 0.8231,0.0823 1.2345,0.24691 2.0576,0.65843 2.4691,1.39916 l 0.3292,0.32922 c 0.1646,0.24691 0.3292,0.57612 0.4938,0.98764 0.2469,0.41152 0.5761,1.06995 0.9054,1.81068 0.3292,0.57612 0.9053,2.13989 1.8106,4.6913 l 2.7161,7.40733 c 0.7407,1.89298 1.9752,5.67895 3.8682,11.27559 l 4.609,14.48543 3.4568,11.3579 0.1646,1.23455 c 0,2.05759 -0.9877,3.37445 -2.8806,3.95058 l -1.2346,0.1646 c -2.0576,0 -3.3744,-0.98764 -3.9506,-2.88062 l -4.609,-15.06156 c -2.8806,0.65843 -6.3373,1.56377 -10.3702,2.63371 -8.3127,2.38681 -13.004,3.62136 -14.0739,3.86827 -0.9054,3.37445 -1.3992,6.6666 -1.6461,9.87644 -0.2469,2.55141 -1.5638,3.78596 -4.1152,3.78596 -0.1646,0 -0.2469,0 -0.3292,-0.0823 -2.5514,-0.0823 -3.786,-1.48147 -3.786,-4.11518 z m 24.6088,-44.52625 c -1.0699,1.81068 -1.8107,3.29214 -2.3868,4.5267 -4.3621,8.80648 -7.5719,15.9669 -9.4649,21.56354 0.9053,-0.24691 3.9506,-1.06995 8.9711,-2.55141 5.0205,-1.39916 8.3949,-2.2222 10.1233,-2.63372 -1.5637,-4.85591 -3.1275,-9.46491 -4.6913,-13.66239 z"
             id="path109772" /><path
             d="m -1498.5465,668.77203 c 2.716,7.16041 5.0205,14.81465 6.8312,22.8804 l 1.9753,8.39496 c 0.6584,-1.15225 1.3169,-2.55141 1.9753,-4.19748 l 1.1522,-3.04523 c 7.8189,-17.20145 13.004,-29.38239 15.6377,-36.5428 0.4115,-1.06995 1.07,-1.81068 2.1399,-2.3045 0.4115,-0.24691 0.9877,-0.32921 1.7284,-0.32921 0.4938,0 0.9876,0.0823 1.4814,0.24691 1.07,0.41152 1.8107,1.06994 2.3045,2.13989 0.247,0.41152 0.3293,0.98764 0.3293,1.72838 0,0.49382 -0.082,0.98764 -0.2469,1.48146 -2.8807,7.57193 -8.1481,19.91747 -15.8023,37.03662 -0.082,0.0823 -0.1646,0.24691 -0.2469,0.49382 l -0.9054,2.2222 c -1.893,4.609 -3.786,7.90114 -5.7612,9.87643 -1.5638,1.48146 -3.1276,2.2222 -4.7736,2.2222 -2.0576,0 -3.6214,-0.82304 -4.6914,-2.46911 -0.1646,-0.24691 -0.3292,-0.57613 -0.4938,-0.98764 l -0.6584,-1.89299 c -1.07,-3.37444 -2.1399,-7.48962 -3.2098,-12.26323 -1.7284,-7.65424 -3.8683,-14.89695 -6.502,-21.89276 l -4.3621,-11.68711 c -0.1646,-0.49382 -0.2469,-0.98764 -0.2469,-1.48146 0,-0.41152 0.1646,-0.98765 0.4115,-1.72838 0.4115,-1.06995 1.2345,-1.72838 2.3045,-2.13989 0.4115,-0.16461 0.9053,-0.24691 1.3992,-0.24691 0.7407,0 1.3168,0.0823 1.7283,0.32921 1.07,0.49382 1.7284,1.23455 2.1399,2.3045 z"
             id="path109774" /><path
             d="m -1466.2834,707.86624 c 0.9053,-11.3579 5.8435,-25.92564 14.8146,-43.78552 2.2222,-4.36209 4.1975,-7.73653 5.7613,-9.95873 1.5637,-2.1399 3.1275,-3.20984 4.7736,-3.20984 0.4115,0 0.7407,0 0.823,0.0823 1.2346,0.24691 2.0576,0.65843 2.4691,1.39916 l 0.3292,0.32922 c 0.1646,0.24691 0.3292,0.57612 0.4938,0.98764 0.247,0.41152 0.5762,1.06995 0.9054,1.81068 0.3292,0.57612 0.9053,2.13989 1.8107,4.6913 l 2.716,7.40733 c 0.7407,1.89298 1.9753,5.67895 3.8683,11.27559 l 4.609,14.48543 3.4567,11.3579 0.1646,1.23455 c 0,2.05759 -0.9876,3.37445 -2.8806,3.95058 l -1.2346,0.1646 c -2.0576,0 -3.3744,-0.98764 -3.9505,-2.88062 l -4.609,-15.06156 c -2.8807,0.65843 -6.3374,1.56377 -10.3703,2.63371 -8.3127,2.38681 -13.004,3.62136 -14.0739,3.86827 -0.9053,3.37445 -1.3992,6.6666 -1.6461,9.87644 -0.2469,2.55141 -1.5638,3.78596 -4.1152,3.78596 -0.1646,0 -0.2469,0 -0.3292,-0.0823 -2.5514,-0.0823 -3.7859,-1.48147 -3.7859,-4.11518 z m 24.6087,-44.52625 c -1.0699,1.81068 -1.8106,3.29214 -2.3868,4.5267 -4.3621,8.80648 -7.5719,15.9669 -9.4649,21.56354 0.9054,-0.24691 3.9506,-1.06995 8.9711,-2.55141 5.0205,-1.39916 8.395,-2.2222 10.1234,-2.63372 -1.5638,-4.85591 -3.1276,-9.46491 -4.6914,-13.66239 z"
             id="path109776" /><path
             d="m -1389.2473,707.1255 c 0,2.55142 -1.1522,3.86827 -3.539,4.11518 -0.082,0.0823 -0.3293,0.0823 -0.5762,0.0823 -2.3868,0 -3.7859,-1.15225 -4.1152,-3.53906 -0.9053,-6.66659 -1.4814,-13.827 -1.7283,-21.48124 -0.1646,-3.04523 -0.2469,-6.09046 -0.2469,-9.13569 0,-3.37445 0.1646,-7.65424 0.4115,-12.83937 -7.7366,0.74074 -14.0739,1.48147 -18.9299,2.3045 -0.082,0.0823 -0.4115,0.0823 -0.823,0.0823 -2.2222,0 -3.539,-1.15225 -3.9506,-3.37445 -0.082,-0.0823 -0.082,-0.41152 -0.082,-0.82304 0,-2.22219 1.1523,-3.53905 3.3745,-3.95057 5.1028,-0.90534 13.2509,-1.89298 24.3618,-2.79832 10.1234,-0.90534 17.9422,-1.89298 23.3743,-3.04523 0.1646,-0.0823 0.4938,-0.0823 0.9053,-0.0823 2.1399,0 3.4568,1.06995 4.0329,3.20984 0.082,0.16461 0.082,0.49383 0.082,0.98765 0,2.05759 -1.07,3.37444 -3.2098,3.95057 -5.0206,1.15225 -12.0164,2.13989 -20.8229,2.88063 -0.3292,4.36209 -0.4938,8.88878 -0.4938,13.58009 l 0.1646,7.98345 c 0.2469,7.40732 0.9054,14.56773 1.8107,21.39893 z"
             id="path109778" /><path
             d="m -1353.939,657.74335 c -0.4116,6.41968 -0.6585,13.08627 -0.6585,20.08207 0,8.14806 0.2469,17.69528 0.7408,28.47705 v 0.24691 c 0,2.05759 -1.6461,4.03288 -3.8683,4.11518 h -0.2469 c -2.0576,0 -4.0329,-1.64607 -4.1152,-3.86827 -0.5761,-9.46491 -0.823,-18.92983 -0.823,-28.39474 0,-8.06575 0.2469,-15.14386 0.7407,-21.31663 0.2469,-2.55141 1.5638,-3.78597 4.0329,-3.78597 h 0.4115 c 2.5514,0.24691 3.786,1.56377 3.786,4.03288 z"
             id="path109780" /><path
             d="m -1309.9889,654.61581 c 0.4115,0.16461 0.6584,0.24691 0.7407,0.32921 0.9054,0.32922 1.5638,0.90534 1.9753,1.72838 0.4115,0.41152 0.823,0.82304 1.1523,1.39916 2.0576,3.95057 3.2921,8.47727 3.7859,13.6624 l 0.1646,4.27978 c 0,9.38261 -2.3868,17.36606 -7.1604,23.86805 -3.3744,4.85591 -8.148,8.23036 -14.4854,10.12334 -2.3045,0.65843 -4.3621,0.98764 -6.1728,1.06995 h -0.4115 c -9.218,0 -15.5554,-6.50199 -16.9545,-14.73235 -0.4116,-1.56377 -0.5762,-3.53905 -0.5762,-5.84355 0,-1.81068 0.2469,-3.95057 0.6585,-6.41968 3.0452,-14.56774 13.0039,-27.4894 23.6211,-30.86385 1.7284,-0.49382 3.5391,-0.74073 5.3497,-0.74073 2.3868,0 4.6913,0.49382 6.9135,1.48146 z m -3.2922,7.48963 c -0.7407,-0.24691 -1.1522,-0.49382 -1.2345,-0.57613 -1.1523,-0.57612 -2.3868,-0.82303 -3.6214,-0.82303 -6.0081,0 -12.8393,5.51434 -17.6952,15.39077 -2.3868,5.02052 -3.7037,9.79413 -3.786,14.40313 -0.082,0.0823 -0.082,0.32921 -0.082,0.57612 0,7.81884 3.1275,11.76942 9.3003,11.76942 3.2921,0 6.6666,-1.23456 10.041,-3.62136 1.9753,-1.23455 3.4568,-2.63372 4.4444,-4.11518 3.1276,-4.36209 4.9382,-9.71183 5.4321,-16.0492 0.082,-0.49382 0.082,-1.56377 0.082,-3.12754 0,-4.93821 -0.9877,-9.54722 -2.8807,-13.827 z"
             id="path109782" /><path
             d="m -1285.6269,706.9609 c 0,2.55141 -1.1523,3.86827 -3.5391,4.11518 -0.082,0.0823 -0.3292,0.0823 -0.5761,0.0823 -2.3868,0 -3.786,-1.15225 -4.1152,-3.53905 -0.4115,-3.62136 -0.5761,-6.99581 -0.5761,-10.12335 -0.082,-0.24691 -0.082,-0.49382 -0.082,-0.90534 0,-0.41151 0,-0.82303 0.082,-1.31685 v -7.81885 c 0,-9.05339 0,-13.9093 -0.082,-14.48543 0,-0.65843 -0.082,-2.13989 -0.3292,-4.5267 l -0.082,-3.20984 -0.1647,-4.609 v -1.81068 l 0.1647,-1.39916 c 0.3292,-1.72837 2.4691,-3.53905 4.7736,-3.53905 2.0576,0 4.1974,1.15225 6.255,3.37444 0.5762,0.57613 1.2346,1.39917 2.1399,2.46911 l 0.8231,1.15225 c 6.6666,8.47727 13.827,18.51831 21.6458,29.95851 l 2.8806,4.5267 v -3.29214 c 0.4939,-11.93403 0.7408,-21.56355 0.7408,-28.80626 0,-4.03288 0,-6.50199 -0.082,-7.40733 v -0.24691 c 0,-2.05759 1.646,-3.95057 3.9505,-4.03287 h 0.247 c 2.0575,0 3.9505,1.64607 4.0328,3.95057 l 0.1646,8.23036 c 0,8.47727 -0.2469,18.02449 -0.823,28.64165 v 4.19748 c 0,1.56377 0,2.55142 -0.082,2.96293 -0.4115,6.50199 -2.5514,9.71183 -6.4197,9.71183 h -0.1646 c -0.823,0 -1.5638,-0.24691 -2.2222,-0.74073 l -0.823,-0.65843 -8.3127,-12.42785 c -6.502,-9.79412 -13.2509,-19.25904 -20.4113,-28.47704 l 0.3292,5.67895 c 0.082,0.49382 0.082,1.97528 0.082,4.44439 0,2.46911 0,5.92586 -0.082,10.37025 v 7.90115 c 0,1.15225 0,1.81068 0.082,2.05759 0,3.53905 0.1646,6.50198 0.5762,9.0534 z"
             id="path109784" /><path
             d="m -1195.5868,670.66501 c -0.5761,1.97529 -1.893,2.96293 -3.9506,2.96293 -0.1646,0 -0.4938,-0.0823 -1.0699,-0.16461 -2.0576,-0.57612 -3.0453,-1.89298 -3.0453,-3.95057 l 0.1646,-1.15225 c 0.082,-0.0823 0.6585,-1.56377 1.7284,-4.36209 l 0.1646,-0.41152 -1.4814,-0.49382 c -2.8807,-0.74073 -5.679,-1.15225 -8.395,-1.15225 h -0.8231 c -7.1604,0.24691 -12.3455,2.71602 -15.3907,7.32502 -0.082,0.41152 -0.1646,0.90534 -0.1646,1.48146 v 0.90534 c 0.082,1.81068 0.9876,3.29215 2.7983,4.36209 1.7284,1.06995 4.8559,2.05759 9.3003,2.96293 14.8146,3.20984 18.2714,4.36209 21.8105,9.87644 1.4814,2.22219 2.2221,4.44439 2.2221,6.66659 0,0.74073 -0.1646,1.56377 -0.4115,2.46911 -2.2222,6.9958 -7.4896,11.19328 -15.8846,12.59245 -3.0452,0.49382 -6.255,0.74073 -9.6295,0.74073 -1.4815,0 -2.3868,0 -2.7983,-0.0823 -11.934,-0.49382 -18.8475,-3.45675 -20.9051,-8.88878 -0.5761,-1.39917 -0.8231,-3.12754 -0.9054,-5.34974 l -0.1646,-4.36209 c 0,-2.55141 1.2346,-3.86827 3.7037,-4.11518 h 0.4115 c 2.5514,0 3.8683,1.23456 4.1152,3.70366 0,7.57193 0,7.90115 4.1975,9.21801 2.4691,0.90534 5.7612,1.39916 9.9587,1.56376 0.4115,0.0823 1.2346,0.0823 2.6337,0.0823 7.1604,0 11.6871,-0.82304 13.4155,-2.38681 2.2222,-1.97528 3.5391,-3.70366 4.0329,-5.26743 l -0.1646,-0.74073 -0.6584,-1.23455 c -0.9054,-1.48147 -2.3045,-2.55141 -4.2798,-3.29215 -2.0576,-0.74073 -6.1728,-1.72837 -12.4279,-3.12753 -12.757,-2.71602 -18.2714,-6.50199 -18.6006,-15.06156 v -0.82304 c 0,-10.12334 11.6048,-17.36606 25.4318,-17.36606 h 1.3992 c 3.0452,0.0823 6.0081,0.65843 8.8065,1.56377 0.7407,0 1.646,0.24691 2.7983,0.82304 2.3868,0.90534 3.8683,2.46911 4.3621,4.5267 l 0.1646,1.72837 c 0,1.48147 -0.3292,3.04523 -0.9877,4.69131 z"
             id="path109786" /><path
             d="m -1161.5955,707.86624 c 0.9053,-11.3579 5.8435,-25.92564 14.8146,-43.78552 2.2222,-4.36209 4.1975,-7.73653 5.7613,-9.95873 1.5638,-2.1399 3.1275,-3.20984 4.7736,-3.20984 0.4115,0 0.7407,0 0.823,0.0823 1.2346,0.24691 2.0576,0.65843 2.4691,1.39916 l 0.3293,0.32922 c 0.1646,0.24691 0.3292,0.57612 0.4938,0.98764 0.2469,0.41152 0.5761,1.06995 0.9053,1.81068 0.3292,0.57612 0.9054,2.13989 1.8107,4.6913 l 2.716,7.40733 c 0.7407,1.89298 1.9753,5.67895 3.8683,11.27559 l 4.609,14.48543 3.4567,11.3579 0.1646,1.23455 c 0,2.05759 -0.9876,3.37445 -2.8806,3.95058 l -1.2345,0.1646 c -2.0576,0 -3.3745,-0.98764 -3.9506,-2.88062 l -4.609,-15.06156 c -2.8806,0.65843 -6.3374,1.56377 -10.3703,2.63371 -8.3126,2.38681 -13.0039,3.62136 -14.0739,3.86827 -0.9053,3.37445 -1.3991,6.6666 -1.6461,9.87644 -0.2469,2.55141 -1.5637,3.78596 -4.1151,3.78596 -0.1646,0 -0.2469,0 -0.3292,-0.0823 -2.5515,-0.0823 -3.786,-1.48147 -3.786,-4.11518 z m 24.6088,-44.52625 c -1.07,1.81068 -1.8107,3.29214 -2.3868,4.5267 -4.3621,8.80648 -7.572,15.9669 -9.465,21.56354 0.9054,-0.24691 3.9506,-1.06995 8.9711,-2.55141 5.0206,-1.39916 8.395,-2.2222 10.1234,-2.63372 -1.5638,-4.85591 -3.1276,-9.46491 -4.6913,-13.66239 z"
             id="path109788" /><path
             d="m -1073.1192,671.40574 c 0.247,14.56774 0.9054,26.09024 1.9753,34.48521 v 0.41152 c 0,2.55141 -1.1522,3.86827 -3.539,4.11518 -0.082,0.0823 -0.3292,0.0823 -0.5761,0.0823 -2.3869,0 -3.786,-1.23455 -4.1152,-3.62136 -0.7408,-6.8312 -1.3169,-13.99161 -1.6461,-21.39893 -2.3868,0.24691 -5.8436,0.82303 -10.2056,1.72837 -4.1975,0.82304 -7.572,1.48147 -10.2057,1.89299 l 1.4815,18.2714 c 0,2.05758 -1.5638,4.03287 -3.786,4.11517 -0.082,0.0823 -0.1646,0.0823 -0.4115,0.0823 -1.9753,0 -3.786,-1.72838 -4.0329,-3.78597 l -0.9053,-11.5225 c -0.9054,-10.20565 -1.3169,-18.84752 -1.3169,-25.92563 0,-4.36209 0.2469,-8.55958 0.6584,-12.67476 0.3293,-2.3868 1.7284,-3.62136 4.1152,-3.62136 h 0.5761 c 2.3869,0.32922 3.5391,1.72838 3.5391,4.19749 v 0.41152 c -0.4938,3.53905 -0.7407,7.65423 -0.7407,12.42784 0,3.70366 0.082,6.9958 0.3292,9.79413 1.8107,-0.24691 4.8559,-0.82304 9.0534,-1.72838 4.6913,-0.98764 8.5596,-1.64607 11.6048,-1.89298 l -0.4115,-20.90511 c 0,-2.05759 1.7283,-3.95058 4.0328,-4.03288 h 0.1647 c 2.0575,0 3.9505,1.72837 4.0328,3.95057 z"
             id="path109790" /><path
             d="m -1022.3379,700.1297 h 0.4939 c 2.5514,0 3.9505,1.15225 4.1974,3.53905 v 0.57613 c 0,2.3868 -1.1522,3.78596 -3.539,4.11518 l -3.7037,0.49382 -13.9093,2.2222 -10.5348,1.48146 c -1.5638,0.24691 -2.8807,0.41152 -3.8683,0.49382 -0.2469,0.0823 -0.823,0.0823 -1.5638,0.0823 -0.3292,0 -0.9053,-0.0823 -1.646,-0.16461 -3.0453,-0.74073 -5.1852,-2.13989 -6.5843,-4.27979 -0.4116,-0.57612 -0.5762,-1.06994 -0.5762,-1.39916 v -42.46865 c 0,-1.06995 0,-1.64608 0.082,-1.89299 0.7408,-5.84355 4.1152,-7.65423 11.6049,-8.39496 10.6171,-1.39917 19.8351,-2.05759 27.7363,-2.05759 2.3045,0 4.1151,1.81068 4.1151,4.11518 0,2.3045 -1.8106,4.11518 -4.1151,4.11518 -6.6666,0 -15.6377,0.65842 -26.7487,1.97528 -1.5638,0.16461 -2.6337,0.32922 -3.3745,0.49382 -0.6584,0.0823 -0.9876,0.32922 -0.9876,0.82304 v 4.27979 c 0,5.67894 0,9.87643 -0.082,12.51014 l 29.6293,-4.85591 c 0.082,-0.0823 0.4115,-0.0823 0.823,-0.0823 2.2222,0 3.5391,1.15225 3.9506,3.37445 v 0.82303 c 0,2.3045 -1.1522,3.62136 -3.4567,3.95057 -9.465,1.56377 -19.8352,3.29215 -31.0285,5.10283 v 15.55538 l 0.5761,0.1646 h 0.9877 l 3.4567,-0.41151 c 2.5514,-0.32922 6.0082,-0.82304 10.3703,-1.48147 z"
             id="path109792" /><path
             d="m -1014.8481,707.86624 c 0.9053,-11.3579 5.8435,-25.92564 14.8146,-43.78552 2.22221,-4.36209 4.19749,-7.73653 5.76126,-9.95873 1.56377,-2.1399 3.12754,-3.20984 4.77361,-3.20984 0.41152,0 0.74073,0 0.82303,0.0823 1.23456,0.24691 2.05759,0.65843 2.46911,1.39916 l 0.32922,0.32922 c 0.1646,0.24691 0.32921,0.57612 0.49382,0.98764 0.24691,0.41152 0.57612,1.06995 0.90534,1.81068 0.32921,0.57612 0.90534,2.13989 1.81068,4.6913 l 2.71602,7.40733 c 0.74073,1.89298 1.97528,5.67895 3.86826,11.27559 l 4.60901,14.48543 3.45675,11.3579 0.1646,1.23455 c 0,2.05759 -0.98764,3.37445 -2.88062,3.95058 l -1.23456,0.1646 c -2.05759,0 -3.37444,-0.98764 -3.95057,-2.88062 l -4.609,-15.06156 c -2.88063,0.65843 -6.33738,1.56377 -10.37025,2.63371 -8.31267,2.38681 -13.00401,3.62136 -14.07391,3.86827 -0.9053,3.37445 -1.3992,6.6666 -1.6461,9.87644 -0.2469,2.55141 -1.5637,3.78596 -4.1152,3.78596 -0.1646,0 -0.2469,0 -0.3292,-0.0823 -2.5514,-0.0823 -3.7859,-1.48147 -3.7859,-4.11518 z m 24.60874,-44.52625 c -1.06995,1.81068 -1.81068,3.29214 -2.38681,4.5267 -4.36209,8.80648 -7.57193,15.9669 -9.46493,21.56354 0.9054,-0.24691 3.95059,-1.06995 8.97111,-2.55141 5.02052,-1.39916 8.39497,-2.2222 10.12334,-2.63372 -1.56377,-4.85591 -3.12753,-9.46491 -4.6913,-13.66239 z"
             id="path109794" /><path
             d="m -959.78704,684.49202 c 0.0823,-7.07811 0.41152,-14.15622 0.82304,-21.23433 -1.56377,-0.49382 -2.46911,-1.56377 -2.79833,-3.12754 -0.0823,-0.0823 -0.0823,-0.41152 -0.0823,-0.90534 0,-2.2222 1.06995,-3.53905 3.29214,-3.95057 7.57193,-1.39916 13.6624,-2.1399 18.1891,-2.1399 h 1.89298 c 9.95874,0.41152 17.53067,3.37445 22.71579,8.88879 2.96293,3.12754 4.77361,6.66659 5.51434,10.69947 0.16461,1.15225 0.24692,2.38681 0.24692,3.62136 0,2.96293 -0.65843,6.33738 -1.89299,10.12334 -5.26743,14.15622 -16.46072,20.08208 -30.04081,22.9627 -2.79832,0.57613 -5.26743,0.90534 -7.40732,0.90534 -3.86827,0 -6.50199,-0.98764 -8.06576,-3.04523 -1.56376,-2.05759 -2.3868,-8.64188 -2.3868,-19.67056 z m 9.1357,-21.81046 c -0.49382,5.34974 -0.82304,12.67476 -0.90534,21.89276 v 2.96293 c 0,3.70366 0.0823,6.9958 0.24691,9.71182 0.0823,1.97529 0.24691,3.37445 0.41152,4.27979 0.0823,0.0823 0.0823,0.16461 0.0823,0.32921 l 0.0823,0.41152 c 0.1646,0.0823 0.57612,0.0823 1.23455,0.0823 1.48146,-0.0823 3.62136,-0.41152 6.50198,-1.06995 13.16858,-3.53906 19.50596,-7.40732 23.37422,-17.61297 0.98765,-2.55141 1.48147,-4.93822 1.48147,-7.16041 0,-10.78177 -10.37025,-14.73235 -20.6582,-15.14387 -0.24691,-0.0823 -0.98765,-0.0823 -2.05759,-0.0823 -2.63372,0 -5.92586,0.32922 -9.79413,0.90534 z"
             id="path109796" /></g><g
           aria-label="wear nerd hats"
           transform="matrix(1.3492981,0,0,1.3492981,18812.147,-9599.779)"
           id="text3103-6-6-90-4-4-9-7-2-2-7-4-2-5-0-9-2-1-1-0-9-1-3-7-2-5"
           style="font-size:82.3036px;font-family:'Canted Comic';-inkscape-font-specification:'Canted Comic, Normal';white-space:pre;shape-inside:url(#rect3105-5-5-97-13-9-1-5-6-0-6-9-6-7-6-5-2-3-8-27-17-77-8-8-6-5);display:inline;stroke:#000000;stroke-width:0;stroke-linejoin:round"><path
             d="m -1945.4553,666.13831 5.3497,29.13548 1.8107,-5.59665 3.3744,-11.4402 4.8559,-17.69527 0.9877,-2.88063 c 0,-0.24691 0.082,-0.41152 0.1646,-0.49382 l 0.1646,-0.41152 c 0.9053,-1.39916 2.1399,-2.13989 3.6214,-2.13989 1.0699,0 1.9752,0.32921 2.716,0.90534 0.3292,0.32921 0.5761,0.57612 0.6584,0.82304 l 0.6584,1.06994 0.4939,1.31686 2.3868,7.98345 4.1974,13.08627 c 2.3869,7.57193 3.9506,12.67475 4.609,15.39077 l 6.3374,-20.49359 c 1.9753,-6.33738 3.5391,-12.26324 4.609,-17.77758 0.4115,-2.2222 1.7284,-3.29214 3.9506,-3.29214 0.4115,0 0.7407,0 0.9053,0.0823 2.2222,0.41152 3.2922,1.72838 3.2922,3.95057 0,0.49382 0,0.82304 -0.082,0.90534 -1.07,5.59665 -2.716,11.76942 -4.7736,18.51831 l -6.0905,19.34135 -0.823,2.96293 c -0.7408,2.88062 -1.6461,5.51434 -2.7161,7.90114 -1.3991,2.63372 -3.1275,4.03288 -5.1028,4.19748 h -0.1646 c -2.3868,0 -3.6213,-0.90533 -5.2674,-6.17276 -1.07,-4.3621 -2.3045,-9.0534 -3.7037,-14.15622 l -3.2098,-10.12335 -2.716,-8.14805 c -3.3745,12.26323 -6.0905,21.31663 -8.1481,27.24249 -0.9876,2.79832 -1.6461,4.36209 -1.893,4.77361 -1.7283,3.53905 -3.9505,5.34973 -6.6666,5.34973 -1.646,0 -2.8806,-0.57612 -3.7036,-1.64607 -0.3292,-0.32922 -0.5761,-0.74073 -0.6585,-1.15225 l -0.1646,-0.57613 c -0.082,-0.0823 -0.082,-0.24691 -0.082,-0.49382 l -1.2345,-5.92586 -4.4444,-24.44417 c -0.7407,-4.85591 -1.893,-10.45255 -3.3745,-16.87223 -0.082,-0.0823 -0.082,-0.41152 -0.082,-0.82304 0,-2.2222 1.07,-3.53905 3.2099,-4.11518 0.1646,-0.0823 0.4938,-0.0823 0.9053,-0.0823 2.1399,0 3.4568,1.06994 4.0329,3.20984 z"
             id="path109799" /><path
             d="m -1844.3041,700.1297 h 0.4938 c 2.5514,0 3.9506,1.15225 4.1975,3.53905 v 0.57613 c 0,2.3868 -1.1523,3.78596 -3.5391,4.11518 l -3.7036,0.49382 -13.9094,2.2222 -10.5348,1.48146 c -1.5638,0.24691 -2.8806,0.41152 -3.8683,0.49382 -0.2469,0.0823 -0.823,0.0823 -1.5638,0.0823 -0.3292,0 -0.9053,-0.0823 -1.646,-0.16461 -3.0453,-0.74073 -5.1852,-2.13989 -6.5843,-4.27979 -0.4115,-0.57612 -0.5761,-1.06994 -0.5761,-1.39916 v -42.46865 c 0,-1.06995 0,-1.64608 0.082,-1.89299 0.7407,-5.84355 4.1151,-7.65423 11.6048,-8.39496 10.6171,-1.39917 19.8351,-2.05759 27.7363,-2.05759 2.3045,0 4.1152,1.81068 4.1152,4.11518 0,2.3045 -1.8107,4.11518 -4.1152,4.11518 -6.6666,0 -15.6377,0.65842 -26.7487,1.97528 -1.5638,0.16461 -2.6337,0.32922 -3.3744,0.49382 -0.6585,0.0823 -0.9877,0.32922 -0.9877,0.82304 v 4.27979 c 0,5.67894 0,9.87643 -0.082,12.51014 l 29.6293,-4.85591 c 0.082,-0.0823 0.4115,-0.0823 0.8231,-0.0823 2.2222,0 3.539,1.15225 3.9505,3.37445 v 0.82303 c 0,2.3045 -1.1522,3.62136 -3.4567,3.95057 -9.4649,1.56377 -19.8352,3.29215 -31.0285,5.10283 v 15.55538 l 0.5761,0.1646 h 0.9877 l 3.4567,-0.41151 c 2.5515,-0.32922 6.0082,-0.82304 10.3703,-1.48147 z"
             id="path109801" /><path
             d="m -1836.8144,707.86624 c 0.9053,-11.3579 5.8435,-25.92564 14.8146,-43.78552 2.2222,-4.36209 4.1975,-7.73653 5.7613,-9.95873 1.5637,-2.1399 3.1275,-3.20984 4.7736,-3.20984 0.4115,0 0.7407,0 0.823,0.0823 1.2346,0.24691 2.0576,0.65843 2.4691,1.39916 l 0.3292,0.32922 c 0.1646,0.24691 0.3292,0.57612 0.4938,0.98764 0.247,0.41152 0.5762,1.06995 0.9054,1.81068 0.3292,0.57612 0.9053,2.13989 1.8107,4.6913 l 2.716,7.40733 c 0.7407,1.89298 1.9753,5.67895 3.8683,11.27559 l 4.609,14.48543 3.4567,11.3579 0.1646,1.23455 c 0,2.05759 -0.9876,3.37445 -2.8806,3.95058 l -1.2346,0.1646 c -2.0576,0 -3.3744,-0.98764 -3.9505,-2.88062 l -4.609,-15.06156 c -2.8807,0.65843 -6.3374,1.56377 -10.3703,2.63371 -8.3127,2.38681 -13.004,3.62136 -14.0739,3.86827 -0.9053,3.37445 -1.3992,6.6666 -1.6461,9.87644 -0.2469,2.55141 -1.5637,3.78596 -4.1152,3.78596 -0.1646,0 -0.2469,0 -0.3292,-0.0823 -2.5514,-0.0823 -3.7859,-1.48147 -3.7859,-4.11518 z m 24.6087,-44.52625 c -1.0699,1.81068 -1.8106,3.29214 -2.3868,4.5267 -4.3621,8.80648 -7.5719,15.9669 -9.4649,21.56354 0.9054,-0.24691 3.9506,-1.06995 8.9711,-2.55141 5.0205,-1.39916 8.395,-2.2222 10.1234,-2.63372 -1.5638,-4.85591 -3.1276,-9.46491 -4.6914,-13.66239 z"
             id="path109803" /><path
             d="m -1753.5232,691.98164 c 9.218,4.77361 15.8023,7.98345 19.6706,9.71183 1.0699,0.41151 1.8107,1.23455 2.2222,2.3045 0.1646,0.49382 0.2469,0.98764 0.2469,1.48146 0,0.65843 -0.082,1.23456 -0.3292,1.64607 -0.4115,1.06995 -1.1523,1.72838 -2.2222,2.1399 -0.4115,0.24691 -0.9877,0.32921 -1.5638,0.32921 -0.6584,0 -1.2346,-0.0823 -1.6461,-0.32921 -3.7036,-1.72838 -10.3702,-5.02052 -20.1644,-9.95874 -6.9958,-3.53905 -12.757,-6.09046 -17.1191,-7.81884 0.082,6.17277 0.5761,11.27559 1.3992,15.47308 0.082,0.0823 0.082,0.41152 0.082,0.82303 0,2.2222 -1.07,3.53906 -3.2922,3.95058 -0.1646,0.0823 -0.4938,0.0823 -0.9053,0.0823 -2.2222,0 -3.5391,-1.15225 -3.9506,-3.37445 -1.1522,-5.76125 -1.7284,-14.15622 -1.7284,-25.1849 0,-6.33738 0,-9.87643 -0.082,-10.69947 l -0.1646,-2.71601 c -0.2469,-2.46911 -0.3292,-5.26744 -0.3292,-8.39497 0.082,-2.2222 0.4938,-3.78597 1.2346,-4.69131 1.5637,-2.05759 5.3497,-3.37444 11.4402,-3.78596 l 4.4444,-0.16461 c 11.934,0 20.4112,2.46911 25.4318,7.48963 2.0576,2.05759 3.2921,4.36209 3.7036,6.9958 0.082,0.24691 0.082,0.82304 0.082,1.64608 0,2.3868 -0.5761,4.7736 -1.8106,7.16041 -2.2222,4.5267 -6.4197,7.98345 -12.5925,10.53486 -2.7983,1.06995 -5.5143,1.89298 -8.0657,2.3868 z m -21.6458,-30.12311 c 0,2.55141 0.082,5.10282 0.3292,7.65423 l 0.3292,6.8312 v 5.26743 c 0.5761,0.0823 1.893,0.0823 3.9506,0.0823 12.4278,0 21.6458,-3.78596 24.2795,-9.38261 0.5762,-1.39916 0.9054,-2.4691 0.9054,-3.20984 0,-1.15225 -0.4115,-2.13989 -1.2346,-2.96293 -3.539,-3.37444 -10.2879,-5.10282 -20.1644,-5.10282 -3.3744,0 -6.0904,0.24691 -8.148,0.74073 z"
             id="path109805" /><path
             d="m -1692.2893,706.9609 c 0,2.55141 -1.1523,3.86827 -3.5391,4.11518 -0.082,0.0823 -0.3292,0.0823 -0.5761,0.0823 -2.3868,0 -3.786,-1.15225 -4.1152,-3.53905 -0.4115,-3.62136 -0.5761,-6.99581 -0.5761,-10.12335 -0.082,-0.24691 -0.082,-0.49382 -0.082,-0.90534 0,-0.41151 0,-0.82303 0.082,-1.31685 v -7.81885 c 0,-9.05339 0,-13.9093 -0.082,-14.48543 0,-0.65843 -0.082,-2.13989 -0.3292,-4.5267 l -0.082,-3.20984 -0.1647,-4.609 v -1.81068 l 0.1647,-1.39916 c 0.3292,-1.72837 2.4691,-3.53905 4.7736,-3.53905 2.0576,0 4.1974,1.15225 6.255,3.37444 0.5762,0.57613 1.2346,1.39917 2.1399,2.46911 l 0.8231,1.15225 c 6.6666,8.47727 13.827,18.51831 21.6458,29.95851 l 2.8806,4.5267 v -3.29214 c 0.4939,-11.93403 0.7408,-21.56355 0.7408,-28.80626 0,-4.03288 0,-6.50199 -0.082,-7.40733 v -0.24691 c 0,-2.05759 1.646,-3.95057 3.9505,-4.03287 h 0.247 c 2.0575,0 3.9505,1.64607 4.0328,3.95057 l 0.1646,8.23036 c 0,8.47727 -0.2469,18.02449 -0.823,28.64165 v 4.19748 c 0,1.56377 0,2.55142 -0.082,2.96293 -0.4115,6.50199 -2.5514,9.71183 -6.4197,9.71183 h -0.1646 c -0.823,0 -1.5638,-0.24691 -2.2222,-0.74073 l -0.823,-0.65843 -8.3127,-12.42785 c -6.502,-9.79412 -13.2509,-19.25904 -20.4113,-28.47704 l 0.3292,5.67895 c 0.082,0.49382 0.082,1.97528 0.082,4.44439 0,2.46911 0,5.92586 -0.082,10.37025 v 7.90115 c 0,1.15225 0,1.81068 0.082,2.05759 0,3.53905 0.1646,6.50198 0.5762,9.0534 z"
             id="path109807" /><path
             d="m -1607.7635,700.1297 h 0.4938 c 2.5514,0 3.9505,1.15225 4.1975,3.53905 v 0.57613 c 0,2.3868 -1.1523,3.78596 -3.5391,4.11518 l -3.7037,0.49382 -13.9093,2.2222 -10.5348,1.48146 c -1.5638,0.24691 -2.8807,0.41152 -3.8683,0.49382 -0.2469,0.0823 -0.823,0.0823 -1.5638,0.0823 -0.3292,0 -0.9053,-0.0823 -1.646,-0.16461 -3.0453,-0.74073 -5.1852,-2.13989 -6.5843,-4.27979 -0.4115,-0.57612 -0.5761,-1.06994 -0.5761,-1.39916 v -42.46865 c 0,-1.06995 0,-1.64608 0.082,-1.89299 0.7407,-5.84355 4.1151,-7.65423 11.6048,-8.39496 10.6171,-1.39917 19.8351,-2.05759 27.7363,-2.05759 2.3045,0 4.1152,1.81068 4.1152,4.11518 0,2.3045 -1.8107,4.11518 -4.1152,4.11518 -6.6666,0 -15.6377,0.65842 -26.7487,1.97528 -1.5638,0.16461 -2.6337,0.32922 -3.3744,0.49382 -0.6585,0.0823 -0.9877,0.32922 -0.9877,0.82304 v 4.27979 c 0,5.67894 0,9.87643 -0.082,12.51014 l 29.6293,-4.85591 c 0.082,-0.0823 0.4115,-0.0823 0.823,-0.0823 2.2222,0 3.5391,1.15225 3.9506,3.37445 v 0.82303 c 0,2.3045 -1.1522,3.62136 -3.4567,3.95057 -9.4649,1.56377 -19.8352,3.29215 -31.0285,5.10283 v 15.55538 l 0.5761,0.1646 h 0.9877 l 3.4567,-0.41151 c 2.5514,-0.32922 6.0082,-0.82304 10.3703,-1.48147 z"
             id="path109809" /><path
             d="m -1566.694,691.98164 c 9.218,4.77361 15.8023,7.98345 19.6706,9.71183 1.0699,0.41151 1.8106,1.23455 2.2222,2.3045 0.1646,0.49382 0.2469,0.98764 0.2469,1.48146 0,0.65843 -0.082,1.23456 -0.3292,1.64607 -0.4116,1.06995 -1.1523,1.72838 -2.2222,2.1399 -0.4116,0.24691 -0.9877,0.32921 -1.5638,0.32921 -0.6584,0 -1.2346,-0.0823 -1.6461,-0.32921 -3.7036,-1.72838 -10.3702,-5.02052 -20.1644,-9.95874 -6.9958,-3.53905 -12.757,-6.09046 -17.1191,-7.81884 0.082,6.17277 0.5761,11.27559 1.3992,15.47308 0.082,0.0823 0.082,0.41152 0.082,0.82303 0,2.2222 -1.07,3.53906 -3.2922,3.95058 -0.1646,0.0823 -0.4938,0.0823 -0.9053,0.0823 -2.2222,0 -3.5391,-1.15225 -3.9506,-3.37445 -1.1522,-5.76125 -1.7284,-14.15622 -1.7284,-25.1849 0,-6.33738 0,-9.87643 -0.082,-10.69947 l -0.1646,-2.71601 c -0.2469,-2.46911 -0.3292,-5.26744 -0.3292,-8.39497 0.082,-2.2222 0.4938,-3.78597 1.2346,-4.69131 1.5637,-2.05759 5.3497,-3.37444 11.4402,-3.78596 l 4.4444,-0.16461 c 11.934,0 20.4112,2.46911 25.4318,7.48963 2.0576,2.05759 3.2921,4.36209 3.7036,6.9958 0.082,0.24691 0.082,0.82304 0.082,1.64608 0,2.3868 -0.5761,4.7736 -1.8107,7.16041 -2.2221,4.5267 -6.4196,7.98345 -12.5924,10.53486 -2.7983,1.06995 -5.5143,1.89298 -8.0658,2.3868 z m -21.6458,-30.12311 c 0,2.55141 0.082,5.10282 0.3292,7.65423 l 0.3292,6.8312 v 5.26743 c 0.5761,0.0823 1.893,0.0823 3.9506,0.0823 12.4278,0 21.6458,-3.78596 24.2795,-9.38261 0.5761,-1.39916 0.9054,-2.4691 0.9054,-3.20984 0,-1.15225 -0.4116,-2.13989 -1.2346,-2.96293 -3.539,-3.37444 -10.2879,-5.10282 -20.1644,-5.10282 -3.3744,0 -6.0904,0.24691 -8.148,0.74073 z"
             id="path109811" /><path
             d="m -1536.4062,684.49202 c 0.082,-7.07811 0.4115,-14.15622 0.823,-21.23433 -1.5638,-0.49382 -2.4691,-1.56377 -2.7983,-3.12754 -0.082,-0.0823 -0.082,-0.41152 -0.082,-0.90534 0,-2.2222 1.0699,-3.53905 3.2921,-3.95057 7.5719,-1.39916 13.6624,-2.1399 18.1891,-2.1399 h 1.893 c 9.9587,0.41152 17.5307,3.37445 22.7158,8.88879 2.9629,3.12754 4.7736,6.66659 5.5143,10.69947 0.1646,1.15225 0.2469,2.38681 0.2469,3.62136 0,2.96293 -0.6584,6.33738 -1.8929,10.12334 -5.2675,14.15622 -16.4608,20.08208 -30.0409,22.9627 -2.7983,0.57613 -5.2674,0.90534 -7.4073,0.90534 -3.8683,0 -6.502,-0.98764 -8.0657,-3.04523 -1.5638,-2.05759 -2.3868,-8.64188 -2.3868,-19.67056 z m 9.1357,-21.81046 c -0.4939,5.34974 -0.8231,12.67476 -0.9054,21.89276 v 2.96293 c 0,3.70366 0.082,6.9958 0.2469,9.71182 0.082,1.97529 0.2469,3.37445 0.4115,4.27979 0.082,0.0823 0.082,0.16461 0.082,0.32921 l 0.082,0.41152 c 0.1646,0.0823 0.5761,0.0823 1.2345,0.0823 1.4815,-0.0823 3.6214,-0.41152 6.502,-1.06995 13.1686,-3.53906 19.5059,-7.40732 23.3742,-17.61297 0.9877,-2.55141 1.4815,-4.93822 1.4815,-7.16041 0,-10.78177 -10.3703,-14.73235 -20.6582,-15.14387 -0.2469,-0.0823 -0.9877,-0.0823 -2.0576,-0.0823 -2.6337,0 -5.9259,0.32922 -9.7941,0.90534 z"
             id="path109813" /><path
             d="m -1417.5598,671.40574 c 0.2469,14.56774 0.9053,26.09024 1.9753,34.48521 v 0.41152 c 0,2.55141 -1.1523,3.86827 -3.5391,4.11518 -0.082,0.0823 -0.3292,0.0823 -0.5761,0.0823 -2.3868,0 -3.786,-1.23455 -4.1152,-3.62136 -0.7407,-6.8312 -1.3169,-13.99161 -1.6461,-21.39893 -2.3868,0.24691 -5.8435,0.82303 -10.2056,1.72837 -4.1975,0.82304 -7.572,1.48147 -10.2057,1.89299 l 1.4815,18.2714 c 0,2.05758 -1.5638,4.03287 -3.786,4.11517 -0.082,0.0823 -0.1646,0.0823 -0.4115,0.0823 -1.9753,0 -3.786,-1.72838 -4.0329,-3.78597 l -0.9053,-11.5225 c -0.9053,-10.20565 -1.3169,-18.84752 -1.3169,-25.92563 0,-4.36209 0.247,-8.55958 0.6585,-12.67476 0.3292,-2.3868 1.7283,-3.62136 4.1151,-3.62136 h 0.5762 c 2.3868,0.32922 3.539,1.72838 3.539,4.19749 v 0.41152 c -0.4938,3.53905 -0.7407,7.65423 -0.7407,12.42784 0,3.70366 0.082,6.9958 0.3292,9.79413 1.8107,-0.24691 4.8559,-0.82304 9.0534,-1.72838 4.6913,-0.98764 8.5596,-1.64607 11.6048,-1.89298 l -0.4115,-20.90511 c 0,-2.05759 1.7284,-3.95058 4.0329,-4.03288 h 0.1646 c 2.0576,0 3.9506,1.72837 4.0329,3.95057 z"
             id="path109815" /><path
             d="m -1410.3171,707.86624 c 0.9053,-11.3579 5.8435,-25.92564 14.8146,-43.78552 2.2222,-4.36209 4.1975,-7.73653 5.7613,-9.95873 1.5637,-2.1399 3.1275,-3.20984 4.7736,-3.20984 0.4115,0 0.7407,0 0.823,0.0823 1.2346,0.24691 2.0576,0.65843 2.4691,1.39916 l 0.3292,0.32922 c 0.1646,0.24691 0.3292,0.57612 0.4939,0.98764 0.2469,0.41152 0.5761,1.06995 0.9053,1.81068 0.3292,0.57612 0.9053,2.13989 1.8107,4.6913 l 2.716,7.40733 c 0.7407,1.89298 1.9753,5.67895 3.8683,11.27559 l 4.609,14.48543 3.4567,11.3579 0.1646,1.23455 c 0,2.05759 -0.9876,3.37445 -2.8806,3.95058 l -1.2346,0.1646 c -2.0575,0 -3.3744,-0.98764 -3.9505,-2.88062 l -4.609,-15.06156 c -2.8807,0.65843 -6.3374,1.56377 -10.3703,2.63371 -8.3126,2.38681 -13.004,3.62136 -14.0739,3.86827 -0.9053,3.37445 -1.3992,6.6666 -1.6461,9.87644 -0.2469,2.55141 -1.5637,3.78596 -4.1152,3.78596 -0.1646,0 -0.2469,0 -0.3292,-0.0823 -2.5514,-0.0823 -3.7859,-1.48147 -3.7859,-4.11518 z m 24.6087,-44.52625 c -1.0699,1.81068 -1.8106,3.29214 -2.3868,4.5267 -4.3621,8.80648 -7.5719,15.9669 -9.4649,21.56354 0.9054,-0.24691 3.9506,-1.06995 8.9711,-2.55141 5.0205,-1.39916 8.395,-2.2222 10.1234,-2.63372 -1.5638,-4.85591 -3.1276,-9.46491 -4.6913,-13.66239 z"
             id="path109817" /><path
             d="m -1333.281,707.1255 c 0,2.55142 -1.1522,3.86827 -3.539,4.11518 -0.082,0.0823 -0.3293,0.0823 -0.5762,0.0823 -2.3868,0 -3.7859,-1.15225 -4.1151,-3.53906 -0.9054,-6.66659 -1.4815,-13.827 -1.7284,-21.48124 -0.1646,-3.04523 -0.2469,-6.09046 -0.2469,-9.13569 0,-3.37445 0.1646,-7.65424 0.4115,-12.83937 -7.7366,0.74074 -14.0739,1.48147 -18.9298,2.3045 -0.082,0.0823 -0.4116,0.0823 -0.8231,0.0823 -2.2222,0 -3.539,-1.15225 -3.9506,-3.37445 -0.082,-0.0823 -0.082,-0.41152 -0.082,-0.82304 0,-2.22219 1.1523,-3.53905 3.3745,-3.95057 5.1028,-0.90534 13.2509,-1.89298 24.3619,-2.79832 10.1233,-0.90534 17.9421,-1.89298 23.3742,-3.04523 0.1646,-0.0823 0.4938,-0.0823 0.9053,-0.0823 2.1399,0 3.4568,1.06995 4.0329,3.20984 0.082,0.16461 0.082,0.49383 0.082,0.98765 0,2.05759 -1.0699,3.37444 -3.2098,3.95057 -5.0206,1.15225 -12.0164,2.13989 -20.8229,2.88063 -0.3292,4.36209 -0.4938,8.88878 -0.4938,13.58009 l 0.1646,7.98345 c 0.2469,7.40732 0.9054,14.56773 1.8107,21.39893 z"
             id="path109819" /><path
             d="m -1259.2077,670.66501 c -0.5762,1.97529 -1.893,2.96293 -3.9506,2.96293 -0.1646,0 -0.4938,-0.0823 -1.07,-0.16461 -2.0575,-0.57612 -3.0452,-1.89298 -3.0452,-3.95057 l 0.1646,-1.15225 c 0.082,-0.0823 0.6585,-1.56377 1.7284,-4.36209 l 0.1646,-0.41152 -1.4815,-0.49382 c -2.8806,-0.74073 -5.6789,-1.15225 -8.3949,-1.15225 h -0.8231 c -7.1604,0.24691 -12.3455,2.71602 -15.3907,7.32502 -0.082,0.41152 -0.1646,0.90534 -0.1646,1.48146 v 0.90534 c 0.082,1.81068 0.9876,3.29215 2.7983,4.36209 1.7284,1.06995 4.8559,2.05759 9.3003,2.96293 14.8146,3.20984 18.2714,4.36209 21.8104,9.87644 1.4815,2.22219 2.2222,4.44439 2.2222,6.66659 0,0.74073 -0.1646,1.56377 -0.4115,2.46911 -2.2222,6.9958 -7.4896,11.19328 -15.8846,12.59245 -3.0452,0.49382 -6.255,0.74073 -9.6295,0.74073 -1.4815,0 -2.3868,0 -2.7983,-0.0823 -11.934,-0.49382 -18.8475,-3.45675 -20.9051,-8.88878 -0.5762,-1.39917 -0.8231,-3.12754 -0.9054,-5.34974 l -0.1646,-4.36209 c 0,-2.55141 1.2346,-3.86827 3.7037,-4.11518 h 0.4115 c 2.5514,0 3.8683,1.23456 4.1152,3.70366 0,7.57193 0,7.90115 4.1975,9.21801 2.4691,0.90534 5.7612,1.39916 9.9587,1.56376 0.4115,0.0823 1.2346,0.0823 2.6337,0.0823 7.1604,0 11.6871,-0.82304 13.4155,-2.38681 2.2222,-1.97528 3.5391,-3.70366 4.0329,-5.26743 l -0.1646,-0.74073 -0.6585,-1.23455 c -0.9053,-1.48147 -2.3045,-2.55141 -4.2797,-3.29215 -2.0576,-0.74073 -6.1728,-1.72837 -12.4279,-3.12753 -12.757,-2.71602 -18.2714,-6.50199 -18.6006,-15.06156 v -0.82304 c 0,-10.12334 11.6048,-17.36606 25.4318,-17.36606 h 1.3992 c 3.0452,0.0823 6.0081,0.65843 8.8065,1.56377 0.7407,0 1.646,0.24691 2.7983,0.82304 2.3868,0.90534 3.8682,2.46911 4.3621,4.5267 l 0.1646,1.72837 c 0,1.48147 -0.3292,3.04523 -0.9877,4.69131 z"
             id="path109821" /></g><path
           id="path27959-7-0-0-3"
           d="m 16122.987,-8488.1057 c 0,7.9749 0.645,13.8587 -4.581,19.0849 -5.226,5.2261 -15.41,8.6498 -23.384,8.6498 -7.975,0 -15.086,-3.9347 -20.082,-9.0926 -4.995,-5.158 -7.026,-10.8663 -7.026,-18.8412 0,-7.9749 2.742,-14.1578 7.756,-19.5522 5.014,-5.3943 10.015,-9.6215 17.99,-9.6215 7.975,0 16.607,1.07 22.404,6.2015 5.797,5.1315 6.923,15.1965 6.923,23.1713 z"
           style="fill:#000000;fill-opacity:1;stroke:none;stroke-width:46.1783;stroke-linecap:round;stroke-linejoin:round;stroke-dasharray:none;stroke-opacity:1" /><g
           aria-label="follow the breadcrumbs"
           transform="matrix(1.3492981,0,0,1.3492981,18808.815,-9408.88)"
           id="text3103-6-6-90-4-4-9-7-2-2-7-4-2-5-0-9-2-1-1-0-9-1-3-7-0-6-9"
           style="font-size:82.3036px;font-family:'Canted Comic';-inkscape-font-specification:'Canted Comic, Normal';white-space:pre;shape-inside:url(#rect3105-5-5-97-13-9-1-5-6-0-6-9-6-7-6-5-2-3-8-27-17-77-8-8-0-2-4);display:inline;stroke:#000000;stroke-width:0;stroke-linejoin:round"><path
             d="m -1948.5006,655.68576 c 3.8683,-0.41152 10.3703,-0.90534 19.3414,-1.48147 8.9711,-0.57612 15.2262,-1.06995 18.7652,-1.64607 h 0.4938 c 2.4691,0 3.8683,1.15225 4.1975,3.53905 v 0.57613 c 0,2.3868 -1.1522,3.78597 -3.539,4.11518 -3.786,0.57612 -10.288,1.06995 -19.4237,1.64607 -8.8888,0.57613 -14.2385,0.98764 -16.0492,1.15225 0,4.36209 0.2469,8.97109 0.7407,13.90931 4.3621,-0.24691 10.9464,-0.82304 19.7529,-1.81068 l 9.4649,-1.06995 c 2.5514,0 3.8683,1.23456 4.1152,3.70367 v 0.41151 c 0,2.46911 -1.2346,3.86827 -3.7037,4.11518 l -8.8888,0.90534 c -7.8188,0.98765 -14.4031,1.64607 -19.7528,1.89299 0.6584,4.6913 1.8107,11.6048 3.3744,20.82281 0.082,0.0823 0.082,0.41151 0.082,0.82303 0,2.3045 -1.1522,3.62136 -3.3744,3.95057 -0.082,0.0823 -0.4115,0.0823 -0.8231,0.0823 -2.3045,0 -3.6213,-1.15225 -3.9505,-3.37445 -0.082,-0.74073 -0.2469,-1.56377 -0.4938,-2.55141 -2.0576,-12.09863 -3.4568,-21.97506 -4.1152,-29.6293 -0.4115,-5.02052 -0.6585,-9.1357 -0.6585,-12.34554 0,-3.20984 0.4116,-5.34973 1.1523,-6.25507 0.5761,-0.74073 1.3992,-1.15225 2.3868,-1.23455 z"
             id="path109825" /><path
             d="m -1865.374,654.61581 c 0.4116,0.16461 0.6585,0.24691 0.7408,0.32921 0.9053,0.32922 1.5637,0.90534 1.9753,1.72838 0.4115,0.41152 0.823,0.82304 1.1522,1.39916 2.0576,3.95057 3.2921,8.47727 3.786,13.6624 l 0.1646,4.27978 c 0,9.38261 -2.3868,17.36606 -7.1604,23.86805 -3.3745,4.85591 -8.1481,8.23036 -14.4855,10.12334 -2.3045,0.65843 -4.3621,0.98764 -6.1727,1.06995 h -0.4116 c -9.218,0 -15.5553,-6.50199 -16.9545,-14.73235 -0.4115,-1.56377 -0.5761,-3.53905 -0.5761,-5.84355 0,-1.81068 0.2469,-3.95057 0.6584,-6.41968 3.0452,-14.56774 13.004,-27.4894 23.6211,-30.86385 1.7284,-0.49382 3.5391,-0.74073 5.3498,-0.74073 2.3868,0 4.6913,0.49382 6.9135,1.48146 z m -3.2921,7.48963 c -0.7407,-0.24691 -1.1523,-0.49382 -1.2346,-0.57613 -1.1522,-0.57612 -2.3868,-0.82303 -3.6213,-0.82303 -6.0082,0 -12.8394,5.51434 -17.6953,15.39077 -2.3868,5.02052 -3.7037,9.79413 -3.786,14.40313 -0.082,0.0823 -0.082,0.32921 -0.082,0.57612 0,7.81884 3.1276,11.76942 9.3003,11.76942 3.2922,0 6.6666,-1.23456 10.0411,-3.62136 1.9753,-1.23455 3.4567,-2.63372 4.4444,-4.11518 3.1275,-4.36209 4.9382,-9.71183 5.432,-16.0492 0.082,-0.49382 0.082,-1.56377 0.082,-3.12754 0,-4.93821 -0.9876,-9.54722 -2.8806,-13.827 z"
             id="path109827" /><path
             d="m -1850.4769,687.45494 c 0,-11.27559 0.9876,-21.89275 2.8806,-31.85149 0.4115,-2.22219 1.7284,-3.29214 3.9506,-3.29214 0.4115,0 0.7407,0 0.9053,0.0823 2.2222,0.41152 3.2921,1.72838 3.2921,3.95058 0,0.49382 0,0.82303 -0.082,0.90533 -1.7283,9.62953 -2.6337,20.90512 -2.6337,33.99139 l 0.1646,11.19329 c 6.9958,0 14.7324,-0.57613 23.2096,-1.81068 l 12.5925,-1.72838 c 0.082,-0.0823 0.3292,-0.0823 0.6584,-0.0823 2.3868,0 3.7037,1.15225 4.0329,3.45675 v 0.57613 c 0,2.55141 -1.1523,3.86827 -3.5391,4.11518 -11.1932,1.72837 -19.9997,2.79832 -26.3371,3.20984 -5.0205,0.24691 -8.8888,0.41152 -11.4402,0.41152 h -2.9629 c -1.893,-0.0823 -3.1276,-0.98765 -3.786,-2.88063 -0.3292,-0.65843 -0.4938,-1.31686 -0.5761,-1.97529 -0.2469,-8.64187 -0.3292,-14.23852 -0.3292,-16.62532 z"
             id="path109829" /><path
             d="m -1793.6874,687.45494 c 0,-11.27559 0.9876,-21.89275 2.8806,-31.85149 0.4115,-2.22219 1.7284,-3.29214 3.9506,-3.29214 0.4115,0 0.7407,0 0.9053,0.0823 2.2222,0.41152 3.2922,1.72838 3.2922,3.95058 0,0.49382 0,0.82303 -0.082,0.90533 -1.7284,9.62953 -2.6338,20.90512 -2.6338,33.99139 l 0.1647,11.19329 c 6.9958,0 14.7323,-0.57613 23.2096,-1.81068 l 12.5924,-1.72838 c 0.082,-0.0823 0.3292,-0.0823 0.6584,-0.0823 2.3869,0 3.7037,1.15225 4.0329,3.45675 v 0.57613 c 0,2.55141 -1.1522,3.86827 -3.539,4.11518 -11.1933,1.72837 -19.9998,2.79832 -26.3372,3.20984 -5.0205,0.24691 -8.8888,0.41152 -11.4402,0.41152 h -2.9629 c -1.893,-0.0823 -3.1275,-0.98765 -3.786,-2.88063 -0.3292,-0.65843 -0.4938,-1.31686 -0.5761,-1.97529 -0.2469,-8.64187 -0.3292,-14.23852 -0.3292,-16.62532 z"
             id="path109831" /><path
             d="m -1701.3427,654.61581 c 0.4115,0.16461 0.6584,0.24691 0.7407,0.32921 0.9053,0.32922 1.5638,0.90534 1.9753,1.72838 0.4115,0.41152 0.823,0.82304 1.1522,1.39916 2.0576,3.95057 3.2922,8.47727 3.786,13.6624 l 0.1646,4.27978 c 0,9.38261 -2.3868,17.36606 -7.1604,23.86805 -3.3745,4.85591 -8.1481,8.23036 -14.4854,10.12334 -2.3045,0.65843 -4.3621,0.98764 -6.1728,1.06995 h -0.4115 c -9.218,0 -15.5554,-6.50199 -16.9546,-14.73235 -0.4115,-1.56377 -0.5761,-3.53905 -0.5761,-5.84355 0,-1.81068 0.2469,-3.95057 0.6584,-6.41968 3.0453,-14.56774 13.004,-27.4894 23.6212,-30.86385 1.7283,-0.49382 3.539,-0.74073 5.3497,-0.74073 2.3868,0 4.6913,0.49382 6.9135,1.48146 z m -3.2922,7.48963 c -0.7407,-0.24691 -1.1522,-0.49382 -1.2345,-0.57613 -1.1523,-0.57612 -2.3868,-0.82303 -3.6214,-0.82303 -6.0082,0 -12.8394,5.51434 -17.6953,15.39077 -2.3868,5.02052 -3.7036,9.79413 -3.7859,14.40313 -0.082,0.0823 -0.082,0.32921 -0.082,0.57612 0,7.81884 3.1275,11.76942 9.3003,11.76942 3.2921,0 6.6666,-1.23456 10.041,-3.62136 1.9753,-1.23455 3.4568,-2.63372 4.4444,-4.11518 3.1275,-4.36209 4.9382,-9.71183 5.432,-16.0492 0.082,-0.49382 0.082,-1.56377 0.082,-3.12754 0,-4.93821 -0.9876,-9.54722 -2.8806,-13.827 z"
             id="path109833" /><path
             d="m -1680.6022,666.13831 5.3498,29.13548 1.8106,-5.59665 3.3745,-11.4402 4.8559,-17.69527 0.9876,-2.88063 c 0,-0.24691 0.082,-0.41152 0.1646,-0.49382 l 0.1647,-0.41152 c 0.9053,-1.39916 2.1398,-2.13989 3.6213,-2.13989 1.07,0 1.9753,0.32921 2.716,0.90534 0.3292,0.32921 0.5762,0.57612 0.6585,0.82304 l 0.6584,1.06994 0.4938,1.31686 2.3868,7.98345 4.1975,13.08627 c 2.3868,7.57193 3.9506,12.67475 4.609,15.39077 l 6.3374,-20.49359 c 1.9753,-6.33738 3.539,-12.26324 4.609,-17.77758 0.4115,-2.2222 1.7284,-3.29214 3.9505,-3.29214 0.4116,0 0.7408,0 0.9054,0.0823 2.2222,0.41152 3.2921,1.72838 3.2921,3.95057 0,0.49382 0,0.82304 -0.082,0.90534 -1.0699,5.59665 -2.716,11.76942 -4.7736,18.51831 l -6.0904,19.34135 -0.8231,2.96293 c -0.7407,2.88062 -1.6461,5.51434 -2.716,7.90114 -1.3992,2.63372 -3.1275,4.03288 -5.1028,4.19748 h -0.1646 c -2.3868,0 -3.6214,-0.90533 -5.2675,-6.17276 -1.0699,-4.3621 -2.3045,-9.0534 -3.7036,-14.15622 l -3.2099,-10.12335 -2.716,-8.14805 c -3.3744,12.26323 -6.0904,21.31663 -8.148,27.24249 -0.9877,2.79832 -1.6461,4.36209 -1.893,4.77361 -1.7284,3.53905 -3.9506,5.34973 -6.6666,5.34973 -1.6461,0 -2.8806,-0.57612 -3.7037,-1.64607 -0.3292,-0.32922 -0.5761,-0.74073 -0.6584,-1.15225 l -0.1646,-0.57613 c -0.082,-0.0823 -0.082,-0.24691 -0.082,-0.49382 l -1.2346,-5.92586 -4.4444,-24.44417 c -0.7407,-4.85591 -1.8929,-10.45255 -3.3744,-16.87223 -0.082,-0.0823 -0.082,-0.41152 -0.082,-0.82304 0,-2.2222 1.0699,-3.53905 3.2098,-4.11518 0.1646,-0.0823 0.4938,-0.0823 0.9054,-0.0823 2.1399,0 3.4567,1.06994 4.0328,3.20984 z"
             id="path109835" /><path
             d="m -1566.2001,707.1255 c 0,2.55142 -1.1523,3.86827 -3.5391,4.11518 -0.082,0.0823 -0.3292,0.0823 -0.5761,0.0823 -2.3868,0 -3.786,-1.15225 -4.1152,-3.53906 -0.9053,-6.66659 -1.4815,-13.827 -1.7284,-21.48124 -0.1646,-3.04523 -0.2469,-6.09046 -0.2469,-9.13569 0,-3.37445 0.1646,-7.65424 0.4115,-12.83937 -7.7365,0.74074 -14.0739,1.48147 -18.9298,2.3045 -0.082,0.0823 -0.4115,0.0823 -0.823,0.0823 -2.2222,0 -3.5391,-1.15225 -3.9506,-3.37445 -0.082,-0.0823 -0.082,-0.41152 -0.082,-0.82304 0,-2.22219 1.1522,-3.53905 3.3744,-3.95057 5.1029,-0.90534 13.2509,-1.89298 24.3619,-2.79832 10.1233,-0.90534 17.9422,-1.89298 23.3742,-3.04523 0.1646,-0.0823 0.4938,-0.0823 0.9054,-0.0823 2.1399,0 3.4567,1.06995 4.0328,3.20984 0.082,0.16461 0.082,0.49383 0.082,0.98765 0,2.05759 -1.0699,3.37444 -3.2098,3.95057 -5.0205,1.15225 -12.0163,2.13989 -20.8228,2.88063 -0.3292,4.36209 -0.4938,8.88878 -0.4938,13.58009 l 0.1646,7.98345 c 0.2469,7.40732 0.9053,14.56773 1.8107,21.39893 z"
             id="path109837" /><path
             d="m -1502.4148,671.40574 c 0.2469,14.56774 0.9053,26.09024 1.9752,34.48521 v 0.41152 c 0,2.55141 -1.1522,3.86827 -3.539,4.11518 -0.082,0.0823 -0.3292,0.0823 -0.5761,0.0823 -2.3868,0 -3.786,-1.23455 -4.1152,-3.62136 -0.7407,-6.8312 -1.3169,-13.99161 -1.6461,-21.39893 -2.3868,0.24691 -5.8435,0.82303 -10.2056,1.72837 -4.1975,0.82304 -7.572,1.48147 -10.2057,1.89299 l 1.4815,18.2714 c 0,2.05758 -1.5638,4.03287 -3.786,4.11517 -0.082,0.0823 -0.1646,0.0823 -0.4115,0.0823 -1.9753,0 -3.786,-1.72838 -4.0329,-3.78597 l -0.9053,-11.5225 c -0.9054,-10.20565 -1.3169,-18.84752 -1.3169,-25.92563 0,-4.36209 0.2469,-8.55958 0.6585,-12.67476 0.3292,-2.3868 1.7283,-3.62136 4.1151,-3.62136 h 0.5762 c 2.3868,0.32922 3.539,1.72838 3.539,4.19749 v 0.41152 c -0.4938,3.53905 -0.7407,7.65423 -0.7407,12.42784 0,3.70366 0.082,6.9958 0.3292,9.79413 1.8107,-0.24691 4.8559,-0.82304 9.0534,-1.72838 4.6913,-0.98764 8.5596,-1.64607 11.6048,-1.89298 l -0.4115,-20.90511 c 0,-2.05759 1.7284,-3.95058 4.0329,-4.03288 h 0.1646 c 2.0576,0 3.9505,1.72837 4.0328,3.95057 z"
             id="path109839" /><path
             d="m -1451.6335,700.1297 h 0.4938 c 2.5514,0 3.9506,1.15225 4.1975,3.53905 v 0.57613 c 0,2.3868 -1.1523,3.78596 -3.5391,4.11518 l -3.7037,0.49382 -13.9093,2.2222 -10.5348,1.48146 c -1.5638,0.24691 -2.8806,0.41152 -3.8683,0.49382 -0.2469,0.0823 -0.823,0.0823 -1.5638,0.0823 -0.3292,0 -0.9053,-0.0823 -1.646,-0.16461 -3.0453,-0.74073 -5.1852,-2.13989 -6.5843,-4.27979 -0.4115,-0.57612 -0.5761,-1.06994 -0.5761,-1.39916 v -42.46865 c 0,-1.06995 0,-1.64608 0.082,-1.89299 0.7407,-5.84355 4.1151,-7.65423 11.6048,-8.39496 10.6171,-1.39917 19.8351,-2.05759 27.7363,-2.05759 2.3045,0 4.1152,1.81068 4.1152,4.11518 0,2.3045 -1.8107,4.11518 -4.1152,4.11518 -6.6666,0 -15.6377,0.65842 -26.7487,1.97528 -1.5638,0.16461 -2.6337,0.32922 -3.3744,0.49382 -0.6585,0.0823 -0.9877,0.32922 -0.9877,0.82304 v 4.27979 c 0,5.67894 0,9.87643 -0.082,12.51014 l 29.6293,-4.85591 c 0.082,-0.0823 0.4115,-0.0823 0.823,-0.0823 2.2222,0 3.5391,1.15225 3.9506,3.37445 v 0.82303 c 0,2.3045 -1.1522,3.62136 -3.4567,3.95057 -9.4649,1.56377 -19.8352,3.29215 -31.0285,5.10283 v 15.55538 l 0.5761,0.1646 h 0.9877 l 3.4567,-0.41151 c 2.5514,-0.32922 6.0082,-0.82304 10.3703,-1.48147 z"
             id="path109841" /><path
             d="m -1377.1488,663.83381 c 0,2.05759 -0.7407,4.19749 -2.2222,6.41968 -0.7407,0.98765 -1.3991,1.81068 -2.0576,2.46911 7.1605,0.57613 11.3579,3.86827 12.4279,9.95874 0.1646,0.90534 0.2469,1.72837 0.2469,2.63371 0,14.56774 -23.3742,24.60878 -39.5057,26.66637 -0.5762,0.57612 -1.3169,0.98764 -2.2222,1.06994 -0.082,0.0823 -0.3292,0.0823 -0.7408,0.0823 -2.2222,0 -3.539,-1.15225 -3.8682,-3.53906 -1.3169,-8.06575 -2.0576,-20.98741 -2.2222,-38.68269 v -5.18512 c 0.082,-1.89299 0.3292,-3.37445 0.823,-4.27979 2.6337,-4.93822 12.4279,-7.90115 22.6335,-7.90115 h 1.1523 c 5.5143,0.16461 9.5472,1.31686 12.2632,3.45675 2.0576,1.72838 3.2098,3.78597 3.2921,6.17277 z m -16.9545,-2.05759 c -3.7037,0 -6.9958,0.41152 -10.041,1.31686 -2.0576,0.57613 -3.6214,1.31686 -4.856,2.13989 0,0.41152 0,0.65843 -0.082,0.82304 v 4.77361 l 0.1646,6.9958 2.5515,-1.15225 c 7.2427,-2.96293 12.4278,-5.43203 15.6376,-7.32502 2.3045,-1.39916 3.786,-2.55141 4.4444,-3.53905 0.5762,-0.90534 0.9054,-1.64607 0.9054,-2.13989 l -0.1646,-0.24692 c -1.1523,-0.98764 -3.6214,-1.56376 -7.4074,-1.64607 z m -8.8065,23.04501 -2.4691,1.15225 c -0.9053,0.41152 -1.7284,0.65843 -2.3045,0.74073 -0.082,0.0823 -0.4115,0.0823 -0.823,0.0823 0.4938,8.31266 0.823,13.9093 1.0699,16.78993 6.6666,-1.23455 13.0863,-3.45675 19.0944,-6.50198 4.1975,-2.2222 7.1605,-4.4444 8.9711,-6.58429 1.5638,-1.89298 2.3868,-3.70366 2.3868,-5.43204 0,-0.49382 0,-0.82304 -0.082,-0.98764 -0.4115,-2.05759 -2.4691,-3.12754 -6.3373,-3.29215 h -1.2346 c -3.539,0 -7.2427,0.57613 -11.111,1.81068 z"
             id="path109843" /><path
             d="m -1332.4579,691.98164 c 9.218,4.77361 15.8023,7.98345 19.6706,9.71183 1.0699,0.41151 1.8106,1.23455 2.2221,2.3045 0.1647,0.49382 0.247,0.98764 0.247,1.48146 0,0.65843 -0.082,1.23456 -0.3293,1.64607 -0.4115,1.06995 -1.1522,1.72838 -2.2222,2.1399 -0.4115,0.24691 -0.9876,0.32921 -1.5637,0.32921 -0.6584,0 -1.2346,-0.0823 -1.6461,-0.32921 -3.7037,-1.72838 -10.3702,-5.02052 -20.1644,-9.95874 -6.9958,-3.53905 -12.757,-6.09046 -17.1191,-7.81884 0.082,6.17277 0.5761,11.27559 1.3991,15.47308 0.082,0.0823 0.082,0.41152 0.082,0.82303 0,2.2222 -1.0699,3.53906 -3.2921,3.95058 -0.1646,0.0823 -0.4938,0.0823 -0.9053,0.0823 -2.2222,0 -3.5391,-1.15225 -3.9506,-3.37445 -1.1523,-5.76125 -1.7284,-14.15622 -1.7284,-25.1849 0,-6.33738 0,-9.87643 -0.082,-10.69947 l -0.1646,-2.71601 c -0.2469,-2.46911 -0.3292,-5.26744 -0.3292,-8.39497 0.082,-2.2222 0.4938,-3.78597 1.2345,-4.69131 1.5638,-2.05759 5.3498,-3.37444 11.4402,-3.78596 l 4.4444,-0.16461 c 11.9341,0 20.4113,2.46911 25.4318,7.48963 2.0576,2.05759 3.2922,4.36209 3.7037,6.9958 0.082,0.24691 0.082,0.82304 0.082,1.64608 0,2.3868 -0.5761,4.7736 -1.8107,7.16041 -2.2222,4.5267 -6.4196,7.98345 -12.5924,10.53486 -2.7983,1.06995 -5.5144,1.89298 -8.0658,2.3868 z m -21.6459,-30.12311 c 0,2.55141 0.082,5.10282 0.3293,7.65423 l 0.3292,6.8312 v 5.26743 c 0.5761,0.0823 1.893,0.0823 3.9505,0.0823 12.4279,0 21.6459,-3.78596 24.2796,-9.38261 0.5761,-1.39916 0.9053,-2.4691 0.9053,-3.20984 0,-1.15225 -0.4115,-2.13989 -1.2345,-2.96293 -3.5391,-3.37444 -10.288,-5.10282 -20.1644,-5.10282 -3.3744,0 -6.0905,0.24691 -8.148,0.74073 z"
             id="path109845" /><path
             d="m -1263.9813,700.1297 h 0.4938 c 2.5514,0 3.9506,1.15225 4.1975,3.53905 v 0.57613 c 0,2.3868 -1.1522,3.78596 -3.539,4.11518 l -3.7037,0.49382 -13.9093,2.2222 -10.5349,1.48146 c -1.5637,0.24691 -2.8806,0.41152 -3.8682,0.49382 -0.2469,0.0823 -0.8231,0.0823 -1.5638,0.0823 -0.3292,0 -0.9053,-0.0823 -1.6461,-0.16461 -3.0452,-0.74073 -5.1851,-2.13989 -6.5843,-4.27979 -0.4115,-0.57612 -0.5761,-1.06994 -0.5761,-1.39916 v -42.46865 c 0,-1.06995 0,-1.64608 0.082,-1.89299 0.7407,-5.84355 4.1152,-7.65423 11.6048,-8.39496 10.6172,-1.39917 19.8352,-2.05759 27.7363,-2.05759 2.3045,0 4.1152,1.81068 4.1152,4.11518 0,2.3045 -1.8107,4.11518 -4.1152,4.11518 -6.6666,0 -15.6377,0.65842 -26.7486,1.97528 -1.5638,0.16461 -2.6338,0.32922 -3.3745,0.49382 -0.6584,0.0823 -0.9876,0.32922 -0.9876,0.82304 v 4.27979 c 0,5.67894 0,9.87643 -0.082,12.51014 l 29.6293,-4.85591 c 0.082,-0.0823 0.4115,-0.0823 0.823,-0.0823 2.2222,0 3.5391,1.15225 3.9506,3.37445 v 0.82303 c 0,2.3045 -1.1523,3.62136 -3.4568,3.95057 -9.4649,1.56377 -19.8351,3.29215 -31.0284,5.10283 v 15.55538 l 0.5761,0.1646 h 0.9876 l 3.4568,-0.41151 c 2.5514,-0.32922 6.0081,-0.82304 10.3702,-1.48147 z"
             id="path109847" /><path
             d="m -1256.4916,707.86624 c 0.9054,-11.3579 5.8436,-25.92564 14.8147,-43.78552 2.2222,-4.36209 4.1975,-7.73653 5.7612,-9.95873 1.5638,-2.1399 3.1276,-3.20984 4.7736,-3.20984 0.4116,0 0.7408,0 0.8231,0.0823 1.2345,0.24691 2.0576,0.65843 2.4691,1.39916 l 0.3292,0.32922 c 0.1646,0.24691 0.3292,0.57612 0.4938,0.98764 0.2469,0.41152 0.5761,1.06995 0.9054,1.81068 0.3292,0.57612 0.9053,2.13989 1.8106,4.6913 l 2.7161,7.40733 c 0.7407,1.89298 1.9752,5.67895 3.8682,11.27559 l 4.609,14.48543 3.4568,11.3579 0.1646,1.23455 c 0,2.05759 -0.9877,3.37445 -2.8806,3.95058 l -1.2346,0.1646 c -2.0576,0 -3.3744,-0.98764 -3.9506,-2.88062 l -4.609,-15.06156 c -2.8806,0.65843 -6.3373,1.56377 -10.3702,2.63371 -8.3127,2.38681 -13.004,3.62136 -14.0739,3.86827 -0.9054,3.37445 -1.3992,6.6666 -1.6461,9.87644 -0.2469,2.55141 -1.5638,3.78596 -4.1152,3.78596 -0.1646,0 -0.2469,0 -0.3292,-0.0823 -2.5514,-0.0823 -3.786,-1.48147 -3.786,-4.11518 z m 24.6088,-44.52625 c -1.0699,1.81068 -1.8107,3.29214 -2.3868,4.5267 -4.3621,8.80648 -7.5719,15.9669 -9.4649,21.56354 0.9053,-0.24691 3.9506,-1.06995 8.9711,-2.55141 5.0205,-1.39916 8.3949,-2.2222 10.1233,-2.63372 -1.5637,-4.85591 -3.1275,-9.46491 -4.6913,-13.66239 z"
             id="path109849" /><path
             d="m -1201.4305,684.49202 c 0.082,-7.07811 0.4115,-14.15622 0.8231,-21.23433 -1.5638,-0.49382 -2.4691,-1.56377 -2.7984,-3.12754 -0.082,-0.0823 -0.082,-0.41152 -0.082,-0.90534 0,-2.2222 1.07,-3.53905 3.2922,-3.95057 7.5719,-1.39916 13.6624,-2.1399 18.1891,-2.1399 h 1.893 c 9.9587,0.41152 17.5306,3.37445 22.7158,8.88879 2.9629,3.12754 4.7736,6.66659 5.5143,10.69947 0.1646,1.15225 0.2469,2.38681 0.2469,3.62136 0,2.96293 -0.6584,6.33738 -1.893,10.12334 -5.2674,14.15622 -16.4607,20.08208 -30.0408,22.9627 -2.7983,0.57613 -5.2674,0.90534 -7.4073,0.90534 -3.8683,0 -6.502,-0.98764 -8.0658,-3.04523 -1.5637,-2.05759 -2.3868,-8.64188 -2.3868,-19.67056 z m 9.1357,-21.81046 c -0.4938,5.34974 -0.823,12.67476 -0.9053,21.89276 v 2.96293 c 0,3.70366 0.082,6.9958 0.2469,9.71182 0.082,1.97529 0.2469,3.37445 0.4115,4.27979 0.082,0.0823 0.082,0.16461 0.082,0.32921 l 0.082,0.41152 c 0.1646,0.0823 0.5761,0.0823 1.2346,0.0823 1.4814,-0.0823 3.6213,-0.41152 6.502,-1.06995 13.1685,-3.53906 19.5059,-7.40732 23.3742,-17.61297 0.9876,-2.55141 1.4814,-4.93822 1.4814,-7.16041 0,-10.78177 -10.3702,-14.73235 -20.6582,-15.14387 -0.2469,-0.0823 -0.9876,-0.0823 -2.0575,-0.0823 -2.6338,0 -5.9259,0.32922 -9.7942,0.90534 z"
             id="path109851" /><path
             d="m -1098.8801,661.3647 c -1.5638,0.0823 -3.2099,0.24692 -5.0206,0.65843 -18.5183,3.86827 -32.3453,16.29612 -32.9214,28.88857 v 0.49382 c 0,5.67895 3.786,9.38261 11.2756,11.11098 1.893,0.41152 4.4444,0.65843 7.7365,0.65843 1.07,0 1.8107,0 2.0576,-0.0823 6.6666,-0.65843 12.4279,-2.63372 17.3661,-5.92586 0.7407,-0.41152 1.5638,-0.65843 2.3045,-0.65843 0.4115,0 0.7407,0 0.823,0.0823 2.2222,0.41152 3.2922,1.72838 3.2922,4.03288 0,0.41152 0,0.74073 -0.082,0.82304 -0.2469,1.06994 -0.8231,1.97528 -1.7284,2.63371 -6.1728,4.03288 -13.1686,6.41968 -21.152,7.24272 -0.3292,0.0823 -1.2346,0.0823 -2.7161,0.0823 -1.7283,0 -2.8806,0 -3.4567,-0.0823 -2.6337,-0.16461 -4.6913,-0.41152 -6.2551,-0.74073 -11.7694,-2.79833 -17.6953,-9.21801 -17.6953,-19.25905 v -0.74073 c 0.6585,-16.78993 17.2015,-32.0984 39.5881,-36.6251 2.5514,-0.57612 4.7736,-0.82304 6.7489,-0.90534 h 0.3292 c 2.7983,0 4.9382,0.65843 6.3374,1.89298 0.9053,0.74074 1.3991,1.72838 1.5637,2.96293 0.082,0.24691 0.082,0.74074 0.082,1.64608 l -0.3292,3.12753 c -0.082,0.16461 -0.4115,1.97529 -0.9876,5.51434 -0.3292,2.3045 -1.6461,3.45675 -3.9506,3.45675 -0.4115,0 -0.6584,0 -0.7407,-0.0823 -2.3045,-0.32921 -3.4568,-1.64607 -3.4568,-3.86827 0,-0.41152 0,-0.74073 0.082,-0.82303 z"
             id="path109853" /><path
             d="m -1051.967,691.98164 c 9.218,4.77361 15.8023,7.98345 19.6706,9.71183 1.0699,0.41151 1.8106,1.23455 2.2222,2.3045 0.1646,0.49382 0.2469,0.98764 0.2469,1.48146 0,0.65843 -0.082,1.23456 -0.3292,1.64607 -0.4116,1.06995 -1.1523,1.72838 -2.2222,2.1399 -0.4116,0.24691 -0.9877,0.32921 -1.5638,0.32921 -0.6584,0 -1.2346,-0.0823 -1.6461,-0.32921 -3.7036,-1.72838 -10.3702,-5.02052 -20.1644,-9.95874 -6.9958,-3.53905 -12.757,-6.09046 -17.1191,-7.81884 0.082,6.17277 0.5761,11.27559 1.3991,15.47308 0.082,0.0823 0.082,0.41152 0.082,0.82303 0,2.2222 -1.0699,3.53906 -3.2921,3.95058 -0.1646,0.0823 -0.4938,0.0823 -0.9053,0.0823 -2.2222,0 -3.5391,-1.15225 -3.9506,-3.37445 -1.1523,-5.76125 -1.7284,-14.15622 -1.7284,-25.1849 0,-6.33738 0,-9.87643 -0.082,-10.69947 l -0.1646,-2.71601 c -0.2469,-2.46911 -0.3292,-5.26744 -0.3292,-8.39497 0.082,-2.2222 0.4938,-3.78597 1.2345,-4.69131 1.5638,-2.05759 5.3498,-3.37444 11.4402,-3.78596 l 4.4444,-0.16461 c 11.9341,0 20.4113,2.46911 25.4319,7.48963 2.0575,2.05759 3.2921,4.36209 3.7036,6.9958 0.082,0.24691 0.082,0.82304 0.082,1.64608 0,2.3868 -0.5761,4.7736 -1.8107,7.16041 -2.2222,4.5267 -6.4196,7.98345 -12.5924,10.53486 -2.7983,1.06995 -5.5144,1.89298 -8.0658,2.3868 z m -21.6458,-30.12311 c 0,2.55141 0.082,5.10282 0.3292,7.65423 l 0.3292,6.8312 v 5.26743 c 0.5761,0.0823 1.893,0.0823 3.9506,0.0823 12.4278,0 21.6458,-3.78596 24.2795,-9.38261 0.5761,-1.39916 0.9054,-2.4691 0.9054,-3.20984 0,-1.15225 -0.4116,-2.13989 -1.2346,-2.96293 -3.5391,-3.37444 -10.2879,-5.10282 -20.1644,-5.10282 -3.3744,0 -6.0904,0.24691 -8.148,0.74073 z"
             id="path109855" /><path
             d="m -980.93897,654.86272 c -0.16461,3.20984 -0.24691,7.07811 -0.24691,11.60481 0.0823,1.06994 0.0823,3.20984 0.0823,6.50198 0,2.71602 0,4.4444 -0.0823,5.02052 -0.16461,3.45675 -0.24691,7.16041 -0.24691,11.19329 v 3.04523 c 0.0823,5.34974 0.32921,9.87643 0.90534,13.7447 v 0.49383 c 0,2.4691 -1.15225,3.86826 -3.53906,4.19748 h -0.65843 c -1.48146,0 -2.63371,-0.65843 -3.45675,-1.97529 -5.34973,1.15225 -8.80648,1.81068 -10.45256,2.05759 -2.13985,0.32922 -4.19745,0.49382 -6.09045,0.49382 -4.0329,0 -7.1604,-0.57612 -9.3826,-1.81068 -5.7613,-2.96292 -9.1357,-11.68711 -10.1234,-26.09024 -0.082,-2.55141 -0.1646,-4.44439 -0.1646,-5.67894 v -2.55141 c 0.082,-4.93822 0.2469,-9.87644 0.4939,-14.73235 0.1646,-2.88062 0.2469,-4.609 0.2469,-5.10282 0.082,-2.3045 1.9752,-3.95057 4.0328,-3.95057 h 0.2469 c 2.3045,0.0823 3.9506,1.97528 3.9506,4.03287 v 0.24691 c -0.2469,4.03288 -0.4938,7.90115 -0.5761,11.60481 v 0.24691 l -0.1646,7.32502 v 2.46911 c 0,1.06995 0.082,2.96293 0.1646,5.59664 0.3292,5.51434 1.0699,10.12335 2.1399,13.6624 1.7284,5.59664 3.6213,6.41968 9.218,6.41968 1.893,0 3.4567,-0.0823 4.8559,-0.32921 2.71602,-0.41152 6.25508,-1.06995 10.45256,-2.05759 -0.16461,-2.55141 -0.24691,-6.00817 -0.24691,-10.28795 l 0.16461,-12.42785 c 0.0823,-0.49382 0.0823,-1.31685 0.0823,-2.3868 0,-1.06995 0,-2.46911 -0.0823,-4.19748 v -7.32502 c 0,-4.4444 0.0823,-7.57193 0.24691,-9.38261 0.0823,-2.2222 2.05759,-3.95058 4.11518,-3.95058 h 0.24691 c 2.2222,0.0823 3.86827,1.97529 3.86827,4.03288 z"
             id="path109857" /><path
             d="m -962.99681,675.93244 c -1.56377,7.48963 -3.62136,17.77758 -6.17277,30.69924 -0.41152,2.2222 -1.72837,3.37445 -3.95057,3.37445 -0.41152,0 -0.74073,0 -0.82304,-0.0823 -2.22219,-0.41152 -3.37445,-1.72838 -3.37445,-3.95058 0,-0.41151 0,-0.74073 0.0823,-0.82303 3.04523,-15.55538 5.10282,-25.84333 6.17277,-30.86385 l 2.63371,-10.20565 c 0.49382,-1.72837 0.98765,-3.78596 1.48147,-6.00816 l 0.41152,-1.89298 c 0,-0.24691 0.0823,-0.57613 0.32921,-1.06995 l 0.32921,-0.65843 c 0.16461,-0.24691 0.41152,-0.57612 0.82304,-0.98764 0.74073,-0.74073 1.56377,-1.06995 2.63372,-1.06995 0.65842,0 1.23455,0.0823 1.64607,0.32922 1.06994,0.41151 1.89298,1.23455 2.46911,2.3868 l 0.65842,1.56377 4.19749,16.0492 1.97528,6.58429 2.63372,7.73654 2.2222,6.8312 0.65842,1.64607 9.87644,-31.27537 3.29214,-9.87643 c 0,-0.24691 0.0823,-0.32922 0.16461,-0.32922 0.0823,-0.32921 0.32921,-0.65842 0.57612,-0.90534 0.57613,-0.74073 1.39916,-1.23455 2.3045,-1.39916 0.16461,-0.0823 0.49383,-0.0823 0.98765,-0.0823 2.22219,0 3.95057,1.31686 5.26743,4.03288 1.06994,2.05759 2.3868,6.41968 3.95057,12.92166 l 4.609,19.42365 c 1.56377,6.8312 3.29214,13.08627 5.02052,18.92983 l 0.16461,1.15225 c 0,2.05759 -0.98765,3.37444 -2.88063,3.95057 l -1.23455,0.16461 c -2.05759,0 -3.37445,-0.98765 -3.95058,-2.96293 -0.90533,-2.71602 -1.81067,-5.92586 -2.71601,-9.79413 l -2.3045,-9.218 -5.51435,-23.04501 -10.37025,32.67453 c -0.0823,0.0823 -0.16461,0.32921 -0.24691,0.74073 l -0.49382,1.81068 c -1.31686,4.36209 -2.3045,8.47727 -5.59665,9.05339 -0.0823,0.0823 -0.41151,0.0823 -0.82303,0.0823 -0.82304,0 -1.56377,-0.24691 -2.3045,-0.82304 l -0.74073,-0.74073 -0.57613,-0.90534 -2.3868,-5.84355 -2.46911,-6.7489 c -3.70366,-10.86407 -6.25508,-18.92983 -7.81884,-24.27956 z"
             id="path109859" /><path
             d="m -864.97323,663.83381 c 0,2.05759 -0.74073,4.19749 -2.2222,6.41968 -0.74073,0.98765 -1.39916,1.81068 -2.05759,2.46911 7.16042,0.57613 11.3579,3.86827 12.42785,9.95874 0.1646,0.90534 0.24691,1.72837 0.24691,2.63371 0,14.56774 -23.37422,24.60878 -39.50573,26.66637 -0.57612,0.57612 -1.31686,0.98764 -2.2222,1.06994 -0.0823,0.0823 -0.32921,0.0823 -0.74073,0.0823 -2.22219,0 -3.53905,-1.15225 -3.86827,-3.53906 -1.31685,-8.06575 -2.05759,-20.98741 -2.22219,-38.68269 v -5.18512 c 0.0823,-1.89299 0.32921,-3.37445 0.82303,-4.27979 2.63372,-4.93822 12.42785,-7.90115 22.63349,-7.90115 h 1.15225 c 5.51434,0.16461 9.54722,1.31686 12.26324,3.45675 2.05759,1.72838 3.20984,3.78597 3.29214,6.17277 z m -16.95454,-2.05759 c -3.70366,0 -6.99581,0.41152 -10.04104,1.31686 -2.05759,0.57613 -3.62136,1.31686 -4.85591,2.13989 0,0.41152 0,0.65843 -0.0823,0.82304 v 4.77361 l 0.1646,6.9958 2.55141,-1.15225 c 7.24272,-2.96293 12.42785,-5.43203 15.63769,-7.32502 2.3045,-1.39916 3.78596,-2.55141 4.44439,-3.53905 0.57613,-0.90534 0.90534,-1.64607 0.90534,-2.13989 l -0.16461,-0.24692 c -1.15225,-0.98764 -3.62135,-1.56376 -7.40732,-1.64607 z m -8.80648,23.04501 -2.46911,1.15225 c -0.90534,0.41152 -1.72838,0.65843 -2.3045,0.74073 -0.0823,0.0823 -0.41152,0.0823 -0.82304,0.0823 0.49382,8.31266 0.82304,13.9093 1.06995,16.78993 6.66659,-1.23455 13.08627,-3.45675 19.09443,-6.50198 4.19749,-2.2222 7.16042,-4.4444 8.97109,-6.58429 1.56377,-1.89298 2.38681,-3.70366 2.38681,-5.43204 0,-0.49382 0,-0.82304 -0.0823,-0.98764 -0.41152,-2.05759 -2.46911,-3.12754 -6.33738,-3.29215 h -1.23456 c -3.53905,0 -7.24271,0.57613 -11.11098,1.81068 z"
             id="path109861" /><path
             d="m -804.80929,670.66501 c -0.57613,1.97529 -1.89299,2.96293 -3.95058,2.96293 -0.1646,0 -0.49382,-0.0823 -1.06994,-0.16461 -2.05759,-0.57612 -3.04524,-1.89298 -3.04524,-3.95057 l 0.16461,-1.15225 c 0.0823,-0.0823 0.65843,-1.56377 1.72838,-4.36209 l 0.1646,-0.41152 -1.48146,-0.49382 c -2.88063,-0.74073 -5.67895,-1.15225 -8.39497,-1.15225 h -0.82303 c -7.16042,0.24691 -12.34554,2.71602 -15.39078,7.32502 -0.0823,0.41152 -0.1646,0.90534 -0.1646,1.48146 v 0.90534 c 0.0823,1.81068 0.98764,3.29215 2.79832,4.36209 1.72837,1.06995 4.85591,2.05759 9.3003,2.96293 14.81465,3.20984 18.2714,4.36209 21.81046,9.87644 1.48146,2.22219 2.22219,4.44439 2.22219,6.66659 0,0.74073 -0.1646,1.56377 -0.41151,2.46911 -2.2222,6.9958 -7.48963,11.19328 -15.8846,12.59245 -3.04523,0.49382 -6.25507,0.74073 -9.62952,0.74073 -1.48146,0 -2.3868,0 -2.79832,-0.0823 -11.93402,-0.49382 -18.84752,-3.45675 -20.90511,-8.88878 -0.57613,-1.39917 -0.82304,-3.12754 -0.90534,-5.34974 l -0.16461,-4.36209 c 0,-2.55141 1.23455,-3.86827 3.70366,-4.11518 h 0.41152 c 2.55141,0 3.86827,1.23456 4.11518,3.70366 0,7.57193 0,7.90115 4.19748,9.21801 2.46911,0.90534 5.76125,1.39916 9.95874,1.56376 0.41152,0.0823 1.23455,0.0823 2.63371,0.0823 7.16042,0 11.68711,-0.82304 13.41549,-2.38681 2.2222,-1.97528 3.53905,-3.70366 4.03287,-5.26743 l -0.1646,-0.74073 -0.65843,-1.23455 c -0.90534,-1.48147 -2.3045,-2.55141 -4.27979,-3.29215 -2.05759,-0.74073 -6.17277,-1.72837 -12.42784,-3.12753 -12.75706,-2.71602 -18.2714,-6.50199 -18.60061,-15.06156 v -0.82304 c 0,-10.12334 11.6048,-17.36606 25.43181,-17.36606 h 1.39916 c 3.04523,0.0823 6.00816,0.65843 8.80648,1.56377 0.74074,0 1.64608,0.24691 2.79833,0.82304 2.3868,0.90534 3.86826,2.46911 4.36209,4.5267 l 0.1646,1.72837 c 0,1.48147 -0.32921,3.04523 -0.98764,4.69131 z"
             id="path109863" /></g></g></g></g></svg>
