<?xml version="1.0" encoding="UTF-8" standalone="no"?>
<!-- Created with Inkscape (http://www.inkscape.org/) -->

<svg
   version="1.1"
   id="svg176"
   width="777.21936"
   height="709.62897"
   viewBox="0 0 777.21938 709.62897"
   xml:space="preserve"
   xmlns="http://www.w3.org/2000/svg"
   xmlns:svg="http://www.w3.org/2000/svg"><defs
     id="defs180"><linearGradient
       id="linearGradient1486"><stop
         style="stop-color:#000000;stop-opacity:1;"
         offset="0"
         id="stop1484" /></linearGradient></defs><g
     id="g182"
     transform="translate(-13728.419,-1909.2151)"><g
       id="birds3"
       transform="matrix(0.32138406,0,0,0.32138406,7982.7652,1145.5575)"><path
         style="fill:#000000;stroke-width:1.33333"
         d="m 19139.752,3691.6543 c -2.6,-0.3667 -5.6,-1.3948 -6.668,-2.2847 -10.064,-8.3874 -12.897,-11.5344 -12.332,-13.6968 0.343,-1.3113 -0.03,-2.7874 -0.827,-3.2801 -0.796,-0.4927 -1.449,-2.2604 -1.449,-3.9282 0,-1.6679 -0.412,-3.4437 -0.914,-3.9462 -1.54,-1.5409 -4.316,-10.62 -3.6,-11.7783 1.284,-2.077 -3.638,-24.2362 -5.722,-25.7596 -1.827,-1.3372 -1.745,-2.1812 0.757,-7.6745 3.341,-7.3342 3.464,-8.8185 0.812,-9.8361 -3.325,-1.276 -2.251,-4.6192 2,-6.2237 3.209,-1.2112 4.011,-2.3091 4.056,-5.5508 0.04,-3.1376 1.108,-4.7118 4.76,-7.041 7.582,-4.8368 10.478,-4.0816 13.969,3.6424 3.361,7.4366 10.58,13.3576 16.287,13.3576 1.978,0 3.595,0.518 3.595,1.1511 0,1.4383 12.088,3.9375 25.624,5.2978 8.296,0.8336 12.304,0.5301 20.667,-1.5653 5.706,-1.4298 10.495,-2.6828 10.641,-2.7846 0.145,-0.1017 -0.388,-2.7565 -1.186,-5.8993 -0.88,-3.4687 -2.708,-6.5388 -4.652,-7.8125 -3.987,-2.6124 -5.828,-5.9702 -6.575,-11.996 -0.319,-2.5746 -1.223,-5.8821 -2.009,-7.35 -0.786,-1.4679 -1.659,-8.0743 -1.941,-14.6809 -0.281,-6.6066 -1.073,-13.8904 -1.758,-16.1862 -2.201,-7.3694 -4.277,-15.9897 -5.578,-23.1636 -1.518,-8.3746 -5.183,-15.2539 -11.726,-22.0091 -3.531,-3.646 -4.721,-5.9313 -4.397,-8.4454 0.431,-3.3545 -1.764,-6.4467 -10.107,-14.2339 -2.991,-2.792 -2.992,-2.8015 -0.333,-5.2782 1.465,-1.3646 2.663,-3.0578 2.663,-3.7625 0,-0.7048 0.827,-1.2814 1.837,-1.2814 1.01,0 2.554,-0.8644 3.431,-1.9208 0.876,-1.0564 2.45,-1.5922 3.496,-1.1907 3.458,1.3268 1.977,-2.6324 -2.329,-6.2269 -2.641,-2.2048 -3.94,-4.2922 -3.455,-5.5537 1.217,-3.1732 10.108,-6.8291 14.16,-5.8226 1.939,0.482 5.192,1.2102 7.227,1.6184 2.036,0.4082 4.436,1.7767 5.334,3.041 2.479,3.4906 6.378,5.0848 12.609,5.1562 3.104,0.036 7.304,0.9712 9.333,2.0792 2.03,1.108 5.04,2.6309 6.69,3.3842 3.028,1.3823 4.133,4.1023 1.667,4.1023 -2.386,0 -1.404,2.6653 1,2.714 2.466,0.05 8.173,2.8224 8.137,3.9527 -0.12,3.7346 2.733,8.441 7.566,12.4811 4.112,3.4371 6.109,6.2707 6.722,9.5377 0.479,2.5563 1.61,4.6479 2.511,4.6479 2.292,0 9.14,13.0105 8.174,15.5282 -0.452,1.1789 0.593,3.7146 2.434,5.902 1.774,2.1093 4.854,7.162 6.844,11.2282 1.989,4.0663 4.084,7.6822 4.656,8.0354 0.571,0.3532 0.725,1.8416 0.342,3.3075 -0.383,1.4659 -0.128,2.6653 0.567,2.6653 1.8,0 9.714,12.5672 9.714,15.425 0,4.1048 2.887,12.1079 10.04,27.829 1.982,4.3564 3.716,8.689 3.854,9.6281 0.451,3.0739 1.747,3.3034 6.781,1.2003 5.715,-2.3878 12.994,-9.3703 19.048,-18.2735 8.035,-11.8166 17.515,-12.0373 39.985,-0.931 8.573,4.2371 13.626,9.0779 13.626,13.0525 0,1.2306 1.804,3.9654 4.007,6.0775 2.803,2.685 3.763,4.615 3.192,6.4164 -0.541,1.7037 -0.316,2.2654 0.667,1.6582 0.817,-0.505 1.846,0.02 2.285,1.1664 0.441,1.1464 2.215,2.0845 3.944,2.0845 3.36,0 6.645,4.3883 5.126,6.8466 -0.529,0.8581 -3.023,1.1733 -6.061,0.766 -5.323,-0.714 -7.131,0.9158 -2.607,2.3513 2.026,0.6432 2.474,1.8597 2.173,5.898 -0.478,6.4229 -1.74,8.4268 -6.672,10.5981 -3.389,1.4921 -4.162,1.4412 -5.48,-0.3614 -0.844,-1.1543 -3.12,-2.0986 -5.054,-2.0986 -3.218,0 -3.52,0.458 -3.52,5.3333 0,5.6131 -1.907,7.1646 -3.321,2.7041 -0.71,-2.2345 -1.225,-2.3866 -3.425,-1.0126 -1.423,0.8891 -2.588,2.2429 -2.588,3.0084 0,0.7655 -1.8,2.4551 -4,3.7547 -2.504,1.4797 -4.003,3.4559 -4.006,5.2875 0,3.3566 -8.236,12.9246 -11.117,12.9246 -1.058,0 -2.233,0.8028 -2.61,1.784 -0.894,2.3309 -18.379,5.2482 -22.445,3.7446 -2.349,-0.8694 -3.56,-0.5005 -5.265,1.6047 -2.143,2.6457 -2.291,2.6555 -4.646,0.3019 -2.354,-2.3536 -2.532,-2.3156 -5.539,1.1804 -2.543,2.9576 -4.853,3.858 -12.739,4.9672 -5.299,0.7452 -13.818,1.0644 -18.934,0.7092 -7.002,-0.4861 -9.639,-0.1856 -10.667,1.2157 -2.752,3.7511 -39.838,1.5649 -44.458,-2.6207 -1.486,-1.3455 -5.297,-2.7765 -8.471,-3.1801 -3.173,-0.4036 -6.37,-1.1834 -7.103,-1.733 -0.734,-0.5497 -3.15,-1.3871 -5.372,-1.861 -3.056,-0.6523 -4.76,-0.1872 -7.017,1.914 -1.637,1.5267 -3.547,2.4242 -4.242,1.9945 -0.696,-0.4298 -6.171,0.4396 -12.167,1.932 -5.995,1.4923 -13.183,2.7132 -15.973,2.7132 -4.781,0 -5.134,0.2876 -6.15,5 -1.04,4.816 -1.253,4.9755 -5.803,4.3334 z m 181.39,-34 c 0,-1.1 -0.6,-2 -1.333,-2 -0.733,0 -1.333,0.9 -1.333,2 0,1.1 0.6,2 1.333,2 0.733,0 1.333,-0.9 1.333,-2 z m -73.333,-9.4907 c 0,-1.1 -0.6,-1.6292 -1.333,-1.176 -0.734,0.4532 -1.334,1.724 -1.334,2.824 0,1.1 0.6,1.6292 1.334,1.176 0.733,-0.4532 1.333,-1.724 1.333,-2.824 z m -109.6,-20.4197 c -1.65,-3.0917 -3.235,-4.9175 -3.522,-4.0573 -0.87,2.6112 4.589,11.6116 6.117,10.0839 0.223,-0.223 -0.945,-2.935 -2.595,-6.0266 z m 229.6,3.9104 c 0,-0.7334 -0.635,-1.3334 -1.412,-1.3334 -0.777,0 -1.041,0.6 -0.588,1.3334 0.453,0.7333 1.089,1.3333 1.412,1.3333 0.323,0 0.588,-0.6 0.588,-1.3333 z m -147.837,-16.9 c -1.162,-1.9984 -1.422,-2.056 -1.456,-0.3223 -0.04,2.2455 1.359,4.2672 2.304,3.3223 0.312,-0.3117 -0.07,-1.6617 -0.848,-3 z m 130.504,-0.3915 c 0,-0.7103 -0.899,-0.9461 -2,-0.524 -1.099,0.4221 -2,1.0032 -2,1.2915 0,0.2882 0.901,0.524 2,0.524 1.101,0 2,-0.5812 2,-1.2915 z m -120.423,-2.9585 c -0.424,-1.0637 -0.741,-0.7477 -0.805,0.8055 -0.06,1.4056 0.257,2.1931 0.701,1.75 0.442,-0.443 0.489,-1.593 0.104,-2.5555 z m -5.244,-1.4167 c -0.306,-0.9167 -1.356,-1.6667 -2.333,-1.6667 -0.978,0 -2.028,0.75 -2.334,1.6667 -0.33,0.9915 0.615,1.6667 2.334,1.6667 1.718,0 2.663,-0.6752 2.333,-1.6667 z m 133.667,0.2653 c 0,-1.7519 -9.035,-5.6287 -11.124,-4.7736 -0.849,0.3471 -0.493,0.6785 0.79,0.7364 1.284,0.058 2.334,0.7694 2.334,1.5812 0,0.8118 0.851,1.1497 1.889,0.7509 1.04,-0.3988 2.221,0.137 2.625,1.1907 0.848,2.2097 3.486,2.599 3.486,0.5144 z m -18,-5.2653 c 0.453,-0.7333 0.224,-1.3333 -0.51,-1.3333 -0.733,0 -1.704,0.6 -2.157,1.3333 -0.453,0.7333 -0.224,1.3333 0.509,1.3333 0.734,0 1.704,-0.6 2.158,-1.3333 z m -119.171,-3.5667 c -1.162,-1.9983 -1.422,-2.0559 -1.455,-0.3222 -0.04,2.2454 1.358,4.2672 2.303,3.3222 0.312,-0.3116 -0.07,-1.6616 -0.848,-3 z m 145.726,0.4242 c -0.462,-1.205 -1.398,-2.1908 -2.078,-2.1908 -0.681,0 -0.569,1.2504 0.25,2.7808 1.698,3.1724 3.098,2.7204 1.828,-0.59 z m -160.555,-17.6815 c 0,-1.1 -0.6,-1.6292 -1.334,-1.176 -0.733,0.4532 -1.333,1.724 -1.333,2.824 0,1.1 0.6,1.6292 1.333,1.176 0.734,-0.4532 1.334,-1.724 1.334,-2.824 z m 52.244,-11.4649 c -0.957,-0.9567 -1.578,-1.0355 -1.578,-0.2 0,1.7797 1.577,3.3565 2.468,2.4667 0.379,-0.3789 -0.02,-1.3989 -0.89,-2.2667 z m -1.578,-8.2991 c 0,-0.3234 -0.6,-0.9588 -1.333,-1.412 -0.733,-0.4532 -1.333,-0.1886 -1.333,0.588 0,0.7766 0.6,1.412 1.333,1.412 0.733,0 1.333,-0.2646 1.333,-0.588 z m -3.237,-11.0941 c -0.444,-0.4438 -1.541,-0.072 -2.439,0.8265 -1.29,1.2889 -1.214,1.8954 0.354,2.876 1.417,0.8853 2.119,0.6476 2.44,-0.8265 0.248,-1.1381 0.09,-2.4323 -0.355,-2.876 z m 12.002,1.317 c -2.303,-2.2003 -2.339,-2.1645 -0.811,0.8126 0.878,1.7128 1.962,2.7486 2.409,2.3016 0.447,-0.4469 -0.271,-1.8483 -1.598,-3.1142 z m -62.765,1.0318 c 0.455,-0.7334 0.225,-1.3334 -0.508,-1.3334 -0.733,0 -1.704,0.6 -2.157,1.3334 -0.454,0.7333 -0.224,1.3333 0.509,1.3333 0.733,0 1.704,-0.6 2.156,-1.3333 z m 19.41,-9.1902 c -1.58,-2.9542 -4.861,-4.0194 -3.522,-1.1432 0.428,0.9167 1.158,2.7564 1.623,4.0882 0.54,1.5448 1.309,1.9586 2.125,1.1431 0.816,-0.8155 0.734,-2.2955 -0.226,-4.0881 z m 29.258,1.3457 c 0,-0.6478 -1.2,-1.4917 -2.668,-1.8752 -2.888,-0.7555 -3.728,1.0685 -1,2.17 2.628,1.0599 3.668,0.9763 3.668,-0.2948 z m -16,-18.1555 c 0,-1.1 -0.601,-2 -1.334,-2 -0.734,0 -1.334,0.9 -1.334,2 0,1.1 0.6,2 1.334,2 0.733,0 1.334,-0.9 1.334,-2 z m -24,-11.9213 c 0,-0.3234 -0.601,-0.9588 -1.334,-1.4121 -0.734,-0.4532 -1.334,-0.1886 -1.334,0.588 0,0.7766 0.6,1.412 1.334,1.412 0.733,0 1.334,-0.2646 1.334,-0.5879 z m 20,-5.9155 c 0,-0.6435 -0.901,-1.917 -2,-2.8299 -1.622,-1.3461 -2,-1.293 -2,0.2812 0,1.0676 0.399,2.341 0.889,2.8299 1.265,1.2663 3.111,1.0995 3.111,-0.2812 z m -13.814,-22.5482 c -3.089,-3.0884 -4.409,-0.8071 -1.434,2.4791 1.59,1.7573 2.704,2.2019 3.035,1.2105 0.288,-0.8616 -0.433,-2.5219 -1.601,-3.6896 z"
         id="path9630-2-6" /><path
         style="fill:#000000;stroke-width:1.33333"
         d="m 19488.908,4584.0312 c -2.2,-0.2933 -8.799,-1.4112 -14.667,-2.4842 -5.866,-1.0729 -12.808,-2.2745 -15.429,-2.6703 -2.619,-0.3957 -6.786,-2.2123 -9.259,-4.037 -3.537,-2.6094 -6.099,-3.3174 -12.005,-3.3174 -8.258,0 -34.319,-3.3621 -40.64,-5.2431 -2.2,-0.6547 -9.7,-1.5643 -16.666,-2.0214 -7.34,-0.4816 -13.228,-1.5118 -14,-2.45 -0.733,-0.8904 -3.392,-1.7859 -5.909,-1.9902 -2.516,-0.2042 -5.418,-1.0707 -6.449,-1.9257 -1.031,-0.8549 -4.371,-1.8878 -7.425,-2.2953 -4.788,-0.6391 -5.738,-1.3215 -6.915,-4.963 -1.099,-3.3976 -1.798,-3.9801 -3.578,-2.9835 -2.344,1.3117 -4.486,-0.4838 -3.151,-2.642 0.401,-0.6495 -0.718,-1.4577 -2.488,-1.796 -4.637,-0.8864 -9.894,6.174 -7.478,10.0427 1.445,2.3146 1.362,2.5406 -0.655,1.7666 -1.71,-0.6561 -4.207,1.2057 -9.578,7.14 -3.995,4.4152 -8.114,8.0275 -9.152,8.0275 -1.039,0 -1.888,0.5089 -1.888,1.1309 0,0.6219 -2.55,2.1825 -5.667,3.4679 -3.117,1.2854 -7.767,3.2431 -10.333,4.3505 -2.567,1.1073 -8.068,2.3257 -12.226,2.7074 -8.663,0.7955 -14.218,-1.7604 -19.576,-9.0063 -2.903,-3.9268 -2.957,-4.3387 -0.874,-6.6408 1.667,-1.8413 1.884,-3.0843 0.872,-4.9763 -0.742,-1.387 -1.163,-5.2861 -0.936,-8.6646 0.351,-5.1962 0,-6.2493 -2.23,-6.8343 -3.103,-0.8115 -2.428,-4.2872 0.78,-4.0158 2.879,0.2434 2.883,-4.5426 0,-7.7219 -1.877,-2.0743 -1.924,-2.7266 -0.333,-4.6432 1.018,-1.2264 1.662,-3.3417 1.432,-4.7007 -0.23,-1.359 0.425,-2.7949 1.457,-3.1909 1.936,-0.7428 2.202,-8.176 0.398,-11.0957 -0.518,-0.8379 -0.579,-2.6675 -0.135,-4.0659 0.444,-1.3984 0.183,-2.9284 -0.581,-3.4001 -2.09,-1.2922 -1.664,-4.7002 0.588,-4.7002 1.573,0 1.807,-1.2197 1.152,-6 -0.694,-5.0633 -0.472,-6 1.425,-6 1.236,0 3.978,-0.8953 6.095,-1.9896 3.5,-1.8101 4.396,-1.7542 9.933,0.6193 3.451,1.4793 6.086,3.4954 6.086,4.6563 0,1.4387 1.345,2.0474 4.524,2.0474 2.488,0 4.825,0.7814 5.19,1.7365 0.391,1.0177 5.28,2.4587 11.81,3.4811 6.129,0.9595 12.643,2.4281 14.476,3.2635 1.834,0.8354 5.288,1.3305 7.677,1.1003 3.871,-0.373 4.124,-0.6374 2.334,-2.4286 -2.901,-2.9 -2.478,-5.4865 1.215,-7.4436 2.565,-1.3598 11.894,-16.2156 13.004,-20.7134 1.398,-5.6536 4.675,-11.1745 6.983,-11.7661 1.69,-0.4328 4.039,-3.3413 5.966,-7.3825 1.748,-3.6676 4.599,-8.7603 6.334,-11.317 1.735,-2.5568 3.154,-5.5682 3.154,-6.6922 0,-1.1239 2.763,-7.8472 6.139,-14.9408 3.376,-7.0935 6.746,-14.19 7.49,-15.7701 0.744,-1.5801 0.947,-3.5301 0.45,-4.3333 -0.496,-0.8033 -0.03,-1.4605 1.034,-1.4605 2.308,0 3.554,-2.8166 3.554,-8.0304 0,-2.0967 0.527,-4.1374 1.17,-4.5349 1.249,-0.7721 4.278,-11.2464 4.85,-16.768 0.189,-1.8334 1.312,-5.9588 2.496,-9.1677 1.183,-3.2088 2.16,-8.0088 2.171,-10.6666 0.01,-2.6578 0.536,-5.6456 1.165,-6.6394 0.658,-1.0392 0.542,-3.7747 -0.275,-6.4375 -1.05,-3.4199 -1.006,-5.2957 0.167,-7.1749 0.874,-1.3994 1.589,-3.6604 1.589,-5.0243 0,-4.4671 4.043,-10.8896 6.854,-10.8896 2.092,0 2.471,-0.5954 1.774,-2.7918 -0.631,-1.9826 0.1,-3.8183 2.505,-6.3334 1.865,-1.9478 4.381,-5.9415 5.59,-8.8748 3.24,-7.8598 6.972,-11.3334 12.176,-11.3334 2.683,0 5.506,-1.0724 7.149,-2.7153 1.494,-1.4934 3.276,-2.3689 3.961,-1.9455 1.517,0.9374 8.2,-2.3786 10.584,-5.2512 3.853,-4.6418 13.94,-1.1226 16.194,5.6495 0.807,2.4223 1.095,5.8846 0.64,7.694 -0.454,1.8095 -0.149,4.5539 0.678,6.0988 1.098,2.0524 1.105,3.055 0.03,3.7228 -1.447,0.8941 -2.697,19.1606 -3.381,49.4136 -0.291,12.8437 -0.655,14.6057 -4.413,21.3333 -2.253,4.0334 -4.825,10.0334 -5.716,13.3334 -0.891,3.3 -2.869,9.1826 -4.395,13.0725 -2.261,5.7604 -2.478,7.5505 -1.167,9.6486 2.24,3.587 2.073,3.9455 -1.831,3.9455 -3.103,0 -3.356,0.379 -2.589,3.8731 0.502,2.2838 0.25,4.2448 -0.615,4.7789 -0.806,0.4982 -1.117,2.0043 -0.69,3.3469 0.481,1.5177 -0.154,3.1144 -1.68,4.2211 -1.746,1.2664 -2.378,3.2424 -2.188,6.8475 0.147,2.7872 -0.673,7.4608 -1.822,10.386 -1.911,4.8636 -1.894,6.4319 0.19,18.3425 1.254,7.1632 1.911,13.9854 1.46,15.1603 -0.55,1.4343 0.107,2.4301 1.999,3.0308 2.115,0.6713 2.602,1.5802 1.948,3.6406 -0.656,2.0655 0.286,3.8068 3.8,7.0265 4.453,4.0788 4.832,4.184 8.048,2.2325 4.274,-2.5929 6.453,-1.0197 10.99,7.9352 1.762,3.4775 3.865,6.7313 4.673,7.2307 0.808,0.4993 2.598,3.5418 3.978,6.761 1.552,3.6198 3.418,5.9118 4.89,6.0069 1.309,0.084 2.981,0.2373 3.714,0.3392 0.733,0.102 3.353,2.1391 5.823,4.5269 4.032,3.9 4.344,4.7128 3.062,7.9941 -0.785,2.009 -2.075,6.1925 -2.868,9.2967 -1.275,4.9947 -4.824,8.8088 -8.35,8.9754 -0.55,0.026 -1.15,0.6472 -1.334,1.3806 -0.196,0.7842 4.136,1.4918 10.52,1.7182 8.374,0.2969 11.322,-0.084 12.905,-1.6667 2.339,-2.3386 5.692,-2.6872 6.909,-0.7182 0.453,0.7333 5.888,1.3333 12.078,1.3333 9.405,0 11.255,0.3489 11.255,2.1231 0,2.8238 4.942,8.9965 7.504,9.3726 4.696,0.6892 5.829,1.9051 5.829,6.2558 0,2.6533 -0.958,5.3053 -2.333,6.4584 -2.355,1.9744 -10.745,5.719 -15.667,6.9921 -6.257,1.6184 -28.05,3.3447 -33.333,2.6403 z m -223.333,-11.1756 c 0,-0.7333 -0.636,-1.3333 -1.412,-1.3333 -0.777,0 -1.042,0.6 -0.588,1.3333 0.453,0.7333 1.088,1.3333 1.412,1.3333 0.323,0 0.588,-0.6 0.588,-1.3333 z m 9.333,-20.6248 c 0,-1.1895 -0.781,-1.658 -1.992,-1.1936 -1.096,0.4205 -1.661,1.3016 -1.255,1.9581 1.164,1.8826 3.247,1.392 3.247,-0.7645 z m 88,-2.0419 c 0,-0.7333 -1.235,-1.3333 -2.745,-1.3333 -1.51,0 -2.375,0.6 -1.922,1.3333 0.454,0.7334 1.689,1.3334 2.746,1.3334 1.056,0 1.921,-0.6 1.921,-1.3334 z m -87.089,-4.25 c -0.426,-1.0636 -0.742,-0.7477 -0.806,0.8056 -0.06,1.4055 0.257,2.193 0.701,1.75 0.443,-0.4431 0.49,-1.5931 0.105,-2.5556 z m 117.144,-3.6613 c -0.484,-0.7821 -1.517,-1.422 -2.297,-1.422 -0.884,0 -0.783,0.765 0.269,2.0322 1.828,2.2035 3.463,1.7118 2.028,-0.6102 z m -48.089,-7.6117 c -3.005,-2.1976 -4.277,-1.2614 -2.005,1.4761 0.922,1.1097 2.298,1.6326 3.059,1.1621 0.848,-0.5241 0.44,-1.5461 -1.054,-2.6382 z m -38.814,-2.1037 c -0.497,-0.8046 -1.269,-0.6145 -1.965,0.4844 -1.822,2.876 -1.37,4.287 0.798,2.4879 1.093,-0.9063 1.617,-2.2438 1.167,-2.9723 z m 20.848,3.7054 c 0,-0.3234 -0.6,-0.9588 -1.333,-1.412 -0.734,-0.4532 -1.334,-0.1886 -1.334,0.588 0,0.7766 0.6,1.412 1.334,1.412 0.733,0 1.333,-0.2646 1.333,-0.588 z m 88.972,-0.2176 c -0.443,-0.443 -1.593,-0.4904 -2.555,-0.1052 -1.064,0.4257 -0.748,0.7416 0.805,0.8056 1.406,0.058 2.193,-0.2573 1.75,-0.7003 z m 7.028,-1.8611 c 0,-0.7333 -0.265,-1.3333 -0.588,-1.3333 -0.323,0 -0.959,0.6 -1.412,1.3333 -0.453,0.7334 -0.189,1.3334 0.588,1.3334 0.777,0 1.412,-0.6 1.412,-1.3334 z m -127.279,-4.0887 c 1.564,-2.5298 -0.716,-3.154 -3.038,-0.8319 -2.079,2.0786 -2.083,2.254 -0.05,2.254 1.213,0 2.602,-0.64 3.085,-1.4221 z m 34.612,0.074 c -3.426,-1.4535 -6,-1.5902 -5.997,-0.3185 0,0.55 1.951,1.1011 4.333,1.2248 3.473,0.1802 3.803,7e-4 1.664,-0.9063 z m -34,-7.2398 c 0,-0.3234 -0.6,-0.9588 -1.333,-1.412 -0.733,-0.4533 -1.333,-0.1887 -1.333,0.5879 0,0.7767 0.6,1.4121 1.333,1.4121 0.733,0 1.333,-0.2646 1.333,-0.588 z m -4,-3.412 c 0,-0.7334 -0.635,-1.3334 -1.412,-1.3334 -0.776,0 -1.041,0.6 -0.588,1.3334 0.454,0.7333 1.089,1.3333 1.412,1.3333 0.324,0 0.588,-0.6 0.588,-1.3333 z m 101.334,-1.3334 c 0,-0.7333 -0.6,-1.3333 -1.334,-1.3333 -0.733,0 -1.333,0.6 -1.333,1.3333 0,0.7334 0.6,1.3334 1.333,1.3334 0.734,0 1.334,-0.6 1.334,-1.3334 z m -64,-1.3333 c 0,-0.7333 -0.636,-1.3333 -1.412,-1.3333 -0.777,0 -1.042,0.6 -0.588,1.3333 0.453,0.7333 1.088,1.3333 1.412,1.3333 0.323,0 0.588,-0.6 0.588,-1.3333 z m -45.334,-1.3333 c 0,-0.7334 -0.6,-1.3334 -1.333,-1.3334 -0.733,0 -1.333,0.6 -1.333,1.3334 0,0.7333 0.6,1.3333 1.333,1.3333 0.733,0 1.333,-0.6 1.333,-1.3333 z m -16.666,-2.6667 c 1.327,-1.4667 1.741,-2.6667 0.92,-2.6667 -0.821,0 -2.135,1.2 -2.92,2.6667 -0.785,1.4667 -1.199,2.6667 -0.921,2.6667 0.279,0 1.593,-1.2 2.921,-2.6667 z m 85.333,1.3333 c -0.453,-0.7333 -1.689,-1.3333 -2.745,-1.3333 -1.057,0 -1.922,0.6 -1.922,1.3333 0,0.7334 1.236,1.3334 2.746,1.3334 1.51,0 2.374,-0.6 1.921,-1.3334 z m -35.674,-2.6173 c 1.728,-2.7663 1.901,-2.7422 -4.622,-0.6443 -1.963,0.6314 -2.012,0.9183 -0.333,1.9796 2.733,1.7283 3.105,1.628 4.955,-1.3353 z m -9.659,-1.3827 c 0.453,-0.7333 -0.147,-1.3333 -1.334,-1.3333 -1.186,0 -1.786,0.6 -1.333,1.3333 0.453,0.7334 1.053,1.3334 1.333,1.3334 0.28,0 0.88,-0.6 1.334,-1.3334 z m -7.695,-3.4722 c -0.443,-0.443 -1.593,-0.4904 -2.555,-0.1052 -1.064,0.4256 -0.748,0.7416 0.805,0.8056 1.406,0.058 2.193,-0.2573 1.75,-0.7003 z m -23.639,-6.0474 c 0,-1.5514 -3.859,-5.028 -5.665,-5.1046 -1.568,-0.066 -1.172,3.2534 0.599,5.0242 2.028,2.0273 5.067,2.0755 5.067,0.08 z m 73.335,-6.4804 c 0,-0.7333 -0.601,-1.3333 -1.335,-1.3333 -0.733,0 -1.333,0.6 -1.333,1.3333 0,0.7334 0.6,1.3334 1.333,1.3334 0.734,0 1.335,-0.6 1.335,-1.3334 z m 14,-1.3333 c 0.452,-0.7333 0.187,-1.3333 -0.588,-1.3333 -0.778,0 -1.412,0.6 -1.412,1.3333 0,0.7333 0.263,1.3333 0.588,1.3333 0.323,0 0.957,-0.6 1.412,-1.3333 z m 34,-14.6667 c 0,-0.7333 -0.937,-1.3333 -2.08,-1.3333 -1.143,0 -1.707,0.6 -1.254,1.3333 0.453,0.7334 1.389,1.3334 2.078,1.3334 0.691,0 1.256,-0.6 1.256,-1.3334 z m -6.668,-3.2546 c 0,-1.4073 -2.558,-1.9986 -3.32,-0.7671 -0.46,0.7453 0.101,1.3551 1.242,1.3551 1.144,0 2.078,-0.2646 2.078,-0.588 z m -28,-8.7454 c 0.785,-1.4666 0.926,-2.6666 0.315,-2.6666 -1.419,0 -4.315,2.8644 -4.315,4.2666 0,2.0696 2.591,1.0333 4,-1.6 z m 10.64,-24.6989 c -0.928,-1.1177 -2.034,-1.6851 -2.457,-1.2608 -0.425,0.4243 0.111,1.3296 1.189,2.0118 2.823,1.7851 3.192,1.5667 1.268,-0.751 z m 38.028,-87.3011 c 0.452,-0.7333 0.187,-1.3333 -0.588,-1.3333 -0.778,0 -1.412,0.6 -1.412,1.3333 0,0.7334 0.263,1.3334 0.588,1.3334 0.323,0 0.957,-0.6 1.412,-1.3334 z"
         id="path9630-3-9-0" /><path
         style="fill:#000000;stroke-width:1.33333"
         d="m 18730.363,4176.0895 c -4.008,-3.85 -9.232,-8.576 -11.609,-10.5024 -4.005,-3.2447 -4.329,-4.1119 -4.431,-11.7887 -0.08,-6.366 -0.638,-8.583 -2.395,-9.5665 -1.781,-0.9972 -2.111,-2.3843 -1.489,-6.2756 0.576,-3.6024 0.233,-5.4653 -1.231,-6.6803 -1.427,-1.1846 -1.806,-3.0714 -1.272,-6.3537 0.574,-3.537 0.05,-5.6291 -2.172,-8.6313 -1.638,-2.2145 -2.604,-4.9878 -2.192,-6.2865 1.604,-5.0556 1.911,-16.8609 0.462,-17.757 -1.018,-0.629 -0.788,-1.6104 0.734,-3.1322 2.437,-2.4377 2.861,-6.9413 0.939,-9.981 -0.795,-1.2565 -0.693,-2.6105 0.284,-3.7885 0.837,-1.0082 1.381,-3.9223 1.209,-6.4758 -0.378,-5.6094 4.089,-13.4784 8.227,-14.4944 1.597,-0.392 5.253,0.5037 8.172,2.0023 2.905,1.4914 6.233,2.7116 7.396,2.7116 1.163,0 5.385,2.0847 9.384,4.6326 3.999,2.5479 8.472,4.667 9.939,4.709 3.708,0.1064 7.956,3.4493 5.954,4.6862 -0.951,0.5886 0.639,2.1859 4.176,4.1957 3.142,1.7848 6.532,4.4147 7.533,5.8442 1.341,1.9134 3.384,2.599 7.745,2.599 5.049,0 5.925,-0.3968 5.925,-2.6848 0,-1.4766 0.723,-3.843 1.607,-5.2587 1.326,-2.1234 1.166,-3.0621 -0.916,-5.3623 -1.388,-1.5335 -3.215,-2.5226 -4.06,-2.1979 -0.848,0.3247 -2.159,0.1958 -2.918,-0.2863 -2.07,-1.3165 -3.448,-9.1376 -1.79,-10.1618 0.775,-0.4797 1.411,-2.5368 1.411,-4.5713 0,-2.0345 0.396,-4.0952 0.879,-4.5793 1.373,-1.3733 0.419,-20.0002 -1.121,-21.8544 -0.989,-1.1937 -0.38,-2.8373 2.184,-5.8843 3.015,-3.5834 3.424,-5.0173 2.683,-9.4062 -0.544,-3.2193 -0.29,-5.8827 0.67,-7.0404 0.85,-1.0241 1.521,-4.7534 1.49,-8.2872 -0.03,-3.5338 -0.101,-10.6251 -0.155,-15.7584 -0.05,-5.1334 0.305,-12.9667 0.798,-17.4075 0.792,-7.1414 0.463,-8.9874 -2.845,-15.9802 -3.483,-7.3635 -5.151,-14.4543 -3.102,-13.1878 1.222,0.7556 2.856,-8.4667 1.802,-10.1723 -0.465,-0.753 -0.08,-2.2885 0.85,-3.4123 1.099,-1.3242 1.222,-2.3593 0.351,-2.9416 -2.767,-1.8483 -2.943,-5.3398 -0.385,-7.6546 1.422,-1.2871 2.432,-3.0267 2.243,-3.8658 -0.188,-0.8391 1.308,-3.4885 3.325,-5.8875 2.016,-2.3989 3.666,-3.7157 3.666,-2.9261 0,0.7896 0.67,1.4357 1.489,1.4357 0.862,0 1.225,-1.3784 0.863,-3.2722 -0.453,-2.3691 0.425,-4.278 3.178,-6.9162 2.418,-2.3159 3.804,-5.0107 3.804,-7.3944 0,-2.0628 0.6,-3.7506 1.333,-3.7506 0.733,0 1.333,-1.1194 1.333,-2.4876 0,-2.1948 0.658,-2.3673 5.588,-1.4659 5.785,1.058 9.079,4.0358 9.079,8.2084 0,1.3265 0.75,2.4884 1.667,2.582 0.916,0.094 3.076,0.3145 4.8,0.491 1.723,0.1765 4.598,1.8999 6.387,3.8298 1.828,1.9708 4.703,3.509 6.559,3.509 2.863,0 3.192,0.447 2.463,3.3507 -0.499,1.9914 -0.125,4.2126 0.923,5.4755 5.546,6.6825 7.975,13.2869 8.41,22.8714 0.349,7.6767 0.824,8.8902 5.254,13.4271 2.679,2.7433 4.87,5.7206 4.87,6.6163 0,0.8957 0.674,2.7075 1.498,4.0261 1.149,1.8402 1.017,3.3268 -0.57,6.3941 -1.136,2.1981 -1.638,4.6899 -1.114,5.5374 0.524,0.8475 0.831,3.512 0.682,5.9211 -1.137,18.4436 -2.12,25.5845 -3.893,28.2911 -1.122,1.7118 -1.889,3.6321 -1.704,4.2674 0.184,0.6353 -0.293,2.3551 -1.06,3.8218 -1.758,3.3626 -5.111,24.5056 -4.053,25.5632 0.433,0.4329 -0.04,1.9651 -1.047,3.4048 -1.586,2.2643 -1.503,3.1857 0.611,6.8249 1.345,2.3139 2.859,7.0601 3.366,10.5472 0.593,4.0742 2.051,7.4098 4.08,9.3333 1.737,1.6463 3.169,4.4237 3.181,6.1719 0.01,1.7483 0.718,5.4983 1.568,8.3333 1.229,4.1021 2.19,5.1547 4.708,5.1547 1.74,0 3.516,-0.9153 3.945,-2.034 0.6,-1.5645 1.204,-1.6821 2.618,-0.5093 1.01,0.8386 3.084,1.1985 4.609,0.7998 1.681,-0.4397 5.569,0.8101 9.88,3.176 3.91,2.1455 7.961,3.9009 9.003,3.9009 2.595,0 6.49,4.5785 11.506,13.5239 2.32,4.1381 5.722,8.5087 7.559,9.7123 7.497,4.9123 12.627,11.1365 12.627,15.3193 0,3.4963 -0.498,4.1111 -3.333,4.1111 -1.985,0 -3.333,0.7632 -3.333,1.8863 0,1.3532 -2.355,2.076 -8.334,2.5579 -4.583,0.3694 -10.269,0.9234 -12.636,1.2309 -5.186,0.674 -15.03,4.9493 -15.03,6.5274 0,0.622 -1.095,1.1309 -2.434,1.1309 -1.338,0 -3.444,1.05 -4.679,2.3333 -1.235,1.2833 -5.39,5.5944 -9.233,9.5801 -7.653,7.9372 -17.982,14.39 -28.321,17.693 -11.599,3.7055 -14.819,4.0503 -17.045,1.8246 -2.876,-2.8761 -14.244,-8.7644 -16.921,-8.7644 -2.364,0 -8.034,-5.2714 -8.034,-7.4688 0,-0.7134 -1.343,-1.3982 -2.985,-1.5219 -5.183,-0.3904 -12.323,-4.3372 -14.969,-8.2745 l -2.552,-3.7961 -5.08,7.0948 c -2.794,3.9022 -5.105,7.591 -5.135,8.1974 -0.03,0.6063 -1.83,3.1798 -4,5.7188 -2.17,2.5389 -3.946,5.4425 -3.946,6.4522 0,3.1695 -11.799,13.5981 -15.384,13.5981 -2.146,0 -5.807,-2.4245 -10.571,-7 z m 111.288,-18.3333 c 0,-0.7333 -0.6,-1.3333 -1.334,-1.3333 -0.734,0 -1.334,0.6 -1.334,1.3333 0,0.7333 0.6,1.3333 1.334,1.3333 0.734,0 1.334,-0.6 1.334,-1.3333 z m 7.333,-29.3333 c 0.453,-0.7334 0.224,-1.3334 -0.509,-1.3334 -0.734,0 -1.704,0.6 -2.157,1.3334 -0.454,0.7333 -0.225,1.3333 0.509,1.3333 0.733,0 1.705,-0.6 2.157,-1.3333 z m 45.75,-6.5834 c 0.334,-1 -0.166,-1.5 -1.166,-1.1666 -0.962,0.3208 -2.013,1.3708 -2.334,2.3333 -0.333,1 0.167,1.5 1.167,1.1667 0.962,-0.3209 2.012,-1.3709 2.333,-2.3334 z m -31.083,-9.4166 c 0.453,-0.7334 0.188,-1.3334 -0.588,-1.3334 -0.777,0 -1.412,0.6 -1.412,1.3334 0,0.7333 0.264,1.3333 0.588,1.3333 0.323,0 0.958,-0.6 1.412,-1.3333 z m -72,-209.3334 c -0.454,-0.7333 -1.724,-1.3333 -2.824,-1.3333 -1.101,0 -1.63,0.6 -1.176,1.3333 0.453,0.7334 1.724,1.3334 2.824,1.3334 1.1,0 1.63,-0.6 1.176,-1.3334 z m -1.274,-15.5392 c 1.348,-0.9854 2.594,-2.7701 2.77,-3.9658 0.427,-2.9107 3.22,-5.7543 3.037,-3.0921 -0.377,5.4902 -2.095,8.3958 -5.096,8.6169 -2.962,0.2183 -3.007,0.1204 -0.711,-1.559 z"
         id="path9630-6-1-6" /><path
         style="fill:#000000;stroke-width:1.33333"
         d="m 20022.566,4233.9051 c -2.539,-3.8748 -6.44,-4.5987 -29.557,-5.4847 -18.753,-0.7188 -21.443,-1.0009 -22.837,-2.3953 -1.033,-1.0325 5.58,-7.6074 7.651,-7.6074 0.739,0 1.034,-0.4999 0.657,-1.111 -0.961,-1.555 -8.431,-0.2789 -10.094,1.7243 -1.049,1.2657 -2.476,1.3118 -6.043,0.1953 -3.821,-1.196 -4.668,-2.1139 -4.668,-5.0592 0,-2.1327 1.13,-4.3892 2.773,-5.5405 1.526,-1.0682 2.597,-3.0523 2.382,-4.4089 -0.446,-2.8033 3.762,-9.8 5.894,-9.8 0.774,0 2.355,-0.8449 3.513,-1.8775 2.21,-1.9715 2.672,-1.9413 31.438,2.0629 6.792,0.9454 12.463,2.425 13.067,3.4091 0.586,0.9564 1.636,1.7389 2.333,1.7389 2.46,0 1.214,-2.5897 -3.4,-7.0705 -2.566,-2.4928 -4.666,-5.5216 -4.666,-6.7309 0,-1.2092 -0.931,-2.1986 -2.068,-2.1986 -1.137,0 -2.929,-2.059 -3.979,-4.5755 -1.052,-2.5165 -2.469,-4.9197 -3.149,-5.3403 -1.306,-0.8067 -3.054,-8.9104 -3.614,-16.7509 -0.408,-5.7048 -1.674,-11.7726 -3.199,-15.3333 -1.269,-2.9645 -2.702,-10.2275 -3.024,-15.3334 -0.116,-1.8333 -0.671,-3.6627 -1.233,-4.0653 -0.563,-0.4026 -1.26,-3.3624 -1.55,-6.5774 -0.42,-4.659 -1.168,-6.0945 -3.688,-7.0725 l -3.162,-1.2271 2.864,-1.3387 c 5.083,-2.3755 5.715,-21.1273 0.968,-28.7006 -1.256,-2.0023 -1.588,-4.7394 -1.014,-8.3333 0.705,-4.4073 1.386,-5.3517 3.856,-5.3517 3.524,0 6.882,-3.2929 4.72,-4.6289 -0.972,-0.6011 -0.978,-1.6579 -0.02,-3.452 1.48,-2.767 8.476,-3.647 9.956,-1.2525 0.454,0.7334 1.92,1.3334 3.259,1.3334 4.284,0 7.111,6.189 6.453,14.1269 -0.436,5.2508 -0.106,7.2816 1.269,7.8089 1.021,0.392 1.726,1.7667 1.566,3.0551 -0.159,1.2883 0.06,3.2424 0.478,4.3424 0.422,1.1 1.485,5.196 2.362,9.1023 0.877,3.9063 2.421,7.4191 3.43,7.8064 1.009,0.3872 1.519,1.2152 1.133,1.84 -0.387,0.6248 -0.306,5.0123 0.18,9.75 0.702,6.8551 1.392,8.7472 3.376,9.2662 3.416,0.8931 3.299,7.0424 -0.172,9.2112 -1.467,0.9159 -2.667,2.514 -2.667,3.5513 0,1.4565 0.601,1.3421 2.638,-0.5022 2.541,-2.2986 2.67,-2.2939 3.443,0.1266 0.443,1.3832 1.956,4.8216 3.361,7.6409 1.407,2.8193 2.558,5.8508 2.558,6.7367 0,2.2233 12.824,15.1292 16.051,16.1534 1.443,0.4585 3.373,2.2149 4.288,3.9031 2.709,5.0073 9.439,11.9663 13.204,13.6547 2.908,1.3046 4.289,1.1562 8.063,-0.8668 3.642,-1.952 6.406,-2.2964 13.807,-1.7202 5.733,0.4465 9.659,1.4103 10.32,2.5335 0.586,0.9971 2.251,1.8129 3.7,1.8129 1.86,0 2.869,1.1756 3.434,4 0.973,4.868 2.246,4.983 7.376,0.6667 2.179,-1.8334 4.666,-3.3351 5.526,-3.3372 0.86,0 2.751,-1.7748 4.201,-3.9393 2.173,-3.2439 3.697,-4.0048 8.666,-4.3295 4.842,-0.3164 5.955,-0.8454 5.648,-2.6856 -0.21,-1.2603 0.84,-3.0546 2.334,-3.9874 1.493,-0.9327 2.715,-2.4644 2.715,-3.4037 0,-0.9393 1.5,-2.3913 3.334,-3.2266 1.833,-0.8353 3.333,-2.0225 3.333,-2.6381 0,-0.6156 1.192,-1.1193 2.649,-1.1193 3.057,0 13.225,-6.6612 13.3,-8.7132 0.03,-0.759 3.033,-4.359 6.678,-8 3.646,-3.6411 7.514,-8.8023 8.596,-11.4693 1.277,-3.147 4.076,-6.1892 7.975,-8.6667 3.994,-2.5381 5.798,-4.5245 5.385,-5.9271 -0.341,-1.1603 0.596,-3.211 2.084,-4.557 1.626,-1.4722 2.406,-3.3877 1.955,-4.807 -0.412,-1.2978 -0.153,-3.4471 0.575,-4.7763 0.728,-1.3292 1.681,-4.6504 2.117,-7.3805 0.436,-2.7301 1.533,-5.4301 2.438,-6 0.905,-0.5699 2.695,-2.6862 3.977,-4.7029 1.283,-2.0167 3.219,-3.6667 4.302,-3.6667 1.222,0 1.969,-1.2904 1.969,-3.4013 0,-4.4046 8.693,-12.5835 13.384,-12.5923 1.861,0 6.061,1.3436 9.333,2.9936 5.867,2.9582 5.943,3.0837 5.488,9 -0.254,3.3 -1.297,6.939 -2.317,8.0866 -1.02,1.1476 -2.547,4.1476 -3.394,6.6667 -0.846,2.519 -2.336,5.5082 -3.311,6.6427 -2.639,3.0701 -8.516,14.4795 -8.516,16.5319 0,0.9828 -0.844,2.1105 -1.875,2.506 -1.03,0.3956 -2.278,2.5598 -2.772,4.8094 -0.494,2.2495 -1.617,4.0901 -2.496,4.0901 -0.878,0 -3.45,1.65 -5.716,3.6666 -2.265,2.0167 -5.249,4.3119 -6.63,5.1005 -1.381,0.7886 -3.377,3.3562 -4.436,5.7059 -1.061,2.357 -3.258,4.6071 -4.901,5.0194 -1.638,0.4111 -4.015,1.8934 -5.283,3.2941 -1.268,1.4008 -3.097,2.5468 -4.065,2.5468 -0.968,0 -2.961,2.6364 -4.429,5.8587 -1.858,4.0792 -3.855,6.2723 -6.574,7.2202 -2.148,0.7487 -4.273,2.5212 -4.723,3.9389 -0.45,1.4176 -2.307,3.2557 -4.126,4.0846 -1.819,0.8289 -3.308,2.4297 -3.308,3.5572 0,1.1276 -2.024,3.0157 -4.499,4.1958 -2.601,1.2404 -5.405,4.0442 -6.645,6.6451 -1.59,3.3335 -3.007,4.4995 -5.47,4.4995 -2.033,0 -4.135,1.2368 -5.41,3.184 -1.387,2.1158 -5.192,4.1824 -11.343,6.1601 -5.09,1.6369 -10.796,4.4041 -12.68,6.1494 -1.931,1.7898 -5.07,3.1732 -7.201,3.1732 -2.527,0 -4.48,1.0702 -5.896,3.2322 -1.165,1.7777 -3.334,3.6181 -4.82,4.0898 -1.486,0.4717 -2.702,1.7172 -2.702,2.7678 0,1.1016 -1.292,1.9102 -3.052,1.9102 -1.678,0 -5.428,1.222 -8.333,2.7157 -2.905,1.4936 -6.46,2.4163 -7.9,2.0505 -1.439,-0.3659 -3.711,0.325 -5.049,1.5353 -2.774,2.5107 -4.504,2.808 -18.333,3.1506 -5.677,0.1406 -11.277,1.0331 -12.953,2.0645 -1.624,0.9992 -6.505,1.8167 -10.847,1.8167 -6.846,0 -8.17,-0.4217 -9.976,-3.1793 z m 63.109,-23.4874 c 0,-0.7333 -0.635,-1.3333 -1.412,-1.3333 -0.776,0 -1.041,0.6 -0.588,1.3333 0.454,0.7334 1.089,1.3334 1.413,1.3334 0.324,0 0.587,-0.6 0.587,-1.3334 z m -25.333,-6.1426 c 0,-0.2882 -0.9,-0.524 -2,-0.524 -1.1,0 -2,0.5811 -2,1.2915 0,0.7103 0.9,0.9461 2,0.524 1.1,-0.4221 2,-1.0033 2,-1.2915 z m -57.333,-80.2755 c 0,-1.6744 -0.391,-1.5753 -1.958,0.4966 -2.561,3.3862 -2.587,5.3666 -0.04,3.2549 1.1,-0.9129 2,-2.6011 2,-3.7515 z m 8.525,-9.0266 c 0.498,-1.2986 0.2,-1.9081 -0.774,-1.5833 -1.994,0.6643 -3.091,3.6947 -1.338,3.6947 0.716,0 1.666,-0.9501 2.112,-2.1114 z m 0.908,-18.2553 c -0.06,-0.5316 -0.119,-2.0166 -0.142,-3.3 -0.04,-2.1348 -0.206,-2.118 -1.958,0.1965 -1.053,1.3913 -1.579,3.073 -1.168,3.737 0.839,1.3586 3.422,0.8579 3.268,-0.6335 z m -1.837,-10.0222 c 1.064,-0.6767 1.175,-1.6695 0.333,-2.9796 -1.11,-1.7266 -1.422,-1.7223 -2.576,0.035 -2.396,3.65 -1.245,5.1614 2.244,2.9444 z m -3.431,-15.3 c -1.317,-1.307 -1.47,-1.1539 -0.746,0.7464 0.5,1.315 1.246,2.055 1.656,1.6445 0.411,-0.4106 0,-1.4864 -0.91,-2.3909 z m -1.033,-7.0205 c -0.956,-2.4912 -2.634,-2.5116 -3.581,-0.043 -0.404,1.0527 -0.02,2.1717 0.857,2.4868 2.367,0.852 3.573,-0.23 2.724,-2.4433 z"
         id="path9730-2-2" /><path
         style="fill:#000000;stroke-width:1.33333"
         d="m 17954.549,2690.6651 c -0.411,-0.6645 -1.857,-0.9179 -3.213,-0.5632 -2.769,0.7241 -6.864,-2.7035 -6.864,-5.7449 0,-1.0958 0.71,-3.303 1.577,-4.9048 0.868,-1.6017 1.765,-5.0123 1.994,-7.579 0.229,-2.5666 0.814,-6.7666 1.3,-9.3333 1.07,-5.6452 0.647,-10.7916 -1.056,-12.8703 -0.815,-0.9935 -0.712,-1.7198 0.29,-2.0537 1.421,-0.4736 2.74,-7.2121 2.69,-13.7427 -0.02,-3.1396 -1.342,-28.4266 -1.632,-31.3333 -0.111,-1.1 0.469,-5.8747 1.289,-10.6103 1.918,-11.0933 0.02,-19.0214 -4.321,-18.0387 -3.848,0.8706 -8.563,-2.7858 -6.392,-4.956 1.57,-1.5705 2.272,-7.7283 0.88,-7.7283 -3.509,0 -15.185,11.4092 -15.247,14.8986 -0.02,1.3473 -2.946,3.7038 -7.372,5.9452 -4.033,2.0423 -7.333,4.1523 -7.333,4.689 0,0.5366 -1.651,0.1149 -3.667,-0.937 -2.016,-1.052 -5.243,-1.9164 -7.169,-1.921 -3.1,-0.01 -8.59,-3.9395 -5.66,-4.0534 0.64,-0.025 -1.177,-1.152 -4.037,-2.5048 -6.095,-2.8831 -8.688,-6.9165 -8.753,-13.6205 -0.03,-2.6604 -0.947,-6.9911 -2.048,-9.6238 -2.266,-5.4224 -2.679,-16.2954 -0.666,-17.539 0.734,-0.4532 1.333,-3.2067 1.333,-6.1189 0,-2.9121 1.441,-8.7267 3.201,-12.9213 2.253,-5.3703 3.43,-11.3259 3.98,-20.1315 0.849,-13.6224 2.207,-16.0379 9.058,-16.1192 1.964,-0.023 4.471,-0.9424 5.571,-2.0424 2.429,-2.4289 3.422,-2.4613 10.239,-0.3335 3.305,1.0315 5.271,2.4286 5.159,3.6666 -0.358,3.9564 0.167,5.0335 2.792,5.7199 1.871,0.4893 2.673,1.8284 2.687,4.4888 0,2.0853 0.9,5.2915 1.979,7.1248 1.076,1.8334 2.323,4.3232 2.767,5.5331 1.235,3.3604 8.592,3.9187 12.769,0.969 2.625,-1.8537 3.517,-3.6115 3.466,-6.8323 -0.04,-2.385 2.131,-8.9099 4.822,-14.4998 2.689,-5.5898 4.534,-11.0937 4.096,-12.2308 -0.435,-1.1372 0.154,-5.7622 1.311,-10.2777 1.156,-4.5156 2.103,-10.7417 2.103,-13.8358 0,-3.0941 0.699,-6.3237 1.551,-7.1769 1.954,-1.9543 1.701,-10.6714 -0.385,-13.1832 -1.243,-1.4975 -0.972,-2.4482 1.299,-4.5638 1.577,-1.4698 2.868,-3.57 2.868,-4.6673 0,-1.0972 1.009,-3.5334 2.241,-5.4138 2.341,-3.5728 1.872,-7.1043 -2.282,-17.2088 -1.571,-3.8213 -1.388,-4.3588 3.181,-9.3333 2.666,-2.9032 4.851,-5.7286 4.854,-6.2786 0,-0.55 1.776,-1 3.94,-1 2.273,0 4.454,-0.9309 5.168,-2.2059 1.589,-2.8396 5.565,-1.4101 5.565,2.0008 0,1.3999 0.9,3.2922 2,4.2051 1.1,0.913 2,2.5293 2,3.5919 0,2.6484 3.704,6.1403 5.701,5.3741 2.914,-1.1186 4.299,-0.9934 4.299,0.3887 0,1.6674 7.327,6.6245 9.809,6.6365 1.034,0 1.491,-0.8194 1.068,-1.9233 -0.496,-1.2913 -0.101,-1.6862 1.191,-1.1906 2.189,0.8402 2.627,3.1227 0.598,3.1227 -2.751,0 -1.182,2.7982 3,5.348 2.384,1.4531 3.584,2.6443 2.667,2.647 -0.917,0 -1.667,0.8004 -1.667,1.7726 0,2.4967 5.954,7.7976 7.389,6.578 0.654,-0.5567 0.329,0.1065 -0.723,1.4739 -1.709,2.2211 -1.586,2.7503 1.146,4.9628 1.682,1.3621 2.678,3.0921 2.213,3.8444 -0.465,0.7523 0.02,3.0191 1.08,5.0373 3.132,5.9698 6.548,22.3597 6.027,28.9157 -0.266,3.3479 -0.18,6.0874 0.192,6.0879 0.372,6e-4 0.763,1.5006 0.869,3.3334 0.107,1.8574 -0.536,3.3324 -1.453,3.3324 -0.905,0 -2.278,1.3888 -3.051,3.0862 -2.209,4.848 1.727,9.0252 9.31,9.8799 5.018,0.5656 7.085,1.7108 11.556,6.4019 4.538,4.761 5.445,6.6146 5.445,11.1225 0,8.7026 -4.584,19.0306 -9.996,22.5217 -3.899,2.5156 -4.67,3.7954 -4.67,7.7619 0,2.6123 -0.791,5.5407 -1.758,6.5076 -0.967,0.9668 -3.271,3.5561 -5.121,5.754 -3.933,4.6759 -17.07,14.3989 -17.233,12.756 -0.06,-0.6188 -0.884,2.1749 -1.828,6.2083 -0.945,4.0333 -3.017,12.1333 -4.605,18 -1.588,5.8666 -2.59,11.8354 -2.227,13.2639 0.364,1.4285 -0.02,3.4105 -0.84,4.4043 -0.824,0.9939 -1.973,4.3251 -2.555,7.4027 -2.243,11.8926 -6.04,23.1483 -9.529,28.2386 -2.001,2.9202 -3.638,5.9536 -3.638,6.7409 0,0.7873 -1.526,3.4981 -3.391,6.0239 -2.258,3.0563 -3.141,5.5957 -2.642,7.5923 0.567,2.2605 0.169,3.0038 -1.608,3.0153 -1.444,0.01 -3.195,1.9494 -4.514,5 -1.185,2.7416 -3.141,7.2655 -4.344,10.0531 -1.204,2.7876 -3.959,6.084 -6.121,7.3254 -2.958,1.6972 -3.757,2.9569 -3.226,5.0787 0.585,2.3271 -0.04,2.9712 -3.556,3.6746 -5.583,1.1168 -6.299,1.0814 -7.187,-0.3552 z m 1.902,-14.4585 c 0.01,-0.9167 -0.579,-1.6667 -1.313,-1.6667 -0.733,0 -1.324,1.65 -1.313,3.6667 0.02,2.8572 0.306,3.2251 1.313,1.6666 0.711,-1.1 1.302,-2.75 1.313,-3.6666 z m -14.646,-161.5576 c 0,-0.6734 -0.384,-2.2237 -0.852,-3.4452 -0.635,-1.655 -1.113,-1.7985 -1.877,-0.5633 -0.563,0.9117 -0.716,2.462 -0.338,3.4452 0.774,2.0175 3.067,2.4387 3.067,0.5633 z m 46.667,-112.6971 c 0,-0.3234 -0.6,-0.9588 -1.334,-1.412 -0.733,-0.4532 -1.333,-0.1886 -1.333,0.588 0,0.7766 0.6,1.412 1.333,1.412 0.734,0 1.334,-0.2646 1.334,-0.588 z m -0.874,-22.8028 c -0.434,-1.1316 -0.491,-2.3554 -0.127,-2.7195 0.364,-0.3642 0.982,0.5617 1.373,2.0575 0.831,3.1772 -0.09,3.6678 -1.246,0.662 z"
         id="path9730-7-7-6" /><path
         style="fill:#000000;stroke-width:1.33333"
         d="m 18746.831,3297.7014 c -2.518,-1.1375 -9.657,-2.8902 -15.863,-3.8949 -6.208,-1.0048 -11.918,-2.458 -12.689,-3.2294 -0.772,-0.7714 -3.294,-1.4025 -5.608,-1.4025 -2.436,0 -5.674,-1.2613 -7.698,-3 -7.042,-6.0492 -11.361,-9 -13.174,-9 -2.557,0 -5.056,-2.7301 -5.056,-5.5244 0,-1.2784 -1.133,-3.1182 -2.519,-4.0885 -1.385,-0.9703 -3.43,-3.9455 -4.544,-6.6117 -1.114,-2.6662 -3.88,-6.2192 -6.148,-7.8956 -2.267,-1.6764 -4.122,-4.1433 -4.122,-5.482 0,-1.3387 -0.565,-3.4758 -1.254,-4.7492 -0.69,-1.2734 -2.637,-6.0653 -4.327,-10.6486 -1.69,-4.5833 -3.752,-8.3333 -4.583,-8.3333 -0.83,0 -2.257,-0.9 -3.17,-2 -2.421,-2.9172 -3.606,-2.4686 -4.405,1.6666 -1.7,8.7983 -3.425,13.5886 -5.759,15.9907 -4.811,4.95 -15.013,11.0093 -18.536,11.0093 -2.873,0 -11.732,-4.0291 -19.947,-9.0722 -0.723,-0.4437 -3.236,-0.6412 -5.585,-0.4388 -4.135,0.3563 -4.285,0.1882 -4.686,-5.2679 -0.352,-4.7825 -0.9,-5.7088 -3.618,-6.1177 -4.386,-0.6598 -6.617,-4.1378 -6.543,-10.1966 0.05,-4.1081 0.677,-5.3267 3.238,-6.3003 4.105,-1.5607 4.041,-3.6764 -0.159,-5.2731 -2.04,-0.7759 -3.333,-2.3142 -3.333,-3.967 0,-1.4848 -0.6,-2.6997 -1.333,-2.6997 -2.103,0 -1.554,-3.9993 0.666,-4.8512 2.829,-1.0853 2.485,-3.1488 -0.524,-3.1488 -1.388,0 -2.869,-0.9 -3.291,-2 -0.422,-1.1 -1.722,-2 -2.888,-2 -1.361,0 -1.749,-0.597 -1.083,-1.6667 0.57,-0.9166 0.876,-2.9182 0.678,-4.448 -0.197,-1.5297 0.634,-3.605 1.847,-4.6118 1.213,-1.0068 2.751,-3.2633 3.416,-5.0144 0.666,-1.7511 2.398,-3.4942 3.849,-3.8736 2.084,-0.5451 2.464,-1.4269 1.809,-4.2043 -0.456,-1.933 -1.874,-4.7145 -3.151,-6.1812 -3.923,-4.5055 -3.777,-6.4779 0.865,-11.6705 2.46,-2.7521 4.473,-5.6021 4.473,-6.3333 0,-0.7313 0.9,-1.3295 2,-1.3295 1.1,0 2,-0.8524 2,-1.8941 0,-2.0144 6.886,-4.1781 11.334,-3.5613 1.466,0.2035 3.614,1.2141 4.771,2.246 1.158,1.0318 3.108,1.876 4.334,1.876 1.244,0 2.228,1.044 2.228,2.3645 0,1.3005 2.985,5.6505 6.634,9.6667 3.648,4.0162 6.648,7.7522 6.666,8.3022 0.02,0.55 1.198,1 2.621,1 1.424,0 2.959,0.6 3.412,1.3333 1.327,2.1461 12.667,1.677 12.667,-0.524 0,-1.0216 0.9,-2.2027 2,-2.6248 2.836,-1.0881 2.503,-2.7157 -1.536,-7.5161 -2.892,-3.4365 -3.511,-5.4608 -3.396,-11.1023 0.08,-3.7947 0.177,-9.2285 0.221,-12.0751 0.04,-2.8466 -0.577,-5.966 -1.378,-6.932 -0.802,-0.9661 -1.328,-4.037 -1.169,-6.8244 0.158,-2.7874 -0.458,-6.868 -1.37,-9.068 -2.21,-5.3291 -3.284,-24.1517 -1.443,-25.2892 0.772,-0.4775 1.404,-2.2973 1.404,-4.0441 0,-1.7468 0.501,-3.4855 1.114,-3.8639 0.612,-0.3784 0.57,-4.7374 -0.09,-9.6867 -0.721,-5.3802 -0.719,-10.9171 0,-13.7694 0.666,-2.6239 0.75,-5.9503 0.186,-7.392 -1.618,-4.1397 -1.335,-10.1685 0.75,-15.9547 1.057,-2.9333 1.948,-7.5479 1.98,-10.2546 0.03,-2.7067 0.581,-5.2442 1.219,-5.6389 0.639,-0.3947 1.549,-2.6801 2.023,-5.0787 1.135,-5.7455 6.43,-18.7649 8.137,-20.0073 2.33,-1.6961 8.283,-1.1047 10.026,0.996 1.201,1.4473 2.15,1.6214 3.36,0.6169 1.239,-1.0285 2.843,-0.3431 6.05,2.5858 l 4.363,3.9853 -1.651,7.3776 c -0.908,4.0578 -1.179,8.1368 -0.602,9.0645 0.889,1.4302 1.859,25.9689 1.753,44.3534 -0.03,5.0014 2.115,17.1325 5.184,29.3334 0.738,2.9333 1.684,11.6333 2.101,19.3333 0.418,7.7 1.45,18.0118 2.293,22.9151 l 1.532,8.9151 8.802,0.8022 c 9.391,0.8558 18.329,3.098 21.262,5.3337 6.414,4.8896 8.206,7.4959 8.206,11.9349 0,4.6503 -0.08,4.7125 -9.414,7.5484 -8.152,2.476 -9.852,3.5538 -12.683,8.0383 -1.798,2.8485 -3.881,5.179 -4.628,5.179 -0.747,0 -1.212,2.1709 -1.033,4.8242 0.239,3.5495 1.131,5.1915 3.375,6.2141 3.373,1.5371 3.57,2.0746 1.79,4.888 -0.827,1.3074 -0.392,3.0874 1.354,5.5392 1.415,1.987 2.573,4.0255 2.573,4.53 0,0.5045 1.2,2.4428 2.666,4.3073 1.467,1.8646 2.667,4.2646 2.667,5.3333 0,1.0688 1.2,3.4688 2.667,5.3334 1.466,1.8645 2.666,4.696 2.666,6.2922 0,1.5962 1.05,4.0652 2.334,5.4869 1.283,1.4216 3.833,4.8306 5.666,7.5756 1.834,2.745 4.084,4.995 5,5 0.917,0.01 1.667,0.8161 1.667,1.8025 0,0.9863 1.288,2.9363 2.862,4.3333 1.573,1.397 4.887,5.6819 7.362,9.5221 6.469,10.033 12.494,16.627 26.958,29.5022 7.078,6.3002 7.155,6.4495 5.319,10.2877 -1.558,3.2564 -2.953,4.0617 -8.515,4.9142 -14.484,2.2198 -21.267,2.2653 -25.898,0.1739 z m -76.108,-90.8601 c -0.04,-1.8249 -2.488,-4.9357 -3.272,-4.1523 -1.051,1.0504 0.623,5.1523 2.101,5.1523 0.655,0 1.183,-0.45 1.171,-1 z"
         id="path9730-5-0-1" /><path
         style="fill:#000000;stroke-width:1.33333"
         d="m 19699.226,3083.3667 c -1.069,-1.2082 -2.978,-1.7619 -4.606,-1.3362 -1.529,0.3999 -6.558,-0.2218 -11.175,-1.3814 l -8.394,-2.1086 v -5.1458 c 0,-4.3547 -0.504,-5.2724 -3.28,-5.9692 -1.804,-0.4528 -5.334,-3.3142 -7.846,-6.3587 -2.512,-3.0445 -7.022,-7.3355 -10.022,-9.5355 -3,-2.2 -5.468,-5.0157 -5.486,-6.2571 -0.04,-2.868 -4.766,-11.1173 -9.619,-16.7893 -2.06,-2.4088 -3.747,-5.2095 -3.747,-6.2237 0,-1.0143 -1.5,-4.8305 -3.333,-8.4806 -1.833,-3.6501 -3.352,-7.4494 -3.376,-8.4429 -0.02,-0.9935 -0.923,-2.971 -2,-4.3945 -1.076,-1.4235 -1.957,-3.9307 -1.957,-5.5715 0,-1.6407 -0.9,-3.8832 -2,-4.9832 -1.1,-1.1 -2,-3.1514 -2,-4.5586 0,-1.4072 -2.703,-5.5001 -6.007,-9.0952 -6.806,-7.4072 -7.798,-9.9862 -7.12,-18.5056 0.263,-3.3171 0.175,-5.9908 -0.197,-5.9415 -0.372,0.049 -3.762,3.8321 -7.534,8.4062 -15.922,19.3104 -38.999,28.0482 -54.955,20.8083 -3.196,-1.4506 -6.87,-2.6374 -8.163,-2.6374 -1.294,0 -5.063,-1.1991 -8.376,-2.6647 -4.761,-2.1059 -6.471,-3.7834 -8.159,-8 -1.174,-2.9344 -2.983,-5.3353 -4.02,-5.3353 -2.273,0 -10.136,-11.4941 -10.136,-14.8166 0,-1.2976 -0.637,-2.7531 -1.416,-3.2342 -3.983,-2.4619 -5.949,-13.6348 -2.976,-16.9193 1.185,-1.3099 2.809,-3.6686 3.607,-5.2416 1.618,-3.1881 2.334,-3.6143 12.86,-7.6533 7.544,-2.8946 11.718,-2.6014 18.985,1.3336 4.626,2.5044 16.925,-1.0431 21.121,-6.092 1.901,-2.2876 2.469,-2.3839 4.434,-0.7524 1.484,1.2313 2.562,1.3987 3.153,0.4896 1.461,-2.2464 6.843,-4.6398 8.344,-3.7115 0.764,0.4724 2.402,-0.023 3.639,-1.1008 3.422,-2.9821 17.184,-10.3015 19.368,-10.3015 1.061,0 2.274,-0.9 2.696,-2 0.423,-1.1 1.653,-2 2.734,-2 1.082,0 2.87,-1.2895 3.973,-2.8654 1.182,-1.6874 4.085,-3.2032 7.062,-3.687 3.717,-0.6043 5.763,-1.9281 7.735,-5.0055 2.281,-3.5598 3.278,-4.0757 6.681,-3.4587 2.201,0.3988 4.6,1.1822 5.333,1.7408 1.965,1.4963 6.448,2.0134 8.156,0.9406 0.819,-0.5144 2.561,0.2506 3.874,1.7 2.438,2.6951 5.97,3.5638 5.97,1.4685 0,-1.463 7.489,-3.2372 12.25,-2.9021 1.971,0.1387 4.672,-0.3053 6,-0.9867 1.606,-0.8235 3.852,-0.6371 6.694,0.5557 7.951,3.3366 8.881,16.9278 1.904,27.8331 -1.877,2.9333 -3.264,6.0574 -3.085,6.9424 0.18,0.885 -1.493,2.5504 -3.717,3.7009 -2.225,1.1505 -4.046,2.9764 -4.046,4.0576 0,1.3947 -1.504,1.9658 -5.178,1.9658 -4.242,0 -5.323,0.5419 -5.981,3 -1.361,5.0779 -0.938,7.4524 1.408,7.9042 1.624,0.3127 2.329,1.9861 2.536,6.0173 0.282,5.469 5.278,16.4118 7.494,16.4118 0.616,0 1.78,1.65 2.587,3.6667 5.453,13.6399 6.748,17.4528 7.133,21 0.591,5.4437 2.636,10.427 5.128,12.4948 1.138,0.9452 2.792,3.9205 3.674,6.6118 0.882,2.6914 2.787,7.5934 4.233,10.8934 1.446,3.3 2.774,7.5166 2.953,9.3702 0.178,1.8536 1.578,5.8294 3.112,8.835 2.001,3.9212 2.566,6.8296 2.004,10.2965 -0.465,2.8687 -0.24,4.8316 0.556,4.8316 0.736,0 3.632,2.1 6.434,4.6667 2.802,2.5666 5.579,4.6666 6.169,4.6666 1.429,0 1.334,5.5212 -0.135,7.8403 -0.752,1.1876 -0.238,3.4095 1.445,6.2649 2.607,4.4172 2.606,4.4278 -0.147,6.1472 -1.517,0.9474 -2.758,2.7372 -2.758,3.9776 0,1.2403 -1.743,3.496 -3.872,5.0126 -4.556,3.2436 -4.295,3.2202 -6.62,0.5928 z m -4.175,-23.978 c 0,-0.2882 -1.95,-0.4819 -4.333,-0.4303 -3.529,0.076 -3.837,0.2896 -1.667,1.1488 2.443,0.9664 6,0.5404 6,-0.7185 z"
         id="path9730-3-9-8" /><path
         style="fill:#000000;stroke-width:1.33333"
         d="m 20018.653,2829.6548 c -1.986,-3.0007 -3.415,-5.5507 -3.177,-5.6667 4.246,-2.0676 5.948,-4.3336 8.702,-11.5812 1.803,-4.7464 3.603,-9.9933 3.999,-11.6598 0.398,-1.6665 2.229,-4.2165 4.073,-5.6667 1.844,-1.4501 2.741,-2.6366 1.994,-2.6366 -2.2,0 -2.838,-6.6397 -0.83,-8.6467 1.005,-1.0063 1.828,-3.337 1.828,-5.1794 0,-1.8424 0.544,-3.6859 1.209,-4.0966 0.665,-0.4107 0.895,-1.9461 0.511,-3.412 -0.535,-2.0449 -0.04,-2.6653 2.125,-2.6653 2.341,0 2.822,-0.8025 2.822,-4.7076 0,-5.0797 8.375,-21.3328 14.101,-27.3654 1.777,-1.8734 3.233,-3.9524 3.233,-4.6198 0,-1.708 6.506,-8.4672 17.893,-18.5865 4.092,-3.6369 7.441,-7.7018 7.441,-9.033 0,-1.4165 1.52,-2.9937 3.666,-3.8025 2.017,-0.7602 5.524,-3.1738 7.796,-5.3635 3.091,-2.981 5.016,-3.8202 7.666,-3.3399 2.763,0.5009 3.538,0.1122 3.538,-1.7735 0,-1.3283 0.946,-3.2002 2.102,-4.1598 1.696,-1.4073 1.925,-3.3077 1.187,-9.8299 -0.503,-4.4469 -1.741,-10.4853 -2.749,-13.4186 -1.009,-2.9334 -1.843,-6.7228 -1.854,-8.421 -0.01,-1.6982 -0.672,-4.3073 -1.47,-5.798 -1.985,-3.7093 -2.466,-16.8629 -0.67,-18.3223 4.264,-3.4642 17.985,-4.4746 15.945,-1.1741 -0.447,0.7231 0.448,0.6401 1.989,-0.1844 2.666,-1.4271 9.333,-0.3926 21.272,3.3008 2.649,0.8195 4.678,-0.7187 14.363,-10.89 6.204,-6.5144 11.716,-12.2478 12.249,-12.741 10.619,-9.819 16.725,-14.6088 21.636,-16.9703 3.3,-1.5868 7.755,-3.8488 9.9,-5.0267 2.144,-1.1778 6.644,-2.298 10,-2.4894 17.231,-0.9824 29.47,-4.6461 31.28,-9.3636 0.405,-1.056 2.105,-1.931 3.778,-1.9445 1.874,-0.015 6.441,-3.2157 11.891,-8.3333 7.416,-6.9634 9.002,-9.2346 9.793,-14.0255 0.808,-4.8981 1.318,-5.5976 3.562,-4.8853 3.078,0.9768 11.19,-2.552 12.903,-5.6129 2.094,-3.741 8.595,-0.4951 9.977,4.9812 2.97,11.7673 2.696,13.539 -3.03,19.6249 -2.963,3.1485 -5.387,6.8631 -5.387,8.2546 0,1.3915 -0.652,2.9332 -1.45,3.4259 -0.798,0.4927 -1.163,1.9894 -0.815,3.3259 0.352,1.3398 -0.194,2.749 -1.217,3.141 -1.019,0.391 -1.851,1.6298 -1.851,2.7528 0,1.2712 -1.219,2.0418 -3.228,2.0418 -2.431,0 -3.431,0.9041 -4.053,3.6667 -0.479,2.1262 -2.925,5.1564 -5.818,7.2126 -3.183,2.261 -6.532,6.6103 -9.241,12.0026 -2.88,5.731 -6.812,10.712 -12.2,15.4541 -4.371,3.8485 -8.545,6.9974 -9.274,6.9974 -0.729,0 -2.506,1.5 -3.948,3.3333 -1.442,1.8333 -3.026,3.3333 -3.52,3.3333 -1.697,0 -11.337,8.6677 -11.361,10.2154 -0.01,0.8518 -1.075,1.3864 -2.357,1.1881 -2.385,-0.3683 -9.668,6.1245 -9.668,8.6174 0,0.7582 -1.468,1.9364 -3.26,2.6184 -3.14,1.1939 -3.188,1.3897 -1.249,5.2738 1.107,2.2187 2.574,4.3813 3.26,4.8058 2.28,1.4086 1.311,8.5536 -1.547,11.4116 -1.904,1.9031 -2.589,3.8884 -2.145,6.2111 0.449,2.3488 -0.494,4.9952 -3.018,8.4819 -2.02,2.7873 -4.427,6.8924 -5.352,9.1222 -0.923,2.2299 -2.164,4.0543 -2.755,4.0543 -1.624,0 -9.409,12.0242 -8.617,13.3076 0.38,0.6138 -1.261,2.6764 -3.647,4.5836 -2.385,1.9072 -4.777,3.9119 -5.316,4.4549 -0.538,0.543 -4.544,4.686 -8.903,9.2067 -7.728,8.0159 -8.067,8.2028 -13.688,7.5462 -8.644,-1.0099 -17.085,-4.6806 -17.091,-7.4323 0,-1.2833 -1.205,-3.5333 -2.672,-5 -1.558,-1.5576 -2.676,-4.4689 -2.689,-7 l -0.02,-4.3333 -5.853,6 c -3.219,3.3 -9.508,8.6678 -13.977,11.9285 -4.469,3.2607 -8.125,6.8911 -8.125,8.0675 0,1.1764 -2.572,3.7645 -5.715,5.7515 -3.143,1.9869 -6.593,4.901 -7.667,6.4758 -2.005,2.9427 -10.588,13.4576 -16.575,20.3054 -1.857,2.1242 -3.376,4.5696 -3.376,5.4343 0,0.8647 -1.572,3.0267 -3.493,4.8046 -1.921,1.7778 -5.003,5.6324 -6.849,8.5657 -6.645,10.5578 -17.844,24.6667 -19.579,24.6667 -0.975,0 -2.755,1.5 -3.956,3.3333 -3.535,5.3947 -8.976,4.5316 -13.379,-2.1223 z m 13.346,-10.2324 c -1.209,-1.2085 -4.927,1.0009 -4.056,2.41 0.598,0.9666 1.469,0.91 2.784,-0.1806 1.052,-0.8734 1.624,-1.8767 1.272,-2.2294 z m 0.577,-8.312 c 0,-0.7333 -0.6,-1.3333 -1.334,-1.3333 -0.733,0 -1.333,0.6 -1.333,1.3333 0,0.7334 0.6,1.3334 1.333,1.3334 0.734,0 1.334,-0.6 1.334,-1.3334 z m 12.554,-7.5219 c 0.702,-1.83 0.507,-1.9124 -1.19,-0.5034 -2.314,1.9202 -2.555,2.692 -0.84,2.692 0.655,0 1.568,-0.9849 2.03,-2.1886 z m -3.315,-21.4781 c -0.08,-3.2491 -0.224,-3.363 -1.239,-1 -1.565,3.6419 -1.565,4.6667 0,4.6667 0.733,0 1.291,-1.65 1.239,-3.6667 z m 26.761,-8.4907 c 0,-0.7333 -0.6,-0.9625 -1.334,-0.5093 -0.733,0.4533 -1.333,1.4241 -1.333,2.1574 0,0.7333 0.6,0.9625 1.333,0.5093 0.734,-0.4532 1.334,-1.424 1.334,-2.1574 z m -8.667,-7.8426 c 0.453,-0.7333 0.189,-1.3333 -0.588,-1.3333 -0.777,0 -1.412,0.6 -1.412,1.3333 0,0.7333 0.265,1.3333 0.588,1.3333 0.323,0 0.959,-0.6 1.412,-1.3333 z m 2.509,-8.7359 c 0.455,-1.1866 0.232,-1.7218 -0.524,-1.2547 -0.725,0.4481 -1.317,1.3792 -1.317,2.0693 0,1.9179 0.954,1.4953 1.841,-0.8146 z m 87.123,-14.8258 c 0.331,-0.9935 -0.478,-1.3008 -2.223,-0.8445 -1.508,0.3945 -2.742,1.2912 -2.742,1.9928 0,1.7701 4.327,0.7694 4.965,-1.1483 z m -63.182,-4.3825 c 0.614,-0.5988 -0.841,-0.9903 -3.234,-0.87 -2.393,0.1203 -4.624,1.0374 -4.957,2.038 -0.464,1.3904 0.299,1.5955 3.234,0.87 2.112,-0.522 4.343,-1.4391 4.957,-2.038 z m 74.217,-5.1225 c 0,-0.5866 -0.72,-1.7866 -1.6,-2.6666 -2.351,-2.3507 -3.734,-1.9556 -3.734,1.0666 0,1.7778 0.889,2.6667 2.667,2.6667 1.467,0 2.667,-0.48 2.667,-1.0667 z m -51.334,-1.6 c 0.454,-0.7333 -0.111,-1.3333 -1.254,-1.3333 -1.144,0 -2.079,0.6 -2.079,1.3333 0,0.7334 0.565,1.3334 1.255,1.3334 0.69,0 1.625,-0.6 2.078,-1.3334 z m -13.153,-7.598 c -0.403,-0.4023 -1.725,-0.3502 -2.939,0.1157 -1.834,0.7035 -1.917,1.198 -0.491,2.9157 1.546,1.8633 1.838,1.8518 2.939,-0.1158 0.672,-1.2013 0.893,-2.5134 0.491,-2.9156 z m 21.92,-2.102 c -0.165,-1.5942 -1.994,-1.2855 -2.567,0.4334 -0.293,0.88 0.187,1.36 1.067,1.0666 0.88,-0.2933 1.555,-0.9683 1.5,-1.5 z m 51.9,0.1445 c 0,-0.6111 -0.664,-1.1111 -1.476,-1.1111 -0.812,0 -1.131,-0.9 -0.709,-2 0.483,-1.2563 -0.01,-2 -1.333,-2 -1.368,0 -1.818,0.7358 -1.291,2.109 0.445,1.16 0.809,2.56 0.809,3.1111 0,0.5512 0.9,1.0021 2,1.0021 1.1,0 2,-0.5 2,-1.1111 z m -22.272,-2.5826 c -1.054,-1.0546 -2.168,-1.0661 -3.933,-0.041 -2.158,1.2545 -1.976,1.436 1.472,1.4715 2.868,0.03 3.535,-0.3578 2.461,-1.4309 z m -66.151,-4.1119 c -0.425,-1.0636 -0.741,-0.7477 -0.805,0.8056 -0.06,1.4055 0.257,2.193 0.7,1.75 0.443,-0.4431 0.491,-1.5931 0.105,-2.5556 z m 41.09,0.25 c 0.453,-0.7333 0.188,-1.3333 -0.588,-1.3333 -0.777,0 -1.412,0.6 -1.412,1.3333 0,0.7334 0.264,1.3334 0.588,1.3334 0.323,0 0.958,-0.6 1.412,-1.3334 z m 10.424,0.4647 c 0.713,-0.7133 -4.813,-4.4647 -6.577,-4.4647 -1.712,0 -0.1,3.9127 1.819,4.4143 3.693,0.9649 3.842,0.9665 4.758,0.05 z m 20.909,-3.1313 c 0,-0.7334 -1.35,-1.2912 -3,-1.2396 -2.863,0.089 -2.878,0.1462 -0.333,1.2396 1.466,0.6302 2.816,1.188 3,1.2396 0.183,0.052 0.333,-0.5063 0.333,-1.2396 z m 5.333,-13.3334 c 0,-0.7333 -0.9,-1.3333 -2,-1.3333 -1.1,0 -2,0.6 -2,1.3333 0,0.7334 0.9,1.3334 2,1.3334 1.1,0 2,-0.6 2,-1.3334 z m -5.333,-4 c 0,-0.7333 -0.6,-1.3333 -1.333,-1.3333 -0.734,0 -1.334,0.6 -1.334,1.3333 0,0.7334 0.6,1.3334 1.334,1.3334 0.733,0 1.333,-0.6 1.333,-1.3334 z m 7.749,-1.3852 c 1.605,-1.4953 2.918,-2.9391 2.918,-3.2086 0,-1.3117 -5.435,1.1625 -7.454,3.3934 -3.279,3.6232 0.619,3.4643 4.536,-0.1848 z m 9.611,-7.3137 c 2.305,-2.7768 0.605,-4.1232 -1.963,-1.555 -1.135,1.1349 -2.064,2.4063 -2.064,2.8254 0,1.4807 2.362,0.7355 4.027,-1.2704 z m 27.973,-8.4917 c 0,-1.6358 -3.756,-2.9489 -4.587,-1.6038 -0.371,0.599 -0.29,1.4728 0.179,1.9418 1.271,1.2707 4.408,1.0301 4.408,-0.338 z m -59.624,-2.8094 c 1.088,0 1.082,-0.4086 -0.02,-1.5103 -1.746,-1.746 -5.69,-0.6293 -5.69,1.6111 0,0.8363 0.947,1.1545 2.109,0.7086 1.16,-0.4452 2.78,-0.8094 3.6,-0.8094 z m 31.315,-2.6666 c 0.922,-1.4772 1.086,-2.6667 0.368,-2.6667 -0.714,0 -1.94,1.2 -2.725,2.6667 -0.785,1.4666 -0.951,2.6666 -0.368,2.6666 0.583,0 1.809,-1.2 2.725,-2.6666 z m -16.286,-9.6401 c -1.249,-0.6991 -2.659,-0.8834 -3.133,-0.4097 -1.173,1.1733 2.624,3.399 4.169,2.4439 0.679,-0.4197 0.213,-1.3351 -1.036,-2.0342 z m 8.595,1.8033 c 0,-0.6435 -0.9,-1.917 -2,-2.8299 -1.622,-1.3461 -2,-1.293 -2,0.2812 0,1.0676 0.4,2.341 0.889,2.8299 1.266,1.2663 3.111,1.0995 3.111,-0.2812 z m -28.624,-6.6957 c -1.024,-3.2281 -6.931,-3.9737 -6.931,-0.8749 0,1.0592 0.35,1.8882 0.778,1.8421 2.758,-0.2973 4.111,0.5251 4.111,2.4986 0,1.6477 0.4,1.8664 1.465,0.8009 0.807,-0.8062 1.066,-2.7262 0.577,-4.2667 z m 36.624,1.1991 c 0,-1.4666 -0.6,-2.6666 -1.333,-2.6666 -0.733,0 -1.333,1.2 -1.333,2.6666 0,1.4667 0.6,2.6667 1.333,2.6667 0.733,0 1.333,-1.2 1.333,-2.6667 z m 14.667,0.8094 c 0,-0.2883 -0.9,-0.8694 -2,-1.2915 -1.1,-0.4221 -2,-0.1863 -2,0.524 0,0.7103 0.9,1.2915 2,1.2915 1.1,0 2,-0.2358 2,-0.524 z m -44.851,-6.8094 c -0.422,-1.1 -1.003,-2 -1.292,-2 -0.288,0 -0.524,0.9 -0.524,2 0,1.1 0.581,2 1.292,2 0.71,0 0.946,-0.9 0.524,-2 z m 5.949,-8.2228 c -0.64,-3.2997 -3.32,-3.6225 -4.137,-0.4984 -0.539,2.0627 -0.07,2.7212 1.928,2.7212 1.748,0 2.494,-0.7513 2.209,-2.2228 z m 78.902,-16.4438 c 0,-0.7334 -0.265,-1.3334 -0.588,-1.3334 -0.323,0 -0.959,0.6 -1.412,1.3334 -0.453,0.7333 -0.189,1.3333 0.588,1.3333 0.777,0 1.412,-0.6 1.412,-1.3333 z m -4.667,-10.6667 c 0.454,-0.7333 0.224,-1.3333 -0.509,-1.3333 -0.733,0 -1.704,0.6 -2.157,1.3333 -0.454,0.7333 -0.224,1.3333 0.509,1.3333 0.733,0 1.704,-0.6 2.157,-1.3333 z m 22.973,-8.8056 c -0.444,-0.443 -1.594,-0.4904 -2.556,-0.1052 -1.064,0.4257 -0.748,0.7416 0.806,0.8056 1.405,0.058 2.193,-0.2573 1.75,-0.7003 z m -44.973,-9.8611 c 0,-0.7333 -1.235,-1.3333 -2.745,-1.3333 -1.51,0 -2.375,0.6 -1.921,1.3333 0.453,0.7334 1.688,1.3334 2.745,1.3334 1.057,0 1.921,-0.6 1.921,-1.3334 z m 26.306,-2.1389 c -0.443,-0.443 -1.593,-0.4904 -2.556,-0.1052 -1.063,0.4257 -0.747,0.7416 0.806,0.8056 1.405,0.058 2.193,-0.2573 1.75,-0.7003 z m 19.028,-5.3371 c 0,-1.0215 -0.6,-1.8573 -1.334,-1.8573 -0.733,0 -1.333,0.2509 -1.333,0.5576 0,0.3067 -0.367,1.5135 -0.815,2.6818 -0.597,1.5547 -0.239,1.9032 1.333,1.2997 1.182,-0.4534 2.149,-1.6602 2.149,-2.6818 z"
         id="path9728-3-7" /></g></g></svg>
