<?xml version="1.0" encoding="UTF-8" standalone="no"?>
<!-- Created with Inkscape (http://www.inkscape.org/) -->

<svg
   version="1.1"
   id="svg176"
   width="907.13898"
   height="877.79956"
   viewBox="0 0 907.139 877.79956"
   xml:space="preserve"
   xmlns="http://www.w3.org/2000/svg"
   xmlns:svg="http://www.w3.org/2000/svg"><defs
     id="defs180"><linearGradient
       id="linearGradient1486"><stop
         style="stop-color:#000000;stop-opacity:1;"
         offset="0"
         id="stop1484" /></linearGradient></defs><g
     id="g182"
     transform="translate(-10485.648,1043.2053)"><g
       id="g157208"
       transform="translate(398.36902,-35.251756)"><path
         style="fill:#000000;stroke-width:1.26985"
         d="m 10466.899,-130.63307 c -13.646,-1.2103 -28.464,-2.6527 -30.604,-2.9793 -1.129,-0.1724 -6.819,-0.9645 -12.644,-1.7606 -5.825,-0.796 -12.378,-1.9962 -14.563,-2.6669 -2.184,-0.6709 -5.56,-1.4982 -7.502,-1.8386 -1.942,-0.3405 -3.928,-0.9241 -4.413,-1.2972 -0.485,-0.3731 -4.06,-1.2957 -7.943,-2.0504 -8.776,-1.7054 -9.752,-1.9533 -14.122,-3.5872 -1.942,-0.7258 -4.141,-1.3374 -4.888,-1.3586 -0.747,-0.022 -2.916,-0.8332 -4.821,-1.804 -1.904,-0.9709 -4.33,-1.7652 -5.391,-1.7652 -1.061,0 -4.331,-1.1916 -7.266,-2.6479 -2.936,-1.4562 -5.906,-2.6477 -6.602,-2.6477 -0.696,0 -1.707,-0.5316 -2.246,-1.1811 -0.539,-0.6495 -2.653,-1.6823 -4.698,-2.295 -2.045,-0.6126 -5.121,-2.0671 -6.835,-3.2319 -1.714,-1.165 -3.39,-2.1181 -3.724,-2.1181 -1.422,0 -20.953,-9.8543 -21.977,-11.0887 -0.619,-0.7453 -2.748,-2.0977 -4.732,-3.0055 -1.984,-0.9077 -7.315,-4.4625 -11.848,-7.8997 -4.532,-3.4371 -8.603,-6.2495 -9.047,-6.2495 -0.443,0 -0.805,-0.5485 -0.805,-1.219 0,-1.622 -6.776,-6.8619 -11.951,-9.2422 -0.991,-0.4558 -2.313,-1.444 -2.937,-2.196 -0.624,-0.7521 -2.991,-2.5667 -5.259,-4.0325 -2.269,-1.4658 -4.919,-3.8695 -5.89,-5.3417 -0.971,-1.472 -2.316,-2.6776 -2.989,-2.679 -0.673,0 -4.709,-3.4777 -8.968,-7.7252 -4.259,-4.2475 -9.07,-8.9323 -10.691,-10.4105 -4.269,-3.8934 -11.332,-11.6831 -11.333,-12.4996 -10e-4,-0.3848 -2.202,-3.0826 -4.892,-5.9951 -2.69,-2.9127 -5.534,-6.4872 -6.32,-7.9434 -0.807,-1.4964 -1.801,-1.5447 -1.801,-1.5447 l -21.912,-29.7377 -19.026,-23.2795 -2.866,-3.6103 c -1.577,-1.9856 -4.174,-6.589 -5.77,-10.2298 -1.597,-3.6407 -3.657,-8.303 -4.579,-10.361 -0.922,-2.0578 -1.681,-4.0435 -1.688,-4.4129 -0.01,-0.3694 -1.982,-3.6153 -4.391,-7.2132 -2.409,-3.598 -4.842,-7.9669 -5.405,-9.7087 -0.563,-1.7419 -2.529,-6.3443 -4.369,-10.2278 -1.839,-3.8834 -3.617,-8.6496 -3.95,-10.5913 -0.333,-1.9417 -1.096,-4.3247 -1.694,-5.2956 -1.924,-3.1194 -4.892,-11.9035 -4.892,-14.4771 0,-1.3726 -0.733,-3.4428 -1.628,-4.6005 -0.896,-1.1578 -1.885,-3.4274 -2.199,-5.0439 -0.564,-2.9046 -1.475,-5.2189 -5.443,-13.8304 -2.353,-5.1056 -5.734,-16.2142 -5.734,-18.8404 0,-0.9881 -0.425,-2.0589 -0.943,-2.3793 -0.519,-0.3205 -0.71,-1.1901 -0.425,-1.9325 0.285,-0.7422 -0.482,-3.0565 -1.705,-5.1427 -1.223,-2.0863 -2.223,-5.1578 -2.223,-6.8253 0,-1.6677 -0.423,-5.1716 -0.94,-7.7864 -0.834,-4.2128 -1.646,-10.5948 -3.019,-23.73 -0.229,-2.1846 -0.878,-5.9577 -1.442,-8.3849 -0.565,-2.427 -1.124,-6.7959 -1.243,-9.7086 -0.119,-2.9125 -0.699,-6.487 -1.29,-7.9434 -2.104,-5.1892 -4.223,-14.2165 -4.765,-20.2998 -0.303,-3.3981 -1.15,-7.8895 -1.883,-9.9809 -0.732,-2.0913 -1.463,-4.664 -1.624,-5.7171 -0.166,-1.0894 -1.116,-2.1134 -2.204,-2.3757 -1.979,-0.4773 1.259,-4.6494 1.259,-6.9239 0,-0.7127 -2.942,-2.9221 -1.552,-4.1611 3.435,-3.0602 1.669,-9.4313 1.957,-34.8302 0.103,-9.0642 0.634,-14.8576 1.82,-19.8585 0.921,-3.8835 1.677,-9.1445 1.681,-11.691 0.01,-2.5466 0.796,-6.9155 1.763,-9.7087 0.966,-2.7931 2.32,-9.0502 3.009,-13.9044 0.69,-4.8544 1.72,-10.0176 2.291,-11.4739 0.571,-1.4563 1.368,-4.4351 1.772,-6.6196 0.725,-3.9237 2.733,-10.1726 5.006,-15.5789 0.643,-1.5296 1.169,-3.6192 1.169,-4.6433 0,-1.0241 0.769,-3.5458 1.709,-5.6035 3.956,-8.6596 8,-19.9133 8,-22.2603 0,-0.75 0.365,-2.0534 0.812,-2.8963 1.644,-3.1032 3.453,-13.2971 2.982,-16.807 -0.425,-3.1756 -0.159,-3.9417 2.185,-6.2857 2.541,-2.5414 4.711,-6.4785 7.333,-13.3027 0.653,-1.6991 2.095,-4.4353 3.205,-6.0808 1.11,-1.6453 2.02,-3.4327 2.023,-3.9717 0,-0.5391 0.537,-1.9995 1.188,-3.2455 0.65,-1.2458 1.458,-3.366 1.796,-4.7114 0.544,-2.1694 2.131,-5.1618 7.878,-14.8579 1.116,-1.8828 1.447,-3.6609 1.094,-5.878 -0.473,-2.9684 0.306,-5.633 1.597,-5.4603 2.549,0.3412 3.966,-0.2135 4.877,-1.9105 3.736,-6.9528 12.507,-20.0793 13.417,-20.0793 0.442,0 0.804,-0.5174 0.804,-1.1499 0,-0.6325 1.131,-2.7178 2.513,-4.6337 1.383,-1.9161 3.066,-4.7686 3.74,-6.3388 0.675,-1.5705 2.225,-3.2383 3.444,-3.7064 2.544,-0.9761 7.072,-4.8726 7.072,-6.0846 0,-0.4486 2.686,-4.1415 5.967,-8.2064 3.282,-4.065 6.42,-8.4149 6.973,-9.6664 0.553,-1.2516 3.032,-4.7095 5.507,-7.6842 2.476,-2.9746 4.501,-5.7963 4.501,-6.2702 0,-0.4741 0.773,-1.1072 1.718,-1.4073 0.946,-0.2999 4.333,-3.2062 7.528,-6.4583 3.195,-3.2521 6.464,-6.5087 7.265,-7.2369 0.8,-0.7281 3.073,-3.1012 5.049,-5.2734 7.213,-7.9259 31.46,-31.7959 32.299,-31.7959 0.474,0 0.863,-0.3855 0.863,-0.8568 0,-0.4712 2.085,-1.8877 4.633,-3.1479 2.549,-1.2601 7.414,-3.8334 10.812,-5.7184 3.398,-1.885 7.01,-3.4473 8.027,-3.4716 1.017,-0.024 2.567,-0.8371 3.444,-1.806 0.876,-0.9689 3.739,-2.7438 6.361,-3.9442 2.622,-1.2002 5.758,-2.9617 6.969,-3.9142 1.211,-0.9525 3.474,-2.0037 5.028,-2.336 1.555,-0.3323 3.82,-1.0885 5.034,-1.6802 1.214,-0.5918 4.987,-2.4326 8.385,-4.0905 3.398,-1.6579 6.718,-3.3975 7.379,-3.8655 0.66,-0.4681 2.109,-0.9727 3.219,-1.1213 2.501,-0.335 11.71,-5.1383 14.172,-7.3919 1.002,-0.9176 2.119,-1.6684 2.482,-1.6684 0.629,0 5.384,-2.1154 15.125,-6.7297 2.435,-1.153 5.187,-2.0962 6.116,-2.0962 2.098,0 7.178,-1.5384 10.492,-3.1774 1.374,-0.6797 3.459,-1.2357 4.634,-1.2357 1.174,0 2.135,-0.392 2.135,-0.8712 0,-0.4924 2.398,-0.8217 5.516,-0.7574 3.034,0.062 8.495,-0.2841 12.136,-0.7703 6.05,-0.808 9.562,-1.6038 22.506,-5.10023 7.687,-2.0762 38.195,-5.2277 47.661,-4.9234 0.485,0.015 19.947,0.2016 43.247,0.4132 24.828,0.2254 43.302,0.7463 44.628,1.2582 1.244,0.4803 6.208,1.3601 11.032,1.9553 4.824,0.5951 9.385,1.3983 10.136,1.7848 0.751,0.3867 3.141,0.9118 5.311,1.167 2.171,0.2552 6.322,1.0964 9.226,1.86913 2.904,0.7728 6.869,1.7463 8.81,2.1633 3.327,0.7145 11.778,3.5866 28.406,9.6538 3.973,1.4495 10.527,3.1084 14.563,3.6866 4.037,0.578 7.817,1.4305 8.4,1.8942 1.24,0.9863 13.745,4.2162 16.483,4.2572 1.031,0.015 2.645,0.6112 3.587,1.3238 0.943,0.7128 2.691,1.2959 3.887,1.2959 1.195,0 4.635,1.1634 7.645,2.5855 3.01,1.422 7.814,3.2619 10.676,4.0887 2.863,0.8268 5.404,1.7675 5.646,2.0907 1.01,1.3439 5.976,4.1779 9.268,5.2882 1.941,0.6549 4.584,1.9313 5.873,2.8362 1.288,0.905 2.729,1.6454 3.202,1.6454 0.472,0 1.329,0.5668 1.904,1.2596 0.575,0.6927 2.709,1.8456 4.742,2.5618 2.175,0.7667 5.98,3.506 9.249,6.6598 3.711,3.5798 6.723,5.6725 9.077,6.3064 1.938,0.5218 4.602,1.9063 5.921,3.0768 4.055,3.6003 7.573,6.1579 10.34,7.5184 2.799,1.3763 2.912,1.4502 7.061,4.626 1.456,1.1146 4.137,2.7997 5.957,3.7444 1.821,0.9446 3.31,1.954 3.31,2.243 0,0.289 1.744,1.3963 3.875,2.4607 2.131,1.0644 4.364,2.5249 4.962,3.2455 0.599,0.7208 1.608,1.3104 2.244,1.3104 0.636,0 1.404,0.778 1.706,1.7289 0.787,2.4827 10.442,10.2921 14.296,11.564 3.404,1.1234 4.262,1.6717 7.99,5.1066 3.099,2.8555 10.29,7.1961 11.922,7.1961 0.74,0 1.996,0.9929 2.791,2.2065 0.795,1.2136 1.933,2.209 2.529,2.2122 1.873,0.013 9.374,7.0326 10.863,10.1704 1.953,4.1145 15.581,17.6479 18.935,18.8033 0.471,0.1622 2.277,2.4349 4.013,5.0504 1.736,2.6153 5.294,7.0502 7.907,9.855 5.583,5.9923 12.705,15.2898 12.739,16.6291 0.01,0.5159 1.242,2.1046 2.731,3.5303 2.647,2.535 8.069,9.9418 10.356,14.1471 0.631,1.1613 1.886,2.5066 2.788,2.9895 0.999,0.5345 1.477,1.5081 1.22,2.4874 -0.261,0.9996 0.856,3.1552 2.949,5.6912 1.852,2.2452 4.048,6.0052 4.879,8.3559 0.831,2.3506 2.663,5.5637 4.071,7.1404 1.582,1.7717 3.323,5.4709 4.559,9.6844 1.1,3.7499 2.301,7.2151 2.668,7.7005 0.367,0.4854 0.964,2.2727 1.326,3.9717 0.362,1.699 1.401,4.0362 2.309,5.194 0.907,1.1577 1.65,3.1526 1.65,4.4331 0,1.2806 1.39,4.4391 3.089,7.0189 1.699,2.5798 3.089,5.2111 3.089,5.8473 0,0.6362 1.531,3.6795 3.403,6.7631 1.872,3.0835 3.686,6.5001 4.031,7.5923 0.346,1.0923 1.197,1.9859 1.893,1.9859 0.763,0 1.264,0.8818 1.264,2.2227 0,3.8211 3.341,14.7613 6.143,20.1158 1.476,2.8202 2.683,6.1698 2.683,7.4434 0,2.3738 3.186,12.3056 4.468,13.9296 0.394,0.4979 0.934,4.0725 1.202,7.9434 0.475,6.879 1.172,10.5089 3.045,15.8642 1.135,3.2458 2.787,9.1097 5.346,18.976 1.071,4.1262 2.414,9.0908 2.986,11.0326 0.572,1.9417 1.048,3.7289 1.057,3.9717 0.01,0.2427 0.321,0.9195 0.692,1.5039 0.372,0.5845 0.433,2.028 0.137,3.2077 -0.346,1.3799 0.174,3.5195 1.459,5.9982 1.099,2.1191 2.083,5.2836 2.187,7.0319 0.104,1.7482 0.825,4.4095 1.603,5.9139 1.61,3.1135 4.177,13.3958 3.584,14.3555 -0.216,0.3496 0.139,2.1672 0.79,4.0392 1.073,3.0898 1.338,5.4165 1.759,15.4471 0.07,1.7696 0.802,3.9542 1.617,4.8549 1.135,1.2535 1.264,2.028 0.551,3.3017 -0.541,0.9675 -0.71,3.7381 -0.402,6.619 0.291,2.7251 0.724,9.5598 0.963,15.1882 0.239,5.6283 0.883,11.3872 1.431,12.7976 0.549,1.4105 1.111,5.5433 1.25,9.1841 0.139,3.6408 0.525,9.2011 0.859,12.3564 0.334,3.1553 0.625,17.0564 0.647,30.8911 0.03,19.0897 -0.287,26.8566 -1.314,32.2151 -0.745,3.8834 -1.15,8.1065 -0.901,9.3846 0.25,1.2779 0.02,2.5922 -0.511,2.9205 -0.531,0.3282 -0.966,1.765 -0.966,3.1926 0,1.4276 -0.463,2.5957 -1.03,2.5957 -0.566,0 -0.79,0.2394 -0.497,0.5321 0.292,0.2926 0.123,1.5834 -0.375,2.8685 -0.5,1.2849 -1.077,3.3293 -1.284,4.5429 -1.117,6.5509 -2.26,11.0329 -3.06,11.997 -0.617,0.7431 -0.595,1.2734 0.07,1.6833 0.698,0.4314 0.687,0.9373 -0.04,1.812 -1.182,1.4245 -7.136,17.7782 -7.293,20.0325 -0.06,0.8495 -0.387,1.5445 -0.728,1.5445 -0.341,0 -1.32,1.8866 -2.175,4.1924 -0.855,2.3058 -2.207,5.1853 -3.004,6.3989 -2.738,4.1681 -6.21,12.4735 -5.617,13.4336 0.332,0.5372 0.189,0.7104 -0.325,0.3929 -0.506,-0.3124 -1.461,0.099 -2.122,0.9156 -0.807,0.9945 -0.843,1.2671 -0.111,0.827 0.743,-0.4461 0.925,-0.2174 0.568,0.7132 -0.289,0.7534 -0.814,1.3697 -1.167,1.3697 -0.583,0 -3.358,3.9144 -9.687,13.6629 -1.254,1.9322 -2.781,4.1166 -3.391,4.8543 -0.611,0.7378 -1.008,1.5556 -0.883,1.8175 0.126,0.2618 -1.162,1.8241 -2.861,3.4719 -4.445,4.3111 -7.087,8.0813 -6.449,9.2022 0.305,0.5343 0.244,0.6925 -0.134,0.3516 -0.378,-0.341 -1.185,-0.1232 -1.792,0.4844 -1.737,1.7361 -4.103,6.7277 -3.586,7.5639 0.258,0.4164 -0.223,0.7026 -1.067,0.6361 -0.849,-0.067 -1.427,0.4014 -1.293,1.0478 0.134,0.6428 -0.09,0.9594 -0.51,0.7034 -1.332,-0.823 -6.392,4.498 -5.784,6.0818 0.387,1.0102 0.137,1.3593 -0.833,1.1589 -0.79,-0.1634 -5.484,3.5135 -10.901,8.5391 -17.474,16.2093 -21.015,19.4257 -26.344,23.9283 -2.913,2.4608 -5.773,4.6371 -6.357,4.8361 -0.584,0.1988 -2.967,2.1684 -5.296,4.3768 -2.329,2.2082 -6.22,5.1538 -8.647,6.5455 -2.427,1.3917 -5.642,3.4573 -7.144,4.5903 -1.502,1.1328 -3.022,2.0597 -3.377,2.0597 -0.355,0 -2.968,1.7873 -5.807,3.9718 -2.839,2.1844 -5.588,3.9717 -6.109,3.9717 -0.521,0 -2.422,1.3901 -4.223,3.0891 -1.801,1.699 -4.014,3.0891 -4.918,3.0891 -0.904,0 -3.502,1.2908 -5.773,2.8685 -2.272,1.5777 -8.39,5.0529 -13.596,7.7227 -26.07,13.3715 -34.774,17.65 -35.906,17.651 -0.683,7e-4 -2.47,0.9231 -3.972,2.05 -1.502,1.1268 -5.601,2.9606 -9.108,4.0753 -3.507,1.1145 -6.811,2.5501 -7.342,3.1901 -0.531,0.6399 -2.229,1.4319 -3.773,1.7598 -1.545,0.328 -3.404,1.0821 -4.132,1.6759 -0.728,0.5938 -4.104,1.9649 -7.502,3.0466 -3.398,1.0819 -7.458,2.7162 -9.021,3.6318 -1.564,0.9156 -4.344,1.9351 -6.179,2.2658 -1.834,0.3307 -3.732,0.8902 -4.217,1.2434 -1.261,0.9175 -20.915,7.3454 -30.892,10.103 -2.912,0.8049 -8.473,2.4103 -12.356,3.5672 -3.883,1.157 -9.642,2.7264 -12.798,3.4875 -3.155,0.7612 -6.531,1.5946 -7.502,1.8519 -0.971,0.2575 -4.744,1.0518 -8.385,1.765 -11.237,2.2018 -16.032,3.1621 -24.271,4.8604 -9.104,1.8766 -17.652,3.3323 -23.389,3.9829 -2.185,0.2479 -4.568,0.6296 -5.296,0.8484 -0.728,0.2189 -7.243,1.0162 -14.478,1.772 -7.234,0.7557 -13.515,1.5973 -13.956,1.87 -0.441,0.2729 -5.246,0.6747 -10.676,0.8931 -5.431,0.2184 -13.25,0.7952 -17.376,1.2818 -9.525,1.123 -65.818,1.6552 -76.346,0.7218 z m 81.706,-7.7804 c 2.148,-0.4937 10.46,-1.3211 18.469,-1.8389 13.18,-0.8518 24.304,-2.2247 36.628,-4.5209 3.851,-0.7173 9.824,-1.713 31.333,-5.2222 13.914,-2.2703 18.924,-3.4197 24.713,-5.6695 1.699,-0.6604 6.266,-2.0407 10.15,-3.0675 3.883,-1.0268 9.146,-2.4552 11.694,-3.1746 2.549,-0.7194 6.918,-1.9283 9.709,-2.6868 4.306,-1.17 15.126,-4.6628 25.375,-8.1919 1.456,-0.5014 4.435,-1.4029 6.619,-2.0033 2.185,-0.6005 8.341,-2.8422 13.681,-4.9816 5.339,-2.1395 12.174,-4.6623 15.187,-5.6061 3.014,-0.9441 5.718,-2.1028 6.01,-2.575 0.292,-0.4723 1.271,-0.8587 2.176,-0.8587 0.905,0 2.825,-0.9929 4.268,-2.2065 1.442,-1.2135 2.962,-2.2043 3.377,-2.2018 1.557,0.013 15.012,-5.7065 18.407,-7.8199 1.942,-1.2087 7.105,-3.897 11.474,-5.9738 4.369,-2.077 8.937,-4.3721 10.15,-5.1003 1.214,-0.7282 6.576,-3.7721 11.915,-6.7641 5.34,-2.992 12.554,-7.3803 16.031,-9.7519 3.478,-2.3716 6.507,-4.3119 6.731,-4.3119 0.755,0 18.423,-12.2143 21.678,-14.9864 1.771,-1.5087 4.487,-3.6194 6.034,-4.6903 9.612,-6.6526 13.706,-9.7923 18.785,-14.4086 10.441,-9.4892 37.621,-36.9074 40.398,-40.7514 1.505,-2.0829 3.994,-5.2603 5.532,-7.0609 5.341,-6.2518 14.309,-18.2902 15.259,-20.4844 0.526,-1.2136 1.645,-3.0009 2.487,-3.9717 2.364,-2.7247 9.947,-17.105 16.522,-31.3324 3.871,-8.3762 11.619,-32.1604 11.619,-35.6676 0,-1.1501 0.958,-5.8085 2.13,-10.3519 1.171,-4.5435 2.658,-12.0339 3.303,-16.6454 1.258,-8.9826 1.861,-42.644 0.973,-54.2803 l -0.539,-7.0608 -1.238,6.1783 c -0.68,3.398 -1.423,8.1641 -1.652,10.5912 -0.228,2.4272 -0.838,5.2664 -1.356,6.3093 -0.518,1.0431 -0.786,3.5254 -0.596,5.5164 0.19,1.991 0.124,3.6198 -0.147,3.6198 -0.733,0 -2.464,4.7427 -5.152,14.1218 -1.689,5.8922 -2.352,10.0898 -2.229,14.1208 0.1,3.1548 -0.197,6.1851 -0.652,6.7338 -0.456,0.5488 -1.013,2.535 -1.238,4.4139 -0.646,5.3915 -2.204,12.0049 -3.508,14.89 -2.723,6.024 -4.869,12.2769 -4.869,14.1872 0,1.1202 -0.397,2.2822 -0.883,2.5821 -0.485,0.3001 -0.882,1.5385 -0.882,2.7521 0,1.2135 -0.351,1.9896 -0.78,1.7243 -0.429,-0.2652 -1.293,0.8037 -1.919,2.3751 -0.627,1.5714 -1.794,3.8502 -2.594,5.0638 -0.8,1.2136 -2.363,4.3909 -3.474,7.0607 -1.11,2.6699 -2.542,5.4501 -3.182,6.1782 -0.641,0.7283 -1.209,1.615 -1.263,1.9707 -0.215,1.3996 -2.315,5.676 -3.808,7.7538 -3.51,4.8844 -6.069,9.1898 -9.871,16.6048 -2.197,4.2863 -5.612,9.5444 -7.588,11.6849 -1.976,2.1405 -4.552,5.8019 -5.725,8.1365 -1.172,2.3346 -3.536,5.7146 -5.253,7.511 -1.716,1.7966 -4.189,5.4257 -5.494,8.065 -2.452,4.9562 -14.504,17.5834 -24.675,25.8524 -15.465,12.5741 -18.489,15.081 -19.695,16.3303 -1.183,1.2254 -1.147,1.3088 0.345,0.7844 1.436,-0.5046 1.509,-0.3928 0.519,0.799 -0.851,1.0264 -1.319,1.1122 -1.802,0.3308 -0.446,-0.7212 -1.958,0.1737 -4.777,2.8267 -2.269,2.135 -5.437,4.6813 -7.041,5.6585 -1.603,0.9772 -4.135,2.9631 -5.626,4.413 -3.782,3.6775 -5.818,5.3354 -7.281,5.9281 -0.691,0.2798 -4.098,2.6326 -7.571,5.2281 -3.473,2.5955 -8.04,5.8038 -10.15,7.1294 -6.229,3.9143 -7.06,4.4549 -13.598,8.8431 -3.436,2.3057 -6.548,4.1923 -6.915,4.1923 -0.368,0 -4.511,2.1248 -9.207,4.7218 -4.695,2.597 -10.126,5.2714 -12.068,5.9432 -1.941,0.6717 -4.551,1.9451 -5.799,2.8296 -1.248,0.8845 -5.816,2.9337 -10.15,4.5539 -4.335,1.6201 -12.051,4.605 -17.148,6.6329 -5.097,2.028 -11.055,4.3027 -13.239,5.0548 -2.185,0.7521 -5.164,1.8797 -6.62,2.5059 -3.09,1.3285 -23.97,7.8931 -29.126,9.1571 -6.154,1.5088 -9.596,2.4832 -13.68,3.8733 -2.185,0.7435 -6.752,1.9518 -10.15,2.6854 -3.398,0.7335 -8.164,1.7902 -10.591,2.3482 -10.46,2.4046 -21.447,4.3421 -24.823,4.3774 -2.002,0.022 -5.179,0.5782 -7.061,1.2384 -1.881,0.6603 -5.778,1.4924 -8.659,1.8491 -2.881,0.3567 -6.257,1.0718 -7.502,1.5889 -1.245,0.5172 -2.672,0.8795 -3.17,0.8053 -0.498,-0.074 -3.874,0.496 -7.502,1.2672 -3.628,0.7713 -7.788,1.3644 -9.244,1.3185 -1.456,-0.046 -5.626,0.3244 -9.267,0.8236 -3.641,0.4991 -13.173,1.1184 -21.183,1.3761 -8.009,0.2579 -17.939,0.8446 -22.065,1.3038 -9.527,1.0602 -20.967,1.0561 -36.628,-0.013 -6.796,-0.464 -16.725,-1.0653 -22.065,-1.3365 -15.748,-0.7996 -30.504,-2.2576 -36.354,-3.5918 -3.004,-0.6852 -8.763,-1.5139 -12.798,-1.8413 -4.034,-0.3273 -8.118,-1.1329 -9.075,-1.7903 -0.958,-0.6573 -2.837,-1.195 -4.175,-1.195 -3.613,0 -16.198,-2.5056 -22.968,-4.5728 -4.226,-1.2906 -7.049,-1.6455 -9.802,-1.2327 -2.786,0.4179 -5.198,0.1029 -8.628,-1.1283 -2.618,-0.9397 -7.328,-2.1837 -10.466,-2.7645 -5.775,-1.0691 -19.828,-7.101 -24.812,-10.6499 -2.178,-1.5506 -2.609,-2.3648 -2.172,-4.1026 0.462,-1.843 0.289,-2.0874 -1.154,-1.6292 -2.111,0.6698 -12.689,-2.6801 -17.106,-5.4165 -1.808,-1.1209 -5.184,-2.4841 -7.502,-3.0295 -4.325,-1.0177 -12.693,-4.2978 -13.48,-5.284 -0.243,-0.304 -2.229,-1.4536 -4.414,-2.5548 -2.184,-1.1011 -5.56,-3.1179 -7.502,-4.4818 -3.481,-2.4452 -8.486,-4.6183 -12.797,-5.557 -1.214,-0.2641 -4.573,-2.4824 -7.464,-4.9296 -2.892,-2.4473 -5.958,-4.4495 -6.814,-4.4495 -0.856,0 -2.437,-1.1915 -3.514,-2.6479 -1.077,-1.4563 -2.432,-2.6478 -3.013,-2.6478 -0.58,0 -2.472,-1.5685 -4.204,-3.4856 -1.732,-1.9171 -4.459,-4.1581 -6.06,-4.9799 -1.601,-0.8219 -5.218,-3.6223 -8.037,-6.2231 -2.819,-2.6008 -5.573,-4.7286 -6.121,-4.7286 -0.548,0 -1.874,-0.8243 -2.946,-1.8317 -1.072,-1.0073 -2.168,-1.4774 -2.436,-1.0447 -1.437,2.3263 39.879,39.9873 53.998,49.2209 3.719,2.4315 9.342,6.3504 12.498,8.7086 3.155,2.3583 6.332,4.5103 7.06,4.7822 0.729,0.2718 1.523,0.7819 1.766,1.1334 1.353,1.9597 46.952,23.3039 51.52,24.1156 1.394,0.2478 3.187,1.0408 3.984,1.7622 0.797,0.7214 3.032,1.7092 4.967,2.1953 1.934,0.486 5.305,1.4667 7.489,2.1796 2.184,0.7126 7.348,2.1807 11.474,3.2624 4.126,1.0815 9.885,2.707 12.798,3.6122 5.498,1.7087 16.138,3.8207 26.036,5.1679 19.18,2.6104 38.735,4.6169 50.901,5.2229 18.373,0.915 68.636,0.4231 73.612,-0.7205 z m 362.685,-162.4356 c 0,-0.4568 0.393,-1.0731 0.872,-1.3698 0.501,-0.3092 0.649,0.044 0.347,0.8306 -0.586,1.5291 -1.219,1.8088 -1.219,0.5392 z m 18.976,-28.2954 c 0.3,-0.4855 0.721,-0.8826 0.935,-0.8826 0.214,0 0.389,0.3971 0.389,0.8826 0,0.4854 -0.421,0.8827 -0.935,0.8827 -0.514,0 -0.689,-0.3973 -0.389,-0.8827 z m -385.698,161.2357 c 14.77,-0.5634 39.69,-3.4033 60.458,-6.8897 2.67,-0.4481 9.819,-1.0218 15.887,-1.2747 9.51,-0.3963 31.85,-3.3087 33.58,-4.3776 1.513,-0.9353 28.382,-7.7024 33.057,-8.3256 5.736,-0.7648 9.344,-1.5223 12.798,-2.6867 1.213,-0.4093 6.227,-1.9834 11.142,-3.4982 4.915,-1.5147 10.674,-3.8307 12.798,-5.1468 2.124,-1.3161 5.053,-2.9237 6.509,-3.5725 1.457,-0.6488 5.031,-2.3093 7.944,-3.6902 2.913,-1.3807 7.475,-3.3813 10.138,-4.4458 2.663,-1.0646 6.039,-2.8317 7.502,-3.9268 1.463,-1.0954 4.334,-2.8324 6.381,-3.8603 2.047,-1.0279 4.164,-2.6955 4.705,-3.706 0.541,-1.0104 2.441,-2.4372 4.222,-3.1709 1.781,-0.7336 6.416,-2.8536 10.299,-4.711 3.884,-1.8574 8.253,-3.6599 9.709,-4.0055 1.456,-0.3457 3.244,-1.1341 3.972,-1.7521 0.728,-0.6181 4.302,-2.5565 7.943,-4.3076 3.641,-1.751 7.399,-3.6743 8.352,-4.274 5.142,-3.2372 9.374,-5.6537 13.789,-7.8725 2.711,-1.3628 6.401,-4.0681 8.2,-6.0119 1.798,-1.9437 3.709,-3.5341 4.247,-3.5341 2.862,0 -11.087,-10.2963 -14.881,-10.9842 -1.268,-0.2301 -3.143,-1.146 -4.166,-2.0354 -1.023,-0.8894 -3.362,-2.2949 -5.197,-3.1235 -1.836,-0.8284 -3.565,-2.1003 -3.844,-2.8264 -0.278,-0.7261 -0.817,-1.1283 -1.197,-0.8936 -0.379,0.2345 -1.181,-0.165 -1.78,-0.8878 -0.6,-0.7228 -1.563,-1.3141 -2.141,-1.3141 -0.577,0 -1.852,-0.7483 -2.834,-1.6629 -0.981,-0.9145 -3.539,-1.9364 -5.683,-2.2709 -5.287,-0.825 -6.986,-1.3536 -6.986,-2.1731 0,-0.3807 -1.76,-3.3717 -3.911,-6.6466 -2.151,-3.2748 -3.731,-6.4237 -3.511,-6.9974 0.449,-1.1686 -5.093,-7.6098 -6.548,-7.6098 -0.513,0 -2.048,-1.9993 -3.411,-4.4428 -1.661,-2.9785 -3.205,-4.6095 -4.685,-4.9485 -2.796,-0.6408 -9.56,-3.7774 -10.128,-4.6964 -0.237,-0.3828 -1.332,-0.7198 -2.433,-0.749 -4.152,-0.1105 -9.15,-0.9145 -11.597,-1.8668 -1.556,-0.6056 -2.919,-0.6743 -3.53,-0.1778 -1.385,1.1251 -12.948,0.7075 -15.214,-0.5494 -1.804,-1.0011 -5.861,-0.7544 -7.785,0.4731 -0.52,0.3313 -1.143,0.6319 -1.386,0.6681 -0.243,0.037 -2.048,0.3611 -4.011,0.7224 -2.216,0.4076 -4.56,0.2635 -6.179,-0.3803 -2.679,-1.0653 -5.083,-1.4093 -13.822,-1.9786 -2.77,-0.1804 -5.55,-0.747 -6.179,-1.2593 -0.628,-0.5122 -2.64,-1.1286 -4.471,-1.3699 -1.832,-0.2414 -4.215,-1.0895 -5.296,-1.885 -1.081,-0.7954 -3.224,-2.248 -4.762,-3.2278 -2.996,-1.9091 -5.589,-5.2779 -5.589,-7.2619 0,-0.67 -0.84,-1.9747 -1.868,-2.8994 -1.027,-0.9249 -2.848,-3.8658 -4.046,-6.5357 -1.744,-3.8886 -2.076,-5.7323 -1.667,-9.2673 0.629,-5.4405 1.157,-8.1552 1.783,-9.168 0.264,-0.4272 0.886,-3.7024 1.382,-7.2783 0.496,-3.5757 1.263,-7.4944 1.705,-8.7079 0.441,-1.2136 1.022,-3.221 1.289,-4.4608 0.268,-1.2397 2.882,-5.5707 5.809,-9.6242 2.937,-4.0675 5.322,-8.3071 5.322,-9.4615 0,-1.1505 1.39,-4.1125 3.089,-6.5824 1.699,-2.47 3.089,-4.8739 3.089,-5.3422 0,-0.4682 2.9,-3.7796 6.445,-7.3587 7.043,-7.1127 9.442,-12.2086 9.442,-20.0602 0,-2.223 0.831,-5.9612 1.847,-8.3072 1.744,-4.0301 1.791,-4.8499 0.853,-14.8567 -0.546,-5.8252 -1.079,-11.9398 -1.185,-13.5879 -0.169,-2.6581 -0.714,-3.2634 -4.82,-5.3577 -2.545,-1.2986 -5.55,-3.2268 -6.676,-4.2848 -2.351,-2.2085 -3.488,-2.3608 -6.184,-0.8277 -3.167,1.8005 -13.765,2.9521 -19.552,2.1246 -3.046,-0.4356 -7.884,-0.4075 -11.474,0.067 -9.351,1.2354 -15.884,0.9431 -17.808,-0.7966 -1.918,-1.7345 -7.448,-3.6634 -14.877,-5.1891 -2.912,-0.5982 -6.195,-1.639 -7.294,-2.3129 -1.1,-0.6738 -5.624,-1.8478 -10.054,-2.6088 -8.579,-1.4737 -12.398,-3.224 -14.738,-6.7557 -0.799,-1.2049 -3.09,-4.3358 -5.092,-6.9578 -3.89,-5.0959 -4.37,-6.5694 -5.26,-16.1774 -0.315,-3.3979 -1.222,-7.3697 -2.015,-8.826 -1.135,-2.0842 -1.442,-5.2196 -1.442,-14.7308 v -12.0829 l -2.857,-2.9517 c -1.572,-1.6234 -3.526,-4.9156 -4.344,-7.3159 -1.412,-4.1415 -4.425,-7.7728 -5.765,-6.9449 -0.94,0.5812 -0.129,18.0849 0.969,20.9153 0.531,1.3666 0.965,5.537 0.965,9.2677 0,3.7306 0.573,9.5248 1.274,12.8757 1.587,7.5827 0.992,10.892 -2.509,13.95 -1.505,1.3152 -2.96,2.4074 -3.233,2.4272 -1.4,0.1016 -4.359,-3.8542 -4.359,-5.8287 0,-1.2459 -0.977,-3.4266 -2.171,-4.8459 -1.194,-1.4193 -2.416,-4.0582 -2.715,-5.8643 -0.298,-1.8061 -0.898,-4.2767 -1.332,-5.4903 -0.434,-1.2136 -1.23,-4.9867 -1.77,-8.3848 -0.54,-3.398 -1.55,-7.4397 -2.244,-8.9814 -1.581,-3.5114 -3.007,-10.889 -3.007,-15.5618 0,-1.9776 -0.608,-4.2331 -1.367,-5.0725 -0.985,-1.0876 -1.473,-4.0365 -1.742,-10.5168 -0.29,-6.9863 -0.81,-9.8788 -2.319,-12.9004 -1.07,-2.1422 -2.272,-3.895 -2.671,-3.895 -0.4,0 -0.727,-0.5425 -0.727,-1.2055 0,-1.9032 -13.971,-15.564 -15.918,-15.564 -0.403,0 -1.012,-0.8936 -1.354,-1.9858 -0.342,-1.0923 -1.759,-3.6461 -3.148,-5.6753 -1.39,-2.0293 -2.527,-4.0534 -2.527,-4.4981 0,-0.4448 -0.689,-2.1605 -1.532,-3.8127 -1.02,-2.0016 -1.535,-5.087 -1.544,-9.2458 -0.01,-5.3184 -0.373,-6.7842 -2.441,-9.9103 -1.335,-2.0178 -2.427,-4.458 -2.427,-5.4229 0,-3.0468 -2.687,-7.5441 -5.771,-9.6572 -3.389,-2.322 -4.982,-6.2255 -5.281,-12.9361 -0.142,-3.2072 -0.9,-5.5778 -2.611,-8.1618 -2.188,-3.3073 -2.381,-4.2504 -2.096,-10.2672 0.312,-6.5994 0.302,-6.6353 -2.675,-9.1235 -2.798,-2.3388 -2.981,-2.8225 -2.872,-7.5827 0.116,-5.0145 -1.641,-10.2808 -3.429,-10.2808 -0.473,0 -0.86,-0.5627 -0.86,-1.2504 0,-0.6877 -0.496,-1.4157 -1.103,-1.6177 -0.761,-0.2537 -1.102,-2.5984 -1.103,-7.5774 0,-6.7977 -0.142,-7.3313 -2.466,-9.3296 -2.449,-2.1057 -2.462,-2.1712 -1.893,-9.9276 0.562,-7.6793 0.519,-7.9167 -2.61,-14.4026 -1.75,-3.6271 -3.183,-7.4002 -3.185,-8.3847 0,-0.9846 -0.742,-2.9817 -1.645,-4.438 -2.586,-4.1706 -8.974,-11.0326 -10.27,-11.0326 -1.293,0 -5.145,-5.7073 -5.145,-7.6236 0,-0.6613 -0.331,-1.2023 -0.736,-1.2023 -0.404,0 -0.735,-0.5738 -0.735,-1.275 0,-0.7012 -2.014,-2.985 -4.475,-5.0751 -2.46,-2.09 -5.205,-5.204 -6.099,-6.9201 -2.203,-4.2298 -9.659,-11.9127 -12.374,-12.7516 -1.214,-0.375 -3.822,-1.6193 -5.797,-2.7654 -3.41,-1.9786 -4.166,-2.0598 -15.004,-1.6113 -18.043,0.7466 -18.555,0.8642 -23.368,5.3657 -2.323,2.1731 -5.591,4.3284 -7.261,4.7897 -1.671,0.4612 -5.397,2.3636 -8.281,4.2273 -4.259,2.7527 -6.312,3.4807 -10.939,3.8787 -3.132,0.2693 -7.584,1.3426 -9.892,2.3851 -2.755,1.2437 -5.645,1.8292 -8.408,1.7031 -2.373,-0.1079 -6.013,0.4966 -8.342,1.3862 l -4.133,1.5783 -3.946,-2.3121 c -2.17,-1.2717 -4.843,-2.3123 -5.94,-2.3123 -2.029,0 -7.824,-3.4271 -7.835,-4.6336 -0.01,-1.0316 -4.485,0.4694 -4.485,0.4694 l -21.274,-8.1499 c 0,0 -2.362,-1.8379 -2.877,-1.8751 -4.445,-0.3204 -8.393,-2.3883 -9.525,-4.9896 -0.585,-1.3448 -3.304,-4.7505 -6.042,-7.5684 -4.078,-4.1966 -5.25,-6.1127 -6.479,-10.5912 -0.826,-3.0074 -1.918,-6.6594 -2.427,-8.1156 -1.613,-4.6098 -1.384,-6.149 0.964,-6.4807 3.166,-0.447 5.417,2.8381 4.184,6.1052 -1.35,3.5751 2.67,11.3047 9.245,17.7786 2.844,2.8004 5.171,5.6741 5.171,6.386 0,0.7765 1.501,1.6963 3.751,2.2993 2.064,0.5528 6.139,2.2686 6.139,2.2686 l 33.196,13.5231 c 0,0 4.55,1.788 5.88,2.8341 2.384,1.8754 2.479,1.8801 6.757,0.3414 2.955,-1.0624 5.529,-1.3859 8.068,-1.0135 2.857,0.419 4.393,0.1387 6.573,-1.1993 1.73,-1.0625 5.877,-2.122 10.591,-2.7067 6.062,-0.7517 8.227,-1.4093 9.954,-3.0236 1.213,-1.1348 4.742,-3.3292 7.841,-4.8766 3.099,-1.5475 6.964,-4.1049 8.589,-5.6831 1.625,-1.5783 3.458,-2.8781 4.074,-2.8885 0.616,-0.013 3.304,-0.4584 5.974,-0.9956 2.67,-0.5371 7.74,-0.9366 11.268,-0.8877 4.557,0.063 6.857,-0.2966 7.943,-1.2428 1.824,-1.5879 2.786,-1.3734 11.68,2.6031 2.185,0.9767 5.181,2.0413 6.658,2.3658 1.49,0.3272 3.848,1.9709 5.296,3.6914 1.435,1.7059 3.8,4.4643 5.257,6.13 1.456,1.6655 3.608,4.6047 4.782,6.5314 1.174,1.9268 3.208,3.9477 4.52,4.4911 1.565,0.6485 3.249,2.7111 4.899,6.0031 1.459,2.909 5.141,7.6398 8.769,11.265 6.468,6.463 9.19,10.8841 9.887,16.0533 0.222,1.65 1.809,5.358 3.526,8.2402 2.609,4.379 3.119,6.071 3.109,10.2962 -0.01,2.7807 -0.286,6.0585 -0.621,7.2841 -0.473,1.7353 -0.06,2.8093 1.884,4.8543 2.187,2.3046 2.468,3.2204 2.294,7.4805 -0.296,7.2394 0.459,10.3523 3.107,12.8077 2.156,1.9987 2.387,2.8112 2.387,8.3861 0,6.1198 0.03,6.185 2.922,7.5605 4.063,1.9298 4.642,4.0743 3.362,12.4635 -0.654,4.2853 -0.524,4.8123 1.966,7.9435 2.196,2.7618 2.775,4.4883 3.283,9.7843 0.579,6.0358 0.856,6.6862 4.517,10.5912 3.276,3.4941 8.203,12.7979 8.217,15.5178 0,0.4214 1.227,2.1581 2.72,3.8595 1.941,2.21 2.445,3.3648 1.766,4.0441 -2.104,2.104 -0.997,8.0871 3.013,16.2774 3.064,6.259 4.61,8.4313 6.807,9.5678 1.564,0.8087 3.582,2.4092 4.485,3.5569 0.903,1.1477 2.194,2.0867 2.87,2.0867 0.676,0 1.638,0.7634 2.137,1.6964 0.499,0.933 1.407,2.2311 2.017,2.8846 1.631,1.7476 4.198,6.5505 4.198,7.8548 0,0.622 0.843,2.0286 1.874,3.1258 1.839,1.9573 2.539,5.3117 3.985,19.0948 0.293,2.799 0.882,5.3046 1.309,5.5683 0.426,0.2636 0.775,2.4183 0.775,4.7882 0,2.3698 0.398,4.5543 0.883,4.8542 0.486,0.3001 0.883,1.9261 0.883,3.6135 0,1.6875 0.573,3.9479 1.274,5.023 1.721,2.6397 3.333,9.0285 3.498,13.87 0.14,4.0928 0.918,6.1782 2.304,6.1782 1.204,0 0.382,-14.0697 -1.058,-18.12 -1.241,-3.4883 -1.33,-10.3972 -0.228,-17.6862 0.467,-3.0879 1.067,-3.8776 4.284,-5.6351 3.26,-1.7807 4.131,-1.9146 6.763,-1.0393 3.768,1.2531 6.983,5.8241 7.647,10.8734 0.376,2.8564 1.35,4.6594 3.907,7.231 4.314,4.3383 4.689,5.9607 3.659,15.8567 -0.462,4.443 -0.531,9.2697 -0.153,10.726 0.378,1.4562 1.313,4.8322 2.078,7.5021 0.765,2.6699 1.634,7.3475 1.931,10.3946 0.501,5.1439 0.933,6.0298 6.039,12.3818 4.877,6.0677 6.044,7.0133 10.318,8.3607 2.651,0.8356 6.252,1.5192 8.001,1.5192 1.751,0 4.496,0.765 6.101,1.7 1.605,0.9349 5.501,2.5374 8.656,3.5609 3.155,1.0235 6.531,2.181 7.502,2.5721 10.091,4.0653 17.324,5.4471 21.528,4.1128 3.662,-1.1626 19.929,-2.0352 21.605,-1.1591 1.243,0.6497 2.269,0.4053 4.157,-0.9903 1.378,-1.0192 3.781,-1.8529 5.34,-1.8529 1.56,0 3.607,-0.695 4.551,-1.5446 1.657,-1.4911 1.843,-1.4042 5.366,2.5135 2.006,2.2317 5.375,5.0076 7.486,6.1686 5.341,2.9378 6.722,5.9036 6.743,14.4863 0.01,3.8834 0.257,7.458 0.55,7.9435 1.061,1.7567 0.66,10.5345 -0.703,15.3618 -0.766,2.716 -1.883,8.314 -2.482,12.4401 -1.152,7.9356 -1.936,10.5913 -3.126,10.5913 -0.401,0 -0.989,0.8183 -1.306,1.8183 -0.317,1 -2.316,3.5576 -4.442,5.6835 -2.126,2.1259 -4.113,4.8534 -4.417,6.0612 -0.303,1.2079 -1.111,2.411 -1.795,2.6736 -0.684,0.2626 -1.244,1.0164 -1.244,1.6752 0,0.6588 -0.934,2.0752 -2.076,3.1474 -1.141,1.0724 -2.595,3.5247 -3.23,5.4496 -0.635,1.9248 -1.489,3.4997 -1.896,3.4997 -0.408,0 -0.742,0.9061 -0.742,2.0136 0,1.202 -1.721,3.8184 -4.271,6.4917 -3.987,4.1804 -4.345,4.9416 -5.386,11.4462 -0.613,3.8324 -1.521,7.4654 -2.017,8.0734 -0.496,0.608 -0.665,2.2882 -0.376,3.7338 0.409,2.0458 0.14,2.8344 -1.214,3.5592 -1.435,0.768 -1.74,1.8602 -1.74,6.2394 0,2.9197 0.56,6.3909 1.244,7.714 4.989,9.647 13.635,18.6893 17.872,18.6893 1.185,0 3.33,0.608 4.767,1.3509 1.437,0.743 3.899,1.2801 5.472,1.1935 1.573,-0.086 5.92,0.3728 9.661,1.0209 5.588,0.9685 8.04,0.9773 13.756,0.05 4.825,-0.7836 7.911,-0.8657 10.075,-0.2682 1.716,0.4738 7.373,0.878 12.571,0.8983 11.067,0.043 15.662,0.6897 19.903,2.7992 1.699,0.845 4.734,1.7469 6.745,2.0039 2.01,0.257 5.086,1.4396 6.835,2.628 5.348,3.6341 14.258,14.5481 17.747,21.7399 4.264,8.7859 5.166,9.6949 10.306,10.3767 2.958,0.3924 5.561,1.5236 8.274,3.595 2.177,1.6623 5.417,3.6317 7.199,4.3764 1.782,0.7446 4.457,2.2715 5.944,3.393 1.487,1.1215 4.094,2.6659 5.793,3.432 3.796,1.7114 5.513,2.7914 10.592,6.6614 6.691,5.0988 6.584,5.0287 5.86,3.8239 -0.445,-0.7417 -0.218,-0.9248 0.708,-0.5694 0.751,0.288 1.145,0.8791 0.877,1.3138 -0.269,0.4345 0.484,0.7901 1.672,0.7901 2.185,0 9.504,-6.7764 14.214,-13.1607 1.197,-1.6225 3.642,-4.3891 5.434,-6.1479 1.791,-1.7588 10.253,-10.347 18.803,-19.0847 8.551,-8.7378 16.574,-16.6888 17.829,-17.6689 4.163,-3.2498 4.678,-5.2764 2.414,-9.4944 -1.101,-2.0503 -2.463,-4.3236 -3.028,-5.0517 -1.569,-2.0247 -3.001,-12.0343 -3.001,-20.9767 0,-4.4189 -0.38,-9.0337 -0.844,-10.255 -0.465,-1.2214 -0.919,-3.9282 -1.01,-6.0151 -0.09,-2.0868 -0.714,-4.6904 -1.386,-5.7855 -1.461,-2.383 -2.551,-7.9587 -3.347,-17.1237 -0.546,-6.2917 -0.415,-7.084 1.897,-11.4738 2.403,-4.5626 2.483,-5.1448 2.483,-17.9546 0,-13.1792 0.01,-13.2662 2.919,-19.2669 1.605,-3.3154 2.762,-6.4927 2.57,-7.0609 -0.191,-0.5681 0.382,-2.3359 1.274,-3.9282 2.23,-3.981 2.282,-12.4229 0.08,-12.4819 -0.849,-0.023 -3.799,-0.038 -6.554,-0.034 -2.756,0.013 -5.262,-0.3995 -5.569,-0.8961 -0.719,-1.1638 -4.867,-1.1812 -4.867,-0.02 0,0.4854 -0.773,0.8825 -1.718,0.8825 -0.945,0 -3.456,0.9236 -5.578,2.0522 -5.832,3.1005 -13.636,4.5106 -18.831,3.4026 -2.542,-0.5421 -4.682,-0.5934 -5.245,-0.1257 -0.524,0.4345 -3.553,0.7456 -6.732,0.6914 -3.179,-0.055 -6.26,0.1986 -6.848,0.5615 -1.14,0.7045 -8.912,0.7722 -12.177,0.1067 -1.082,-0.2207 -4.26,-1.1797 -7.061,-2.1313 -2.802,-0.9515 -6.881,-2.1975 -9.066,-2.7688 -2.184,-0.5713 -5.096,-1.6045 -6.47,-2.296 -1.375,-0.6915 -3.036,-1.2573 -3.693,-1.2573 -0.656,0 -3.122,-1.1986 -5.478,-2.6636 -2.426,-1.5081 -6.437,-3.014 -9.245,-3.4709 -2.728,-0.444 -6.639,-1.6643 -8.693,-2.7119 -5.205,-2.6553 -12.76,-4.6414 -18.495,-4.862 -5.82,-0.224 -16.22,-2.3918 -17.825,-3.7157 -0.633,-0.5221 -3.931,-2.0581 -7.329,-3.4134 -3.398,-1.3554 -7.15,-3.3618 -8.338,-4.4587 -1.187,-1.0969 -3.224,-2.4354 -4.526,-2.9746 -1.985,-0.8223 -2.547,-1.8589 -3.488,-6.4339 -1.543,-7.5024 -2.097,-8.3988 -4.867,-7.8693 -1.511,0.2888 -3.182,-0.2077 -4.85,-1.4403 -1.399,-1.0346 -2.903,-1.8811 -3.342,-1.8811 -1.301,0 -5.236,-6.3827 -5.896,-9.5627 -0.759,-3.6531 -7.035,-10.3656 -10.508,-11.2372 -1.412,-0.3544 -4.391,-0.2044 -6.619,0.3332 -4.803,1.1586 -15.672,2.3661 -18.174,2.0191 -0.971,-0.1348 -3.95,-1.0305 -6.62,-1.9906 -2.67,-0.96 -7.589,-2.4182 -10.931,-3.2403 -5.91,-1.4536 -6.141,-1.6162 -8.385,-5.8919 -1.269,-2.4184 -3.698,-5.9232 -5.396,-7.7883 -1.7,-1.8653 -3.36,-4.0526 -3.689,-4.8608 -0.954,-2.3339 -0.816,-8.8111 0.2,-9.4389 0.509,-0.3144 0.843,-1.2315 0.743,-2.038 -0.238,-1.9102 0.806,-6.0029 2.488,-9.7555 0.738,-1.6464 1.545,-4.6253 1.794,-6.6194 0.413,-3.3067 4.608,-10.1663 9.018,-14.7478 3.947,-4.0996 14.167,-4.4813 29.604,-1.1057 0.971,0.2124 3.583,2.6533 5.804,5.4242 3.671,4.5798 5.265,5.7398 12.311,8.9593 1.225,0.5599 2.999,2.1658 3.942,3.5688 0.943,1.4028 2.607,2.9573 3.697,3.4542 1.091,0.4969 2.973,2.472 4.184,4.389 2.917,4.6217 7.703,5.9383 12.622,3.4723 1.731,-0.868 1.927,-1.5588 1.686,-5.9223 -0.15,-2.717 -1.292,-8.3158 -2.537,-12.442 -1.246,-4.1262 -2.757,-9.6866 -3.359,-12.3564 -0.602,-2.6699 -2.493,-7.0388 -4.203,-9.7087 -2.454,-3.8331 -3.119,-5.7827 -3.162,-9.2673 -0.06,-5.0478 0.751,-9.1412 2.08,-10.4708 0.504,-0.5031 0.929,-1.9277 0.946,-3.1655 0.02,-1.2379 1.206,-5.2294 2.644,-8.8702 1.438,-3.6407 2.616,-7.5059 2.618,-8.5893 0,-1.0835 1.592,-5.4086 3.533,-9.6114 1.942,-4.2028 3.531,-8.6182 3.531,-9.8119 0,-1.1938 0.561,-3.4219 1.247,-4.9516 0.687,-1.5296 1.721,-4.3015 2.298,-6.1597 0.578,-1.8583 3.142,-5.7233 5.699,-8.5893 2.558,-2.8658 5.138,-6.5087 5.735,-8.0953 1.943,-5.1623 2.99,-7.25 5.1,-10.166 1.142,-1.5778 1.871,-2.8686 1.621,-2.8686 -0.25,0 0.325,-1.8201 1.279,-4.0448 0.953,-2.2247 1.734,-5.3462 1.734,-6.9366 0,-2.8653 -4.446,-12.4741 -6.558,-14.1728 -2.328,-1.8719 -2.899,-4.464 -2.267,-10.2889 0.406,-3.7496 1.395,-7.1033 2.732,-9.2674 1.153,-1.8653 1.946,-3.3913 1.762,-3.3913 -0.185,0 -0.08,-2.5816 0.223,-5.737 0.306,-3.1553 0.799,-8.5 1.095,-11.8772 0.295,-3.377 0.643,-6.7529 0.774,-7.502 0.131,-0.7491 0.742,-5.3336 1.359,-10.188 2.413,-19.0085 7.766,-35.6943 12.924,-40.2926 0.9,-0.802 2.827,-2.9593 4.284,-4.794 2.883,-3.6323 11.305,-10.1678 15.934,-12.3643 1.599,-0.7587 6.413,-1.6513 10.697,-1.9838 6.645,-0.5154 8.203,-0.3681 10.596,1.0016 1.544,0.8832 5.714,2.399 9.268,3.3682 8.699,2.373 10.433,3.3282 10.433,5.7483 0,1.5927 -0.604,2.1147 -2.869,2.4797 -4.712,0.7597 -14.188,-0.6823 -16.549,-2.5181 -3.67,-2.8541 -6.008,-3.4121 -10.043,-2.3963 -2.187,0.5509 -4.944,1.0015 -6.126,1.0015 -1.182,0 -2.643,0.5958 -3.248,1.324 -0.604,0.7281 -1.792,1.3239 -2.64,1.3239 -2.427,0 -12.033,7.9417 -17.11,14.1445 -3.602,4.4013 -6.015,12.1719 -8.627,27.7792 -0.933,5.5757 -1.047,6.777 -2.512,26.4782 -0.87,11.6981 -2.088,17.612 -4.934,23.9635 -1.977,4.4125 -1.556,8.0475 1.359,11.7276 3.235,4.085 5.881,11.2775 6.578,17.8837 0.473,4.4819 0.252,5.5039 -2.018,9.3537 -1.401,2.377 -2.846,5.276 -3.21,6.4421 -0.365,1.1662 -0.92,2.3188 -1.235,2.5615 -0.315,0.2427 -2.148,3.5381 -4.074,7.323 -1.925,3.7849 -4.349,7.4384 -5.387,8.119 -3.216,2.1101 -9.146,13.7639 -9.146,17.9744 0,0.6742 -1.922,5.2474 -4.271,10.1623 -2.349,4.915 -5.301,12.3122 -6.561,16.4383 -4.948,16.2168 -5.938,19.776 -5.938,21.3664 0,1.6933 3.258,8.7326 4.409,9.5248 1.439,0.9907 3.535,6.2723 3.535,8.9068 0,1.5489 1.539,7.4269 3.42,13.0622 2.972,8.9049 3.363,10.9969 2.988,15.983 -0.45,5.9723 -1.721,8.3585 -4.98,9.3492 -1.028,0.3125 -2.521,1.1391 -3.317,1.837 -2.222,1.9468 -11.758,-0.7316 -15.543,-4.3655 -1.577,-1.5147 -2.868,-3.1877 -2.868,-3.7179 0,-1.4887 -7.05,-7.0333 -12.372,-9.7302 -2.632,-1.3337 -7.011,-4.7571 -9.732,-7.6075 -4.597,-4.8157 -5.227,-5.1824 -8.905,-5.1824 -2.177,0 -4.729,-0.5831 -5.671,-1.2959 -2.229,-1.6861 -4.437,-1.67 -9.543,0.07 -2.596,0.8846 -4.705,2.3019 -5.58,3.7511 -0.773,1.2811 -2.147,3.4094 -3.051,4.7295 -0.905,1.32 -2.236,5.2079 -2.958,8.6397 -0.722,3.4318 -1.911,7.3958 -2.641,8.8092 -2.568,4.9659 -1.293,11.4942 3.005,15.3838 1.027,0.9294 2.692,3.3411 3.7,5.3593 1.699,3.4028 2.195,3.7383 6.828,4.6192 2.748,0.5224 7.356,1.7883 10.239,2.813 6.587,2.3406 17.533,1.9491 23.291,-0.8329 2.488,-1.2019 4.455,-1.5792 6.103,-1.1707 3.813,0.945 14.001,11.6384 15.149,15.8987 0.528,1.9629 2.235,4.9031 3.794,6.5336 2.44,2.5531 3.362,2.9415 6.645,2.7985 3.408,-0.1483 3.991,0.1282 5.5,2.6104 0.929,1.527 2.147,4.6874 2.707,7.023 0.693,2.8879 2.043,5.2415 4.22,7.3556 1.76,1.7099 3.5,3.1089 3.865,3.1089 0.365,0 3.452,1.3568 6.86,3.0151 10.5,5.1103 16.967,6.9098 22.394,6.2317 3.601,-0.4499 5.437,-0.2384 7.59,0.875 1.561,0.8075 3.702,1.5546 4.756,1.66 1.055,0.1054 3.903,1.1115 6.33,2.2358 2.428,1.1242 6.996,2.5012 10.153,3.06 3.157,0.5586 6.93,1.8628 8.385,2.898 4.253,3.0267 14.574,7.3851 17.488,7.3851 2.784,0 6.883,1.1329 11.908,3.2913 2.458,1.0555 5.248,1.0955 17.574,0.2521 8.059,-0.5515 16.083,-0.7611 17.832,-0.4654 2.231,0.3769 4.495,-0.019 7.581,-1.3274 2.421,-1.0255 5.195,-2.1946 6.166,-2.5977 0.971,-0.4032 3.95,-1.7315 6.619,-2.9518 5.509,-2.5179 9.455,-2.8073 11.662,-0.8551 1.061,0.9393 3.36,1.3197 7.725,1.2786 5.882,-0.056 6.279,0.069 7.44,2.3204 0.677,1.3123 1.078,3.9618 0.895,5.9094 -0.903,9.5958 -1.439,12.8144 -2.215,13.2939 -0.466,0.2882 -0.592,1.888 -0.279,3.5551 0.46,2.4536 0.32,2.9357 -0.736,2.5306 -1.315,-0.5048 -2.426,2.6981 -2.426,6.9965 0,1.0361 -0.785,2.374 -1.745,2.9733 -1.637,1.0224 -1.717,1.8327 -1.297,13.2306 0.249,6.788 0.08,12.9198 -0.383,13.9066 -4.437,9.4424 -4.492,9.6682 -4.116,16.8321 0.204,3.8898 1.15,9.6372 2.101,12.7722 3.644,12.0128 4.459,15.5627 4.65,20.2628 0.11,2.6698 0.58,5.8472 1.048,7.0608 0.467,1.2136 0.951,4.8412 1.077,8.0613 0.125,3.2201 0.658,6.5961 1.184,7.5021 0.986,1.6964 1.41,0.7815 1.079,-2.3243 -0.116,-1.0821 0.01,-1.1046 0.67,-0.1232 0.446,0.6605 0.618,1.9371 0.383,2.8369 -0.235,0.8997 0.194,2.2574 0.954,3.0171 1.253,1.2534 1.526,1.1541 2.946,-1.0716 0.861,-1.3491 3.345,-4.3591 5.521,-6.6888 4.9,-5.2481 6.903,-8.2582 7.596,-11.4131 0.295,-1.3444 1.002,-2.467 1.57,-2.4947 1.471,-0.071 7.101,-7.7152 9.234,-12.5369 0.992,-2.244 3.25,-6.5458 5.016,-9.5595 1.766,-3.0137 3.745,-6.9091 4.398,-8.6565 0.653,-1.7475 2.079,-5.5601 3.169,-8.4727 1.09,-2.9125 2.321,-5.428 2.735,-5.5898 0.414,-0.1617 0.753,-0.8944 0.753,-1.6279 0,-0.7336 1.332,-5.3673 2.961,-10.2971 3.303,-9.9979 4.982,-17.8471 4.982,-23.2941 0,-1.9984 1.414,-8.925 3.141,-15.3925 1.727,-6.4675 2.96,-12.7248 2.739,-13.905 -0.385,-2.062 -0.05,-3.2578 2.662,-9.5301 3.109,-7.1909 3.802,-10.0873 2.841,-11.8823 -0.522,-0.9769 -0.673,-2.6294 -0.334,-3.6719 0.721,-2.2195 1.82,-9.4709 3.029,-19.9891 0.98,-8.5221 0.274,-26.9133 -1.135,-29.5672 -0.515,-0.9709 -0.995,-6.1341 -1.066,-11.4738 -0.118,-8.7976 -2.324,-25.0298 -3.706,-27.2666 -0.306,-0.4934 -0.679,-2.1065 -0.832,-3.5847 -0.152,-1.4784 -1.019,-3.3045 -1.925,-4.0586 -0.908,-0.7539 -1.863,-2.7397 -2.123,-4.4129 -0.874,-5.6205 -3.362,-16.2341 -5.163,-22.0182 -1.649,-5.3 -2.323,-7.1086 -4.436,-11.9153 -0.426,-0.9708 -1.345,-6.4102 -2.04,-12.0875 -0.696,-5.6774 -1.883,-11.5161 -2.637,-12.9747 -0.754,-1.4586 -1.371,-3.2569 -1.371,-3.9962 0,-0.7392 -0.749,-3.0427 -1.664,-5.1188 -2.797,-6.3461 -3.912,-10.6165 -4.095,-15.6898 -0.1,-2.6699 -1.036,-7.2373 -2.089,-10.15 -1.052,-2.9125 -2.534,-7.2814 -3.291,-9.7085 -0.758,-2.4272 -1.739,-4.7904 -2.18,-5.2516 -0.442,-0.4611 -0.803,-1.465 -0.803,-2.2307 0,-0.7659 -0.692,-2.3744 -1.539,-3.5745 -0.846,-1.2003 -2.222,-4.1117 -3.057,-6.4697 -0.834,-2.358 -2.444,-5.5354 -3.575,-7.0608 -2.546,-3.431 -7.449,-13.4535 -8.086,-16.528 -0.26,-1.2545 -1.619,-3.7231 -3.02,-5.4859 -1.401,-1.7629 -3.672,-5.4284 -5.046,-8.1456 -2.176,-4.301 -2.371,-5.2831 -1.501,-7.5881 0.884,-2.3412 0.69,-3.1779 -1.678,-7.2258 -1.473,-2.518 -4.228,-6.6463 -6.122,-9.1739 -1.895,-2.5277 -3.445,-4.8817 -3.445,-5.231 0,-0.3494 -1.333,-2.6502 -2.962,-5.1128 -1.629,-2.4628 -3.714,-5.6206 -4.634,-7.0173 -6.527,-9.914 -8.32,-12.5129 -12.057,-17.4723 -2.314,-3.071 -4.697,-6.237 -5.296,-7.0357 -0.599,-0.7986 -4.265,-4.916 -8.149,-9.1497 -3.883,-4.2336 -7.855,-8.7424 -8.826,-10.0192 -0.971,-1.277 -3.821,-4.4136 -6.335,-6.9705 -2.513,-2.5567 -5.806,-6.21 -7.317,-8.1185 -1.512,-1.9084 -3.527,-3.7168 -4.478,-4.0187 -0.951,-0.3018 -1.729,-0.8775 -1.729,-1.2792 0,-1.4839 -19.517,-20.0971 -27.266,-26.0032 -1.266,-0.9645 -3.252,-2.8636 -4.415,-4.22 -1.162,-1.3565 -2.664,-2.4663 -3.337,-2.4663 -0.673,0 -1.458,-0.6118 -1.745,-1.3594 -0.287,-0.7477 -4.346,-3.8611 -9.019,-6.9186 -4.674,-3.0576 -11.2,-7.6091 -14.502,-10.1145 -3.302,-2.5054 -6.579,-4.5552 -7.282,-4.5552 -0.702,0 -1.277,-0.3972 -1.277,-0.8827 0,-0.4855 -0.471,-0.8825 -1.046,-0.8825 -0.576,0 -1.866,-0.7442 -2.868,-1.6536 -2.131,-1.9335 -18.827,-12.4682 -19.761,-12.4682 -0.35,0 -2.017,-1.1141 -3.705,-2.4761 -1.688,-1.3619 -5.056,-3.2938 -7.483,-4.2931 -2.427,-0.9993 -6.597,-3.2808 -9.267,-5.07 -2.67,-1.7891 -5.955,-3.483 -7.3,-3.7642 -1.345,-0.2813 -2.659,-0.8573 -2.92,-1.28 -0.262,-0.4227 -1.052,-0.7686 -1.757,-0.7686 -1.265,0 -5.444,-1.7038 -14.06,-5.732 -5.595,-2.6159 -19.58,-8.3897 -20.321,-8.3897 -0.308,0 -3.011,-0.9462 -6.006,-2.1028 -2.996,-1.1566 -9.815,-3.4042 -15.155,-4.9947 -5.34,-1.5905 -13.68,-4.1783 -18.535,-5.7508 -4.854,-1.5726 -10.812,-3.1373 -13.239,-3.4772 -2.427,-0.34 -5.157,-1.0165 -6.067,-1.5034 -1.804,-0.9653 -2.796,-1.1855 -10.702,-2.3755 -2.913,-0.4385 -8.275,-1.4584 -11.915,-2.2667 -7.025,-1.5594 -15.847,-2.8921 -23.831,-3.5996 -2.67,-0.2367 -5.847,-0.6699 -7.061,-0.9626 -7.815,-1.8854 -54.042,-4.0946 -71.049,-3.3954 -12.962,0.5328 -42.105,2.8204 -45.454,3.568 -1.214,0.2709 -4.987,0.8947 -8.385,1.3866 -3.398,0.4916 -7.568,1.2185 -9.267,1.6151 -10.599,2.4741 -15.917,3.5942 -19.418,4.0895 -2.184,0.309 -8.048,1.9048 -13.031,3.5462 -4.983,1.6413 -9.664,2.9843 -10.402,2.9843 -0.738,0 -2.243,0.5903 -3.344,1.312 -2.562,1.6789 -11.909,4.8161 -14.432,4.8445 -1.064,0.013 -2.152,0.3748 -2.419,0.8066 -0.267,0.4316 -1.466,1.031 -2.665,1.3318 -1.199,0.3008 -5.547,2.1321 -9.663,4.0695 -4.116,1.9374 -7.694,3.5224 -7.951,3.5224 -1.587,0 -27.014,13.3659 -30.973,16.2811 -1.456,1.0724 -4.733,3.0743 -7.281,4.4486 -2.549,1.3742 -4.634,2.8326 -4.634,3.2409 0,0.4082 -0.448,0.7423 -0.996,0.7423 -0.548,0 -2.513,1.2908 -4.366,2.8685 -5.077,4.3209 -7.914,6.3202 -12.29,8.6596 -2.184,1.168 -5.759,3.5417 -7.943,5.275 -3.705,2.9393 -11.026,8.285 -19.898,14.5293 -6.694,4.7105 -29.965,27.9835 -37.508,37.5108 -4.035,5.097 -8.911,11.0546 -10.836,13.239 -8.768,9.9556 -10.819,12.4829 -17.186,21.1825 -7.071,9.6619 -8.389,11.629 -9.76,14.563 -0.453,0.9708 -2.257,3.8407 -4.009,6.3776 -1.752,2.5368 -3.185,4.9576 -3.185,5.3795 0,0.4219 -0.795,1.4859 -1.766,2.3645 -0.971,0.8787 -1.765,2.5055 -1.765,3.6152 0,1.1096 -0.405,2.2681 -0.9,2.5742 -0.935,0.5777 -6.394,11.7329 -7.444,15.2086 -0.328,1.0893 -1.165,2.5481 -1.859,3.2418 -0.693,0.6937 -1.381,2.0475 -1.528,3.0083 -0.146,0.9609 -0.696,2.2823 -1.22,2.9363 -0.525,0.6542 -1.259,2.1823 -1.632,3.3959 -0.844,2.7465 -9.122,16.222 -10.212,16.6224 -0.44,0.1617 -0.8,1.1746 -0.8,2.2506 0,1.0761 -0.336,2.3338 -0.745,2.7949 -0.628,0.7065 -2.372,4.8291 -6.329,14.9602 -0.38,0.9708 -1.295,3.1553 -2.036,4.8544 -0.74,1.6989 -1.618,4.1812 -1.951,5.5162 -0.332,1.335 -0.895,2.4272 -1.251,2.4272 -0.356,0 -1.128,2.2837 -1.718,5.0749 -0.589,2.7913 -1.387,5.8693 -1.773,6.8402 -1.881,4.7266 -2.983,8.3274 -3.78,12.3564 -0.481,2.4272 -1.192,4.8102 -1.581,5.2957 -0.389,0.4854 -0.943,2.6698 -1.23,4.8543 -0.967,7.3611 -3.184,17.8907 -3.974,18.8784 -0.752,0.9406 -1.227,3.3646 -2.352,12.0126 -0.284,2.1846 -0.919,5.5168 -1.411,7.4052 -0.492,1.8882 -1.025,5.1322 -1.183,7.2086 -0.158,2.0765 -0.532,4.9004 -0.831,6.2754 -2.275,10.4741 -3.924,73.7468 -2.343,89.8777 1.387,14.1515 2.462,23.466 3.974,34.4215 3.062,22.1961 5.374,31.746 5.374,31.746 l 8.422,18.1365 c 0,0 1.839,6.7825 3.018,12.3564 3.686,17.4362 5.016,22.0597 11.8,41.0258 1.91,5.3397 3.952,11.0987 4.539,12.7978 0.586,1.6989 1.575,4.2805 2.198,5.7369 0.623,1.4563 1.639,4.2345 2.259,6.1738 0.62,1.9393 2.089,5.3153 3.266,7.5021 1.177,2.1869 4.531,8.5437 7.455,14.1261 2.923,5.5825 5.63,10.3486 6.014,10.5913 0.384,0.2426 2.365,3.6078 4.402,7.478 2.037,3.8702 5.255,8.9861 7.152,11.3686 1.897,2.3823 3.449,4.7928 3.449,5.3563 0,0.5637 1.291,2.4003 2.869,4.0816 1.577,1.6811 3.331,4.0476 3.898,5.2588 1.333,2.8518 16.478,21.6893 23.517,29.2523 3.004,3.227 5.91,6.4045 6.458,7.0607 2.284,2.7367 15.944,15.5092 17.98,16.8119 1.213,0.7767 5.781,4.6717 10.15,8.6557 4.368,3.9839 9.532,8.2599 11.474,9.5022 1.941,1.2423 5.913,4.3573 8.826,6.9223 5.287,4.656 14.255,10.0509 16.708,10.0509 0.714,0 1.615,0.538 2.003,1.1955 1.483,2.5111 19.057,12.1051 24.612,13.4359 1.414,0.3389 2.969,0.9212 3.455,1.2937 0.485,0.3726 3.265,1.3588 6.178,2.1914 2.912,0.8327 5.757,1.8832 6.322,2.3345 0.565,0.4513 2.076,1.0109 3.358,1.2433 1.282,0.2325 5.984,2.179 10.447,4.3254 4.464,2.1463 10.499,4.7707 13.412,5.8318 10.931,3.9823 24.906,8.5814 30.45,10.0209 3.155,0.8193 7.065,1.9004 8.689,2.4026 4.125,1.2755 23.712,4.1616 38.077,5.6106 3.15,0.3176 6.031,0.7661 6.404,0.9966 0.373,0.2303 3.357,0.5851 6.631,0.7882 3.274,0.203 8.931,0.6363 12.572,0.9628 3.641,0.3265 8.407,0.6788 10.591,0.7831 2.185,0.1041 7.15,0.8928 11.033,1.7521 3.883,0.8595 9.444,2.0194 12.356,2.5775 5.251,1.0063 27.253,1.1047 50.309,0.2251 z m 8.239,-382.7197 c 0.162,-1.1101 -0.09,-2.4021 -0.557,-2.8709 -0.548,-0.5482 -0.985,0.2812 -1.223,2.3233 -0.407,3.4851 1.274,4.0023 1.78,0.5476 z m 367.236,267.0342 c 0.689,-0.8341 2.079,-1.957 3.09,-2.4955 1.672,-0.8908 1.725,-0.8423 0.586,0.5377 -0.688,0.8342 -2.078,1.9571 -3.089,2.4956 -1.672,0.8907 -1.725,0.8422 -0.587,-0.5378 z m 15.96,-18.1375 c 0,-0.4569 0.392,-1.0732 0.872,-1.3698 0.501,-0.3092 0.649,0.044 0.347,0.8305 -0.587,1.5291 -1.219,1.8088 -1.219,0.5393 z"
         id="path5949-8-8" /><path
         style="fill:#000000;stroke-width:2.13069"
         d="m 10383.458,-662.94339 c 0.887,-2.65107 1.458,-9.26283 1.269,-14.69352 -0.237,-6.82321 0.592,-10.23312 2.689,-11.03764 1.668,-0.64043 3.651,-4.82781 4.409,-9.30545 0.758,-4.47765 3.969,-12.07764 7.138,-16.88886 3.167,-4.81157 8.435,-12.75766 11.699,-17.65855 3.266,-4.90054 8.302,-9.8092 11.192,-10.90806 2.892,-1.09886 9.808,-4.08283 15.37,-6.63105 17.105,-7.8368 23.902,-8.619 33.73,-3.88287 7.26,3.49719 10.201,7.02957 17.718,21.28903 8.823,16.73087 11.641,26.85268 14.368,51.58038 1.272,11.51738 1.079,12.25154 -3.204,12.25154 -2.676,0 -4.557,1.34955 -4.557,3.27086 0,2.61081 -0.862,2.81075 -4.263,0.9906 -2.344,-1.25449 -4.259,-3.50532 -4.259,-5.00171 0,-1.49638 -1.918,-6.68991 -4.263,-11.54105 -2.344,-4.85081 -4.262,-10.85293 -4.262,-13.33754 0,-7.58984 -10.749,-23.64271 -17.38,-25.95445 -3.793,-1.32181 -6.056,-3.62643 -6.056,-6.16382 0,-4.37852 -7.102,-2.54416 -7.102,-2.54416 l -4.912,0.27404 -10.664,0.38061 -6.36,4.19616 c 0,0 0.667,1.47101 -0.792,3.22858 -1.461,1.7579 -2.151,3.1961 -1.539,3.1961 0.616,0 -1.651,2.96332 -5.034,6.58502 -3.383,3.62205 -7.176,10.383 -8.424,15.02474 -1.249,4.64173 -5.356,9.62312 -5.356,9.62312 l -5.819,15.38234 c 0,0 -8.61,11.8222 -12.538,12.4217 -3.728,0.56905 -4.165,-0.0744 -2.798,-4.14576 z"
         id="path52393-0-8" /><path
         style="fill:#000000;stroke-width:2.13069"
         d="m 10630.774,-667.8684 c -8.921,-1.37256 -12.575,-11.09211 -5.484,-27.2617 4.825,-10.99976 5.657,-16.57728 5.657,-16.57728 l 3.813,-9.64546 c 0,0 3.626,-7.14935 5.352,-8.16059 1.722,-1.01089 4.469,-4.35044 6.1,-7.42067 8.847,-16.65746 21.656,-29.57412 29.329,-29.57412 14.145,0 32.57,6.58977 40.445,14.46514 7.562,7.56447 15.222,19.61234 15.222,23.94789 0,1.21388 1.607,5.77171 3.576,10.12858 4.411,9.77741 5.409,30.29406 1.472,30.29406 -1.489,0 -3.644,1.67772 -4.791,3.72861 -2.061,3.67888 -6.262,-3.87917 -17.092,-30.74098 -5.024,-12.46129 -9.51,-14.5274 -27.376,-12.61421 -3.81,0.40768 -10.282,0.86136 -14.383,1.00785 -4.844,0.17254 -7.459,1.31132 -7.459,3.24956 0,1.6405 -5.803,5.04196 -7.775,10.75987 -2.754,7.97519 -3.349,9.60386 -3.349,9.60386 l -1.658,10.74397 c 0,0 -2.132,2.44842 -2.132,5.44085 0,4.88227 -10.142,20.5992 -12.784,19.80821 -0.586,-0.17592 -3.594,-0.7081 -6.683,-1.18344 z"
         id="path52393-0-3-1" /><path
         style="fill:#000000;stroke-width:2.13069"
         d="m 10531.192,-304.23321 c -6.066,-2.1172 -14.501,-3.97964 -18.746,-4.13933 -7.2,-0.62081 -22.18,-8.66738 -22.18,-8.66738 0,0 -3.607,-2.76068 -11.178,-7.40647 -15.993,-9.81158 -17.383,-10.81402 -23.751,-17.11148 -6.218,-6.15063 -24.781,-19.36299 -29.338,-20.88238 -4.172,-1.39014 -25.469,-40.66554 -25.469,-46.96504 0,-3.72827 -6.161,-19.22529 -8.279,-20.82892 -3.745,-2.8324 -8.769,-13.22657 -8.769,-18.1376 0,-3.16971 -2.315,-7.65005 -5.46,-10.56501 -5.157,-4.77841 -5.316,-5.54639 -2.859,-13.74758 1.431,-4.77773 5.264,-8.68666 5.264,-8.68666 l 11.046,2.52182 c 0,0 6.326,2.25389 7.913,7.65244 1.131,3.83754 3.089,6.58097 4.351,6.09616 6.279,-2.4095 12.951,8.31992 13.6,21.87229 0.237,5.15835 1.6,11.00415 3.008,12.99144 5.43,7.67035 42.699,46.87775 44.556,46.87775 1.079,0 5.068,2.36824 8.865,5.26289 3.792,2.89465 11.16,7.25794 16.371,9.69689 5.207,2.4386 13.83,7.12025 19.162,10.40431 5.332,3.28371 14.92,7.68287 21.308,9.77605 6.387,2.09284 15.735,5.71758 20.776,8.05469 7.781,3.60985 11.627,4.02768 25.566,2.77624 9.024,-0.81028 18.53,-2.85575 21.128,-4.54565 2.595,-1.6899 5.978,-3.07294 7.518,-3.07294 5.961,0 32.542,-12.68661 33.195,-15.84414 0.379,-1.83267 1.817,-3.3639 3.198,-3.40281 4.127,-0.11503 10.866,-6.76942 19.355,-19.11229 16.953,-24.64245 28.479,-61.23431 30.178,-95.79254 0.893,-18.16432 3.84,-23.51923 12.951,-23.51923 7.798,0 8.116,0.65567 10.091,20.71457 0.603,6.11985 0.305,11.61887 -0.675,12.21973 -0.972,0.60119 -1.307,9.8268 -0.745,20.50143 0.795,15.04841 0.203,21.54616 -2.612,28.92556 -1.996,5.23447 -3.078,10.07276 -2.398,10.7521 1.201,1.2007 -0.633,5.59343 -7.832,18.74793 -1.926,3.5158 -5.441,10.5508 -7.816,15.63437 -2.94,6.28833 -6.364,10.01288 -10.714,11.65508 -3.516,1.32722 -6.909,4.03444 -7.538,6.01632 -0.626,1.98153 -4.7,6.28596 -9.05,9.56494 -4.347,3.27899 -8.864,7.05631 -10.034,8.39403 -1.174,1.33737 -5.955,5.21179 -10.627,8.60952 -4.669,3.3974 -11.656,9.29327 -15.519,13.10173 -3.863,3.80879 -8.617,6.14488 -10.15,6.92504 -1.508,0.76933 -2.27,1.46019 -3.122,1.90271 -3.126,0.92225 -7.119,3.21605 -8.929,3.93937 -3.896,1.38643 -12.865,5.04196 -26.324,3.7002 -6.979,-0.69592 -13.648,-1.17397 -14.821,-1.06266 -20.022,1.90338 -24.539,1.66791 -34.465,-1.79749 z"
         id="path52393-0-1-03" /></g></g></svg>
