<?xml version="1.0" encoding="UTF-8" standalone="no"?>
<!-- Created with Inkscape (http://www.inkscape.org/) -->

<svg
   version="1.1"
   id="svg176"
   width="763.35132"
   height="782.1369"
   viewBox="0 0 763.35134 782.1369"
   xml:space="preserve"
   xmlns="http://www.w3.org/2000/svg"
   xmlns:svg="http://www.w3.org/2000/svg"><defs
     id="defs180"><linearGradient
       id="linearGradient1486"><stop
         style="stop-color:#000000;stop-opacity:1;"
         offset="0"
         id="stop1484" /></linearGradient></defs><g
     id="g182"
     transform="translate(-11486.662,2167.7222)"><path
       style="fill:#000000;stroke-width:2.31435"
       d="m 11908.261,-1385.9608 c -1.333,-0.2036 -2.096,-0.9253 -2.679,-2.531 -0.45,-1.2346 -1.432,-3.5101 -2.181,-5.0568 -0.75,-1.5467 -1.363,-3.1964 -1.361,-3.6662 0,-0.4698 -0.632,-1.1925 -1.405,-1.6066 -0.773,-0.4139 -1.406,-1.1771 -1.406,-1.6962 0,-0.5189 -0.464,-1.3291 -1.033,-1.8004 -0.567,-0.4711 -0.969,-1.0634 -0.897,-1.3162 0.138,-0.4329 -2.156,-4.2667 -2.993,-5.0295 -1.069,-0.9736 -4.98,-6.3274 -4.625,-6.3274 0.478,0 -7.835,-12.6496 -9.007,-13.709 -0.764,-0.6909 -4.161,-7.2653 -4.249,-8.2219 -0.05,-0.5019 -2.467,-3.6789 -4.964,-6.512 -1.396,-1.5812 -2.136,-2.7272 -4.541,-7.0053 -0.683,-1.2175 -2.235,-3.2064 -3.448,-4.4195 -1.213,-1.2129 -2.206,-2.7538 -2.206,-3.4238 0,-0.6698 -0.797,-2.2611 -1.768,-3.5366 -0.974,-1.275 -1.715,-2.5703 -1.645,-2.8783 0.07,-0.3081 -0.113,-1.1271 -0.429,-1.8206 -0.303,-0.6933 -0.357,-1.4535 -0.113,-1.6897 0.236,-0.2358 -0.236,-1.5036 -1.047,-2.817 -1.282,-2.0734 -2.494,-5.799 -4.78,-14.6894 -0.727,-2.8325 -4.992,-10.8278 -5.775,-10.8278 -0.333,0 -0.606,-0.4848 -0.606,-1.0767 0,-0.5921 -0.451,-1.2502 -1.004,-1.4625 -0.554,-0.2129 -1.341,-1.3481 -1.751,-2.524 -1.034,-2.9648 -7.153,-13.2157 -7.888,-13.2157 -0.335,0 -0.607,-0.8699 -0.61,-1.9334 0,-1.2462 -0.895,-2.87 -2.506,-4.57 -2.083,-2.1982 -2.726,-2.516 -3.861,-1.9089 -0.749,0.4008 -1.362,1.113 -1.364,1.5828 0,0.4695 -1.13,1.62 -2.508,2.5566 -1.374,0.9364 -4.455,3.9161 -6.848,6.6215 -6.167,6.973 -10.374,11.0089 -11.483,11.0089 -0.524,0 -0.959,0.2373 -0.965,0.5275 -0.02,0.2898 -1.116,1.789 -2.461,3.3318 -1.347,1.5423 -2.445,3.1611 -2.445,3.5974 0,0.436 -1.281,1.6386 -2.843,2.6724 -1.562,1.0338 -3.193,2.6575 -3.627,3.6085 -0.435,0.951 -1.038,1.7291 -1.343,1.7291 -0.533,0 -9.367,8.6982 -10.819,10.6533 -0.385,0.5208 -1.166,1.8432 -1.733,2.9393 -0.564,1.096 -2.068,2.9054 -3.339,4.021 -1.27,1.1155 -2.31,2.4518 -2.31,2.9697 0,1.1424 -1.768,3.6668 -2.581,3.6819 -1.139,0.023 -8.752,8.1801 -11.194,11.9979 -1.366,2.1324 -3.226,4.1602 -4.136,4.5059 -0.91,0.3461 -1.867,1.3008 -2.126,2.1214 -0.262,0.8209 -2.183,3.111 -4.268,5.089 -2.088,1.9781 -3.669,3.724 -3.512,3.8801 0.429,0.4295 -1.92,2.9766 -2.744,2.9766 -0.842,0 -4.589,4.5193 -4.589,5.533 0,0.3781 -0.968,1.423 -2.148,2.3225 -1.182,0.8996 -3.536,2.9799 -5.233,4.6233 -4.103,3.9751 -6.784,4.1163 -8.522,0.4491 -0.663,-1.3963 -1.177,-3.0574 -1.14,-3.691 0.03,-0.6337 -0.384,-3.0522 -0.928,-5.3746 -0.988,-4.2117 -0.927,-6.2902 0.423,-13.8195 0.394,-2.1896 0.729,-5.6696 0.748,-7.7332 0.02,-2.0636 0.05,-4.8591 0.06,-6.2127 0.02,-1.3531 -0.209,-7.9967 -0.518,-14.7634 -0.632,-13.8736 -0.626,-12.8301 -0.162,-24.372 0.185,-4.7044 0.08,-10.2407 -0.283,-12.3028 -0.342,-2.0621 -0.652,-4.9399 -0.69,-6.3955 -0.05,-1.4552 -0.312,-2.7981 -0.613,-2.9841 -0.301,-0.1852 -0.301,-1.4309 0,-2.7671 0.301,-1.336 0.426,-2.5517 0.275,-2.7012 -0.757,-0.7572 -1.606,-12.0245 -1.705,-22.6466 -0.139,-14.6809 -2.479,-29.515 -4.756,-30.1338 -1.974,-0.5362 -5.707,-0.3918 -6.096,0.2356 -0.208,0.3238 -1.56,0.4284 -3.023,0.2322 -2.242,-0.3008 -3.985,0.3149 -11.15,3.936 -4.672,2.3608 -9.408,4.4278 -10.524,4.5932 -1.117,0.1644 -3.295,0.7829 -4.841,1.3727 -1.548,0.5899 -3.328,1.0861 -3.957,1.103 -0.63,0.023 -1.54,0.5054 -2.021,1.0854 -0.482,0.58 -1.604,1.0544 -2.495,1.0544 -0.893,0 -2.12,0.4975 -2.726,1.105 -0.609,0.6076 -1.104,0.906 -1.104,0.6632 0,-0.243 -0.704,0.052 -1.565,0.6526 -0.859,0.602 -2.418,1.0945 -3.464,1.0945 -1.047,0 -2.323,0.4219 -2.84,0.9373 -0.514,0.5156 -1.409,0.9373 -1.986,0.9373 -1.336,0 -10.037,3.8358 -10.629,4.6864 -0.245,0.3524 -0.878,0.491 -1.405,0.3084 -0.528,-0.1827 -1.676,0.2222 -2.55,0.9008 -0.875,0.6783 -2.176,1.0801 -2.891,0.8928 -0.778,-0.2036 -1.473,0.1069 -1.727,0.7712 -0.236,0.6113 -0.773,1.1111 -1.194,1.1111 -0.422,0 -0.571,-0.3163 -0.331,-0.703 0.615,-0.997 0.511,-0.9593 -4.682,1.707 -2.576,1.3215 -4.862,2.2241 -5.08,2.0054 -0.231,-0.2199 -0.86,-0.023 -1.423,0.4529 -0.565,0.4678 -2.141,0.989 -3.507,1.1581 -1.365,0.1689 -3.638,1.0927 -5.052,2.0519 -1.411,0.9593 -2.825,1.5853 -3.141,1.3909 -0.314,-0.1943 -0.767,-0.033 -1.011,0.3618 -0.243,0.393 -0.877,0.7145 -1.409,0.7145 -0.533,0 -1.859,0.3658 -2.946,0.813 -1.091,0.4471 -2.554,0.7403 -3.252,0.6515 -0.699,-0.088 -1.682,0.1782 -2.182,0.5933 -0.5,0.415 -1.824,0.8577 -2.945,0.9836 -2.668,0.3001 -5.394,1.4719 -6.486,2.7884 -0.491,0.5927 -1.49,0.8944 -2.279,0.6882 -0.795,-0.2083 -1.985,0.1575 -2.741,0.8445 -0.738,0.6664 -1.634,1.0297 -1.992,0.8077 -0.36,-0.2222 -1.226,0.2269 -1.922,0.9961 -0.696,0.7703 -2.49,1.596 -3.985,1.8353 -1.497,0.2391 -3.103,0.9595 -3.573,1.6008 -0.794,1.0846 -2.923,1.6589 -5.423,1.4623 -0.581,-0.047 -3.333,-0.055 -6.117,-0.025 -4.501,0.05 -5.151,-0.1106 -5.876,-1.4616 -0.647,-1.2122 -0.938,-1.3226 -1.43,-0.5457 -0.477,0.755 -0.639,0.658 -0.722,-0.4323 -0.234,-3.1135 0.208,-7.044 0.835,-7.2648 0.905,-0.3232 0.829,-2.2261 -0.09,-2.2261 -0.41,0 -0.563,-0.2944 -0.341,-0.6545 0.231,-0.3599 0.14,-0.8162 -0.185,-1.0139 -0.945,-0.5835 -0.373,-4.6484 0.842,-5.9912 0.619,-0.6813 1.123,-1.7676 1.123,-2.4139 0,-0.6461 0.316,-1.1749 0.704,-1.1749 0.387,0 0.701,-0.5351 0.701,-1.1894 0,-0.6543 1.282,-2.3847 2.849,-3.8455 1.567,-1.4609 2.965,-3.253 3.103,-3.9825 0.139,-0.7297 1.055,-2.1878 2.029,-3.2406 0.978,-1.0528 1.619,-2.3227 1.427,-2.8222 -0.186,-0.4994 0.138,-1.0916 0.715,-1.3159 0.586,-0.2245 1.708,-1.6707 2.495,-3.2136 0.786,-1.5433 2.541,-3.6525 3.897,-4.6876 1.358,-1.0347 2.467,-2.3187 2.467,-2.8528 0,-0.534 0.318,-0.9709 0.704,-0.9709 0.387,0 0.703,-0.4377 0.703,-0.9727 0,-0.5346 0.664,-1.1463 1.477,-1.3586 0.836,-0.2199 1.271,-0.7194 1.002,-1.1542 -0.264,-0.4255 -0.08,-0.6815 0.44,-0.5743 0.502,0.1068 1.02,-0.4958 1.147,-1.3378 0.139,-0.8419 0.692,-1.9086 1.248,-2.3707 0.558,-0.4623 1.014,-1.2761 1.014,-1.8088 0,-0.5324 0.314,-0.9685 0.701,-0.9685 0.389,0 0.666,-0.2372 0.62,-0.5272 -0.209,-1.2941 0.209,-2.1191 2.194,-4.2807 1.16,-1.2698 2.11,-2.8431 2.113,-3.496 0,-0.6526 0.423,-1.9917 0.937,-2.9752 0.514,-0.9837 1.144,-2.8447 1.403,-4.1359 0.259,-1.2909 1.576,-3.8878 2.929,-5.7705 1.353,-1.883 2.459,-3.7005 2.459,-4.0388 0,-0.3383 0.465,-1.001 1.031,-1.4719 0.57,-0.4712 0.993,-1.0635 0.943,-1.3165 -0.05,-0.2528 0.275,-1.3504 0.724,-2.4391 0.45,-1.0883 0.817,-2.7491 0.817,-3.6906 0,-0.9415 0.368,-1.7119 0.817,-1.7119 1.074,0 4.02,-3.3503 6.214,-7.0683 0.968,-1.6384 3.18,-4.491 4.92,-6.3398 1.741,-1.8487 3.955,-4.5199 4.923,-5.9362 0.965,-1.4159 3.023,-4.1261 4.568,-6.0224 1.546,-1.8962 3.683,-4.5215 4.747,-5.8338 1.062,-1.3125 1.933,-2.8647 1.933,-3.4493 0,-0.5848 1.106,-2.7087 2.46,-4.7196 2.493,-3.7028 3.123,-6.538 1.657,-7.4444 -0.442,-0.2731 -1.787,-0.6249 -2.988,-0.7811 -3.607,-0.4698 -4.943,-0.7098 -6.049,-1.0882 -3.914,-1.3366 -6.281,-1.7233 -6.504,-1.0616 -0.138,0.4282 -0.655,0.3138 -1.262,-0.2814 -1.552,-1.5217 -5.229,-2.8392 -8.572,-3.0716 -1.647,-0.1156 -4.788,-0.6758 -6.977,-1.247 -2.891,-0.7543 -4.192,-0.8272 -4.752,-0.2661 -0.559,0.5607 -1.078,0.3341 -1.893,-0.8284 -0.685,-0.9782 -1.541,-1.4388 -2.203,-1.1847 -0.597,0.2291 -1.697,-0.1365 -2.442,-0.8135 -0.748,-0.676 -2.52,-1.2872 -3.941,-1.3581 -1.421,-0.069 -3.848,-0.467 -5.395,-0.8801 -1.546,-0.413 -3.98,-0.7587 -5.405,-0.7678 -1.429,-0.023 -2.778,-0.3091 -2.998,-0.6661 -0.368,-0.5965 -6.837,-3.0989 -8.468,-3.2767 -0.389,-0.042 -1.179,-0.2361 -1.759,-0.431 -0.581,-0.1944 -2.558,-0.8609 -4.393,-1.4802 -2.152,-0.7251 -3.339,-0.857 -3.339,-0.3704 0,0.4887 -0.31,0.5217 -0.88,0.093 -0.483,-0.3638 -1.828,-0.7202 -2.988,-0.792 -1.159,-0.072 -2.979,-0.7715 -4.043,-1.5547 -1.062,-0.7832 -1.933,-1.0907 -1.933,-0.6837 0,0.4071 -0.821,0.2014 -1.825,-0.4562 -1.005,-0.6581 -2.949,-1.3116 -4.322,-1.4524 -1.372,-0.1411 -3.1,-0.5809 -3.843,-0.9776 -0.741,-0.3972 -2.988,-0.6728 -4.994,-0.6131 -2.005,0.06 -3.803,0.058 -3.998,-0.023 -0.185,-0.063 -1.771,-0.2709 -3.504,-0.4626 -1.735,-0.1922 -3.522,-0.6539 -3.971,-1.0271 -0.449,-0.3733 -1.876,-0.686 -3.173,-0.6945 -1.296,-0.024 -4.779,-0.1782 -7.737,-0.3781 -4.478,-0.3009 -5.438,-0.5815 -5.723,-1.6693 -0.234,-0.8944 -0.778,-1.1934 -1.72,-0.947 -0.759,0.1991 -1.839,-0.058 -2.402,-0.5725 -1.951,-1.7793 -8.285,-4.7721 -9.288,-4.3876 -0.553,0.2129 -1.215,0.049 -1.469,-0.3647 -0.255,-0.4111 -0.08,-0.7489 0.388,-0.7489 0.586,0 0.517,-0.3863 -0.231,-1.2301 -2.293,-2.6289 -0.828,-8.6858 2.345,-9.6927 0.749,-0.2379 2.523,-1.4961 3.941,-2.7956 1.419,-1.2999 2.812,-2.2196 3.097,-2.0442 0.282,0.1758 0.715,0 0.958,-0.3955 0.242,-0.393 1.055,-0.7145 1.804,-0.7145 0.896,0 1.366,-0.4831 1.366,-1.406 0,-0.7734 0.315,-1.4455 0.702,-1.4939 0.388,-0.049 0.995,-0.1273 1.351,-0.1758 1.259,-0.1713 6.346,-3.6123 6.365,-4.3062 0.03,-0.3867 1.629,-0.703 3.601,-0.703 1.969,0 3.731,-0.2423 3.913,-0.5386 0.185,-0.2965 0.621,-0.3624 0.968,-0.1481 0.349,0.2152 1.576,-0.094 2.728,-0.6913 1.153,-0.596 2.71,-1.0836 3.46,-1.0836 0.753,0 1.523,-0.3953 1.711,-0.8787 0.184,-0.4832 2.173,-1.8275 4.406,-2.9875 2.233,-1.1597 4.21,-2.6804 4.392,-3.3791 0.209,-0.782 0.737,-1.1153 1.385,-0.8669 1.288,0.4953 3.136,-0.9124 2.514,-1.9182 -0.264,-0.4252 -0.113,-0.5217 0.358,-0.2314 0.446,0.2756 0.812,0.1319 0.812,-0.3182 0,-0.4509 0.44,-0.6506 0.979,-0.444 0.539,0.206 1.694,-0.3841 2.567,-1.313 1.588,-1.69 5.801,-3.5755 9.109,-4.0757 2.583,-0.3908 6.328,-1.9169 6.328,-2.5802 0,-0.3166 -0.396,-0.7638 -0.88,-0.9936 -0.484,-0.2291 -0.184,-0.2911 0.658,-0.1365 0.918,0.1689 1.699,-0.1413 1.939,-0.7681 0.231,-0.5812 0.869,-0.8705 1.451,-0.6481 0.636,0.2446 1.491,-0.2775 2.182,-1.3331 0.625,-0.9541 1.498,-1.7403 1.935,-1.747 0.44,-0.023 1.472,-0.7238 2.296,-1.5933 0.824,-0.8694 3.353,-2.3427 5.623,-3.2736 2.271,-0.9311 4.287,-1.8748 4.479,-2.0978 0.796,-0.9164 4.923,-2.9023 4.943,-2.3779 0.03,0.3117 0.327,0.042 0.701,-0.5981 0.42,-0.72 1.218,-1.0241 2.088,-0.7967 0.773,0.2036 1.407,0.079 1.407,-0.2758 0,-0.354 1.109,-1.0442 2.461,-1.5335 1.354,-0.4893 2.462,-1.145 2.462,-1.4573 0,-0.3122 1.238,-0.7657 2.752,-1.008 1.513,-0.242 2.858,-0.7018 2.988,-1.0214 0.138,-0.3196 3.395,-2.1391 7.257,-4.0433 8.663,-4.2707 9.885,-5.9672 7.205,-10.0139 -0.942,-1.4235 -2.629,-3.0581 -3.751,-3.6326 -1.124,-0.5743 -2.879,-1.6397 -3.907,-2.3675 -1.026,-0.7276 -2.212,-1.1091 -2.636,-0.8473 -0.423,0.2616 -0.769,0.1273 -0.769,-0.2983 0,-1.1403 -2.15,-3.1894 -4.709,-4.4908 -1.237,-0.6284 -3.109,-1.9422 -4.164,-2.92 -1.289,-1.1942 -2.081,-1.5163 -2.411,-0.9813 -0.602,0.9757 -4.837,-0.8711 -6.689,-2.9182 -0.676,-0.7459 -1.603,-1.3562 -2.064,-1.3562 -0.46,0 -1.412,-0.6348 -2.113,-1.4108 -1.391,-1.5357 -12.356,-7.7285 -13.687,-7.7285 -0.449,0 -2.198,-0.9491 -3.884,-2.1091 -1.686,-1.16 -3.335,-2.1091 -3.663,-2.1091 -0.331,0 -2.282,-1.6039 -4.337,-3.5643 -2.055,-1.9602 -4.155,-3.4038 -4.664,-3.208 -0.512,0.1969 -1.087,-0.058 -1.282,-0.5632 -0.185,-0.506 -1.229,-1.1397 -2.301,-1.4086 -1.068,-0.2687 -2.335,-1.021 -2.811,-1.6721 -0.477,-0.651 -1.128,-1.211 -1.449,-1.2444 -1.419,-0.1481 -3.516,-1.3673 -4.946,-2.8749 -0.849,-0.8987 -2.007,-1.6341 -2.566,-1.6341 -0.561,0 -1.672,-1.1072 -2.47,-2.4606 -0.799,-1.3533 -1.798,-2.4605 -2.219,-2.4605 -0.424,0 -0.574,0.3165 -0.336,0.7029 0.24,0.3867 0.114,0.7032 -0.261,0.7032 -0.385,0 -0.899,-0.6328 -1.144,-1.4061 -0.245,-0.7734 -0.662,-1.4302 -0.926,-1.4598 -2.337,-0.2618 -3.432,-0.7811 -4.255,-2.0165 -0.533,-0.7948 -1.322,-1.4495 -1.76,-1.4548 -0.435,0 -2.486,-1.7131 -4.552,-3.7952 -2.741,-2.756 -4.65,-4.0241 -7.031,-4.666 -4.015,-1.0822 -7.189,-2.7284 -8.405,-4.3592 -0.508,-0.6766 -1.385,-1.2302 -1.952,-1.2302 -0.569,0 -1.362,-0.8696 -1.768,-1.932 -0.402,-1.0629 -1.15,-2.4072 -1.662,-2.988 -0.578,-0.659 -0.721,-1.5839 -0.382,-2.462 0.926,-2.3885 6.377,-8.0846 7.738,-8.0846 0.708,0 1.393,-0.3204 1.524,-0.7117 0.14,-0.3916 2.132,-1.0204 4.449,-1.3974 2.317,-0.3773 4.319,-1.0061 4.451,-1.3974 0.138,-0.3914 0.684,-0.7117 1.232,-0.7117 0.547,0 0.996,-0.277 0.996,-0.6152 0,-0.3383 0.739,-0.615 1.641,-0.615 0.905,0 2.882,-0.5907 4.395,-1.3127 1.513,-0.7222 3.015,-1.3153 3.335,-1.3184 0.322,0 0.967,-0.5278 1.434,-1.1664 0.519,-0.7098 2.41,-1.3562 4.863,-1.6629 2.21,-0.2761 4.018,-0.7484 4.018,-1.0498 0,-0.3012 1.138,-0.2909 2.532,0.023 2.879,0.6495 8.049,0.2268 10.755,-0.8783 1.004,-0.4105 2.776,-0.8364 3.936,-0.9465 2.937,-0.2789 12.456,-2.7687 14.246,-3.7262 0.814,-0.4357 2.135,-0.7926 2.938,-0.7926 0.803,0 2.002,-0.6325 2.664,-1.4059 0.663,-0.7733 1.905,-1.4062 2.764,-1.4062 0.858,0 1.754,-0.3162 1.994,-0.7029 0.239,-0.3867 0.987,-0.7029 1.662,-0.7029 0.673,0 2.722,-0.9491 4.553,-2.1094 1.827,-1.1598 4.052,-2.1089 4.94,-2.1089 0.889,0 1.854,-0.2373 2.144,-0.5274 0.292,-0.2899 3.744,-0.5417 7.674,-0.5595 5.569,-0.025 8.14,-0.383 11.636,-1.6208 2.467,-0.8738 4.944,-1.4142 5.5,-1.2006 0.555,0.2129 1.541,0.1131 2.192,-0.2246 1.034,-0.5376 3.388,-0.3405 10.668,0.8932 0.968,0.1643 3.339,0 5.272,-0.3745 1.936,-0.3699 7.293,-0.9863 11.908,-1.3704 9.046,-0.7522 14.372,-2.1196 16.223,-4.1648 1.098,-1.2134 1.007,-1.4412 -1.601,-3.9782 -1.52,-1.4799 -3.502,-3.9566 -4.405,-5.503 -0.899,-1.5467 -2.522,-3.9543 -3.6,-5.3503 -1.081,-1.3959 -1.762,-2.7405 -1.516,-2.9878 0.248,-0.2474 0.113,-0.4498 -0.294,-0.4498 -0.407,0 -0.94,-0.7852 -1.18,-1.7447 -0.241,-0.9596 -1.385,-2.8203 -2.537,-4.1351 -1.155,-1.315 -2.099,-2.72 -2.099,-3.1227 0,-0.4028 -0.87,-1.7584 -1.936,-3.0133 -2.216,-2.6176 -4.547,-6.3001 -6.075,-9.6017 -0.583,-1.2565 -2.022,-3.3128 -3.199,-4.5698 -1.179,-1.2569 -2.144,-2.6059 -2.147,-2.9977 0,-0.3919 -1.108,-2.3567 -2.462,-4.3663 -1.353,-2.0095 -2.459,-3.9825 -2.459,-4.3845 0,-0.4018 -0.261,-0.7307 -0.575,-0.7307 -0.315,0 -1.062,-1.0283 -1.664,-2.2849 -0.599,-1.2565 -2.222,-3.6377 -3.605,-5.2913 -1.383,-1.6536 -3.204,-4.3882 -4.048,-6.0773 -0.842,-1.6889 -2.239,-3.8304 -3.097,-4.7586 -0.861,-0.9279 -1.773,-2.7804 -2.023,-4.1162 -0.57,-3.0163 -4.883,-10.2737 -7.179,-12.0812 -0.942,-0.7408 -1.713,-1.9223 -1.713,-2.6251 0,-3.2668 -4.969,-11.6021 -7.785,-13.0576 -2.165,-1.1199 -3.749,-4.9642 -2.636,-6.3989 0.361,-0.4656 0.333,-2.0733 -0.08,-3.8434 -0.459,-2.0406 -0.448,-3.3299 0.05,-3.9141 0.398,-0.4793 0.53,-1.1824 0.297,-1.5626 -0.237,-0.38 0.139,-0.7018 0.817,-0.7145 0.684,-0.023 2.511,-0.155 4.059,-0.3143 1.546,-0.1597 3.02,0.042 3.277,0.4508 0.565,0.8978 6.915,1.276 6.915,0.412 0,-0.3356 0.349,-0.6103 0.778,-0.6103 0.429,0 0.605,0.4582 0.388,1.0186 -0.556,1.4494 2.04,2.0924 4.438,1.0988 1.624,-0.6721 2.395,-0.6103 4.23,0.3386 1.236,0.6385 2.726,0.9762 3.314,0.7504 0.784,-0.3012 0.957,-0.081 0.639,0.828 -0.382,1.0949 -0.315,1.0859 0.588,-0.079 0.942,-1.2139 1.111,-1.2276 2.161,-0.176 0.628,0.6273 1.436,1.1405 1.794,1.1405 0.359,0 0.847,0.079 1.088,0.176 0.965,0.3903 6.596,6.384 6.596,7.0221 0,0.3772 0.445,0.5152 0.987,0.3065 0.545,-0.2084 1.535,0.2267 2.206,0.9654 0.67,0.7398 2.329,1.5538 3.687,1.8085 1.359,0.2549 3.067,0.973 3.793,1.5956 0.727,0.6227 1.391,0.9796 1.474,0.7932 0.09,-0.1873 0.938,0.2084 1.894,0.8789 0.955,0.6697 2.291,1.2175 2.969,1.2175 1.52,0 10.761,4.7091 11.875,6.0512 0.447,0.5385 1.416,0.9788 2.158,0.9788 0.737,0 2.904,0.7912 4.811,1.7579 1.907,0.9667 3.888,1.7574 4.404,1.7574 0.513,0 3.45,1.223 6.527,2.7176 3.073,1.4945 7.329,3.2832 9.456,3.9746 2.127,0.6914 4.564,1.7103 5.417,2.2642 0.853,0.554 1.859,0.8167 2.236,0.5836 0.377,-0.233 0.889,-0.097 1.134,0.3025 0.247,0.3993 0.745,0.5434 1.107,0.3206 0.358,-0.2222 1.999,0.5362 3.64,1.6871 1.643,1.1512 4.094,2.3156 5.448,2.5879 1.354,0.2722 3.356,0.9526 4.451,1.512 1.095,0.5596 3.941,1.6407 6.326,2.4025 2.387,0.7621 5.445,2.1402 6.798,3.0626 2.825,1.9267 10.588,4.5968 13.363,4.5968 1.035,0 3.433,0.4712 5.333,1.047 4.549,1.3807 4.978,1.3317 3.001,-0.3439 -1.536,-1.3009 -1.569,-1.4615 -0.43,-2.1443 1.305,-0.783 1.714,-3.4798 0.528,-3.4798 -0.387,0 -0.704,-0.6142 -0.704,-1.3646 0,-0.7508 -0.317,-1.56 -0.704,-1.7992 -0.387,-0.2388 -0.701,-1.1069 -0.701,-1.9285 0,-0.8218 -0.599,-2.7804 -1.333,-4.3524 -2,-4.2872 -2.281,-8.3006 -0.762,-10.7999 0.715,-1.1754 1.005,-2.3566 0.665,-2.6985 -0.336,-0.3346 -0.764,-1.7157 -0.954,-3.0691 -0.49,-3.5117 -3.68,-18.172 -4.587,-21.086 -0.419,-1.3509 -0.763,-3.2241 -0.763,-4.1628 0,-0.939 -0.53,-2.2928 -1.179,-3.0091 -0.902,-0.9984 -0.985,-1.4953 -0.352,-2.1295 1.009,-1.0079 1.097,-5.2165 0.113,-5.8183 -0.385,-0.239 -0.705,-1.2859 -0.71,-2.3263 0,-1.0406 -0.511,-3.6319 -1.127,-5.7586 -0.613,-2.1267 -1.243,-5.4484 -1.395,-7.3819 -0.597,-7.4742 -1.306,-10.5868 -2.81,-12.3288 -0.63,-0.7264 -0.836,-2.374 -0.632,-5.03 0.232,-2.9928 0.08,-4.0436 -0.705,-4.3373 -0.556,-0.2129 -1.213,-0.063 -1.458,0.3363 -0.264,0.4249 -0.891,0.091 -1.523,-0.8102 -0.891,-1.2741 -0.913,-1.6339 -0.113,-2.1225 0.522,-0.3235 0.735,-0.8039 0.472,-1.0674 -0.263,-0.2634 -0.02,-1.5972 0.559,-2.9636 0.572,-1.3665 0.871,-3.0142 0.665,-3.6615 -0.497,-1.5679 -1.19,-8.2606 -1.127,-10.8994 0.28,-11.8036 -0.278,-19.4449 -1.484,-20.3268 -1.356,-0.9923 -2.322,-3.9278 -1.291,-3.9278 0.462,0 0.606,-0.7651 0.366,-1.9332 -0.479,-2.3139 -1.755,-7.141 -2.278,-8.6121 -0.208,-0.58 -0.492,-1.6805 -0.638,-2.4457 -0.139,-0.7648 -0.574,-1.6982 -0.95,-2.0738 -0.892,-0.8925 -0.867,-3.1795 0.07,-5.8546 0.782,-2.2486 3.678,-3.9657 6.004,-3.5609 1.71,0.2975 3.793,2.0598 3.793,3.2094 0,0.5024 0.754,1.2577 1.68,1.6787 0.924,0.421 2.022,1.5206 2.444,2.4433 0.669,1.4689 8.251,5.9004 10.092,5.9004 0.338,0 1.311,0.7429 2.162,1.6509 0.852,0.9076 1.914,1.5239 2.361,1.3691 0.446,-0.1551 1.238,0.318 1.757,1.0505 0.52,0.7322 1.42,1.5148 2,1.7387 0.848,0.3281 0.819,0.418 -0.163,0.4628 -1.039,0.046 -1.099,0.3112 -0.414,1.813 0.44,0.9667 1.099,1.7575 1.465,1.7575 0.366,0 1.287,0.791 2.049,1.7577 0.759,0.9665 1.796,1.7574 2.302,1.7574 0.506,0 1.101,0.6848 1.321,1.5216 0.319,1.2266 0.593,1.3603 1.4,0.689 0.819,-0.679 1.218,-0.3845 2.158,1.5986 0.633,1.3372 1.782,2.6302 2.547,2.8737 0.767,0.2431 1.394,0.8845 1.394,1.4251 0,1.1692 3.839,5.2497 4.939,5.2497 0.423,0 0.603,0.2658 0.402,0.5911 -0.426,0.6903 2.989,3.3535 5.545,4.326 0.973,0.3697 1.768,1.1245 1.768,1.6774 0,0.5527 1.355,1.7994 3.011,2.7702 2.593,1.5187 6.127,4.5315 12.128,10.3412 0.789,0.7617 1.771,1.3847 2.182,1.3847 0.686,0 1.93,1.0103 7.46,6.0555 1.12,1.0225 2.3,1.5503 2.811,1.2563 0.484,-0.2789 0.657,-0.2604 0.387,0.041 -0.626,0.6927 0.639,1.9075 3.131,3.01 1.063,0.4706 1.933,1.3368 1.933,1.9251 0,0.5883 0.269,1.0698 0.594,1.0698 0.329,0 1.678,1.028 3.003,2.2846 4.452,4.2302 8.532,7.5575 9.266,7.5575 0.4,0 0.521,0.2084 0.263,0.4644 -0.253,0.2552 0.246,0.9492 1.114,1.5423 0.867,0.5926 3.342,2.5984 5.498,4.4569 2.158,1.8584 4.12,3.3789 4.364,3.3789 0.24,0 1.191,0.712 2.107,1.5819 0.919,0.8699 2.989,2.6806 4.601,4.0241 1.895,1.5819 2.803,2.8419 2.569,3.5765 -0.386,1.2173 1.82,3.9554 4.713,5.8518 1.67,1.0946 1.874,1.0899 3.237,-0.079 0.801,-0.6858 1.926,-2.6703 2.5,-4.4103 1.433,-4.3363 3.386,-8.4838 7.118,-15.1152 1.743,-3.0931 3.171,-6.0499 3.176,-6.5702 0,-0.5203 0.671,-1.8762 1.482,-3.0131 0.809,-1.137 1.549,-2.4513 1.647,-2.9207 0.922,-4.4729 4.569,-12.6595 7.437,-16.6864 0.862,-1.2107 1.636,-3.0471 1.721,-4.0809 0.162,-1.908 2.374,-6.7052 4.596,-9.9432 6.402,-9.3277 9.631,-15.5307 8.787,-16.8917 -0.759,-1.231 0.262,-4.2207 1.443,-4.2207 1.194,0 4.283,-4.784 3.972,-6.1488 -0.114,-0.4849 0.314,-0.8815 0.948,-0.8815 0.631,0 1.307,-0.6031 1.502,-1.3405 0.185,-0.7373 1.585,-2.3337 3.097,-3.5483 1.796,-1.444 2.747,-2.7825 2.747,-3.8696 0,-0.9513 0.833,-2.3652 1.946,-3.3063 1.146,-0.9672 1.842,-2.1723 1.696,-2.9267 -0.138,-0.7054 0.253,-1.8385 0.869,-2.5178 0.613,-0.6793 0.902,-1.4499 0.638,-1.7126 -0.78,-0.7816 3.426,-4.681 5.05,-4.681 1.886,0 5.664,-3.32 6.61,-5.8086 0.933,-2.4532 3.568,-3.1274 6.001,-1.534 1.755,1.1493 4.604,6.203 4.612,8.1827 0,0.5047 0.63,1.8644 1.392,3.0218 0.763,1.1574 1.721,3.8465 2.129,5.9757 0.407,2.1294 1.048,4.4231 1.422,5.0974 0.376,0.6741 0.72,3.0467 0.767,5.2724 0.05,2.2258 0.544,4.9498 1.106,6.0531 0.565,1.1034 1.113,2.6853 1.22,3.5152 0.446,3.4405 1.37,7.1895 2.602,10.5618 0.721,1.9699 1.309,4.4563 1.309,5.525 0,1.0688 0.355,1.9434 0.784,1.9434 0.448,0 0.624,0.6246 0.408,1.4501 -0.208,0.7976 0.09,2.6025 0.69,4.0111 0.59,1.4087 1.21,3.6823 1.382,5.0529 0.161,1.3705 0.455,3.6891 0.633,5.1522 0.185,1.4631 0.746,3.6777 1.262,4.9212 0.518,1.2433 1.494,4.6336 2.176,7.5334 0.677,2.8999 1.713,6.3405 2.296,7.6452 0.584,1.3052 1.233,4.2314 1.439,6.5031 0.208,2.2719 0.648,4.1305 0.979,4.1305 0.333,0 0.605,0.3349 0.605,0.7445 0,0.4094 -0.365,0.5182 -0.814,0.2414 -0.576,-0.3564 -0.664,-0.023 -0.303,1.1891 0.28,0.9301 0.757,2.6407 1.058,3.8008 0.301,1.1598 1.219,3.4966 2.044,5.1923 0.823,1.696 1.318,3.3709 1.101,3.722 -0.209,0.351 0.139,1.443 0.778,2.4265 0.643,0.9837 1.326,3.2633 1.513,5.0659 0.572,5.4926 3.467,10.382 7.994,13.4983 1.116,0.7687 1.523,1.6825 1.408,3.1637 -0.32,4.1341 -0.163,13.7647 0.231,14.158 0.231,0.2199 7.131,0.642 15.355,0.9352 11.987,0.4272 15.095,0.3504 15.67,-0.388 1.097,-1.4033 5.946,-2.4301 11.339,-2.4014 6.537,0.035 12.203,-0.487 14.413,-1.3283 1.005,-0.3816 3.79,-0.5158 6.189,-0.2982 3.987,0.3614 4.395,0.2707 4.743,-1.0555 0.353,-1.3556 0.872,-1.4477 7.868,-1.402 5.441,0.035 8.358,-0.2784 10.655,-1.1469 6.14,-2.3214 9.517,-2.5095 27.655,-1.5409 6.253,0.3339 7.104,0.2291 8.91,-1.1068 1.282,-0.9467 3.287,-1.5455 5.591,-1.6695 1.976,-0.1068 4.03,-0.5562 4.564,-0.9996 0.535,-0.4432 2.499,-0.7762 4.367,-0.7399 1.867,0.035 5.77,-0.1068 8.67,-0.3182 2.9,-0.2106 9.102,-0.5543 13.784,-0.7615 l 8.51,-0.3772 1.185,1.8087 c 0.652,0.995 1.028,2.064 0.836,2.3756 -0.186,0.3116 0,2.6625 0.421,5.2237 0.701,4.2311 0.629,4.9843 -0.771,8.2384 -0.849,1.9779 -1.347,4.1884 -1.108,4.9368 0.278,0.8765 -0.302,2.4157 -1.636,4.3568 -1.138,1.6506 -2.088,3.1593 -2.117,3.3527 -0.185,1.385 -2.468,5.8054 -3.845,7.4728 -0.917,1.11 -2.269,3.1253 -3.007,4.4788 -0.736,1.3532 -1.789,3.0142 -2.335,3.6909 -0.549,0.6765 -0.789,1.2301 -0.535,1.2301 0.253,0 -0.09,0.5575 -0.77,1.2391 -1.147,1.1549 -3.132,4.8564 -5.745,10.7125 -0.603,1.3531 -1.467,2.9352 -1.917,3.5152 -1.202,1.5495 -5.067,8.409 -6.336,11.2485 -0.603,1.3531 -1.332,2.6187 -1.62,2.8121 -0.284,0.1944 -2.31,3.9894 -4.499,8.4363 -2.19,4.4465 -5.719,10.7738 -7.844,14.0603 -2.126,3.2867 -4.813,7.874 -5.971,10.1941 -1.157,2.3199 -3.36,5.9581 -4.895,8.0846 -4.667,6.4678 -4.778,6.8374 -2.651,8.8106 1.763,1.6353 7.244,3.4166 8.371,2.7205 0.296,-0.1828 2.212,0.5177 4.255,1.5575 4.161,2.1165 7.038,2.9446 12.059,3.4716 1.879,0.1968 5.677,1.1679 8.435,2.1565 2.761,0.9885 7.076,2.4335 9.589,3.2107 2.514,0.7774 5.677,1.8461 7.028,2.3755 1.355,0.5289 3.652,1.1659 5.106,1.4152 1.453,0.2495 2.822,0.739 3.036,1.0882 0.209,0.3492 0.702,0.4443 1.079,0.2105 0.374,-0.2327 1.081,-0.096 1.564,0.3079 0.487,0.402 1.975,0.8788 3.309,1.059 1.336,0.1806 4.752,1.144 7.592,2.1412 2.842,0.9975 5.851,1.8138 6.689,1.8138 1.865,0 11.229,2.9712 14.282,4.5317 1.226,0.6275 4.033,1.6107 6.237,2.1848 2.203,0.5739 4.89,1.6731 5.971,2.4421 1.081,0.7691 2.946,1.5945 4.147,1.8348 1.199,0.2402 2.351,0.7121 2.559,1.0489 0.208,0.3365 1.123,0.6122 2.029,0.6122 0.908,0 2.866,0.5966 4.353,1.3259 1.488,0.7291 4.442,1.6885 6.57,2.1319 6.735,1.4042 7.322,1.5671 10.192,2.8281 1.548,0.6793 6.136,2.2477 10.195,3.4852 4.059,1.2375 8.852,3.0254 10.648,3.9729 1.798,0.9474 3.647,1.7225 4.11,1.7225 1.773,0 4.928,2.9242 4.928,4.5676 0,1.8674 -4.171,6.6808 -5.789,6.6808 -0.576,0 -2.2,0.9149 -3.608,2.0329 -1.678,1.3333 -4.131,2.3456 -7.126,2.9411 -2.513,0.4995 -4.568,1.1665 -4.568,1.4823 0,0.3157 -0.396,0.581 -0.88,0.5896 -0.484,0.023 -1.67,0.6344 -2.635,1.3904 -0.968,0.7561 -2.216,1.382 -2.775,1.3905 -0.558,0.023 -4.988,2.6744 -9.842,5.9238 -4.855,3.2495 -10.092,6.5878 -11.639,7.4182 -4.031,2.1646 -5.493,3.0878 -6.31,3.9822 -0.396,0.4334 -3.252,2.6711 -6.344,4.9725 -3.094,2.3019 -7.998,5.9588 -10.898,8.127 -2.9,2.1683 -5.905,4.8238 -6.678,5.9014 -2.792,3.8918 -6.232,7.3508 -10.458,10.5204 -2.367,1.7766 -4.907,4.1713 -5.639,5.3213 -0.734,1.1498 -3.107,3.7606 -5.272,5.8016 -8.617,8.1176 -13.896,12.8176 -16.243,14.4578 -3.527,2.4669 -5.02,3.6442 -10.519,8.2988 -0.594,0.5036 -2.323,1.966 -3.844,3.2497 l -2.761,2.3338 3.605,4.1324 c 1.985,2.2724 5.203,5.391 7.156,6.9301 1.955,1.539 3.551,2.9972 3.551,3.2405 0,0.8746 12.419,12.3285 15.604,14.393 2.736,1.7711 14.626,13.5141 14.626,14.4426 0,0.2972 1.581,1.4016 3.516,2.4539 1.932,1.0524 3.515,2.1383 3.515,2.4135 0,0.2753 2.451,2.835 5.448,5.6884 9.07,8.6355 12.808,12.5947 13.916,14.742 0.583,1.1252 1.347,2.0456 1.702,2.0456 0.353,0 2.993,2.2937 5.869,5.0971 6.889,6.7204 15.498,14.5726 15.985,14.5811 0.514,0.023 12.326,12.4619 15.296,16.1218 1.276,1.5765 2.772,2.8665 3.322,2.8665 0.55,0 1.529,0.807 2.173,1.7937 0.646,0.9863 2.051,2.2465 3.123,2.8005 1.84,0.9519 4.17,4.4725 4.17,6.3017 0,1.3484 -2.423,3.1575 -4.27,3.1888 -2.847,0.049 -9.393,-0.8716 -10.141,-1.4243 -0.387,-0.2855 -3.311,-0.7274 -6.499,-0.9818 -3.189,-0.2544 -6.545,-0.7463 -7.457,-1.0932 -1.351,-0.5143 -17.612,-1.0583 -21.546,-0.7207 -0.581,0.049 -2.478,-0.1044 -4.219,-0.3425 -1.74,-0.2382 -8.212,-0.5767 -14.38,-0.7522 -6.169,-0.1759 -12.337,-0.6971 -13.71,-1.1588 -1.369,-0.4616 -4.707,-0.9095 -7.412,-0.9949 -2.708,-0.085 -6.03,-0.5137 -7.383,-0.9521 -1.354,-0.4383 -5.451,-0.9559 -9.107,-1.15 -3.654,-0.1945 -7.927,-0.6774 -9.491,-1.0737 -3.401,-0.8614 -27.606,-1.7093 -30.201,-1.0583 -1.596,0.4013 -2.679,2.531 -1.29,2.5439 0.289,0 0.588,1.375 0.662,3.0494 0.138,3.0381 4.513,15.7824 5.69,16.5678 0.341,0.2267 0.963,1.6798 1.382,3.2262 0.417,1.5468 1.757,5.3431 2.976,8.4364 1.217,3.0934 2.497,6.5249 2.84,7.6256 0.344,1.101 0.921,2.3664 1.284,2.8122 1.629,2.0103 3.62,6.2725 3.62,7.7574 0,1.96 1.136,5.7285 2.488,8.24 0.914,1.7004 2.896,10.8953 3.656,16.9767 0.186,1.45 0.613,2.6366 0.959,2.6366 0.347,0 0.633,0.8699 0.641,1.9331 0.02,1.0635 0.467,2.7243 1.025,3.691 0.56,0.9667 1.213,2.2321 1.453,2.8121 0.239,0.58 1.063,2.3959 1.831,4.0353 0.768,1.6396 1.219,3.2667 1.002,3.6162 -0.208,0.3492 0.08,1.9341 0.627,3.522 0.56,1.5878 0.882,2.8872 0.715,2.8872 -0.162,0 0.02,0.8699 0.434,1.9331 0.721,1.8976 1.724,6.5542 2.459,11.4241 0.209,1.3534 0.681,4.487 1.063,6.9635 0.606,3.9553 2.911,10.2791 4.893,13.4245 0.366,0.5797 0.839,1.5289 1.052,2.1088 0.208,0.58 1.067,2.6365 1.899,4.5698 1.075,2.5063 1.518,5.0103 1.54,8.7244 0.03,5.1835 0.03,5.2154 -2.309,6.5198 -1.819,1.0189 -3.111,1.2085 -5.8,0.8515 -1.903,-0.2522 -3.46,-0.706 -3.46,-1.0085 0,-1.1262 -6.177,-3.4883 -9.186,-3.512 -1.713,-0.023 -3.906,-0.4773 -4.873,-1.0297 -0.968,-0.5527 -2.525,-1.016 -3.465,-1.0296 -2.289,-0.033 -6.601,-1.5759 -7.258,-2.5958 -0.289,-0.4516 -1.791,-1.0347 -3.339,-1.2959 -1.546,-0.2613 -2.813,-0.7637 -2.813,-1.1164 0,-0.3525 -0.465,-0.6413 -1.034,-0.6413 -1.136,0 -7.747,-2.9841 -11.614,-5.244 -2.816,-1.6456 -6.876,-3.166 -8.493,-3.1816 -0.608,-0.023 -3.456,-1.2233 -6.328,-2.7052 -2.871,-1.4822 -6.202,-2.8884 -7.398,-3.1252 -1.199,-0.2365 -3.963,-1.2453 -6.141,-2.2416 -2.178,-0.9961 -4.892,-1.9978 -6.033,-2.2257 -1.139,-0.2268 -2.782,-1.1702 -3.648,-2.0938 -0.868,-0.9238 -2.002,-1.6798 -2.519,-1.6798 -0.519,0 -1.491,-0.2906 -2.162,-0.6463 -0.671,-0.3555 -2.555,-1.2942 -4.187,-2.086 -1.632,-0.792 -4.321,-2.3043 -5.976,-3.3609 -1.657,-1.0567 -5.066,-2.954 -7.58,-4.2165 -2.512,-1.2622 -6.15,-3.2628 -8.086,-4.4452 -1.933,-1.1826 -4.621,-2.6446 -5.976,-3.2484 -1.353,-0.6043 -5.228,-2.5138 -8.611,-4.2436 -3.383,-1.7298 -6.152,-2.9823 -6.152,-2.7832 0,0.1991 -1.344,-0.1366 -2.987,-0.7455 -4.639,-1.7191 -7.566,-1.3119 -9.813,1.3635 -1.047,1.2467 -2.1,3.1333 -2.337,4.1921 -0.242,1.0588 -0.72,2.1012 -1.07,2.316 -1.037,0.641 -5.387,7.5733 -5.94,9.4678 -0.283,0.9667 -1.001,2.3113 -1.595,2.9878 -0.595,0.6767 -0.82,1.2305 -0.498,1.2305 0.319,0 -0.05,0.7117 -0.814,1.5816 -1.868,2.1116 -5.321,10.7746 -5.585,14.0116 -0.05,0.6499 -0.773,2.3288 -1.601,3.7312 -0.827,1.4022 -1.505,3.5108 -1.505,4.6859 0,2.39 -1.223,4.8414 -5.096,10.2285 -1.451,2.0155 -2.637,4.0234 -2.637,4.4626 0,0.4387 -0.633,1.6022 -1.406,2.5852 -0.774,0.9832 -1.405,2.3073 -1.405,2.9426 0,0.635 -0.433,1.7788 -0.96,2.5413 -0.528,0.7628 -1.204,2.1775 -1.503,3.1442 -0.298,0.9669 -1.134,2.512 -1.854,3.4344 -0.719,0.922 -1.309,2.1387 -1.309,2.7036 0,0.5647 -0.565,1.8665 -1.26,2.8929 -0.691,1.0264 -1.992,3.6063 -2.89,5.7328 -1.846,4.3728 -2.032,4.7267 -3.814,7.2466 -0.708,1.0006 -1.356,2.2315 -1.442,2.7348 -0.09,0.5036 -0.489,1.5483 -0.9,2.3215 -0.412,0.7735 -0.954,2.7543 -1.206,4.4019 -0.419,2.7416 -3.831,10.0487 -6.411,13.734 -0.583,0.8308 -1.057,2.0986 -1.057,2.8173 0,1.3718 -3.03,10.8178 -4.449,13.8653 -2.464,5.3011 -8.058,12.7706 -9.381,12.5305 -0.321,-0.058 -1.422,-0.2341 -2.447,-0.3914 z m 3.468,-20.9854 c 0.858,-0.6019 1.562,-1.5509 1.562,-2.1089 0,-0.5581 0.247,-1.0148 0.548,-1.0148 0.303,0 0.986,-1.5027 1.52,-3.3393 1.074,-3.6972 2.94,-8.0602 3.688,-8.627 0.265,-0.2013 0.638,-1.2178 0.828,-2.2581 0.185,-1.0404 1.314,-3.6632 2.503,-5.8285 1.188,-2.1651 2.159,-4.5498 2.159,-5.2994 0,-0.7493 0.278,-1.3626 0.616,-1.3626 0.338,0 0.797,-0.911 1.021,-2.0244 0.232,-1.1135 0.833,-2.4578 1.357,-2.9879 1.01,-1.0223 3.163,-4.9758 4.927,-9.0481 1.666,-3.8495 3.283,-7.2236 4.381,-9.1396 0.555,-0.9667 1.413,-2.5981 1.911,-3.6257 0.495,-1.0276 3.162,-6.4436 5.923,-12.0355 2.761,-5.5919 5.261,-10.9203 5.55,-11.8408 0.292,-0.9205 1.252,-2.6228 2.134,-3.7828 0.881,-1.1598 1.976,-3.6907 2.429,-5.6241 0.456,-1.9334 2.667,-7.3114 4.912,-11.9512 2.247,-4.64 4.622,-9.8601 5.279,-11.6001 0.658,-1.7398 1.794,-4.5048 2.525,-6.1439 0.729,-1.6389 1.328,-3.5738 1.328,-4.2991 0,-1.3478 2.416,-4.9414 3.981,-5.918 1.87,-1.1675 2.972,-2.7064 2.61,-3.6481 -0.488,-1.2717 3.154,-3.1908 6.057,-3.1908 1.208,0 2.849,0.63 3.697,1.4183 0.837,0.7799 2.79,1.76 4.343,2.1778 1.551,0.4179 3.465,1.2112 4.246,1.763 1.133,0.7957 4.513,2.0334 7.404,2.7104 0.186,0.044 1.438,0.7625 2.764,1.5941 1.324,0.8318 2.673,1.3495 2.992,1.1512 0.322,-0.1991 1.416,0.2925 2.43,1.0909 1.016,0.7985 2.236,1.4518 2.71,1.4518 0.478,0 1.646,0.6131 2.598,1.3625 0.952,0.7494 2.577,1.5747 3.612,1.8343 1.034,0.2594 3.052,1.0699 4.488,1.8011 1.432,0.731 2.983,1.3293 3.44,1.3293 0.459,0 2.745,0.9491 5.085,2.109 2.338,1.1603 4.601,2.1091 5.032,2.1091 0.428,0 2.136,0.6177 3.793,1.3727 1.657,0.7549 5.409,2.0144 8.336,2.799 6.441,1.7258 8.424,2.5543 12.276,5.1286 2.93,1.9586 12.146,4.7286 15.803,4.7495 1.04,0.023 2.087,0.3272 2.325,0.7139 0.238,0.3865 0.882,0.7029 1.429,0.7029 0.545,0 2.66,0.7508 4.701,1.6686 2.042,0.9175 5.769,2.5315 8.283,3.5862 2.511,1.0548 5.835,2.4964 7.381,3.2039 1.546,0.7076 3.685,1.5014 4.752,1.7645 1.067,0.2629 2.118,0.7643 2.333,1.1136 0.208,0.35 1.4,1.0994 2.631,1.6657 1.229,0.5666 2.71,1.3182 3.29,1.6708 3.292,1.9993 7.802,3.7295 8.765,3.3606 1.546,-0.5934 1.047,-5.2837 -1.395,-13.1127 -0.185,-0.6031 -1.18,-3.0433 -2.495,-6.1295 -0.692,-1.6312 -2.101,-5.744 -3.129,-9.1394 -2.016,-6.6722 -8.082,-22.2228 -10.222,-26.2097 -0.727,-1.3533 -1.963,-4.4253 -2.748,-6.8264 -0.784,-2.4014 -1.946,-5.5649 -2.58,-7.0303 -1.347,-3.1096 -1.847,-4.4621 -3.066,-8.2887 -0.494,-1.5464 -1.443,-3.6027 -2.109,-4.5694 -0.666,-0.9667 -1.611,-3.9723 -2.096,-6.679 -0.484,-2.7067 -1.314,-6.3053 -1.843,-7.9967 -0.528,-1.6916 -0.8,-3.3307 -0.609,-3.6425 0.186,-0.3114 0.08,-0.7396 -0.273,-0.9508 -0.752,-0.4662 -1.606,-5.1217 -1.817,-9.9069 -0.232,-5.3169 -2.941,-20.098 -4.115,-22.4392 -0.369,-0.7417 -0.632,-3.3598 -0.575,-5.8179 0.08,-2.8112 -0.305,-5.241 -0.982,-6.5498 -0.885,-1.7128 -0.916,-2.3357 -0.185,-3.5233 1.074,-1.7361 1.819,-1.914 10.385,-2.4764 8.96,-0.5886 20.78,-0.395 24.321,0.3984 1.586,0.3549 7.702,0.9689 13.591,1.3644 5.893,0.3955 11.008,0.9015 11.369,1.1243 0.71,0.4394 2.247,0.7417 6.608,1.3005 1.546,0.1991 5.026,0.7205 7.731,1.1601 2.709,0.44 11.725,0.9149 20.038,1.0557 26.289,0.4445 35.153,0.8394 36.079,1.6066 1.435,1.1903 6.158,1.4797 6.573,0.4027 0.386,-1.0093 -1.209,-2.852 -12.512,-14.4411 -8.45,-8.6622 -16.559,-15.2132 -22.054,-17.8122 -2.05,-0.9695 -5.419,-3.3086 -7.489,-5.1976 -2.069,-1.8891 -4.959,-4.0758 -6.422,-4.8594 -1.465,-0.7834 -3.407,-2.17 -4.316,-3.0811 -0.91,-0.9112 -2.729,-2.6057 -4.044,-3.7656 -2.527,-2.2283 -8.641,-8.9515 -12.178,-13.39 -1.161,-1.4559 -3.814,-4.2589 -5.894,-6.2286 -2.082,-1.9697 -4.772,-4.6294 -5.976,-5.9104 -5.589,-5.942 -6.549,-6.8776 -8.072,-7.8649 -0.896,-0.58 -2.289,-2.4465 -3.099,-4.148 -0.808,-1.7014 -2.343,-3.5957 -3.413,-4.21 -1.07,-0.6142 -2.275,-1.841 -2.679,-2.7263 -0.404,-0.8852 -1.29,-1.8147 -1.971,-2.0653 -0.678,-0.2506 -3.169,-2.1399 -5.531,-4.1982 -2.363,-2.0587 -4.657,-3.7429 -5.097,-3.7429 -0.442,0 -0.8,-0.2552 -0.8,-0.5669 0,-0.312 -1.394,-2.0617 -3.094,-3.8879 -2.271,-2.4386 -2.989,-3.7146 -2.704,-4.8039 0.367,-1.4095 8.024,-9.9622 12.418,-13.8722 1.13,-1.0046 3.82,-3.5033 5.976,-5.5523 2.157,-2.0494 6.93,-5.998 10.602,-8.7747 3.674,-2.7768 6.934,-5.4544 7.247,-5.9507 0.313,-0.4962 3.476,-3.1003 7.031,-5.7866 7.624,-5.7624 9.53,-7.2682 13.405,-10.5849 1.595,-1.3659 4.323,-3.4141 6.064,-4.5518 4.208,-2.7534 11.256,-8.0874 12.994,-9.8376 2.484,-2.4993 21.584,-15.8242 23.303,-16.2553 0.916,-0.2292 1.664,-0.6392 1.664,-0.9096 0,-0.2703 2.555,-1.8525 5.679,-3.5164 3.727,-1.9866 7.469,-4.7764 10.896,-8.1273 2.871,-2.8062 5.22,-5.2799 5.22,-5.4967 0,-0.621 -7.64,-2.6889 -12.482,-3.3783 -2.416,-0.3444 -5.74,-1.25 -7.38,-2.0126 -1.644,-0.7626 -4.844,-1.8635 -7.112,-2.4465 -2.271,-0.583 -4.485,-1.3542 -4.923,-1.7138 -0.435,-0.3596 -2.36,-0.8873 -4.274,-1.1722 -1.914,-0.2852 -5.166,-1.2638 -7.226,-2.1748 -2.06,-0.9112 -4.3,-1.6565 -4.978,-1.6565 -1.31,0 -5.135,-1.0093 -13.141,-3.4665 -2.706,-0.8311 -7.926,-2.1402 -11.6,-2.9089 -3.672,-0.7692 -7.218,-1.6994 -7.877,-2.0679 -0.66,-0.3685 -2.466,-0.872 -4.012,-1.1193 -1.545,-0.2472 -3.348,-1.0439 -4.005,-1.7706 -0.657,-0.727 -1.919,-1.3216 -2.804,-1.3216 -0.883,0 -1.813,-0.3378 -2.071,-0.7507 -0.254,-0.4132 -0.869,-0.5953 -1.365,-0.4045 -0.497,0.1898 -1.506,-0.077 -2.243,-0.5926 -1.233,-0.8632 -6.373,-2.141 -12.011,-2.9855 -1.259,-0.1898 -2.464,-0.6246 -2.678,-0.9685 -0.208,-0.3439 -0.896,-0.6253 -1.518,-0.6253 -0.625,0 -1.634,-0.4083 -2.245,-0.9068 -0.61,-0.499 -3.797,-1.9743 -7.084,-3.2787 -5.511,-2.1864 -10.903,-5.4918 -18.982,-11.6336 -3.572,-2.7137 -6.121,-4.3273 -7.865,-4.973 -1.587,-0.5884 -2.733,-4.0823 -2.203,-6.7263 0.234,-1.1771 3.703,-7.3964 7.707,-13.8207 4.006,-6.4243 7.281,-12.0223 7.281,-12.44 0,-0.4179 0.634,-2.0008 1.407,-3.5175 0.773,-1.5168 1.405,-3.2749 1.405,-3.9064 0,-0.6317 0.629,-1.7164 1.396,-2.4107 1.277,-1.1569 3.399,-4.5764 7.421,-11.9617 0.843,-1.5466 2.211,-3.9193 3.039,-5.2728 0.829,-1.3531 1.9,-3.2601 2.384,-4.2373 1.694,-3.4371 5.117,-8.5835 7.378,-11.0938 1.257,-1.3956 2.286,-2.8671 2.291,-3.2697 0,-0.4028 1.236,-2.1709 2.745,-3.9289 5.844,-6.8182 12.717,-18.6444 12.717,-21.8838 0,-0.551 0.302,-1.3039 0.671,-1.673 0.369,-0.3691 1.207,-3.329 1.862,-6.5775 1.147,-5.7011 1.143,-5.9393 -0.113,-6.8666 -0.723,-0.5284 -1.799,-0.7695 -2.39,-0.5363 -0.592,0.2335 -4.815,0.6916 -9.386,1.0181 -8.927,0.6377 -11.722,1.1831 -22.621,4.4107 -7.262,2.1503 -9.153,2.3366 -29.234,2.8814 -7.976,0.2153 -10.778,0.5508 -12.625,1.5054 -1.942,1.0038 -3.46,1.151 -8.323,0.8078 -3.27,-0.2314 -6.155,-0.7598 -6.413,-1.1757 -0.308,-0.496 -1.053,-0.5372 -2.165,-0.1207 -0.935,0.3499 -3.6,0.8605 -5.918,1.135 -2.322,0.2742 -5.643,0.9942 -7.384,1.5998 -3.201,1.1146 -3.559,1.1297 -43.06,1.7856 -7.635,0.1272 -13.885,0.023 -13.885,-0.2292 0,-0.2531 -0.918,-1.6166 -2.04,-3.0299 -2.444,-3.0753 -3.933,-8.5104 -3.012,-11.0006 0.767,-2.068 -0.918,-7.5184 -3.605,-11.6687 -1.009,-1.5589 -1.976,-4.378 -2.264,-6.5908 -0.275,-2.1267 -0.937,-4.4905 -1.469,-5.2534 -0.533,-0.7626 -0.968,-2.2229 -0.968,-3.2446 0,-1.0218 -0.585,-2.6122 -1.3,-3.5343 -1.268,-1.6311 -4.313,-9.0359 -4.599,-11.1799 -0.08,-0.5869 -0.388,-1.467 -0.692,-1.9563 -0.301,-0.4891 -0.861,-1.9071 -1.242,-3.1513 -0.711,-2.3162 -0.912,-3.3767 -2.032,-10.6982 -0.593,-3.8651 -1.969,-8.9246 -4.686,-17.2242 -0.57,-1.7399 -1.3,-5.23 -1.619,-7.7553 -0.322,-2.5255 -1.243,-6.549 -2.047,-8.9413 -0.806,-2.3926 -1.466,-5.0004 -1.466,-5.7957 0,-0.7951 -0.629,-3.2367 -1.397,-5.4257 -0.772,-2.1889 -1.741,-5.8513 -2.156,-8.1389 -0.414,-2.2873 -1.337,-5.471 -2.052,-7.0751 -4.784,-10.7352 -6.138,-13.2729 -7.606,-14.234 -1.49,-0.9769 -1.818,-0.9734 -3.359,0.036 -0.94,0.6156 -1.709,1.6023 -1.709,2.1926 0,1.6577 -2.031,5.349 -4.231,7.6822 -6.471,6.8707 -9.127,10.2494 -9.127,11.6109 0,0.5132 -0.463,1.4447 -1.028,2.0703 -1.475,1.6271 -6.117,10.6938 -5.693,11.1167 0.186,0.1944 -0.389,1.2379 -1.296,2.3176 -0.91,1.0797 -2.382,3.4877 -3.273,5.351 -0.891,1.8633 -1.826,3.546 -2.078,3.7392 -0.79,0.605 -4.911,9.79 -4.911,10.9439 0,0.6039 -0.789,2.827 -1.756,4.9402 -0.968,2.1132 -1.757,4.008 -1.757,4.2105 0,0.2013 -0.792,1.5317 -1.759,2.9545 -0.967,1.4224 -1.757,3.255 -1.757,4.0716 0,0.8173 -0.634,2.0582 -1.407,2.7581 -0.773,0.6999 -1.404,1.6355 -1.404,2.0794 0,0.4439 -1.215,3.3211 -2.702,6.3941 -1.485,3.0731 -3.11,6.8526 -3.607,8.3993 -0.5,1.5464 -1.921,3.761 -3.159,4.9209 -1.576,1.4746 -2.704,3.5981 -3.749,7.0567 -0.825,2.721 -2.086,5.5668 -2.804,6.3237 -1.277,1.3448 -1.271,1.4065 0.327,2.6611 1.826,1.438 2.148,4.0988 0.641,5.3476 -1.904,1.5822 -8.119,0.1106 -12.178,-2.8826 -2.022,-1.492 -4.474,-3.0158 -5.448,-3.3863 -1.268,-0.4825 -1.771,-1.1938 -1.771,-2.5118 0,-2.251 -5.79,-9.2834 -8.127,-9.8695 -0.886,-0.2222 -2.157,-1.0088 -2.827,-1.7474 -0.668,-0.7387 -1.524,-1.343 -1.904,-1.343 -0.377,0 -2.222,-1.5587 -4.097,-3.4641 -1.876,-1.9053 -4.013,-3.655 -4.747,-3.8884 -0.735,-0.2335 -2.2,-1.6702 -3.256,-3.1928 -1.054,-1.5226 -2.49,-2.9503 -3.191,-3.1728 -0.701,-0.2222 -2.521,-1.5766 -4.045,-3.0095 -1.523,-1.4331 -3.209,-2.9529 -3.743,-3.3778 -0.534,-0.4248 -2.706,-2.7432 -4.826,-5.1524 -3.374,-3.8352 -4.096,-4.3317 -5.798,-3.9907 -1.679,0.3353 -1.947,0.1642 -1.947,-1.2345 0,-0.8931 -0.871,-2.4277 -1.933,-3.4106 -1.065,-0.9832 -3.041,-3.0788 -4.395,-4.6574 -1.353,-1.5786 -2.795,-2.8832 -3.207,-2.8989 -0.41,-0.023 -1.449,-0.9777 -2.305,-2.1377 -0.86,-1.1599 -1.9,-2.109 -2.317,-2.109 -0.416,0 -1.326,-0.7261 -2.025,-1.6133 -0.699,-0.8872 -2.483,-2.2283 -3.968,-2.9802 -3.718,-1.8843 -5.864,-3.8482 -5.864,-5.3713 0,-0.706 -0.236,-1.2851 -0.525,-1.2871 -0.292,0 -1.793,-1.1812 -3.339,-2.6211 -3.52,-3.2772 -6.381,-5.3965 -9.315,-6.9062 -1.257,-0.6461 -2.285,-1.458 -2.285,-1.8042 0,-0.346 -0.871,-1.5222 -1.935,-2.6134 -1.813,-1.8596 -3.518,-2.93 -8.007,-5.0249 -1.021,-0.4763 -2.178,-1.5739 -2.572,-2.4391 -0.393,-0.8654 -1.891,-2.2662 -3.327,-3.1131 -2.315,-1.3663 -2.554,-1.3983 -2.117,-0.283 0.272,0.6913 0.957,3.881 1.521,7.0879 0.565,3.2068 1.284,6.5289 1.602,7.3817 0.314,0.8531 0.617,3.449 0.674,5.7691 0.05,2.32 0.416,6.4329 0.8,9.1393 0.382,2.7068 0.674,5.5542 0.648,6.3273 -0.162,4.7021 1.063,17.9286 1.831,19.796 0.502,1.2211 1.117,4.2265 1.37,6.6788 0.252,2.4521 0.651,5.0911 0.884,5.8644 0.482,1.5946 0.817,3.6671 1.25,7.7334 0.162,1.5466 0.651,4.5521 1.075,6.6787 0.426,2.1266 0.913,5.2904 1.081,7.0304 0.162,1.7398 0.621,4.9063 1.006,7.0366 0.385,2.1302 0.872,5.7684 1.08,8.0849 0.581,6.4349 2.182,13.5881 4.261,19.0014 1.032,2.6923 1.963,5.8439 2.068,7.0042 0.113,1.16 0.558,3.3744 1.001,4.9212 0.443,1.5464 0.946,3.7275 1.114,4.8468 0.163,1.1191 0.684,2.4825 1.138,3.0301 0.469,0.5661 0.795,3.0216 0.754,5.6919 -0.05,3.4764 0.291,5.3394 1.321,7.172 l 1.391,2.4757 -1.785,4.034 c -1.975,4.4702 -3.529,5.1381 -5.938,2.5532 -0.759,-0.8143 -1.666,-1.3033 -2.018,-1.0866 -0.822,0.5083 -6.661,-1.0615 -10.718,-2.8816 -3.061,-1.374 -4.29,-1.7793 -11.424,-3.7691 -1.837,-0.5121 -3.339,-1.1382 -3.339,-1.391 0,-0.2527 -1.206,-0.6523 -2.678,-0.8877 -1.472,-0.2355 -3.67,-0.9236 -4.885,-1.5294 -1.213,-0.6056 -2.819,-1.2192 -3.569,-1.3636 -0.749,-0.1435 -1.953,-0.564 -2.673,-0.9326 -0.72,-0.3687 -2.619,-1.3428 -4.219,-2.1649 -1.599,-0.8218 -3.513,-1.4944 -4.252,-1.4944 -0.74,0 -1.652,-0.3056 -2.024,-0.6794 -0.375,-0.3736 -1.705,-0.7573 -2.954,-0.8527 -1.249,-0.095 -2.272,-0.4221 -2.272,-0.7264 0,-0.3046 -0.346,-0.5536 -0.764,-0.5536 -0.419,0 -3.011,-1.1072 -5.758,-2.4606 -2.748,-1.3533 -6.02,-2.4606 -7.272,-2.4606 -1.252,0 -2.717,-0.4411 -3.256,-0.9801 -0.817,-0.8165 -7.087,-4.0701 -8.26,-4.2867 -0.186,-0.035 -1.3,-0.5467 -2.46,-1.1357 -1.159,-0.5889 -3.849,-1.4876 -5.976,-1.9967 -2.127,-0.5095 -4.747,-1.3718 -5.82,-1.9163 -1.076,-0.5448 -2.261,-0.8006 -2.637,-0.5687 -0.377,0.2319 -0.682,0.088 -0.682,-0.3229 0,-0.4093 -0.611,-0.7442 -1.356,-0.7442 -0.746,0 -1.788,-0.3955 -2.313,-0.8787 -1.326,-1.2188 -3.9,-2.6366 -4.783,-2.6366 -0.405,0 -1.584,-0.5533 -2.615,-1.2298 -1.952,-1.2797 -3.347,-1.8397 -12.134,-4.8715 -2.901,-1.0007 -6.166,-2.5683 -7.261,-3.4833 -1.092,-0.9152 -2.49,-1.6636 -3.108,-1.6636 -0.615,0 -1.619,-0.449 -2.232,-0.9972 -0.608,-0.5486 -2.847,-1.0737 -4.975,-1.1672 -2.126,-0.093 -4.269,-0.4807 -4.763,-0.8605 -1.433,-1.1055 -1.675,-0.1643 -0.525,2.0413 0.583,1.1209 1.064,2.4176 1.067,2.8816 0,0.4638 0.953,2.2498 2.113,3.9687 1.159,1.7186 2.108,3.3654 2.108,3.6596 0,0.294 0.808,1.5927 1.793,2.8858 0.987,1.2932 1.642,2.3514 1.454,2.3514 -0.186,0 0.748,2.1204 2.074,4.7118 1.326,2.5915 2.414,5.0443 2.414,5.4507 0,1.7908 9.146,13.0371 10.604,13.0371 0.354,0 0.648,0.3957 0.656,0.8789 0,0.4835 0.955,1.9498 2.107,3.2587 1.155,1.3093 2.099,2.7762 2.099,3.2603 0,1.5384 6.407,12.9899 7.268,12.9899 0.453,0 2.247,2.4229 3.985,5.3845 3.93,6.6988 5.55,8.8025 6.378,8.2899 0.357,-0.2198 0.648,0.1875 0.648,0.907 0,0.7189 1.387,3.2126 3.081,5.5418 1.694,2.3291 3.597,5.1607 4.226,6.2922 1.74,3.123 2.712,4.6315 4.726,7.3272 1.011,1.3549 2.071,3.21 2.356,4.1225 0.476,1.5299 1.937,3.5589 4.591,6.3822 2.217,2.3573 3.479,4.9424 3.509,7.1953 0.03,1.2865 0.113,3.276 0.184,4.4209 0.14,1.712 -0.184,2.2064 -1.802,2.784 -1.405,0.5011 -2.359,0.4588 -3.33,-0.148 -0.75,-0.468 -1.738,-0.8508 -2.197,-0.8508 -0.457,0 -1.39,-0.5047 -2.071,-1.1215 -1.117,-1.0116 -1.435,-1.0163 -3.219,-0.05 -3.464,1.8767 -9.845,3.7242 -14.875,4.3073 -1.291,0.1504 -2.504,0.4285 -2.695,0.6195 -0.186,0.1921 -1.195,0.053 -2.23,-0.3083 -1.441,-0.5027 -2.527,-0.3256 -4.656,0.7605 -1.529,0.7788 -3.583,1.4245 -4.563,1.4347 -0.982,0.023 -4.949,0.853 -8.816,1.8732 -4.561,1.2035 -9.373,1.9334 -13.708,2.0789 -8.806,0.2956 -9.547,0.4345 -11.415,2.1448 -0.877,0.8009 -2.302,1.6721 -3.172,1.9359 -0.871,0.2639 -1.583,0.7235 -1.583,1.0214 0,0.2981 -1.463,0.5971 -3.252,0.6647 -1.789,0.067 -4.24,0.5538 -5.448,1.0803 -3.852,1.6784 -7.7,2.4559 -12.178,2.4611 -2.507,0 -5.233,0.4571 -6.415,1.0682 -1.13,0.5849 -2.244,0.8775 -2.47,0.6498 -0.459,-0.4585 -5.577,0.7112 -8.671,1.9817 -1.095,0.4494 -3.19,0.7792 -4.657,0.733 -1.754,-0.055 -2.805,0.2682 -3.065,0.9444 -0.273,0.7096 -1.464,1.029 -3.843,1.029 -1.899,0 -4,0.2807 -4.671,0.6244 -0.672,0.3435 -3.062,0.9642 -5.314,1.3794 -2.25,0.4151 -5.091,1.2534 -6.311,1.8628 -1.222,0.6094 -3.45,1.2625 -4.953,1.451 -2.913,0.3662 -5.292,1.4023 -6.436,2.8037 -0.386,0.4737 -1.969,1.1092 -3.515,1.4122 -1.546,0.3034 -3.05,0.6153 -3.339,0.6936 -0.291,0.079 -0.924,0.1898 -1.408,0.246 -1.18,0.1388 1.881,2.5169 5.918,4.5943 1.805,0.9287 3.895,2.2684 4.645,2.9771 2.485,2.3493 5.743,4.7646 8.57,6.3518 1.534,0.8621 3.432,2.2108 4.219,2.9973 0.786,0.7869 1.905,1.4305 2.486,1.4305 0.578,0 1.054,0.2492 1.054,0.5538 0,0.3045 2.045,1.8985 4.543,3.5419 2.5,1.6433 4.733,3.2923 4.964,3.6643 0.233,0.3719 0.846,0.6763 1.369,0.6763 0.52,0 2.795,1.7741 5.052,3.9427 2.256,2.1685 5.547,4.6747 7.313,5.5694 1.766,0.8946 3.625,2.1258 4.131,2.7358 0.508,0.6103 1.282,1.1095 1.722,1.1095 0.442,0 2.461,1.1156 4.485,2.4792 2.024,1.3636 3.68,2.309 3.68,2.1009 0,-0.2083 2.995,1.6369 6.654,4.1007 3.656,2.4636 8.119,4.8899 9.912,5.3923 2.014,0.5634 4.431,2.0156 6.307,3.7897 5.607,5.3009 7.665,6.5295 16.849,10.0624 11.032,4.2436 16.038,7.6406 16.873,11.4505 0.79,3.5891 -4.122,9.8362 -7.731,9.8362 -0.542,0 -1.242,0.3955 -1.549,0.8787 -0.31,0.4833 -1.195,1.2249 -1.97,1.6479 -0.773,0.4228 -2.044,1.6883 -2.82,2.8121 -0.781,1.1237 -1.894,2.1193 -2.477,2.2128 -0.583,0.093 -2.305,0.8052 -3.831,1.5816 -1.522,0.7769 -3.117,1.4122 -3.54,1.4122 -0.426,0 -1.703,0.8756 -2.84,1.9457 -1.137,1.0699 -2.938,2.3888 -3.999,2.9309 -1.065,0.5418 -1.935,1.2422 -1.935,1.5557 0,0.3138 -2.056,1.5319 -4.569,2.7071 -2.512,1.175 -4.571,2.4467 -4.571,2.8259 0,0.379 -0.645,0.6893 -1.436,0.6893 -0.792,0 -2.204,0.7664 -3.141,1.7029 -0.938,0.9367 -2.351,1.9085 -3.143,2.1599 -0.792,0.2515 -1.227,0.7981 -0.968,1.2175 0.272,0.4374 0.14,0.5599 -0.295,0.2874 -0.423,-0.2604 -1.593,0.3518 -2.602,1.3609 -1.023,1.0225 -2.287,1.6605 -2.856,1.4413 -0.611,-0.2337 -1.023,0.025 -1.023,0.64 0,0.5679 -0.521,1.0324 -1.155,1.0324 -0.634,0 -1.606,0.5536 -2.159,1.2303 -0.556,0.6767 -0.822,0.8568 -0.595,0.4002 0.231,-0.4567 0.09,-1.0304 -0.303,-1.275 -0.396,-0.2444 -0.91,0.046 -1.141,0.6504 -0.231,0.6024 -0.668,0.9407 -0.974,0.7517 -0.308,-0.1898 -0.739,0.1295 -0.961,0.707 -0.231,0.5779 -0.854,1.0504 -1.404,1.0504 -0.552,0 -1.174,0.4502 -1.385,1.0001 -0.231,0.5886 -0.946,0.8526 -1.754,0.6417 -0.752,-0.1967 -1.579,-0.023 -1.838,0.3982 -0.295,0.4824 -0.02,0.5888 0.742,0.2932 0.804,-0.3091 1.04,-0.1967 0.71,0.3404 -0.273,0.442 -1.75,1.1405 -3.28,1.5527 -1.53,0.412 -2.784,1.0225 -2.784,1.3564 0,0.334 -0.949,0.9381 -2.109,1.3424 -1.159,0.4045 -2.107,1.068 -2.107,1.4749 0,0.4066 -0.415,0.7395 -0.922,0.7395 -0.509,0 -1.616,0.645 -2.463,1.4334 -0.844,0.7883 -1.536,1.1005 -1.536,0.6936 0,-0.9851 -4.814,1.042 -6.716,2.8277 -0.803,0.755 -1.836,1.3724 -2.293,1.3724 -0.459,0 -0.834,0.3085 -0.834,0.6856 0,0.3825 -0.907,0.5041 -2.053,0.2751 -1.761,-0.3524 -2.272,-0.077 -3.606,1.9508 -1.422,2.1653 -8.456,7.3499 -7.252,5.3473 0.363,-0.6052 0.162,-0.5817 -0.649,0.077 -1.348,1.0935 -1.347,4.3197 0,4.3197 0.495,0 0.9,0.2391 0.9,0.5314 0,0.5841 2.439,1.6995 6.495,2.9674 1.444,0.4521 2.807,1.1152 3.029,1.4736 0.232,0.3585 1.016,0.6517 1.765,0.6517 0.753,0 1.366,0.2579 1.366,0.5729 0,0.8349 4.701,2.9421 6.562,2.9421 0.877,0 1.893,0.2924 2.261,0.6497 1.289,1.2532 10.329,5.6556 10.896,5.3055 0.314,-0.1945 0.735,-0.088 0.939,0.239 0.208,0.3261 2.042,0.6624 4.089,0.7473 2.049,0.085 4.201,0.246 4.78,0.3583 0.58,0.1131 2.562,0.4501 4.402,0.7514 1.842,0.3011 3.523,0.8274 3.733,1.1695 0.208,0.3418 1.097,0.6219 1.968,0.6219 0.869,0 2.193,0.4644 2.945,1.0321 0.749,0.5677 2.215,1.0423 3.257,1.0544 1.039,0.023 2.06,0.2945 2.266,0.6268 0.207,0.3324 2.832,0.8184 5.841,1.0799 3.006,0.2615 6.414,0.7635 7.577,1.1153 1.159,0.3517 3.215,0.8271 4.568,1.0565 3.784,0.6411 3.999,0.7116 5.198,1.7054 0.616,0.5115 2.151,1.0165 3.41,1.1222 1.259,0.1068 2.291,0.2537 2.291,0.3282 0,0.074 0.632,0.2129 1.405,0.3067 0.773,0.093 2.513,0.5225 3.867,0.9521 1.353,0.4296 3.567,0.9276 4.92,1.1067 1.354,0.1782 4.36,0.8594 6.68,1.5112 2.318,0.6518 5.482,1.4851 7.03,1.852 2.624,0.6223 6.342,2.0441 8.787,3.3612 0.58,0.3124 1.635,1.5586 2.345,2.7695 1.175,2.0089 1.192,2.2986 0.185,3.3153 -0.613,0.6127 -1.115,1.5657 -1.115,2.1181 0,0.5525 -0.291,1.0044 -0.648,1.0044 -0.357,0 -1.014,1.1072 -1.46,2.4606 -0.447,1.3533 -1.114,2.4606 -1.483,2.4606 -0.369,0 -0.864,0.5536 -1.105,1.2301 -1.252,3.5595 -3.155,7.2063 -3.758,7.2063 -0.376,0 -0.686,0.3654 -0.686,0.8123 0,0.4469 -0.789,1.8493 -1.756,3.1168 -0.967,1.2673 -1.759,2.5989 -1.759,2.9592 0,0.3605 -0.62,1.4466 -1.381,2.4135 -0.762,0.9672 -1.158,2.0096 -0.88,2.3167 0.278,0.307 0.113,0.3293 -0.38,0.052 -0.53,-0.3048 -1.072,-0.023 -1.351,0.7124 -0.26,0.6716 -1.03,1.7813 -1.713,2.4658 -0.684,0.6847 -1.454,2.348 -1.705,3.6959 -0.253,1.3481 -0.904,2.6215 -1.445,2.8293 -0.543,0.2083 -0.986,0.8813 -0.986,1.4964 0,0.615 -0.285,0.9429 -0.629,0.7291 -0.537,-0.3312 -1.768,1.5996 -1.469,2.3022 0.05,0.132 -0.874,1.1084 -2.065,2.1716 -1.19,1.0634 -2.164,2.3917 -2.164,2.9515 0,0.5601 -0.938,2.1139 -2.08,3.4525 -1.146,1.339 -2.095,2.8136 -2.109,3.2776 -0.02,0.464 -0.979,2.2499 -2.139,3.9687 -1.159,1.7186 -2.108,3.5838 -2.108,4.1443 0,0.5608 -0.634,1.592 -1.407,2.2919 -0.773,0.6999 -1.405,1.8661 -1.405,2.5916 0,0.7255 -0.444,1.4892 -0.986,1.6974 -0.541,0.2082 -1.201,1.5208 -1.462,2.9173 -0.311,1.6517 -0.669,2.2254 -1.03,1.6417 -0.384,-0.6224 -0.695,-0.3386 -1.011,0.9276 -0.253,1.0032 -0.769,1.8244 -1.149,1.8244 -0.38,0 -0.689,0.5036 -0.689,1.1194 0,0.6157 -0.634,1.9237 -1.407,2.9068 -0.773,0.9832 -1.405,2.2327 -1.405,2.7768 0,0.5438 -0.634,1.6683 -1.407,2.4983 -0.774,0.83 -1.405,1.9576 -1.405,2.5058 0,0.548 -0.951,2.1948 -2.111,3.6595 -1.159,1.4645 -2.108,2.979 -2.108,3.3652 0,0.3863 -0.461,0.8789 -1.021,1.0943 -0.562,0.2152 -1.659,1.7938 -2.441,3.5074 -0.78,1.7135 -1.935,3.3137 -2.567,3.556 -0.675,0.2589 -0.977,0.8831 -0.736,1.5157 0.234,0.6086 -0.05,1.2485 -0.629,1.4751 -0.575,0.2198 -1.042,0.807 -1.042,1.3044 0,0.4971 -0.479,1.088 -1.065,1.3127 -0.588,0.2245 -1.377,1.1287 -1.757,2.0085 -1.026,2.3797 -2.341,4.3411 -3.33,4.9744 -0.483,0.3092 -0.878,1.1791 -0.878,1.9331 0,0.7542 -0.242,1.3713 -0.538,1.3713 -0.296,0 -1.268,1.6608 -2.162,3.6907 -0.892,2.0301 -2.099,4.6315 -2.682,5.7809 -0.712,1.4023 -0.809,2.1739 -0.296,2.345 0.422,0.1411 0.585,0.544 0.368,0.8977 -0.463,0.7466 1.322,0.8806 2.048,0.1551 0.269,-0.2692 0.875,-0.552 1.348,-0.6287 0.471,-0.077 2.915,-1.074 5.429,-2.2166 6.723,-3.0563 8.382,-3.5673 12.654,-3.8941 2.128,-0.1621 5.606,-1.1049 7.733,-2.0936 3.399,-1.58 9.648,-3.5159 17.575,-5.4445 5.667,-1.3787 25.036,-8.1254 27.066,-9.4287 0.775,-0.4959 2.673,-1.1361 4.219,-1.4221 1.547,-0.2863 3.215,-0.8538 3.708,-1.2609 0.493,-0.4071 1.088,-0.5496 1.319,-0.3166 0.234,0.233 1.388,-0.077 2.566,-0.6843 1.179,-0.6094 4.856,-2.0649 8.173,-3.2344 18.908,-6.6685 25.298,-8.7879 25.596,-8.4906 0.186,0.1829 1.548,-0.3374 3.036,-1.1569 5.299,-2.9175 6.243,-3.4033 7.978,-4.1064 0.968,-0.3916 3.814,-1.0796 6.328,-1.5288 2.513,-0.4493 5.325,-1.303 6.251,-1.8976 1.37,-0.8817 2.165,-0.9356 4.309,-0.2934 3.851,1.1539 4.319,2.0857 4.275,8.5469 -0.02,3.5224 0.333,6.4489 0.921,7.5944 0.927,1.811 2.249,10.5329 2.784,18.3853 0.139,2.1267 0.465,5.6065 0.713,7.7332 0.248,2.1268 0.592,7.505 0.768,11.9515 0.185,4.4467 0.487,9.983 0.69,12.3031 0.208,2.3198 0.507,7.5399 0.671,11.5999 0.428,10.5975 1.104,19.8028 1.502,20.4453 0.185,0.3047 0.02,1.9688 -0.363,3.6981 -0.464,2.0695 -0.473,5.6294 -0.02,10.4155 0.685,7.3515 1.553,20.3842 1.704,25.5499 0.113,4.1672 1.912,10.8969 2.899,10.8969 0.847,0 3.223,-2.4606 8.055,-8.3541 1.353,-1.6497 5.22,-5.9023 8.592,-9.4499 8.286,-8.7154 10.791,-11.5384 13.387,-15.0919 1.213,-1.6594 3.171,-3.6167 4.349,-4.3496 1.18,-0.7329 3.41,-3.1438 4.957,-5.3575 1.546,-2.2137 3.524,-4.7218 4.395,-5.5732 0.867,-0.8516 1.585,-1.8286 1.588,-2.1708 0,-0.3424 1.215,-1.8879 2.687,-3.4345 1.474,-1.5467 2.973,-3.3318 3.332,-3.9668 0.359,-0.6353 2.31,-3.008 4.338,-5.2728 2.024,-2.2648 5.382,-6.1745 7.461,-8.6876 2.076,-2.5134 8.137,-8.6825 13.47,-13.709 5.33,-5.0269 11.304,-10.8307 13.276,-12.8985 5.606,-5.8755 12.419,-9.3214 15.343,-7.7574 0.965,0.5168 1.261,1.1983 0.984,2.26 -0.42,1.6038 3.853,14.2589 5.855,17.3415 0.627,0.9664 1.578,2.6272 2.112,3.6905 0.534,1.0635 1.233,1.9336 1.555,1.9336 0.322,0 0.586,0.3681 0.586,0.8182 0,1.1991 2.298,6.212 2.849,6.212 0.26,0 0.319,0.7908 0.139,1.7575 -0.208,1.1363 -0.02,1.7575 0.567,1.7575 0.495,0 0.718,0.1852 0.49,0.4118 -0.231,0.2268 0.236,1.1562 1.028,2.0662 0.789,0.9102 1.794,2.2639 2.227,3.0081 2.732,4.6882 3.953,7.2686 3.958,8.3706 0,0.6923 0.476,2.1647 1.054,3.2721 0.577,1.1076 1.049,2.3528 1.049,2.767 0,0.414 0.571,1.406 1.268,2.2042 0.699,0.7985 2.495,3.5079 3.994,6.0213 1.5,2.5131 2.926,4.7277 3.166,4.9209 0.244,0.1944 0.885,1.4587 1.429,2.8122 1.057,2.6309 1.552,3.3792 4.029,6.0747 0.87,0.9473 1.58,2.3183 1.58,3.0464 0,0.7284 0.44,1.7619 0.975,2.2969 0.534,0.5352 1.722,2.3527 2.636,4.0386 2.261,4.1675 8.288,15.4625 9.287,17.4044 0.447,0.8669 1.049,1.5789 1.341,1.5819 0.289,0 0.525,0.5102 0.525,1.127 0,0.6173 0.614,1.9809 1.36,3.0309 0.748,1.0501 1.57,2.7467 1.826,3.7705 0.258,1.0239 0.913,2.2297 1.454,2.6796 0.542,0.4499 0.986,1.0871 0.986,1.4157 0,0.5797 1.762,4.6118 5.499,12.5878 1.819,3.8816 3.479,6.3272 4.296,6.3272 0.24,0 1.141,-0.4925 1.999,-1.0945 z m -8.368,-180.579 c -0.24,-0.256 -4.513,-0.581 -9.491,-0.7224 -10.613,-0.3006 -17.496,-0.9337 -19.95,-1.8347 -0.966,-0.355 -4.864,-1.1363 -8.657,-1.7364 -10.069,-1.5917 -15.171,-3.0252 -18.947,-5.3254 -1.843,-1.122 -4.032,-2.0401 -4.865,-2.0401 -1.581,0 -13.44,-3.7284 -17.094,-5.3741 -1.159,-0.5228 -3.71,-1.248 -5.668,-1.6113 -1.956,-0.3636 -4.488,-1.146 -5.624,-1.7387 -3.304,-1.724 -11.361,-5.3363 -11.9,-5.3363 -0.271,0 -1.335,-0.6001 -2.366,-1.3333 -1.029,-0.7334 -3.182,-1.6857 -4.783,-2.1166 -1.6,-0.431 -3.094,-1.2702 -3.324,-1.8652 -0.231,-0.5951 -2.082,-1.8194 -4.122,-2.721 -4.161,-1.8406 -16.623,-10.0752 -19.879,-13.1358 -1.172,-1.1002 -3.088,-2.1919 -4.257,-2.4259 -2.198,-0.4399 -12.948,-9.8978 -12.948,-11.3926 0,-0.775 -1.197,-2.2389 -5.877,-7.1911 -1.277,-1.3534 -3.399,-4.0425 -4.712,-5.9759 -1.314,-1.9333 -3.677,-5.0966 -5.254,-7.0302 -3.812,-4.6789 -7.882,-11.2796 -11.742,-19.0366 -1.743,-3.5007 -4,-7.6821 -5.016,-9.2923 -1.018,-1.6103 -1.848,-3.3613 -1.848,-3.8916 0,-0.5301 -0.753,-2.3766 -1.669,-4.1034 -0.919,-1.7266 -1.892,-3.9094 -2.162,-4.8502 -0.269,-0.9408 -1.215,-3.6087 -2.099,-5.9286 -2.463,-6.4508 -3.275,-8.9463 -3.668,-11.2484 -0.209,-1.16 -1,-3.5329 -1.78,-5.2729 -0.783,-1.7398 -1.52,-4.7453 -1.643,-6.6787 -0.325,-5.1415 -2.421,-14.9879 -3.967,-18.6303 -0.739,-1.7399 -1.63,-4.7453 -1.982,-6.6785 -1.128,-6.2002 -2.066,-10.1822 -2.693,-11.4345 -0.338,-0.6709 -0.671,-6.5982 -0.743,-13.1714 -0.07,-6.5735 -0.313,-13.2779 -0.538,-14.8988 -0.358,-2.6109 -0.138,-3.2716 1.955,-5.7874 1.463,-1.7604 2.959,-2.8448 3.941,-2.8526 1.012,-0.023 1.598,-0.4557 1.634,-1.243 0.03,-0.6765 0.184,-1.7048 0.349,-2.2848 0.162,-0.5802 0.583,-2.4782 0.933,-4.2182 0.349,-1.7398 1.133,-5.3782 1.748,-8.0849 0.61,-2.7065 1.117,-5.5807 1.122,-6.3871 3.925,-9.3488 8.776,-18.7046 15.866,-25.9522 3.394,-3.4799 9.659,-9.9101 13.922,-14.2895 4.262,-4.379 8.877,-8.5374 10.255,-9.241 1.377,-0.7031 4.397,-3.2891 6.711,-5.7465 2.315,-2.4574 4.758,-4.7903 5.428,-5.1836 0.668,-0.3938 3.746,-3.0199 6.84,-5.8358 6.33,-5.7631 12.637,-10.6209 16.039,-12.3557 1.257,-0.6411 2.285,-1.4394 2.285,-1.7741 0,-0.3345 1.216,-1.0955 2.704,-1.6911 1.488,-0.5952 4.703,-2.6859 7.147,-4.6458 2.442,-1.9599 5.025,-3.5638 5.74,-3.5638 0.715,0 1.849,-0.2956 2.52,-0.6569 0.673,-0.3614 2.249,-1.0712 3.506,-1.5776 1.257,-0.5065 2.285,-1.1597 2.285,-1.4523 0,-2.3173 1.925,-3.2956 6.535,-3.3211 3.965,-0.023 6.578,-0.9931 11.743,-4.3664 0.968,-0.6312 3.657,-1.5459 5.976,-2.0325 2.321,-0.4867 5.011,-1.2669 5.976,-1.7337 3.427,-1.6541 17.667,-5.247 20.796,-5.247 1.747,0 4.189,-0.5324 5.427,-1.1828 l 2.25,-1.1828 -1.756,-0.5047 c -1.496,-0.4291 -1.548,-0.528 -0.352,-0.6582 0.773,-0.085 1.722,-0.06 2.108,0.053 1.826,0.5371 11.302,-0.2476 11.824,-0.979 0.427,-0.5938 0.677,-0.6026 0.912,-0.033 0.406,0.975 4.504,-0.3044 6.393,-1.9943 0.976,-0.8751 2.761,-1.1208 7.937,-1.0929 3.674,0.024 6.997,-0.074 7.384,-0.206 1.573,-0.5389 15.973,2.6924 20.035,4.4959 1.353,0.6009 4.36,1.7059 6.678,2.4558 9.969,3.2217 17.917,6.4366 20.423,8.2618 1.177,0.8581 3.305,1.8812 4.725,2.2734 1.419,0.3919 3.509,1.3735 4.644,2.1812 1.133,0.8074 2.337,1.4682 2.67,1.4682 0.336,0 2.342,0.945 4.462,2.1001 2.117,1.1551 4.642,2.4511 5.61,2.8802 7.961,3.5337 14.287,7.7107 15.736,10.3912 1.075,1.9911 4.172,5.0163 5.135,5.0163 0.506,0 0.924,0.2743 0.924,0.6097 0,0.335 1.256,1.4411 2.791,2.4573 1.536,1.0162 3.829,3.0045 5.096,4.4185 1.268,1.4139 6.13,6.412 10.808,11.1068 4.675,4.695 9.992,10.8004 11.817,13.5677 1.821,2.7673 3.881,5.2115 4.572,5.4313 3.372,1.0702 16.248,17.0781 16.239,20.1911 0,0.654 0.316,1.3858 0.705,1.6267 0.726,0.4496 7.109,8.9795 9.371,12.5223 0.694,1.0891 1.874,2.5918 2.622,3.3393 0.748,0.7477 1.359,1.96 1.359,2.694 0,0.7338 0.891,3.0277 1.979,5.0969 2.189,4.1674 3.372,9.1916 4.274,18.1744 0.331,3.2866 1.287,7.821 2.123,10.0769 0.837,2.2555 1.543,5.5774 1.568,7.3816 0.05,2.8904 1.542,7.8623 3.474,11.5317 0.354,0.6714 0.643,2.2655 0.643,3.5421 0,1.2771 0.638,3.5731 1.417,5.1027 0.78,1.5296 1.465,3.9828 1.523,5.4517 0.08,1.4689 0.352,2.8241 0.655,3.0114 0.303,0.1875 0.368,1.8934 0.139,3.7909 -0.232,1.8978 -0.162,4.0245 0.138,4.726 1.054,2.4606 1.09,22.1251 0.05,25.8813 -0.533,1.9334 -1.009,6.0462 -1.056,9.1396 -0.113,7.1907 -0.694,11.4608 -1.906,13.8498 -0.528,1.0442 -0.963,2.8218 -0.963,3.9504 0,1.1286 -1.389,4.5453 -3.085,7.5924 -1.7,3.0472 -3.287,6.9014 -3.529,8.5648 -0.247,1.6633 -1.207,4.1942 -2.139,5.6242 -0.933,1.4298 -2.55,4.8146 -3.592,7.5213 -2.599,6.7487 -4.918,11.4328 -7.307,14.756 -1.111,1.5425 -1.835,3.1243 -1.615,3.515 0.209,0.3906 0.138,0.4814 -0.162,0.2013 -0.31,-0.28 -1.411,0.8272 -2.448,2.4604 -1.037,1.6335 -3.336,4.7473 -5.109,6.9197 -4.156,5.0995 -7.019,9.6506 -6.546,10.4132 0.597,0.966 -8.897,7.451 -13.558,9.2622 -2.511,0.9758 -10.709,6.8947 -13.636,9.8476 -5.478,5.5244 -17.67,12.3193 -27.111,15.1099 -9.37,2.7702 -9.276,2.7361 -15.265,5.5498 -3.095,1.4535 -6.59,3.0912 -7.767,3.6394 -1.175,0.5485 -2.632,0.8082 -3.234,0.5772 -0.6,-0.2315 -3.07,0.2645 -5.487,1.1006 -3.553,1.2293 -6.3,1.5552 -14.342,1.7016 -5.47,0.099 -14.216,0.4193 -19.438,0.7103 -5.219,0.2912 -9.688,0.3198 -9.928,0.065 z m 22.713,-20.2254 c 1.813,0.093 7.665,-0.4571 13.008,-1.2212 5.341,-0.7645 11.293,-1.5714 13.226,-1.7936 9.537,-1.0954 20.692,-4.3313 27.793,-8.0613 0.592,-0.3116 2.154,-0.8032 3.474,-1.0927 3.985,-0.8755 15.467,-6.5223 15.981,-7.8602 0.263,-0.6883 1.545,-2.3178 2.849,-3.6213 1.303,-1.3032 3.311,-3.6694 4.461,-5.2582 1.153,-1.5887 2.815,-3.3769 3.699,-3.9736 2.321,-1.5688 13.605,-13.948 15.728,-17.254 0.993,-1.5467 2.338,-3.603 2.989,-4.5697 0.649,-0.9667 1.4,-2.6275 1.663,-3.691 0.264,-1.0632 0.791,-1.9331 1.169,-1.9331 0.38,0 0.689,-0.6328 0.689,-1.4062 0,-0.7733 0.302,-1.4061 0.67,-1.4061 0.364,0 2.161,-2.1354 3.989,-4.7455 1.826,-2.6099 3.858,-5.3781 4.513,-6.1513 0.655,-0.7735 1.377,-2.2033 1.606,-3.1778 0.231,-0.9741 1.023,-2.4223 1.764,-3.2174 0.743,-0.7955 1.585,-2.1954 1.877,-3.1112 0.289,-0.9158 1.437,-3.141 2.546,-4.9451 1.111,-1.8038 2.018,-3.9124 2.018,-4.6857 0,-0.7731 0.789,-2.5684 1.753,-3.9889 0.964,-1.4209 2.348,-3.7588 3.072,-5.1953 0.725,-1.4366 1.911,-3.7192 2.639,-5.0724 1.013,-1.8905 1.254,-3.5191 1.046,-7.0302 -0.14,-2.5134 -0.209,-5.3609 -0.14,-6.3275 0.08,-0.9665 0.234,-3.5761 0.371,-5.7993 0.139,-2.2231 0.486,-5.8613 0.778,-8.0847 0.643,-4.919 0.481,-14.6051 -0.363,-21.4654 -1.061,-8.6195 -5.622,-29.2004 -7.437,-33.547 -0.565,-1.3534 -1.625,-4.5169 -2.356,-7.0305 -1.48,-5.0988 -4.645,-14.3619 -5.644,-16.521 -0.357,-0.7732 -1.586,-3.4623 -2.73,-5.9756 -1.299,-2.8594 -3.793,-6.4117 -6.658,-9.4909 -4.038,-4.3381 -4.733,-4.8194 -5.873,-4.062 -0.714,0.4726 -2.403,1.3991 -3.756,2.0582 -1.355,0.6593 -3.253,1.7381 -4.219,2.3969 -3.025,2.0626 -7.958,4.8773 -11.248,6.4196 -1.741,0.8155 -4.113,2.1917 -5.272,3.058 -1.16,0.8665 -3.122,1.7898 -4.362,2.0526 -1.24,0.2622 -4.312,2.116 -6.833,4.1193 -2.518,2.003 -7.946,5.5402 -12.06,7.8602 -4.117,2.3201 -7.646,4.6305 -7.849,5.1343 -0.207,0.5039 0.47,2.8769 1.49,5.2729 1.015,2.396 1.846,4.8742 1.846,5.5069 0,1.9652 -7.926,3.014 -17.871,2.3663 -4.673,-0.3044 -12.292,-0.6502 -16.932,-0.7684 -4.638,-0.1182 -11.125,-0.3562 -14.412,-0.5289 -3.286,-0.1735 -6.966,-0.023 -8.179,0.343 -1.351,0.4028 -5.14,0.4111 -9.793,0.023 -10.159,-0.8509 -10.501,-1.231 -9.816,-10.8968 0.428,-6.0178 0.333,-7.0842 -0.734,-8.262 -0.671,-0.7436 -1.76,-1.352 -2.42,-1.352 -0.66,0 -2.588,-1.1936 -4.284,-2.6523 -1.699,-1.4589 -4.197,-3.4794 -5.548,-4.4901 -1.353,-1.0107 -3.251,-2.5473 -4.219,-3.4148 -2.215,-1.988 -8.31,-4.8935 -10.285,-4.9025 -0.822,0 -2.562,-0.4401 -3.864,-0.97 -2.343,-0.9505 -9.576,-0.9939 -14.537,-0.085 -2.259,0.4128 -12.898,6.4098 -16.818,9.4795 -1.072,0.8393 -3.768,3.2403 -5.987,5.3361 -2.222,2.0954 -4.317,3.8098 -4.655,3.8098 -0.754,0 -2.08,7.1697 -1.948,10.5266 0.113,3.0838 -2.28,4.5669 -5.767,3.5662 -2.343,-0.6717 -18.819,-1.7384 -27.18,-1.7596 -6.995,-0.023 -14.998,1.1212 -22.249,3.1674 -2.705,0.7633 -4.127,0.7598 -8.261,-0.023 -3.852,-0.7264 -5.405,-0.7554 -6.784,-0.1273 -2.445,1.1133 -4.192,1.0239 -5.265,-0.2695 -0.725,-0.873 -0.734,-2.0071 -0.05,-5.8001 1.199,-6.5847 1.689,-11.3932 1.166,-11.3932 -0.245,0 -1.266,0.5375 -2.268,1.1948 -1.759,1.1523 -1.87,1.1371 -3.139,-0.4296 -0.723,-0.8933 -1.317,-2.2797 -1.317,-3.0813 0,-1.7574 -8.083,-9.5714 -12.654,-12.2306 -1.738,-1.0123 -4.317,-2.7408 -5.723,-3.8409 -1.41,-1.1002 -2.874,-2.0003 -3.254,-2.0003 -0.759,0 -7.191,7.5563 -7.191,8.4465 0,0.3034 -1.262,2.5609 -2.8,5.0163 -5.329,8.4944 -5.745,9.812 -5.626,17.7141 0.07,3.9261 0.02,8.5617 -0.09,10.3016 -0.09,1.7402 -0.139,4.5873 -0.06,6.3275 0.06,1.7398 0.28,7.2762 0.473,12.3028 0.186,5.0265 0.528,10.2466 0.739,11.6 0.209,1.3534 0.507,5.3079 0.653,8.7878 0.231,5.2617 0.761,7.6887 3.206,14.412 1.617,4.4467 4.126,11.4066 5.577,15.4667 1.453,4.0598 4.607,11.6525 7.015,16.8725 6.698,14.5338 7.083,15.4072 7.083,16.064 0,0.3369 0.778,1.7587 1.73,3.1595 0.949,1.4009 2.516,3.9574 3.476,5.6809 6.925,12.4022 13.516,21.1417 22.565,29.9143 5.788,5.6143 7.719,7.117 13.005,10.1336 2.512,1.4337 5.993,3.6957 7.734,5.026 1.74,1.3308 4.587,3.1643 6.328,4.0747 3.182,1.6657 7.615,4.0775 14.763,8.0295 2.126,1.1761 4.945,2.3652 6.267,2.6424 1.318,0.277 3.818,1.2584 5.552,2.1801 1.733,0.9221 3.885,1.6764 4.781,1.6764 0.896,0 3.088,0.9246 4.868,2.0544 2.137,1.3556 4.956,2.3287 8.285,2.8603 2.775,0.4432 8.403,1.5923 12.504,2.5534 4.455,1.044 8.209,1.5592 9.325,1.2794 1.078,-0.2706 2.282,-0.1232 2.851,0.3493 0.542,0.4494 3.622,0.9289 6.843,1.0654 3.224,0.1366 7.126,0.4555 8.675,0.7092 1.545,0.2534 4.867,0.1712 7.38,-0.1852 2.795,-0.3945 6.483,-0.3909 9.491,0.024 4.909,0.6535 10.594,1.0627 20.924,1.5058 3.002,0.1297 5.684,0.4611 5.962,0.7383 0.275,0.277 2.093,0.2588 4.034,-0.041 1.939,-0.2996 5.011,-0.4688 6.823,-0.3763 z m -23.041,-52.6269 c -0.738,-0.2723 -8.303,-0.6848 -16.809,-0.9167 -12.205,-0.3323 -16.641,-0.7216 -21.028,-1.8464 -3.06,-0.7836 -7.211,-1.4249 -9.229,-1.4249 -2.019,0 -4.824,-0.4829 -6.235,-1.0728 -1.413,-0.5901 -4.38,-1.2341 -6.589,-1.4309 -7.717,-0.6871 -19.479,-3.1371 -34.957,-7.2805 -1.159,-0.3108 -5.61,-2.9026 -9.889,-5.76 -4.28,-2.8572 -8.945,-5.7985 -10.369,-6.5361 -1.425,-0.7376 -2.588,-1.5678 -2.588,-1.8448 0,-0.2768 -1.662,-2.4138 -3.693,-4.7487 -2.029,-2.3351 -4.64,-5.4227 -5.798,-6.861 -1.16,-1.4384 -2.662,-3.1182 -3.341,-3.7328 -0.675,-0.6145 -1.229,-1.4506 -1.229,-1.858 0,-0.4071 -0.939,-2.6304 -2.088,-4.9407 -1.147,-2.3102 -2.096,-4.7538 -2.107,-5.4303 -0.02,-0.6768 -0.272,-1.2306 -0.574,-1.2306 -0.301,0 -0.614,-1.4724 -0.693,-3.2722 -0.08,-1.8019 -0.638,-3.8199 -1.244,-4.4908 -1.663,-1.8371 -3.838,-8.0805 -3.852,-11.0503 -0.02,-1.4458 -0.468,-4.5269 -1.029,-6.847 -0.561,-2.3199 -1.031,-4.431 -1.042,-4.6914 -0.05,-1.111 3.726,-4.7993 4.925,-4.7993 1.923,0 4.89,1.5013 4.89,2.4745 0,0.4635 0.979,2.8647 2.176,5.3357 4.464,9.2304 4.859,10.141 4.851,11.1714 0,0.58 1.217,3.5854 2.714,6.6788 1.498,3.0933 3.564,7.7843 4.595,10.4242 1.082,2.7845 3.781,7.3053 6.422,10.7669 2.503,3.282 4.552,6.2244 4.552,6.5387 0,0.3142 1.815,1.7965 4.031,3.2934 2.217,1.497 4.648,3.2757 5.405,3.9523 0.756,0.6768 1.715,1.2304 2.131,1.2304 0.417,0 2.018,0.6823 3.559,1.5159 1.542,0.8338 5.794,2.4204 9.452,3.5252 3.798,1.1474 7.418,2.7202 8.437,3.6676 1.226,1.1388 2.996,1.7977 5.651,2.1028 3.782,0.4342 7.493,1.0786 14.942,2.5939 2.03,0.4128 6.266,1.0065 9.417,1.319 3.147,0.3124 6.108,0.8049 6.576,1.0941 0.468,0.2893 3.429,0.6388 6.576,0.7768 3.149,0.1365 8.297,0.5017 11.437,0.8091 5.523,0.5404 14.833,-0.077 29.089,-1.924 3.287,-0.4263 7.717,-0.9062 9.843,-1.0668 4.713,-0.3556 6.198,-0.7106 11.6,-2.7715 2.319,-0.8853 5.483,-1.9631 7.029,-2.3955 1.548,-0.4326 3.763,-1.6618 4.923,-2.7317 1.158,-1.0699 4.323,-3.7149 7.027,-5.8776 2.709,-2.1625 5.398,-4.8462 5.976,-5.9633 0.581,-1.1171 2.084,-3.6115 3.341,-5.5427 1.255,-1.9313 2.286,-3.9235 2.286,-4.4274 0,-0.5036 1.611,-2.5673 3.583,-4.5854 3.29,-3.3722 6.158,-7.5366 5.186,-7.5366 -0.232,0 0.38,-1.028 1.338,-2.285 2.167,-2.845 3.789,-7.5339 4.186,-12.1272 0.519,-5.9587 2.246,-8.7878 5.365,-8.7878 2.971,0 4.177,1.4322 5.003,5.9321 1.003,5.458 0.376,9.1795 -2.189,12.9799 -1.145,1.7012 -2.093,3.4413 -2.102,3.8665 -0.02,0.4252 -0.633,1.5638 -1.391,2.5305 -0.754,0.9668 -1.381,2.4377 -1.389,3.2688 -0.02,0.8311 -1.124,3.1566 -2.475,5.1675 -1.354,2.0112 -2.462,4.0983 -2.462,4.6384 0,0.5402 -0.949,2.9909 -2.109,5.4459 -1.16,2.4551 -2.109,4.7581 -2.109,5.1175 0,0.3594 -1.766,2.8596 -3.922,5.5562 -2.159,2.6963 -4.241,5.5353 -4.626,6.3086 -1.531,3.0614 -8.217,8.2092 -15.002,11.5532 -9.519,4.689 -17.972,6.7761 -31.638,7.8102 -4.64,0.3511 -9.097,0.7508 -9.905,0.8883 -0.81,0.1366 -2.074,0.028 -2.812,-0.2456 z m -118.529,31.9362 c -0.625,-0.6248 -1.562,-0.9774 -2.083,-0.7832 -0.626,0.2324 -0.348,0.6053 0.81,1.0915 2.433,1.0231 2.571,0.9898 1.273,-0.3083 z m 193.114,-191.456 c 1.933,-0.9067 5.253,-2.8211 7.381,-4.2542 5.698,-3.8389 14.725,-8.8129 17.832,-9.8242 1.494,-0.4865 5.289,-2.4796 8.435,-4.429 3.148,-1.9494 6.58,-3.9878 7.632,-4.5299 1.051,-0.5418 2.791,-1.9155 3.866,-3.053 1.571,-1.6655 2.539,-2.068 4.976,-2.068 h 3.022 l -2.319,-3.2467 c -4.564,-6.3937 -8.945,-12.6183 -10.824,-15.3835 -1.053,-1.5467 -4.709,-5.529 -8.128,-8.8498 -3.418,-3.3207 -6.219,-6.3264 -6.226,-6.6788 -0.02,-0.3525 -1.509,-1.9887 -3.339,-3.636 -4.999,-4.4997 -6.027,-5.5233 -7.348,-7.3162 -6.321,-8.5714 -9.216,-11.834 -10.496,-11.834 -0.787,0 -2.236,-0.6328 -3.219,-1.4062 -0.984,-0.7735 -2.317,-1.4059 -2.965,-1.4059 -0.648,0 -2.844,-1.4239 -4.883,-3.1637 -2.039,-1.74 -3.972,-3.1635 -4.293,-3.1635 -0.325,0 -3.067,-2.3132 -6.097,-5.1404 -5.957,-5.5621 -13.262,-11.0293 -14.737,-11.0293 -0.507,0 -1.958,-0.5827 -3.226,-1.2952 -1.269,-0.7123 -4.52,-1.681 -7.228,-2.1529 -2.705,-0.4719 -5.87,-1.1899 -7.028,-1.5953 -9.464,-3.3074 -14.356,-4.5719 -21.278,-5.4978 -3.198,-0.4275 -6.062,-0.6221 -6.367,-0.4325 -0.308,0.1898 -6.078,0.5126 -12.821,0.7179 -12.269,0.3732 -21.134,1.8087 -25.822,4.1818 -1.049,0.5306 -3.173,1.1919 -4.719,1.4692 -1.546,0.2772 -4.21,1.4268 -5.92,2.5546 -1.711,1.1274 -3.548,2.0502 -4.085,2.0502 -0.539,0 -2.714,0.8209 -4.835,1.824 -2.12,1.0032 -4.869,1.9792 -6.107,2.1687 -2.949,0.4513 -10.159,3.1674 -16.314,6.1467 -2.706,1.3099 -8.242,3.7053 -12.304,5.323 -4.059,1.6179 -8.485,3.6516 -9.84,4.5199 -1.354,0.8679 -4.36,2.7888 -6.679,4.2682 -2.321,1.4795 -6.022,3.9044 -8.228,5.3894 -2.203,1.4846 -4.263,2.6994 -4.573,2.6994 -0.313,0 -2.492,1.6608 -4.843,3.6907 -2.354,2.0302 -5.509,4.6401 -7.016,5.8 -1.504,1.1602 -3.599,2.9791 -4.656,4.0425 -1.058,1.0632 -2.185,1.9332 -2.505,1.9332 -0.702,0 -8.326,8.4966 -10.723,11.9515 -0.938,1.3534 -2.398,3.2156 -3.24,4.138 -0.846,0.9227 -1.961,2.5046 -2.482,3.5153 -0.521,1.0107 -1.296,2.1539 -1.725,2.5405 -1.714,1.5511 -7.286,10.1056 -9.305,14.286 l -2.145,4.4435 3.21,1.8839 c 1.765,1.036 4.254,2.9118 5.528,4.1684 1.276,1.2568 2.959,2.2848 3.738,2.2848 0.896,0 2.634,1.5482 4.719,4.2031 1.817,2.3115 3.506,4.0763 3.759,3.9212 0.25,-0.1551 0.185,-3.803 -0.14,-8.107 -0.448,-5.8182 -0.386,-8.0863 0.242,-8.8425 0.99,-1.1944 4.387,-1.336 6.385,-0.2668 2.314,1.2395 10.327,0.9392 19.507,-0.7313 2.462,-0.4485 6.417,-0.6298 8.788,-0.4027 2.367,0.2268 8.262,0.5661 13.095,0.7537 4.832,0.1875 9.91,0.608 11.282,0.9342 1.37,0.3261 4.265,0.4457 6.435,0.2659 3.628,-0.3009 4.03,-0.1851 5.125,1.4853 1.418,2.1658 3.844,11.1487 3.86,14.3029 0.02,2.4267 1.028,3.6522 1.662,2.0045 0.494,-1.2865 8.857,-7.4113 10.12,-7.4113 0.519,0 1.642,-0.6595 2.496,-1.4656 0.854,-0.8061 2.976,-2.2936 4.717,-3.3057 1.739,-1.012 3.32,-2.0451 3.515,-2.2958 1.963,-2.5462 12.368,-3.1636 22.426,-1.3309 8.489,1.5468 10.062,2.1655 14.833,5.831 4.089,3.1417 7.035,4.6758 8.979,4.6758 0.646,0 2.393,1.3448 3.876,2.9881 l 2.701,2.9879 -0.358,-3.6532 c -0.209,-2.0091 -0.85,-4.6035 -1.452,-5.7651 -1.388,-2.6837 -1.395,-5.2733 -0.02,-6.4163 0.773,-0.642 5.545,-0.9724 17.048,-1.1806 8.787,-0.1596 18.822,-0.4387 22.304,-0.6223 3.477,-0.1829 12.409,-0.4464 19.843,-0.5845 17.545,-0.3262 17.306,-0.4892 15.86,10.8401 -0.817,6.3996 -0.957,12.849 -0.269,12.4656 0.231,-0.1297 1.999,-0.9762 3.935,-1.883 z m 54.91,-25.6463 c -0.25,-0.9948 -0.798,-1.8088 -1.217,-1.8088 -0.422,0 -0.574,0.5003 -0.34,1.1121 0.236,0.6116 0.428,1.7819 0.428,2.6011 0,1.1043 0.208,1.2846 0.791,0.697 0.45,-0.4473 0.595,-1.5793 0.338,-2.6014 z m -227.505,-74.2207 c 0,-0.3864 0.414,-0.7029 0.921,-0.7029 1.078,0 3.985,-2.0555 2.946,-2.0831 -0.386,-0.023 -1.967,0.7605 -3.515,1.7134 -1.743,1.0743 -2.345,1.7401 -1.581,1.7538 0.676,0.023 1.229,-0.2945 1.229,-0.6812 z m -252.737,196.1445 c -0.24,-0.3866 -0.09,-0.7029 0.31,-0.7029 0.41,0 0.743,0.3163 0.743,0.7029 0,0.3867 -0.138,0.703 -0.31,0.703 -0.161,0 -0.504,-0.3163 -0.743,-0.703 z m -22.849,1.4062 c 0,-0.3868 -0.14,-0.7032 -0.31,-0.7032 -0.163,0 -0.504,0.3164 -0.746,0.7032 -0.237,0.3867 -0.09,0.703 0.311,0.703 0.409,0 0.745,-0.3163 0.745,-0.703 z m 11.952,-22.4139 c 0,-0.3864 0.316,-0.8984 0.702,-1.1374 0.387,-0.239 0.704,-0.1182 0.704,0.2686 0,0.3865 -0.317,0.8985 -0.704,1.1375 -0.386,0.2389 -0.702,0.1182 -0.702,-0.2687 z m -11.952,-143.5418 c 0,-0.4095 0.317,-0.5489 0.704,-0.31 0.386,0.239 0.704,0.574 0.704,0.7445 0,0.1713 -0.318,0.31 -0.704,0.31 -0.387,0 -0.704,-0.335 -0.704,-0.7445 z"
       id="path8157-4-6" /></g></svg>
