<?xml version="1.0" encoding="UTF-8" standalone="no"?>
<!-- Created with Inkscape (http://www.inkscape.org/) -->

<svg
   version="1.1"
   id="svg176"
   width="1016.4986"
   height="972.45093"
   viewBox="0 0 1016.4986 972.45093"
   sodipodi:docname="comic.svg"
   xml:space="preserve"
   inkscape:version="1.2.2 (b0a8486541, 2022-12-01)"
   xmlns:inkscape="http://www.inkscape.org/namespaces/inkscape"
   xmlns:sodipodi="http://sodipodi.sourceforge.net/DTD/sodipodi-0.dtd"
   xmlns="http://www.w3.org/2000/svg"
   xmlns:svg="http://www.w3.org/2000/svg"><defs
     id="defs180"><inkscape:path-effect
       effect="roughen"
       id="path-effect2210-3-3-2-20-2"
       is_visible="true"
       lpeversion="1.2"
       method="size"
       max_segment_size="40"
       segments="114"
       displace_x="1;589550557"
       displace_y="7;1910419474"
       global_randomize="1;1292492417"
       handles="along"
       shift_nodes="true"
       fixed_displacement="false"
       spray_tool_friendly="false" /><rect
       x="-5995.3394"
       y="2384.0144"
       width="950.86249"
       height="249.90585"
       id="rect8929-2-8" /><rect
       x="-5995.3394"
       y="2384.0144"
       width="911.28223"
       height="202.5405"
       id="rect8929-2-3-4" /><rect
       x="-4578.7661"
       y="2913"
       width="1005.4591"
       height="284.5011"
       id="rect545-3-7" /></defs><sodipodi:namedview
     id="namedview178"
     pagecolor="#ffffff"
     bordercolor="#000000"
     borderopacity="0.25"
     inkscape:showpageshadow="2"
     inkscape:pageopacity="0.0"
     inkscape:pagecheckerboard="0"
     inkscape:deskcolor="#d1d1d1"
     showgrid="false"
     showguides="false"
     inkscape:zoom="0.061863481"
     inkscape:cx="-3297.5836"
     inkscape:cy="6142.5577"
     inkscape:window-width="1920"
     inkscape:window-height="1011"
     inkscape:window-x="0"
     inkscape:window-y="0"
     inkscape:window-maximized="1"
     inkscape:current-layer="g182"><inkscape:grid
       type="xygrid"
       id="grid2722" /></sodipodi:namedview><g
     inkscape:groupmode="layer"
     inkscape:label="Image"
     id="g182"
     transform="translate(5667.319,-3119.7548)"><g
       aria-label="cool."
       transform="translate(-734.229,263.5073)"
       id="vgn5"
       style="font-size:96px;font-family:'Canted Comic';-inkscape-font-specification:'Canted Comic, Normal';white-space:pre;shape-inside:url(#rect545-3-7);display:inline;stroke-width:10;stroke-linejoin:round"><g
         id="g13108"><path
           style="fill:none;fill-opacity:1;stroke:#000000;stroke-width:8;stroke-linejoin:round;stroke-dasharray:none;stroke-opacity:1"
           d="m -5662.0387,3132.4066 38.4844,-4.3689 39.2493,0.042 38.616,-1.901 38.3382,-0.1421 38.861,3.6538 38.715,-0.1914 38.9078,0.1619 38.559,-2.0014 38.9414,0.5697 38.3952,-0.055 38.9882,-2.735 38.8286,-1.6844 38.7483,3.509 38.6144,3.1507 38.9403,-1.029 38.9559,0.4928 38.304,1.0863 38.6987,0.5448 38.837,-1.1803 38.7145,-2.1692 38.6772,-1.8652 38.7381,3.0891 38.7999,-0.4098 38.2624,2.5686 39.0008,-1.5075 39.0427,-1.4585 -0.3569,37.9736 -0.4534,42.7975 -0.6159,34.3967 -0.4743,44.1046 0.083,32.4914 0.208,37.6479 -0.1182,39.5018 -0.062,38.8352 0.1217,38.2073 -0.4546,40.1089 -0.2274,38.6753 -0.1422,35.4273 0.3363,39.3177 -0.2153,38.4315 -0.061,38.0367 0.062,38.6596 -0.071,37.4635 -0.1605,42.3261 0.1171,35.7281 -0.3813,36.4485 -0.1903,39.5733 0.2579,38.5732 -0.792,38.9321 -0.1723,37.254 0.098,38.7174 -38.4064,-3.8366 -38.8953,-0.1909 -38.767,-0.7142 -38.7958,-0.2874 -38.1541,10e-4 -38.5626,-0.042 -38.7003,-2.5848 -38.4535,0.1203 -38.647,-0.2917 -38.6004,-0.18 -39.1383,2.0708 -37.9511,0.2093 -39.3081,0.04 -37.9638,-2.1427 -38.6853,0.5011 -38.5463,0.3118 -38.9146,-0.5624 -38.3271,-0.859 -38.2247,-1.8187 -38.85,1.9863 -38.7762,1.9111 -38.4129,-0.445 -38.3571,-3.1404 -39.3012,-1.894 -38.1949,3.5371 -38.873,3.8937 0.084,-42.123 -0.1365,-38.0502 -0.4495,-39.6364 -0.525,-42.6613 0.1199,-36.8272 0.2534,-38.5434 -0.035,-41.0958 0.051,-39.2277 0.012,-40.0823 0.064,-36.4893 0.07,-42.9693 -0.051,-39.7438 0.4658,-36.5746 -0.3924,-42.8139 0.04,-40.7944 0.2406,-36.4287 -0.2518,-43.8579 -0.1224,-39.5675 0.048,-35.0317 0.2189,-40.5879 0.3209,-39.7335 -0.01,-39.909 0.015,-42.4541 z"
           id="path2208-7-4-2-46-7"
           inkscape:path-effect="#path-effect2210-3-3-2-20-2"
           inkscape:original-d="m -5662.006,3128.9112 h 1007.027 l -3.501,960.1724 -1003.526,-6.018 z"
           sodipodi:nodetypes="ccccc"
           transform="translate(734.229,-263.5073)" /><g
           aria-label="but how could we"
           transform="translate(1107.73,843.247)"
           id="text8927-9-3"
           style="font-size:96px;font-family:'Canted Comic';-inkscape-font-specification:'Canted Comic, Normal';white-space:pre;shape-inside:url(#rect8929-2-8);display:inline;stroke-width:10;stroke-linejoin:round"><path
             d="m -5943.6918,2423.1954 c 0,2.4 -0.864,4.896 -2.592,7.488 -0.864,1.152 -1.632,2.112 -2.4,2.88 8.352,0.672 13.248,4.512 14.496,11.616 0.192,1.056 0.288,2.016 0.288,3.072 0,16.992 -27.264,28.704 -46.08,31.104 -0.672,0.672 -1.536,1.152 -2.592,1.248 -0.096,0.096 -0.384,0.096 -0.864,0.096 -2.592,0 -4.128,-1.344 -4.512,-4.128 -1.536,-9.408 -2.4,-24.48 -2.592,-45.12 v -6.048 c 0.096,-2.208 0.384,-3.936 0.96,-4.992 3.072,-5.76 14.496,-9.216 26.4,-9.216 h 1.344 c 6.432,0.192 11.136,1.536 14.304,4.032 2.4,2.016 3.744,4.416 3.84,7.2 z m -19.776,-2.4 c -4.32,0 -8.16,0.48 -11.712,1.536 -2.4,0.672 -4.224,1.536 -5.664,2.496 0,0.48 0,0.768 -0.096,0.96 v 5.568 l 0.192,8.16 2.976,-1.344 c 8.448,-3.456 14.496,-6.336 18.24,-8.544 2.688,-1.632 4.416,-2.976 5.184,-4.128 0.672,-1.056 1.056,-1.92 1.056,-2.496 l -0.192,-0.288 c -1.344,-1.152 -4.224,-1.824 -8.64,-1.92 z m -10.272,26.88 -2.88,1.344 c -1.056,0.48 -2.016,0.768 -2.688,0.864 -0.096,0.096 -0.48,0.096 -0.96,0.096 0.576,9.696 0.96,16.224 1.248,19.584 7.776,-1.44 15.264,-4.032 22.272,-7.584 4.896,-2.592 8.352,-5.184 10.464,-7.68 1.824,-2.208 2.784,-4.32 2.784,-6.336 0,-0.576 0,-0.96 -0.096,-1.152 -0.48,-2.4 -2.88,-3.648 -7.392,-3.84 h -1.44 c -4.128,0 -8.448,0.672 -12.96,2.112 z"
             id="path12980" /><path
             d="m -5876.9718,2412.7314 c -0.192,3.744 -0.288,8.256 -0.288,13.536 0.096,1.248 0.096,3.744 0.096,7.584 0,3.168 0,5.184 -0.096,5.856 -0.192,4.032 -0.288,8.352 -0.288,13.056 v 3.552 c 0.096,6.24 0.384,11.52 1.056,16.032 v 0.576 c 0,2.88 -1.344,4.512 -4.128,4.896 h -0.768 c -1.728,0 -3.072,-0.768 -4.032,-2.304 -6.24,1.344 -10.272,2.112 -12.192,2.4 -2.496,0.384 -4.896,0.576 -7.104,0.576 -4.704,0 -8.352,-0.672 -10.944,-2.112 -6.72,-3.456 -10.656,-13.632 -11.808,-30.432 -0.096,-2.976 -0.192,-5.184 -0.192,-6.624 v -2.976 c 0.096,-5.76 0.288,-11.52 0.576,-17.184 0.192,-3.36 0.288,-5.376 0.288,-5.952 0.096,-2.688 2.304,-4.608 4.704,-4.608 h 0.288 c 2.688,0.096 4.608,2.304 4.608,4.704 v 0.288 c -0.288,4.704 -0.576,9.216 -0.672,13.536 v 0.288 l -0.192,8.544 v 2.88 c 0,1.248 0.096,3.456 0.192,6.528 0.384,6.432 1.248,11.808 2.496,15.936 2.016,6.528 4.224,7.488 10.752,7.488 2.208,0 4.032,-0.096 5.664,-0.384 3.168,-0.48 7.296,-1.248 12.192,-2.4 -0.192,-2.976 -0.288,-7.008 -0.288,-12 l 0.192,-14.496 c 0.096,-0.576 0.096,-1.536 0.096,-2.784 0,-1.248 0,-2.88 -0.096,-4.896 v -8.544 c 0,-5.184 0.096,-8.832 0.288,-10.944 0.096,-2.592 2.4,-4.608 4.8,-4.608 h 0.288 c 2.592,0.096 4.512,2.304 4.512,4.704 z"
             id="path12982" /><path
             d="m -5835.8839,2473.6914 c 0,2.976 -1.344,4.512 -4.128,4.8 -0.096,0.096 -0.384,0.096 -0.672,0.096 -2.784,0 -4.416,-1.344 -4.8,-4.128 -1.056,-7.776 -1.728,-16.128 -2.016,-25.056 -0.192,-3.552 -0.288,-7.104 -0.288,-10.656 0,-3.936 0.192,-8.928 0.48,-14.976 -9.024,0.864 -16.416,1.728 -22.08,2.688 -0.096,0.096 -0.48,0.096 -0.96,0.096 -2.592,0 -4.128,-1.344 -4.608,-3.936 -0.096,-0.096 -0.096,-0.48 -0.096,-0.96 0,-2.592 1.344,-4.128 3.936,-4.608 5.952,-1.056 15.456,-2.208 28.416,-3.264 11.808,-1.056 20.928,-2.208 27.264,-3.552 0.192,-0.096 0.576,-0.096 1.056,-0.096 2.496,0 4.032,1.248 4.704,3.744 0.096,0.192 0.096,0.576 0.096,1.152 0,2.4 -1.248,3.936 -3.744,4.608 -5.856,1.344 -14.016,2.496 -24.288,3.36 -0.384,5.088 -0.576,10.368 -0.576,15.84 l 0.192,9.312 c 0.288,8.64 1.056,16.992 2.112,24.96 z"
             id="path12984" /><path
             d="m -5732.6839,2432.0274 c 0.288,16.992 1.056,30.432 2.304,40.224 v 0.48 c 0,2.976 -1.344,4.512 -4.128,4.8 -0.096,0.096 -0.384,0.096 -0.672,0.096 -2.784,0 -4.416,-1.44 -4.8,-4.224 -0.864,-7.968 -1.536,-16.32 -1.92,-24.96 -2.784,0.288 -6.816,0.96 -11.904,2.016 -4.896,0.96 -8.832,1.728 -11.904,2.208 l 1.728,21.312 c 0,2.4 -1.824,4.704 -4.416,4.8 -0.096,0.096 -0.192,0.096 -0.48,0.096 -2.304,0 -4.416,-2.016 -4.704,-4.416 l -1.056,-13.44 c -1.056,-11.904 -1.536,-21.984 -1.536,-30.24 0,-5.088 0.288,-9.984 0.768,-14.784 0.384,-2.784 2.016,-4.224 4.8,-4.224 h 0.672 c 2.784,0.384 4.128,2.016 4.128,4.896 v 0.48 c -0.576,4.128 -0.864,8.928 -0.864,14.496 0,4.32 0.096,8.16 0.384,11.424 2.112,-0.288 5.664,-0.96 10.56,-2.016 5.472,-1.152 9.984,-1.92 13.536,-2.208 l -0.48,-24.384 c 0,-2.4 2.016,-4.608 4.704,-4.704 h 0.192 c 2.4,0 4.608,2.016 4.704,4.608 z"
             id="path12986" /><path
             d="m -5680.2679,2412.4434 c 0.48,0.192 0.768,0.288 0.864,0.384 1.056,0.384 1.824,1.056 2.304,2.016 0.48,0.48 0.96,0.96 1.344,1.632 2.4,4.608 3.84,9.888 4.416,15.936 l 0.192,4.992 c 0,10.944 -2.784,20.256 -8.352,27.84 -3.936,5.664 -9.504,9.6 -16.896,11.808 -2.688,0.768 -5.088,1.152 -7.2,1.248 h -0.48 c -10.752,0 -18.144,-7.584 -19.776,-17.184 -0.48,-1.824 -0.672,-4.128 -0.672,-6.816 0,-2.112 0.288,-4.608 0.768,-7.488 3.552,-16.992 15.168,-32.064 27.552,-36 2.016,-0.576 4.128,-0.864 6.24,-0.864 2.784,0 5.472,0.576 8.064,1.728 z m -3.84,8.736 c -0.864,-0.288 -1.344,-0.576 -1.44,-0.672 -1.344,-0.672 -2.784,-0.96 -4.224,-0.96 -7.008,0 -14.976,6.432 -20.64,17.952 -2.784,5.856 -4.32,11.424 -4.416,16.8 -0.096,0.096 -0.096,0.384 -0.096,0.672 0,9.12 3.648,13.728 10.848,13.728 3.84,0 7.776,-1.44 11.712,-4.224 2.304,-1.44 4.032,-3.072 5.184,-4.8 3.648,-5.088 5.76,-11.328 6.336,-18.72 0.096,-0.576 0.096,-1.824 0.096,-3.648 0,-5.76 -1.152,-11.136 -3.36,-16.128 z"
             id="path12988" /><path
             d="m -5656.0758,2425.8834 6.24,33.984 2.112,-6.528 3.936,-13.344 5.664,-20.64 1.152,-3.36 c 0,-0.288 0.096,-0.48 0.192,-0.576 l 0.192,-0.48 c 1.056,-1.632 2.496,-2.496 4.224,-2.496 1.248,0 2.304,0.384 3.168,1.056 0.384,0.384 0.672,0.672 0.768,0.96 l 0.768,1.248 0.576,1.536 2.784,9.312 4.896,15.264 c 2.784,8.832 4.608,14.784 5.376,17.952 l 7.392,-23.904 c 2.304,-7.392 4.128,-14.304 5.376,-20.736 0.48,-2.592 2.016,-3.84 4.608,-3.84 0.48,0 0.864,0 1.056,0.096 2.592,0.48 3.84,2.016 3.84,4.608 0,0.576 0,0.96 -0.096,1.056 -1.248,6.528 -3.168,13.728 -5.568,21.6 l -7.104,22.56 -0.96,3.456 c -0.864,3.36 -1.92,6.432 -3.168,9.216 -1.632,3.072 -3.648,4.704 -5.952,4.896 h -0.192 c -2.784,0 -4.224,-1.056 -6.144,-7.2 -1.248,-5.088 -2.688,-10.56 -4.32,-16.512 l -3.744,-11.808 -3.168,-9.504 c -3.936,14.304 -7.104,24.864 -9.504,31.776 -1.152,3.264 -1.92,5.088 -2.208,5.568 -2.016,4.128 -4.608,6.24 -7.776,6.24 -1.92,0 -3.36,-0.672 -4.32,-1.92 -0.384,-0.384 -0.672,-0.864 -0.768,-1.344 l -0.192,-0.672 c -0.096,-0.096 -0.096,-0.288 -0.096,-0.576 l -1.44,-6.912 -5.184,-28.512 c -0.864,-5.664 -2.208,-12.192 -3.936,-19.68 -0.096,-0.096 -0.096,-0.48 -0.096,-0.96 0,-2.592 1.248,-4.128 3.744,-4.8 0.192,-0.096 0.576,-0.096 1.056,-0.096 2.496,0 4.032,1.248 4.704,3.744 z"
             id="path12990" /><path
             d="m -5505.0678,2420.3154 c -1.824,0.096 -3.744,0.288 -5.856,0.768 -21.6,4.512 -37.728,19.008 -38.4,33.696 v 0.576 c 0,6.624 4.416,10.944 13.152,12.96 2.208,0.48 5.184,0.768 9.024,0.768 1.248,0 2.112,0 2.4,-0.096 7.776,-0.768 14.496,-3.072 20.256,-6.912 0.864,-0.48 1.824,-0.768 2.688,-0.768 0.48,0 0.864,0 0.96,0.096 2.592,0.48 3.84,2.016 3.84,4.704 0,0.48 0,0.864 -0.096,0.96 -0.288,1.248 -0.96,2.304 -2.016,3.072 -7.2,4.704 -15.36,7.488 -24.672,8.448 -0.384,0.096 -1.44,0.096 -3.168,0.096 -2.016,0 -3.36,0 -4.032,-0.096 -3.072,-0.192 -5.472,-0.48 -7.296,-0.864 -13.728,-3.264 -20.64,-10.752 -20.64,-22.464 v -0.864 c 0.768,-19.584 20.064,-37.44 46.176,-42.72 2.976,-0.672 5.568,-0.96 7.872,-1.056 h 0.384 c 3.264,0 5.76,0.768 7.392,2.208 1.056,0.864 1.632,2.016 1.824,3.456 0.096,0.288 0.096,0.864 0.096,1.92 l -0.384,3.648 c -0.096,0.192 -0.48,2.304 -1.152,6.432 -0.384,2.688 -1.92,4.032 -4.608,4.032 -0.48,0 -0.768,0 -0.864,-0.096 -2.688,-0.384 -4.032,-1.92 -4.032,-4.512 0,-0.48 0,-0.864 0.096,-0.96 z"
             id="path12992" /><path
             d="m -5445.5478,2412.4434 c 0.48,0.192 0.768,0.288 0.864,0.384 1.056,0.384 1.824,1.056 2.304,2.016 0.48,0.48 0.96,0.96 1.344,1.632 2.4,4.608 3.84,9.888 4.416,15.936 l 0.192,4.992 c 0,10.944 -2.784,20.256 -8.352,27.84 -3.936,5.664 -9.504,9.6 -16.896,11.808 -2.688,0.768 -5.088,1.152 -7.2,1.248 h -0.48 c -10.752,0 -18.144,-7.584 -19.776,-17.184 -0.48,-1.824 -0.672,-4.128 -0.672,-6.816 0,-2.112 0.288,-4.608 0.768,-7.488 3.552,-16.992 15.168,-32.064 27.552,-36 2.016,-0.576 4.128,-0.864 6.24,-0.864 2.784,0 5.472,0.576 8.064,1.728 z m -3.84,8.736 c -0.864,-0.288 -1.344,-0.576 -1.44,-0.672 -1.344,-0.672 -2.784,-0.96 -4.224,-0.96 -7.008,0 -14.976,6.432 -20.64,17.952 -2.784,5.856 -4.32,11.424 -4.416,16.8 -0.096,0.096 -0.096,0.384 -0.096,0.672 0,9.12 3.648,13.728 10.848,13.728 3.84,0 7.776,-1.44 11.712,-4.224 2.304,-1.44 4.032,-3.072 5.184,-4.8 3.648,-5.088 5.76,-11.328 6.336,-18.72 0.096,-0.576 0.096,-1.824 0.096,-3.648 0,-5.76 -1.152,-11.136 -3.36,-16.128 z"
             id="path12994" /><path
             d="m -5376.9077,2412.7314 c -0.192,3.744 -0.288,8.256 -0.288,13.536 0.096,1.248 0.096,3.744 0.096,7.584 0,3.168 0,5.184 -0.096,5.856 -0.192,4.032 -0.288,8.352 -0.288,13.056 v 3.552 c 0.096,6.24 0.384,11.52 1.056,16.032 v 0.576 c 0,2.88 -1.344,4.512 -4.128,4.896 h -0.768 c -1.728,0 -3.072,-0.768 -4.032,-2.304 -6.24,1.344 -10.272,2.112 -12.192,2.4 -2.496,0.384 -4.896,0.576 -7.104,0.576 -4.704,0 -8.352,-0.672 -10.944,-2.112 -6.72,-3.456 -10.656,-13.632 -11.808,-30.432 -0.096,-2.976 -0.192,-5.184 -0.192,-6.624 v -2.976 c 0.096,-5.76 0.288,-11.52 0.576,-17.184 0.192,-3.36 0.288,-5.376 0.288,-5.952 0.096,-2.688 2.304,-4.608 4.704,-4.608 h 0.288 c 2.688,0.096 4.608,2.304 4.608,4.704 v 0.288 c -0.288,4.704 -0.576,9.216 -0.672,13.536 v 0.288 l -0.192,8.544 v 2.88 c 0,1.248 0.096,3.456 0.192,6.528 0.384,6.432 1.248,11.808 2.496,15.936 2.016,6.528 4.224,7.488 10.752,7.488 2.208,0 4.032,-0.096 5.664,-0.384 3.168,-0.48 7.296,-1.248 12.192,-2.4 -0.192,-2.976 -0.288,-7.008 -0.288,-12 l 0.192,-14.496 c 0.096,-0.576 0.096,-1.536 0.096,-2.784 0,-1.248 0,-2.88 -0.096,-4.896 v -8.544 c 0,-5.184 0.096,-8.832 0.288,-10.944 0.096,-2.592 2.4,-4.608 4.8,-4.608 h 0.288 c 2.592,0.096 4.512,2.304 4.512,4.704 z"
             id="path12996" /><path
             d="m -5370.7637,2450.7474 c 0,-13.152 1.152,-25.536 3.36,-37.152 0.48,-2.592 2.016,-3.84 4.608,-3.84 0.48,0 0.864,0 1.056,0.096 2.592,0.48 3.84,2.016 3.84,4.608 0,0.576 0,0.96 -0.096,1.056 -2.016,11.232 -3.072,24.384 -3.072,39.648 l 0.192,13.056 c 8.16,0 17.184,-0.672 27.072,-2.112 l 14.688,-2.016 c 0.096,-0.096 0.384,-0.096 0.768,-0.096 2.784,0 4.32,1.344 4.704,4.032 v 0.672 c 0,2.976 -1.344,4.512 -4.128,4.8 -13.056,2.016 -23.328,3.264 -30.72,3.744 -5.856,0.288 -10.368,0.48 -13.344,0.48 h -3.456 c -2.208,-0.096 -3.648,-1.152 -4.416,-3.36 -0.384,-0.768 -0.576,-1.536 -0.672,-2.304 -0.288,-10.08 -0.384,-16.608 -0.384,-19.392 z"
             id="path12998" /><path
             d="m -5300.7797,2447.2914 c 0.096,-8.256 0.48,-16.512 0.96,-24.768 -1.824,-0.576 -2.88,-1.824 -3.264,-3.648 -0.096,-0.096 -0.096,-0.48 -0.096,-1.056 0,-2.592 1.248,-4.128 3.84,-4.608 8.832,-1.632 15.936,-2.496 21.216,-2.496 h 2.208 c 11.616,0.48 20.448,3.936 26.496,10.368 3.456,3.648 5.568,7.776 6.432,12.48 0.192,1.344 0.288,2.784 0.288,4.224 0,3.456 -0.768,7.392 -2.208,11.808 -6.144,16.512 -19.2,23.424 -35.04,26.784 -3.264,0.672 -6.144,1.056 -8.64,1.056 -4.512,0 -7.584,-1.152 -9.408,-3.552 -1.824,-2.4 -2.784,-10.08 -2.784,-22.944 z m 10.656,-25.44 c -0.576,6.24 -0.96,14.784 -1.056,25.536 v 3.456 c 0,4.32 0.096,8.16 0.288,11.328 0.096,2.304 0.288,3.936 0.48,4.992 0.096,0.096 0.096,0.192 0.096,0.384 l 0.096,0.48 c 0.192,0.096 0.672,0.096 1.44,0.096 1.728,-0.096 4.224,-0.48 7.584,-1.248 15.36,-4.128 22.752,-8.64 27.264,-20.544 1.152,-2.976 1.728,-5.76 1.728,-8.352 0,-12.576 -12.096,-17.184 -24.096,-17.664 -0.288,-0.096 -1.152,-0.096 -2.4,-0.096 -3.072,0 -6.912,0.384 -11.424,1.056 z"
             id="path13000" /><path
             d="m -5198.0597,2425.8834 6.24,33.984 2.112,-6.528 3.936,-13.344 5.664,-20.64 1.152,-3.36 c 0,-0.288 0.096,-0.48 0.192,-0.576 l 0.192,-0.48 c 1.056,-1.632 2.496,-2.496 4.224,-2.496 1.248,0 2.304,0.384 3.168,1.056 0.384,0.384 0.672,0.672 0.768,0.96 l 0.768,1.248 0.576,1.536 2.784,9.312 4.896,15.264 c 2.784,8.832 4.608,14.784 5.376,17.952 l 7.392,-23.904 c 2.304,-7.392 4.128,-14.304 5.376,-20.736 0.48,-2.592 2.016,-3.84 4.608,-3.84 0.48,0 0.864,0 1.056,0.096 2.592,0.48 3.84,2.016 3.84,4.608 0,0.576 0,0.96 -0.096,1.056 -1.248,6.528 -3.168,13.728 -5.568,21.6 l -7.104,22.56 -0.96,3.456 c -0.864,3.36 -1.92,6.432 -3.168,9.216 -1.632,3.072 -3.648,4.704 -5.952,4.896 h -0.192 c -2.784,0 -4.224,-1.056 -6.144,-7.2 -1.248,-5.088 -2.688,-10.56 -4.32,-16.512 l -3.744,-11.808 -3.168,-9.504 c -3.936,14.304 -7.104,24.864 -9.504,31.776 -1.152,3.264 -1.92,5.088 -2.208,5.568 -2.016,4.128 -4.608,6.24 -7.776,6.24 -1.92,0 -3.36,-0.672 -4.32,-1.92 -0.384,-0.384 -0.672,-0.864 -0.768,-1.344 l -0.192,-0.672 c -0.096,-0.096 -0.096,-0.288 -0.096,-0.576 l -1.44,-6.912 -5.184,-28.512 c -0.864,-5.664 -2.208,-12.192 -3.936,-19.68 -0.096,-0.096 -0.096,-0.48 -0.096,-0.96 0,-2.592 1.248,-4.128 3.744,-4.8 0.192,-0.096 0.576,-0.096 1.056,-0.096 2.496,0 4.032,1.248 4.704,3.744 z"
             id="path13002" /><path
             d="m -5080.0756,2465.5314 h 0.576 c 2.976,0 4.608,1.344 4.896,4.128 v 0.672 c 0,2.784 -1.344,4.416 -4.128,4.8 l -4.32,0.576 -16.224,2.592 -12.288,1.728 c -1.824,0.288 -3.36,0.48 -4.512,0.576 -0.288,0.096 -0.96,0.096 -1.824,0.096 -0.384,0 -1.056,-0.096 -1.92,-0.192 -3.552,-0.864 -6.048,-2.496 -7.68,-4.992 -0.48,-0.672 -0.672,-1.248 -0.672,-1.632 v -49.536 c 0,-1.248 0,-1.92 0.096,-2.208 0.864,-6.816 4.8,-8.928 13.536,-9.792 12.384,-1.632 23.136,-2.4 32.352,-2.4 2.688,0 4.8,2.112 4.8,4.8 0,2.688 -2.112,4.8 -4.8,4.8 -7.776,0 -18.24,0.768 -31.2,2.304 -1.824,0.192 -3.072,0.384 -3.936,0.576 -0.768,0.096 -1.152,0.384 -1.152,0.96 v 4.992 c 0,6.624 0,11.52 -0.096,14.592 l 34.56,-5.664 c 0.096,-0.096 0.48,-0.096 0.96,-0.096 2.592,0 4.128,1.344 4.608,3.936 v 0.96 c 0,2.688 -1.344,4.224 -4.032,4.608 -11.04,1.824 -23.136,3.84 -36.192,5.952 v 18.144 l 0.672,0.192 h 1.152 l 4.032,-0.48 c 2.976,-0.384 7.008,-0.96 12.096,-1.728 z"
             id="path13004" /></g><g
           aria-label="make them care?"
           transform="translate(1107.791,953.2603)"
           id="text8927-9-8-7"
           style="font-size:96px;font-family:'Canted Comic';-inkscape-font-specification:'Canted Comic, Normal';white-space:pre;shape-inside:url(#rect8929-2-3-4);display:inline;stroke-width:10;stroke-linejoin:round"><path
             d="m -5975.7558,2437.3074 c -1.824,8.736 -4.224,20.736 -7.2,35.808 -0.48,2.592 -2.016,3.936 -4.608,3.936 -0.48,0 -0.864,0 -0.96,-0.096 -2.592,-0.48 -3.936,-2.016 -3.936,-4.608 0,-0.48 0,-0.864 0.096,-0.96 3.552,-18.144 5.952,-30.144 7.2,-36 l 3.072,-11.904 c 0.576,-2.016 1.152,-4.416 1.728,-7.008 l 0.48,-2.208 c 0,-0.288 0.096,-0.672 0.384,-1.248 l 0.384,-0.768 c 0.192,-0.288 0.48,-0.672 0.96,-1.152 0.864,-0.864 1.824,-1.248 3.072,-1.248 0.768,0 1.44,0.096 1.92,0.384 1.248,0.48 2.208,1.44 2.88,2.784 l 0.768,1.824 4.896,18.72 2.304,7.68 3.072,9.024 2.592,7.968 0.768,1.92 11.52,-36.48 3.84,-11.52 c 0,-0.288 0.096,-0.384 0.192,-0.384 0.096,-0.384 0.384,-0.768 0.672,-1.056 0.672,-0.864 1.632,-1.44 2.688,-1.632 0.192,-0.096 0.576,-0.096 1.152,-0.096 2.592,0 4.608,1.536 6.144,4.704 1.248,2.4 2.784,7.488 4.608,15.072 l 5.376,22.656 c 1.824,7.968 3.84,15.264 5.856,22.08 l 0.192,1.344 c 0,2.4 -1.152,3.936 -3.36,4.608 l -1.44,0.192 c -2.4,0 -3.936,-1.152 -4.608,-3.456 -1.056,-3.168 -2.112,-6.912 -3.168,-11.424 l -2.688,-10.752 -6.432,-26.88 -12.096,38.112 c -0.096,0.096 -0.192,0.384 -0.288,0.864 l -0.576,2.112 c -1.536,5.088 -2.688,9.888 -6.528,10.56 -0.096,0.096 -0.48,0.096 -0.96,0.096 -0.96,0 -1.824,-0.288 -2.688,-0.96 l -0.864,-0.864 -0.672,-1.056 -2.784,-6.816 -2.88,-7.872 c -4.32,-12.672 -7.296,-22.08 -9.12,-28.32 z"
             id="path13007" /><path
             d="m -5910.7638,2474.5554 c 1.056,-13.248 6.816,-30.24 17.28,-51.072 2.592,-5.088 4.896,-9.024 6.72,-11.616 1.824,-2.496 3.648,-3.744 5.568,-3.744 0.48,0 0.864,0 0.96,0.096 1.44,0.288 2.4,0.768 2.88,1.632 l 0.384,0.384 c 0.192,0.288 0.384,0.672 0.576,1.152 0.288,0.48 0.672,1.248 1.056,2.112 0.384,0.672 1.056,2.496 2.112,5.472 l 3.168,8.64 c 0.864,2.208 2.304,6.624 4.512,13.152 l 5.376,16.896 4.032,13.248 0.192,1.44 c 0,2.4 -1.152,3.936 -3.36,4.608 l -1.44,0.192 c -2.4,0 -3.936,-1.152 -4.608,-3.36 l -5.376,-17.568 c -3.36,0.768 -7.392,1.824 -12.096,3.072 -9.696,2.784 -15.168,4.224 -16.416,4.512 -1.056,3.936 -1.632,7.776 -1.92,11.52 -0.288,2.976 -1.824,4.416 -4.8,4.416 -0.192,0 -0.288,0 -0.384,-0.096 -2.976,-0.096 -4.416,-1.728 -4.416,-4.8 z m 28.704,-51.936 c -1.248,2.112 -2.112,3.84 -2.784,5.28 -5.088,10.272 -8.832,18.624 -11.04,25.152 1.056,-0.288 4.608,-1.248 10.464,-2.976 5.856,-1.632 9.792,-2.592 11.808,-3.072 -1.824,-5.664 -3.648,-11.04 -5.472,-15.936 z"
             id="path13009" /><path
             d="m -5833.9638,2445.3714 c 10.848,6.72 24.192,14.496 40.032,23.328 1.152,0.672 1.92,1.632 2.304,2.88 l 0.192,1.44 c 0,2.304 -1.152,3.84 -3.456,4.512 l -1.44,0.192 c -0.768,0 -1.536,-0.192 -2.208,-0.576 -15.84,-8.736 -29.664,-16.8 -41.568,-24.192 0.096,5.28 0.096,12.288 0.096,20.832 0,2.688 -2.112,4.8 -4.8,4.8 -2.688,0 -4.8,-2.112 -4.896,-4.8 v -30.432 c 0,-5.472 0,-8.832 0.096,-10.176 0,-6.048 0.096,-11.904 0.288,-17.76 0.096,-2.592 2.208,-4.608 4.992,-4.608 2.592,0.096 4.608,2.304 4.608,4.704 l -0.384,22.464 40.512,-27.168 c 0.864,-0.48 1.824,-0.768 2.688,-0.768 l 0.96,0.096 c 2.592,0.48 3.84,2.016 3.84,4.704 l -0.096,0.96 c -0.288,1.248 -0.96,2.304 -2.016,3.072 z"
             id="path13011" /><path
             d="m -5737.3878,2465.5314 h 0.576 c 2.976,0 4.608,1.344 4.896,4.128 v 0.672 c 0,2.784 -1.344,4.416 -4.128,4.8 l -4.32,0.576 -16.224,2.592 -12.288,1.728 c -1.824,0.288 -3.36,0.48 -4.512,0.576 -0.288,0.096 -0.96,0.096 -1.824,0.096 -0.384,0 -1.056,-0.096 -1.92,-0.192 -3.552,-0.864 -6.048,-2.496 -7.68,-4.992 -0.48,-0.672 -0.672,-1.248 -0.672,-1.632 v -49.536 c 0,-1.248 0,-1.92 0.096,-2.208 0.864,-6.816 4.8,-8.928 13.536,-9.792 12.384,-1.632 23.136,-2.4 32.352,-2.4 2.688,0 4.8,2.112 4.8,4.8 0,2.688 -2.112,4.8 -4.8,4.8 -7.776,0 -18.24,0.768 -31.2,2.304 -1.824,0.192 -3.072,0.384 -3.936,0.576 -0.768,0.096 -1.152,0.384 -1.152,0.96 v 4.992 c 0,6.624 0,11.52 -0.096,14.592 l 34.56,-5.664 c 0.096,-0.096 0.48,-0.096 0.96,-0.096 2.592,0 4.128,1.344 4.608,3.936 v 0.96 c 0,2.688 -1.344,4.224 -4.032,4.608 -11.04,1.824 -23.136,3.84 -36.192,5.952 v 18.144 l 0.672,0.192 h 1.152 l 4.032,-0.48 c 2.976,-0.384 7.008,-0.96 12.096,-1.728 z"
             id="path13013" /><path
             d="m -5662.4118,2473.6914 c 0,2.976 -1.344,4.512 -4.128,4.8 -0.096,0.096 -0.384,0.096 -0.672,0.096 -2.784,0 -4.416,-1.344 -4.8,-4.128 -1.056,-7.776 -1.728,-16.128 -2.016,-25.056 -0.192,-3.552 -0.288,-7.104 -0.288,-10.656 0,-3.936 0.192,-8.928 0.48,-14.976 -9.024,0.864 -16.416,1.728 -22.08,2.688 -0.096,0.096 -0.48,0.096 -0.96,0.096 -2.592,0 -4.128,-1.344 -4.608,-3.936 -0.096,-0.096 -0.096,-0.48 -0.096,-0.96 0,-2.592 1.344,-4.128 3.936,-4.608 5.952,-1.056 15.456,-2.208 28.416,-3.264 11.808,-1.056 20.928,-2.208 27.264,-3.552 0.192,-0.096 0.576,-0.096 1.056,-0.096 2.496,0 4.032,1.248 4.704,3.744 0.096,0.192 0.096,0.576 0.096,1.152 0,2.4 -1.248,3.936 -3.744,4.608 -5.856,1.344 -14.016,2.496 -24.288,3.36 -0.384,5.088 -0.576,10.368 -0.576,15.84 l 0.192,9.312 c 0.288,8.64 1.056,16.992 2.112,24.96 z"
             id="path13015" /><path
             d="m -5588.0117,2432.0274 c 0.288,16.992 1.056,30.432 2.304,40.224 v 0.48 c 0,2.976 -1.344,4.512 -4.128,4.8 -0.096,0.096 -0.384,0.096 -0.672,0.096 -2.784,0 -4.416,-1.44 -4.8,-4.224 -0.864,-7.968 -1.536,-16.32 -1.92,-24.96 -2.784,0.288 -6.816,0.96 -11.904,2.016 -4.896,0.96 -8.832,1.728 -11.904,2.208 l 1.728,21.312 c 0,2.4 -1.824,4.704 -4.416,4.8 -0.096,0.096 -0.192,0.096 -0.48,0.096 -2.304,0 -4.416,-2.016 -4.704,-4.416 l -1.056,-13.44 c -1.056,-11.904 -1.536,-21.984 -1.536,-30.24 0,-5.088 0.288,-9.984 0.768,-14.784 0.384,-2.784 2.016,-4.224 4.8,-4.224 h 0.672 c 2.784,0.384 4.128,2.016 4.128,4.896 v 0.48 c -0.576,4.128 -0.864,8.928 -0.864,14.496 0,4.32 0.096,8.16 0.384,11.424 2.112,-0.288 5.664,-0.96 10.56,-2.016 5.472,-1.152 9.984,-1.92 13.536,-2.208 l -0.48,-24.384 c 0,-2.4 2.016,-4.608 4.704,-4.704 h 0.192 c 2.4,0 4.608,2.016 4.704,4.608 z"
             id="path13017" /><path
             d="m -5528.7797,2465.5314 h 0.576 c 2.976,0 4.608,1.344 4.896,4.128 v 0.672 c 0,2.784 -1.344,4.416 -4.128,4.8 l -4.32,0.576 -16.224,2.592 -12.288,1.728 c -1.824,0.288 -3.36,0.48 -4.512,0.576 -0.288,0.096 -0.96,0.096 -1.824,0.096 -0.384,0 -1.056,-0.096 -1.92,-0.192 -3.552,-0.864 -6.048,-2.496 -7.68,-4.992 -0.48,-0.672 -0.672,-1.248 -0.672,-1.632 v -49.536 c 0,-1.248 0,-1.92 0.096,-2.208 0.864,-6.816 4.8,-8.928 13.536,-9.792 12.384,-1.632 23.136,-2.4 32.352,-2.4 2.688,0 4.8,2.112 4.8,4.8 0,2.688 -2.112,4.8 -4.8,4.8 -7.776,0 -18.24,0.768 -31.2,2.304 -1.824,0.192 -3.072,0.384 -3.936,0.576 -0.768,0.096 -1.152,0.384 -1.152,0.96 v 4.992 c 0,6.624 0,11.52 -0.096,14.592 l 34.56,-5.664 c 0.096,-0.096 0.48,-0.096 0.96,-0.096 2.592,0 4.128,1.344 4.608,3.936 v 0.96 c 0,2.688 -1.344,4.224 -4.032,4.608 -11.04,1.824 -23.136,3.84 -36.192,5.952 v 18.144 l 0.672,0.192 h 1.152 l 4.032,-0.48 c 2.976,-0.384 7.008,-0.96 12.096,-1.728 z"
             id="path13019" /><path
             d="m -5502.7637,2437.3074 c -1.824,8.736 -4.224,20.736 -7.2,35.808 -0.48,2.592 -2.016,3.936 -4.608,3.936 -0.48,0 -0.864,0 -0.96,-0.096 -2.592,-0.48 -3.936,-2.016 -3.936,-4.608 0,-0.48 0,-0.864 0.096,-0.96 3.552,-18.144 5.952,-30.144 7.2,-36 l 3.072,-11.904 c 0.576,-2.016 1.152,-4.416 1.728,-7.008 l 0.48,-2.208 c 0,-0.288 0.096,-0.672 0.384,-1.248 l 0.384,-0.768 c 0.192,-0.288 0.48,-0.672 0.96,-1.152 0.864,-0.864 1.824,-1.248 3.072,-1.248 0.768,0 1.44,0.096 1.92,0.384 1.248,0.48 2.208,1.44 2.88,2.784 l 0.768,1.824 4.896,18.72 2.304,7.68 3.072,9.024 2.592,7.968 0.768,1.92 11.52,-36.48 3.84,-11.52 c 0,-0.288 0.096,-0.384 0.192,-0.384 0.096,-0.384 0.384,-0.768 0.672,-1.056 0.672,-0.864 1.632,-1.44 2.688,-1.632 0.192,-0.096 0.576,-0.096 1.152,-0.096 2.592,0 4.608,1.536 6.144,4.704 1.248,2.4 2.784,7.488 4.608,15.072 l 5.376,22.656 c 1.824,7.968 3.84,15.264 5.856,22.08 l 0.192,1.344 c 0,2.4 -1.152,3.936 -3.36,4.608 l -1.44,0.192 c -2.4,0 -3.936,-1.152 -4.608,-3.456 -1.056,-3.168 -2.112,-6.912 -3.168,-11.424 l -2.688,-10.752 -6.432,-26.88 -12.096,38.112 c -0.096,0.096 -0.192,0.384 -0.288,0.864 l -0.576,2.112 c -1.536,5.088 -2.688,9.888 -6.528,10.56 -0.096,0.096 -0.48,0.096 -0.96,0.096 -0.96,0 -1.824,-0.288 -2.688,-0.96 l -0.864,-0.864 -0.672,-1.056 -2.784,-6.816 -2.88,-7.872 c -4.32,-12.672 -7.296,-22.08 -9.12,-28.32 z"
             id="path13021" /><path
             d="m -5353.9637,2420.3154 c -1.824,0.096 -3.744,0.288 -5.856,0.768 -21.6,4.512 -37.728,19.008 -38.4,33.696 v 0.576 c 0,6.624 4.416,10.944 13.152,12.96 2.208,0.48 5.184,0.768 9.024,0.768 1.248,0 2.112,0 2.4,-0.096 7.776,-0.768 14.496,-3.072 20.256,-6.912 0.864,-0.48 1.824,-0.768 2.688,-0.768 0.48,0 0.864,0 0.96,0.096 2.592,0.48 3.84,2.016 3.84,4.704 0,0.48 0,0.864 -0.096,0.96 -0.288,1.248 -0.96,2.304 -2.016,3.072 -7.2,4.704 -15.36,7.488 -24.672,8.448 -0.384,0.096 -1.44,0.096 -3.168,0.096 -2.016,0 -3.36,0 -4.032,-0.096 -3.072,-0.192 -5.472,-0.48 -7.296,-0.864 -13.728,-3.264 -20.64,-10.752 -20.64,-22.464 v -0.864 c 0.768,-19.584 20.064,-37.44 46.176,-42.72 2.976,-0.672 5.568,-0.96 7.872,-1.056 h 0.384 c 3.264,0 5.76,0.768 7.392,2.208 1.056,0.864 1.632,2.016 1.824,3.456 0.096,0.288 0.096,0.864 0.096,1.92 l -0.384,3.648 c -0.096,0.192 -0.48,2.304 -1.152,6.432 -0.384,2.688 -1.92,4.032 -4.608,4.032 -0.48,0 -0.768,0 -0.864,-0.096 -2.688,-0.384 -4.032,-1.92 -4.032,-4.512 0,-0.48 0,-0.864 0.096,-0.96 z"
             id="path13023" /><path
             d="m -5338.4116,2474.5554 c 1.056,-13.248 6.816,-30.24 17.28,-51.072 2.592,-5.088 4.896,-9.024 6.72,-11.616 1.824,-2.496 3.648,-3.744 5.568,-3.744 0.48,0 0.864,0 0.96,0.096 1.44,0.288 2.4,0.768 2.88,1.632 l 0.384,0.384 c 0.192,0.288 0.384,0.672 0.576,1.152 0.288,0.48 0.672,1.248 1.056,2.112 0.384,0.672 1.056,2.496 2.112,5.472 l 3.168,8.64 c 0.864,2.208 2.304,6.624 4.512,13.152 l 5.376,16.896 4.032,13.248 0.192,1.44 c 0,2.4 -1.152,3.936 -3.36,4.608 l -1.44,0.192 c -2.4,0 -3.936,-1.152 -4.608,-3.36 l -5.376,-17.568 c -3.36,0.768 -7.392,1.824 -12.096,3.072 -9.696,2.784 -15.168,4.224 -16.416,4.512 -1.056,3.936 -1.632,7.776 -1.92,11.52 -0.288,2.976 -1.824,4.416 -4.8,4.416 -0.192,0 -0.288,0 -0.384,-0.096 -2.976,-0.096 -4.416,-1.728 -4.416,-4.8 z m 28.704,-51.936 c -1.248,2.112 -2.112,3.84 -2.784,5.28 -5.088,10.272 -8.832,18.624 -11.04,25.152 1.056,-0.288 4.608,-1.248 10.464,-2.976 5.856,-1.632 9.792,-2.592 11.808,-3.072 -1.824,-5.664 -3.648,-11.04 -5.472,-15.936 z"
             id="path13025" /><path
             d="m -5241.2596,2456.0274 c 10.752,5.568 18.432,9.312 22.944,11.328 1.248,0.48 2.112,1.44 2.592,2.688 0.192,0.576 0.288,1.152 0.288,1.728 0,0.768 -0.096,1.44 -0.384,1.92 -0.48,1.248 -1.344,2.016 -2.592,2.496 -0.48,0.288 -1.152,0.384 -1.824,0.384 -0.768,0 -1.44,-0.096 -1.92,-0.384 -4.32,-2.016 -12.096,-5.856 -23.52,-11.616 -8.16,-4.128 -14.88,-7.104 -19.968,-9.12 0.096,7.2 0.672,13.152 1.632,18.048 0.096,0.096 0.096,0.48 0.096,0.96 0,2.592 -1.248,4.128 -3.84,4.608 -0.192,0.096 -0.576,0.096 -1.056,0.096 -2.592,0 -4.128,-1.344 -4.608,-3.936 -1.344,-6.72 -2.016,-16.512 -2.016,-29.376 0,-7.392 0,-11.52 -0.096,-12.48 l -0.192,-3.168 c -0.288,-2.88 -0.384,-6.144 -0.384,-9.792 0.096,-2.592 0.576,-4.416 1.44,-5.472 1.824,-2.4 6.24,-3.936 13.344,-4.416 l 5.184,-0.192 c 13.92,0 23.808,2.88 29.664,8.736 2.4,2.4 3.84,5.088 4.32,8.16 0.096,0.288 0.096,0.96 0.096,1.92 0,2.784 -0.672,5.568 -2.112,8.352 -2.592,5.28 -7.488,9.312 -14.688,12.288 -3.264,1.248 -6.432,2.208 -9.408,2.784 z m -25.248,-35.136 c 0,2.976 0.096,5.952 0.384,8.928 l 0.384,7.968 v 6.144 c 0.672,0.096 2.208,0.096 4.608,0.096 14.496,0 25.248,-4.416 28.32,-10.944 0.672,-1.632 1.056,-2.88 1.056,-3.744 0,-1.344 -0.48,-2.496 -1.44,-3.456 -4.128,-3.936 -12,-5.952 -23.52,-5.952 -3.936,0 -7.104,0.288 -9.504,0.864 z"
             id="path13027" /><path
             d="m -5161.3876,2465.5314 h 0.576 c 2.976,0 4.608,1.344 4.896,4.128 v 0.672 c 0,2.784 -1.344,4.416 -4.128,4.8 l -4.32,0.576 -16.224,2.592 -12.288,1.728 c -1.824,0.288 -3.36,0.48 -4.512,0.576 -0.288,0.096 -0.96,0.096 -1.824,0.096 -0.384,0 -1.056,-0.096 -1.92,-0.192 -3.552,-0.864 -6.048,-2.496 -7.68,-4.992 -0.48,-0.672 -0.672,-1.248 -0.672,-1.632 v -49.536 c 0,-1.248 0,-1.92 0.096,-2.208 0.864,-6.816 4.8,-8.928 13.536,-9.792 12.384,-1.632 23.136,-2.4 32.352,-2.4 2.688,0 4.8,2.112 4.8,4.8 0,2.688 -2.112,4.8 -4.8,4.8 -7.776,0 -18.24,0.768 -31.2,2.304 -1.824,0.192 -3.072,0.384 -3.936,0.576 -0.768,0.096 -1.152,0.384 -1.152,0.96 v 4.992 c 0,6.624 0,11.52 -0.096,14.592 l 34.56,-5.664 c 0.096,-0.096 0.48,-0.096 0.96,-0.096 2.592,0 4.128,1.344 4.608,3.936 v 0.96 c 0,2.688 -1.344,4.224 -4.032,4.608 -11.04,1.824 -23.136,3.84 -36.192,5.952 v 18.144 l 0.672,0.192 h 1.152 l 4.032,-0.48 c 2.976,-0.384 7.008,-0.96 12.096,-1.728 z"
             id="path13029" /><path
             d="m -5120.5875,2420.1234 c -9.696,0 -13.728,2.016 -22.56,11.232 -0.96,0.96 -2.112,1.44 -3.36,1.44 -2.688,0 -4.896,-2.112 -4.896,-4.8 0,-1.152 0.48,-2.304 1.344,-3.36 11.04,-11.04 17.088,-14.112 29.472,-14.112 h 0.864 c 10.176,0.096 15.264,3.744 15.264,11.136 v 0.192 c -0.096,3.168 -4.704,8.544 -13.824,16.128 l -15.168,11.808 -2.208,1.92 h 0.192 c 1.632,0.288 4.512,0.384 8.736,0.48 h 4.608 c 0.48,0 0.864,0 0.96,-0.096 l 3.84,-0.672 c 0.096,-0.096 0.48,-0.096 0.96,-0.096 2.592,0 4.128,1.344 4.608,3.936 v 0.96 c 0,2.688 -1.344,4.224 -4.032,4.608 -3.168,0.672 -4.896,0.96 -5.376,0.96 h -5.76 c -7.488,-0.096 -12.768,-0.768 -15.84,-1.824 -3.072,-1.056 -4.992,-2.784 -5.76,-5.184 l -0.192,-1.44 c 0,-0.96 0.384,-2.016 1.056,-3.264 l 1.248,-1.536 2.784,-2.688 4.032,-3.36 c 1.152,-0.96 3.264,-2.592 6.336,-4.992 l 8.928,-7.008 c 3.168,-2.496 5.76,-4.8 7.968,-7.008 1.248,-1.248 1.92,-2.016 2.112,-2.304 -0.096,0 -0.192,0 -0.288,-0.096 -1.248,-0.576 -2.976,-0.864 -5.28,-0.96 z m -5.376,50.208 c 0.864,1.056 1.344,2.208 1.344,3.456 0,2.688 -2.112,4.8 -4.8,4.8 -2.688,0 -4.8,-2.112 -4.8,-4.8 0,-2.688 2.112,-4.8 4.8,-4.8 1.248,0 2.4,0.48 3.456,1.344 z"
             id="path13031" /></g><path
           d="m -4521.4536,2949.3017 c -1.824,0.096 -3.744,0.288 -5.856,0.768 -21.6,4.512 -37.728,19.008 -38.4,33.696 v 0.576 c 0,6.624 4.416,10.944 13.152,12.96 2.208,0.48 5.184,0.768 9.024,0.768 1.248,0 2.112,0 2.4,-0.096 7.776,-0.768 14.496,-3.072 20.256,-6.912 0.864,-0.48 1.824,-0.768 2.688,-0.768 0.48,0 0.864,0 0.96,0.096 2.592,0.48 3.84,2.016 3.84,4.704 0,0.48 0,0.864 -0.096,0.96 -0.288,1.248 -0.96,2.304 -2.016,3.072 -7.2,4.704 -15.36,7.488 -24.672,8.448 -0.384,0.096 -1.44,0.096 -3.168,0.096 -2.016,0 -3.36,0 -4.032,-0.096 -3.072,-0.192 -5.472,-0.48 -7.296,-0.864 -13.728,-3.264 -20.64,-10.752 -20.64,-22.464 v -0.864 c 0.768,-19.584 20.064,-37.44 46.176,-42.72 2.976,-0.672 5.568,-0.96 7.872,-1.056 h 0.384 c 3.264,0 5.76,0.768 7.392,2.208 1.056,0.864 1.632,2.016 1.824,3.456 0.096,0.288 0.096,0.864 0.096,1.92 l -0.384,3.648 c -0.096,0.192 -0.48,2.304 -1.152,6.432 -0.384,2.688 -1.92,4.032 -4.608,4.032 -0.48,0 -0.768,0 -0.864,-0.096 -2.688,-0.384 -4.032,-1.92 -4.032,-4.512 0,-0.48 0,-0.864 0.096,-0.96 z"
           id="path13034" /><path
           d="m -4461.9336,2941.4297 c 0.48,0.192 0.768,0.288 0.864,0.384 1.056,0.384 1.824,1.056 2.304,2.016 0.48,0.48 0.96,0.96 1.344,1.632 2.4,4.608 3.84,9.888 4.416,15.936 l 0.192,4.992 c 0,10.944 -2.784,20.256 -8.352,27.84 -3.936,5.664 -9.504,9.6 -16.896,11.808 -2.688,0.768 -5.088,1.152 -7.2,1.248 h -0.48 c -10.752,0 -18.144,-7.584 -19.776,-17.184 -0.48,-1.824 -0.672,-4.128 -0.672,-6.816 0,-2.112 0.288,-4.608 0.768,-7.488 3.552,-16.992 15.168,-32.064 27.552,-36 2.016,-0.576 4.128,-0.864 6.24,-0.864 2.784,0 5.472,0.576 8.064,1.728 z m -3.84,8.736 c -0.864,-0.288 -1.344,-0.576 -1.44,-0.672 -1.344,-0.672 -2.784,-0.96 -4.224,-0.96 -7.008,0 -14.976,6.432 -20.64,17.952 -2.784,5.856 -4.32,11.424 -4.416,16.8 -0.096,0.096 -0.096,0.384 -0.096,0.672 0,9.12 3.648,13.728 10.848,13.728 3.84,0 7.776,-1.44 11.712,-4.224 2.304,-1.44 4.032,-3.072 5.184,-4.8 3.648,-5.088 5.76,-11.328 6.336,-18.72 0.096,-0.576 0.096,-1.824 0.096,-3.648 0,-5.76 -1.152,-11.136 -3.36,-16.128 z"
           id="path13036" /><path
           d="m -4403.0855,2941.4297 c 0.48,0.192 0.768,0.288 0.864,0.384 1.056,0.384 1.824,1.056 2.304,2.016 0.48,0.48 0.96,0.96 1.344,1.632 2.4,4.608 3.84,9.888 4.416,15.936 l 0.192,4.992 c 0,10.944 -2.784,20.256 -8.352,27.84 -3.936,5.664 -9.504,9.6 -16.896,11.808 -2.688,0.768 -5.088,1.152 -7.2,1.248 h -0.48 c -10.752,0 -18.144,-7.584 -19.776,-17.184 -0.48,-1.824 -0.672,-4.128 -0.672,-6.816 0,-2.112 0.288,-4.608 0.768,-7.488 3.552,-16.992 15.168,-32.064 27.552,-36 2.016,-0.576 4.128,-0.864 6.24,-0.864 2.784,0 5.472,0.576 8.064,1.728 z m -3.84,8.736 c -0.864,-0.288 -1.344,-0.576 -1.44,-0.672 -1.344,-0.672 -2.784,-0.96 -4.224,-0.96 -7.008,0 -14.976,6.432 -20.64,17.952 -2.784,5.856 -4.32,11.424 -4.416,16.8 -0.096,0.096 -0.096,0.384 -0.096,0.672 0,9.12 3.648,13.728 10.848,13.728 3.84,0 7.776,-1.44 11.712,-4.224 2.304,-1.44 4.032,-3.072 5.184,-4.8 3.648,-5.088 5.76,-11.328 6.336,-18.72 0.096,-0.576 0.096,-1.824 0.096,-3.648 0,-5.76 -1.152,-11.136 -3.36,-16.128 z"
           id="path13038" /><path
           d="m -4385.7094,2979.7337 c 0,-13.152 1.152,-25.536 3.36,-37.152 0.48,-2.592 2.016,-3.84 4.608,-3.84 0.48,0 0.864,0 1.056,0.096 2.592,0.48 3.84,2.016 3.84,4.608 0,0.576 0,0.96 -0.096,1.056 -2.016,11.232 -3.072,24.384 -3.072,39.648 l 0.192,13.056 c 8.16,0 17.184,-0.672 27.072,-2.112 l 14.688,-2.016 c 0.096,-0.096 0.384,-0.096 0.768,-0.096 2.784,0 4.32,1.344 4.704,4.032 v 0.672 c 0,2.976 -1.344,4.512 -4.128,4.8 -13.056,2.016 -23.328,3.264 -30.72,3.744 -5.856,0.288 -10.368,0.48 -13.344,0.48 h -3.456 c -2.208,-0.096 -3.648,-1.152 -4.416,-3.36 -0.384,-0.768 -0.576,-1.536 -0.672,-2.304 -0.288,-10.08 -0.384,-16.608 -0.384,-19.392 z"
           id="path13040" /><path
           d="m -4307.7573,2994.7097 c 1.152,1.248 1.728,2.688 1.728,4.32 0,3.456 -2.688,6.144 -6.048,6.144 -3.456,0 -6.144,-2.688 -6.144,-6.144 0,-3.36 2.688,-6.048 6.144,-6.048 1.632,0 3.072,0.576 4.32,1.728 z"
           id="path13042" /></g></g></g></svg>
