<?xml version="1.0" encoding="UTF-8" standalone="no"?>
<!-- Created with Inkscape (http://www.inkscape.org/) -->

<svg
   version="1.1"
   id="svg176"
   width="1349.8179"
   height="755.48169"
   viewBox="0 0 1349.8179 755.48169"
   sodipodi:docname="main.svg"
   xml:space="preserve"
   inkscape:version="1.2.2 (b0a8486541, 2022-12-01)"
   xmlns:inkscape="http://www.inkscape.org/namespaces/inkscape"
   xmlns:sodipodi="http://sodipodi.sourceforge.net/DTD/sodipodi-0.dtd"
   xmlns="http://www.w3.org/2000/svg"
   xmlns:svg="http://www.w3.org/2000/svg"><defs
     id="defs180"><linearGradient
       id="linearGradient1486"
       inkscape:swatch="solid"><stop
         style="stop-color:#000000;stop-opacity:1;"
         offset="0"
         id="stop1484" /></linearGradient><inkscape:path-effect
       effect="roughen"
       id="path-effect7948-4-3-6-9-2-7-9-4-2-5"
       is_visible="true"
       lpeversion="1.2"
       method="size"
       max_segment_size="15"
       segments="2"
       displace_x="2;1"
       displace_y="2;1"
       global_randomize="1;1"
       handles="along"
       shift_nodes="true"
       fixed_displacement="false"
       spray_tool_friendly="false" /><inkscape:path-effect
       effect="roughen"
       id="path-effect7946-0-3-0-6-5-1-3-1-2-9"
       is_visible="true"
       lpeversion="1.2"
       method="size"
       max_segment_size="7.23"
       segments="2"
       displace_x="3.1;1"
       displace_y="2.4;1"
       global_randomize="1;1"
       handles="along"
       shift_nodes="true"
       fixed_displacement="false"
       spray_tool_friendly="false" /><inkscape:path-effect
       effect="roughen"
       id="path-effect7950-1-4-4-3-8-1-3-8-1-6"
       is_visible="true"
       lpeversion="1.2"
       method="size"
       max_segment_size="15"
       segments="2"
       displace_x="2;1"
       displace_y="2;1"
       global_randomize="1;1"
       handles="along"
       shift_nodes="true"
       fixed_displacement="false"
       spray_tool_friendly="false" /><inkscape:path-effect
       effect="roughen"
       id="path-effect7952-96-7-1-8-6-5-8-5-5-2"
       is_visible="true"
       lpeversion="1.2"
       method="size"
       max_segment_size="15"
       segments="2"
       displace_x="2;1"
       displace_y="2;1"
       global_randomize="1;1"
       handles="along"
       shift_nodes="true"
       fixed_displacement="false"
       spray_tool_friendly="false" /><inkscape:path-effect
       effect="roughen"
       id="path-effect7954-25-6-0-5-2-9-0-9-0-1"
       is_visible="true"
       lpeversion="1.2"
       method="size"
       max_segment_size="15"
       segments="2"
       displace_x="2;1"
       displace_y="2;1"
       global_randomize="1;1"
       handles="along"
       shift_nodes="true"
       fixed_displacement="false"
       spray_tool_friendly="false" /><inkscape:path-effect
       effect="roughen"
       id="path-effect7954-25-6-0-5-2-9-0-9-8-9-7"
       is_visible="true"
       lpeversion="1.2"
       method="size"
       max_segment_size="15"
       segments="2"
       displace_x="2;1"
       displace_y="2;1"
       global_randomize="1;1"
       handles="along"
       shift_nodes="true"
       fixed_displacement="false"
       spray_tool_friendly="false" /><inkscape:path-effect
       effect="roughen"
       id="path-effect7954-25-6-0-5-2-9-0-9-8-5-0-8"
       is_visible="true"
       lpeversion="1.2"
       method="size"
       max_segment_size="15"
       segments="2"
       displace_x="2;1"
       displace_y="2;1"
       global_randomize="1;1"
       handles="along"
       shift_nodes="true"
       fixed_displacement="false"
       spray_tool_friendly="false" /><inkscape:path-effect
       effect="roughen"
       id="path-effect6580-1-9-8-7-6-40-5"
       is_visible="true"
       lpeversion="1.2"
       method="size"
       max_segment_size="5"
       segments="2"
       displace_x="1;1"
       displace_y="0.76;1"
       global_randomize="1;1"
       handles="along"
       shift_nodes="true"
       fixed_displacement="false"
       spray_tool_friendly="false" /><inkscape:path-effect
       effect="roughen"
       id="path-effect6580-1-9-8-7-6-6-1-7"
       is_visible="true"
       lpeversion="1.2"
       method="size"
       max_segment_size="5"
       segments="2"
       displace_x="1;1"
       displace_y="0.76;1"
       global_randomize="1;1"
       handles="along"
       shift_nodes="true"
       fixed_displacement="false"
       spray_tool_friendly="false" /><inkscape:path-effect
       effect="roughen"
       id="path-effect6580-1-9-8-7-6-0-3-4"
       is_visible="true"
       lpeversion="1.2"
       method="size"
       max_segment_size="5"
       segments="2"
       displace_x="1;1"
       displace_y="0.76;1"
       global_randomize="1;1"
       handles="along"
       shift_nodes="true"
       fixed_displacement="false"
       spray_tool_friendly="false" /><inkscape:path-effect
       effect="roughen"
       id="path-effect6580-1-9-8-7-6-4-7-1"
       is_visible="true"
       lpeversion="1.2"
       method="size"
       max_segment_size="5"
       segments="2"
       displace_x="1;1"
       displace_y="0.76;1"
       global_randomize="1;1"
       handles="along"
       shift_nodes="true"
       fixed_displacement="false"
       spray_tool_friendly="false" /><inkscape:path-effect
       effect="roughen"
       id="path-effect6580-1-9-8-7-6-2-4-8"
       is_visible="true"
       lpeversion="1.2"
       method="size"
       max_segment_size="5"
       segments="2"
       displace_x="1;1"
       displace_y="0.76;1"
       global_randomize="1;1"
       handles="along"
       shift_nodes="true"
       fixed_displacement="false"
       spray_tool_friendly="false" /><inkscape:path-effect
       effect="roughen"
       id="path-effect6580-1-9-8-7-6-5-1-5"
       is_visible="true"
       lpeversion="1.2"
       method="size"
       max_segment_size="5"
       segments="2"
       displace_x="1;1"
       displace_y="0.76;1"
       global_randomize="1;1"
       handles="along"
       shift_nodes="true"
       fixed_displacement="false"
       spray_tool_friendly="false" /><inkscape:path-effect
       effect="roughen"
       id="path-effect7954-25-6-0-5-2-9-0-9-8-5-0-8-3"
       is_visible="true"
       lpeversion="1.2"
       method="size"
       max_segment_size="15"
       segments="2"
       displace_x="2;1"
       displace_y="2;1"
       global_randomize="1;1"
       handles="along"
       shift_nodes="true"
       fixed_displacement="false"
       spray_tool_friendly="false" /></defs><sodipodi:namedview
     id="namedview178"
     pagecolor="#ffffff"
     bordercolor="#000000"
     borderopacity="0.25"
     inkscape:showpageshadow="2"
     inkscape:pageopacity="0.0"
     inkscape:pagecheckerboard="0"
     inkscape:deskcolor="#d1d1d1"
     showgrid="false"
     showguides="false"
     inkscape:zoom="0.11313709"
     inkscape:cx="2815.1689"
     inkscape:cy="2457.1961"
     inkscape:window-width="1920"
     inkscape:window-height="1011"
     inkscape:window-x="0"
     inkscape:window-y="0"
     inkscape:window-maximized="1"
     inkscape:current-layer="g182"><inkscape:grid
       type="xygrid"
       id="grid2722" /></sodipodi:namedview><g
     inkscape:groupmode="layer"
     inkscape:label="Image"
     id="g182"
     transform="translate(-3523.5375,-3643.929)"><g
       id="g9586"><path
         style="fill:none;fill-opacity:1;stroke:#000000;stroke-width:8.64631;stroke-linecap:round;stroke-linejoin:round;stroke-dasharray:none;stroke-opacity:1"
         d="m 3968.4403,4088.8359 c 7.0967,-6.3105 12.7675,-13.1102 17.9194,-19.1537 4.7155,-6.5183 10.4832,-11.4954 13.9952,-16.8693 4.6444,-5.1091 5.9152,-10.7413 8.0166,-15.2229 1.8374,-4.9381 3.3953,-8.7652 4.4979,-12.0541 0.8617,-3.6123 1.8279,-5.9063 2.2902,-7.664 0.486,-1.8474 1.0008,-2.6056 1.0008,-2.6056"
         id="path7891-9-0-1-9-6-7-0-8-1-3"
         inkscape:path-effect="#path-effect7948-4-3-6-9-2-7-9-4-2-5"
         inkscape:original-d="m 3968.4403,4088.8359 c 42.5799,-37.8632 47.4093,-73.7434 47.4093,-73.7434" /><path
         style="fill:none;fill-opacity:1;stroke:#000000;stroke-width:8.64631;stroke-linecap:round;stroke-linejoin:round;stroke-dasharray:none;stroke-opacity:1"
         d="m 4004.4918,4046.8908 c 3.6658,-0.8414 6.6191,-2.4113 10.0307,-3.3982 2.9389,-1.6723 8.7098,-1.8425 11.9685,-3.0024 4.4299,-0.6682 4.748,-2.4319 7.2053,-3.455 2.5521,-1.7545 5.449,-2.8967 8.178,-4.2522 2.3376,-1.7075 5.2957,-2.7892 7.7749,-4.244 2.4017,-1.4561 5.2307,-2.6931 7.4302,-4.2077 2.6115,-1.258 3.5797,-3.6838 5.4907,-5.2237 1.3965,-2.2959 4.7339,-2.9211 6.4765,-4.5679 2.5618,-1.2761 3.1987,-3.1371 4.6429,-4.7438 1.5609,-1.7255 3.4809,-3.2759 4.8043,-5.053 1.8068,-1.5605 2.5863,-3.5431 3.6746,-5.3523 1.1817,-1.8349 2.1957,-3.7179 3.0748,-5.602 0.9682,-1.8854 0.9945,-5.2067 1.6443,-7.1189 -0.1327,-2.9408 0.4304,-3.8979 0.8131,-5.4188 -0.1249,-2.4942 1.5869,-3.2629 1.8514,-4.8875 1.1353,-1.8431 0.5476,-3.6946 0.6288,-5.5293 0.1355,-1.8795 0.1197,-3.7724 -0.034,-5.6438 -0.084,-1.8499 -0.2794,-3.6772 -0.6729,-5.5199 -0.2424,-1.7733 1.7286,-3.5735 1.0925,-5.3811 1.8932,-2.0233 -2.2481,-5.8706 -3.6701,-7.9478 -1.1504,-2.8382 -1.5074,-2.2103 -2.4338,-3.2237 -1.0786,-1.3284 -2.6181,-2.6456 -4.0431,-3.9786 -1.3505,-1.2634 -1.2274,-2.1245 -2.4898,-3.5681"
         id="path7893-9-68-5-2-9-8-2-5-7-1"
         inkscape:path-effect="#path-effect7946-0-3-0-6-5-1-3-1-2-9"
         inkscape:original-d="m 4004.4918,4046.8908 c 84.3139,-19.3523 100.906,-78.6123 71.868,-111.817"
         sodipodi:nodetypes="cc" /><path
         style="fill:none;fill-opacity:1;stroke:#000000;stroke-width:8.64631;stroke-linecap:round;stroke-linejoin:round;stroke-dasharray:none;stroke-opacity:1"
         d="m 3845.5946,4106.5904 c -7.108,-1.6308 -13.6787,-4.1662 -19.1042,-6.4647 -5.5986,-2.7564 -8.5588,-4.4644 -12.4659,-7.1659 -3.1643,-2.765 -8.2833,-6.6968 -11.4668,-10.2064 -3.1338,-3.5759 -5.5324,-6.7323 -7.6488,-10.1456 -2.4537,-3.8478 -4.0307,-7.1931 -5.6378,-10.9247 -1.653,-3.8378 -2.7632,-7.6003 -4.2069,-11.7389"
         id="path7891-1-0-9-4-5-3-5-1-0-5-8"
         sodipodi:nodetypes="cc"
         inkscape:path-effect="#path-effect7950-1-4-4-3-8-1-3-8-1-6"
         inkscape:original-d="m 3845.5946,4106.5904 c -42.6482,-9.7848 -52.3726,-32.5431 -60.8412,-56.82" /><path
         style="fill:none;fill-opacity:1;stroke:#000000;stroke-width:8.64631;stroke-linecap:round;stroke-linejoin:round;stroke-dasharray:none;stroke-opacity:1"
         d="m 3803.1876,4086.5484 c -5.1165,0.8331 -10.4871,0.9034 -15.308,1.2145 -5.058,-0.2422 -8.0304,0.5565 -12.3244,0.2324 -3.6246,-0.1368 -9.6323,-1.5996 -13.9098,-2.9706 -4.0239,-1.6278 -7.5017,-3.1004 -10.7187,-5.1957 -3.541,-2.4377 -6.2741,-4.7917 -8.8766,-8.0099 -2.7603,-3.4115 -4.7642,-7.2536 -6.661,-12.0801 -1.8806,-4.7852 -4.0086,-11.1109 -4.9949,-17.5756"
         id="path7893-0-5-0-9-4-3-3-5-6-6-9"
         sodipodi:nodetypes="cc"
         inkscape:path-effect="#path-effect7952-96-7-1-8-6-5-8-5-5-2"
         inkscape:original-d="m 3803.1876,4086.5484 c -35.8157,5.8315 -65.5985,0.9582 -72.426,-43.7919" /><path
         style="fill:none;fill-opacity:1;stroke:#000000;stroke-width:8.64631;stroke-linecap:round;stroke-linejoin:round;stroke-dasharray:none;stroke-opacity:1"
         d="m 3811.7731,4028.3723 c -3.292,3.385 -7.1723,5.7277 -10.8432,8.1424 -4.0031,1.8408 -6.2547,4.5364 -10.1624,6.0296 -3.1005,1.852 -8.9471,2.3113 -13.4525,2.9371 -4.3376,0.1368 -8.4458,0.4424 -12.6168,0.2472 -4.3999,-0.4887 -8.3525,-0.7739 -12.529,-1.6702 -4.2941,-0.9406 -8.2299,-2.0162 -12.4485,-3.6213 -4.0374,-1.4805 -9.0164,-4.2568 -13.2228,-6.595 -4.3025,-2.7805 -7.1924,-4.4199 -10.9149,-7.1462 -3.4669,-2.7372 -7.9741,-6.2529 -11.7083,-9.8243 -3.5855,-3.4301 -6.6911,-6.9572 -9.889,-10.8967 -2.945,-3.8422 -6.2633,-8.2753 -9.0405,-12.7794 -2.6778,-4.397 -5.1315,-9.0404 -7.2898,-13.8687 -2.1032,-4.8217 -4.4367,-11.0245 -5.9362,-16.2149 -1.864,-6.1667 -2.8063,-10.5691 -3.4362,-15.5664 -0.6824,-5.4134 -0.028,-10.241 0.137,-16.2345"
         id="path7895-3-0-33-2-0-8-3-6-4-5-6"
         sodipodi:nodetypes="cc"
         inkscape:path-effect="#path-effect7954-25-6-0-5-2-9-0-9-0-1"
         inkscape:original-d="m 3811.7731,4028.3723 c -49.3801,50.7749 -146.2795,-10.503 -143.8885,-97.0889" /><path
         style="fill:none;fill-opacity:1;stroke:#000000;stroke-width:8.64631;stroke-linecap:round;stroke-linejoin:round;stroke-dasharray:none;stroke-opacity:1"
         d="m 3682.2978,3996.6172 c -4.7438,3.017 -9.8434,4.9945 -14.5307,7.0518 -4.9889,1.4799 -8.0298,3.824 -12.5586,4.9803 -3.791,1.4881 -10.1232,1.5989 -14.9466,1.8979 -4.6387,-0.1569 -8.9129,-0.1315 -13.1419,-0.5884 -4.4488,-0.748 -8.3451,-1.2742 -12.3867,-2.3877 -4.1496,-1.1611 -7.8591,-2.4314 -11.7979,-4.1998 -3.7522,-1.6503 -8.3861,-4.5619 -12.2195,-6.9949 -3.93,-2.8543 -6.4283,-4.5352 -9.7655,-7.2646 -3.0679,-2.7577 -7.1718,-6.2473 -10.5344,-9.7392 -3.2252,-3.3505 -5.9999,-6.748 -8.9283,-10.5017 -2.6799,-3.6652 -5.7847,-7.8581 -8.4388,-12.0547 -2.56,-4.1001 -4.9799,-8.3816 -7.2259,-12.7794 -2.1916,-4.3926 -4.7294,-10.0973 -6.5905,-14.7173 -2.1302,-5.4153 -3.5944,-9.2521 -4.948,-13.6127 -1.7603,-5.2439 -2.0839,-9.1078 -3.0786,-13.7202 -0.5267,-4.8978 -1.8562,-9.8452 -2.4319,-14.7937 -0.5418,-4.908 -0.8534,-9.8438 -0.9128,-14.751 -0.014,-4.8906 0.2454,-9.7517 0.7343,-14.5874 0.5886,-4.781 2.9653,-9.5459 4.0331,-14.2507 2.7404,-4.4682 2.04,-10.3994 3.4968,-14.7785 1.1986,-5.5816 3.1957,-8.152 5.1446,-11.9723 2.3105,-4.1932 4.738,-8.2695 7.6781,-12.1921 2.8428,-3.7931 7.0463,-7.0959 10.7919,-10.6818"
         id="path7895-3-0-33-2-0-8-3-6-4-0-4-4"
         sodipodi:nodetypes="cc"
         inkscape:path-effect="#path-effect7954-25-6-0-5-2-9-0-9-8-9-7"
         inkscape:original-d="m 3682.2978,3996.6172 c -109.1073,69.3915 -206.9579,-123.22 -123.5704,-203.0525" /><path
         style="fill:none;fill-opacity:1;stroke:#000000;stroke-width:8.64631;stroke-linecap:round;stroke-linejoin:round;stroke-dasharray:none;stroke-opacity:1"
         d="m 4051.6272,4032.1167 c 4.4252,0.8197 8.5243,0.8202 13.0275,1.1016 4.2401,-0.2556 10.4227,0.5262 15.0726,0.2767 5.3076,0 8.0196,-1.0821 12.15,-1.7151 4.2918,-1.1275 8.8671,-1.9394 13.3689,-3.1163 4.2322,-1.4665 8.9,-2.5967 13.2681,-4.2155 4.3034,-1.6259 8.8903,-3.2442 13.0542,-5.2614 4.4248,-1.8194 7.7697,-4.7773 11.6788,-7.1548 3.5889,-2.9994 8.3878,-4.7667 12.0906,-7.5382 4.2245,-2.4865 7.1363,-5.6098 10.4748,-8.6637 3.4326,-3.1329 7.0044,-6.2678 10.0732,-9.7327 3.3829,-3.289 5.9839,-7.071 8.6396,-10.8425 2.7176,-3.7826 5.1829,-7.7406 7.3914,-11.8276 2.2649,-4.0837 3.7523,-9.4922 5.4466,-13.8472 1.1552,-5.2272 2.5765,-8.899 3.6771,-13.1335 0.7871,-5.0708 2.5501,-8.7968 3.1458,-13.3264 1.1641,-4.7535 0.9602,-9.6177 0.9056,-14.5686 -0.022,-4.9615 -0.4247,-10.0384 -1.225,-15.1983 -0.7511,-5.1075 -1.8803,-10.2978 -3.4685,-15.5983 -1.478,-5.197 -1.8595,-10.5175 -4.2737,-15.9373 -0.731,-5.3792 -5.9658,-12.3957 -9.7224,-18.0288 -3.5434,-5.3134 -7.13,-9.2588 -11.0685,-14.6556"
         id="path7895-3-0-33-2-0-8-3-6-4-0-6-2-3"
         sodipodi:nodetypes="cc"
         inkscape:path-effect="#path-effect7954-25-6-0-5-2-9-0-9-8-5-0-8"
         inkscape:original-d="m 4051.6272,4032.1167 c 92.9289,17.2145 208.3661,-86.8611 123.5704,-203.0523" /><path
         style="fill:none;fill-opacity:1;stroke:#000000;stroke-width:8.64631;stroke-linecap:round;stroke-linejoin:round;stroke-dasharray:none;stroke-opacity:1"
         d="m 4202.9375,3933.9534 c 8.0384,-0.8349 15.3834,-2.442 22.795,-3.7172 7.117,-1.8337 15.8305,-2.5706 22.6973,-4.2762 7.5833,-1.3713 12.2974,-3.7939 18.1796,-5.7272 5.9548,-2.4756 11.9136,-4.5725 17.5504,-6.9676 5.3776,-2.686 10.9423,-4.9707 15.9897,-7.6755 4.9974,-2.7124 10.0626,-5.3511 14.5186,-8.3189 4.7297,-2.7693 8.1962,-6.6093 12.0727,-9.7976 3.5099,-3.7821 8.0773,-6.2575 11.4256,-9.6588 3.9202,-3.149 6.4041,-6.8612 9.219,-10.4263 2.8765,-3.6347 5.7948,-7.1886 8.1428,-10.9853 2.6748,-3.6409 4.499,-7.6879 6.3393,-11.6333 1.8906,-3.9456 3.4915,-7.9739 4.8285,-12.0344 1.3939,-4.0604 2.0033,-9.3488 2.8428,-13.4828 0.3441,-4.9444 0.9792,-8.2553 1.3439,-12.0454 0.028,-4.6258 1.0807,-7.8266 1.0424,-11.7418 0.4945,-4.1632 -0.2892,-8.3369 -0.8034,-12.486 -0.4837,-4.1354 -1.222,-8.2723 -2.2024,-12.3676 -0.9361,-4.0708 -2.0958,-8.0986 -3.5309,-12.1011 -1.3408,-3.9494 -1.3991,-7.8811 -3.2825,-11.7655 -0.2936,-4.0322 -4.4926,-9.5226 -7.0437,-13.4664 -2.3667,-4.6944 -4.3675,-6.5042 -6.885,-9.6331 -2.6644,-3.4121 -5.7639,-6.7791 -8.9859,-10.001 -3.1126,-3.115 -5.5261,-5.8019 -9.0739,-8.72 -2.6732,-2.6172 -7.7141,-6.1205 -11.9279,-8.9363 -3.8387,-2.6939 -7.7998,-5.041 -11.8697,-7.3127 -4.1759,-2.3308 -8.5674,-4.7181 -12.8473,-6.7637"
         id="path7895-3-0-33-2-0-8-3-6-4-0-6-2-3-6"
         sodipodi:nodetypes="cc"
         inkscape:path-effect="#path-effect7954-25-6-0-5-2-9-0-9-8-5-0-8-3"
         inkscape:original-d="m 4202.9375,3933.9534 c 208.9995,-21.7076 204.1181,-197.5301 90.6602,-251.7583" /><path
         style="fill:none;fill-opacity:1;stroke:#000000;stroke-width:4.807;stroke-linecap:round;stroke-linejoin:round;stroke-dasharray:none;stroke-dashoffset:0;stroke-opacity:1"
         d="m 4459.5183,4369.3628 4.6569,-0.078 5.6136,0.4212 -0.1589,-5.1133 -0.1398,-4.9002 -0.02,-4.8479 0.1454,-4.8761 -0.2001,-5.2427 0.2868,-4.6365 -0.02,-5.0394 0.1362,-4.8859 -0.01,-5.0123 -0,-4.9547 -0.2423,-5.3996 -0.1928,-4.7692 0.2586,-4.6747 -0.01,-4.9504 -0,-4.9506 0.02,-4.9386 0.8198,-4.9416 -0.2086,-5.5192 -0.017,-4.4048 -0.074,-4.9571 0.4005,-4.8136 -0.1854,-5.1839 -0.1661,-4.9221 -0.2278,-5.0224 -0.2557,-4.9465 -0.1694,-5.0985 -0.1675,-4.7304 -0.1055,-4.9131 -0.1732,-5.3091 -4.4126,0.1369 -5.3816,0.086 -4.8501,0.1351 -4.6769,0.043 -5.6761,-0.2421 -4.5849,0.073 -5.31,-0.5367 -4.7411,0.052 -4.6343,0.02 -5.4828,-0.115 -4.5627,0.1506 -5.3185,-0.073 -4.9004,-0.017 -5.1456,-0.4483 -4.8863,-0.1759 -4.9985,-0.355 -4.8552,-0.2542 -4.9344,-0.5168 -4.9446,-0.2063 -4.9325,0.07 -4.1904,0.1793 -5.4259,0.1077 -5.3684,-0.613 -4.9103,0.043 -4.7617,0.1748 -5.1628,0.046 -4.5257,0.1588 -5.3587,0.072 -4.5336,0.1399 -5.4096,0.051 -5.0884,-0.1186 -4.5823,0.1504 -5.125,0.1159 -4.8806,0.1555 -4.8633,0.199 -4.6842,0.191 -5.6463,-0.3071 -4.7415,0.099 -5.1504,-0.1247 -4.2799,0.1315 -4.9731,0.2382 -5.4917,-0.1668 -5.0229,0.016 -4.5892,0.095 -5.3116,0.024 -4.9473,-0.4445 -4.9218,0.1207 -4.8121,0.1759 -5.1989,-0.067 -5.001,-0.028 -4.3164,0.2806 -5.5693,0.015 -4.9899,0.018 -4.873,0.1113 -4.9274,0.1197 -4.8138,0.1397 -5.326,-0.2267 -4.7888,-0.047 -4.3875,0.3392 -5.5407,-0.3056 -4.9702,0.1862 -4.947,0.2739 -4.3875,0.4486 -5.5743,0.123 -4.4638,0.4241 -0.469,4.4507 -0.4385,3.957"
         id="path6578-4-1-3-8-9-1-3"
         sodipodi:nodetypes="ccccc"
         inkscape:path-effect="#path-effect6580-1-9-8-7-6-40-5"
         inkscape:original-d="m 4459.5183,4369.3628 9.691,0.2584 v -143.4944 h -322.576 l -0.416,9.1618" /><path
         style="fill:none;fill-opacity:1;stroke:#000000;stroke-width:4.807;stroke-linecap:round;stroke-linejoin:round;stroke-dasharray:none;stroke-dashoffset:0;stroke-opacity:1"
         d="m 4471.1019,4357.016 4.6569,-0.078 5.6136,0.4212 -0.1589,-5.1133 -0.1398,-4.9002 -0.02,-4.8479 0.1454,-4.8761 -0.2001,-5.2427 0.2868,-4.6365 -0.02,-5.0394 0.1362,-4.8859 -0.01,-5.0123 -0,-4.9547 -0.2423,-5.3996 -0.1928,-4.7692 0.2586,-4.6747 -0.01,-4.9504 -0,-4.9506 0.02,-4.9386 0.8198,-4.9416 -0.2086,-5.5192 -0.017,-4.4048 -0.074,-4.9571 0.4005,-4.8136 -0.1854,-5.1839 -0.1661,-4.9221 -0.2278,-5.0224 -0.2557,-4.9465 -0.1694,-5.0985 -0.1675,-4.7304 -0.1055,-4.9131 -0.1732,-5.3091 -4.4126,0.1369 -5.3816,0.086 -4.8501,0.1351 -4.6769,0.043 -5.6761,-0.2421 -4.5849,0.073 -5.31,-0.5367 -4.7411,0.052 -4.6343,0.02 -5.4828,-0.115 -4.5627,0.1506 -5.3185,-0.073 -4.9004,-0.017 -5.1456,-0.4483 -4.8863,-0.1759 -4.9985,-0.355 -4.8552,-0.2542 -4.9344,-0.5168 -4.9446,-0.2063 -4.9325,0.07 -4.1904,0.1793 -5.4259,0.1077 -5.3684,-0.613 -4.9103,0.043 -4.7617,0.1748 -5.1628,0.046 -4.5257,0.1588 -5.3587,0.072 -4.5336,0.1399 -5.4096,0.051 -5.0884,-0.1186 -4.5823,0.1504 -5.125,0.1159 -4.8806,0.1555 -4.8633,0.199 -4.6842,0.191 -5.6463,-0.3071 -4.7415,0.099 -5.1504,-0.1247 -4.2799,0.1315 -4.9731,0.2382 -5.4917,-0.1668 -5.0229,0.016 -4.5892,0.095 -5.3116,0.024 -4.9473,-0.4445 -4.9218,0.1207 -4.8121,0.1759 -5.1989,-0.067 -5.001,-0.028 -4.3164,0.2806 -5.5693,0.015 -4.9899,0.018 -4.873,0.1113 -4.9274,0.1197 -4.8138,0.1397 -5.326,-0.2267 -4.7888,-0.047 -4.3875,0.3392 -5.5407,-0.3056 -4.9702,0.1862 -4.947,0.2739 -4.3875,0.4486 -5.5743,0.123 -4.4638,0.4241 -0.469,4.4507 -0.4385,3.957"
         id="path6578-4-1-3-8-9-4-7-8"
         sodipodi:nodetypes="ccccc"
         inkscape:original-d="m 4471.1019,4357.016 9.691,0.2584 V 4213.78 h -322.576 l -0.416,9.1618"
         inkscape:path-effect="#path-effect6580-1-9-8-7-6-6-1-7" /><path
         style="fill:none;fill-opacity:1;stroke:#000000;stroke-width:4.807;stroke-linecap:round;stroke-linejoin:round;stroke-dasharray:none;stroke-dashoffset:0;stroke-opacity:1"
         d="m 4519.6163,4315.0481 4.6569,-0.078 5.6136,0.4212 -0.1589,-5.1133 -0.1398,-4.9002 -0.02,-4.8479 0.1454,-4.8761 -0.2001,-5.2427 0.2868,-4.6365 -0.02,-5.0394 0.1362,-4.8859 -0.01,-5.0123 -0,-4.9547 -0.2423,-5.3996 -0.1928,-4.7692 0.2586,-4.6747 -0.01,-4.9504 -0,-4.9506 0.02,-4.9386 0.8198,-4.9416 -0.2086,-5.5192 -0.017,-4.4048 -0.074,-4.9571 0.4005,-4.8136 -0.1854,-5.1839 -0.1661,-4.9221 -0.2278,-5.0224 -0.2557,-4.9465 -0.1694,-5.0985 -0.1675,-4.7304 -0.1055,-4.9131 -0.1732,-5.3091 -4.4126,0.1369 -5.3816,0.086 -4.8501,0.1351 -4.6769,0.043 -5.6761,-0.2421 -4.5849,0.073 -5.31,-0.5367 -4.7411,0.052 -4.6343,0.02 -5.4828,-0.115 -4.5627,0.1506 -5.3185,-0.073 -4.9004,-0.017 -5.1456,-0.4483 -4.8863,-0.1759 -4.9985,-0.355 -4.8552,-0.2542 -4.9344,-0.5168 -4.9446,-0.2063 -4.9325,0.07 -4.1904,0.1793 -5.4259,0.1077 -5.3684,-0.613 -4.9103,0.043 -4.7617,0.1748 -5.1628,0.046 -4.5257,0.1588 -5.3587,0.072 -4.5336,0.1399 -5.4096,0.051 -5.0884,-0.1186 -4.5823,0.1504 -5.125,0.1159 -4.8806,0.1555 -4.8633,0.199 -4.6842,0.191 -5.6463,-0.3071 -4.7415,0.099 -5.1504,-0.1247 -4.2799,0.1315 -4.9731,0.2382 -5.4917,-0.1668 -5.0229,0.016 -4.5892,0.095 -5.3116,0.024 -4.9473,-0.4445 -4.9218,0.1207 -4.8121,0.1759 -5.1989,-0.067 -5.001,-0.028 -4.3164,0.2806 -5.5693,0.015 -4.9899,0.018 -4.873,0.1113 -4.9274,0.1197 -4.8138,0.1397 -5.326,-0.2267 -4.7888,-0.047 -4.3875,0.3392 -5.5407,-0.3056 -4.9702,0.1862 -4.947,0.2739 -4.3875,0.4486 -5.5743,0.123 -4.4638,0.4241 -0.469,4.4507 -0.4385,3.957"
         id="path6578-4-1-3-8-9-0-2-6"
         sodipodi:nodetypes="ccccc"
         inkscape:original-d="m 4519.6163,4315.0481 9.691,0.2584 v -143.4944 h -322.576 l -0.416,9.1618"
         inkscape:path-effect="#path-effect6580-1-9-8-7-6-0-3-4" /><path
         style="fill:none;fill-opacity:1;stroke:#000000;stroke-width:4.807;stroke-linecap:round;stroke-linejoin:round;stroke-dasharray:none;stroke-dashoffset:0;stroke-opacity:1"
         d="m 4495.6273,4337.8273 4.6569,-0.078 5.6136,0.4212 -0.1589,-5.1133 -0.1398,-4.9002 -0.02,-4.8479 0.1454,-4.8761 -0.2001,-5.2427 0.2868,-4.6365 -0.02,-5.0394 0.1362,-4.8859 -0.01,-5.0123 -0,-4.9547 -0.2423,-5.3996 -0.1928,-4.7692 0.2586,-4.6747 -0.01,-4.9504 -0,-4.9506 0.02,-4.9386 0.8198,-4.9416 -0.2086,-5.5192 -0.017,-4.4048 -0.074,-4.9571 0.4005,-4.8136 -0.1854,-5.1839 -0.1661,-4.9221 -0.2278,-5.0224 -0.2557,-4.9465 -0.1694,-5.0985 -0.1675,-4.7304 -0.1055,-4.9131 -0.1732,-5.3091 -4.4126,0.1369 -5.3816,0.086 -4.8501,0.1351 -4.6769,0.043 -5.6761,-0.2421 -4.5849,0.073 -5.31,-0.5367 -4.7411,0.052 -4.6343,0.02 -5.4828,-0.115 -4.5627,0.1506 -5.3185,-0.073 -4.9004,-0.017 -5.1456,-0.4483 -4.8863,-0.1759 -4.9985,-0.355 -4.8552,-0.2542 -4.9344,-0.5168 -4.9446,-0.2063 -4.9325,0.07 -4.1904,0.1793 -5.4259,0.1077 -5.3684,-0.613 -4.9103,0.043 -4.7617,0.1748 -5.1628,0.046 -4.5257,0.1588 -5.3587,0.072 -4.5336,0.1399 -5.4096,0.051 -5.0884,-0.1186 -4.5823,0.1504 -5.125,0.1159 -4.8806,0.1555 -4.8633,0.199 -4.6842,0.191 -5.6463,-0.3071 -4.7415,0.099 -5.1504,-0.1247 -4.2799,0.1315 -4.9731,0.2382 -5.4917,-0.1668 -5.0229,0.016 -4.5892,0.095 -5.3116,0.024 -4.9473,-0.4445 -4.9218,0.1207 -4.8121,0.1759 -5.1989,-0.067 -5.001,-0.028 -4.3164,0.2806 -5.5693,0.015 -4.9899,0.018 -4.873,0.1113 -4.9274,0.1197 -4.8138,0.1397 -5.326,-0.2267 -4.7888,-0.047 -4.3875,0.3392 -5.5407,-0.3056 -4.9702,0.1862 -4.947,0.2739 -4.3875,0.4486 -5.5743,0.123 -4.4638,0.4241 -0.469,4.4507 -0.4385,3.957"
         id="path6578-4-1-3-8-9-6-4-0"
         sodipodi:nodetypes="ccccc"
         inkscape:original-d="m 4495.6273,4337.8273 9.691,0.2584 v -143.4944 h -322.576 l -0.416,9.1618"
         inkscape:path-effect="#path-effect6580-1-9-8-7-6-4-7-1" /><path
         style="fill:none;fill-opacity:1;stroke:#000000;stroke-width:4.807;stroke-linecap:round;stroke-linejoin:round;stroke-dasharray:none;stroke-dashoffset:0;stroke-opacity:1"
         d="m 4506.5626,4325.5939 4.6569,-0.078 5.6136,0.4212 -0.1589,-5.1133 -0.1398,-4.9002 -0.02,-4.8479 0.1454,-4.8761 -0.2001,-5.2427 0.2868,-4.6365 -0.02,-5.0394 0.1362,-4.8859 -0.01,-5.0123 -0,-4.9547 -0.2423,-5.3996 -0.1928,-4.7692 0.2586,-4.6747 -0.01,-4.9504 -0,-4.9506 0.02,-4.9386 0.8198,-4.9416 -0.2086,-5.5192 -0.017,-4.4048 -0.074,-4.9571 0.4005,-4.8136 -0.1854,-5.1839 -0.1661,-4.9221 -0.2278,-5.0224 -0.2557,-4.9465 -0.1694,-5.0985 -0.1675,-4.7304 -0.1055,-4.9131 -0.1732,-5.3091 -4.4126,0.1369 -5.3816,0.086 -4.8501,0.1351 -4.6769,0.043 -5.6761,-0.2421 -4.5849,0.073 -5.31,-0.5367 -4.7411,0.052 -4.6343,0.02 -5.4828,-0.115 -4.5627,0.1506 -5.3185,-0.073 -4.9004,-0.017 -5.1456,-0.4483 -4.8863,-0.1759 -4.9985,-0.355 -4.8552,-0.2542 -4.9344,-0.5168 -4.9446,-0.2063 -4.9325,0.07 -4.1904,0.1793 -5.4259,0.1077 -5.3684,-0.613 -4.9103,0.043 -4.7617,0.1748 -5.1628,0.046 -4.5257,0.1588 -5.3587,0.072 -4.5336,0.1399 -5.4096,0.051 -5.0884,-0.1186 -4.5823,0.1504 -5.125,0.1159 -4.8806,0.1555 -4.8633,0.199 -4.6842,0.191 -5.6463,-0.3071 -4.7415,0.099 -5.1504,-0.1247 -4.2799,0.1315 -4.9731,0.2382 -5.4917,-0.1668 -5.0229,0.016 -4.5892,0.095 -5.3116,0.024 -4.9473,-0.4445 -4.9218,0.1207 -4.8121,0.1759 -5.1989,-0.067 -5.001,-0.028 -4.3164,0.2806 -5.5693,0.015 -4.9899,0.018 -4.873,0.1113 -4.9274,0.1197 -4.8138,0.1397 -5.326,-0.2267 -4.7888,-0.047 -4.3875,0.3392 -5.5407,-0.3056 -4.9702,0.1862 -4.947,0.2739 -4.3875,0.4486 -5.5743,0.123 -4.4638,0.4241 -0.469,4.4507 -0.4385,3.957"
         id="path6578-4-1-3-8-9-67-1-4"
         sodipodi:nodetypes="ccccc"
         inkscape:original-d="m 4506.5626,4325.5939 9.691,0.2584 v -143.4944 h -322.576 l -0.416,9.1618"
         inkscape:path-effect="#path-effect6580-1-9-8-7-6-2-4-8" /><path
         style="fill:none;fill-opacity:1;stroke:#000000;stroke-width:4.807;stroke-linecap:round;stroke-linejoin:round;stroke-dasharray:none;stroke-dashoffset:0;stroke-opacity:1"
         d="m 4484.6724,4346.9697 4.6569,-0.078 5.6136,0.4212 -0.1589,-5.1133 -0.1398,-4.9002 -0.02,-4.8479 0.1454,-4.8761 -0.2001,-5.2427 0.2868,-4.6365 -0.02,-5.0394 0.1362,-4.8859 -0.01,-5.0123 -0,-4.9547 -0.2423,-5.3996 -0.1928,-4.7692 0.2586,-4.6747 -0.01,-4.9504 -0,-4.9506 0.02,-4.9386 0.8198,-4.9416 -0.2086,-5.5192 -0.017,-4.4048 -0.074,-4.9571 0.4005,-4.8136 -0.1854,-5.1839 -0.1661,-4.9221 -0.2278,-5.0224 -0.2557,-4.9465 -0.1694,-5.0985 -0.1675,-4.7304 -0.1055,-4.9131 -0.1732,-5.3091 -4.4126,0.1369 -5.3816,0.086 -4.8501,0.1351 -4.6769,0.043 -5.6761,-0.2421 -4.5849,0.073 -5.31,-0.5367 -4.7411,0.052 -4.6343,0.02 -5.4828,-0.115 -4.5627,0.1506 -5.3185,-0.073 -4.9004,-0.017 -5.1456,-0.4483 -4.8863,-0.1759 -4.9985,-0.355 -4.8552,-0.2542 -4.9344,-0.5168 -4.9446,-0.2063 -4.9325,0.07 -4.1904,0.1793 -5.4259,0.1077 -5.3684,-0.613 -4.9103,0.043 -4.7617,0.1748 -5.1628,0.046 -4.5257,0.1588 -5.3587,0.072 -4.5336,0.1399 -5.4096,0.051 -5.0884,-0.1186 -4.5823,0.1504 -5.125,0.1159 -4.8806,0.1555 -4.8633,0.199 -4.6842,0.191 -5.6463,-0.3071 -4.7415,0.099 -5.1504,-0.1247 -4.2799,0.1315 -4.9731,0.2382 -5.4917,-0.1668 -5.0229,0.016 -4.5892,0.095 -5.3116,0.024 -4.9473,-0.4445 -4.9218,0.1207 -4.8121,0.1759 -5.1989,-0.067 -5.001,-0.028 -4.3164,0.2806 -5.5693,0.015 -4.9899,0.018 -4.873,0.1113 -4.9274,0.1197 -4.8138,0.1397 -5.326,-0.2267 -4.7888,-0.047 -4.3875,0.3392 -5.5407,-0.3056 -4.9702,0.1862 -4.947,0.2739 -4.3875,0.4486 -5.5743,0.123 -4.4638,0.4241 -0.469,4.4507 -0.4385,3.957"
         id="path6578-4-1-3-8-9-69-6-8"
         sodipodi:nodetypes="ccccc"
         inkscape:original-d="m 4484.6724,4346.9697 9.691,0.2584 v -143.4944 h -322.576 l -0.416,9.1618"
         inkscape:path-effect="#path-effect6580-1-9-8-7-6-5-1-5" /><rect
         style="fill:none;stroke:#000000;stroke-width:0;stroke-linecap:round;stroke-linejoin:bevel;stroke-dasharray:none;stroke-opacity:1"
         id="rect149499-4-3"
         width="1349.818"
         height="755.48163"
         x="3523.5376"
         y="3643.929" /></g></g></svg>
